<svg width="1024" height="1024" fill="none" xmlns="http://www.w3.org/2000/svg"><path d="M208 528c0 35.346-28.654 64-64 64-35.346 0-64-28.654-64-64 0-35.346 28.654-64 64-64 35.346 0 64 28.654 64 64z" fill="url(#paint0_radial)"/><path d="M816 528c0 35.346 28.654 64 64 64 35.346 0 64-28.654 64-64 0-35.346-28.654-64-64-64-35.346 0-64 28.654-64 64z" fill="url(#paint1_radial)"/><path d="M512 944c212.077 0 384-171.923 384-384 0-64.728-16.015-125.715-44.299-179.215 2.175 4.482 3.299 9.061 3.299 13.715 0 54.4-153.566 98.5-343 98.5s-343-44.1-343-98.5c0-4.654 1.124-9.233 3.299-13.715C144.015 434.285 128 495.272 128 560c0 212.077 171.923 384 384 384z" fill="url(#paint2_radial)"/><path d="M512 944c212.077 0 384-171.923 384-384 0-64.728-16.015-125.715-44.299-179.215 2.175 4.482 3.299 9.061 3.299 13.715 0 54.4-153.566 98.5-343 98.5s-343-44.1-343-98.5c0-4.654 1.124-9.233 3.299-13.715C144.015 434.285 128 495.272 128 560c0 212.077 171.923 384 384 384z" fill="url(#paint3_radial)"/><path d="M855 394.5c0 54.4-153.566 98.5-343 98.5s-343-44.1-343-98.5S322.566 296 512 296s343 44.1 343 98.5z" fill="url(#paint4_linear)"/><g filter="url(#filter0_f)"><path d="M488.002 880.001c198.823 0 360.001-161.177 360.001-360 0-37.495-5.733-73.652-16.369-107.642 20.774 44.9 32.366 94.916 32.366 147.64 0 194.405-157.596 352-352 352-114.668 0-216.529-54.829-280.797-139.7 65.316 66.474 156.243 107.702 256.799 107.702z" fill="#C1092A" fill-opacity=".8"/></g><path d="M826 388c0 41.974-140.583 76-314 76s-314-34.026-314-76 140.583-76 314-76 314 34.026 314 76z" fill="#FF6DBC"/><path d="M511.999 464c173.418 0 314-34.027 314-76 38-37 11-95.667 0-119 16.8-58.4-28-88-42-101 4-55.2-50.333-75.333-75-81-38.4-40.8-96-41-130-24-56.8-40-111.333-14-136 0-82.4-24.8-100.666 11-125 36-56.8-3.2-83 50-89 77-47.2 24.8-56.333 96.333-55 129-15.2 38.4 9.667 71.333 24 83 0 41.973 140.583 76 314 76z" fill="url(#paint5_linear)"/><path d="M512 464c173.418 0 314-34.027 314-76 38-37 11-95.667 0-119 16.8-58.4-28-88-42-101 4-55.2-50.333-75.334-75-81-38.4-40.8-96-41-130-24-92.8 46.399-104.666 286.406-99 400.61 10.522.258 21.197.39 32 .39z" fill="url(#paint6_linear)"/><g filter="url(#filter1_dd)"><path fill-rule="evenodd" clip-rule="evenodd" d="M248.346 502.998A112.065 112.065 0 00244 534c0 61.856 50.144 112 112 112s112-50.144 112-112c0-1.049-.014-2.094-.043-3.136-85.299-1.411-162.242-11.774-219.611-27.866z" fill="#fff"/></g><g filter="url(#filter2_ddi)"><path fill-rule="evenodd" clip-rule="evenodd" d="M311.12 516.939A47.905 47.905 0 00308 534c0 26.51 21.49 48 48 48s48-21.49 48-48c0-2.022-.125-4.016-.368-5.972-33.003-2.397-64.1-6.168-92.512-11.089z" fill="url(#paint7_linear)"/></g><g filter="url(#filter3_dd)"><path fill-rule="evenodd" clip-rule="evenodd" d="M762.654 503A112.065 112.065 0 01767 534.002c0 61.856-50.144 112-112 112s-112-50.144-112-112c0-1.049.014-2.094.043-3.136 85.299-1.411 162.242-11.774 219.611-27.866z" fill="#fff"/></g><g filter="url(#filter4_ddi)"><path fill-rule="evenodd" clip-rule="evenodd" d="M699.88 516.941a47.901 47.901 0 013.12 17.061c0 26.51-21.49 48-48 48s-48-21.49-48-48c0-2.022.125-4.016.368-5.972 33.003-2.397 64.1-6.168 92.512-11.089z" fill="url(#paint8_linear)"/></g><path fill-rule="evenodd" clip-rule="evenodd" d="M427.055 185.109a8 8 0 016.576 9.206c-.555 3.331-.966 9.221-.246 15.351.737 6.267 2.528 11.699 5.462 15.166a8 8 0 01-12.214 10.335c-5.866-6.932-8.242-16.001-9.138-23.634-.913-7.769-.424-15.179.354-19.848a7.998 7.998 0 019.206-6.576zm363.943 30.786a8 8 0 01-7.894 8.104c-15.3.202-25.742 8.82-34.302 21.532-4.3 6.386-7.935 13.549-11.326 20.769a713.197 713.197 0 00-3.003 6.501c-2.256 4.924-4.489 9.799-6.67 13.933a369.203 369.203 0 00-1.71 3.292c-5.395 10.464-12.258 23.777-26.833 32.366-16.275 9.592-40.534 12.605-79.801 4.961-57.807-11.255-94.87 20.658-105.8 37.08a8.001 8.001 0 01-13.32-8.866c13.697-20.578 56.708-56.665 122.177-43.92 37.781 7.356 57.322 3.619 68.621-3.039 10.403-6.131 15.201-15.331 20.835-26.133.55-1.055 1.108-2.125 1.68-3.209 1.968-3.73 3.888-7.922 6.032-12.606a804.326 804.326 0 013.31-7.163c3.486-7.421 7.536-15.477 12.536-22.903 10.043-14.913 24.668-28.295 47.364-28.593a8 8 0 018.104 7.894z" fill="#EC52A5"/><path fill-rule="evenodd" clip-rule="evenodd" d="M616.971 125.693c20.264 11.11 37.496 31.899 46.243 63.706 7.384 26.851-.421 49.269-12.847 65.96-12.249 16.455-29.117 27.607-41.102 32.965a8 8 0 01-6.529-14.608c10.014-4.476 24.496-14.074 34.797-27.911 10.125-13.6 16.07-31.015 10.254-52.164-7.754-28.193-22.522-45.154-38.508-53.919-16.115-8.835-34.022-9.668-48.681-4.636a8 8 0 01-10.164-4.969 8 8 0 014.969-10.164c18.841-6.467 41.433-5.3 61.568 5.74zm-224.465-13.265c-28.697 10.624-50.58 35.413-55.93 73.973-3.857 27.801 1.694 50.159 12.887 67.292 11.12 17.02 27.413 28.289 44.149 34.768a8 8 0 005.776-14.921c-14.263-5.522-27.589-14.913-36.53-28.598-8.867-13.572-13.816-31.964-10.434-56.342 4.573-32.96 22.69-52.672 45.637-61.167 23.339-8.641 52.604-5.982 79.188 8.133a8 8 0 107.503-14.132c-29.916-15.884-63.94-19.486-92.246-9.006zm23.851-24.098c-28.994-6.086-54.045 6.602-70.864 22.486a8 8 0 01-10.986-11.632c19.181-18.116 49.331-34.028 85.136-26.514a8 8 0 016.186 9.473 8 8 0 01-9.472 6.186z" fill="#EC52A5"/><path fill-rule="evenodd" clip-rule="evenodd" d="M762.609 127.387c.896.878 1.673 1.64 2.317 2.234a8 8 0 01-10.852 11.757 183.562 183.562 0 01-3.444-3.292c-4.05-3.937-8.363-8.131-13.783-11.034-3.26-1.747-6.541-2.766-9.911-2.819-3.304-.052-7.198.813-11.776 3.6-7.456 4.539-11.256 12.201-12.62 24.211-1.348 11.879-.127 26.33 1.289 43.087l.143 1.697c1.864 22.107-2.237 44.842-11.629 63.625-9.391 18.781-24.393 34.164-44.544 40.209a7.998 7.998 0 01-9.961-5.363 8 8 0 015.363-9.962c14.849-4.454 26.847-16.071 34.831-32.04 7.984-15.967 11.632-35.732 9.996-55.125l-.214-2.533c-1.356-15.993-2.705-31.895-1.172-45.4 1.645-14.485 6.792-27.912 20.199-36.073 6.921-4.213 13.757-6.035 20.348-5.931 6.526.103 12.308 2.085 17.214 4.713 7.663 4.105 14.153 10.466 18.206 14.439zm-502.573 10.491c-.725.815-1.346 1.515-1.853 2.052a8 8 0 0011.633 10.984 168.895 168.895 0 002.963-3.247c3.358-3.742 6.804-7.584 11.139-10.248 2.563-1.576 4.951-2.375 7.258-2.417 2.214-.04 5.059.601 8.66 3.116 5.852 4.087 9.129 11.281 10.293 23.046 1.131 11.424.109 25.3-1.068 41.281l-.123 1.666c-1.544 21.005 1.848 42.635 9.655 60.548 7.763 17.812 20.357 32.901 37.803 38.906a8.001 8.001 0 0010.168-4.961 8 8 0 00-4.961-10.168c-11.72-4.034-21.626-14.759-28.342-30.17-6.673-15.309-9.739-34.312-8.366-52.982l.177-2.395c1.132-15.316 2.251-30.457.98-43.3-1.343-13.565-5.522-26.535-17.055-34.589-5.982-4.177-12.079-6.105-18.111-5.996-5.94.108-11.104 2.176-15.346 4.784-6.58 4.044-12.147 10.311-15.504 14.09z" fill="#EC52A5"/><path fill-rule="evenodd" clip-rule="evenodd" d="M776.747 191.806c-20.84-4.679-35.929 4.068-44.308 18.674a8 8 0 01-10.92 2.959 8 8 0 01-2.959-10.92c11.621-20.258 33.532-32.647 61.692-26.325a8.001 8.001 0 01-3.505 15.612zm-512.148 10.157c-6.653-5.339-13.601-6.881-18.728-6.745a8 8 0 01-.422-15.994c8.612-.228 19.333 2.37 29.165 10.261 9.866 7.919 18.312 20.736 23.147 40.075a8 8 0 01-15.523 3.88c-4.165-16.66-11.02-26.165-17.639-31.477zM579.363 82.031a8 8 0 0111.105-2.167c7.263 4.892 20.547 11.119 35.945 13.235 15.261 2.098 32.135.119 47.493-10.65a8 8 0 019.186 13.1c-19.442 13.633-40.651 15.904-58.857 13.401-18.069-2.483-33.635-9.707-42.705-15.815a8 8 0 01-2.167-11.104zM538.21 70.956a8 8 0 00-11.254-1.166c-5.737 4.66-16.178 10.535-28.15 12.52-11.696 1.938-24.642.17-36.641-9.975a8 8 0 00-10.331 12.218c16.217 13.712 34.15 16.1 49.589 13.541 15.164-2.513 28.114-9.788 35.62-15.884a8 8 0 001.167-11.254zm222.806 217.447c13.525-6.87 30.575-8.252 43.367 2.183 10.325 8.423 13.499 22.531 14.192 34.447.718 12.338-1.08 24.791-2.972 32.629a8 8 0 11-15.553-3.754c1.608-6.661 3.16-17.508 2.552-27.946-.631-10.859-3.457-19-8.333-22.978-6.208-5.064-15.907-5.446-26.007-.316-9.971 5.064-18.48 14.749-21.136 26.396-5.521 24.21 10.247 41.577 24.448 43.819a8 8 0 01-2.495 15.804c-23.799-3.757-45.031-30.39-37.552-63.181 3.843-16.852 15.835-30.168 29.489-37.103zm-525.621-9.725c-12.005-7.171-27.651-8.739-39.208 2.348-8.862 8.502-11.473 22.468-12.052 34.159-.604 12.221.912 24.584 2.509 32.364a8 8 0 1015.673-3.218c-1.387-6.755-2.726-17.747-2.201-28.356.551-11.138 3.054-19.476 7.148-23.403 4.638-4.45 11.793-5.016 19.926-.158 8.097 4.837 15.483 14.411 17.824 26.481 4.963 25.59-9.472 42.279-20.03 44.239a8 8 0 102.921 15.731c21.832-4.053 38.935-31.47 32.817-63.016-3.2-16.498-13.287-29.979-25.327-37.171zm463.282 67.256c8.825 3.966 16.082 10.952 20.855 21.077 4.168 8.84 5.264 17.31 3.934 25.154-1.315 7.763-4.913 14.391-9.327 19.816-8.683 10.672-21.184 17.529-29.457 20.537a8 8 0 01-5.468-15.036c6.442-2.343 16.173-7.805 22.514-15.599 3.098-3.808 5.211-7.95 5.963-12.391.739-4.36.259-9.528-2.631-15.658-3.227-6.844-7.764-10.98-12.941-13.306-5.306-2.384-11.819-3.097-19.134-2.075-14.779 2.064-31.272 11.024-43.198 23.467-13.705 14.301-28.958 27.731-48.665 33.779-20.019 6.144-43.331 4.312-72.47-9.117a8 8 0 116.696-14.531c26.591 12.255 45.778 13.049 61.08 8.352 15.614-4.792 28.501-15.669 41.808-29.554 14.008-14.615 33.656-25.606 52.536-28.243 9.515-1.329 19.21-.579 27.905 3.328z" fill="#EC52A5"/><path fill-rule="evenodd" clip-rule="evenodd" d="M571.431 370.604c-6.803 1.833-12.747 4.212-15.985 5.758a8 8 0 01-6.892-14.44c4.095-1.954 10.951-4.675 18.715-6.767 7.677-2.068 16.869-3.696 25.395-2.985a8 8 0 01-1.328 15.945c-5.874-.49-13.015.633-19.905 2.489zm-163.724.02c6.474 2.78 12.021 5.978 15.007 7.967a7.999 7.999 0 0011.093-2.223 7.999 7.999 0 00-2.223-11.093c-3.776-2.515-10.177-6.181-17.565-9.353-7.306-3.137-16.174-6.052-24.715-6.558a7.999 7.999 0 00-8.459 7.512 7.999 7.999 0 007.512 8.459c5.884.349 12.794 2.474 19.35 5.289z" fill="#EC52A5"/><path fill-rule="evenodd" clip-rule="evenodd" d="M284.943 346.012c-8.465 4.041-15.304 11.102-19.77 21.166-8.025 18.085-3.469 33.47 5.067 44.618 8.195 10.701 20.029 17.615 27.925 20.666a8 8 0 105.767-14.924c-5.952-2.3-15.043-7.705-20.988-15.47-5.605-7.319-8.406-16.546-3.146-28.401 3.065-6.905 7.326-10.967 12.039-13.217 4.827-2.304 10.772-3.008 17.515-2.007 13.664 2.027 29.075 10.873 40.285 23.3 12.877 14.275 27.304 27.805 46.036 33.914 19.119 6.235 41.307 4.329 68.845-9.156a8 8 0 10-7.036-14.369c-24.913 12.199-42.725 12.919-56.849 8.313-14.51-4.732-26.569-15.509-39.115-29.419-13.198-14.632-31.803-25.737-49.817-28.41-9.096-1.35-18.407-.592-26.758 3.396z" fill="#EC52A5"/><path fill-rule="evenodd" clip-rule="evenodd" d="M311.492 388.39a8 8 0 0111.117 2.103c6.56 9.622 28.206 30.483 59.539 33.033a8 8 0 017.324 8.623 7.998 7.998 0 01-8.622 7.324c-37.467-3.049-63.021-27.589-71.461-39.967a8 8 0 012.103-11.116zM581.5 434.5a8 8 0 018-8c19.728 0 39.359-8.237 62.232-32.043a8 8 0 0111.537 11.086c-24.952 25.97-48.497 36.957-73.769 36.957a8 8 0 01-8-8zm-5.323-266.035c-10.92 1.014-24.636 8.819-33.637 34.208-14.479 40.837 1.536 74.975 10.683 86.3a8 8 0 01-12.447 10.053c-11.853-14.674-30.038-54.537-13.317-101.7 10.499-29.611 28.533-43.056 47.239-44.792 17.746-1.647 34.576 7.609 41.725 19.957 13.089 22.608 7.236 49.084-7.461 69.224a8 8 0 01-12.925-9.431c12.303-16.859 15.45-36.384 6.539-51.776-3.851-6.652-14.521-13.145-26.399-12.043z" fill="#EC52A5"/><path fill-rule="evenodd" clip-rule="evenodd" d="M573.685 188.109a8 8 0 00-6.576 9.206c.555 3.331.966 9.221.246 15.351-.736 6.267-2.528 11.699-5.462 15.166a8 8 0 0012.214 10.335c5.867-6.932 8.242-16.001 9.139-23.634.913-7.769.424-15.179-.355-19.848a7.998 7.998 0 00-9.206-6.576zm-142.326-29.712c10.349 2.744 22.716 13.077 27.329 41.702 7.395 45.88-14.467 79.697-25.526 90.288a7.999 7.999 0 00-.245 11.311 8 8 0 0011.311.245c14.109-13.511 38.641-52.372 30.257-104.39-5.248-32.562-20.597-49.734-39.024-54.621-17.537-4.651-35.749 2.63-44.746 14.308-16.477 21.391-15.331 49.8-4.323 73.278a8 8 0 0014.487-6.793c-9.33-19.899-9.216-41.497 2.511-56.72 5.106-6.628 16.73-11.589 27.969-8.608zM206 215.883a8 8 0 007.882 8.116c12.972.19 22.163 8.315 29.962 21.205 3.872 6.398 7.145 13.576 10.196 20.805.905 2.146 1.807 4.338 2.705 6.517 2.024 4.92 4.024 9.777 5.979 13.902a380.997 380.997 0 011.54 3.3c4.818 10.411 11.005 23.781 24.24 32.462 15.02 9.851 37.293 12.814 72.764 5.129 51.011-11.053 83.959 20.224 93.865 36.787a8 8 0 1013.732-8.212c-12.223-20.437-51.225-57.16-110.985-44.213-33.759 7.315-50.845 3.528-60.601-2.871-9.214-6.043-13.505-15.192-18.609-26.075a766.075 766.075 0 00-1.489-3.163c-1.773-3.738-3.504-7.947-5.433-12.637-.934-2.27-1.914-4.652-2.967-7.147-3.129-7.412-6.761-15.452-11.247-22.867-8.916-14.735-22.249-28.61-43.418-28.92a7.999 7.999 0 00-8.116 7.882z" fill="#EC52A5"/><g filter="url(#filter5_ddii)"><path fill-rule="evenodd" clip-rule="evenodd" d="M365.202 770.194c6.52-5.964 16.641-5.513 22.605 1.008C413.197 798.963 451.334 820 503 820s89.803-21.037 115.194-48.798c5.963-6.521 16.084-6.972 22.604-1.008 6.521 5.963 6.972 16.084 1.009 22.604C610.753 826.752 564.223 852 503 852c-61.223 0-107.752-25.248-138.806-59.202-5.964-6.52-5.513-16.641 1.008-22.604z" fill="#894819"/></g><defs><filter id="filter0_f" x="135.203" y="316.359" width="824.797" height="691.64" filterUnits="userSpaceOnUse" color-interpolation-filters="sRGB"><feFlood flood-opacity="0" result="BackgroundImageFix"/><feBlend in="SourceGraphic" in2="BackgroundImageFix" result="shape"/><feGaussianBlur stdDeviation="48" result="effect1_foregroundBlur"/></filter><filter id="filter1_dd" x="212" y="486.998" width="288" height="207.002" filterUnits="userSpaceOnUse" color-interpolation-filters="sRGB"><feFlood flood-opacity="0" result="BackgroundImageFix"/><feColorMatrix in="SourceAlpha" values="0 0 0 0 0 0 0 0 0 0 0 0 0 0 0 0 0 0 127 0" result="hardAlpha"/><feOffset dy="16"/><feGaussianBlur stdDeviation="16"/><feComposite in2="hardAlpha" operator="out"/><feColorMatrix values="0 0 0 0 0.282353 0 0 0 0 0.054902 0 0 0 0 0.301961 0 0 0 0.2 0"/><feBlend in2="BackgroundImageFix" result="effect1_dropShadow"/><feColorMatrix in="SourceAlpha" values="0 0 0 0 0 0 0 0 0 0 0 0 0 0 0 0 0 0 127 0" result="hardAlpha"/><feOffset dy="2"/><feGaussianBlur stdDeviation="4"/><feComposite in2="hardAlpha" operator="out"/><feColorMatrix values="0 0 0 0 0.282353 0 0 0 0 0.054902 0 0 0 0 0.301961 0 0 0 0.2 0"/><feBlend in2="effect1_dropShadow" result="effect2_dropShadow"/><feBlend in="SourceGraphic" in2="effect2_dropShadow" result="shape"/></filter><filter id="filter2_ddi" x="300" y="512.939" width="112" height="81.061" filterUnits="userSpaceOnUse" color-interpolation-filters="sRGB"><feFlood flood-opacity="0" result="BackgroundImageFix"/><feColorMatrix in="SourceAlpha" values="0 0 0 0 0 0 0 0 0 0 0 0 0 0 0 0 0 0 127 0" result="hardAlpha"/><feOffset dy="4"/><feGaussianBlur stdDeviation="4"/><feComposite in2="hardAlpha" operator="out"/><feColorMatrix values="0 0 0 0 0.356863 0 0 0 0 0.0313726 0 0 0 0 0.384314 0 0 0 0.4 0"/><feBlend in2="BackgroundImageFix" result="effect1_dropShadow"/><feColorMatrix in="SourceAlpha" values="0 0 0 0 0 0 0 0 0 0 0 0 0 0 0 0 0 0 127 0" result="hardAlpha"/><feOffset dy="2"/><feGaussianBlur stdDeviation="2"/><feComposite in2="hardAlpha" operator="out"/><feColorMatrix values="0 0 0 0 0.356863 0 0 0 0 0.0313726 0 0 0 0 0.384314 0 0 0 0.2 0"/><feBlend in2="effect1_dropShadow" result="effect2_dropShadow"/><feBlend in="SourceGraphic" in2="effect2_dropShadow" result="shape"/><feColorMatrix in="SourceAlpha" values="0 0 0 0 0 0 0 0 0 0 0 0 0 0 0 0 0 0 127 0" result="hardAlpha"/><feOffset dx="4" dy="4"/><feGaussianBlur stdDeviation="6"/><feComposite in2="hardAlpha" operator="arithmetic" k2="-1" k3="1"/><feColorMatrix values="0 0 0 0 0.704427 0 0 0 0 0.418173 0 0 0 0 0.227338 0 0 0 0.4 0"/><feBlend in2="shape" result="effect3_innerShadow"/></filter><filter id="filter3_dd" x="511" y="487" width="288" height="207.002" filterUnits="userSpaceOnUse" color-interpolation-filters="sRGB"><feFlood flood-opacity="0" result="BackgroundImageFix"/><feColorMatrix in="SourceAlpha" values="0 0 0 0 0 0 0 0 0 0 0 0 0 0 0 0 0 0 127 0" result="hardAlpha"/><feOffset dy="16"/><feGaussianBlur stdDeviation="16"/><feComposite in2="hardAlpha" operator="out"/><feColorMatrix values="0 0 0 0 0.282353 0 0 0 0 0.054902 0 0 0 0 0.301961 0 0 0 0.2 0"/><feBlend in2="BackgroundImageFix" result="effect1_dropShadow"/><feColorMatrix in="SourceAlpha" values="0 0 0 0 0 0 0 0 0 0 0 0 0 0 0 0 0 0 127 0" result="hardAlpha"/><feOffset dy="2"/><feGaussianBlur stdDeviation="4"/><feComposite in2="hardAlpha" operator="out"/><feColorMatrix values="0 0 0 0 0.282353 0 0 0 0 0.054902 0 0 0 0 0.301961 0 0 0 0.2 0"/><feBlend in2="effect1_dropShadow" result="effect2_dropShadow"/><feBlend in="SourceGraphic" in2="effect2_dropShadow" result="shape"/></filter><filter id="filter4_ddi" x="599" y="512.941" width="112" height="81.061" filterUnits="userSpaceOnUse" color-interpolation-filters="sRGB"><feFlood flood-opacity="0" result="BackgroundImageFix"/><feColorMatrix in="SourceAlpha" values="0 0 0 0 0 0 0 0 0 0 0 0 0 0 0 0 0 0 127 0" result="hardAlpha"/><feOffset dy="4"/><feGaussianBlur stdDeviation="4"/><feComposite in2="hardAlpha" operator="out"/><feColorMatrix values="0 0 0 0 0.356863 0 0 0 0 0.0313726 0 0 0 0 0.384314 0 0 0 0.4 0"/><feBlend in2="BackgroundImageFix" result="effect1_dropShadow"/><feColorMatrix in="SourceAlpha" values="0 0 0 0 0 0 0 0 0 0 0 0 0 0 0 0 0 0 127 0" result="hardAlpha"/><feOffset dy="2"/><feGaussianBlur stdDeviation="2"/><feComposite in2="hardAlpha" operator="out"/><feColorMatrix values="0 0 0 0 0.356863 0 0 0 0 0.0313726 0 0 0 0 0.384314 0 0 0 0.2 0"/><feBlend in2="effect1_dropShadow" result="effect2_dropShadow"/><feBlend in="SourceGraphic" in2="effect2_dropShadow" result="shape"/><feColorMatrix in="SourceAlpha" values="0 0 0 0 0 0 0 0 0 0 0 0 0 0 0 0 0 0 127 0" result="hardAlpha"/><feOffset dx="4" dy="4"/><feGaussianBlur stdDeviation="6"/><feComposite in2="hardAlpha" operator="arithmetic" k2="-1" k3="1"/><feColorMatrix values="0 0 0 0 0.704427 0 0 0 0 0.418173 0 0 0 0 0.227338 0 0 0 0.4 0"/><feBlend in2="shape" result="effect3_innerShadow"/></filter><filter id="filter5_ddii" x="328" y="750" width="350" height="150" filterUnits="userSpaceOnUse" color-interpolation-filters="sRGB"><feFlood flood-opacity="0" result="BackgroundImageFix"/><feColorMatrix in="SourceAlpha" values="0 0 0 0 0 0 0 0 0 0 0 0 0 0 0 0 0 0 127 0" result="hardAlpha"/><feOffset dy="16"/><feGaussianBlur stdDeviation="16"/><feColorMatrix values="0 0 0 0 0.282353 0 0 0 0 0.054902 0 0 0 0 0.301961 0 0 0 0.2 0"/><feBlend in2="BackgroundImageFix" result="effect1_dropShadow"/><feColorMatrix in="SourceAlpha" values="0 0 0 0 0 0 0 0 0 0 0 0 0 0 0 0 0 0 127 0" result="hardAlpha"/><feOffset dy="4"/><feGaussianBlur stdDeviation="4"/><feComposite in2="hardAlpha" operator="out"/><feColorMatrix values="0 0 0 0 0.282353 0 0 0 0 0.054902 0 0 0 0 0.301961 0 0 0 0.2 0"/><feBlend in2="effect1_dropShadow" result="effect2_dropShadow"/><feBlend in="SourceGraphic" in2="effect2_dropShadow" result="shape"/><feColorMatrix in="SourceAlpha" values="0 0 0 0 0 0 0 0 0 0 0 0 0 0 0 0 0 0 127 0" result="hardAlpha"/><feOffset dx="6" dy="6"/><feGaussianBlur stdDeviation="16"/><feComposite in2="hardAlpha" operator="arithmetic" k2="-1" k3="1"/><feColorMatrix values="0 0 0 0 0.76276 0 0 0 0 0.388636 0 0 0 0 0.122215 0 0 0 1 0"/><feBlend in2="shape" result="effect3_innerShadow"/><feColorMatrix in="SourceAlpha" values="0 0 0 0 0 0 0 0 0 0 0 0 0 0 0 0 0 0 127 0" result="hardAlpha"/><feOffset dx="-6" dy="-6"/><feGaussianBlur stdDeviation="16"/><feComposite in2="hardAlpha" operator="arithmetic" k2="-1" k3="1"/><feColorMatrix values="0 0 0 0 0.354427 0 0 0 0 0.180009 0 0 0 0 0.0538352 0 0 0 1 0"/><feBlend in2="effect3_innerShadow" result="effect4_innerShadow"/></filter><linearGradient id="paint4_linear" x1="512" y1="296" x2="512" y2="493" gradientUnits="userSpaceOnUse"><stop stop-color="#FBB323"/><stop offset="1" stop-color="#F29724"/></linearGradient><linearGradient id="paint5_linear" x1="292.999" y1="106" x2="530.999" y2="454" gradientUnits="userSpaceOnUse"><stop stop-color="#FF6DBC"/><stop offset="1" stop-color="#E94EA2"/></linearGradient><linearGradient id="paint6_linear" x1="545.93" y1="115.037" x2="789.656" y2="313.303" gradientUnits="userSpaceOnUse"><stop stop-color="#E94EA2"/><stop offset="1" stop-color="#E33D97"/></linearGradient><linearGradient id="paint7_linear" x1="324" y1="522.361" x2="360.159" y2="595.723" gradientUnits="userSpaceOnUse"><stop stop-color="#4E280E"/><stop offset="1" stop-color="#281304"/></linearGradient><linearGradient id="paint8_linear" x1="687" y1="522.363" x2="650.841" y2="595.725" gradientUnits="userSpaceOnUse"><stop stop-color="#4E280E"/><stop offset="1" stop-color="#281304"/></linearGradient><radialGradient id="paint0_radial" cx="0" cy="0" r="1" gradientUnits="userSpaceOnUse" gradientTransform="rotate(61.389 -376.505 332.858) scale(100.24)"><stop stop-color="#FFCE21"/><stop offset="1" stop-color="#F2911E"/></radialGradient><radialGradient id="paint1_radial" cx="0" cy="0" r="1" gradientUnits="userSpaceOnUse" gradientTransform="rotate(118.61 314.403 527.448) scale(100.24)"><stop stop-color="#FFCE21"/><stop offset="1" stop-color="#F2911E"/></radialGradient><radialGradient id="paint2_radial" cx="0" cy="0" r="1" gradientUnits="userSpaceOnUse" gradientTransform="matrix(136.00243 492.81291 -650.0193 179.38695 376 451.184)"><stop stop-color="#FFEA9F"/><stop offset=".123" stop-color="#FFE380"/><stop offset=".416" stop-color="#FFD250"/><stop offset=".644" stop-color="#FFC122"/><stop offset="1" stop-color="#FFB422"/></radialGradient><radialGradient id="paint3_radial" cx="0" cy="0" r="1" gradientUnits="userSpaceOnUse" gradientTransform="matrix(136.00243 492.81291 -650.0193 179.38695 376 451.184)"><stop offset=".857" stop-color="#FFCE22" stop-opacity="0"/><stop offset="1" stop-color="#FF24F6" stop-opacity=".3"/></radialGradient></defs></svg>