<svg width="1024" height="1024" fill="none" xmlns="http://www.w3.org/2000/svg"><circle cx="144" cy="528" r="64" fill="url(#paint0_radial_284:2400)"/><circle r="64" transform="matrix(-1 0 0 1 880 528)" fill="url(#paint1_radial_284:2400)"/><circle cx="512" cy="560" r="384" fill="url(#paint2_radial_284:2400)"/><circle cx="512" cy="560" r="384" fill="url(#paint3_radial_284:2400)"/><g filter="url(#filter0_f_284:2400)"><path d="M488.002 880.001c198.823 0 360.001-161.177 360.001-360 0-37.495-5.733-73.652-16.369-107.642 20.774 44.9 32.366 94.916 32.366 147.64 0 194.405-157.596 352-352 352-114.668 0-216.529-54.829-280.797-139.7 65.316 66.474 156.243 107.702 256.799 107.702z" fill="#C1092A" fill-opacity=".6"/></g><g filter="url(#filter1_ddii_284:2400)"><path d="M511.998 295.003c-113.834-59.586-200.328-55.633-269.947-26.605-38.703 16.138-70.994 39.545-98.564 61.204-6.443 5.061-12.536 9.943-18.349 14.6l-.002.001c-19.964 15.995-36.618 29.338-52.759 38.194a20 20 0 00-5.811 30.256c154.69 187.644 343.649 176.881 445.432 137.514 101.784 39.367 290.742 50.13 445.432-137.514a19.997 19.997 0 00-5.811-30.256c-16.14-8.856-32.795-22.199-52.759-38.194l-.005-.004c-5.812-4.656-11.904-9.537-18.346-14.597-27.57-21.659-59.86-45.066-98.564-61.204-69.619-29.028-156.113-32.981-269.947 26.605z" fill="#212121"/></g><g filter="url(#filter2_dd_284:2400)"><path d="M656 351.995c-49.706 0-90 26.415-90 59s40.294 59 90 59 90-26.415 90-59-40.294-59-90-59z" fill="#fff"/></g><g filter="url(#filter3_dd_284:2400)"><path d="M352 352c49.706 0 90 26.415 90 59s-40.294 59-90 59-90-26.415-90-59 40.294-59 90-59z" fill="#fff"/></g><g filter="url(#filter4_ddi_284:2400)"><path d="M384 407.998c0 17.673-14.327 32-32 32-17.673 0-32-14.327-32-32 0-17.673 14.327-32 32-32 17.673 0 32 14.327 32 32z" fill="url(#paint4_linear_284:2400)"/></g><g filter="url(#filter5_ddi_284:2400)"><path d="M688 407.998c0 17.673-14.327 32-32 32-17.673 0-32-14.327-32-32 0-17.673 14.327-32 32-32 17.673 0 32 14.327 32 32z" fill="url(#paint5_linear_284:2400)"/></g><path fill-rule="evenodd" clip-rule="evenodd" d="M263.141 182.433c-19.798 8.879-35.58 25.714-43.689 38.417-5.943 9.311-18.308 12.041-27.619 6.097-9.31-5.943-12.04-18.308-6.097-27.619 11.141-17.454 32.37-40.536 61.037-53.393 29.883-13.402 67.12-15.194 105.862 10.147 9.244 6.046 11.836 18.441 5.79 27.685s-18.441 11.836-27.685 5.79c-26.331-17.223-49.016-15.459-67.599-7.124zm477.434-3.292c-21.587-2.209-43.671 4.479-57.045 11.426-9.802 5.092-21.876 1.273-26.968-8.529-5.091-9.802-1.273-21.876 8.53-26.967 18.376-9.546 48.301-18.921 79.556-15.722 32.58 3.335 65.724 20.402 86.606 61.719 4.982 9.858 1.03 21.888-8.829 26.871-9.858 4.982-21.888 1.029-26.871-8.829-14.192-28.08-34.719-37.895-54.979-39.969z" fill="#894819"/><g filter="url(#filter6_ddii_284:2400)"><path fill-rule="evenodd" clip-rule="evenodd" d="M546.872 743.333c-12.427-.241-23.272 2.842-34.134 15.104-7.324 8.269-19.964 9.035-28.233 1.711-8.268-7.324-9.034-19.964-1.71-28.233 19.765-22.314 42.529-29.008 64.854-28.574 15.037.292 31.284 4.1 44.723 7.25 4.272 1.001 8.26 1.936 11.835 2.67 16.894 3.469 28.585 3.846 38.353-.713 9.362-4.369 21.4-15.487 32.995-45.923 3.933-10.322 15.488-15.501 25.81-11.569 10.322 3.933 15.502 15.488 11.569 25.81-13.46 35.33-30.853 57.38-53.458 67.929-22.198 10.36-45.01 7.408-63.315 3.649-6.09-1.251-11.609-2.542-16.753-3.745-12.064-2.823-22.064-5.162-32.536-5.366z" fill="#894819"/></g><defs><filter id="filter0_f_284:2400" x="159.203" y="340.359" width="776.797" height="643.64" filterUnits="userSpaceOnUse" color-interpolation-filters="sRGB"><feFlood flood-opacity="0" result="BackgroundImageFix"/><feBlend in="SourceGraphic" in2="BackgroundImageFix" result="shape"/><feGaussianBlur stdDeviation="36" result="effect1_foregroundBlur_284:2400"/></filter><filter id="filter1_ddii_284:2400" x="29.998" y="231.917" width="964" height="389.812" filterUnits="userSpaceOnUse" color-interpolation-filters="sRGB"><feFlood flood-opacity="0" result="BackgroundImageFix"/><feColorMatrix in="SourceAlpha" values="0 0 0 0 0 0 0 0 0 0 0 0 0 0 0 0 0 0 127 0" result="hardAlpha"/><feOffset dy="16"/><feGaussianBlur stdDeviation="16"/><feColorMatrix values="0 0 0 0 0.282353 0 0 0 0 0.054902 0 0 0 0 0.301961 0 0 0 0.2 0"/><feBlend in2="BackgroundImageFix" result="effect1_dropShadow_284:2400"/><feColorMatrix in="SourceAlpha" values="0 0 0 0 0 0 0 0 0 0 0 0 0 0 0 0 0 0 127 0" result="hardAlpha"/><feOffset dy="4"/><feGaussianBlur stdDeviation="4"/><feComposite in2="hardAlpha" operator="out"/><feColorMatrix values="0 0 0 0 0.282353 0 0 0 0 0.054902 0 0 0 0 0.301961 0 0 0 0.2 0"/><feBlend in2="effect1_dropShadow_284:2400" result="effect2_dropShadow_284:2400"/><feBlend in="SourceGraphic" in2="effect2_dropShadow_284:2400" result="shape"/><feColorMatrix in="SourceAlpha" values="0 0 0 0 0 0 0 0 0 0 0 0 0 0 0 0 0 0 127 0" result="hardAlpha"/><feOffset dx="12" dy="12"/><feGaussianBlur stdDeviation="16"/><feComposite in2="hardAlpha" operator="arithmetic" k2="-1" k3="1"/><feColorMatrix values="0 0 0 0 0.316667 0 0 0 0 0.316667 0 0 0 0 0.316667 0 0 0 1 0"/><feBlend in2="shape" result="effect3_innerShadow_284:2400"/><feColorMatrix in="SourceAlpha" values="0 0 0 0 0 0 0 0 0 0 0 0 0 0 0 0 0 0 127 0" result="hardAlpha"/><feOffset dx="-12" dy="-12"/><feGaussianBlur stdDeviation="16"/><feComposite in2="hardAlpha" operator="arithmetic" k2="-1" k3="1"/><feColorMatrix values="0 0 0 0 0 0 0 0 0 0 0 0 0 0 0 0 0 0 1 0"/><feBlend in2="effect3_innerShadow_284:2400" result="effect4_innerShadow_284:2400"/></filter><filter id="filter2_dd_284:2400" x="534" y="335.995" width="244" height="182" filterUnits="userSpaceOnUse" color-interpolation-filters="sRGB"><feFlood flood-opacity="0" result="BackgroundImageFix"/><feColorMatrix in="SourceAlpha" values="0 0 0 0 0 0 0 0 0 0 0 0 0 0 0 0 0 0 127 0" result="hardAlpha"/><feOffset dy="16"/><feGaussianBlur stdDeviation="16"/><feComposite in2="hardAlpha" operator="out"/><feColorMatrix values="0 0 0 0 0.282353 0 0 0 0 0.054902 0 0 0 0 0.301961 0 0 0 0.2 0"/><feBlend in2="BackgroundImageFix" result="effect1_dropShadow_284:2400"/><feColorMatrix in="SourceAlpha" values="0 0 0 0 0 0 0 0 0 0 0 0 0 0 0 0 0 0 127 0" result="hardAlpha"/><feOffset dy="2"/><feGaussianBlur stdDeviation="4"/><feComposite in2="hardAlpha" operator="out"/><feColorMatrix values="0 0 0 0 0.282353 0 0 0 0 0.054902 0 0 0 0 0.301961 0 0 0 0.2 0"/><feBlend in2="effect1_dropShadow_284:2400" result="effect2_dropShadow_284:2400"/><feBlend in="SourceGraphic" in2="effect2_dropShadow_284:2400" result="shape"/></filter><filter id="filter3_dd_284:2400" x="230" y="336" width="244" height="182" filterUnits="userSpaceOnUse" color-interpolation-filters="sRGB"><feFlood flood-opacity="0" result="BackgroundImageFix"/><feColorMatrix in="SourceAlpha" values="0 0 0 0 0 0 0 0 0 0 0 0 0 0 0 0 0 0 127 0" result="hardAlpha"/><feOffset dy="16"/><feGaussianBlur stdDeviation="16"/><feComposite in2="hardAlpha" operator="out"/><feColorMatrix values="0 0 0 0 0.282353 0 0 0 0 0.054902 0 0 0 0 0.301961 0 0 0 0.2 0"/><feBlend in2="BackgroundImageFix" result="effect1_dropShadow_284:2400"/><feColorMatrix in="SourceAlpha" values="0 0 0 0 0 0 0 0 0 0 0 0 0 0 0 0 0 0 127 0" result="hardAlpha"/><feOffset dy="2"/><feGaussianBlur stdDeviation="4"/><feComposite in2="hardAlpha" operator="out"/><feColorMatrix values="0 0 0 0 0.282353 0 0 0 0 0.054902 0 0 0 0 0.301961 0 0 0 0.2 0"/><feBlend in2="effect1_dropShadow_284:2400" result="effect2_dropShadow_284:2400"/><feBlend in="SourceGraphic" in2="effect2_dropShadow_284:2400" result="shape"/></filter><filter id="filter4_ddi_284:2400" x="312" y="371.998" width="80" height="80" filterUnits="userSpaceOnUse" color-interpolation-filters="sRGB"><feFlood flood-opacity="0" result="BackgroundImageFix"/><feColorMatrix in="SourceAlpha" values="0 0 0 0 0 0 0 0 0 0 0 0 0 0 0 0 0 0 127 0" result="hardAlpha"/><feOffset dy="4"/><feGaussianBlur stdDeviation="4"/><feComposite in2="hardAlpha" operator="out"/><feColorMatrix values="0 0 0 0 0.356863 0 0 0 0 0.0313726 0 0 0 0 0.384314 0 0 0 0.4 0"/><feBlend in2="BackgroundImageFix" result="effect1_dropShadow_284:2400"/><feColorMatrix in="SourceAlpha" values="0 0 0 0 0 0 0 0 0 0 0 0 0 0 0 0 0 0 127 0" result="hardAlpha"/><feOffset dy="2"/><feGaussianBlur stdDeviation="2"/><feComposite in2="hardAlpha" operator="out"/><feColorMatrix values="0 0 0 0 0.356863 0 0 0 0 0.0313726 0 0 0 0 0.384314 0 0 0 0.2 0"/><feBlend in2="effect1_dropShadow_284:2400" result="effect2_dropShadow_284:2400"/><feBlend in="SourceGraphic" in2="effect2_dropShadow_284:2400" result="shape"/><feColorMatrix in="SourceAlpha" values="0 0 0 0 0 0 0 0 0 0 0 0 0 0 0 0 0 0 127 0" result="hardAlpha"/><feOffset dx="4" dy="4"/><feGaussianBlur stdDeviation="6"/><feComposite in2="hardAlpha" operator="arithmetic" k2="-1" k3="1"/><feColorMatrix values="0 0 0 0 0.704427 0 0 0 0 0.418173 0 0 0 0 0.227338 0 0 0 0.4 0"/><feBlend in2="shape" result="effect3_innerShadow_284:2400"/></filter><filter id="filter5_ddi_284:2400" x="616" y="371.998" width="80" height="80" filterUnits="userSpaceOnUse" color-interpolation-filters="sRGB"><feFlood flood-opacity="0" result="BackgroundImageFix"/><feColorMatrix in="SourceAlpha" values="0 0 0 0 0 0 0 0 0 0 0 0 0 0 0 0 0 0 127 0" result="hardAlpha"/><feOffset dy="4"/><feGaussianBlur stdDeviation="4"/><feComposite in2="hardAlpha" operator="out"/><feColorMatrix values="0 0 0 0 0.356863 0 0 0 0 0.0313726 0 0 0 0 0.384314 0 0 0 0.4 0"/><feBlend in2="BackgroundImageFix" result="effect1_dropShadow_284:2400"/><feColorMatrix in="SourceAlpha" values="0 0 0 0 0 0 0 0 0 0 0 0 0 0 0 0 0 0 127 0" result="hardAlpha"/><feOffset dy="2"/><feGaussianBlur stdDeviation="2"/><feComposite in2="hardAlpha" operator="out"/><feColorMatrix values="0 0 0 0 0.356863 0 0 0 0 0.0313726 0 0 0 0 0.384314 0 0 0 0.2 0"/><feBlend in2="effect1_dropShadow_284:2400" result="effect2_dropShadow_284:2400"/><feBlend in="SourceGraphic" in2="effect2_dropShadow_284:2400" result="shape"/><feColorMatrix in="SourceAlpha" values="0 0 0 0 0 0 0 0 0 0 0 0 0 0 0 0 0 0 127 0" result="hardAlpha"/><feOffset dx="4" dy="4"/><feGaussianBlur stdDeviation="6"/><feComposite in2="hardAlpha" operator="arithmetic" k2="-1" k3="1"/><feColorMatrix values="0 0 0 0 0.704427 0 0 0 0 0.418173 0 0 0 0 0.227338 0 0 0 0.4 0"/><feBlend in2="shape" result="effect3_innerShadow_284:2400"/></filter><filter id="filter6_ddii_284:2400" x="445.766" y="637.74" width="300.484" height="175.437" filterUnits="userSpaceOnUse" color-interpolation-filters="sRGB"><feFlood flood-opacity="0" result="BackgroundImageFix"/><feColorMatrix in="SourceAlpha" values="0 0 0 0 0 0 0 0 0 0 0 0 0 0 0 0 0 0 127 0" result="hardAlpha"/><feOffset dy="16"/><feGaussianBlur stdDeviation="16"/><feColorMatrix values="0 0 0 0 0.282353 0 0 0 0 0.054902 0 0 0 0 0.301961 0 0 0 0.2 0"/><feBlend in2="BackgroundImageFix" result="effect1_dropShadow_284:2400"/><feColorMatrix in="SourceAlpha" values="0 0 0 0 0 0 0 0 0 0 0 0 0 0 0 0 0 0 127 0" result="hardAlpha"/><feOffset dy="4"/><feGaussianBlur stdDeviation="4"/><feComposite in2="hardAlpha" operator="out"/><feColorMatrix values="0 0 0 0 0.282353 0 0 0 0 0.054902 0 0 0 0 0.301961 0 0 0 0.2 0"/><feBlend in2="effect1_dropShadow_284:2400" result="effect2_dropShadow_284:2400"/><feBlend in="SourceGraphic" in2="effect2_dropShadow_284:2400" result="shape"/><feColorMatrix in="SourceAlpha" values="0 0 0 0 0 0 0 0 0 0 0 0 0 0 0 0 0 0 127 0" result="hardAlpha"/><feOffset dx="6" dy="6"/><feGaussianBlur stdDeviation="16"/><feComposite in2="hardAlpha" operator="arithmetic" k2="-1" k3="1"/><feColorMatrix values="0 0 0 0 0.76276 0 0 0 0 0.388636 0 0 0 0 0.122215 0 0 0 1 0"/><feBlend in2="shape" result="effect3_innerShadow_284:2400"/><feColorMatrix in="SourceAlpha" values="0 0 0 0 0 0 0 0 0 0 0 0 0 0 0 0 0 0 127 0" result="hardAlpha"/><feOffset dx="-6" dy="-6"/><feGaussianBlur stdDeviation="16"/><feComposite in2="hardAlpha" operator="arithmetic" k2="-1" k3="1"/><feColorMatrix values="0 0 0 0 0.354427 0 0 0 0 0.180009 0 0 0 0 0.0538352 0 0 0 1 0"/><feBlend in2="effect3_innerShadow_284:2400" result="effect4_innerShadow_284:2400"/></filter><radialGradient id="paint0_radial_284:2400" cx="0" cy="0" r="1" gradientUnits="userSpaceOnUse" gradientTransform="rotate(61.389 -376.505 332.858) scale(100.24)"><stop stop-color="#FFCE21"/><stop offset="1" stop-color="#F2911E"/></radialGradient><radialGradient id="paint1_radial_284:2400" cx="0" cy="0" r="1" gradientUnits="userSpaceOnUse" gradientTransform="rotate(61.389 -25.69 33.476) scale(100.24)"><stop stop-color="#FFCE21"/><stop offset="1" stop-color="#F2911E"/></radialGradient><radialGradient id="paint2_radial_284:2400" cx="0" cy="0" r="1" gradientUnits="userSpaceOnUse" gradientTransform="rotate(78.559 21.72 365.859) scale(685.624)"><stop stop-color="#FFEA9F"/><stop offset=".123" stop-color="#FFE380"/><stop offset=".416" stop-color="#FFD250"/><stop offset=".644" stop-color="#FFC122"/><stop offset="1" stop-color="#FFB422"/></radialGradient><radialGradient id="paint3_radial_284:2400" cx="0" cy="0" r="1" gradientUnits="userSpaceOnUse" gradientTransform="rotate(78.559 21.72 365.859) scale(685.624)"><stop offset=".557" stop-color="#E35D12" stop-opacity="0"/><stop offset="1" stop-color="#FF24F6" stop-opacity=".3"/></radialGradient><linearGradient id="paint4_linear_284:2400" x1="330.667" y1="381.331" x2="373.333" y2="439.998" gradientUnits="userSpaceOnUse"><stop stop-color="#4E280E"/><stop offset="1" stop-color="#281304"/></linearGradient><linearGradient id="paint5_linear_284:2400" x1="634.667" y1="381.331" x2="677.333" y2="439.998" gradientUnits="userSpaceOnUse"><stop stop-color="#4E280E"/><stop offset="1" stop-color="#281304"/></linearGradient></defs></svg>