<svg width="1024" height="1024" fill="none" xmlns="http://www.w3.org/2000/svg"><circle cx="144" cy="528" r="64" fill="url(#paint0_radial_281:3160)"/><circle r="64" transform="matrix(-1 0 0 1 880 528)" fill="url(#paint1_radial_281:3160)"/><circle cx="512" cy="560" r="384" fill="url(#paint2_radial_281:3160)"/><circle cx="512" cy="560" r="384" fill="url(#paint3_radial_281:3160)"/><g filter="url(#filter0_f_281:3160)"><path d="M488.002 880.001c198.823 0 360.001-161.177 360.001-360 0-37.495-5.733-73.652-16.369-107.642 20.774 44.9 32.366 94.916 32.366 147.64 0 194.405-157.596 352-352 352-114.668 0-216.529-54.829-280.797-139.7 65.316 66.474 156.243 107.702 256.799 107.702z" fill="#C1092A" fill-opacity=".6"/></g><g filter="url(#filter1_dd_281:3160)"><path d="M440 428c0 39.765-32.235 72-72 72s-72-32.235-72-72 32.235-72 72-72 72 32.235 72 72z" fill="url(#paint4_linear_281:3160)"/></g><g filter="url(#filter2_ddi_281:3160)"><path d="M768 428c0 61.856-50.144 112-112 112s-112-50.144-112-112 50.144-112 112-112 112 50.144 112 112z" fill="url(#paint5_linear_281:3160)"/></g><g filter="url(#filter3_ddi_281:3160)"><path d="M416 428c0 26.51-21.49 48-48 48s-48-21.49-48-48 21.49-48 48-48 48 21.49 48 48z" fill="url(#paint6_linear_281:3160)"/></g><g filter="url(#filter4_dd_281:3160)"><path d="M720 428c0 35.346-28.654 64-64 64-35.346 0-64-28.654-64-64 0-35.346 28.654-64 64-64 35.346 0 64 28.654 64 64z" fill="#fff"/></g><g filter="url(#filter5_ddii_281:3160)"><path fill-rule="evenodd" clip-rule="evenodd" d="M718.587 739.174c-6.171 9.161-18.601 11.584-27.762 5.413L654.5 720.115l-36.326 24.472a19.998 19.998 0 01-22.349 0L559.5 720.115l-36.326 24.472a19.998 19.998 0 01-22.349 0L464.5 720.115l-36.326 24.472a19.998 19.998 0 01-22.349 0L369.5 720.115l-36.326 24.472c-9.16 6.172-21.59 3.748-27.761-5.413-6.172-9.16-3.748-21.59 5.412-27.761l47.5-32a19.998 19.998 0 0122.349 0L417 703.885l36.325-24.472a19.998 19.998 0 0122.349 0L512 703.885l36.325-24.472a19.998 19.998 0 0122.349 0L607 703.885l36.325-24.472a19.998 19.998 0 0122.349 0l47.5 32c9.161 6.171 11.584 18.601 5.413 27.761z" fill="#894819"/></g><defs><filter id="filter0_f_281:3160" x="159.203" y="340.359" width="776.797" height="643.64" filterUnits="userSpaceOnUse" color-interpolation-filters="sRGB"><feFlood flood-opacity="0" result="BackgroundImageFix"/><feBlend in="SourceGraphic" in2="BackgroundImageFix" result="shape"/><feGaussianBlur stdDeviation="36" result="effect1_foregroundBlur_281:3160"/></filter><filter id="filter1_dd_281:3160" x="280" y="348" width="176" height="176" filterUnits="userSpaceOnUse" color-interpolation-filters="sRGB"><feFlood flood-opacity="0" result="BackgroundImageFix"/><feColorMatrix in="SourceAlpha" values="0 0 0 0 0 0 0 0 0 0 0 0 0 0 0 0 0 0 127 0" result="hardAlpha"/><feOffset dy="2"/><feGaussianBlur stdDeviation="2"/><feComposite in2="hardAlpha" operator="out"/><feColorMatrix values="0 0 0 0 0.282353 0 0 0 0 0.054902 0 0 0 0 0.301961 0 0 0 0.2 0"/><feBlend in2="BackgroundImageFix" result="effect1_dropShadow_281:3160"/><feColorMatrix in="SourceAlpha" values="0 0 0 0 0 0 0 0 0 0 0 0 0 0 0 0 0 0 127 0" result="hardAlpha"/><feOffset dy="8"/><feGaussianBlur stdDeviation="8"/><feComposite in2="hardAlpha" operator="out"/><feColorMatrix values="0 0 0 0 0.282353 0 0 0 0 0.054902 0 0 0 0 0.301961 0 0 0 0.2 0"/><feBlend in2="effect1_dropShadow_281:3160" result="effect2_dropShadow_281:3160"/><feBlend in="SourceGraphic" in2="effect2_dropShadow_281:3160" result="shape"/></filter><filter id="filter2_ddi_281:3160" x="536" y="312" width="240" height="240" filterUnits="userSpaceOnUse" color-interpolation-filters="sRGB"><feFlood flood-opacity="0" result="BackgroundImageFix"/><feColorMatrix in="SourceAlpha" values="0 0 0 0 0 0 0 0 0 0 0 0 0 0 0 0 0 0 127 0" result="hardAlpha"/><feOffset dy="4"/><feGaussianBlur stdDeviation="4"/><feComposite in2="hardAlpha" operator="out"/><feColorMatrix values="0 0 0 0 0.356863 0 0 0 0 0.0313726 0 0 0 0 0.384314 0 0 0 0.4 0"/><feBlend in2="BackgroundImageFix" result="effect1_dropShadow_281:3160"/><feColorMatrix in="SourceAlpha" values="0 0 0 0 0 0 0 0 0 0 0 0 0 0 0 0 0 0 127 0" result="hardAlpha"/><feOffset dy="2"/><feGaussianBlur stdDeviation="2"/><feComposite in2="hardAlpha" operator="out"/><feColorMatrix values="0 0 0 0 0.356863 0 0 0 0 0.0313726 0 0 0 0 0.384314 0 0 0 0.2 0"/><feBlend in2="effect1_dropShadow_281:3160" result="effect2_dropShadow_281:3160"/><feBlend in="SourceGraphic" in2="effect2_dropShadow_281:3160" result="shape"/><feColorMatrix in="SourceAlpha" values="0 0 0 0 0 0 0 0 0 0 0 0 0 0 0 0 0 0 127 0" result="hardAlpha"/><feOffset dx="4" dy="4"/><feGaussianBlur stdDeviation="6"/><feComposite in2="hardAlpha" operator="arithmetic" k2="-1" k3="1"/><feColorMatrix values="0 0 0 0 0.704427 0 0 0 0 0.418173 0 0 0 0 0.227338 0 0 0 0.4 0"/><feBlend in2="shape" result="effect3_innerShadow_281:3160"/></filter><filter id="filter3_ddi_281:3160" x="312" y="376" width="112" height="112" filterUnits="userSpaceOnUse" color-interpolation-filters="sRGB"><feFlood flood-opacity="0" result="BackgroundImageFix"/><feColorMatrix in="SourceAlpha" values="0 0 0 0 0 0 0 0 0 0 0 0 0 0 0 0 0 0 127 0" result="hardAlpha"/><feOffset dy="4"/><feGaussianBlur stdDeviation="4"/><feComposite in2="hardAlpha" operator="out"/><feColorMatrix values="0 0 0 0 0.356863 0 0 0 0 0.0313726 0 0 0 0 0.384314 0 0 0 0.4 0"/><feBlend in2="BackgroundImageFix" result="effect1_dropShadow_281:3160"/><feColorMatrix in="SourceAlpha" values="0 0 0 0 0 0 0 0 0 0 0 0 0 0 0 0 0 0 127 0" result="hardAlpha"/><feOffset dy="2"/><feGaussianBlur stdDeviation="2"/><feComposite in2="hardAlpha" operator="out"/><feColorMatrix values="0 0 0 0 0.356863 0 0 0 0 0.0313726 0 0 0 0 0.384314 0 0 0 0.2 0"/><feBlend in2="effect1_dropShadow_281:3160" result="effect2_dropShadow_281:3160"/><feBlend in="SourceGraphic" in2="effect2_dropShadow_281:3160" result="shape"/><feColorMatrix in="SourceAlpha" values="0 0 0 0 0 0 0 0 0 0 0 0 0 0 0 0 0 0 127 0" result="hardAlpha"/><feOffset dx="4" dy="4"/><feGaussianBlur stdDeviation="6"/><feComposite in2="hardAlpha" operator="arithmetic" k2="-1" k3="1"/><feColorMatrix values="0 0 0 0 0.704427 0 0 0 0 0.418173 0 0 0 0 0.227338 0 0 0 0.4 0"/><feBlend in2="shape" result="effect3_innerShadow_281:3160"/></filter><filter id="filter4_dd_281:3160" x="560" y="348" width="192" height="192" filterUnits="userSpaceOnUse" color-interpolation-filters="sRGB"><feFlood flood-opacity="0" result="BackgroundImageFix"/><feColorMatrix in="SourceAlpha" values="0 0 0 0 0 0 0 0 0 0 0 0 0 0 0 0 0 0 127 0" result="hardAlpha"/><feOffset dy="16"/><feGaussianBlur stdDeviation="16"/><feComposite in2="hardAlpha" operator="out"/><feColorMatrix values="0 0 0 0 0.282353 0 0 0 0 0.054902 0 0 0 0 0.301961 0 0 0 0.2 0"/><feBlend in2="BackgroundImageFix" result="effect1_dropShadow_281:3160"/><feColorMatrix in="SourceAlpha" values="0 0 0 0 0 0 0 0 0 0 0 0 0 0 0 0 0 0 127 0" result="hardAlpha"/><feOffset dy="2"/><feGaussianBlur stdDeviation="4"/><feComposite in2="hardAlpha" operator="out"/><feColorMatrix values="0 0 0 0 0.282353 0 0 0 0 0.054902 0 0 0 0 0.301961 0 0 0 0.2 0"/><feBlend in2="effect1_dropShadow_281:3160" result="effect2_dropShadow_281:3160"/><feBlend in="SourceGraphic" in2="effect2_dropShadow_281:3160" result="shape"/></filter><filter id="filter5_ddii_281:3160" x="269.998" y="660" width="484.004" height="136.002" filterUnits="userSpaceOnUse" color-interpolation-filters="sRGB"><feFlood flood-opacity="0" result="BackgroundImageFix"/><feColorMatrix in="SourceAlpha" values="0 0 0 0 0 0 0 0 0 0 0 0 0 0 0 0 0 0 127 0" result="hardAlpha"/><feOffset dy="16"/><feGaussianBlur stdDeviation="16"/><feColorMatrix values="0 0 0 0 0.282353 0 0 0 0 0.054902 0 0 0 0 0.301961 0 0 0 0.2 0"/><feBlend in2="BackgroundImageFix" result="effect1_dropShadow_281:3160"/><feColorMatrix in="SourceAlpha" values="0 0 0 0 0 0 0 0 0 0 0 0 0 0 0 0 0 0 127 0" result="hardAlpha"/><feOffset dy="4"/><feGaussianBlur stdDeviation="4"/><feComposite in2="hardAlpha" operator="out"/><feColorMatrix values="0 0 0 0 0.282353 0 0 0 0 0.054902 0 0 0 0 0.301961 0 0 0 0.2 0"/><feBlend in2="effect1_dropShadow_281:3160" result="effect2_dropShadow_281:3160"/><feBlend in="SourceGraphic" in2="effect2_dropShadow_281:3160" result="shape"/><feColorMatrix in="SourceAlpha" values="0 0 0 0 0 0 0 0 0 0 0 0 0 0 0 0 0 0 127 0" result="hardAlpha"/><feOffset dx="6" dy="6"/><feGaussianBlur stdDeviation="16"/><feComposite in2="hardAlpha" operator="arithmetic" k2="-1" k3="1"/><feColorMatrix values="0 0 0 0 0.76276 0 0 0 0 0.388636 0 0 0 0 0.122215 0 0 0 1 0"/><feBlend in2="shape" result="effect3_innerShadow_281:3160"/><feColorMatrix in="SourceAlpha" values="0 0 0 0 0 0 0 0 0 0 0 0 0 0 0 0 0 0 127 0" result="hardAlpha"/><feOffset dx="-6" dy="-6"/><feGaussianBlur stdDeviation="16"/><feComposite in2="hardAlpha" operator="arithmetic" k2="-1" k3="1"/><feColorMatrix values="0 0 0 0 0.354427 0 0 0 0 0.180009 0 0 0 0 0.0538352 0 0 0 1 0"/><feBlend in2="effect3_innerShadow_281:3160" result="effect4_innerShadow_281:3160"/></filter><radialGradient id="paint0_radial_281:3160" cx="0" cy="0" r="1" gradientUnits="userSpaceOnUse" gradientTransform="rotate(61.389 -376.505 332.858) scale(100.24)"><stop stop-color="#FFCE21"/><stop offset="1" stop-color="#F2911E"/></radialGradient><radialGradient id="paint1_radial_281:3160" cx="0" cy="0" r="1" gradientUnits="userSpaceOnUse" gradientTransform="rotate(61.389 -25.69 33.476) scale(100.24)"><stop stop-color="#FFCE21"/><stop offset="1" stop-color="#F2911E"/></radialGradient><radialGradient id="paint2_radial_281:3160" cx="0" cy="0" r="1" gradientUnits="userSpaceOnUse" gradientTransform="rotate(78.559 21.72 365.859) scale(685.624)"><stop stop-color="#FFEA9F"/><stop offset=".123" stop-color="#FFE380"/><stop offset=".416" stop-color="#FFD250"/><stop offset=".644" stop-color="#FFC122"/><stop offset="1" stop-color="#FFB422"/></radialGradient><radialGradient id="paint3_radial_281:3160" cx="0" cy="0" r="1" gradientUnits="userSpaceOnUse" gradientTransform="rotate(78.559 21.72 365.859) scale(685.624)"><stop offset=".557" stop-color="#E35D12" stop-opacity="0"/><stop offset="1" stop-color="#FF24F6" stop-opacity=".3"/></radialGradient><linearGradient id="paint4_linear_281:3160" x1="292.633" y1="402.819" x2="384.531" y2="515.897" gradientUnits="userSpaceOnUse"><stop stop-color="#3EDCFF"/><stop offset="1" stop-color="#00B2FE"/></linearGradient><linearGradient id="paint5_linear_281:3160" x1="581.333" y1="334.667" x2="730.667" y2="540" gradientUnits="userSpaceOnUse"><stop stop-color="#4E280E"/><stop offset="1" stop-color="#281304"/></linearGradient><linearGradient id="paint6_linear_281:3160" x1="336" y1="388" x2="400" y2="476" gradientUnits="userSpaceOnUse"><stop stop-color="#4E280E"/><stop offset="1" stop-color="#281304"/></linearGradient></defs></svg>