<svg width="1024" height="1024" fill="none" xmlns="http://www.w3.org/2000/svg"><circle cx="144" cy="528" r="64" fill="url(#paint0_radial_248:2657)"/><circle r="64" transform="matrix(-1 0 0 1 880 528)" fill="url(#paint1_radial_248:2657)"/><circle cx="512" cy="560" r="384" fill="url(#paint2_radial_248:2657)"/><circle cx="512" cy="560" r="384" fill="url(#paint3_radial_248:2657)"/><g filter="url(#filter0_f_248:2657)"><path d="M488.002 880.001c198.823 0 360.001-161.177 360.001-360 0-37.495-5.733-73.652-16.369-107.642 20.774 44.9 32.366 94.916 32.366 147.64 0 194.405-157.596 352-352 352-114.668 0-216.529-54.829-280.797-139.7 65.316 66.474 156.243 107.702 256.799 107.702z" fill="#C1092A" fill-opacity=".6"/></g><g filter="url(#filter1_dd_248:2657)"><path fill-rule="evenodd" clip-rule="evenodd" d="M704.764 415.053c-27.033 22.773-30.487 63.148-7.714 90.181 29.84 35.423 109.741 175.352 127.138 399.714 2.733 35.241 33.516 61.593 68.757 58.861 35.24-2.733 61.593-33.516 58.86-68.756-19.145-246.912-107.261-413.406-156.861-472.286-22.772-27.032-63.148-30.486-90.18-7.714z" fill="url(#paint4_linear_248:2657)"/></g><path opacity=".4" fill-rule="evenodd" clip-rule="evenodd" d="M771.017 437.24a7.999 7.999 0 00-1.28 11.24c51.364 64.573 129.885 221.983 147.283 455.614a8 8 0 0015.956-1.188c-17.602-236.368-97.082-396.958-150.718-464.386a8 8 0 00-11.241-1.28z" fill="#fff"/><path opacity=".8" fill-rule="evenodd" clip-rule="evenodd" d="M728.979 429.77a8 8 0 00-1.211 11.249c56.875 70.604 146.316 246.957 158.239 493.368a8 8 0 0015.982-.773c-12.077-249.589-102.636-429.236-161.761-502.632a8 8 0 00-11.249-1.212z" fill="#fff"/><path opacity=".2" fill-rule="evenodd" clip-rule="evenodd" d="M709.344 466.382a8 8 0 00-.965 11.272c38.492 45.693 124.981 204.248 143.143 438.465a7.998 7.998 0 008.594 7.357 8 8 0 007.358-8.594c-18.382-237.058-105.909-398.926-146.858-447.536a8 8 0 00-11.272-.964z" fill="#fff"/><g filter="url(#filter2_dd_248:2657)"><path fill-rule="evenodd" clip-rule="evenodd" d="M319.232 415.053c27.033 22.773 30.487 63.148 7.714 90.181-29.84 35.423-109.741 175.352-127.138 399.714-2.733 35.241-33.516 61.593-68.756 58.861-35.24-2.733-61.594-33.516-58.861-68.756 19.145-246.912 107.261-413.406 156.861-472.286 22.773-27.032 63.148-30.486 90.18-7.714z" fill="url(#paint5_linear_248:2657)"/></g><path opacity=".4" fill-rule="evenodd" clip-rule="evenodd" d="M252.979 437.24a7.999 7.999 0 011.28 11.24c-51.364 64.573-129.885 221.983-147.283 455.614a8 8 0 01-15.956-1.188c17.602-236.368 97.082-396.958 150.718-464.386a8 8 0 0111.241-1.28z" fill="#fff"/><path opacity=".8" fill-rule="evenodd" clip-rule="evenodd" d="M295.017 429.77a8 8 0 011.211 11.249c-56.875 70.604-146.316 246.957-158.239 493.368a8 8 0 01-15.981-.773c12.076-249.589 102.635-429.236 161.76-502.632a8 8 0 0111.249-1.212z" fill="#fff"/><path opacity=".2" fill-rule="evenodd" clip-rule="evenodd" d="M314.653 466.382a8 8 0 01.964 11.272c-38.492 45.693-124.981 204.248-143.143 438.465a7.998 7.998 0 01-8.594 7.357 8 8 0 01-7.358-8.594c18.382-237.058 105.909-398.926 146.858-447.536a8 8 0 0111.273-.964z" fill="#fff"/><g filter="url(#filter3_di_248:2657)"><path d="M512 560c-119.376 0-224 80-239.397 183.478-3.882 19.553 11.466 36.193 31.953 39.799 5.468.962 11.031 0 16.416-1.35C349.237 774.838 445.464 752 512 752c66.536 0 162.763 22.838 191.029 29.927 5.384 1.35 10.947 2.312 16.415 1.35 20.487-3.606 35.835-20.246 31.953-39.799C736 640 631.376 560 512 560z" fill="url(#paint6_linear_248:2657)"/></g><g filter="url(#filter4_i_248:2657)"><path fill-rule="evenodd" clip-rule="evenodd" d="M622.428 764.409C610.664 729.781 565.688 704 512 704c-53.688 0-98.664 25.781-110.428 60.409C437.616 757.769 478.559 752 512 752c33.442 0 74.384 5.769 110.428 12.409z" fill="url(#paint7_linear_248:2657)"/></g><g filter="url(#filter5_ddii_248:2657)"><path fill-rule="evenodd" clip-rule="evenodd" d="M333.914 357.679c-23.416-3.485-45.957.18-58.701 4.326-12.605 4.1-26.147-2.794-30.248-15.399-4.1-12.604 2.794-26.146 15.399-30.247 18.86-6.136 48.926-10.874 80.618-6.156 32.148 4.785 67.404 19.61 92.91 54.031 7.891 10.649 5.655 25.68-4.994 33.571-10.65 7.892-25.681 5.656-33.572-4.994-16.1-21.727-38.451-31.714-61.412-35.132z" fill="#894819"/></g><g filter="url(#filter6_ddii_248:2657)"><path fill-rule="evenodd" clip-rule="evenodd" d="M675.726 362.138c-22.021 8.689-39.711 23.134-48.674 33.097-8.866 9.853-24.041 10.654-33.894 1.788-9.854-8.866-10.654-24.041-1.789-33.894 13.266-14.744 36.935-33.881 66.74-45.641 30.233-11.929 68.178-16.719 107.478.337 12.159 5.278 17.737 19.413 12.46 31.572-5.277 12.159-19.412 17.737-31.571 12.46-24.806-10.766-49.157-8.239-70.75.281z" fill="#894819"/></g><defs><filter id="filter0_f_248:2657" x="159.203" y="340.359" width="776.797" height="643.64" filterUnits="userSpaceOnUse" color-interpolation-filters="sRGB"><feFlood flood-opacity="0" result="BackgroundImageFix"/><feBlend in="SourceGraphic" in2="BackgroundImageFix" result="shape"/><feGaussianBlur stdDeviation="36" result="effect1_foregroundBlur_248:2657"/></filter><filter id="filter1_dd_248:2657" x="665.996" y="391.999" width="302.004" height="596.005" filterUnits="userSpaceOnUse" color-interpolation-filters="sRGB"><feFlood flood-opacity="0" result="BackgroundImageFix"/><feColorMatrix in="SourceAlpha" values="0 0 0 0 0 0 0 0 0 0 0 0 0 0 0 0 0 0 127 0" result="hardAlpha"/><feOffset dy="2"/><feGaussianBlur stdDeviation="2"/><feComposite in2="hardAlpha" operator="out"/><feColorMatrix values="0 0 0 0 0.282353 0 0 0 0 0.054902 0 0 0 0 0.301961 0 0 0 0.2 0"/><feBlend in2="BackgroundImageFix" result="effect1_dropShadow_248:2657"/><feColorMatrix in="SourceAlpha" values="0 0 0 0 0 0 0 0 0 0 0 0 0 0 0 0 0 0 127 0" result="hardAlpha"/><feOffset dy="8"/><feGaussianBlur stdDeviation="8"/><feComposite in2="hardAlpha" operator="out"/><feColorMatrix values="0 0 0 0 0.282353 0 0 0 0 0.054902 0 0 0 0 0.301961 0 0 0 0.2 0"/><feBlend in2="effect1_dropShadow_248:2657" result="effect2_dropShadow_248:2657"/><feBlend in="SourceGraphic" in2="effect2_dropShadow_248:2657" result="shape"/></filter><filter id="filter2_dd_248:2657" x="55.996" y="391.999" width="302.004" height="596.005" filterUnits="userSpaceOnUse" color-interpolation-filters="sRGB"><feFlood flood-opacity="0" result="BackgroundImageFix"/><feColorMatrix in="SourceAlpha" values="0 0 0 0 0 0 0 0 0 0 0 0 0 0 0 0 0 0 127 0" result="hardAlpha"/><feOffset dy="2"/><feGaussianBlur stdDeviation="2"/><feComposite in2="hardAlpha" operator="out"/><feColorMatrix values="0 0 0 0 0.282353 0 0 0 0 0.054902 0 0 0 0 0.301961 0 0 0 0.2 0"/><feBlend in2="BackgroundImageFix" result="effect1_dropShadow_248:2657"/><feColorMatrix in="SourceAlpha" values="0 0 0 0 0 0 0 0 0 0 0 0 0 0 0 0 0 0 127 0" result="hardAlpha"/><feOffset dy="8"/><feGaussianBlur stdDeviation="8"/><feComposite in2="hardAlpha" operator="out"/><feColorMatrix values="0 0 0 0 0.282353 0 0 0 0 0.054902 0 0 0 0 0.301961 0 0 0 0.2 0"/><feBlend in2="effect1_dropShadow_248:2657" result="effect2_dropShadow_248:2657"/><feBlend in="SourceGraphic" in2="effect2_dropShadow_248:2657" result="shape"/></filter><filter id="filter3_di_248:2657" x="264" y="552" width="512" height="255.666" filterUnits="userSpaceOnUse" color-interpolation-filters="sRGB"><feFlood flood-opacity="0" result="BackgroundImageFix"/><feColorMatrix in="SourceAlpha" values="0 0 0 0 0 0 0 0 0 0 0 0 0 0 0 0 0 0 127 0" result="hardAlpha"/><feOffset dx="8" dy="8"/><feGaussianBlur stdDeviation="8"/><feColorMatrix values="0 0 0 0 1 0 0 0 0 0.87451 0 0 0 0 0.423529 0 0 0 1 0"/><feBlend in2="BackgroundImageFix" result="effect1_dropShadow_248:2657"/><feBlend in="SourceGraphic" in2="effect1_dropShadow_248:2657" result="shape"/><feColorMatrix in="SourceAlpha" values="0 0 0 0 0 0 0 0 0 0 0 0 0 0 0 0 0 0 127 0" result="hardAlpha"/><feOffset dx="16" dy="16"/><feGaussianBlur stdDeviation="16"/><feComposite in2="hardAlpha" operator="arithmetic" k2="-1" k3="1"/><feColorMatrix values="0 0 0 0 0 0 0 0 0 0 0 0 0 0 0 0 0 0 0.25 0"/><feBlend in2="shape" result="effect2_innerShadow_248:2657"/></filter><filter id="filter4_i_248:2657" x="401.572" y="704" width="220.855" height="68.408" filterUnits="userSpaceOnUse" color-interpolation-filters="sRGB"><feFlood flood-opacity="0" result="BackgroundImageFix"/><feBlend in="SourceGraphic" in2="BackgroundImageFix" result="shape"/><feColorMatrix in="SourceAlpha" values="0 0 0 0 0 0 0 0 0 0 0 0 0 0 0 0 0 0 127 0" result="hardAlpha"/><feOffset dy="8"/><feGaussianBlur stdDeviation="8"/><feComposite in2="hardAlpha" operator="arithmetic" k2="-1" k3="1"/><feColorMatrix values="0 0 0 0 0.51276 0 0 0 0 0.0415645 0 0 0 0 0.0415645 0 0 0 0.4 0"/><feBlend in2="shape" result="effect1_innerShadow_248:2657"/></filter><filter id="filter5_ddii_248:2657" x="211.781" y="292.287" width="258.83" height="158.236" filterUnits="userSpaceOnUse" color-interpolation-filters="sRGB"><feFlood flood-opacity="0" result="BackgroundImageFix"/><feColorMatrix in="SourceAlpha" values="0 0 0 0 0 0 0 0 0 0 0 0 0 0 0 0 0 0 127 0" result="hardAlpha"/><feOffset dy="16"/><feGaussianBlur stdDeviation="16"/><feColorMatrix values="0 0 0 0 0.282353 0 0 0 0 0.054902 0 0 0 0 0.301961 0 0 0 0.2 0"/><feBlend in2="BackgroundImageFix" result="effect1_dropShadow_248:2657"/><feColorMatrix in="SourceAlpha" values="0 0 0 0 0 0 0 0 0 0 0 0 0 0 0 0 0 0 127 0" result="hardAlpha"/><feOffset dy="4"/><feGaussianBlur stdDeviation="4"/><feComposite in2="hardAlpha" operator="out"/><feColorMatrix values="0 0 0 0 0.282353 0 0 0 0 0.054902 0 0 0 0 0.301961 0 0 0 0.2 0"/><feBlend in2="effect1_dropShadow_248:2657" result="effect2_dropShadow_248:2657"/><feBlend in="SourceGraphic" in2="effect2_dropShadow_248:2657" result="shape"/><feColorMatrix in="SourceAlpha" values="0 0 0 0 0 0 0 0 0 0 0 0 0 0 0 0 0 0 127 0" result="hardAlpha"/><feOffset dx="6" dy="6"/><feGaussianBlur stdDeviation="16"/><feComposite in2="hardAlpha" operator="arithmetic" k2="-1" k3="1"/><feColorMatrix values="0 0 0 0 0.76276 0 0 0 0 0.388636 0 0 0 0 0.122215 0 0 0 1 0"/><feBlend in2="shape" result="effect3_innerShadow_248:2657"/><feColorMatrix in="SourceAlpha" values="0 0 0 0 0 0 0 0 0 0 0 0 0 0 0 0 0 0 127 0" result="hardAlpha"/><feOffset dx="-6" dy="-6"/><feGaussianBlur stdDeviation="16"/><feComposite in2="hardAlpha" operator="arithmetic" k2="-1" k3="1"/><feColorMatrix values="0 0 0 0 0.354427 0 0 0 0 0.180009 0 0 0 0 0.0538352 0 0 0 1 0"/><feBlend in2="effect3_innerShadow_248:2657" result="effect4_innerShadow_248:2657"/></filter><filter id="filter6_ddii_248:2657" x="553.211" y="290.724" width="258.826" height="160.458" filterUnits="userSpaceOnUse" color-interpolation-filters="sRGB"><feFlood flood-opacity="0" result="BackgroundImageFix"/><feColorMatrix in="SourceAlpha" values="0 0 0 0 0 0 0 0 0 0 0 0 0 0 0 0 0 0 127 0" result="hardAlpha"/><feOffset dy="16"/><feGaussianBlur stdDeviation="16"/><feColorMatrix values="0 0 0 0 0.282353 0 0 0 0 0.054902 0 0 0 0 0.301961 0 0 0 0.2 0"/><feBlend in2="BackgroundImageFix" result="effect1_dropShadow_248:2657"/><feColorMatrix in="SourceAlpha" values="0 0 0 0 0 0 0 0 0 0 0 0 0 0 0 0 0 0 127 0" result="hardAlpha"/><feOffset dy="4"/><feGaussianBlur stdDeviation="4"/><feComposite in2="hardAlpha" operator="out"/><feColorMatrix values="0 0 0 0 0.282353 0 0 0 0 0.054902 0 0 0 0 0.301961 0 0 0 0.2 0"/><feBlend in2="effect1_dropShadow_248:2657" result="effect2_dropShadow_248:2657"/><feBlend in="SourceGraphic" in2="effect2_dropShadow_248:2657" result="shape"/><feColorMatrix in="SourceAlpha" values="0 0 0 0 0 0 0 0 0 0 0 0 0 0 0 0 0 0 127 0" result="hardAlpha"/><feOffset dx="6" dy="6"/><feGaussianBlur stdDeviation="16"/><feComposite in2="hardAlpha" operator="arithmetic" k2="-1" k3="1"/><feColorMatrix values="0 0 0 0 0.76276 0 0 0 0 0.388636 0 0 0 0 0.122215 0 0 0 1 0"/><feBlend in2="shape" result="effect3_innerShadow_248:2657"/><feColorMatrix in="SourceAlpha" values="0 0 0 0 0 0 0 0 0 0 0 0 0 0 0 0 0 0 127 0" result="hardAlpha"/><feOffset dx="-6" dy="-6"/><feGaussianBlur stdDeviation="16"/><feComposite in2="hardAlpha" operator="arithmetic" k2="-1" k3="1"/><feColorMatrix values="0 0 0 0 0.354427 0 0 0 0 0.180009 0 0 0 0 0.0538352 0 0 0 1 0"/><feBlend in2="effect3_innerShadow_248:2657" result="effect4_innerShadow_248:2657"/></filter><radialGradient id="paint0_radial_248:2657" cx="0" cy="0" r="1" gradientUnits="userSpaceOnUse" gradientTransform="rotate(61.389 -376.505 332.858) scale(100.24)"><stop stop-color="#FFCE21"/><stop offset="1" stop-color="#F2911E"/></radialGradient><radialGradient id="paint1_radial_248:2657" cx="0" cy="0" r="1" gradientUnits="userSpaceOnUse" gradientTransform="rotate(61.389 -25.69 33.476) scale(100.24)"><stop stop-color="#FFCE21"/><stop offset="1" stop-color="#F2911E"/></radialGradient><radialGradient id="paint2_radial_248:2657" cx="0" cy="0" r="1" gradientUnits="userSpaceOnUse" gradientTransform="rotate(78.559 21.72 365.859) scale(685.624)"><stop stop-color="#FFEA9F"/><stop offset=".123" stop-color="#FFE380"/><stop offset=".416" stop-color="#FFD250"/><stop offset=".644" stop-color="#FFC122"/><stop offset="1" stop-color="#FFB422"/></radialGradient><radialGradient id="paint3_radial_248:2657" cx="0" cy="0" r="1" gradientUnits="userSpaceOnUse" gradientTransform="rotate(78.559 21.72 365.859) scale(685.624)"><stop offset=".557" stop-color="#E35D12" stop-opacity="0"/><stop offset="1" stop-color="#FF24F6" stop-opacity=".3"/></radialGradient><linearGradient id="paint4_linear_248:2657" x1="953.253" y1="630.952" x2="659.381" y2="821.707" gradientUnits="userSpaceOnUse"><stop stop-color="#3EDCFF"/><stop offset="1" stop-color="#00B2FE"/></linearGradient><linearGradient id="paint5_linear_248:2657" x1="70.743" y1="630.952" x2="364.615" y2="821.707" gradientUnits="userSpaceOnUse"><stop stop-color="#3EDCFF"/><stop offset="1" stop-color="#00B2FE"/></linearGradient><linearGradient id="paint6_linear_248:2657" x1="512" y1="560" x2="512" y2="783.666" gradientUnits="userSpaceOnUse"><stop stop-color="#60310F"/><stop offset=".451" stop-color="#7D3807"/></linearGradient><linearGradient id="paint7_linear_248:2657" x1="512" y1="704" x2="512" y2="764.409" gradientUnits="userSpaceOnUse"><stop stop-color="#F04343"/><stop offset=".232" stop-color="#EF4343"/><stop offset=".378" stop-color="#E13737"/><stop offset="1" stop-color="#C72121"/></linearGradient></defs></svg>