<svg xmlns="http://www.w3.org/2000/svg" xmlns:xlink="http://www.w3.org/1999/xlink" width="304.072" height="223.775"><defs><linearGradient id="e" y1=".5" x2="1" y2=".5" gradientUnits="objectBoundingBox"><stop offset="0" stop-color="#f6ce7d"/><stop offset="1" stop-color="#e8a623"/></linearGradient><linearGradient id="a" x1="-13.697" y1="-35.331" x2="-12.479" y2="-35.331" gradientUnits="objectBoundingBox"><stop offset="0" stop-color="#3475f6"/><stop offset="1" stop-color="#1b5ee0"/></linearGradient><linearGradient id="b" x1="-15.776" y1="-40.368" x2="-14.37" y2="-40.368" gradientUnits="objectBoundingBox"><stop offset="0" stop-color="#f7971e"/><stop offset="1" stop-color="#ffd200"/></linearGradient><linearGradient id="f" x1="0" y1=".5" x2="1" y2=".5" xlink:href="#a"/><linearGradient id="g" x1="0" y1=".5" x2="1" y2=".5" xlink:href="#b"/><linearGradient id="d" x1="5.55" y1="-2.368" x2="6.329" y2="-2.368" gradientUnits="objectBoundingBox"><stop offset="0" stop-color="#ef9881"/><stop offset="1" stop-color="#ff5e36"/></linearGradient><linearGradient id="i" x1="16.817" y1="-57.731" x2="17.266" y2="-57.731" xlink:href="#a"/><linearGradient id="k" x1="26.787" y1="-38.475" x2="28.196" y2="-38.475" xlink:href="#a"/><linearGradient id="l" x1="33.49" y1="-183.285" x2="34.502" y2="-183.285" xlink:href="#a"/><linearGradient id="n" x1="2.951" y1="1.177" x2="2.951" y2="-.377" xlink:href="#b"/><linearGradient id="o" x1="12.19" y1="-46.483" x2="13.337" y2="-46.483" xlink:href="#a"/><linearGradient id="c" x1="386.358" y1="-181.658" x2="389.194" y2="-181.658" gradientUnits="objectBoundingBox"><stop offset="0" stop-color="#acc6f9"/><stop offset="1" stop-color="#6f96e3"/></linearGradient><linearGradient id="r" x1="387.299" y1="-182.47" x2="390.135" y2="-182.47" xlink:href="#c"/><linearGradient id="s" x1="388.24" y1="-183.288" x2="391.076" y2="-183.288" xlink:href="#c"/><linearGradient id="t" x1="389.164" y1="-184.101" x2="392" y2="-184.101" xlink:href="#c"/><linearGradient id="u" x1="390.139" y1="-184.917" x2="392.975" y2="-184.917" xlink:href="#c"/><linearGradient id="v" x1="0" y1=".5" x2="1" y2=".5" xlink:href="#d"/><linearGradient id="w" y1=".5" x2="1" y2=".5" gradientUnits="objectBoundingBox"><stop offset="0" stop-color="#fff"/><stop offset="1" stop-color="#1b5ee0"/></linearGradient><linearGradient id="A" x1="-.263" y1=".901" x2="1.551" y2=".217" gradientUnits="objectBoundingBox"><stop offset="0" stop-color="#3270eb"/><stop offset="1" stop-color="#1957cf"/></linearGradient><linearGradient id="B" x1="1" y1=".5" x2="0" y2=".5" xlink:href="#d"/><linearGradient id="C" x1="41.977" y1="9.818" x2="43.477" y2="9.818" xlink:href="#a"/><linearGradient id="D" x1="50.904" y1="10.52" x2="52.733" y2="10.52" xlink:href="#b"/><linearGradient id="E" x1="52" y1="-44.937" x2="53.068" y2="-44.937" xlink:href="#a"/><linearGradient id="F" x1="46.079" y1="-45.03" x2="47.023" y2="-45.03" xlink:href="#b"/><clipPath id="h"><path data-name="Path 1013" d="M943.682 573.555l-11.637 5.192-13.884-8.1 7.734-4.68z" transform="translate(-918.16 -565.971)" fill="none"/></clipPath><clipPath id="j"><path data-name="Path 1016" d="M952.686 591.221l-11.915 4.52-4.141 15.53 8.785-2.132z" transform="translate(-936.63 -591.221)" fill="none"/></clipPath><clipPath id="m"><path data-name="Path 1019" d="M969.379 583.186c16.3-7.95 17.4-20.859 17.4-20.859s-9.879-8.433-27.045-2.582c-15.158 5.165-27.153 17.828-27.153 17.828l2.5 6.072 2.467 5.982s17.438.58 31.831-6.441z" transform="translate(-932.582 -557.679)" fill="none"/></clipPath><clipPath id="p"><path data-name="Path 1022" d="M969.182 581.309a6.349 6.349 0 113.449-8.29 6.35 6.35 0 01-3.449 8.29z" transform="translate(-960.411 -569.089)" fill="none"/></clipPath><clipPath id="q"><path data-name="Path 1026" d="M950.821 586.655a3.164 3.164 0 111.719-4.13 3.164 3.164 0 01-1.719 4.13z" transform="translate(-946.45 -580.567)" fill="none"/></clipPath><clipPath id="x"><path data-name="Path 991" d="M819.45 775.886c1.381-.528 3.632-.868 3.912 2.351a6.845 6.845 0 01-.132 1.969c-.569 2.775-2.745 12.4-5.836 14.044a.5.5 0 01-.7-.231c-.544-1.182-1.6-5.266 1.414-16.642a2.2 2.2 0 011.342-1.491z" transform="translate(-816.069 -775.545)" fill="none"/></clipPath><clipPath id="y"><path data-name="Path 996" d="M800.131 764.376s8.143-2.749 3.477 4.575c0 0-11.093 13.227-8.189 4.754 0 0 3.369-8.827 4.712-9.329z" transform="translate(-794.935 -763.87)" fill="url(#e)"/></clipPath><clipPath id="z"><path data-name="Path 999" d="M842.709 725.585s-4.972 1.657-7.4 9.817c0 0-3.7 9.881-18.869 16.1 0 0-1.147 4.461 3.442 8.653 0 0 19.635-5.37 27.795-20.8v15.3l-13.642 5.5s-1.148 3.556 3.187 7.762c0 0 11.22-2.422 16.83-6.757 0 0 5.355-3.3 8.8-29.829l-9.435-7.213z" transform="translate(-816.317 -724.115)" fill="none"/></clipPath></defs><g data-name="Group 2424"><g data-name="Group 2422"><path data-name="Path 1006" d="M113.788 130.543a.293.293 0 01-.164-.08l-2.643-2.546a.295.295 0 11.408-.424l2.643 2.546a.294.294 0 01-.244.504z" fill="#fff"/></g><g data-name="Group 2423"><path data-name="Path 1007" d="M113.85 133.63a.3.3 0 01-.164-.08l-3.97-3.891a.295.295 0 11.414-.42l3.968 3.89a.295.295 0 01-.247.502z" fill="#fff"/></g></g><g data-name="Group 2414"><path data-name="Path 986" d="M933.745 765.173l1.827 1.708c.814.761 3.74-1.045 6.534-4.035s4.4-6.029 3.587-6.79l-1.827-1.708z" transform="rotate(8 4861.196 -4940.98)" fill="url(#a)"/><path data-name="Path 987" d="M943.807 754.3c.814.761-.791 3.8-3.586 6.79s-5.72 4.8-6.534 4.035.792-3.8 3.586-6.79 5.721-4.795 6.534-4.035z" transform="rotate(8 4860.832 -4940.596)" fill="url(#b)"/></g><g data-name="Group 2407"><path data-name="Path 975" d="M980.532 687.761l-7.5 6.008 14.994 2.58z" transform="rotate(8 4320.72 -4459.715)" fill="url(#f)"/><path data-name="Path 976" d="M973.035 698.993V695.4l14.994 2.58v3.436z" transform="rotate(8 4332.376 -4458.9)" fill="url(#g)"/></g><path data-name="Path 981" d="M43.204 45.53s-5.759-5.835-2.44-10.028a5.083 5.083 0 012.637-1.712c1.998-.553 5.62-.604 8.507 4.635 0 0 1.923-9.483 12.251-8.637a7.577 7.577 0 015.342 2.743c1.566 1.973 2.645 5.375.704 11.09 0 0 8.33-3.607 10.578 1.601a5.788 5.788 0 01.348 1.194c.402 2.056.838 7.565-5.764 8.484l-39.382.688s-5.66.019-6.964-4.523a5.822 5.822 0 011.011-5.119c1.725-2.252 5.555-4.78 13.172-.417z" fill="#fef8f6"/><g data-name="Group 2440" transform="rotate(8 85.016 842.85)"><path data-name="Path 982" d="M12.63 36.09c-37.8 5.469-48.657 10.531-65.674 23.7a67.9 67.9 0 00-14.513 14.853c-2.755 3.988-5.008 8.631-4.706 13.469s3.9 9.714 8.741 10.034c2.973.2 17.782-3.546 19.974-10.588.51-1.637-1.3-3.254-2.988-3.57a7.049 7.049 0 00-4.926 1.1c-33.386 20.849 1.964 79.3 25.442 86.741 10.453 3.313 22.617.119 32.189 5.468 9.724 5.434 13.165 18.855 9.126 29.236s-14.1 17.583-24.871 20.441" fill="none" stroke="#707070" stroke-miterlimit="10" stroke-width=".5" stroke-dasharray="3"/><path data-name="Path 1009" d="M926.994 593.468l-3.388-7.021s-4.666-3.467-10.52.29c-6.407 4.112-9.461 10.671-13.656 15.725 6.446-.389 13.58 1.479 20.786-.979 6.584-2.244 6.778-8.015 6.778-8.015z" transform="translate(-899.43 -563.506)" fill="url(#d)"/><path data-name="Path 1010" d="M28.355 29.669l-1.736-3.6-1.687-3.494a33.623 33.623 0 00-14.707 11.509 33.175 33.175 0 0018.13-4.415z" fill="#fff" opacity=".5"/><g data-name="Group 2430"><g data-name="Group 2427"><g data-name="Group 2426" clip-path="url(#h)" transform="translate(14.734 6.523)"><path data-name="Path 1011" d="M943.682 573.555l-11.637 5.192-13.884-8.1 7.734-4.68z" transform="translate(-918.16 -565.971)" fill="url(#i)"/><path data-name="Path 1012" d="M4.383.038l17.849 10.046 5.313-2.191-6.561-5.287L6.906-2.245z" opacity=".15"/></g></g><g data-name="Group 2429"><g data-name="Group 2428" clip-path="url(#j)" transform="translate(29.263 26.386)"><path data-name="Path 1014" d="M952.686 591.221l-11.915 4.52-4.141 15.53 8.785-2.132z" transform="translate(-936.63 -591.221)" fill="url(#k)"/><path data-name="Path 1015" d="M6.379 20.251L11.958.544l5.313-2.191-.932 8.372L9.773 20.09z" opacity=".15"/></g></g></g><path data-name="Rectangle 396" transform="rotate(67.6 -1.966 29.375)" fill="url(#l)" d="M0 0h13.036v4.132H0z"/><g data-name="Group 2432"><g data-name="Group 2431" clip-path="url(#m)" transform="translate(26.078)"><path data-name="Path 1017" d="M969.255 583.229c16.3-7.95 17.442-20.875 17.442-20.875s-9.94-8.407-27.105-2.558c-15.157 5.165-27.213 17.853-27.213 17.853l2.5 6.072 2.467 5.982s17.516.547 31.909-6.474z" transform="translate(-932.538 -557.689)" fill="url(#n)"/><path data-name="Rectangle 397" transform="rotate(67.59 32.745 31.948)" fill="url(#o)" d="M0 0h29.406v16.639H0z"/><path data-name="Rectangle 398" opacity=".1" d="M35.89-4.769L47.1 22.416l-1.474.608L34.416-4.16z"/><path data-name="Path 1018" d="M53.311 4.908S28.58-5.392.573 25.182l-1.613-3.913S31.393-10.34 53.311 4.908z" opacity=".1"/></g></g><circle data-name="Ellipse 79" cx="8.21" cy="8.21" r="8.21" transform="rotate(-55.19 38.072 -32.341)" opacity=".1"/><path data-name="Path 1020" d="M56.99 21.802a7.006 7.006 0 113.806-9.148 7.005 7.005 0 01-3.806 9.148z" opacity=".1"/><g data-name="Group 2435"><g data-name="Group 2434" clip-path="url(#p)" transform="translate(47.969 8.975)"><path data-name="Path 1021" d="M8.771 12.22a6.349 6.349 0 113.449-8.29 6.35 6.35 0 01-3.449 8.29z" fill="#fceeea"/><g data-name="Group 2433" opacity=".5" fill="#edd7d1"><path data-name="Rectangle 399" d="M-1.866 5.642l.98-2.357 14.302 5.95-.98 2.358z"/><path data-name="Rectangle 400" d="M-.52 2.408l.49-1.178 14.302 5.95-.49 1.178z"/></g></g></g><path data-name="Path 1023" d="M41.71 24.949a4.09 4.09 0 112.222-5.34 4.09 4.09 0 01-2.222 5.34z" opacity=".1"/><path data-name="Path 1024" d="M41.483 24.395a3.49 3.49 0 111.9-4.558 3.49 3.49 0 01-1.9 4.558z" opacity=".1"/><g data-name="Group 2438"><g data-name="Group 2437" clip-path="url(#q)" transform="translate(36.987 18.004)"><path data-name="Path 1025" d="M4.371 6.088a3.164 3.164 0 111.719-4.13 3.164 3.164 0 01-1.719 4.13z" fill="#fceeea"/><g data-name="Group 2436" opacity=".6" fill="#edd7d1"><path data-name="Rectangle 401" d="M-1.594 2.57l.556-1.336 8.106 3.372-.556 1.336z"/><path data-name="Rectangle 402" d="M-.831.737l.278-.668 8.106 3.373-.278.667z"/></g></g></g><g data-name="Group 2439"><path data-name="Rectangle 403" transform="rotate(67.591 -2.644 30.375)" fill="url(#c)" d="M0 0h1.122v4.132H0z"/><path data-name="Rectangle 404" transform="rotate(67.591 -3.793 32.093)" fill="url(#r)" d="M0 0h1.122v4.132H0z"/><path data-name="Rectangle 405" transform="rotate(67.588 -4.944 33.81)" fill="url(#s)" d="M0 0h1.122v4.132H0z"/><path data-name="Rectangle 406" transform="rotate(67.591 -6.093 35.527)" fill="url(#t)" d="M0 0h1.122v4.132H0z"/><path data-name="Rectangle 407" transform="rotate(67.589 -7.242 37.245)" fill="url(#u)" d="M0 0h1.122v4.132H0z"/></g><path data-name="Rectangle 408" opacity=".1" d="M25.927 19.984l4.967 12.045-.86.355-4.966-12.046z"/><path data-name="Path 1027" d="M78.786 8.18a30.749 30.749 0 01-6.032 9.668 2.337 2.337 0 01.72-2.764c1.456-1.436 2.09-1.771 2.707-3.379 1.14-2.984 2.605-3.525 2.605-3.525z" fill="#fff" opacity=".5"/></g><g data-name="Group 2421"><path data-name="Path 988" d="M837.786 771.028l-1.068-.789-9.977 3.62.7 4.5a95.418 95.418 0 0111.648-3.48z" transform="rotate(8 4838.876 -5175.948)" fill="url(#v)"/><g data-name="Group 2412" transform="rotate(8 -304.718 915.444)"><rect data-name="Rectangle 392" width="55.071" height="36.328" rx="4.604" transform="translate(5.937)" opacity=".1" fill="url(#w)"/><rect data-name="Rectangle 393" width="55.071" height="36.329" rx="4.604" transform="translate(0 2.738)" fill="#884ffb"/><g data-name="Group 2410"><path data-name="Rectangle 394" fill="#fff" opacity=".39" d="M31.999 18.68h3.384v14.818h-3.384z"/><path data-name="Rectangle 395" fill="#fff" opacity=".39" d="M40.577 18.68h3.384v14.818h-3.384z"/><g data-name="Group 2409"><path data-name="Path 979" d="M951.889 660.776a.393.393 0 01-.276-.673c.266-.261 6.536-6.355 11.2-3.035.175.148 3.673 3.051 8.05-1.327a.393.393 0 01.556.556c-4.909 4.909-9.052 1.425-9.092 1.388-4.1-2.916-10.1 2.918-10.162 2.977a.391.391 0 01-.276.114z" transform="translate(-924.435 -632.112)" fill="url(#g)"/></g></g><g data-name="Group 2411" transform="translate(8.369 7.4)"><circle data-name="Ellipse 78" cx="7.52" cy="7.52" r="7.52" transform="translate(0 .883)" fill="#fef8f6" opacity=".7"/><path data-name="Path 980" d="M945.177 640.659a8.4 8.4 0 00-7.884-5.518v8.4z" transform="translate(-929.773 -635.141)" fill="url(#g)"/></g></g><path data-name="Path 989" d="M822.368 774.8c1.578-.458 4.212-.6 3.619 3.884 0 0-3.424 12.629-7.19 14.245a.505.505 0 01-.674-.289c-.445-1.225-1.153-5.382 2.789-16.469a2.194 2.194 0 011.456-1.371z" transform="rotate(8 4844.54 -5161.8)" fill="url(#g)"/><g data-name="Group 2416"><g data-name="Group 2415" clip-path="url(#x)" transform="rotate(8 -1107.607 288.285)"><path data-name="Path 990" d="M5.936-.539c1.578-.458 4.212-.6 3.619 3.884 0 0-3.424 12.629-7.19 14.245a.505.505 0 01-.674-.289C1.246 16.076.538 11.919 4.48.832A2.194 2.194 0 015.936-.539z" fill="#fff"/></g></g><path data-name="Path 992" d="M814.739 759.37l-7.568 3.427-1.571.19-.429 5.236a95.214 95.214 0 0113.089-3.951z" transform="rotate(8 4819.987 -5144.202)" fill="url(#v)"/><path data-name="Path 993" d="M800.131 764.376s8.143-2.749 3.477 4.575c0 0-11.093 13.227-8.189 4.754 0 0 3.369-8.827 4.712-9.329z" transform="rotate(8 4825.766 -5128.105)" fill="url(#g)"/><g data-name="Group 2418"><path data-name="Path 994" d="M800.131 764.376s8.143-2.749 3.477 4.575c0 0-11.093 13.227-8.189 4.754 0 0 3.369-8.827 4.712-9.329z" transform="rotate(8 4825.759 -5128.106)" fill="url(#e)"/><g data-name="Group 2417" clip-path="url(#y)" transform="rotate(8 -1033.634 174.01)"><path data-name="Path 995" d="M1.571 1.03s7.576-4.059 4.186 3.937c0 0-8.751 14.879-7.29 6.043 0 0 1.858-9.261 3.104-9.98z" fill="#fff"/></g></g><path data-name="Path 997" d="M842.709 725.585s-4.972 1.657-7.4 9.817c0 0-3.7 9.881-18.869 16.1 0 0-1.147 4.461 3.442 8.653 0 0 19.635-5.37 27.795-20.8v15.3l-13.642 5.5s-1.148 3.556 3.187 7.762c0 0 11.22-2.422 16.83-6.757 0 0 5.355-3.3 8.8-29.829l-9.435-7.213z" transform="rotate(8 4767.39 -5164.967)" fill="url(#f)"/><g data-name="Group 2420"><g data-name="Group 2419" clip-path="url(#z)" transform="rotate(8 -818.431 309.914)"><path data-name="Path 998" d="M847.156 749.849s3.666-2.619 3.15-11.25a11.276 11.276 0 013.954-8.116 15.723 15.723 0 000 7.047 12.463 12.463 0 010 4.3l-1.978 7.563z" transform="translate(-822.897 -725.474)" fill="url(#A)"/></g></g><path data-name="Path 1000" d="M896.651 674.414a8.452 8.452 0 004.3 3.889 2.054 2.054 0 01-.58.7s3.642 4.013.58 4.676a9.023 9.023 0 00-2.193 1.034l-4.386 1.613h-3.434s-2.235-4.8-2.111-5.255 1.779-4.386 1.779-4.386z" transform="rotate(8 4699.298 -5280.9)" fill="url(#v)"/><path data-name="Path 1001" d="M909.18 680.666s9.379-1.539 19.419-12.025c0 0 .053-6.078 2.144-6.732 0 0 .958-.261-.349 3.965a23.5 23.5 0 005.883-7.1s1.524 1.453-1 7.633a14.586 14.586 0 011.83-2.491 14.479 14.479 0 01-5.491 8.149s-13.958 14.276-22.635 15.526l-2.562-2.754.96-3.106z" transform="rotate(8 4677.307 -5309.41)" fill="url(#B)"/><path data-name="Path 1002" d="M911.2 720.886s-5.628 9.9-7.739 14.719l8.442 6.6s.216-4 8.5-14.394z" transform="rotate(8 4771.762 -5298.279)" fill="url(#f)"/><path data-name="Path 1003" d="M892.256 710.866s-1.672 11.087 6.442 14.8a24.387 24.387 0 016.442-.372 2.519 2.519 0 01-2.726 1.982l-2.354 4.769a8.828 8.828 0 01-3.036-3.549s-9.972-1.964-12.7-13.857z" transform="rotate(8 4754.433 -5270.146)" fill="url(#v)"/><path data-name="Path 1004" d="M852.6 714.854s-9.327 4.212-2.572 2.961a33.118 33.118 0 0120.394 6s1.3-9.882 7.8-14.888c0 0 7.282 1.171 8.127-7.216 0 0 1.235-5.851 10.6-8.126 0 0-3.056-1.8-.326-6.977 0 0-9.1 1.58-13.587 1.905l-11.848 3.913-9.481 10.138a51.552 51.552 0 00-6.192 10.374 12.658 12.658 0 01-2.915 1.916z" transform="rotate(8 4713.495 -5216.661)" fill="url(#g)"/><path data-name="Path 1005" d="M54.476 92.776s2.981-2.532 12.745.284c0 0 14.742 6.477 19.567.258 0 0 8.146-14.132 16.311-10.165 0 0 5.11 2.897.095 7.528a19.81 19.81 0 01-1.808 1.487s-2.047-.814-2.548 1.166c0 0-.426 1.853 1.751 1.91 0 0-1.34 4.783-8.903 5.688a10.235 10.235 0 00-8.716 4.596s-8.314 10.83-15.761-1.8c.005.001-5.824-11.872-12.733-10.952z" fill="#01033b"/><g data-name="Group 2413"><path data-name="Path 984" d="M804.969 681.562l-2.177 1.232c-.969.549-.122 3.88 1.893 7.442s4.436 6 5.4 5.454l2.177-1.232z" transform="rotate(8 4680.329 -5340.815)" fill="url(#C)"/><path data-name="Path 985" d="M812.857 694.438c-.97.549-3.389-1.893-5.4-5.454s-2.863-6.893-1.893-7.442 3.39 1.893 5.4 5.455 2.863 6.893 1.893 7.441z" transform="rotate(8 4680.474 -5345.044)" fill="url(#D)"/></g><path data-name="Path 983" d="M225.654 50.072s3.444-3.064 1.379-5.2a3.214 3.214 0 00-1.623-.86c-1.222-.268-3.428-.261-5.13 2.47 0 0-1.272-4.88-7.552-4.35a4.9 4.9 0 00-3.223 1.465c-.932 1.033-1.553 2.8-.31 5.734 0 0-5.11-1.787-6.424.922a2.669 2.669 0 00-.2.618c-.223 1.065-.43 3.913 3.6 4.329h23.985s3.447-.041 4.192-2.4a2.663 2.663 0 00-.667-2.636c-1.077-1.143-3.435-2.414-8.027-.092z" fill="#fef8f6" opacity=".26"/><path data-name="Path 1008" d="M53.571 192.913c.07 2.025-9.956 4.019-22.395 4.453s-22.58-.851-22.651-2.88 9.955-4.02 22.396-4.454 22.58.855 22.65 2.88z" fill="#ead1cc" opacity=".34"/><g data-name="Group 2408"><path data-name="Path 977" d="M891.058 618.625l2.176-6.375-9.842 4.114z" transform="rotate(8 4603.869 -5279.244)" fill="url(#E)"/><path data-name="Path 978" d="M891.531 609.546l1.352 2.127-9.842 4.114-1.293-2.033z" transform="rotate(8 4599.568 -5277.023)" fill="url(#F)"/></g></g></svg>