<svg width="56" height="80" fill="none" xmlns="http://www.w3.org/2000/svg"><path d="M55.999 43.65c0 9.432-9.95 17.299-23 18.932V55.65l6.584-6.433a5.02 5.02 0 00-1.565-8.195 4.964 4.964 0 00-1.935-.388c-1.134 0-2.2.4-3.084 1.1V24.8c0-2.75-2.25-5-5-5-2.766 0-5 2.25-5 5v1.833c-.883-.683-1.95-1.084-3.083-1.084-1.35 0-2.616.534-3.566 1.5-1.934 1.984-1.9 5.15.066 7.067L23 40.566v22C9.95 60.949 0 53.081 0 43.648c0-4.083 1.883-8.05 5.333-11.333a12.027 12.027 0 01-1.35-5.55c0-4.933 3.034-9.366 7.55-11.216a3.638 3.638 0 01-.017-.434C11.516 6.783 18.3 0 26.616 0c8.333 0 15.117 6.783 15.117 15.116 0 .15 0 .3-.017.434 4.517 1.85 7.55 6.283 7.55 11.216 0 1.284-.217 2.567-.634 3.833C53.4 34.15 56 38.733 56 43.65z" fill="#FFC83E"/><path d="M37.244 46.829a1.667 1.667 0 00-2.331-2.383l-5.247 5.14V24.798a1.667 1.667 0 00-3.333 0v9.7l-5.247-5.139a1.667 1.667 0 10-2.331 2.384l7.578 7.418v39.172a1.667 1.667 0 003.333 0V54.251l7.58-7.422h-.002z" fill="#2B59FF"/></svg>