<svg xmlns="http://www.w3.org/2000/svg" viewBox="0 0 1600 1200"><style>.st0{fill:#e8e8e8}.st1{fill:#fff}.st2{fill:#161616}.st4{fill:#333}.st4,.st5{opacity:8.000000e-002}.st6{fill:#333}.st7{opacity:.15}.st8{opacity:.29}.st11{fill:#ec615b}.st14{opacity:7.000000e-002;fill:#333}.st15{opacity:.22}.st17{fill:#5222d0}</style><g id="background"><path class="st0" d="M124.3 438.7c2.2 61.5 4.4 123.1 6.5 184.6.1 1.9 3.1 1.9 3 0-2.2-61.5-4.4-123.1-6.5-184.6 0-1.9-3-1.9-3 0z"/><path class="st0" d="M127.4 438.3c47.4-22.8 94.7-45.7 142.1-68.5 1.7-.8.2-3.4-1.5-2.6-47.4 22.8-94.7 45.7-142.1 68.5-1.8.9-.3 3.5 1.5 2.6z"/><path class="st0" d="M267.5 370.2c1.6 60 3.8 120 6.7 180 .1 1.9 3.1 1.9 3 0-2.9-60-5.1-120-6.7-180-.1-1.9-3.1-2-3 0z"/><path class="st0" d="M135.2 623c44.3-29.1 91.7-53.2 141.3-71.7 1.8-.7 1-3.6-.8-2.9-49.9 18.7-97.5 42.8-142 72.1-1.6 1-.1 3.6 1.5 2.5zM131.6 443.2c2.1 55.1 3.4 110.3 3.6 165.4 0 1.9 3 1.9 3 0-.3-55.2-1.5-110.3-3.6-165.4-.1-1.9-3.1-1.9-3 0z"/><path class="st0" d="M134.3 443.2c43.5-17 85.9-36.6 127.1-58.6 1.7-.9.2-3.5-1.5-2.6-40.9 21.9-83.1 41.4-126.4 58.3-1.8.7-1.1 3.6.8 2.9z"/><path class="st0" d="M259.8 383c.3 51.8 1.5 103.6 3.5 155.3.1 1.9 3.1 1.9 3 0-2-51.8-3.1-103.5-3.5-155.3 0-2-3-2-3 0z"/><path class="st0" d="M140.8 609.5c39.5-26.9 81.5-50 125.4-69.1 1.8-.8.2-3.4-1.5-2.6-43.9 19-85.8 42.2-125.4 69.1-1.6 1.1-.1 3.7 1.5 2.6zM185.8 410.7c-.7-6.2-.5-12.4 1.2-18.3.3-.9.7-3.7 1.4-4.1 2.7-1.8 3.7 1.8 4.3 3.2 1.4 3.3 2.3 6.7 2.9 10.1.4 1.9 3.3 1.1 2.9-.8-.7-3.6-3.9-20.2-10.9-15.9-2.9 1.8-3.7 7.1-4.3 10.1-1.1 5.2-1.2 10.5-.6 15.8.3 1.8 3.3 1.9 3.1-.1zM231.8 611.3c2.8 32.1 4.6 64.3 5.6 96.6.1 1.9 3.1 1.9 3 0-1-32.2-2.9-64.4-5.6-96.6-.2-1.9-3.2-1.9-3 0z"/><path class="st0" d="M236.6 621.4c34-14.6 67.4-30.4 100.2-47.4 1.7-.9.2-3.5-1.5-2.6-32.8 16.9-66.2 32.7-100.2 47.3-1.7.8-.2 3.4 1.5 2.7z"/><path class="st0" d="M338.3 573.5c-.3-.8-.7-1.7-1-2.5-.6-1.4-3.1-1.4-2.9.4 2.8 29.2 5.1 58.4 6.7 87.6.1 1.9 3.1 1.9 3 0-1.6-29.2-3.8-58.5-6.7-87.6-1 .1-2 .3-2.9.4.3.8.7 1.7 1 2.5.7 1.8 3.6 1 2.8-.8z"/><path class="st0" d="M240.4 710.2c32.4-19.7 66.7-36.1 102.4-48.8 1.8-.6 1-3.5-.8-2.9-35.9 12.8-70.5 29.3-103.1 49.1-1.7 1-.2 3.6 1.5 2.6zM240.4 627.2c2.7 22.6 4.1 45.3 4.3 68 0 1.9 3 1.9 3 0-.1-22.7-1.5-45.4-4.3-68-.2-1.9-3.3-1.9-3 0z"/><path class="st0" d="M243 627.7c27.9-13.1 55.7-26.2 83.6-39.3 1.7-.8.2-3.4-1.5-2.6-27.9 13.1-55.7 26.2-83.6 39.3-1.8.8-.3 3.4 1.5 2.6z"/><path class="st0" d="M325.4 587.9c2.6 20.6 4.4 41.4 5.3 62.2.1 1.9 3.1 1.9 3 0-.9-20.8-2.6-41.5-5.3-62.2-.2-1.9-3.2-1.9-3 0z"/><path class="st0" d="M247 696.7c28.5-15.8 57.3-31.1 86.4-45.6 1.7-.9.2-3.5-1.5-2.6-29.1 14.6-58 29.8-86.4 45.6-1.7 1-.2 3.6 1.5 2.6zM267 1010.5c1.7 8.8 3.4 17.6 5.2 26.5 1.4 7.4 2 16.1 5 23 2.4 5.5 7.2 7.5 12.9 8.1 8.2.8 16.9 0 25-1.1 8.2-1.1 16.3-3 24.2-5.6 3.8-1.3 7.6-2.7 11.3-4.3 3.1-1.3 3-2.9 4-6.1 5-16.5 6.4-33.8 4.4-50.9-.2-1.9-3.2-1.9-3 0 1.7 14.7.9 29.5-2.6 43.8-1 4.1-1.4 8.9-5.5 11.1-3.1 1.7-6.9 2.7-10.3 3.8-6.7 2.1-13.5 3.8-20.4 4.9-7.4 1.2-14.9 1.7-22.3 1.7-3.6 0-7.8 0-11.1-1.9-3.4-2-4.4-5.8-5.2-9.5-3.1-14.7-5.8-29.5-8.6-44.2-.4-2-3.3-1.2-3 .7z"/><path class="st0" d="M271 1011.2c28-6.2 58.1-16 86.8-9 1.9.5 2.7-2.4.8-2.9-29.2-7.2-59.9 2.6-88.4 9-1.9.4-1.1 3.3.8 2.9z"/><path class="st0" d="M286 1004.9c-3.9-4.2-7.5-8.7-10.7-13.5-1.6-2.4-11.9-18-4.9-18.8 1.1-.1 1.9-1.2 1.3-2.3-8.4-14.8-12.2-32.3-16.9-48.6-4.9-16.9-9.4-34.2-10.4-51.9-.2-3.4 2.4-8.1 6.4-6.2 1.9.9 3.3 2.9 4.4 4.6 2.3 3.3 4.2 6.9 6.3 10.4 4.2 7.2 8.1 14.5 11.7 21.9 7.3 14.8 13.5 30 18.7 45.6 5.8 17.4 10.3 35.3 13.5 53.4.3 1.9 3.2 1.1 2.9-.8-6.6-37.5-18.9-73.9-36.5-107.6-4.3-8.3-8.8-16.6-14-24.4-2.8-4.1-7.6-8.8-13-6-6.1 3.2-3 14.3-2.4 19.5 1.3 9.9 3.4 19.7 5.9 29.4 2.8 10.8 6.1 21.5 9.2 32.2 3 10.3 6.2 20.6 11.5 30 .4-.8.9-1.5 1.3-2.3-16.8 2.1 9.1 32.7 13.5 37.5 1.4 1.4 3.5-.7 2.2-2.1z"/><path class="st0" d="M293 937.8c1.4-4.6.7-9.1.5-13.9-.1-2.5-.2-5.1.7-7.4 1.3-3.7 7-7.8 10.1-3.2.8 1.2 2.8.8 2.8-.8-.1-4.3 0-8.7.5-13 .3-2.3.6-4.6 1.1-6.9.2-1.1.5-2.2.7-3.3.4-3 2.3-4.1 5.9-3.1.4 1.2 2.7 1.6 2.9 0 3.1-21.3 11-41.4 23.2-59.1-.9-.1-1.8-.2-2.7-.4 21 55.2 11.7 115.7-4.3 170.9-.5 1.9 2.4 2.7 2.9.8 16.1-55.7 25.4-116.9 4.3-172.5-.5-1.2-2-1.5-2.7-.4-12.3 17.9-20.3 38.3-23.5 59.8h2.9c-1.7-4.8-7.5-4.3-10.1-.6-2.4 3.5-2.7 8.4-3.3 12.5-.7 5.1-.9 10.1-.8 15.2.9-.3 1.9-.5 2.8-.8-3.1-4.7-9.8-4.4-13.3-.3-6.1 7-1 17.4-3.4 25.5-.6 2.1 2.3 2.8 2.8 1zM270.5 1010.5c3.8-1.9 7.9-3.1 12.1-3.5 1.9-.2 1.9-3.2 0-3-4.8.5-9.3 1.8-13.7 3.9-1.7.9-.2 3.5 1.6 2.6z"/><path class="st0" d="M337.3 996.9c6.2-.8 12.3-.3 18.4 1.4 1.9.5 2.7-2.4.8-2.9-6.6-1.9-13.2-2.3-20-1.4-1.9.3-1.1 3.2.8 2.9z"/><path class="st0" d="M338.6 998c3.2.4 6.4-.3 9.6.2 3.1.5 5.8 1.8 8.9 1.7 1.3 0 2-1.6 1.1-2.6-.9-.8-.9-.9-2-1.4-1.7-.8-3.3 1.8-1.5 2.6.5.3.9.6 1.4.9.4-.9.7-1.7 1.1-2.6-3.3.1-6.2-1.4-9.4-1.8-2.8-.3-5.5.4-8.3 0-2-.2-2.8 2.7-.9 3zM246.7 864.3c17.7 45.3 32.4 91.7 44 138.9.5 1.9 3.4 1.1 2.9-.8-11.6-47.2-26.4-93.6-44-138.9-.7-1.8-3.6-1-2.9.8zM337.2 829.8c1.1 29.6-3.7 58.8-9.8 87.7-5.6 26.7-13.7 53.9-9.4 81.3.3 1.9 3.2 1.1 2.9-.8-4.6-28.7 4.8-57.5 10.5-85.4 5.6-27.2 9.8-54.9 8.7-82.8 0-1.9-3-1.9-2.9 0zM273.1 1029.3c3.9-3.5 8.9-1.3 13.3-.5 3.5.7 7.1.8 10.7.3 7.6-1.1 13.2-5.3 19.6-9 4.5-2.7 9.7-4.8 15-3 2.9 1 5.3 3 8.4 3.6 6.7 1.1 12.3-3.4 17.1-7.3 1.5-1.2-.6-3.3-2.1-2.1-3.7 3.1-8.1 6.7-13.2 6.6-4-.1-6.9-3.1-10.7-4.1-6.8-1.7-13.3 2-18.9 5.5-8.1 5.2-16 8.6-25.9 6.6-5.5-1.1-10.8-2.7-15.5 1.4-1.4 1.2.8 3.3 2.2 2zM276.3 1048.9c6.5 2.6 13.4 1.7 20.2 1.1 6.9-.5 13.7-1.2 20.6-2.1 13.9-2 27.5-5.8 39.6-13.2 1.6-1 .1-3.6-1.5-2.6-11.4 7-24.1 10.6-37.2 12.6-6.5 1-13.1 1.6-19.7 2.2-7 .6-14.5 1.8-21.1-.9-1.9-.7-2.7 2.2-.9 2.9zM702.2 242.5c.7 3.2.9 6.4.8 9.6-.1 1.9 2.9 1.9 3 0 .1-3.5-.2-7-.9-10.4-.4-1.9-3.3-1.1-2.9.8z"/><path class="st0" d="M704 242.5c14.5.7 28.9 1.8 43.3 3.5 1.9.2 1.9-2.8 0-3-14.4-1.7-28.8-2.8-43.3-3.5-1.9-.1-1.9 2.9 0 3zM704.3 254.4c13.8 4.4 28.6 2.4 42.6 5.9 1.9.5 2.7-2.4.8-2.9-14-3.5-28.8-1.5-42.6-5.9-1.9-.5-2.6 2.4-.8 2.9z"/><path class="st0" d="M746.9 244.4c-.1 4.7-.1 9.4.1 14.1.1 1.9 3.1 1.9 3 0-.2-4.7-.2-9.4-.1-14.1 0-1.9-3-1.9-3 0z"/><path class="st0" d="M748.2 245.3c48.6-16.3 94.7-39 141.1-60.8 1.7-.8.2-3.4-1.5-2.6-46.1 21.7-92 44.3-140.3 60.5-1.9.7-1.1 3.6.7 2.9zM749.2 260c47.1-21.8 94.3-43.1 141.8-64 1.8-.8.2-3.4-1.5-2.6-47.5 20.9-94.7 42.3-141.8 64-1.7.8-.2 3.4 1.5 2.6z"/><path class="st0" d="M888.5 183.5c.4 3.7.9 7.3 1.3 11 .2 1.9 3.2 1.9 3 0-.4-3.7-.9-7.3-1.3-11-.2-1.9-3.2-1.9-3 0zM705.4 241.4c4.3-1.2 8-3.9 12-5.8 5.3-2.5 10.7-4.6 16.3-6.3 1.8-.6 1.1-3.5-.8-2.9-4.7 1.4-9.3 3.1-13.7 5.1-4.8 2.1-9.5 5.5-14.5 6.9-1.9.6-1.1 3.5.7 3z"/><path class="st0" d="M735.6 227.2c-1-15.4-2.1-30.7-3.1-46.1-.1-1.9-3.1-1.9-3 0 1 15.4 2.1 30.7 3.1 46.1.2 1.9 3.2 1.9 3 0z"/><path class="st0" d="M734.9 228.8c9 1 18.8 1 27.4 3.7 1.8.6 2.6-2.3.8-2.9-8.9-2.7-19-2.8-28.2-3.8-1.9-.2-1.9 2.8 0 3zM730.8 181.4c11 .9 22 .8 33 .8 1.9 0 1.9-3 0-3-11 0-22 .1-33-.8-1.9-.2-1.9 2.8 0 3z"/><path class="st0" d="M763 181.8v49.5c0 1.9 3 1.9 3 0v-49.5c0-1.9-3-1.9-3 0z"/><path class="st0" d="M765.2 182.1c2.6 1 5.6.2 7.4-1.9 1.3-1.5-.9-3.6-2.1-2.1-1.2 1.3-2.8 1.8-4.5 1.1-1.8-.6-2.6 2.3-.8 2.9z"/><path class="st0" d="M770.4 179.7c.4 15.6.8 31.2 1.1 46.8 0 1.9 3 1.9 3 0-.4-15.6-.8-31.2-1.1-46.8 0-1.9-3-1.9-3 0z"/><path class="st0" d="M766 233c2.5-1.5 5-3 7.6-4.4 1.7-.9.2-3.5-1.5-2.6-2.6 1.4-5.1 2.8-7.6 4.4-1.7 1-.2 3.6 1.5 2.6zM774.2 214.5c3.2-1.3 6.4-2.5 9.6-3.8 1.8-.7 1-3.6-.8-2.9-3.2 1.3-6.4 2.5-9.6 3.8-1.8.7-1 3.6.8 2.9z"/><path class="st0" d="M783.1 205.9c.3 2.3.7 4.6 1 6.9.3 1.9 3.2 1.1 2.9-.8-.3-2.3-.7-4.6-1-6.9-.3-1.9-3.2-1.1-2.9.8z"/><path class="st0" d="M785.2 214c7 .9 14 1.5 21 1.9 1.9.1 1.9-2.9 0-3-7-.4-14-1.1-21-1.9-2-.3-1.9 2.8 0 3zM784.5 205.8c8.4.5 16.7.9 25.1 1.4 1.9.1 1.9-2.9 0-3-8.4-.5-16.7-.9-25.1-1.4-2-.1-2 2.9 0 3z"/><path class="st0" d="M807.5 206.3c.3 2 .3 4.1.2 6.1-.1 1.9 2.9 1.9 3 0 .2-2.3.1-4.6-.3-6.9-.3-1.9-3.1-1.1-2.9.8z"/><path class="st0" d="M805.7 215.5c1 .2 2 .1 2.9-.4.7-.4 1-1.3.5-2.1-.4-.7-1.4-1-2.1-.5-.1.1-.2.1-.3.2.2-.1-.2 0 0 0h-.2c-.2 0 .3.1-.1 0-.8-.2-1.7.2-1.8 1-.1.8.3 1.6 1.1 1.8zM809.5 206.9c14.2-6 28.1-12.6 41.6-19.9-.7-.3-1.5-.6-2.2-.9.4 2.1 1 3.9 2 5.8.9 1.7 3.5.2 2.6-1.5-.9-1.8-1.3-3.2-1.7-5.1-.2-1-1.4-1.3-2.2-.9-13.6 7.3-27.4 13.9-41.6 19.9-1.8.7-.3 3.3 1.5 2.6z"/><path class="st0" d="M809.4 215.3c14.5-7.6 29.1-15.2 43.6-22.8 1.7-.9.2-3.5-1.5-2.6-14.5 7.6-29.1 15.2-43.6 22.8-1.7.9-.2 3.5 1.5 2.6zM784.8 191.8c.5 2.4 1.1 4.8 1.6 7.2.4 1.9 3.3 1.1 2.9-.8-.5-2.4-1.1-4.8-1.6-7.2-.4-1.9-3.3-1.1-2.9.8z"/><path class="st0" d="M786.4 192.3c4.3 1.4 9.4.6 13.8 0 6-.8 11.9-2.1 18-2.6 1.9-.2 1.9-3.2 0-3-4.7.4-9.4 1.2-14 2-5.1.8-11.9 2.4-16.9.7-2-.6-2.7 2.3-.9 2.9z"/><path class="st0" d="M816.6 188.3c.3 2.4.7 4.7 1.4 7 .6 1.8 3.5 1.1 2.9-.8-.6-2-1.1-4.1-1.3-6.2-.2-1.9-3.2-1.9-3 0z"/><path class="st0" d="M788.6 201.5c10.5-1 21-2.5 31.4-4.5 1.9-.4 1.1-3.2-.8-2.9-10.1 1.9-20.3 3.3-30.6 4.4-1.9.2-1.9 3.2 0 3zM818.9 189.3c12.7-5 25.2-10.6 37.4-16.8 1.7-.9.2-3.5-1.5-2.6-12 6.1-24.2 11.6-36.7 16.5-1.8.7-1 3.6.8 2.9z"/><path class="st0" d="M853.7 172.2c.5 2.5 1 4.9 1.6 7.3.5 1.9 3.4 1.1 2.9-.8-.6-2.4-1.1-4.9-1.6-7.3-.3-1.9-3.2-1.1-2.9.8z"/><path class="st0" d="M820.7 197.3c12.2-5.2 24.5-10.4 36.7-15.6 1.8-.8.2-3.3-1.5-2.6-12.2 5.2-24.5 10.4-36.7 15.6-1.8.7-.3 3.3 1.5 2.6zM784.9 203.2c1.4-.4 2.8-.9 4.1-1.3 1.8-.6 1.1-3.5-.8-2.9-1.4.4-2.8.9-4.1 1.3-1.9.5-1.1 3.4.8 2.9zM796.8 169.4c.4 4.6.9 9.2 1.3 13.9.1.7.4 1.2 1.1 1.4 3.9 1.5 8.3 3 12.5 1.5 3.1-1.1 6.9-4.1 7.3-7.5.3-1.9-2.6-2.7-2.9-.8-.5 3.5-5.1 5.9-8.2 5.8-2.7 0-5.4-1-8-2 .4.5.7 1 1.1 1.4-.4-4.6-.9-9.2-1.3-13.9-.1-1.7-3.1-1.7-2.9.2z"/><path class="st0" d="M815.4 165.3l.3 13.8c0 1.9 3 1.9 3 0l-.3-13.8c0-1.9-3-1.9-3 0z"/><path class="st0" d="M800.1 169.5c1.3-1.7 4.8-1.9 6.7-2.3 2.9-.5 5.7-.6 8.5.2 1.9.5 2.7-2.4.8-2.9-3.8-1.1-7.5-.7-11.3 0-2.8.6-5.5 1-7.3 3.4-1.1 1.6 1.5 3.1 2.6 1.6z"/><path class="st0" d="M803.6 164.3c-1.7-1.3-3.1-3-4.1-5-.4-.9-2.4-5.9-.4-6.1 1.3-.1 3.6 4.4 4.1 5.3 1 2 1.6 4.1 1.9 6.2.3 1.9 3.2 1.1 2.9-.8-.6-3.9-2.2-7.5-4.6-10.6-1.4-1.8-4.2-4.7-6.7-2.9-2.4 1.8-1.3 6.2-.5 8.5 1.1 3.3 3.2 5.9 5.9 7.9 1.5 1.2 3-1.4 1.5-2.5z"/><path class="st0" d="M807.2 160.5c.3-2.4.5-5 1.6-7.2.8-1.5 3.7-5.5 5-2.5.8 1.7-1 5.2-1.7 6.6-.9 1.9-2.1 3.6-3.3 5.3-1.1 1.6 1.5 3.1 2.6 1.5 2.3-3.4 4.6-6.9 5.3-11 .4-2.3.3-5.5-2.2-6.6-2.6-1.2-5.6 1.3-7.1 3.2-2.4 3-2.9 6.9-3.3 10.6-.1 2 2.9 2 3.1.1zM787.2 191.6c3.8-2.5 7.9-4.5 12.1-6.1 1.8-.7 1-3.6-.8-2.9-4.5 1.7-8.8 3.8-12.8 6.4-1.6 1.1-.1 3.7 1.5 2.6zM818.6 178.1c5.4-2.2 10.8-4.5 16.2-6.7 3.5-1.4 6.1-2 9.9-1.5 3.1.4 6.1.9 9.2 1.4 1.9.3 2.7-2.6.8-2.9-5.4-.8-12.2-3-17.5-1.2-6.6 2.3-13 5.3-19.4 8-1.8.7-1 3.6.8 2.9zM857.1 182.1c9.7 1.2 19.4 1.7 29.2 1.4 1.9 0 1.9-3 0-3-9.8.2-19.5-.2-29.2-1.4-2-.3-1.9 2.7 0 3zM221.7 463c-1.1 12.9-1.2 28.6 10.2 37.3 8.6 6.6 20.6 6 29.8 1 1.7-.9.2-3.5-1.5-2.6-8.9 4.8-20.9 5-28.4-2.5-8.6-8.7-8-22-7.1-33.3.2-1.8-2.8-1.8-3 .1z"/><path class="st0" d="M230.8 472.1c1.5-2.6 5-3.1 7.4-1.4 1.5 1.2 3-1.4 1.5-2.6-3.7-2.8-9.2-1.5-11.5 2.4-1 1.7 1.6 3.2 2.6 1.6zM243.4 465.1l-1.8 9.9c-.4 2-.9 4.1-.1 6.1 1.3 3.1 5.1 4 7.9 2.4 1.7-1 .2-3.6-1.5-2.6-4.6 2.7-3.3-5-2.9-7.5.5-2.5.9-5 1.4-7.5.3-1.9-2.6-2.7-3-.8zM252.7 468.1c.7-1.2 2.2-1.5 3.3-.8 1.6 1.1 3.1-1.5 1.5-2.6-2.5-1.6-6-.7-7.4 1.9-.9 1.7 1.7 3.2 2.6 1.5zM243.8 492.9c4.2.4 8.1-1 11.2-3.8 1.4-1.3-.7-3.4-2.1-2.1-2.5 2.3-5.7 3.2-9.1 2.9-1.9-.1-1.9 2.9 0 3zM229.9 480c1.9 0 1.9-3 0-3s-1.9 3 0 3zM236.1 477.6c1.9 0 1.9-3 0-3s-1.9 3 0 3zM233.2 482.3v.5c0 .8.7 1.5 1.5 1.5s1.5-.7 1.5-1.5v-.5c0-.8-.7-1.5-1.5-1.5s-1.5.7-1.5 1.5zM215.8 458.3c0 10.6-4.9 19-10.5 27.5-3.5 5.4-6.1 11.2-4.3 17.8 3.5 12.6 18.6 16 28.2 7.8 1.5-1.3-.7-3.4-2.1-2.1-5.4 4.7-14 5.3-19.3 0-5.5-5.5-5.1-12.9-1.5-19.3 3-5.4 6.8-10.1 9.2-15.8 2.2-5.1 3.3-10.4 3.3-15.9 0-2-3-2-3 0z"/><path class="st0" d="M219.4 457c6.1-9.8 19.1-22.5 31.7-16.4 1.7.8 3.3-1.7 1.5-2.6-14.3-6.9-28.7 6.1-35.8 17.5-1 1.6 1.6 3.1 2.6 1.5z"/><path class="st0" d="M242.3 447.1c2.7 8.7 9.9 15.3 19 17 1.9.3 2.7-2.5.8-2.9-8-1.4-14.5-7.1-16.9-14.9-.6-1.8-3.5-1-2.9.8zM250.1 505.3c.8 2.9 1.2 5.7 1.4 8.7l1.5-1.5c-6.9.2-14.8 5.7-18.2 11.7-4.2 7.6-2.5 18.7-1.7 26.9.2 1.9 3.2 1.9 3 0-.7-6.9-1.6-14.7-.1-21.5 1.6-7 9.8-13.9 17-14.1.8 0 1.5-.7 1.5-1.5-.2-3.3-.6-6.3-1.5-9.5-.5-1.8-3.4-1-2.9.8zM164 479.9c-.3 8.7-.9 17.5-1.7 26.2.9-.4 1.7-.7 2.6-1.1-1.3-1.4-2.7-2.8-4-4.2-1.3-1.4-3.5.7-2.1 2.1 1.3 1.4 2.7 2.8 4 4.2 1 1 2.4.2 2.6-1.1.8-8.7 1.4-17.4 1.7-26.2 0-1.8-3-1.8-3.1.1zM149.2 491.7c.9-1.5 3.5-1.9 4.6-.3 1.1 1.6 3.7.1 2.6-1.5-2.3-3.3-7.7-3.3-9.7.3-1 1.6 1.6 3.2 2.5 1.5zM172.5 486.7c.1-1 1.2-1.4 2.1-1.2 1.2.2 2 1.2 2.7 2 1.2 1.5 3.3-.6 2.1-2.1-1.4-1.8-3.6-3.3-6-2.9-2.2.4-3.8 2-3.9 4.2-.2 1.9 2.8 1.9 3 0zM142.7 485.6c16.9-6.4 33.7-13 50.5-19.8 1.8-.7 1-3.6-.8-2.9-16.8 6.8-33.6 13.4-50.5 19.8-1.8.7-1 3.6.8 2.9z"/><path class="st0" d="M143.1 483.5c7.3-1.9 14.4-4.1 21.4-6.8 7.1-2.8 14.4-7.5 22-8.4 1.9-.2 1.9-3.2 0-3-7.5.9-14.2 5.1-21.2 7.8-7.5 3-15.2 5.4-23.1 7.4-1.7.6-1 3.5.9 3z"/><path class="st0" d="M142.7 482.4c-2.1-5.4-2.5-10.1.7-15.2 2.7-4.3 6.6-7.9 11.5-9.5 9.6-3.1 19 1.9 23.1 10.7.8 1.7 3.4.2 2.6-1.5-4.9-10.6-17-15.9-28-11.5-5 2-8.9 5.9-11.8 10.3-3.7 5.8-3.4 11.2-1 17.5.7 1.8 3.6 1 2.9-.8z"/><path class="st0" d="M177.9 471.6c.9 3.9 1.8 7.7 2.8 11.6.4 1.9 3.3 1.1 2.9-.8-.9-3.9-1.8-7.7-2.8-11.6-.5-1.8-3.4-1-2.9.8zM183.8 489.4c-10.8-1.9-16 8.6-18.6 17.2-.6 1.9 2.3 2.6 2.9.8 2-6.8 6-16.7 14.9-15.1 1.8.3 2.7-2.6.8-2.9z"/><path class="st0" d="M141.2 501.1c2.7-1.2 5.7-1.3 8.6-.3 3 1.1 4.1 3.1 6.1 5.2 2.6 2.8 5.4 2.6 8.9 1.8 1.9-.4 1.1-3.3-.8-2.9-5.2 1.2-8.8-5.4-13.4-7.1-3.7-1.3-7.3-.9-10.9.6-1.8.8-.2 3.4 1.5 2.7zM143.9 489.1c-1.2-1.7-3.3-2.2-5.3-1.4-2.2.9-3.2 3.2-4 5.3-.7 1.8 2.2 2.6 2.9.8.4-1 .8-2.3 1.7-3 .5-.4 1.6-.8 2-.2 1.2 1.6 3.8.1 2.7-1.5zM180.2 482.7c.5 2.7 1.1 5.4 1.6 8.2.4 1.9 3.3 1.1 2.9-.8-.5-2.7-1.1-5.4-1.6-8.2-.4-1.9-3.2-1.1-2.9.8z"/><path class="st0" d="M182.1 493c4.9-.1 1.2 11.7 1.3 15.1.2 5 1.2 9.8.3 14.9-1.7 9-8 17.2-16.6 20.5-9.4 3.6-19 .4-24.1-8.3-5.1-8.9-4.1-19.6-2.8-29.3.2-1.9-2.8-1.9-3 0-1.5 11.8-2.3 25.1 6 34.7 7.3 8.5 19.2 9.3 28.6 4 9.4-5.3 15.3-15.8 15.4-26.5 0-3.6-.7-7.2-.8-10.9 0-3.7 1.6-6.9 1.6-10.5 0-3.6-2.1-6.7-5.9-6.7-1.9 0-1.9 3 0 3z"/><path class="st0" d="M185.1 521.8c7.8 2.3 16.8 6 22.6 11.8 6 5.9 8.4 17.1 10.5 25 .5 1.9 3.4 1.1 2.9-.8-2.3-8.3-4.9-20.1-11.3-26.3-6.4-6.2-15.6-10.1-24-12.6-1.8-.6-2.6 2.3-.7 2.9zM296.3 632.5c.9 6.3 1.9 12.7 2.8 19 .3 1.9 3.2 1.1 2.9-.8-.9-6.3-1.9-12.7-2.8-19-.3-1.9-3.2-1.1-2.9.8z"/><path class="st0" d="M299.1 633c1.5-2.3 3.1-4.5 4.6-6.8.9-1.3 4.3-5.1 3.7-6.3.8 1.7 3.4.2 2.6-1.5-1.3-2.8-4-.8-5.2.9-2.8 4-5.5 8.2-8.3 12.2-1.1 1.6 1.5 3.1 2.6 1.5z"/><path class="st0" d="M308.5 619.9c5.4-1.4 10.6-3.2 15.8-5.4 1.8-.7 1-3.6-.8-2.9-5.1 2.2-10.4 3.9-15.8 5.4-1.8.5-1 3.4.8 2.9z"/><path class="st0" d="M308.1 622.1c4 3.4 7.9 6.9 11.9 10.3 1.5 1.3 3.6-.9 2.1-2.1-4-3.4-7.9-6.9-11.9-10.3-1.4-1.3-3.5.9-2.1 2.1z"/><path class="st0" d="M299.1 636.3c7.4-1.3 14.7-2.6 22.1-3.9 1.9-.3 1.1-3.2-.8-2.9-7.4 1.3-14.7 2.6-22.1 3.9-1.9.3-1.1 3.2.8 2.9z"/><path class="st0" d="M323.1 631.8c2.1-1.4 4.2-2.8 6.4-4.1 1.6-1 .1-3.6-1.5-2.6-2.1 1.4-4.2 2.8-6.4 4.1-1.6 1.1-.1 3.7 1.5 2.6zM302.3 653.3c6.8-1.5 13.6-3 20.5-4.5 1.9-.4 1.1-3.3-.8-2.9-6.8 1.5-13.6 3-20.5 4.5-1.9.4-1.1 3.3.8 2.9z"/><path class="st0" d="M319.6 631.1c.5 5.4 1.3 10.8 2.4 16.2.4 1.9 3.3 1.1 2.9-.8-1.1-5.1-1.9-10.2-2.3-15.4-.1-1.9-3.1-1.9-3 0z"/><path class="st0" d="M325 649c1-1.1 2.1-1.9 3.6-2.2 1.9-.5 1.1-3.4-.8-2.9-1.9.5-3.6 1.5-4.9 3-1.3 1.4.8 3.6 2.1 2.1zM247.4 670.8c17.9-7.1 35.6-14.7 53-22.8 1.8-.8.2-3.4-1.5-2.6-17.2 7.9-34.7 15.4-52.3 22.5-1.8.7-1 3.6.8 2.9zM261.7 635.6c-4.5-4.5 5.7-12.2 10-7.5 4.5 4.9-6.9 14.6-9.3 8.3-.7-1.8-3.6-1-2.9.8 4.1 10.9 21-2 15-10.4-6.4-9.1-22.6 3.2-15 10.8 1.5 1.5 3.6-.7 2.2-2zM434.4 948.4C405 962 376 976.6 347.7 992.3c-1.7.9-.2 3.5 1.5 2.6 28.4-15.7 57.3-30.4 86.7-43.9 1.7-.9.2-3.4-1.5-2.6zM272.8 1024.3c-32.3 17.5-64.7 35-97 52.5-16 8.7-32.1 17.3-48.1 26-15.4 8.3-30.7 17.9-47.8 22.2-1.9.5-1.1 3.4.8 2.9 16.1-4.1 30.5-12.8 45-20.6 16.6-9 33.2-18 49.8-26.9 32.9-17.8 65.9-35.6 98.8-53.4 1.7-1 .2-3.6-1.5-2.7zM140.4 1120.9c31.4-18 62.8-35.9 94.2-53.9 1.7-1 .2-3.6-1.5-2.6-31.4 18-62.8 35.9-94.2 53.9-1.7 1-.2 3.6 1.5 2.6zM377.3 1003c18.5-10.8 37.6-20.4 57.2-28.9 1.8-.8.2-3.4-1.5-2.6-19.6 8.5-38.7 18.1-57.2 28.9-1.7 1-.2 3.6 1.5 2.6zM396.9 1013.9c14.2-9 28.8-17.3 43.9-24.8 1.7-.9.2-3.5-1.5-2.6-15 7.5-29.7 15.8-43.9 24.8-1.6 1.1-.1 3.7 1.5 2.6zM573.1 985.3c57.1-42.1 117.2-80 179.7-113.5 1.7-.9.2-3.5-1.5-2.6-62.5 33.5-122.6 71.4-179.7 113.5-1.6 1.2-.1 3.8 1.5 2.6zM1002.8 30.9V347.2c0 1.9 3 1.9 3 0V100.5 30.9c0-1.9-3-1.9-3 0zM1231.5 636.5c1.4 23.1 4.9 45.9 10.6 68.3.5 1.9 3.4 1.1 2.9-.8-5.6-22.1-9.2-44.7-10.5-67.5-.1-1.9-3.1-2-3 0z"/><path class="st0" d="M1232.9 635.9c26.3 4.3 53 5.3 79.5 2.9 1.9-.2 1.9-3.2 0-3-26.3 2.4-52.7 1.5-78.8-2.8-1.8-.3-2.6 2.6-.7 2.9z"/><path class="st0" d="M1310.3 638.7v.7c0 .8.7 1.5 1.5 1.5s1.5-.7 1.5-1.5v-.7c0-.8-.7-1.5-1.5-1.5s-1.5.6-1.5 1.5z"/><path class="st0" d="M1310.4 639c1.3 5.6-.3 11.8-1.2 17.4-.8 5.3-1.8 10.6-2.8 15.9-2 10.3-4.5 20.4-7.3 30.5-.5 1.9 2.4 2.7 2.9.8 3.2-11.3 5.9-22.7 8-34.2 1.1-5.6 2-11.2 2.8-16.9.7-4.8 1.6-9.5.5-14.3-.4-1.8-3.3-1-2.9.8z"/><path class="st0" d="M1242.4 706.4c10.9 4.7 22.5 7.4 34.4 7.6 8.9.1 18.6-1.3 24.5-8.6 1.2-1.5-.9-3.6-2.1-2.1-5.8 7.3-15.6 8-24.3 7.7-10.7-.4-21.2-2.9-31.1-7.1-1.6-.8-3.2 1.8-1.4 2.5zM1253.9 635.1c-6.8-4.7-10-13.5-7.5-21.5.8-2.6 1.6-4 .8-6.6-1.6-4.8-2.6-8.8-2.5-14 .1-8.7-.3-16.6-1.9-25.2-1.7-9.1-2.9-19.1 1.9-27.6 3.9-6.9 9.7-2.9 12.3 2.6 1.9 4.2 3.3 8.7 4.7 13 2.9 8.9 5.4 17.9 7.3 27 3.9 18.2 5.6 36.7 5.5 55.3 0 1.9 3 1.9 3 0 .1-17.6-1.5-35.1-4.9-52.4-1.7-8.9-4-17.6-6.6-26.3-2.2-7-4.1-16.2-8.7-22-2.8-3.5-7.9-5.6-11.9-2.8-4.5 3.2-6.3 10.8-6.9 15.9-1 8.2 1.3 16.2 2.6 24.3 1.4 8.5-.2 17 1 25.5.3 2.3 1.2 4.3 1.8 6.5.9 2.9.4 3.5-.3 5.9-1 3.1-1.2 6.3-.7 9.5.9 6.3 4.4 11.7 9.6 15.4 1.5 1.2 3-1.4 1.4-2.5z"/><path class="st0" d="M1273.5 585.3l4.5-28.8c-.7.3-1.5.6-2.2.9 2.8 1.3 5.2 3 7.5 5.1 1 1 2.4.2 2.6-1.1 1.1-9.4 3.7-18.5 8-26.9 3.6-7.3 8-14 10.8-21.7-1-.1-2-.3-2.9-.4 1.3 15.3 1.9 30.6 1.4 45.9-.2 7.3-.5 14.7-1.3 21.9-.7 7-2.1 14.6-8 19.1-1.1.9-.8 2.7.8 2.8 2.6.1 4.4 3.1 4.4 5.4.1 1.5-.5 3.2-.9 4.7-.8 2.8-1.9 5.5-2.8 8.2-1.8 5.3-3.7 10.6-5.5 15.9-.6 1.8 2.3 2.6 2.9.8 1.7-5 3.5-10 5.2-15 1.4-4.1 3.5-8.4 4-12.7.6-5-1.7-10.1-7.3-10.3.3.9.5 1.9.8 2.8 10.6-8.1 9.9-23.9 10.5-35.8.9-17.9.5-35.9-1.1-53.7-.1-1.7-2.4-2-2.9-.4-3.3 9.1-9 16.9-12.7 25.8-3.2 7.6-5.2 15.5-6.2 23.6.9-.4 1.7-.7 2.6-1.1-2.5-2.3-5-4.1-8.1-5.6-.8-.4-2-.1-2.2.9l-4.5 28.8c-.6 2 2.3 2.8 2.6.9zM1232.6 647.3c13.1 23.7 29.4 45.4 48.3 64.7 1.4 1.4 3.5-.7 2.1-2.1-18.8-19.2-34.8-40.7-47.8-64.1-1-1.7-3.5-.2-2.6 1.5zM1258.6 637.5c12.1 19.7 26.1 38.1 41.8 55 1.3 1.4 3.4-.7 2.1-2.1a336 336 0 01-41.3-54.4c-1-1.7-3.6-.2-2.6 1.5zM1117 241.2c2 5 2.6 10.2 1.7 15.5-.3 1.9 2.6 2.7 2.9.8 1-5.8.5-11.6-1.7-17.1-.7-1.8-3.6-1-2.9.8z"/><path class="st0" d="M1119.2 241.2c65.4 6.1 130.9 10.8 196.5 14 1.9.1 1.9-2.9 0-3-65.6-3.2-131.1-7.9-196.5-14-1.9-.2-1.9 2.8 0 3zM1120 260.6c65.1 5.6 130.4 9.6 195.7 12.3 1.9.1 1.9-2.9 0-3-65.3-2.6-130.5-6.7-195.7-12.3-1.9-.1-1.9 2.9 0 3z"/><path class="st0" d="M1315.4 255.2c-.4 5.9-.9 11.9-1.3 17.8-.1 1.9 2.9 1.9 3 0 .4-5.9.9-11.9 1.3-17.8.1-1.9-2.9-1.9-3 0zM1132.5 165.4c.8 25.2 2 50.4 1.3 75.6-.1 1.9 2.9 1.9 3 0 .7-25.2-.5-50.4-1.3-75.6-.1-2-3.1-2-3 0z"/><path class="st0" d="M1134.7 166.8c5.6-3.3 12.2-3.5 17.9-.3 1.7.9 3.2-1.7 1.5-2.6-6.6-3.7-14.4-3.6-20.9.3-1.7 1-.2 3.6 1.5 2.6z"/><path class="st0" d="M1151.6 165.4c1.8 26 2.2 52.1 1.2 78.2-.1 1.9 2.9 1.9 3 0 1-26.1.6-52.2-1.2-78.2-.1-1.9-3.1-1.9-3 0zM1120.7 240c5.2-1.5 10.2-3.4 15.2-5.5 1.8-.8.2-3.3-1.5-2.6-4.7 2-9.5 3.7-14.5 5.2-1.9.5-1.1 3.4.8 2.9z"/><path class="st0" d="M1153.8 166c5.4.2 10.7-.5 15.9-1.9 1.9-.5 1.1-3.4-.8-2.9-4.9 1.4-9.9 2-15.1 1.8-1.9-.1-1.9 2.9 0 3z"/><path class="st0" d="M1169 162.8c-.2 20.7.4 41.4 1.8 62.1.1 1.9 3.1 1.9 3 0-1.3-20.7-1.9-41.4-1.8-62.1 0-1.9-3-1.9-3 0z"/><path class="st0" d="M1157.6 242.6c5.7-4.3 10.9-9.2 15.6-14.6 1.3-1.5-.9-3.6-2.1-2.1-4.5 5.2-9.5 10-15 14.1-1.5 1.2-.1 3.8 1.5 2.6zM1182.1 225.5c-.3 4-.1 8 .6 12 .3 1.9 3.2 1.1 2.9-.8-.6-3.7-.8-7.5-.5-11.2.2-1.9-2.8-1.9-3 0z"/><path class="st0" d="M1184.9 225.9c26.1-.3 52.2 1 78.2 3.8 1.9.2 1.9-2.8 0-3-26-2.8-52.1-4.1-78.2-3.8-2 0-2 3 0 3zM1185.5 240.4c25.8 1.3 51.7 2.7 77.5 4 1.9.1 1.9-2.9 0-3-25.8-1.3-51.7-2.7-77.5-4-1.9-.1-1.9 2.9 0 3z"/><path class="st0" d="M1262.1 228.6c1.5 4.2 1.6 8.4.2 12.7-.6 1.8 2.3 2.6 2.9.8 1.5-4.7 1.5-9.6-.2-14.3-.7-1.9-3.6-1.1-2.9.8zM1197 211.3c-.3 3.6-.1 7.2.5 10.8.3 1.9 3.2 1.1 2.9-.8-.6-3.3-.7-6.6-.4-10 .2-1.9-2.8-1.9-3 0z"/><path class="st0" d="M1199.1 212.6c13.4 0 26.8.1 40.2.1 13.5 0 27.6-1.1 40.9.8 1.9.3 2.7-2.6.8-2.9-13.1-1.8-26.6-.9-39.8-.9-14 0-28.1-.1-42.1-.1-1.9 0-1.9 3 0 3z"/><path class="st0" d="M1279 213.7c1.7 4.4 1.8 8.9.3 13.4-.6 1.8 2.3 2.6 2.9.8 1.7-4.9 1.6-10.1-.3-15-.7-1.8-3.6-1-2.9.8z"/><path class="st0" d="M1267 230.2h11.6c1.9 0 1.9-3 0-3H1267c-2 0-2 3 0 3zM1265 242.6c5-.4 9.7-1.5 14.3-3.5 1.8-.8.2-3.3-1.5-2.6-4.1 1.8-8.4 2.8-12.8 3.1-1.9.1-1.9 3.1 0 3z"/><path class="st0" d="M1275.1 230v8.4c0 1.9 3 1.9 3 0V230c0-1.9-3-1.9-3 0zM1280.5 213.2c3.9-.4 7.8-.8 11.6-1.2 1.9-.2 1.9-3.2 0-3-3.9.4-7.8.8-11.6 1.2-1.9.2-1.9 3.2 0 3z"/><path class="st0" d="M1292 210c-.2 4.3.1 8.5.8 12.7.3 1.9 3.2 1.1 2.9-.8-.7-3.9-.9-7.9-.7-11.9.1-2-2.9-1.9-3 0z"/><path class="st0" d="M1281.5 229.3c4.8-1.4 9.6-2.7 14.3-4.1 1.9-.5 1.1-3.4-.8-2.9-4.8 1.4-9.6 2.7-14.3 4.1-1.8.5-1.1 3.4.8 2.9zM1279.2 237.1c14.2 0 28.4.2 42.7.7 1.9.1 1.9-2.9 0-3-14.2-.5-28.4-.7-42.7-.7-1.9 0-1.9 3 0 3z"/><path class="st0" d="M1320.7 237.7c-2.7 6-4.9 12.1-6.7 18.4-.5 1.9 2.4 2.7 2.9.8 1.7-6.1 3.8-12 6.4-17.7.7-1.7-1.9-3.3-2.6-1.5zM1174.7 228.8h6.7c1.9 0 1.9-3 0-3h-6.7c-1.9 0-1.9 3 0 3zM1202.9 225.9c-2.4 4-3 8.7-1.6 13.2.6 1.8 3.5 1 2.9-.8-1.2-3.8-.8-7.5 1.2-10.9 1.1-1.6-1.5-3.1-2.5-1.5zM1215.8 227.6c-.5 2.8-.7 5.6-.4 8.5.2 1.9 3.2 1.9 3 0-.3-2.6-.2-5.1.3-7.7.4-1.9-2.5-2.7-2.9-.8zM1222.8 210.9c-1.6 4.2-1.5 8.7.1 12.8.7 1.8 3.6 1 2.9-.8-1.5-3.7-1.5-7.5-.1-11.2.7-1.8-2.2-2.6-2.9-.8zM1238.3 212.3c-1.5 3.7-1.8 7.6-1 11.5.4 1.9 3.3 1.1 2.9-.8-.7-3.4-.3-6.7 1-9.9.8-1.8-2.1-2.6-2.9-.8zM1134.1 204.2c6.8 2.7 13.8 3.3 21 2 1.9-.3 1.1-3.2-.8-2.9-6.6 1.2-13.1.5-19.4-2-1.8-.7-2.5 2.2-.8 2.9zM1136.7 216.4c5.2 1.8 10.5 2.6 15.9 2.3 1.9-.1 1.9-3.1 0-3-5.2.3-10.2-.5-15.1-2.2-1.8-.6-2.6 2.3-.8 2.9z"/><path class="st0" d="M1321.9 238.5c.3 11.5-3.3 22.2-7 33-.6 1.8 2.3 2.6 2.9.8 3.8-11 7.4-22 7.2-33.8-.2-1.9-3.2-1.9-3.1 0z"/><path class="st0" d="M1318.6 247.4c-1.2 3.4-2.4 6.9-3.6 10.3-.6 1.8 2.2 2.6 2.9.8 1.7-4.3 3.4-8.7 5.2-13-1-.3-1.9-.5-2.9-.8-1.4 5.6-2.7 11.1-4.1 16.7 1 .3 1.9.5 2.9.8 1.1-4.9 2.3-9.9 3.4-14.8.4-1.9-2.3-2.6-2.9-.8-1.4 4.4-2.9 8.8-4.3 13.2-.6 1.8 2.3 2.6 2.9.8 1.4-4.4 2.9-8.8 4.3-13.2-1-.3-1.9-.5-2.9-.8-1.1 4.9-2.3 9.9-3.4 14.8-.4 1.9 2.4 2.7 2.9.8 1.4-5.6 2.7-11.1 4.1-16.7.5-1.9-2.2-2.6-2.9-.8-1.7 4.3-3.4 8.7-5.2 13 1 .3 1.9.5 2.9.8 1.2-3.4 2.4-6.9 3.6-10.3.6-1.9-2.3-2.6-2.9-.8zM1268.7 824.2c-92.1 88.7-185.7 175.9-280.7 261.5-26.7 24-53.4 47.9-80.3 71.7-1.4 1.3.7 3.4 2.1 2.1 95.8-84.7 190.2-171 283.1-258.8 26.1-24.6 52-49.4 77.9-74.3 1.5-1.4-.7-3.5-2.1-2.2zM654.8 1032.6c39-32.2 78.9-63.2 119.7-93 1.5-1.1 0-3.7-1.5-2.6-41 30-81.1 61.1-120.3 93.5-1.5 1.2.6 3.3 2.1 2.1zM711.3 951.1c54.3-46.8 108.7-93.7 163-140.5 15.6-13.4 31.2-26.9 46.8-40.3 1.5-1.3-.7-3.4-2.1-2.1-54.3 46.8-108.7 93.7-163 140.5-15.6 13.4-31.2 26.9-46.8 40.3-1.5 1.2.7 3.4 2.1 2.1zM500.3 190.7c.2 26.3-.6 52.6-2.2 78.8-.1 1.9 2.9 1.9 3 0 1.7-26.2 2.4-52.5 2.2-78.8-.1-1.9-3.1-1.9-3 0z"/><path class="st0" d="M450.1 291.9c40-16.3 79-35 116.8-56.1 1.7-.9.2-3.5-1.5-2.6-37.5 20.9-76.3 39.5-116.1 55.8-1.8.8-1 3.7.8 2.9z"/><path class="st0" d="M545.6 248.1c1.9 14.6 1.6 29.3-.9 43.9-.3 1.9 2.6 2.7 2.9.8 2.5-14.8 2.9-29.8 1-44.7-.2-1.9-3.2-1.9-3 0z"/><path d="M437.7 1115.8c54.9-44.1 111.9-85.3 171-123.5 1.6-1 .1-3.6-1.5-2.6-59.3 38.4-116.5 79.8-171.6 124-1.5 1.2.7 3.3 2.1 2.1zM851.5 1082.3c30.7-18.6 59.8-39.8 86.8-63.4 1.5-1.3-.7-3.4-2.1-2.1-26.9 23.4-55.7 44.5-86.2 62.9-1.7 1-.2 3.6 1.5 2.6zM1100.5 677c19.5 6.4 40.1 7.6 60.4 9.5 21.6 2.1 43.2 4.1 64.8 6.2 1.9.2 1.9-2.8 0-3-20.9-2-41.9-4-62.8-6-20.7-2-41.7-3.1-61.6-9.6-1.9-.6-2.7 2.3-.8 2.9zM1315.4 704.2c69.8 6.7 139.7 13.4 209.5 20 1.9.2 1.9-2.8 0-3-69.8-6.7-139.7-13.4-209.5-20-1.9-.2-1.9 2.8 0 3zM1149.5 696.7c26.1.9 52.2 3.2 78 6.8 1.9.3 2.7-2.6.8-2.9-26.1-3.6-52.4-6-78.8-6.9-2-.1-2 2.9 0 3zM372.1 982.6c22.1-10.7 44-21.7 65.7-33.1 1.7-.9.2-3.5-1.5-2.6-21.7 11.4-43.6 22.4-65.7 33.1-1.8.8-.3 3.4 1.5 2.6z"/></g><g id="piano"><path d="M433.7 503v444.7c12.4 6.2 26 12.4 40.9 18.3 20.4 8.1 39.6 14.1 57.1 18.8.5-151.3 1.1-302.5 1.6-453.8C665.7 467.4 798 403.7 930.4 340c-26.1-5.8-52.2-11.5-78.2-17.3L433.7 503z"/><path class="st1" d="M662 440.4c10.3 39.2 20.6 78.3 31 117.5 31-16.2 61.9-32.3 92.9-48.5-11.9-36.8-23.8-73.6-35.6-110.4-13.9 4.4-29.5 10.2-46.2 18.1-16.1 7.5-30.2 15.6-42.1 23.3zM542.2 655.4c57-31 115.6-62 175.9-92.9 67.3-34.5 133.6-67.2 198.7-98.2 10.3 5.1 22.6 12.5 35.1 23.4 5.9 5.1 10.9 10.3 15.2 15.2-51.5 43.5-115.1 90.4-191.7 134.4-45.6 26.2-89.5 47.7-130.3 65.5l-102.9-47.4z"/><path class="st1" d="M531.1 532.7c.2 150.3.5 300.5.7 450.8 32.6-20.7 65.1-41.5 97.6-62.4 100-64.4 199.4-129.8 298.2-196.1-.5-31.5-.8-63.2-.9-95.2-.3-98.7 1.3-195.1 4.7-289.2-133.4 63.9-266.9 128-400.3 192.1z"/><path class="st2" d="M642.4 693.9c.4 9.5.8 18.9 1.3 28.4.1 1.9 3.1 1.9 3 0-.4-9.5-.8-18.9-1.3-28.4-.1-1.9-3.1-1.9-3 0zM432.6 504.7v443.6c0 1.9 3 1.9 3 0V602.6v-97.9c0-2-3-2-3 0zM531 530.2c-.7 117.8-1.5 235.5-2.2 353.3l-.6 99.8c0 1.9 3 1.9 3 0 .7-117.8 1.5-235.5 2.2-353.3l.6-99.8c0-1.9-3-1.9-3 0z"/><path class="st2" d="M435 950.1c29.7 15 61 26.6 93.3 34.6 1.9.5 2.7-2.4.8-2.9-32.1-8-63.1-19.4-92.6-34.3-1.7-.9-3.2 1.7-1.5 2.6zM535.5 984.3C639.8 918.1 742.8 850 844.4 779.8c28.9-19.9 57.7-40 86.3-60.3 1.6-1.1.1-3.7-1.5-2.6-100.8 71.2-203.1 140.6-306.6 207.9-29.4 19.1-59 38.1-88.6 56.9-1.6 1-.1 3.6 1.5 2.6z"/><path class="st2" d="M929.4 717.5c1-98.5 2-197 2.9-295.5.3-28 .6-55.9.8-83.9 0-1.9-3-1.9-3 0-1 98.5-2 197-2.9 295.5-.3 28-.6 55.9-.8 83.9 0 2 3 2 3 0zM434.5 504.5c109.6-45.6 218.7-92.4 327.2-140.3 30.5-13.5 61-27 91.4-40.7 1.8-.8.2-3.4-1.5-2.6-107.4 48.1-215.2 95.2-323.5 141-31.4 13.3-62.9 26.5-94.4 39.6-1.8.8-1 3.7.8 3z"/><path class="st2" d="M758.2 424.5c58.3-28.1 116.3-57.1 175.2-84.1 1.8-.8.2-3.4-1.5-2.6-58.9 27-116.8 55.9-175.2 84.1-1.7.8-.2 3.4 1.5 2.6zM534.6 531.9c43.8-22.8 90.1-40.6 133.6-64.1 1.7-.9.2-3.5-1.5-2.6-43.5 23.5-89.7 41.3-133.6 64.1-1.8.9-.2 3.4 1.5 2.6z"/><path class="st2" d="M851.9 323.6c26.6 5.5 53.1 10.9 79.7 16.4 1.9.4 2.7-2.5.8-2.9-26.6-5.5-53.1-10.9-79.7-16.4-1.9-.4-2.7 2.5-.8 2.9zM539.9 656.1v22.1c0 1.9 3 1.9 3 0v-22.1c0-1.9-3-1.9-3 0z"/><path class="st2" d="M539.8 680.4c33.3 17.3 67.8 32.2 103.2 44.8 1.8.6 2.6-2.2.8-2.9-35.1-12.5-69.4-27.4-102.5-44.5-1.7-.9-3.2 1.7-1.5 2.6zM542.7 657.2c32.4 14.5 65.7 26.9 99.6 37.3 1.9.6 2.6-2.3.8-2.9-33.7-10.3-66.7-22.6-98.9-37-1.8-.7-3.3 1.8-1.5 2.6z"/><path class="st2" d="M645 725.6C736.4 687 824.2 640.3 907.2 586c23.5-15.4 46.6-31.4 69.3-47.9 1.5-1.1 0-3.7-1.5-2.6-79.7 58.1-164.6 109.1-253.3 152.2-25.5 12.4-51.4 24.1-77.5 35.1-1.7.6-.9 3.5.8 2.8zM645.1 694c89.9-40.2 176.2-88.3 257.6-143.7 21.8-14.8 43.2-30.2 64.3-46 1.5-1.1 0-3.8-1.5-2.6-79.4 59.8-164.2 112.4-253 157-22.7 11.4-45.7 22.3-68.9 32.7-1.7.8-.2 3.4 1.5 2.6z"/><path class="st2" d="M966 503.9c4.1 10.9 5.9 22.3 5.5 33.9-.1 1.9 2.9 1.9 3 0 .4-11.9-1.4-23.5-5.6-34.7-.7-1.8-3.6-1-2.9.8zM543.9 656.2c19.9-11.5 40.2-22.3 60.9-32.3 1.7-.8.2-3.4-1.5-2.6-20.7 10-41 20.8-60.9 32.3-1.7 1-.2 3.5 1.5 2.6zM640.8 607.3c70.9-37.8 142.4-74.4 214.5-109.8 20.5-10.1 41.1-20 61.7-29.9 1.7-.8.2-3.4-1.5-2.6-72.4 34.7-144.3 70.6-215.5 107.7-20.3 10.6-40.5 21.2-60.7 32-1.7.9-.2 3.5 1.5 2.6z"/><path class="st2" d="M916.3 465.5c18.1 10.3 34.6 23.1 48.9 38.3 1.3 1.4 3.5-.7 2.1-2.1-14.5-15.3-31.2-28.3-49.6-38.7-1.6-1.1-3.1 1.5-1.4 2.5zM604.3 623.6c16.1 8.9 32.1 18 48 27.3 1.7 1 3.2-1.6 1.5-2.6-15.9-9.3-31.9-18.4-48-27.3-1.7-.9-3.2 1.7-1.5 2.6z"/><path class="st2" d="M606.5 621.3c.2-4.2 4.1-6.6 7.7-7.4 3.4-.7 5.2.3 8 1.9 4.5 2.6 9.1 5.2 13.6 7.8 9.1 5.2 18.1 10.4 27.2 15.7 1.7 1 3.2-1.6 1.5-2.6-13.6-7.8-27.2-15.7-40.8-23.5-5.2-3-7.5-3.7-13.2-1.2-4.1 1.8-6.8 4.7-7.1 9.3 0 2 3 1.9 3.1 0z"/><path class="st2" d="M654.4 650.7c2.7-2.6 6.9-2.9 9.3-5.9 1.8-2.3 2.4-5.5.2-7.7-1.4-1.4-3.5.7-2.1 2.1 2.2 2.3-1.6 5-3.4 5.8-2.2 1-4.3 1.8-6.1 3.6-1.4 1.3.8 3.4 2.1 2.1z"/><path class="st2" d="M609.9 617.8c0-.1-.1-.3-.1-.4-.8.2-1.7.4-2.5.7.2.9.4 1.8.5 2.7.7-.3 1.5-.6 2.2-.9-.1-.6-.2-1.3-.3-1.9-.7-.2-1.4-.4-2.1-.5.3.4.7.9 1 1.3.7 3.5 2.4 4.9 5.1 4.1 1.5-.7 2.3-.3 2.4 1.1.6 1.3.9 2.6.9 4.1.8-.4 1.5-.9 2.3-1.3-1-.5-4.2-2.1-4.4-3.3-.4-1.7 2.5.7 3.1 1.3.5.4.9.9 1.3 1.5 1.1 1.1 1.1 1.3-.1.5-1.9-.3-3.8-2.4-5.2-3.6-.4.9-.7 1.7-1.1 2.6 5.2.1 9.3 2.4 12 6.7.6-.7 1.1-1.5 1.7-2.2-3.7-.9-6.5-2.7-9-5.5-.5.8-1 1.7-1.5 2.5 3.9 1.2 7.3 3 10.5 5.6l1.8-2.4c-4.1-2.2-8.2-4.7-12.1-7.3l-1.2 2.7c4.7 1.3 8.7 3.4 12.4 6.5l1.8-2.4c-3.8-2.4-7.6-5-11.2-7.6-1.2-.9-8.4-5.8-2-3.7 2.1.7 4.1 3.6 5.3 5.2.6-.7 1.1-1.5 1.7-2.2-2.4-.4-4.6-1.1-6.7-2.5-3-1.7-2.8-2.2.5-1.5-1.9-.6-3.6-1.6-5.1-2.9l-.3 2.4c1.8-1.4 4.7-.9 5.7 1.3.4-.8.9-1.5 1.3-2.3-1.3-.8-2.7-1.7-4-2.5-.4.8-.9 1.5-1.3 2.3 6 .5 10.7 4.6 12.1 10.4.7-.6 1.5-1.1 2.2-1.7-4.3-2-7.5-4.9-10.1-8.9-.6.7-1.1 1.5-1.7 2.2 6 1.2 10.8 4.9 13.2 10.6.7-.6 1.5-1.1 2.2-1.7-4.5-3.2-8.7-6.8-12.6-10.8-.5.8-1 1.7-1.5 2.5 6.4 1.1 11.6 4.6 14.9 10.3.6-.7 1.1-1.5 1.7-2.2-5.6-2-10.1-5.7-13.2-10.8-.4.8-.9 1.5-1.3 2.3 5.6.3 11.4 1.7 14.3 7 .6-.7 1.1-1.5 1.7-2.2-4.6-1.7-8.6-4-12.5-6.9-.5.9-1 1.7-1.5 2.6 5.8 2.5 10.5 6.2 14.4 11.2l1.8-2.4c-4.9-2.9-9.6-6.1-14-9.6-1.2-.9-3.5.3-2.4 1.8 4 5.4 8.4 10.4 13.2 15.1l1.8-2.4c-5-2.5-9.7-5.4-14.2-8.6-1.6-1.1-3 1.5-1.5 2.6 5.5 4.1 11.4 7.5 17.6 10.3 1.7.8 3.2-1.6 1.5-2.6-3.5-1.9-7-3.9-10.5-5.8-1.4-.8-3.2 1.2-1.8 2.4 4.8 4 10.1 7.1 16 9.3 1.6.6 2.7-2 1.2-2.7-4.1-2.1-8-4.4-11.8-7.2-1.4-1-2.9 1.2-1.8 2.4 4.2 4.4 8.9 7.9 14.3 10.6 1.7.9 3.2-1.6 1.5-2.6-6-3.5-12.1-6.7-18.4-9.6-1.4-.7-3.2 1.2-1.8 2.4 5.3 4.6 11.1 8.3 17.5 11.2 1.7.8 3.1-1.5 1.5-2.6-6.2-4.1-12.4-8.3-18.6-12.4-.5.9-1 1.7-1.5 2.6 7.4 3.8 14.5 8 21.3 12.7 1.4 1 3.1-1.2 1.8-2.4-5.5-5.1-11.3-9.7-17.5-13.9l-1.2 2.7c6.9 2.3 13 5.9 18.5 10.7l2.1-2.1c-5.2-4.1-10.3-8.1-15.5-12.2l-1.8 2.4c6.7 3.3 12.9 7.3 18.7 12l1.8-2.4c-7.2-3.9-13.7-8.7-19.6-14.3l-1.8 2.4c7.1 3 13.6 7 19.4 12l1.8-2.4c-7.1-4.1-13.7-8.8-19.9-14.2-.5.8-1 1.7-1.5 2.5 7 2.7 13.3 6.7 19.6 10.7 1.6 1 3.1-1.5 1.5-2.6-6.1-4-12.2-8.1-18.3-12.1l-1.2 2.7c7.9 2.7 14.5 7.3 19.8 13.7.4-.9.7-1.7 1.1-2.6-1.4.2-2.8.3-4.2.5-1 .1-2 1.2-1.3 2.3 1.7 2.3 3.2 4.7 4.6 7.2.6-.7 1.1-1.5 1.7-2.2-.8-.8-1.6-1.5-2.4-2.3-.9.5-1.7 1-2.6 1.5 1.2 1.5 1.8 3.3 1.9 5.2.6-.5 1.3-1 1.9-1.4-2.2-.6-3.7-1.9-4.6-4-.6.7-1.1 1.5-1.7 2.2 1 .8 2 1.7 3 2.5.5-.6 1-1.3 1.4-1.9-.4.6-.7 1.2-1.1 1.8.8-.2 1.7-.4 2.5-.7-.1-.3-.2-.7-.3-1 .8-.2 1.7-.4 2.5-.7-1.1-.7-1.8-1.7-1.9-3-.8-2.8-.4-2 1.3 2.4.7-.3 1.5-.6 2.2-.9-1-2.8-1.2-2.5-.4.9l1.5-1.5c-1-.5-1.4-1.2-1.4-2.1-.2-1.8-.3-1.2-.2 1.8l2.4-.3c-.7-1.7-.8-1.3-.3 1.3.8-.4 1.5-.9 2.3-1.3-3.4-1.9-5.9-4.3-7.9-7.7-.3.7-.6 1.5-.9 2.2 3.5-.8 8.5 1.8 5.7 5.6-1.4 1.9-4.3 3.7-6.1 5.2-1.2 1 .1 2.8 1.5 2.5 6.1-1.4 11.2-6 10.2-12.6-.3-1.9-3.2-1.1-2.9.8.7 4.9-4 7.9-8.1 8.9.5.8 1 1.7 1.5 2.5 3.3-2.9 10.1-6.2 7.7-11.4-1.8-3.9-6.2-5.4-10.2-4.4-.9.2-1.4 1.4-.9 2.2 2.2 3.8 5.1 6.6 9 8.7 1 .5 2.3-.1 2.3-1.3 0-2.6-1.1-8.5-5.1-6.8-3.7 1.5-1.5 5.7.3 7.6.7.7 1.9.5 2.4-.3 1.2-2.1 2.4-4.8.5-6.9-1.1-1.2-3.2-1.6-4.6-.7-3.4 2.4-1 9.4 3.1 9.4.8 0 1.5-.7 1.5-1.5-.1-2.7-1.8-10.7-6.2-8.3-4.1 2.3-.4 8.2 2.1 10 .8.5 2 0 2.2-.9.6-3.2-.1-10.7-5.5-8.3-4.3 2-1.3 8.1 1 10.2.8.7 2.3.5 2.5-.7.6-3 .2-9-4.6-7.7-4.7 1.3-2 7.7-.1 10 .8 1 2.2.3 2.5-.7 1-3-2.8-8.7-6.2-6-3.9 3.2 1.7 6.1 4.4 6.4 1 .1 1.7-1 1.4-1.9-.8-2.6-2.4-4.1-5.1-4.6-1.3-.2-2.2 1-1.7 2.2 1.3 2.9 3.4 4.6 6.4 5.4.9.2 2-.4 1.9-1.4-.3-2.6-.9-4.5-2.3-6.8-1.1-1.6-3.5-.2-2.6 1.5 1 1.9 2.2 2.9 4.2 3.7 1.3.5 2.3-1.2 1.7-2.2-1.4-2.5-2.9-4.9-4.6-7.2-.4.8-.9 1.5-1.3 2.3 1.4-.2 2.8-.3 4.2-.5 1.3-.1 1.9-1.5 1.1-2.6-5.6-6.8-12.8-11.7-21.1-14.5-1.7-.6-2.5 1.8-1.2 2.7 6.1 4 12.2 8.1 18.3 12.1.5-.9 1-1.7 1.5-2.6-6.5-4.2-13.1-8.2-20.4-11-1.4-.5-2.6 1.6-1.5 2.5 6.4 5.5 13.2 10.4 20.5 14.7 1.4.8 3.1-1.2 1.8-2.4-6-5.2-12.7-9.4-20-12.5-1.4-.6-3.2 1.1-1.8 2.4 6.1 5.8 12.8 10.7 20.2 14.8 1.4.8 3.2-1.2 1.8-2.4-6-4.9-12.4-9-19.3-12.5-1.4-.7-3.2 1.2-1.8 2.4 5.2 4.1 10.3 8.1 15.5 12.2 1.5 1.2 3.6-.8 2.1-2.1-5.8-5.2-12.4-9-19.8-11.5-1.7-.6-2.5 1.8-1.2 2.7 6 4 11.6 8.5 16.9 13.4l1.8-2.4c-6.8-4.7-13.9-8.9-21.3-12.7-1.7-.9-3.1 1.5-1.5 2.6 6.2 4.1 12.4 8.3 18.6 12.4.5-.9 1-1.7 1.5-2.6-6.2-2.8-11.8-6.4-16.9-10.8l-1.8 2.4c6.3 2.9 12.4 6.1 18.4 9.6.5-.9 1-1.7 1.5-2.6-5.2-2.6-9.7-5.9-13.7-10.1l-1.8 2.4c3.7 2.8 7.6 5.1 11.8 7.2l1.2-2.7c-5.4-2.1-10.2-4.9-14.6-8.6l-1.8 2.4c3.5 1.9 7 3.9 10.5 5.8.5-.9 1-1.7 1.5-2.6-6.3-2.8-12.1-6.2-17.6-10.3-.5.9-1 1.7-1.5 2.6 4.5 3.2 9.3 6.1 14.2 8.6 1.5.8 3.1-1.1 1.8-2.4-4.6-4.5-8.9-9.3-12.7-14.5l-2.4 1.8c4.7 3.7 9.5 7 14.7 10.1 1.6.9 2.8-1.1 1.8-2.4-4-5.2-9-9-15-11.6-1.8-.8-3.1 1.4-1.5 2.6 4.1 3.1 8.4 5.4 13.2 7.2 1.3.5 2.3-1.1 1.7-2.2-3.4-6.2-10.2-8.1-16.9-8.5-1.1-.1-1.9 1.3-1.3 2.3 3.6 5.8 8.6 9.8 15 12.2 1.3.5 2.3-1.1 1.7-2.2-3.6-6.3-9.5-10.4-16.7-11.7-1.4-.3-2.6 1.4-1.5 2.5 4 4.2 8.4 7.9 13.2 11.3 1 .7 2.7-.5 2.2-1.7-2.7-6.7-8.1-11.4-15.3-12.7-1.2-.2-2.4 1-1.7 2.2 2.8 4.4 6.4 7.7 11.1 9.9 1.2.6 2.5-.4 2.2-1.7-1.8-7.2-7.7-12-15-12.6-1.2-.1-1.8 1.3-1.3 2.3 1.5 2.7 3.6 3.9 6.6 4 1.2 0 1.8-1.3 1.3-2.3-1.8-3.7-6.5-4.9-9.8-2.3-.7.5-1.1 1.7-.3 2.4 2 1.7 7.6 6.1 10 2.9 2.4-3.1-2.6-6.2-5-6.7-3-.6-5.5.7-4.6 3.9 1.3 4.4 8.3 6.8 12.2 7.5 1.1.2 2.6-1.1 1.7-2.2-2.1-2.7-4.4-5.7-7.8-6.9-2-.7-5.5-.9-6.4 1.6-.9 2.4 1.6 3.9 3.2 5.1 4.8 3.7 9.7 7.1 14.8 10.4 1.4.9 3.1-1.3 1.8-2.4-4.1-3.4-8.6-5.8-13.8-7.2-1.7-.5-2.5 1.8-1.2 2.7 3.9 2.6 7.9 5 12.1 7.3 1.4.8 3.2-1.2 1.8-2.4-3.6-2.9-7.5-5-11.9-6.3-1.5-.5-2.4 1.4-1.5 2.5 2.8 3.2 6.1 5.3 10.3 6.3 1.2.3 2.4-1.1 1.7-2.2-3.3-5.2-8.4-8.1-14.6-8.2-1.3 0-2 1.7-1.1 2.6 1.9 1.8 7.8 7.2 10.7 4.6 2.9-2.7-2.5-7.3-4.2-8.7-1.9-1.4-6-3.3-7.3.1-1.3 3.5 4.4 7 6.7 8.3.9.5 2.4-.1 2.3-1.3-.5-3.8-1.3-8.2-5.2-9.9-2.6-1.1-5.6-.2-6.7 2.5-2.4 5.7 7.1 8.4 6.7 1.7-.2-2.7-1.7-5.2-4.5-5.6-2.4-.3-4.8 1.2-4.6 3.8.2 2.2 2.6 4.2 4.8 3.1 3.3-1.8 1.2-5.7-.3-7.7-.5-.6-1.3-1-2.1-.5-2.8 1.7-2.8 5.7.3 7.1.9.4 1.9.1 2.2-.9.6-2.3.2-3.8-1.3-5.6-.7-.9-2.2-.3-2.5.7-.4 1.3-.4 1.6.4 2.7 1.8 1.5 4.5 0 3.3-1.5zM692.8 578.6c16.1 8.9 32.1 18 48 27.3 1.7 1 3.2-1.6 1.5-2.6-15.9-9.3-31.9-18.4-48-27.3-1.7-.9-3.2 1.6-1.5 2.6z"/><path class="st2" d="M695 576.3c.2-4.2 4.1-6.6 7.7-7.4 3.4-.7 5.2.3 8 1.9 4.5 2.6 9.1 5.2 13.6 7.8 9.1 5.2 18.1 10.4 27.2 15.7 1.7 1 3.2-1.6 1.5-2.6-13.6-7.8-27.2-15.7-40.8-23.5-5.2-3-7.5-3.7-13.2-1.2-4.1 1.8-6.8 4.7-7.1 9.3 0 1.9 3 1.9 3.1 0z"/><path class="st2" d="M742.9 605.6c2.7-2.6 6.9-2.9 9.3-5.9 1.8-2.3 2.4-5.5.2-7.7-1.4-1.4-3.5.7-2.1 2.1 2.2 2.3-1.6 5-3.4 5.8-2.2 1-4.3 1.8-6.1 3.6-1.4 1.4.8 3.5 2.1 2.1z"/><path class="st2" d="M698.4 572.7c0-.1-.1-.3-.1-.4-.8.2-1.7.4-2.5.7.2.9.4 1.8.5 2.7.7-.3 1.5-.6 2.2-.9-.1-.6-.2-1.3-.3-1.9-.6-.1-1.2-.2-1.8-.2.3 1 .6 2 1 2.9 1.2 2.3 2.8 3.1 4.9 2.3 1.5-.8 2.3-.5 2.4 1 .6 1.3.9 2.6.9 4.1.8-.4 1.5-.9 2.3-1.3-1.4-.8-3.6-1.9-4.4-3.3-1.5-2.5 1.8.1 2.7.9.6.5 1.1 1 1.5 1.7 1.2 1.2 1.3 1.4 0 .6-1.9-.2-3.9-2.5-5.2-3.6-.4.9-.7 1.7-1.1 2.6 5.2.1 9.3 2.4 12 6.7.6-.7 1.1-1.5 1.7-2.2-3.7-.9-6.5-2.7-9-5.5-.5.8-1 1.7-1.5 2.5 3.9 1.2 7.3 3 10.5 5.6l1.8-2.4c-4.1-2.2-8.2-4.7-12.1-7.3l-1.2 2.7c4.7 1.3 8.7 3.4 12.4 6.5l1.8-2.4c-3.8-2.4-7.6-5-11.2-7.6-1.2-.9-8.4-5.8-2-3.7 2.1.7 4.1 3.6 5.3 5.2.6-.7 1.1-1.5 1.7-2.2-2.4-.4-4.6-1.1-6.7-2.5-3-1.7-2.8-2.2.5-1.5-1.9-.6-3.6-1.6-5.1-2.9l-.3 2.4c1.8-1.4 4.7-.9 5.7 1.3.4-.8.9-1.5 1.3-2.3-1.3-.8-2.7-1.7-4-2.5-.4.8-.9 1.5-1.3 2.3 6 .5 10.7 4.6 12.1 10.4.7-.6 1.5-1.1 2.2-1.7-4.3-2-7.5-4.9-10.1-8.9-.6.7-1.1 1.5-1.7 2.2 6 1.2 10.8 4.9 13.2 10.6.7-.6 1.5-1.1 2.2-1.7-4.5-3.2-8.7-6.8-12.6-10.8-.5.8-1 1.7-1.5 2.5 6.4 1.1 11.6 4.6 14.9 10.3.6-.7 1.1-1.5 1.7-2.2-5.6-2-10.1-5.7-13.2-10.8-.4.8-.9 1.5-1.3 2.3 5.6.3 11.4 1.7 14.3 7 .6-.7 1.1-1.5 1.7-2.2-4.6-1.7-8.6-4-12.5-6.9-.5.9-1 1.7-1.5 2.6 5.8 2.5 10.5 6.2 14.4 11.2l1.8-2.4c-4.9-2.9-9.6-6.1-14-9.6-1.2-.9-3.5.3-2.4 1.8 4 5.4 8.4 10.4 13.2 15.1l1.8-2.4c-5-2.5-9.7-5.4-14.2-8.6-1.6-1.1-3 1.5-1.5 2.6 5.5 4.1 11.4 7.5 17.6 10.3 1.7.8 3.2-1.6 1.5-2.6-3.5-1.9-7-3.9-10.5-5.8-1.4-.8-3.2 1.2-1.8 2.4 4.8 4 10.1 7.1 16 9.3 1.6.6 2.7-2 1.2-2.7-4.1-2.1-8-4.4-11.8-7.2-1.4-1-2.9 1.2-1.8 2.4 4.2 4.4 8.9 7.9 14.3 10.6 1.7.9 3.2-1.6 1.5-2.6-6-3.5-12.1-6.7-18.4-9.6-1.4-.7-3.2 1.2-1.8 2.4 5.3 4.6 11.1 8.3 17.5 11.2 1.7.8 3.1-1.5 1.5-2.6-6.2-4.1-12.4-8.3-18.6-12.4-.5.9-1 1.7-1.5 2.6 7.4 3.8 14.5 8 21.3 12.7 1.4 1 3.1-1.2 1.8-2.4-5.5-5.1-11.3-9.7-17.5-13.9L718 586c6.9 2.3 13 5.9 18.5 10.7l2.1-2.1c-5.2-4.1-10.3-8.1-15.5-12.2l-1.8 2.4c6.7 3.3 12.9 7.3 18.7 12l1.8-2.4c-7.2-3.9-13.7-8.7-19.6-14.3l-1.8 2.4c7.1 3 13.6 7 19.4 12l1.8-2.4c-7.1-4.1-13.7-8.8-19.9-14.2-.5.8-1 1.7-1.5 2.5 7 2.7 13.3 6.7 19.6 10.7 1.6 1 3.1-1.5 1.5-2.6-6.1-4-12.2-8.1-18.3-12.1l-1.2 2.7c7.9 2.7 14.5 7.3 19.8 13.7.4-.9.7-1.7 1.1-2.6-1.4.2-2.8.3-4.2.5-1 .1-2 1.2-1.3 2.3 1.7 2.3 3.2 4.7 4.6 7.2.6-.7 1.1-1.5 1.7-2.2-.8-.8-1.6-1.5-2.4-2.3-.9.5-1.7 1-2.6 1.5 1.2 1.5 1.8 3.3 1.9 5.2.6-.5 1.3-1 1.9-1.4-2.2-.6-3.7-1.9-4.6-4-.6.7-1.1 1.5-1.7 2.2 1 .8 2 1.7 3 2.5.5-.6 1-1.3 1.4-1.9-.4.6-.7 1.2-1.1 1.8.8-.2 1.7-.4 2.5-.7-4.1-5.2.5-5-.3-1 .8-.2 1.7-.4 2.5-.7-1.5-1.1-2.2-2.6-2.3-4.5 1.8 1 2.3 2.3 1.7 3.9.7-.3 1.5-.6 2.2-.9-1-2.8-1.2-2.5-.4.9l1.5-1.5c-1.2-.7-1.7-1.7-1.5-3.1.8 1 .8 1.9-.1 2.7l2.4-.3c-.7-1.7-.8-1.3-.3 1.3.8-.4 1.5-.9 2.3-1.3-3.4-1.9-5.9-4.3-7.9-7.7-.3.7-.6 1.5-.9 2.2 3.5-.8 8.5 1.8 5.7 5.6-1.4 1.9-4.3 3.7-6.1 5.2-1.2 1 .1 2.8 1.5 2.5 6.1-1.4 11.2-6 10.2-12.6-.3-1.9-3.2-1.1-2.9.8.7 4.9-4 7.9-8.1 8.9.5.8 1 1.7 1.5 2.5 3.3-2.9 10.1-6.2 7.7-11.4-1.8-3.9-6.2-5.4-10.2-4.4-.9.2-1.4 1.4-.9 2.2 2.2 3.8 5.1 6.6 9 8.7 1 .5 2.3-.1 2.3-1.3 0-2.7-.8-7.6-4.5-7.1-4.5.6-2.1 5.9-.2 7.9.7.7 1.9.5 2.4-.3 1.3-2.1 2.2-4.4.7-6.7-1.2-1.9-3.4-2.3-5.1-.7-3 2.7-.6 9.2 3.4 9.2.8 0 1.5-.7 1.5-1.5-.1-2.7-1.8-10.7-6.2-8.3-4.1 2.3-.4 8.2 2.1 10 .8.6 2 0 2.2-.9.7-3.2.2-10.3-5-8.5-4.8 1.7-2 8.1.6 10.4.8.7 2.3.5 2.5-.7.6-3.1-.3-10.1-5.2-7.5-3.8 2-1.5 7.3.5 9.8.8 1 2.2.3 2.5-.7 1.5-4.3-3.7-8.4-7.1-5.1-.4.4-.5 1-.4 1.5.9 2.9 2.7 3.8 5.7 4 1 .1 1.7-1 1.4-1.9-.8-2.6-2.4-4.1-5.1-4.6-1.3-.2-2.2 1-1.7 2.2 1.3 2.9 3.4 4.6 6.4 5.4.9.2 2-.4 1.9-1.4-.3-2.6-.9-4.5-2.3-6.8-1.1-1.6-3.5-.2-2.6 1.5 1 1.9 2.2 2.9 4.2 3.7 1.3.5 2.3-1.2 1.7-2.2-1.4-2.5-2.9-4.9-4.6-7.2-.4.8-.9 1.5-1.3 2.3 1.4-.2 2.8-.3 4.2-.5 1.3-.1 1.9-1.5 1.1-2.6-5.6-6.8-12.8-11.7-21.1-14.5-1.7-.6-2.5 1.8-1.2 2.7 6.1 4 12.2 8.1 18.3 12.1.5-.9 1-1.7 1.5-2.6-6.5-4.2-13.1-8.2-20.4-11-1.4-.5-2.6 1.6-1.5 2.5 6.4 5.5 13.2 10.4 20.5 14.7 1.4.8 3.1-1.2 1.8-2.4-6-5.2-12.7-9.4-20-12.5-1.4-.6-3.2 1.1-1.8 2.4 6.1 5.8 12.8 10.7 20.2 14.8 1.4.8 3.2-1.2 1.8-2.4-6-4.9-12.4-9-19.3-12.5-1.4-.7-3.2 1.2-1.8 2.4 5.2 4.1 10.3 8.1 15.5 12.2 1.5 1.2 3.6-.8 2.1-2.1-5.8-5.2-12.4-9-19.8-11.5-1.7-.6-2.5 1.8-1.2 2.7 6 4 11.6 8.5 16.9 13.4l1.8-2.4c-6.8-4.7-13.9-8.9-21.3-12.7-1.7-.9-3.1 1.5-1.5 2.6 6.2 4.1 12.4 8.3 18.6 12.4.5-.9 1-1.7 1.5-2.6-6.2-2.8-11.8-6.4-16.9-10.8l-1.8 2.4c6.3 2.9 12.4 6.1 18.4 9.6.5-.9 1-1.7 1.5-2.6-5.2-2.6-9.7-5.9-13.7-10.1l-1.8 2.4c3.7 2.8 7.6 5.1 11.8 7.2l1.2-2.7c-5.4-2.1-10.2-4.9-14.6-8.6l-1.8 2.4c3.5 1.9 7 3.9 10.5 5.8.5-.9 1-1.7 1.5-2.6-6.3-2.8-12.1-6.2-17.6-10.3-.5.9-1 1.7-1.5 2.6 4.5 3.2 9.3 6.1 14.2 8.6 1.5.8 3.1-1.1 1.8-2.4-4.6-4.5-8.9-9.3-12.7-14.5l-2.4 1.8c4.7 3.7 9.5 7 14.7 10.1 1.6.9 2.8-1.1 1.8-2.4-4-5.2-9-9-15-11.6-1.8-.8-3.1 1.4-1.5 2.6 4.1 3.1 8.4 5.4 13.2 7.2 1.3.5 2.3-1.1 1.7-2.2-3.4-6.2-10.2-8.1-16.9-8.5-1.1-.1-1.9 1.3-1.3 2.3 3.6 5.8 8.6 9.8 15 12.2 1.3.5 2.3-1.1 1.7-2.2-3.6-6.3-9.5-10.4-16.7-11.7-1.4-.3-2.6 1.4-1.5 2.5 4 4.2 8.4 7.9 13.2 11.3 1 .7 2.7-.5 2.2-1.7-2.7-6.7-8.1-11.4-15.3-12.7-1.2-.2-2.4 1-1.7 2.2 2.8 4.4 6.4 7.7 11.1 9.9 1.2.6 2.5-.4 2.2-1.7-1.8-7.2-7.7-12-15-12.6-1.2-.1-1.8 1.3-1.3 2.3 1.5 2.7 3.6 3.9 6.6 4 1.2 0 1.8-1.3 1.3-2.3-1.8-3.7-6.5-4.9-9.8-2.3-.7.5-1.1 1.7-.3 2.4 2 1.7 7.6 6.1 10 2.9 2.4-3.1-2.6-6.2-5-6.7-3-.6-5.5.7-4.6 3.9 1.3 4.4 8.3 6.8 12.2 7.5 1.1.2 2.6-1.1 1.7-2.2-2.1-2.7-4.4-5.7-7.8-6.9-2-.7-5.5-.9-6.4 1.6-.9 2.4 1.6 3.9 3.2 5.1 4.8 3.7 9.7 7.1 14.8 10.4 1.4.9 3.1-1.3 1.8-2.4-4.1-3.4-8.6-5.8-13.8-7.2-1.7-.5-2.5 1.8-1.2 2.7 3.9 2.6 7.9 5 12.1 7.3 1.4.8 3.2-1.2 1.8-2.4-3.6-2.9-7.5-5-11.9-6.3-1.5-.5-2.4 1.4-1.5 2.5 2.8 3.2 6.1 5.3 10.3 6.3 1.2.3 2.4-1.1 1.7-2.2-3.3-5.2-8.4-8.1-14.6-8.2-1.3 0-2 1.7-1.1 2.6 1.8 1.7 8.3 7.5 10.9 4.3 3.1-3.8-5.7-9.3-8-10.6-.4-.2-1.1-.3-1.5 0-5.3 3.8.6 8.4 4.6 10.5.9.5 2.4-.1 2.3-1.3-.5-4.1-1.6-9.3-6.4-10.2-3-.6-5.8 1.1-5.9 4.3-.3 5.9 9.5 5.4 6.7-2-2.2-5.6-11.2-3.2-8.1 2 1 1.7 3 2.3 4.6 1.2 3-2 .7-5.7-.9-7.8-.4-.5-1.3-.5-1.8-.2-2.8 1.7-2.8 5.7.3 7.1.9.4 1.9.1 2.2-.9.6-2.3.2-3.8-1.3-5.6-.7-.9-2.2-.3-2.5.7-.4 1.3-.4 1.6.4 2.7 1.4 2 4.1.5 2.9-1.1zM785.9 530.8c16.1 8.9 32.1 18 48 27.3 1.7 1 3.2-1.6 1.5-2.6-15.9-9.3-31.9-18.4-48-27.3-1.7-.9-3.2 1.7-1.5 2.6z"/><path class="st2" d="M788.1 528.5c.2-4.2 4.1-6.6 7.7-7.4 3.4-.7 5.2.3 8 1.9 4.5 2.6 9.1 5.2 13.6 7.8 9.1 5.2 18.1 10.4 27.2 15.7 1.7 1 3.2-1.6 1.5-2.6-13.6-7.8-27.2-15.7-40.8-23.5-5.2-3-7.5-3.7-13.2-1.2-4.1 1.8-6.8 4.7-7.1 9.3 0 1.9 3 1.9 3.1 0z"/><path class="st2" d="M836.1 557.9c2.7-2.6 6.9-2.9 9.3-5.9 1.8-2.3 2.4-5.5.2-7.7-1.4-1.4-3.5.7-2.1 2.1 2.2 2.3-1.6 5-3.4 5.8-2.2 1-4.3 1.8-6.1 3.6-1.4 1.3.7 3.4 2.1 2.1z"/><path class="st2" d="M791.5 525c0-.1-.1-.3-.1-.4-.8.2-1.7.4-2.5.7.2.9.4 1.8.5 2.7.7-.3 1.5-.6 2.2-.9.7 3.5 2.4 4.1 5 1.9.2 2.2 1.2 3.6 3.1 4.2-.5-.2-4.5-3.1-2.4-3.3.3 0 4.7 3.9 4.4 4.4-.4.7-4.9-4.5-5.7-2.6-.5.4-1 .7-1.4 1.1 2.5.1 4.7.5 6.9 1.7.2.1 4.8 4 5.1 3.5.6-.2 1.1-.5 1.7-.7-3.7-.9-6.5-2.7-9-5.5.1.6.2 1.2.2 1.8-.6.2-1.1.5-1.7.7 3.9 1.2 7.3 3 10.5 5.6l1.8-2.4c-4.1-2.2-8.2-4.7-12.1-7.3l-1.2 2.7c4.7 1.3 8.7 3.4 12.4 6.5l1.8-2.4c-3.8-2.4-7.6-5-11.2-7.6-1.2-.9-8.4-5.8-2-3.7.4.1 4.9 4.4 5.3 3.7.6-.2 1.1-.5 1.7-.7-.8-.1-9.4-2.6-8.8-4.2.3-.7 4.8.9-.1-1-2.4-.1-2.5-.1-.1 0 1.6-.4 2.6.2 3.2 1.8.4-.8.9-1.5 1.3-2.3-1 0-2 .1-3 .1.4.1.9.3 1.3.4 1.4.8 2.8 1.3 4 2.3 1.2 1 4.7 4.6 4 6.3-1.1 2.6-6.1 0-7.1-1.2-1.6-1.9-1.7-4.7-.3-6.8-.6.2-1.1.5-1.7.7 6 1.2 10.8 4.9 13.2 10.6.2-.6.5-1.1.7-1.7-6.1 4.7-14.4-2.1-10.8-9-.6.2-1.1.5-1.7.7 6.4 1.1 11.6 4.6 14.9 10.3.1-.6.2-1.2.2-1.8-4.4 5.2-13.9 2.4-13.6-4.9 0-.7.6-3.8 1.5-4.3.2-.1 3 .6 3.9.8 3.9.9 7.4 2.7 9.4 6.4.1-.6.2-1.2.2-1.8.9-1-4.7-3.1-5.6-3.6-1.9-1.1-3.7-2.3-5.4-3.7-.5.9-1 1.7-1.5 2.6 5.8 2.5 10.5 6.2 14.4 11.2v-2.1c.6-.1 1.2-.2 1.8-.2-4.9-2.9-9.6-6.1-14-9.6-.6-.5-1.5-.6-2.1 0-.4.4-.6 1.3-.2 1.8 4 5.4 8.4 10.4 13.2 15.1-.1-.6-.2-1.2-.2-1.8.7-.2 1.4-.4 2.1-.5-5-2.5-9.7-5.4-14.2-8.6-1.6-1.1-3 1.5-1.5 2.6 5.5 4.1 11.4 7.5 17.6 10.3 1.7.8 3.2-1.6 1.5-2.6-3.5-1.9-7-3.9-10.5-5.8-1.4-.8-3.2 1.2-1.8 2.4 4.8 4 10.1 7.1 16 9.3 1.6.6 2.7-2 1.2-2.7-4.1-2.1-8-4.4-11.8-7.2-1.4-1-2.9 1.2-1.8 2.4 4.2 4.4 8.9 7.9 14.3 10.6 1.7.9 3.2-1.6 1.5-2.6-6-3.5-12.1-6.7-18.4-9.6-.8-.4-1.6-.2-2.1.5-.3.5-.2 1.4.2 1.8 5.3 4.6 11.1 8.3 17.5 11.2 1.7.8 3.1-1.5 1.5-2.6-6.2-4.1-12.4-8.3-18.6-12.4-.5.9-1 1.7-1.5 2.6 7.4 3.8 14.5 8 21.3 12.7.5.3 1.4.3 1.8-.2.5-.6.6-1.5 0-2.1-5.5-5.1-11.3-9.7-17.5-13.9.2.7.4 1.4.5 2.1-.6.2-1.1.5-1.7.7 6.9 2.3 13 5.9 18.5 10.7l2.1-2.1c-5.2-4.1-10.3-8.1-15.5-12.2l-1.8 2.4c6.7 3.3 12.9 7.3 18.7 12l1.8-2.4c-7.2-3.9-13.7-8.7-19.6-14.3.1.6.2 1.2.2 1.8-.7.2-1.4.4-2.1.5 7.1 3 13.6 7 19.4 12l1.8-2.4c-7.1-4.1-13.7-8.8-19.9-14.2.1.6.2 1.2.2 1.8-.6.2-1.1.5-1.7.7 7 2.7 13.3 6.7 19.6 10.7 1.6 1 3.1-1.5 1.5-2.6-6.1-4-12.2-8.1-18.3-12.1l-1.2 2.7c3.9 1.3 7.5 3.1 10.9 5.4 1.6 1.1 3.2 2.4 4.6 3.7.4.4 3.5 4.1 3.9 3.2.5-.4 1-.7 1.4-1.1-1.4.2-4.4-.1-5.4 1.1-1.4 1.7 3.7 7.5 4.5 8.9.6-.7 1.1-1.5 1.7-2.2-.8-.8-1.6-1.5-2.4-2.3-.9.5-1.7 1-2.6 1.5.7 1 1.3 2 1.8 3.1-1.3-.8-2.2-1.9-2.6-3.3-.6.7-1.1 1.5-1.7 2.2 1.1.8 2.3 1.6 3.4 2.4.8-.2 1.7-.4 2.5-.7.9-1.6 1-3.2.3-4.7-.9-2-.4-2.1 1.7-.1.3 0 1.3-.2 1.6-.2-.7-2-.5-2.4.6-1.1.7.5 1.3 1.1 1.8 1.7h-4.5c-1.9-1.1-2.6-2.5-2.1-4.3.7-2.8-.7-1.3 1.3-1.4 2.2-.2 4.8 1.9 4.5 4.1-.3 2.6-4.9 5.4-6.9 7.1-1.2 1 .1 2.8 1.5 2.5 6.1-1.4 11.2-6 10.2-12.6-.3-1.9-3.2-1.1-2.9.8.7 4.9-4 7.9-8.1 8.9.5.8 1 1.7 1.5 2.5 3.5-3 10.6-6.5 7.4-12-1.6-2.7-7-6.1-10.2-3.8-2.6 1.9-1.8 6.5-.1 8.8 2.3 3.1 6.6 4 9.9 2.1.5-.3.7-.8.7-1.3 0-2.6-1.5-9.1-5.6-6.6-2.7 1.6-1.5 7.2 1.5 7.9 3 .7 3.7-5.5 2.5-7.2-1.8-2.7-5.4-1.9-6.2 1-.7 2.4 1.1 8.7 4.8 7.2 3-1.2-.1-8.2-1.8-9.5-3.2-2.4-5.3 1.5-4.8 4.4.3 1.9 3.4 7.5 5.8 4.8 2.7-3.1-.6-10.4-5-8.8-4.7 1.7-1.6 8.2.8 10.4.4.3.9.6 1.5.4 3.4-1.2 1.2-8.1-1.8-8.8-6.3-1.4-3.9 7.5-1.9 10.1.8 1 2.2.3 2.5-.7.9-2.7-1.1-6.4-4.2-6.6-2.7-.2-3.9 2.9-2.5 5 1 1.5 4.9 3.2 6.2 1.3 1.8-2.6-3.2-5.4-5-5.8-1.3-.2-2.2 1-1.7 2.2.9 2 4.6 6.7 7.4 5.3 2.6-1.4-.4-6.6-1.4-8.1-1.1-1.6-3.5-.2-2.6 1.5 1 1.9 2.2 2.9 4.2 3.7 1.3.5 2.3-1.2 1.7-2.2-.7-1.3-1.6-3.4-2.6-4.4-.3-.5-.6-1-1-1.4-2.2.7-2.8.9-1.7.8.9.3 2.8-.3 3.7-.4.7-.1 1.2-.4 1.4-1.1.2-.5-.1-1.1-.4-1.5-5.6-6.8-12.8-11.7-21.1-14.5-1.7-.6-2.5 1.8-1.2 2.7 6.1 4 12.2 8.1 18.3 12.1.5-.9 1-1.7 1.5-2.6-6.5-4.2-13.1-8.2-20.4-11-.6-.2-1.4.2-1.7.7-.3.5-.3 1.4.2 1.8 6.4 5.5 13.2 10.4 20.5 14.7 1.4.8 3.1-1.2 1.8-2.4-6-5.2-12.7-9.4-20-12.5-.8-.3-1.6-.2-2.1.5-.4.5-.2 1.4.2 1.8 6.1 5.8 12.8 10.7 20.2 14.8 1.4.8 3.2-1.2 1.8-2.4-6-4.9-12.4-9-19.3-12.5-1.4-.7-3.2 1.2-1.8 2.4 5.2 4.1 10.3 8.1 15.5 12.2 1.5 1.2 3.6-.8 2.1-2.1-5.8-5.2-12.4-9-19.8-11.5-.6-.2-1.4.1-1.7.7-.4.8-.2 1.6.5 2.1 6 4 11.6 8.5 16.9 13.4v-2.1c.6-.1 1.2-.2 1.8-.2-6.8-4.7-13.9-8.9-21.3-12.7-1.7-.9-3.1 1.5-1.5 2.6 6.2 4.1 12.4 8.3 18.6 12.4.5-.9 1-1.7 1.5-2.6-6.2-2.8-11.8-6.4-16.9-10.8.1.6.2 1.2.2 1.8-.7.2-1.4.4-2.1.5 6.3 2.9 12.4 6.1 18.4 9.6.5-.9 1-1.7 1.5-2.6-5.2-2.6-9.7-5.9-13.7-10.1l-1.8 2.4c3.7 2.8 7.6 5.1 11.8 7.2l1.2-2.7c-5.4-2.1-10.2-4.9-14.6-8.6l-1.8 2.4c3.5 1.9 7 3.9 10.5 5.8.5-.9 1-1.7 1.5-2.6-6.3-2.8-12.1-6.2-17.6-10.3-.5.9-1 1.7-1.5 2.6 4.5 3.2 9.3 6.1 14.2 8.6.8.4 1.6.2 2.1-.5.4-.5.2-1.4-.2-1.8-4.6-4.5-8.9-9.3-12.7-14.5-.1.6-.2 1.2-.2 1.8h-2.1c4.7 3.7 9.5 7 14.7 10.1.5.3 1.4.3 1.8-.2.6-.7.5-1.4 0-2.1-4-5.2-9-9-15-11.6-1.8-.8-3.1 1.4-1.5 2.6 4.1 3.1 8.4 5.4 13.2 7.2.5.2 1.1 0 1.5-.4.5-.5.6-1.2.2-1.8-3.4-6.2-10.2-8.1-16.9-8.5-.5 0-1 .3-1.3.7-3 5-3 10.8 1.9 14.7 4.5 3.5 10.9 3 14.6-1.4.4-.5.6-1.2.2-1.8-3.6-6.3-9.5-10.4-16.7-11.7-.6-.1-1.4.1-1.7.7-4.8 9.3 6.2 19.8 14.9 13.1.5-.4 1-1 .7-1.7-2.7-6.7-8.1-11.4-15.3-12.7-.7-.1-1.3.1-1.7.7-5.7 8.4 5.5 17.3 13 11.2.4-.3.5-1 .4-1.5-1.1-4.4-3.8-8.2-7.8-10.5-1.7-1-7-3.6-8.5-1.4-.3.4-.2 1.1 0 1.5 1.5 2.7 3.6 3.9 6.6 4 1.2 0 1.8-1.3 1.3-2.3-1-2.1-2.9-3.5-5.2-3.7-1.6-.2-4.8.4-5.3 2.3-.8 3.1 8.6 7.5 10.6 4 2.4-4.2-6.7-8.7-9.5-5.5-4.3 5 8.9 10.1 11.8 10.6.7.1 1.3-.1 1.7-.7.3-.4.3-1.1 0-1.5-2.1-2.7-4.4-5.7-7.8-6.9-2-.7-5.5-.9-6.4 1.6-.9 2.4 1.6 3.9 3.2 5.1 4.8 3.7 9.7 7.1 14.8 10.4 1.4.9 3.1-1.3 1.8-2.4-4.1-3.4-8.6-5.8-13.8-7.2-1.7-.5-2.5 1.8-1.2 2.7 3.9 2.6 7.9 5 12.1 7.3 1.4.8 3.2-1.2 1.8-2.4-3.6-2.9-7.5-5-11.9-6.3-.7-.2-1.3.1-1.7.7-.4.6-.2 1.3.2 1.8 2.8 3.2 6.1 5.3 10.3 6.3.7.2 1.3-.1 1.7-.7.3-.4.3-1.1 0-1.5-3.3-5.2-8.4-8.1-14.6-8.2-.7 0-1.2.5-1.4 1.1-.2.5 0 1.1.4 1.5 2 1.8 7.6 7 10.5 4.7 3.2-2.5-2.1-7.2-3.8-8.6-1.9-1.5-5.4-3.8-7.2-.8-2.2 3.7 4 7.6 6.5 8.9.4.2 1.1.3 1.5 0 .4-.3.8-.8.7-1.3-.5-4.2-2.2-11.1-8-10.4-3.3.4-5.7 4.5-3.5 7.3 1.5 1.9 4.9 1.9 6.1-.2 2-3.6-2-8.6-5.8-7.9-8 1.5 1.3 11.8 3.3 4.5.6-2.3-1.5-7.2-4.4-5.8-2.9 1.4-1.9 5.8.6 6.9.9.4 1.9.1 2.2-.9.6-2.3.2-3.8-1.3-5.6-.7-.9-2.2-.3-2.5.7-.4 1.3-.4 1.6.4 2.7 1.8 1.5 4.4 0 3.2-1.5zM874.9 486.4c16.1 8.9 32.1 18 48 27.3 1.7 1 3.2-1.6 1.5-2.6-15.9-9.3-31.9-18.4-48-27.3-1.6-.9-3.2 1.7-1.5 2.6z"/><path class="st2" d="M877.2 484.1c.2-4.2 4.1-6.6 7.7-7.4 3.4-.7 5.2.3 8 1.9 4.5 2.6 9.1 5.2 13.6 7.8 9.1 5.2 18.1 10.4 27.2 15.7 1.7 1 3.2-1.6 1.5-2.6-13.6-7.8-27.2-15.7-40.8-23.5-5.2-3-7.5-3.7-13.2-1.2-4.1 1.8-6.8 4.7-7.1 9.3 0 2 3 1.9 3.1 0z"/><path class="st2" d="M925.1 513.5c2.7-2.6 6.9-2.9 9.3-5.9 1.8-2.3 2.4-5.5.2-7.7-1.4-1.4-3.5.7-2.1 2.1 2.2 2.3-1.6 5-3.4 5.8-2.2 1-4.3 1.8-6.1 3.6-1.4 1.3.7 3.4 2.1 2.1z"/><path class="st2" d="M880.6 480.6c0-.1-.1-.3-.1-.4-.8.2-1.7.4-2.5.7.2.9.4 1.8.5 2.7.7-.3 1.5-.6 2.2-.9-.1-.6-.2-1.3-.3-1.9-.7-.2-1.4-.4-2.1-.5.3.4.7.9 1 1.3.7 3.5 2.4 4.9 5.1 4.1 1.5-.7 2.3-.3 2.4 1.1.6 1.3.9 2.6.9 4.1.8-.4 1.5-.9 2.3-1.3-1-.5-4.2-2.1-4.4-3.3-.4-1.7 2.5.7 3.1 1.3.5.4.9.9 1.3 1.5 1.1 1.1 1.1 1.3-.1.5-1.9-.3-3.8-2.4-5.2-3.6-.4.9-.7 1.7-1.1 2.6 5.2.1 9.3 2.4 12 6.7.6-.7 1.1-1.5 1.7-2.2-3.7-.9-6.5-2.7-9-5.5-.5.8-1 1.7-1.5 2.5 3.9 1.2 7.3 3 10.5 5.6l1.8-2.4c-4.1-2.2-8.2-4.7-12.1-7.3l-1.2 2.7c4.7 1.3 8.7 3.4 12.4 6.5l1.8-2.4c-3.8-2.4-7.6-5-11.2-7.6-1.2-.9-8.4-5.8-2-3.7 2.1.7 4.1 3.6 5.3 5.2.6-.7 1.1-1.5 1.7-2.2-2.4-.4-4.6-1.1-6.7-2.5-3-1.7-2.8-2.2.5-1.5-1.9-.6-3.6-1.6-5.1-2.9l-.3 2.4c1.8-1.4 4.7-.9 5.7 1.3.4-.8.9-1.5 1.3-2.3-1.3-.8-2.7-1.7-4-2.5-.4.8-.9 1.5-1.3 2.3 6 .5 10.7 4.6 12.1 10.4.7-.6 1.5-1.1 2.2-1.7-4.3-2-7.5-4.9-10.1-8.9-.6.7-1.1 1.5-1.7 2.2 6 1.2 10.8 4.9 13.2 10.6.7-.6 1.5-1.1 2.2-1.7-4.5-3.2-8.7-6.8-12.6-10.8-.5.8-1 1.7-1.5 2.5 6.4 1.1 11.6 4.6 14.9 10.3.6-.7 1.1-1.5 1.7-2.2-5.6-2-10.1-5.7-13.2-10.8-.4.8-.9 1.5-1.3 2.3 5.6.3 11.4 1.7 14.3 7 .6-.7 1.1-1.5 1.7-2.2-4.6-1.7-8.6-4-12.5-6.9-.5.9-1 1.7-1.5 2.6 5.8 2.5 10.5 6.2 14.4 11.2l1.8-2.4c-4.9-2.9-9.6-6.1-14-9.6-1.2-.9-3.5.3-2.4 1.8 4 5.4 8.4 10.4 13.2 15.1l1.8-2.4c-5-2.5-9.7-5.4-14.2-8.6-1.6-1.1-3 1.5-1.5 2.6 5.5 4.1 11.4 7.5 17.6 10.3 1.7.8 3.2-1.6 1.5-2.6-3.5-1.9-7-3.9-10.5-5.8-1.4-.8-3.2 1.2-1.8 2.4 4.8 4 10.1 7.1 16 9.3 1.6.6 2.7-2 1.2-2.7-4.1-2.1-8-4.4-11.8-7.2-1.4-1-2.9 1.2-1.8 2.4 4.2 4.4 8.9 7.9 14.3 10.6 1.7.9 3.2-1.6 1.5-2.6-6-3.5-12.1-6.7-18.4-9.6-1.4-.7-3.2 1.2-1.8 2.4 5.3 4.6 11.1 8.3 17.5 11.2 1.7.8 3.1-1.5 1.5-2.6-6.2-4.1-12.4-8.3-18.6-12.4-.5.9-1 1.7-1.5 2.6 7.4 3.8 14.5 8 21.3 12.7 1.4 1 3.1-1.2 1.8-2.4-5.5-5.1-11.3-9.7-17.5-13.9l-1.2 2.7c6.9 2.3 13 5.9 18.5 10.7l2.1-2.1c-5.2-4.1-10.3-8.1-15.5-12.2l-1.8 2.4c6.7 3.3 12.9 7.3 18.7 12l1.8-2.4c-7.2-3.9-13.7-8.7-19.6-14.3l-1.8 2.4c7.1 3 13.6 7 19.4 12l1.8-2.4c-7.1-4.1-13.7-8.8-19.9-14.2-.5.8-1 1.7-1.5 2.5 7 2.7 13.3 6.7 19.6 10.7 1.6 1 3.1-1.5 1.5-2.6-6.1-4-12.2-8.1-18.3-12.1l-1.2 2.7c7.9 2.7 14.5 7.3 19.8 13.7.4-.9.7-1.7 1.1-2.6-1.4.2-2.8.3-4.2.5-1 .1-2 1.2-1.3 2.3 1.7 2.3 3.2 4.7 4.6 7.2.6-.7 1.1-1.5 1.7-2.2-.8-.8-1.6-1.5-2.4-2.3-.9.5-1.7 1-2.6 1.5 1.2 1.5 1.8 3.3 1.9 5.2.6-.5 1.3-1 1.9-1.4-2.2-.6-3.7-1.9-4.6-4-.6.7-1.1 1.5-1.7 2.2 1 .8 2 1.7 3 2.5.5-.6 1-1.3 1.4-1.9-.4.6-.7 1.2-1.1 1.8.8-.2 1.7-.4 2.5-.7-.1-.3-.2-.7-.3-1 .8-.2 1.7-.4 2.5-.7-1.1-.7-1.8-1.7-1.9-3-.8-2.8-.4-2 1.3 2.4.7-.3 1.5-.6 2.2-.9-1-2.8-1.2-2.5-.4.9l1.5-1.5c-1-.5-1.4-1.2-1.4-2.1-.2-1.8-.3-1.2-.2 1.8l2.4-.3c-.7-1.7-.8-1.3-.3 1.3.8-.4 1.5-.9 2.3-1.3-3.4-1.9-5.9-4.3-7.9-7.7-.3.7-.6 1.5-.9 2.2 3.5-.8 8.5 1.8 5.7 5.6-1.4 1.9-4.3 3.7-6.1 5.2-1.2 1 .1 2.8 1.5 2.5 6.1-1.4 11.2-6 10.2-12.6-.3-1.9-3.2-1.1-2.9.8.7 4.9-4 7.9-8.1 8.9.5.8 1 1.7 1.5 2.5 3.3-2.9 10.1-6.2 7.7-11.4-1.8-3.9-6.2-5.4-10.2-4.4-.9.2-1.4 1.4-.9 2.2 2.2 3.8 5.1 6.6 9 8.7 1 .5 2.3-.1 2.3-1.3 0-2.6-1.1-8.5-5.1-6.8-3.7 1.6-1.5 5.7.3 7.6.7.7 1.9.5 2.4-.3 1.2-2.1 2.4-4.8.5-6.9-1.1-1.2-3.2-1.6-4.6-.7-3.4 2.4-1 9.4 3.1 9.4.8 0 1.5-.7 1.5-1.5-.1-2.7-1.8-10.7-6.2-8.3-4.1 2.3-.4 8.2 2.1 10 .8.5 2 0 2.2-.9.6-3.2-.1-10.7-5.5-8.3-4.3 2-1.3 8.1 1 10.2.8.7 2.3.5 2.5-.7.6-3 .2-9-4.6-7.7-4.7 1.3-2 7.7-.1 10 .8 1 2.2.3 2.5-.7 1-3-2.8-8.7-6.2-6-3.9 3.2 1.7 6.1 4.4 6.4 1 .1 1.7-1 1.4-1.9-.8-2.6-2.4-4.1-5.1-4.6-1.3-.2-2.2 1-1.7 2.2 1.3 2.9 3.4 4.6 6.4 5.4.9.2 2-.4 1.9-1.4-.3-2.6-.9-4.5-2.3-6.8-1.1-1.6-3.5-.2-2.6 1.5 1 1.9 2.2 2.9 4.2 3.7 1.3.5 2.3-1.2 1.7-2.2-1.4-2.5-2.9-4.9-4.6-7.2-.4.8-.9 1.5-1.3 2.3 1.4-.2 2.8-.3 4.2-.5 1.3-.1 1.9-1.5 1.1-2.6-5.6-6.8-12.8-11.7-21.1-14.5-1.7-.6-2.5 1.8-1.2 2.7 6.1 4 12.2 8.1 18.3 12.1.5-.9 1-1.7 1.5-2.6-6.5-4.2-13.1-8.2-20.4-11-1.4-.5-2.6 1.6-1.5 2.5 6.4 5.5 13.2 10.4 20.5 14.7 1.4.8 3.1-1.2 1.8-2.4-6-5.2-12.7-9.4-20-12.5-1.4-.6-3.2 1.1-1.8 2.4 6.1 5.8 12.8 10.7 20.2 14.8 1.4.8 3.2-1.2 1.8-2.4-6-4.9-12.4-9-19.3-12.5-1.4-.7-3.2 1.2-1.8 2.4 5.2 4.1 10.3 8.1 15.5 12.2 1.5 1.2 3.6-.8 2.1-2.1-5.8-5.2-12.4-9-19.8-11.5-1.7-.6-2.5 1.8-1.2 2.7 6 4 11.6 8.5 16.9 13.4l1.8-2.4c-6.8-4.7-13.9-8.9-21.3-12.7-1.7-.9-3.1 1.5-1.5 2.6 6.2 4.1 12.4 8.3 18.6 12.4.5-.9 1-1.7 1.5-2.6-6.2-2.8-11.8-6.4-16.9-10.8l-1.8 2.4c6.3 2.9 12.4 6.1 18.4 9.6.5-.9 1-1.7 1.5-2.6-5.2-2.6-9.7-5.9-13.7-10.1l-1.8 2.4c3.7 2.8 7.6 5.1 11.8 7.2l1.2-2.7c-5.4-2.1-10.2-4.9-14.6-8.6l-1.8 2.4c3.5 1.9 7 3.9 10.5 5.8.5-.9 1-1.7 1.5-2.6-6.3-2.8-12.1-6.2-17.6-10.3-.5.9-1 1.7-1.5 2.6 4.5 3.2 9.3 6.1 14.2 8.6 1.5.8 3.1-1.1 1.8-2.4-4.6-4.5-8.9-9.3-12.7-14.5l-2.4 1.8c4.7 3.7 9.5 7 14.7 10.1 1.6.9 2.8-1.1 1.8-2.4-4-5.2-9-9-15-11.6-1.8-.8-3.1 1.4-1.5 2.6 4.1 3.1 8.4 5.4 13.2 7.2 1.3.5 2.3-1.1 1.7-2.2-3.4-6.2-10.2-8.1-16.9-8.5-1.1-.1-1.9 1.3-1.3 2.3 3.6 5.8 8.6 9.8 15 12.2 1.3.5 2.3-1.1 1.7-2.2-3.6-6.3-9.5-10.4-16.7-11.7-1.4-.3-2.6 1.4-1.5 2.5 4 4.2 8.4 7.9 13.2 11.3 1 .7 2.7-.5 2.2-1.7-2.7-6.7-8.1-11.4-15.3-12.7-1.2-.2-2.4 1-1.7 2.2 2.8 4.4 6.4 7.7 11.1 9.9 1.2.6 2.5-.4 2.2-1.7-1.8-7.2-7.7-12-15-12.6-1.2-.1-1.8 1.3-1.3 2.3 1.5 2.7 3.6 3.9 6.6 4 1.2 0 1.8-1.3 1.3-2.3-1.8-3.7-6.5-4.9-9.8-2.3-.7.5-1.1 1.7-.3 2.4 2 1.7 7.6 6.1 10 2.9 2.4-3.1-2.6-6.2-5-6.7-3-.6-5.5.7-4.6 3.9 1.3 4.4 8.3 6.8 12.2 7.5 1.1.2 2.6-1.1 1.7-2.2-2.1-2.7-4.4-5.7-7.8-6.9-2-.7-5.5-.9-6.4 1.6-.9 2.4 1.6 3.9 3.2 5.1 4.8 3.7 9.7 7.1 14.8 10.4 1.4.9 3.1-1.3 1.8-2.4-4.1-3.4-8.6-5.8-13.8-7.2-1.7-.5-2.5 1.8-1.2 2.7 3.9 2.6 7.9 5 12.1 7.3 1.4.8 3.2-1.2 1.8-2.4-3.6-2.9-7.5-5-11.9-6.3-1.5-.5-2.4 1.4-1.5 2.5 2.8 3.2 6.1 5.3 10.3 6.3 1.2.3 2.4-1.1 1.7-2.2-3.3-5.2-8.4-8.1-14.6-8.2-1.3 0-2 1.7-1.1 2.6 1.9 1.8 7.8 7.2 10.7 4.6 2.9-2.7-2.5-7.3-4.2-8.7-1.9-1.4-6-3.3-7.3.1-1.3 3.5 4.4 7 6.7 8.3.9.5 2.4-.1 2.3-1.3-.5-3.8-1.3-8.2-5.2-9.9-2.6-1.1-5.6-.2-6.7 2.5-2.4 5.7 7.1 8.4 6.7 1.7-.2-2.7-1.7-5.2-4.5-5.6-2.4-.3-4.8 1.2-4.6 3.8.2 2.2 2.6 4.2 4.8 3.1 3.3-1.8 1.2-5.7-.3-7.7-.5-.6-1.3-1-2.1-.5-2.8 1.7-2.8 5.7.3 7.1.9.4 1.9.1 2.2-.9.6-2.3.2-3.8-1.3-5.6-.7-.9-2.2-.3-2.5.7-.4 1.3-.4 1.6.4 2.7 1.8 1.5 4.4 0 3.3-1.5zM577.8 637.7c28.8 16.7 58.5 31.7 89 45 1.8.8 3.3-1.8 1.5-2.6-30.5-13.3-60.2-28.3-89-45-1.6-.9-3.1 1.7-1.5 2.6zM662.1 644.9c13.3 7.4 27.1 14 41.2 19.8 1.8.7 2.6-2.2.8-2.9-13.9-5.7-27.4-12.2-40.5-19.5-1.6-.9-3.1 1.7-1.5 2.6zM641.8 607.5c26.1 17.8 53.7 33.4 82.3 46.7 1.7.8 3.3-1.8 1.5-2.6-28.7-13.3-56.2-28.9-82.3-46.7-1.5-1.1-3 1.5-1.5 2.6zM667.6 594.1c24.8 19 51.8 34.6 80.6 46.7 1.8.7 2.6-2.2.8-2.9-28.5-12-55.3-27.6-79.9-46.4-1.5-1.2-3 1.4-1.5 2.6zM731.4 600.1c13.9 11.6 29.3 20.9 46 27.7 1.8.7 2.6-2.2.8-2.9-16.2-6.6-31.2-15.7-44.7-26.9-1.5-1.3-3.6.9-2.1 2.1zM726.7 562.9C751 581.3 776.5 598 803 613c1.7 1 3.2-1.6 1.5-2.6-26.5-15-52-31.8-76.3-50.1-1.6-1.1-3.1 1.5-1.5 2.6zM752 548.6c21.1 21 45.4 38.6 72 52 1.7.9 3.2-1.7 1.5-2.6-26.4-13.3-50.5-30.6-71.4-51.5-1.3-1.4-3.4.7-2.1 2.1zM775.7 538.3c20 19.9 43.5 35.8 69.4 46.9 1.8.8 3.3-1.8 1.5-2.6-25.7-11.1-49-26.8-68.8-46.5-1.3-1.3-3.4.8-2.1 2.2zM832.9 558c10.2 6.7 20.8 12.6 31.9 17.8 1.7.8 3.3-1.8 1.5-2.6-11-5.2-21.7-11.1-31.9-17.8-1.6-1-3.2 1.5-1.5 2.6zM833.8 548.4c-11-7.2-21.9-14.5-32.7-22-1.6-1.1-3.1 1.5-1.5 2.6 10.8 7.5 21.7 14.8 32.7 22 1.6 1.1 3.1-1.5 1.5-2.6zM821 514.5c20.5 18 43.4 32.9 68.2 44.3 1.7.8 3.3-1.8 1.5-2.6-24.6-11.3-47.3-26-67.6-43.8-1.4-1.3-3.5.8-2.1 2.1zM846.7 502.9c18.8 16 39.3 29.8 61.2 41.1 1.7.9 3.2-1.7 1.5-2.6-21.7-11.2-42-24.8-60.6-40.7-1.4-1.2-3.6 1-2.1 2.2zM867.8 492.3c17.6 15 36.5 28.3 56.7 39.7 1.7.9 3.2-1.6 1.5-2.6-19.9-11.2-38.7-24.4-56.1-39.2-1.4-1.3-3.5.8-2.1 2.1zM935.3 508.6c5 2.8 10.1 5.2 15.5 7.1 1.8.7 2.6-2.2.8-2.9-5.1-1.9-10-4.1-14.8-6.8-1.6-1-3.2 1.6-1.5 2.6zM907.7 474c9.8 6.4 19.5 12.7 29.3 19.1l13.8 9c2.8 1.8 6.7 5.8 10.3 5.2.7-.1 1-.8 1.1-1.4.1-.9-.1-1.3-.8-1.9-.5-.4-1.2-.6-1.8-.2-.1.1-.2.1-.3.2-1.6 1-.1 3.6 1.5 2.6.1-.1.2-.1.3-.2-.6-.1-1.2-.2-1.8-.2 0-.1-.1-.1-.1-.2.4-.5.7-1 1.1-1.4-1.3.2-4.4-2.6-5.5-3.3-2.2-1.4-4.3-2.8-6.5-4.2-4.3-2.8-8.7-5.7-13-8.5-8.7-5.7-17.4-11.3-26.1-17-1.6-1.2-3.1 1.4-1.5 2.4zM667.2 467.8c7.8 30.6 15.6 61.3 23.4 91.9.5 1.9 3.4 1.1 2.9-.8-7.8-30.6-15.6-61.3-23.4-91.9-.5-1.8-3.4-1.1-2.9.8z"/><path class="st2" d="M661.2 441.3c2.2 8.9 4.5 17.8 6.7 26.8.2.9 1.7.5 1.4-.4-2.2-8.9-4.5-17.8-6.7-26.8-.2-1-1.6-.6-1.4.4z"/><path class="st2" d="M663 440.2c27.7-15.6 56.6-28.9 86.4-40 1.8-.7 1-3.6-.8-2.9-30 11.2-59.1 24.6-87.1 40.3-1.7.9-.2 3.5 1.5 2.6zM693.6 560.6c31.6-14.1 62.2-30.3 91.7-48.4 1.6-1 .1-3.6-1.5-2.6-29.5 18.1-60.1 34.2-91.7 48.4-1.8.8-.3 3.4 1.5 2.6z"/><path class="st2" d="M748.5 398.7c10.8 37.4 22.5 74.5 35.2 111.3.6 1.8 3.5 1 2.9-.8-12.7-36.8-24.5-73.9-35.2-111.3-.6-1.9-3.5-1.1-2.9.8zM702.9 547.5c2 6.6 4.3 13.2 6.9 19.6.7 1.8 3.6 1 2.9-.8-2.6-6.4-4.9-13-6.9-19.6-.5-1.8-3.4-1.1-2.9.8z"/><path class="st2" d="M705.9 547.2c2-1.4 4-2.7 6.1-3.8 2.3-1.2 6.1-3.8 7.7-1.2 1.3 2 1.7 5.3 2.5 7.6.9 2.8 1.8 5.6 2.7 8.3.6 1.8 3.5 1 2.9-.8-1.3-4-2.6-8.1-3.9-12.1-.6-1.9-1.1-6.4-3-7.6-1.9-1.1-5.6 1.1-7.4 1.8-3.2 1.4-6.2 3.1-9.1 5.1-1.6 1.2-.1 3.8 1.5 2.7zM746.5 528.2c3 4.9 5.2 10.1 6.6 15.6.5 1.9 3.4 1.1 2.9-.8-1.5-5.8-3.8-11.2-6.9-16.3-1-1.6-3.6-.1-2.6 1.5z"/><path class="st2" d="M748.9 527.2c2.3-1.3 4.6-2.7 6.9-3.9 1.1-.6 2.3-1.6 3.5-1.8 2-.4 2.3.1 3.2 1.8 2.3 4.4 3.5 10 5.2 14.6.6 1.8 3.5 1 2.9-.8-1.4-3.9-2.7-7.8-4.1-11.7-.7-2.1-1.2-6.1-3.2-7.6-1.5-1.2-3.3 0-4.8.7-3.8 1.9-7.5 3.9-11.2 6.1-1.5 1 0 3.6 1.6 2.6zM707.8 554.9c5.4-1.9 10.7-4.3 15.7-7.2 1.5-.9.5-3.1-1.2-2.7-5 1.2-9.7 3.2-14 6 .5.9 1 1.7 1.5 2.6 4.1-3.2 8.6-5.9 13.3-8.1 1.7-.8.2-3.4-1.5-2.6-4.7 2.2-9.2 4.9-13.3 8.1-1.5 1.1-.2 3.7 1.5 2.6 4.1-2.6 8.5-4.5 13.3-5.7l-1.2-2.7c-4.8 2.7-9.8 5-15 6.9-1.7.6-1 3.5.9 2.8z"/><path class="st2" d="M753.6 532.8c3.5-2.1 7.1-4.2 10.6-6.3 1.7-1 .2-3.5-1.5-2.6-3.4 1.7-6.8 3.4-10.2 5.2.5.9 1 1.7 1.5 2.6 2.8-1.8 5.6-3.6 8.4-5.3 1.6-1 .1-3.6-1.5-2.6-2.8 1.8-5.6 3.6-8.4 5.3-1.6 1-.2 3.5 1.5 2.6 3.4-1.7 6.8-3.4 10.2-5.2-.5-.9-1-1.7-1.5-2.6-3.5 2.1-7.1 4.2-10.6 6.3-1.7 1-.2 3.6 1.5 2.6zM677.6 451.5c-3.5 2.3-4.6 1.9-3.4-1.4-.2-2 .5-3.7 2.2-4.9.3-.5.8-.9 1.1-1.4.7-1.3 1.4-2.7 1.1-4.3-.3-1.5-1.7-3.6-3.6-2.9-2.4.8-.8 4.3-.4 5.7l3.3 10.2c.5 1.5.9 3.1 1.4 4.7.1.5 1.3 6.7 0 5.8-.8-.6-1.5.7-.8 1.3 1.2.8 2.4.6 3.2-.7.7-1.1 0-3-.2-4-.7-2.8-1.6-5.6-2.4-8.4-.9-3.1-1.8-6.2-3-9.2l-.6-1.8c1.3 1.7 1.2 3.1-.2 4.2-.1.2-1.9 2.5-2 2.6-1.6 2.9-1.4 5.7.2 8.6 2.8 4.9 8.6 3.6 8.7-2.2.1-4.8-6.5-6.8-6-1.7 0 .8 1.5.8 1.4-.2zM695.3 445.8c.5-1.5-1.1-2.4-2.3-1.6-1.2.8-1.9 3.4-.2 4.1 2.3 1 2.9-2.4 2.7-3.8-.3-2.3-.8-4 1.3-5.7 1-.8 2.2-1.4 3.1-2.3.7-.6-.3-1.7-1.1-1.1-1.6 1.4-3.9 2.3-4.9 4.2-.4.8-.5 1.7-.5 2.6 0 .6.2 1.1.3 1.7.1.4.1.8.2 1.3-.6.9-.7 1-.2.2-.2.9 1.3 1.3 1.6.4zM709.7 439.5c1.8-.4 2.2-3 0-3.1-2-.1-1.9 2.2-.6 3 .4.3 1 0 1.1-.4.5-1.5.6-3.1 1-4.6.5-2.2 1.5-2.2 3.3-3.1 2.9-1.5 5.7-3.2 8.5-5-.4-.2-.8-.4-1.1-.6-.2 1.7 0 5.1-1.1 6.5-.4.5-1.1.4-1.2 1.3-.2 1.5 1.4 2 2.4 1.1.7-.7-.4-1.7-1.1-1.1.3-.3 1 .1 1.5-.3.3-.3.3-.5.4-.9.6-2 .4-4.4.7-6.5.1-.6-.7-.9-1.1-.6-3.3 2.2-6.7 4.1-10.2 5.9-1.3.7-1.8.8-2.1 2.2-.4 1.9-.5 3.7-1.1 5.6.4-.1.7-.3 1.1-.4-.2 0-.4-.1-.6-.1-1.1-.1-.7 1.3.2 1.1z"/><path class="st2" d="M715.3 430.5c-.1.8-.2 1.5-.3 2.3-.1.7 0 1.5-.5 2.1-.5.6-1.6.8-1.4 1.8.1.6.8 1.1 1.4 1.1.9 0 1.5-.7 1.8-1.4.5-.8-.8-1.6-1.3-.8l-.3.6c-.2.3-.2.4.1.3.2 0 .4-.2.6-.3.4-.3.6-.7.8-1.2.4-1.4.4-3.1.6-4.5.1-1-1.4-1-1.5 0zM697.5 450.4c16.1-6.3 31.6-13.7 46.4-22.4.8-.5.1-1.8-.8-1.3-14.8 8.6-30.1 16.1-46.1 22.3-.8.3-.4 1.7.5 1.4zM675.1 473.7c2.5 9.1 4.7 18.3 6.6 27.6.2.9 1.6.5 1.4-.4-1.9-9.3-4.1-18.4-6.6-27.6-.2-.9-1.7-.5-1.4.4z"/><path class="st2" d="M675.5 472.9c3.3 9.4 5.7 19 7.4 28.8.2.9 1.6.5 1.4-.4-1.7-9.8-4.1-19.4-7.4-28.8-.2-.9-1.7-.5-1.4.4z"/><path class="st2" d="M676.1 473.5c21.2-9.9 42.4-19.8 63.7-29.6.9-.4.1-1.7-.8-1.3-21.2 9.9-42.4 19.8-63.7 29.6-.9.4-.1 1.7.8 1.3zM683.6 501.7c23.1-12 46.2-24.1 69.3-36.1.9-.4.1-1.7-.8-1.3-23.1 12-46.2 24.1-69.3 36.1-.9.4-.1 1.7.8 1.3zM683.9 479.2c1.1.1 2-1.2 1.3-2.1-.7-1-2.2-.6-2.7.4-.5 1.1.2 2.8 1.5 2.7 1.3-.1 2-2 1.6-3.1-1.3-2.9-5.3 1.6-2.6 3.4 1.2.8 2.7-.1 3.1-1.4.3-1 0-2 0-3-.1-1.8.1-3.5.6-5.2.3-.9-1.2-1.3-1.4-.4-.4 1.4-.7 2.8-.7 4.3 0 .7 0 1.4.1 2.1.1 1 .4 1-.6.9-1.2-.1-1.2 1.4-.2 1.4zM701 462.9c.3 2.3.3 4.6 0 6.9.4-.2.8-.4 1.1-.6-2.2-1-5.4 0-5.8 2.7-.2 1.1.5 2 1.6 2.2 1.8.3 3.3-1.1 4.3-2.4.6-.7-.4-1.8-1.1-1.1-.3.3-.6.7-.9 1-.7 1-1.5.9-2.2-.3.3-1.2 2.5-1.2 3.2-.9.6.3 1.1-.1 1.1-.6.3-2.4.3-4.8-.1-7.3.1-.9-1.4-.5-1.2.4z"/><path class="st2" d="M701.7 465.4c.8 1.8 3 2.7 4.8 1.9.9-.4.5-1.8-.4-1.4-1.2.5-2.6 0-3.1-1.3-.4-.8-1.6 0-1.3.8zM701.7 463.6c1.3.7 2.9.9 4.3.4.9-.3.5-1.8-.4-1.4-1.1.4-2.2.3-3.2-.2-.8-.5-1.6.8-.7 1.2zM721.1 455.3c-.1 1.7 0 3.5.1 5.2.4-.2.9-.4 1.3-.5-2-2.4-5.7.8-5.4 3.3.1 1.1 1.3 1.6 2.3 1.3 1.2-.3 2.4-1.9 2.5-3.1.1-2.7-4-1.7-3.8.7.3 2.8 4.3 1.1 2.5-.9-.7-.7-1.7.4-1.1 1.1.8-.4.8-.2.1.4-.6-.1-.7-.4-.5-.7 0-1 1.6-1.9 2.4-1 .4.5 1.3.1 1.3-.5-.1-1.7-.1-3.5-.1-5.2 0-1.1-1.5-1.1-1.6-.1z"/><path class="st2" d="M719.4 459.2c.1-.3.2-.7.4-1l.4-.4s.1 0 .1-.1c-.2-.5-.4-.6-.5-.3-.3.2-.4.5-.7.7-.1 0-.5.3-.6.1-.1.2-.1.5-.2.7.2-.3.6-.7 1-.8.1 0 .2 0 .3.1.1 0 0 .1 0 0 0 .1-.2.3-.3.3-.2.1-.8.7-1 .5 0 0 0-.1-.1-.1v-.1c0-.1 0-.1 0 0s-.1.1-.2.1c1-.1 1-1.6 0-1.5-1.1.1-1.6 1.3-1.1 2.2.6 1.2 2.1.9 3 .3.5-.4 1-.8 1.1-1.4.1-.6-.2-1.2-.7-1.5-1.2-.8-2.4.1-3.2.9-.2.2-.3.5-.2.7.4.9 1.3 1.3 2.2 1.1.8-.2 1.8-1.1 2.1-2 .4-1.1-.7-1.8-1.7-1.3-.9.4-1.5 1.4-1.7 2.4-.1.9 1.4 1.3 1.6.4zM730.7 454.7c-.6-1.2 2-3.9 3.1-2.9 1.1 1.1-2 3.6-3 2.5-.7-.7-1.8.4-1.1 1.1 2.3 2.3 7.4-1.8 5.3-4.5-1.1-1.4-3-.7-4.1.2-1.3 1-2.3 2.7-1.5 4.3.4.9 1.7.1 1.3-.7zM683.5 483.5c20.5-9.6 40.9-19.7 61-30.2.9-.4.1-1.7-.8-1.3-20.1 10.5-40.4 20.6-61 30.2-.8.5-.1 1.8.8 1.3zM686.8 488.8c-.1-.1-.1-.3 0-.3s.1.1.1.1c0 .1-.1.1-.2.1.1 0 .3.1.4.1-.5-.3 0-.8.2-.5 0 .1.1.2 0 .3 0 0-.1-.1-.2-.1-.1-.1-.1-.2-.1-.1.2-.9-1.3-1.3-1.4-.4-.1.7.2 1.4.8 1.8.6.4 1.4.4 2-.2 1.1-1 .2-3-1.2-3-1.8 0-2.4 2.4-.9 3.3.7.4 1.6 0 2-.7.4-.7.2-1.6-.5-2-.7-.5-1.7-.4-2.2.3-.5.7-.4 1.7.2 2.3.7.7 1.7-.4 1-1zM696.2 481.4c.1 1.7 0 3.4-.2 5.1-.1.6.5 1.2 1.1.8 1.5-.8 2.9-1.6 4.4-2.3.9-.5 2.1-.9 2.9-1.7.5-.5.5-1.1.7-1.8.1-.6 1.2-3.7.9-4.2-.5-.8-1.8-.1-1.3.8.6 1 2.1 1.4 2.9.4.9-1 0-2.6-1.3-2.7-1.9-.1-2.1 2.7-2.4 4-.1.6-.1 1.5-.4 2-.4.9-1.2 1.1-2 1.5l-5.1 2.7c.4.3.7.6 1.1.8.3-1.8.4-3.6.3-5.5-.2-.9-1.7-.9-1.6.1z"/><path class="st2" d="M697.3 482.2c.2-1.1.9-2 1.9-2.5-.4-.2-.8-.4-1.1-.6.1.9-.4 1.6-1.3 1.9-.9.2-.5 1.7.4 1.4 1.5-.4 2.5-1.8 2.4-3.3 0-.6-.6-.9-1.1-.6-1.3.6-2.3 1.9-2.6 3.3-.2.9 1.3 1.3 1.4.4zM715.9 472.6c.2 2 .2 4 .1 6-.1 1 1.4 1 1.5 0 .1-2 .1-4-.1-6-.1-.9-1.6-1-1.5 0z"/><path class="st2" d="M717.3 473c-.1-.9.8-1.7 1.6-1.1.7.5.3 1.8-.7 1.6-.3-.1-.5-.4-.5-.7 0-.2.3-.9.5-.5.1.3-.3.5-.4.2v-.2c.1 0 .1 0 .2.1.2.2.4.1.7-.1.1.2.1.4.2.5v-.1c-.1-.9-1.6-1-1.5 0 .2 1.4 2.1 1.1 2.2-.2.1-1.1-1.2-2-2.2-1.6-1.1.4-1.2 1.7-.6 2.6.8 1.1 2.4.7 2.9-.4.6-1.2-.3-2.6-1.6-2.4-1.2.2-1.9 1.4-1.6 2.6.3 1.1 1.3 1.9 2.5 1.7 1.1-.2 2.1-1.3 2-2.5-.1-1.4-1.6-2.5-3-2.2-1.5.3-2.2 1.8-2 3.2 0 .8 1.4.4 1.3-.5zM735.1 459.6c-.1 3.3-.3 6.6-.7 9.9-.1 1 1.4.9 1.5 0 .4-3.3.7-6.6.7-9.9 0-1-1.5-1-1.5 0z"/><path class="st2" d="M735.4 468.5c-1-.3-2.1-.3-3.1.1-.9.4-2 1.2-1.9 2.4.1 1 1 1.6 1.9 1.6 1.1 0 1.8-.9 2.5-1.7.6-.8-.7-1.5-1.3-.8-.3.3-.6.9-1.1.9-.8.1-.3-.6.1-.8.8-.5 1.7-.6 2.6-.3.8.3 1.2-1.1.3-1.4z"/><path class="st2" d="M732.6 471.1c.4-.5.9-.9 1.5-1.1-.3-.4-.6-.7-.8-1.1-.3.6-.9 1.1-1.7 1.2-.4 0-.8.3-.8.8 0 .4.3.8.8.8 1.3-.1 2.4-.8 3-2 .3-.5-.2-1.4-.8-1.1-.8.3-1.5.8-2.1 1.5-.8.7.2 1.8.9 1zM735.3 464.8c-1.8-.6-3.7.4-4.3 2.2-.2.5.3 1 .7.9 1.4 0 2.7-.5 3.7-1.5.5-.5.1-1.2-.5-1.3-1-.1-1.9.2-2.6.9-.7.7.4 1.7 1.1 1.1.4-.4.9-.5 1.5-.5-.2-.4-.4-.9-.5-1.3-.7.7-1.6 1.1-2.6 1.1.2.3.5.6.7.9.4-1 1.5-1.4 2.5-1.1.8.4 1.2-1.1.3-1.4zM687.3 510.2c21-10 42-19.9 63-29.9.9-.4.1-1.7-.8-1.3-21 10-42 19.9-63 29.9-.9.4-.1 1.7.8 1.3zM695.6 525.4c1.7-2.3-1.6-4.4-3.6-3-1.5 1-3.9 4.8-1.2 5.8 2.5.9 6.9-1.5 5.7-4.5-1.5-3.7-4.7.2-5.3 2.1-.1.4.1.8.5.9 1.7.3 4.6-1.3 3-3.1-1.7-2-3.9.4-3.4 2.3.1.2.3.5.5.5 2.1.4 3.3-1.2 3.2-3.2-.1-3-.5-4.9 1.9-7.2 1.9-1.8 4.6-2.6 7-3.3-.3-.2-.6-.3-.9-.5.3 2.4.4 4.8.2 7.2.4-.2.9-.4 1.3-.5-2.4-2-4.3.5-4.9 2.8-.1.4.1.9.5.9 2.2.4 4.1-.7 4.6-3 .1-.5-.2-1-.7-.9-2.2 0-3.6 1.4-3.8 3.6-.1.6.7.9 1.1.6 1.4-.8 2.4-1.7 3.3-3.1.3-.6-.2-1.3-.8-1.1-1.3.4-2.1 1-2.9 2.1-.5.8.8 1.5 1.3.8.7-.5 1.3-1 2-1.4-.3-.4-.6-.7-.8-1.1-.7 1.2-1.5 1.9-2.7 2.6.4.2.8.4 1.1.6.8-.7 1.6-1.4 2.3-2.1-.2-.3-.5-.6-.7-.9-.9.7-1.8 1.3-2.8 2 .2.3.3.6.5.9.1-1.2.9-2 2.4-2.2.5.4 1.2.1 1.3-.5.2-2.6.1-5.1-.2-7.6-.1-.4-.6-.6-.9-.5-3.1 1-6.5 2.1-8.6 4.7-.7.9-1.4 2-1.6 3.2-.2 1.1.3 6.4-1.1 6.1.2.3.3.6.5.9.3-1.9.8-1.9 1.6-.1-.6.3-1.3.5-2 .5-.8.3-1.1 0-.9-1.1.4-1.2 1.4-1.6 3-1-.9.9.4 1.6 1 .8zM713.8 513.7c-.9-1.5 1.2-2.5 2.3-2.9.3-.1 1.3-.6 1.6-.3.7.6-.8 1.5-1.2 1.8-.6.4-1.2 1-1.9 1.2-.7.3-.6-.3-.4-.8.5-1.3 2.3-1.8 3.6-1.8l-.8-.8c0 1.2-1.1 2-2.2 1.6.2.3.3.6.5.9.3-.8.9-1.2 1.8-1.1-.2-.3-.5-.6-.7-.9-.1.3-.3.5-.6.4-.9-.2-1.3 1.2-.4 1.4 1.1.3 2.2-.3 2.5-1.4.1-.5-.2-.9-.7-.9-1.5-.1-2.8.8-3.2 2.2-.1.4.2.8.5.9 2 .7 4.2-1 4.1-3.1 0-.4-.3-.8-.8-.8-2.2 0-5.5 1.4-5.2 4.2.1.9.7 1.6 1.6 1.6.8 0 1.4-.6 2-1 .7-.4 1.4-.9 2-1.4.8-.7 1.5-1.8 1-2.9-.6-1-1.8-1.1-2.8-.8-2.2.6-5.4 2.7-3.8 5.4.4.9 1.7.1 1.2-.7zM729.5 507.5c.6-.8.7-1.9.4-2.8-.1-.4-.5-.6-.9-.5-2 .5-3.5 2.3-3.5 4.4 0 .3.2.7.6.7 2.2.4 4.4-1.4 4.2-3.7 0-.4-.3-.8-.8-.8-2 .2-3.7 1.5-4.2 3.5-.1.5.2.9.7.9 2.2 0 4.1-1.7 4.3-3.9.1-.5-.5-.8-.9-.7-.6.1-1.3.3-1.9.4-.9.2-.5 1.7.4 1.4.6-.1 1.3-.3 1.9-.4-.3-.2-.6-.5-.9-.7-.2 1.4-1.5 2.4-2.8 2.4.2.3.5.6.7.9.3-1.3 1.4-2.3 2.8-2.4l-.8-.8c.1 1.2-1 2.5-2.3 2.2.2.2.4.5.6.7 0-1.4 1-2.6 2.4-3-.3-.2-.6-.3-.9-.5.2.6.1 1.1-.2 1.7-.8 1 .5 1.8 1.1 1z"/><path class="st2" d="M729.5 506.5c.2-2.6-.1-7 1.8-9 1.6-1.7 5.7-2.8 7.7-3.9 4.9-2.4 9.7-4.9 14.6-7.3-.4-.2-.8-.4-1.1-.6.1 2 .4 4.4 0 6.4-.6 2.8-.5 1.6-2.5 2.9-.9.6-3.2 1.7-3 3.3.1 1.1.9 1.7 2 1.7 1.8.1 2.3-1.9 2.6-3.3.2-.7-.5-1.1-1.1-.8-1.5.6-1.1.3-2 1.6-.5.7.1 1.5.9 1.2 1.3-.5 1.9-1.1 2.6-2.3.4-.7-.4-1.4-1-1-.7.3-1.3.7-2 1-.9.4-.1 1.7.8 1.3.7-.3 1.3-.7 2-1l-1-1c-.7.6-1.3 1.2-2 1.8l.9 1.2c.6-.4 1.2-.9 1.7-1.3-.4-.3-.7-.6-1.1-.8l2.7-.3c.4 0 .7-.3.8-.8.4-3.2.5-6.4.4-9.7 0-.6-.6-.9-1.1-.6-6.9 3.4-13.7 6.8-20.6 10.3-1.2.6-2.6 1.1-3.3 2.2-1.3 2.2-.7 6.6-.9 8.9-.3.9 1.2.9 1.2-.1z"/><path class="st2" d="M734.9 495.2c-.4 2.3-.2 4.4.6 6.5.5-.2.9-.4 1.4-.6-.6-1-1.8-1.3-2.8-.7-1.4.7-1.5 2.5-1.4 3.9 0 .4.3.8.8.8 1.5 0 2.6-.7 3.3-2.1.1-.3.2-.7-.1-.9-1.3-1-3.3-.5-3.7 1.2-.1.5.2 1 .7.9 2.1-.1 3.5-1.5 3.8-3.5 0-.4-.4-.8-.8-.8-1.8.1-3.3 1.2-3.6 3.1-.2.9 1.3 1.3 1.4.4.2-1.2 1-1.9 2.2-2l-.8-.8c-.2 1.2-1.1 2-2.3 2 .2.3.5.6.7.9.3-.7.7-.9 1.2-.5 0-.3-.1-.6-.1-.9-.4.8-1.1 1.3-2 1.3l.8.8c0-.4-.1-.9 0-1.4.1-.4.8-2 1.4-1.1.4.7 1.7.3 1.4-.6-.7-1.9-.9-3.8-.6-5.7.1-.7-1.3-1.1-1.5-.2zM742.2 491.2c.2 2.3.1 4.6-.3 7 .3-.2.6-.3.9-.5-2.4-.9-4.5 1.7-3.5 3.9.1.2.4.4.6.4 1.6-.2 2.8-1.1 3.3-2.7.1-.4-.2-.8-.5-.9-1.3-.5-2.6.3-2.8 1.6-.1.6.3 1 .9.9 1.7-.3 2.7-1.6 2.8-3.2 0-.7-.8-.9-1.3-.5-.7.6-1.4 1.3-2.1 1.9-.7.7.4 1.7 1.1 1.1.7-.6 1.4-1.3 2.1-1.9-.4-.2-.9-.4-1.3-.5-.1 1.1-.7 1.7-1.7 1.8l.9.9c.3-.2.7-.4 1-.6-.2-.3-.3-.6-.5-.9-.2 1.1-.5 1.3-.9.6.4-.5.9-.6 1.5-.3.4.1.9-.2.9-.5.4-2.4.6-4.9.4-7.4-.1-1.2-1.6-1.2-1.5-.2zM698.3 532.2c23.5-12.5 47.3-24.6 71.2-36.4.9-.4.1-1.7-.8-1.3-23.9 11.8-47.6 23.9-71.2 36.4-.8.4 0 1.7.8 1.3z"/><path d="M540.8 656.4c.1 7.7.3 15.4.4 23.1 24.3 13.3 51.8 26 82.4 37 7.4 2.6 14.7 5.1 21.9 7.3 29.7-13.4 53.9-24.9 70.3-32.9 150.7-73 215.3-120.4 238-137.7 9-6.8 16.1-12.5 20.3-15.8-2-11.4-4.1-22.7-6.1-34.1-6.3 4.7-17.8 13.2-32.5 23.6-97.2 68.8-184.4 115.3-242.9 143.8-10.9 5.3-28.4 13.7-50.4 23.6-33.7-12.7-67.5-25.3-101.4-37.9zM726.1 804.7c1.7 16.4 2.4 32.9 2.3 49.4 0 1.9 3 1.9 3 0 .2-16.5-.6-32.9-2.3-49.4-.2-1.9-3.2-1.9-3 0z"/><path d="M728.6 805.7c19.3-15.3 40.5-28.2 62.9-38.5 1.8-.8.2-3.4-1.5-2.6-22.7 10.4-44 23.4-63.5 38.9-1.6 1.3.6 3.4 2.1 2.2z"/><path d="M789.9 767.2c3.8 13.6 5.7 27.6 5.6 41.8 0 1.9 3 1.9 3 0 .1-14.4-1.8-28.7-5.7-42.6-.5-1.9-3.4-1.1-2.9.8zM543.6 705.5c8.8-3.3 17.6-6.9 26.2-10.8 1.8-.8.2-3.4-1.5-2.6-8.4 3.8-16.8 7.2-25.4 10.5-1.9.7-1.1 3.6.7 2.9z"/><path class="st1" d="M438.1 510.9c24.2 11.7 49.9 20 76.4 24.4 1.9.3 2.7-2.6.8-2.9-26.3-4.4-51.7-12.4-75.7-24.1-1.7-.9-3.2 1.7-1.5 2.6z"/><path d="M717.4 811.9c1.7 16.4 1.4 32.9-.8 49.3-.3 1.9 2.6 2.7 2.9.8 2.3-16.6 2.7-33.4.9-50.1-.2-1.9-3.2-1.9-3 0zM834.8 400.3c28.4-11.4 55.7-25.3 81.5-41.7 1.6-1 .1-3.6-1.5-2.6-25.6 16.3-52.6 30.2-80.8 41.4-1.7.7-1 3.6.8 2.9z"/><path d="M652.9 475.9c-5.5 11.8-10.9 25.1-15.5 39.9-11.7 36.9-15.2 70.3-15.5 96.6 6.1-2.5 12.2-5 18.2-7.4 28.4 15.5 56.8 31.1 85.2 46.6.5 11.7.9 23.4 1.4 35.1-27.7 12.8-55.4 25.7-83.1 38.5-8.8 11.5-30.7 43.4-33.1 89.9-2.7 51.7 20.5 88.6 28.4 100-35.4 23-70.7 46-106.1 68.9-1-64.9-1.5-129.8-1.4-194.6.1-86.3 1.3-172.6 3.4-258.8 39.2-18.3 78.7-36.5 118.1-54.7z" opacity=".09" fill="#333"/><path class="st4" d="M540.7 679.9c1.2 12.1 3.1 25.3 6.1 39.2 6.9 31.7 17.4 58.3 27.7 79.1 70.7-29.6 146.6-65.8 225.7-110.2 45.3-25.4 87.7-51.3 127.1-77 .2-7.2.5-14.4.7-21.6-3.6-3.2-7.2-6.3-10.8-9.5-90.8 48.4-181.6 96.9-272.4 145.3l-104.1-45.3z"/><g class="st5"><path class="st6" d="M579.8 640.9c26.5 13.6 53.1 27.1 79.6 40.7 1.7.9 3.2-1.7 1.5-2.6-26.5-13.6-53.1-27.1-79.6-40.7-1.8-.8-3.3 1.8-1.5 2.6z"/></g><g class="st5"><path class="st6" d="M578 640.2c28 15.8 56.4 30.7 85.2 44.9 1.7.8 3.2-1.7 1.5-2.6-28.8-14.2-57.2-29.1-85.2-44.9-1.7-1-3.2 1.6-1.5 2.6z"/></g><g class="st5"><path class="st6" d="M605 626.3c7.5 4.7 15.1 9.4 22.8 14 6.8 4 13.6 8.8 21.5 10.4 1.9.4 2.7-2.5.8-2.9-8.1-1.7-15.4-6.9-22.4-11.1-7.1-4.2-14.2-8.6-21.2-13-1.6-1-3.1 1.6-1.5 2.6z"/></g><g class="st5"><path class="st6" d="M605.1 625c4 5.7 11 9.3 16.8 12.9 7.3 4.5 14.8 8.6 22.5 12.3 1.7.8 3.3-1.8 1.5-2.6-6.6-3.2-13.1-6.6-19.4-10.4-6.1-3.7-14.7-7.8-18.9-13.7-1-1.6-3.6-.1-2.5 1.5z"/></g><g class="st5"><path class="st6" d="M603.7 625.4c14 12.2 28.8 24.6 47.5 28.4 1.9.4 2.7-2.5.8-2.9-18.2-3.6-32.6-15.7-46.2-27.6-1.5-1.3-3.6.8-2.1 2.1z"/></g><g class="st7"><path class="st6" d="M604.7 625c14.8 11.3 31 20.6 48.2 27.8 1.8.7 2.6-2.2.8-2.9-17-7.1-32.9-16.3-47.5-27.5-1.5-1.2-3 1.4-1.5 2.6z"/></g><g class="st7"><path class="st6" d="M694.4 581.7c14.9 7.4 27.1 20 43.7 23.6 1.9.4 2.7-2.5.8-2.9-16.3-3.6-28.4-16.1-42.9-23.3-1.8-.9-3.3 1.7-1.6 2.6z"/></g><g class="st7"><path class="st6" d="M697.4 583c7.2 4.2 14.5 8.5 21.7 12.7 6.4 3.8 12.8 8 19.8 10.7 1.8.7 2.6-2.2.8-2.9-7.3-2.7-14-7.4-20.7-11.3l-20.1-11.7c-1.6-1-3.1 1.6-1.5 2.5z"/></g><g class="st7"><path class="st6" d="M692 580.3c13.8 13 28.6 26.2 48.4 27.9 1.9.2 1.9-2.8 0-3-18.9-1.5-33.1-14.6-46.3-27-1.4-1.4-3.6.8-2.1 2.1z"/></g><g class="st7"><path class="st6" d="M696.1 582.9c11 9.2 22.3 20.8 37.2 22.9 1.9.3 2.6-2.1.8-2.9-11-4.6-21-10.9-30-18.7l-1.8 2.4c10.6 7.1 21.4 14.1 32.9 19.8 1.7.9 3.2-1.7 1.5-2.6-11.5-5.7-22.2-12.6-32.9-19.8-1.4-.9-3.1 1.2-1.8 2.4 9.4 8.2 19.9 14.6 31.3 19.5.3-1 .5-1.9.8-2.9-14.4-2-25.2-13.2-35.9-22.1-1.4-1.3-3.6.8-2.1 2z"/></g><g class="st7"><path class="st6" d="M726 562.6c23 18.2 46.8 35.3 71.4 51.2 1.6 1 3.1-1.5 1.5-2.6-24.4-15.8-48-32.7-70.8-50.7-1.4-1.2-3.6.9-2.1 2.1z"/></g><g class="st7"><path class="st6" d="M752 550c18.2 21.2 40.7 38.3 66 50.2 1.7.8 3.3-1.8 1.5-2.6-25.1-11.7-47.4-28.6-65.4-49.7-1.3-1.5-3.4.7-2.1 2.1z"/></g><g class="st7"><path class="st6" d="M773.1 536.9c17 22.4 40.8 38.6 67.8 46.2 1.9.5 2.7-2.4.8-2.9-26.3-7.3-49.6-23.1-66-44.8-1.1-1.5-3.7 0-2.6 1.5z"/></g><g class="st7"><path class="st6" d="M667.1 594.1c23.6 19.6 49.7 35.7 77.8 48 1.8.8 3.3-1.8 1.5-2.6-27.9-12.1-53.8-28.1-77.2-47.5-1.5-1.3-3.6.9-2.1 2.1z"/></g><g class="st7"><path class="st6" d="M665.6 470.6c8.5 29.2 16.7 58.5 24.6 87.8.5 1.9 3.4 1.1 2.9-.8-7.8-29.4-16-58.7-24.6-87.8-.5-1.8-3.4-1-2.9.8z"/></g><g class="st7"><path class="st6" d="M662.9 470.2c3.9 17.8 8.1 35.6 12.4 53.3 2 8.2 4.1 16.4 6.2 24.7.7 2.7 1.4 13.5 6.3 13.2 4.9-.4 1.7-8.2 1.1-10.3-2.4-8.5-4.7-17-6.9-25.5-4.7-17.7-9.1-35.4-13.3-53.2-.4-1.6-3.1-1.3-2.9.4 1.9 30 15.2 57.5 21.4 86.6.4 1.9 3.3 1.1 2.9-.8-5.8-28.6-12.9-56.8-21.4-84.7-.6-1.8-3.5-1.1-2.9.8 8.5 27.9 15.6 56.1 21.4 84.7 1-.3 1.9-.5 2.9-.8-6.1-28.8-19.4-56.1-21.2-85.8-1 .1-2 .3-2.9.4 3.4 14.6 7.1 29.2 10.8 43.8 1.8 7 3.6 13.9 5.5 20.8 1 3.8 2.1 7.6 3.1 11.3.4 1.6.9 3.1 1.3 4.7.3 1 1.2 4.7.1 2.2-1.4-3.1-1.8-7.1-2.7-10.4-.9-3.5-1.8-6.9-2.6-10.4-1.8-7.3-3.6-14.5-5.4-21.8-3.5-14.6-6.9-29.2-10.1-43.8-.6-2-3.5-1.2-3.1.6z"/></g><g class="st7"><path class="st6" d="M843.2 553.4c6.8 10 19.1 9.3 29.8 7.6 1.9-.3 1.1-3.2-.8-2.9-9.1 1.5-20.4 2.5-26.4-6.2-1.1-1.6-3.7-.1-2.6 1.5z"/></g><g class="st7"><path class="st6" d="M930.6 508.6c2.7 5.1 7 8.8 12.3 10.9 1.8.7 2.6-2.2.8-2.9-4.6-1.8-8.2-5.2-10.5-9.5-.9-1.7-3.5-.2-2.6 1.5z"/></g><g class="st7"><path class="st6" d="M866.1 492.9c9.3 7.5 18.5 15.2 28 22.5 9.6 7.4 20 12.9 30.8 18.3 1.7.9 3.2-1.7 1.5-2.6-10.2-5.1-20.2-10.2-29.4-17.2-9.8-7.4-19.2-15.4-28.8-23.1-1.4-1.2-3.6.9-2.1 2.1z"/></g><g class="st7"><path class="st6" d="M724.6 563.5c23.3 18 47.2 35.1 72 51.1 1.6 1 3.1-1.5 1.5-2.6-24.6-15.8-48.3-32.7-71.4-50.6-1.5-1.2-3.6.9-2.1 2.1z"/></g><g class="st7"><path class="st6" d="M639.8 608.1c26.5 17.6 53.9 33.7 82.2 48.2 1.7.9 3.2-1.7 1.5-2.6-28.3-14.5-55.7-30.6-82.2-48.2-1.6-1.1-3.1 1.5-1.5 2.6z"/></g><g class="st8"><path class="st6" d="M725.3 804.3c.9 17 1.8 34 2.6 51 .1 1.9 3.1 1.9 3 0-.9-17-1.8-34-2.6-51-.1-1.9-3.1-1.9-3 0z"/></g><g class="st8"><path class="st6" d="M787.6 769.1c3.5 13.6 5.4 27.5 5.7 41.6 0 1.9 3 1.9 3 0-.3-14.3-2.3-28.5-5.8-42.4-.5-1.9-3.4-1.1-2.9.8z"/></g><g class="st8"><path class="st6" d="M715.8 811.7c-.1 17.6-.8 35.2-2.3 52.7-.1 1.7 2.5 2 2.9.4 2.7-9.3 3.5-18.9 4.1-28.5.1-1.9-2.9-1.9-3 0-.7 9.3-1.4 18.6-4 27.7 1 .1 2 .3 2.9.4 1.4-17.5 2.2-35.1 2.3-52.7.1-2-2.9-2-2.9 0z"/></g><g class="st8"><path class="st6" d="M539.6 682.2C573.5 699 607.3 717 644 726.9c1.9.5 2.7-2.4.8-2.9-36.4-9.9-70-27.8-103.7-44.4-1.7-.8-3.2 1.8-1.5 2.6z"/></g><g class="st8"><path class="st6" d="M578 639.9c29 16.8 58.9 31.8 89.6 44.9 1.8.8 3.3-1.8 1.5-2.6-30.7-13.2-60.7-28.2-89.6-44.9-1.7-.9-3.2 1.7-1.5 2.6z"/></g></g><g id="cat"><path d="M436.3 428.6c-1.4 1.1.1 6 1.7 11.2.7 2.1 1.3 3.8 1.7 4.9-1.3 3-1.5 5.5-1.4 7 .2 6 4 10.5 8.7 16.1 1.8 2.2 3.4 3.8 4.5 4.9-2 .5-5.2 1.5-8.4 3.8-2.3 1.6-7.6 5.5-7.3 10.1.2 3.4 3.3 5.7 5.9 7.7 7 5.2 17.9 8.2 28.7 4.9 4.3-1.3 7.7-3.4 10.1-5.2-1.9 4.6-3.6 8.7-4.9 12.2-2.1 5.4-2.7 7.4-1.7 9.4 1.1 2.4 4 3.9 6.6 3.8 4.2-.1 7.2-4.5 8.7-6.6 4.1-5.7 10.3-13.5 20.6-24.1 4.9.2 10.8.1 17.5-1 10.9-1.9 19.4-5.6 25.2-8.7l5.2 5.2c-2.7 1.1-7.3 3.4-11.2 8-1.8 2.1-3 4.2-3.8 5.9 2.4 0 5-.2 7.7-.7 13.1-2.3 22.2-9.9 26.9-14.7 1.6-2.6 3.7-6.5 5.2-11.5.5-1.6 2.8-9.7 1.7-20.3-.4-3.9-1-8.9-3.8-14.7-1.5-3.1-3.2-5.4-4.5-7-1.2-2.3-2.6-5.7-1.7-9.4.6-2.8 2-3.8 5.9-9.1 3.7-5 5.5-7.5 6.6-10.5.8-2.2 2.7-7.3 1-12.6-.9-2.8-3.2-5.1-7.7-9.8-6.8-7-8.6-7.3-9.4-10.5-1.3-4.9 1.6-10.1 2.4-11.5 2.6-4.6 5.9-6.2 5.6-9.8 0-.3-.2-2.8-1.7-3.5-3-1.4-9.2 5.1-12.6 10.5-2.4 3.9-4.4 7-4.2 11.2.3 5.9 4.7 7.2 10.5 16.4 4.1 6.5 8.7 13.9 6.3 19.9-1.3 3.1-4.5 6-9.4 10.5-2.2 2-3.3 2.7-4.5 4.5-2.4 3.6-2.9 7.6-2.8 10.5-2.7.4-6.8 1.1-11.5 2.8-5.5 1.9-8.3 3.8-12.2 5.9-7.1 3.8-18.6 9.9-31.1 8.4-2.9-.4-6.8-1.2-11.2-3.5-1-2.8-2.1-5.6-3.1-8.4 1.2-4.4.9-8.9-1.4-10.5-2.9-2.1-9.9.1-15 7.7-4 0-9.2.5-15 2.1-4.7 1.3-8.5 3-11.5 4.5-1.7-1.3-9.8-8.1-11.9-6.4z" stroke="#000" stroke-miterlimit="10"/><path d="M438.9 442.3c-4.4 14.6 4.2 29.4 18.3 34.6 12.6 4.6 27.2.7 36.1-9.1 1.3-1.4-.8-3.6-2.1-2.1-7.6 8.4-19.5 12.1-30.5 9.2-13.8-3.7-23-17.6-18.8-31.7.4-2-2.4-2.8-3-.9z"/><path d="M440.9 441.6c-1.7-4.3-2.6-8.8-2.6-13.4-.8.4-1.5.9-2.3 1.3 4.7 2.3 8.2 5.9 10.6 10.5.9 1.7 3.5.2 2.6-1.5-2.6-5-6.6-9.1-11.7-11.6-1-.5-2.3.1-2.3 1.3 0 4.9.9 9.6 2.7 14.2.8 1.7 3.8 1 3-.8z"/><path d="M449.7 438.7c9.1-5.2 19-7.7 29.4-7.6 1.9 0 1.9-3 0-3-11-.2-21.4 2.6-31 8-1.6.9-.1 3.5 1.6 2.6z"/><path d="M480.7 430.4c3.1-2.8 6.4-5.3 9.9-7.6-.7-.3-1.5-.6-2.2-.9 1 3.6 1.4 7.3 1.3 11.1 0 1.9 3 1.9 3 0 .1-4-.4-8-1.4-11.9-.2-.9-1.4-1.4-2.2-.9-3.7 2.4-7.2 5.1-10.5 8-1.5 1.4.7 3.5 2.1 2.2z"/><path d="M490.2 434.5c5.4 10 10.1 23.9-.4 32.4-1.5 1.2.6 3.3 2.1 2.1 11.6-9.4 6.9-24.9.9-36.1-.9-1.7-3.5-.1-2.6 1.6z"/><path d="M494.4 442c17.5 11.7 36-3.7 51.8-10.7 10-4.4 23.1-6.2 31 3 8.2 9.5 6.5 23.2 4.9 34.7-.3 1.9 2.6 2.7 2.9.8 1.4-10.4 2.8-21.4-1.7-31.2-3.9-8.6-11.7-13.7-21.1-14-22.4-.6-44.5 29.5-66.4 14.8-1.5-1.1-3 1.5-1.4 2.6zM499.7 471.3c-7.5 6.3-13.8 13.7-18.7 22.1-2.5 4.3-4.5 8.8-6.2 13.4-1.3 3.5-3 7.8-1 11.3 7.4 13.5 34-22.8 37.7-28.8 1-1.7-1.6-3.2-2.6-1.5-4 6.6-8.6 12.7-14 18.1-2.5 2.6-5.2 5-8 7.3-.8.7-4.4 4.3-5.7 4.2-1.6-1.7-3.3-3.3-4.9-5 .3-1.1.6-2.2 1-3.2 4.7-14 13.4-26.3 24.7-35.7 1.3-1.4-.8-3.5-2.3-2.2z"/><path d="M567.9 449.2c-6.5 5-13.5 10.8-15.5 19.1-1.6 6.3-.1 13.2 5.2 17.3l.3-2.4c-3.6 2-7.1 4.4-10.3 7.1-1.7 1.5-6 4.3-6 6.9-.1 6 11.7 1.1 13.8.3 13.6-5.1 29.5-12.9 29.8-29.6 0-1.9-3-1.9-3 0-.2 12.8-11.5 20.2-22.1 24.6-2.1.9-4.2 1.7-6.3 2.5-1.4.5-2.9 1.1-4.3 1.5-1.3.3-3.8 1.3-3.8.1.1-1.5 4.3-4.3 5.4-5.2 2.6-2.1 5.4-3.9 8.3-5.5.8-.4 1.1-1.8.3-2.4-13.2-10.3 1.6-25.4 10.3-32.2 1.6-1.2-.5-3.3-2.1-2.1z"/><path d="M511.5 490.9c14.2.2 28-2.9 40.9-9 1.7-.8.2-3.4-1.5-2.6-12.4 5.9-25.7 8.7-39.4 8.5-1.9.1-1.9 3.1 0 3.1zM451.2 470.9c-7.2 2.9-15.9 7.2-15.8 16.2.1 9.4 12.6 12.1 19.8 13.4 7.9 1.5 21.2 1.9 26.7-5.5 5.5-7.6-4.4-11.7-10.4-12.6-1.9-.3-2.7 2.6-.8 2.9 1.9.3 6.8.8 8 2.5 0 2.1.1 4.1.1 6.2-.7.5-1.5 1-2.2 1.5-1.6.9-3.4 1.4-5.1 1.9-6.2 1.6-12.7 1-18.8-.6-5.3-1.3-14.6-3.4-14.2-10.4.4-7.1 8-10.4 13.6-12.7 1.7-.6.9-3.5-.9-2.8zM578.4 340.8c-8.5 3.2-16.8 9.8-19.3 18.9-2.9 10.6 5.4 15.2 11.3 22.3 4 4.8 6.9 10.7 6.1 17.1-1 7.7-6.6 9.6-12.2 13.6-4.8 3.5-7.6 11.7-.3 14.1 1.8.6 2.6-2.3.8-2.9-9.4-3.1 5.9-11.3 7.7-12.6 2.6-1.8 4.6-4.2 5.8-7.1 2.4-5.8 1.5-12.2-1.3-17.6-1.6-3.1-3.7-5.8-6-8.4-3.2-3.4-7.9-6.4-9.2-11.1-3-10.6 8.8-20.2 17.4-23.4 1.8-.7 1-3.6-.8-2.9z"/><path d="M577.8 342.4c1.9 5.5-3.4 9.2-5.9 13.5-1.6 2.7-2.3 5.8-2 8.9.7 8 7.5 11.7 12.4 17.1 8.6 9.3 2.6 21.1-4.4 29.2-1.9 2.2-4.3 4.4-4.8 7.4-.6 3.9 2.9 7.5 1.5 11.3-.7 1.8 2.2 2.6 2.9.8 1.3-3.6-.9-6-1.3-9.5-.6-5 4.9-8.9 7.6-12.5 4.7-6.5 7.8-15.1 4.6-22.9-3.3-7.9-13.7-11.2-15.3-19.9-1.8-9.6 10.9-14.5 7.7-24.1-.8-1.9-3.7-1.1-3 .7z"/><path class="st1" d="M495.2 440.8c1 6.4.1 12.6-2.3 18.5-.4.9 1.1 1.3 1.4.4 2.6-6.2 3.3-12.7 2.3-19.3-.1-1-1.5-.6-1.4.4zM476.4 472.9c3.8-1.1 7.2-2.8 10.3-5.1.8-.6 0-1.9-.8-1.3-3 2.3-6.3 4-10 5-.9.2-.5 1.7.5 1.4zM447.2 452.1c2.5 6.4 11.8 4.9 11.9-2.1 0-1-1.5-1-1.5 0-.1 5.2-7.1 6.6-9 1.7-.3-.9-1.7-.5-1.4.4zM473.3 445.7c1.4 2.4 4.3 3.5 7 2.6 2.9-.9 4.4-3.8 4.5-6.7 0-1-1.5-1-1.5 0-.1 2.1-1.1 4.4-3.3 5.2-2 .8-4.3 0-5.5-1.9-.4-.7-1.7 0-1.2.8zM485.1 422.9c-2 1.8-3.4 4-4.2 6.5-.2.7.6 1.1 1.1.8.3-.2.5-.3.8-.4.6-.3 1.1-.1 1.5.6-.4.9.9 1.6 1.3.8.5-.9.3-1.9-.6-2.6-1.2-.9-2.6-.3-3.8.4.4.3.7.6 1.1.8.7-2.3 2-4.3 3.9-5.9.7-.6-.4-1.7-1.1-1zM440.5 433.4c1.6 1.8 3 3.8 4 6 .3-.4.6-.7.8-1.1-2.3-.4-3.8 1.5-2.8 3.6.4.9 1.7.1 1.3-.8.4-.5.8-.9 1.1-1.4.7.1 1.1-.5.8-1.1-1.1-2.3-2.6-4.4-4.3-6.3-.5-.7-1.5.4-.9 1.1zM467.5 458.3c.1-.2.1-.4.2-.7-.2.2-.4.5-.6.7-.1 0 .5 1.7.5 1.9.1.6.2 1.3 0 1.9-.3.9-1.3 1.6-2.2 1-.8-.6-1.5.7-.8 1.3 1.6 1.1 3.8-.1 4.4-1.9.4-1.3 0-2.8-.5-4.1-.4-.9-.8-1.8-1.9-1.6-.3.1-.5.4-.6.7 0 1.6 2.6 2.5 2.8.7.2-1.9-2.4-2.2-2.9-.4-.1 1 1.4 1.4 1.6.5z"/><path class="st1" d="M467.4 458.2c.7 1.9 2 3.8 4.1 4.3 1.7.4 3.7-.3 4.5-1.9.4-.9-.9-1.6-1.3-.8-.6 1.2-2 1.6-3.2 1.1-1.3-.5-2.1-1.9-2.6-3.1-.4-.9-1.9-.5-1.5.4zM448.5 473.3c11.2-.7 21.8-.4 30.7 7.2.7.6 1.8-.4 1.1-1.1-9.3-7.9-20.1-8.3-31.8-7.7-.9.1-.9 1.6 0 1.6zM490.7 477.9c-3.7 3.7-6.6 7.9-8.7 12.7-.4.9.9 1.6 1.3.8 2.1-4.6 4.9-8.8 8.5-12.4.6-.7-.4-1.8-1.1-1.1zM563 448.9c-6.9 6.2-12.8 14.4-9.8 24.1.3.9 1.7.5 1.4-.4-2.8-9.2 2.9-16.8 9.4-22.6.7-.6-.3-1.7-1-1.1zM478.6 507.2c9.1 10.3 24.4-14.4 27.2-20.8.4-.9-.9-1.6-1.3-.8-2.1 4.9-4.8 9.4-8.4 13.4-3.2 3.6-11.6 12.7-16.4 7.2-.7-.8-1.8.2-1.1 1zM514.4 488.1c10.9.7 21.2-2.5 29.7-9.3.8-.6-.3-1.7-1.1-1.1-8.2 6.5-18.2 9.5-28.7 8.8-.8 0-.8 1.5.1 1.6zM553.2 482.1c-2.1.8-9.1 4.7-6.6 7.8 1.2 1.6 4.6 1.1 6.2.9 2.6-.3 5-1.2 7.2-2.6.8-.5.1-1.8-.8-1.3-2.7 1.6-5.7 2.6-8.9 2.5-.5 0-1.7.1-2-.2-1.2-.9.4-2.4 1-3 1.2-1.2 2.7-2.1 4.3-2.7.9-.3.5-1.7-.4-1.4zM584.7 453.8c.2 7.3-1.4 14.1-4.9 20.5-.5.8.8 1.6 1.3.8 3.6-6.6 5.3-13.7 5.1-21.3 0-1-1.5-1-1.5 0zM459.1 501.7c5 .9 10.1 1.2 15.2.7 1-.1 1-1.6 0-1.5-5 .5-9.9.3-14.8-.6-.9-.2-1.3 1.2-.4 1.4z"/></g><g id="chair"><path class="st1" d="M974 740c-1.5-7.1 15.3-16.4 22.5-20.4 19.1-10.6 37.2-10.5 56.8-10.3 14.8.1 29.8.4 48 7.5 10.1 4 31.1 12.2 30.3 19-2.1 18.1-153.4 24.5-157.6 4.2z"/><path d="M973.3 740c19.2 5.4 47.8 11 82.6 9.4 31.9-1.5 57.9-8.6 75.8-15-.7 12.8-1.3 25.6-2 38.3-19.5 5.1-44.9 9.8-74.9 10.5-33.4.8-61.6-3.7-82.6-8.6.3-11.5.7-23.1 1.1-34.6z" stroke="#000" stroke-width="2" stroke-miterlimit="10"/><path d="M1045 774.1v216c0 1.9 3 1.9 3 0v-216c0-1.9-3-2-3 0z"/><path d="M1044.2 781.6v209.3c0 3.9 6 3.9 6 0V781.6c0-3.9-6-3.9-6 0z"/><path d="M1043.1 989.6c-21.9 16.1-42.7 33.5-62.3 52.3-2.8 2.7 1.5 6.9 4.2 4.2 19.2-18.5 39.6-35.6 61-51.4 3.2-2.2.2-7.4-2.9-5.1z"/><path d="M1047.2 993.9c19.7 15.8 37.8 33.4 54 52.8 2.5 3 6.7-1.3 4.2-4.2-16.2-19.4-34.3-37-54-52.8-2.9-2.4-7.2 1.8-4.2 4.2z"/><path d="M1043.9 993.9c-2.1 21.8-2.4 43.6-.9 65.4.3 3.8 6.3 3.9 6 0-1.5-21.8-1.2-43.7.9-65.4.4-3.8-5.6-3.8-6 0z"/></g><g id="girl"><g id="leg_back"><path d="M938.8 851.6c4 14.4 7.9 28.8 11.9 43.3 3.2 8.3 6.3 17.8 8.9 28.4 2.6 10.8 4.3 20.8 5.3 29.6-25.3 21.5-36.5 34.5-33.8 39.1 3.2 5.4 25.5-.8 67-18.4 1.4-22.3 2.8-44.6 4.1-67-6.1-2.4-12.2-4.7-18.4-7.1-4-20.1-7.9-40.3-11.9-60.4-10.9 4.2-22 8.4-33.1 12.5z"/><path class="st11" d="M1047.8 633.6c-15.2.7-21 5.5-63.7 28.2-42.5 22.7-48.1 23.9-69.3 37.7-15.4 9.9-27.6 19.1-36.3 25.9 7.2 25.2 15.9 52 26.6 80 13.5 35.6 28.2 67.8 42.7 96.5 15.3-5.5 30.6-11 46-16.5-7-40.3-14-80.5-21-120.8 47.6-21.8 78.6-47.4 97.6-65.9 30.1-29.4 29.1-40.5 27.4-45.5-5-14.9-31.6-20.4-50-19.6z"/><path d="M1062.6 664.9c-26.2 10.7-44.8 22.2-52.4 27.1-38.8 24.7-58.1 37.1-63.9 50-2.8 6.2-6.7 18.2 6.6 81.4 6.1 28.9 12.5 52.8 17.5 69.9 7.6-2.6 15.3-5.2 22.9-7.8-7-40.2-14.1-80.4-21.1-120.5 22.4-10 52.4-26.4 82.6-53 21.5-19 50.3-49.8 45.2-56.7-3.2-4.3-18.6 1.9-37.4 9.6z" opacity=".11" fill="#333"/></g><g id="leg_front"><path d="M902 883.9c4 14.4 7.9 28.8 11.9 43.3 3.2 8.3 6.3 17.8 8.9 28.4 2.6 10.8 4.3 20.8 5.3 29.6-25.3 21.5-36.5 34.5-33.8 39.1 3.2 5.4 25.5-.8 67-18.4 1.4-22.3 2.8-44.6 4.1-67-6.1-2.4-12.2-4.7-18.4-7.1-4-20.1-7.9-40.3-11.9-60.4-11 4.2-22 8.4-33.1 12.5z"/><path class="st11" d="M1015 660.3c-19.8 7.4-35.1 14.8-47.5 21.2-25.4 13-60.5 32.8-100.9 61.6-5.7 24.3-11.2 63-2 108.7 4.6 22.6 11.7 41.7 18.8 56.8 6.5 2.7 18.9 6.8 34.6 5.8 22.8-1.5 38.1-12.9 43.5-17.3-5.1-15.2-9.9-32.3-13.9-51-4.8-22.4-7.5-43.1-8.9-61.6 22.5-10.7 42.2-18 57.4-23.1 35.2-11.7 48.8-11.8 74.2-25 20.5-10.7 36.4-19.2 44.5-37.5 6.9-15.6 9.4-41-4-52.9-16.7-15.2-51.9-2.1-95.8 14.3z"/><path d="M1082.5 660.1c-15.1 17-16.3 27.2-26.5 41-11 14.8-23.4 21.8-44 33.2-42.5 23.3-87.5 33.7-116.3 38.6 7.3 23.5 14.3 48.8 20.5 75.9 5.1 22.2 9.3 43.6 12.7 63.9 4.2-1 9.1-2.4 14.5-4.8 7.2-3.2 12.8-7 16.9-10.2-1.3-6.4-3.5-16.5-6.6-28.9-5.5-22.3-8.3-29.2-10.8-42.2-1.9-9.6-3.9-23.9-3.6-42.2 4.2-2.2 11.4-5.8 20.5-9.6 34.2-14.4 51.5-13.8 90.4-28.9 1.4-.6 12.3-4.8 25.9-12.1 13.6-7.2 21.4-12.8 28.3-19.9 2.3-2.3 3.7-3.8 5.4-6 9.5-12.6 10-26.7 10.2-35 .3-12.2.7-29.9-7.2-33.2-8.9-3.7-23 12.2-30.3 20.4z" opacity=".13" fill="#333"/><path class="st14" d="M1045.4 740.8c-.3-1-23.4 4.8-46.7 11.7-34 10.1-61.7 20.4-81.3 28.2 5.2 17.8 10.3 36.3 15.1 55.7 5.9 24 10.9 47.1 15.1 69.2 3.9-2.3 7.8-4.5 11.7-6.8-7.6-23.6-14.4-51.1-18.4-82-1.5-11.2-2.4-22-3-32.4 5.3-2.4 12.8-5.8 21.8-9.8 50.8-22.1 86.1-32.5 85.7-33.8z"/></g><g id="hand_back"><path class="st1" d="M907.4 499.8c-.4-2.6 2.6-5.7 5.7-6.9 6.7-2.7 13 3.7 15 1.6 1.8-1.8-.9-9.1-6.1-14.2-7.2-7.2-16.8-7.9-16.7-11.8 0-1.4 1.3-3.4 2-4.5 1.3-1.8 2.1-1.9 2.4-3.2.5-1.7-.7-2.5-.4-4.5.1-1.1.8-2.9 2-3.7 3-1.8 6.9 4.3 12.2 3.2 3.3-.7 3.4-3.4 6.9-4.1 2.9-.6 5.2.9 9.3 3.2 3.3 1.9 6.4 3.7 8.9 7.3 2.3 3.3 2.5 5.9 4.1 6.1 1.4.1 3-1.6 3.2-3.2.3-2.1-2.1-3-4.5-6.9-1.1-1.8-3.6-5.9-2-8.5 1-1.6 3.3-2.4 5.3-2 3.1.6 4.7 4 7.3 9.7 5.3 11.9 6.9 16.2 6.9 16.2 4.3 11.5 6.4 17.3 7.7 19.1 3 4.1 7.3 6.7 15.8 11.8 3.3 2 10.8 6.3 21.5 10.6 6.8 2.7 13.1 4.7 18.7 6.1 1-1.9 2.3-4.9 3.7-8.5 3.6-9.7 4.4-17.1 5.7-29.2 2.2-20.2 3.3-30.4 6.9-36.1 2.3-3.7 5.7-9.1 12.2-11 8.3-2.4 17.5 2.1 22.3 8.1 1.4 1.7 4.3 6 4.9 20.7.2 5.9.2 17.4-4.1 35.7-3.5 15.4-5.3 23.1-11.4 32.1-3.2 4.7-8.4 12.5-17.9 17.5-14 7.4-28.6 4-37.4 2-26.1-6-42.4-23.7-49.1-32.1l-12.6-1.2c-4.3-.7-8.7-1.4-13-2-4.6-3.9-9.2-7.9-13.8-11.8-9 1.7-14.8-.3-17.5-1.6-3.7-1.8-4.1-3.5-4.1-4z"/><path class="st2" d="M930.7 507.9c.1 0 .2.1.3.1.6.3 1.3.3 1.8-.2l.2-.2c.7-.7.5-1.8-.3-2.4-5.2-3.1-11.9-.7-17.4-1.8-1.5-.1-2.8-.7-4-1.7-1.6-1-1.7-2.1-.4-3.4 1.2-2.4 2.6-2.4 5.1-2.8 4.2-.7 8.4-.1 12.3 1.5 1.8.8 3.3-1.8 1.5-2.6-4.6-2-9.5-2.8-14.5-1.9-3.2.5-8.4 1.6-8.8 5.4-.4 3.4 2.6 6.4 5.4 7.7 5.9 2.7 13.5-1.3 19.3 2.2l-.3-2.4-.2.2c.6-.1 1.2-.2 1.8-.2-.1 0-.2-.1-.3-.1-1.8-.8-3.3 1.8-1.5 2.6z"/><path class="st2" d="M930 494.7c.7-4.8-2.4-9.1-5.1-12.8-3-4.2-6.7-8.4-11.4-10.7-1.2-.6-2.5-1-3.6-1.6-3.1-.9-3.1-2 0-3.3 1-1.8 2.2-2.3 3.7-1.5 2.7.1 6.4 2.7 8.8 4.2 5.6 3.4 10.2 8 13.6 13.5 1 1.6 3.6.1 2.6-1.5-3.8-6.2-9.1-11.3-15.4-15-4.5-2.6-12-6.9-17.2-3.7-5.1 3.1-1.5 7.9 2.3 10 4.2 2.4 7.7 4 11.1 7.8 2.8 3.1 8.3 9.4 7.6 14-.1 1.7 2.8 2.5 3 .6z"/><path class="st2" d="M911 459.2c-.3-3.3 1-4.9 3.7-4.7 1 .1 1.9.2 2.9.3 1.9.4 3.9 1.2 5.7 2 2.8 1.2 5.4 2.7 7.9 4.5 5.3 3.8 9.5 8.8 12.3 14.7.8 1.7 3.4.2 2.6-1.5-4.9-10.2-14-17.8-24.6-21.6-4-1.4-9.3-2.5-12.8.7-2.8 2.5-2.1 6.1.7 8.2 1.7 1.1 3.2-1.5 1.6-2.6z"/><path class="st2" d="M926.9 457c3.4-3.5 6.8-3.3 11-1.2 2.5 1.3 5.1 2.9 7.2 4.7 3.4 3 4.6 7.4 7.9 10.3 1.4 1.3 3.6-.8 2.1-2.1-2.9-2.6-4-6.5-6.7-9.3-2.4-2.4-5.4-4.2-8.3-5.8-5.7-3.2-10.5-3.7-15.3 1.3-1.3 1.3.8 3.5 2.1 2.1z"/><path class="st2" d="M955.8 469.8c1-2.4 1-4.5 0-6.9-1.3-3.1-6.2-8.1-4.7-11.8 2.3-5.8 8.1 3.2 9.3 5.9 1.7 3.7 2.7 7.7 3.7 11.6.5 1.9 3.3 1.1 2.9-.8-1.6-6.7-4.9-21.2-13.8-21.8-3.3-.2-5.1 2-5.1 5.1 0 2.2.4 4.3 1.2 6.3 1.4 3.3 5.6 7.1 3.9 10.9-.8 1.8 1.8 3.3 2.6 1.5zM930.8 507.3c5.7 3.6 9 10.4 15.8 12.1 7.3 1.9 15.9.5 23.3.3 1.9-.1 1.9-3.1 0-3-7.1.2-15.6 1.7-22.5-.2-6.1-1.7-9.7-8.5-15-11.8-1.7-1-3.2 1.6-1.6 2.6z"/><path class="st2" d="M964 468.6c2.1 3.8 4.2 7.5 6 11.4 1.9 4 2.9 8.3 4.7 12.4 2.2 5 6.3 8.1 11.4 9.7 1.8.6 2.6-2.3.8-2.9-7.9-2.5-9.3-8.3-12-15.3-2.2-5.8-5.3-11.4-8.3-16.8-1-1.7-3.5-.2-2.6 1.5zM961.6 519.8c11.4 4.3 19.8 12.9 29.1 20.5 8.6 7.1 18.2 12.3 29.2 14.7 20.1 4.3 44.1-1.6 55-20.3 1-1.7-1.6-3.2-2.6-1.5-11.8 20.2-39.3 23.9-59.7 16.6-19.4-6.9-31-25.7-50.2-32.9-1.8-.7-2.6 2.2-.8 2.9z"/><path class="st2" d="M976.5 494.7c19 14 39 27 63.1 29.1 1.9.2 1.9-2.8 0-3-23.5-2-43.1-15.1-61.6-28.7-1.6-1.1-3.1 1.5-1.5 2.6z"/><path class="st2" d="M1068.6 436.5c-5.6-2.6-12.4.6-16.4 4.7-5.3 5.5-6.9 13.8-8.3 21.1-3.5 18.7-3.1 38.2-11 55.9-.8 1.7 1.8 3.3 2.6 1.5 5.9-13.1 7.5-27.1 9.1-41.2.9-7.8 1.9-15.6 3.9-23.2.9-3.4 2-6.9 4.1-9.9 2.8-4 9.3-8.7 14.4-6.4 1.8.9 3.3-1.7 1.6-2.5zM1086.4 453.3c2.3 28-2.8 55.8-14.4 81.4-.8 1.7 1.8 3.3 2.6 1.5 11.8-26 17.1-54.4 14.8-82.9-.2-1.9-3.2-1.9-3 0z"/><path class="st4" d="M1078.9 447.4c-7.5 2.8-2.5 21.8-9.1 50.5-4.7 20.6-11 27-12.7 28.6-1.4 1.3-11.1 10.5-25.5 11.1-12 .5-16.9-5.3-47.7-22.3-18.9-10.4-26.1-13.2-31.8-15.1 0 0-17-5.6-36.6-2.8-6.3.9-6.7 2-6.8 2.4-.1 1.4 4.6 3.2 8.4 4 7.5 1.5 10-1.2 14.3.8 4 1.9 2.7 4.7 7.2 8.7 6.1 5.5 14.5 5.8 19.9 6 4.2.1 7.6-.3 9.9-.8 2.8 3.3 7.1 7.8 12.7 12.7 7.8 6.8 17.8 15.4 32.6 19.9 7.6 2.3 21.3 6.5 36.6.8 13.7-5.1 21-15.4 23.9-19.5 3.2-4.6 5.3-9.2 11.1-37.4 6.9-33.5 6.8-41.2 2-45.3-.3-.1-4.6-3.7-8.4-2.3z"/></g><g id="torso"><path class="st1" d="M1036.5 405.2c-7.1 3.3-11.1 8.7-15 14.2-10.4 14.3-12.9 29.2-13.8 36.1-2.5 18.4-1.5 33.6 5.7 98.7 1.3 11.3 2.6 23.4-.4 38.6-2.3 11.8-7.2 24.9-8.5 28.4-2.7 7.3-5.3 13.2-7.3 17.5 3.5 5.7 9.3 13.9 18.7 21.5 17.1 14.1 35.2 17.6 43.1 18.7 19.1 2.6 33.7-2 41.4-4.5 14.8-4.8 25.5-11.9 32.1-17.1-.3-12.1-.9-28.7-2.4-48.3-1.5-19.4-3.4-43.3-8.9-73.9-3.9-21.4-8.8-38.9-18.7-73.9-8.4-29.7-12-38.9-21.5-46.7-11-8.8-29.6-16.2-44.5-9.3z"/><path class="st2" d="M1025.4 411.9c-45.3 54.7-4.4 129.1-13.1 191.2-.3 1.9 2.6 2.7 2.9.8 4.7-33.5-3.6-66.5-7-99.7-3.2-31-1.5-65.1 19.3-90.2 1.3-1.4-.8-3.5-2.1-2.1z"/><path class="st2" d="M1013.4 569.4c-.9 12-2.8 23.9-5.8 35.6-1.4 5.3-3 10.6-4.7 15.7-1 2.9-2.1 5.7-3.2 8.6-1 2.6-2.7 5.4-3.2 8.2-.5 3.4 1.6 6 3.5 8.6 2.8 3.8 5.8 7.3 9.1 10.6 5.6 5.6 12.1 10.3 19 14.1 22.6 12.4 49.7 14 74.1 5.6 11.7-4.1 22.8-10.1 32.5-17.7 1.5-1.2-.6-3.3-2.1-2.1-22.1 17.2-50.4 25.5-78.1 20.6-5.3-1-13.6-3.4-19.5-6.2-6.7-3.1-13-7-18.6-11.7-2.9-2.4-5.7-5.1-8.3-7.9-3.4-3.7-9.5-9.2-8.4-14.7.5-2.7 2.4-5.7 3.4-8.3 1-2.6 1.9-5.1 2.8-7.7 1.9-5.5 3.5-11 4.9-16.6 2.8-11.4 4.6-22.9 5.5-34.6.2-2-2.8-2-2.9-.1z"/><path class="st2" d="M1077.5 413.5c6.7 4.7 10.1 12 13.2 19.3 3.4 8 6.5 16.1 9.4 24.3 5.4 15.4 9.8 31.2 13.4 47.2 7.3 32.3 11.5 65.2 14.4 98.1 1.6 18.6 2.8 37.1 3.9 55.7.1 1.9 3.1 1.9 3 0-4-68.3-9.3-137.7-32-202.7-3-8.7-6.4-17.3-10-25.7-3.2-7.3-7-14.2-13.6-18.8-1.8-1.1-3.3 1.5-1.7 2.6z"/><path class="st14" d="M1069.4 413.2c-7.2 8.4 11.3 27.9 20.3 59.7 3 10.7 1.7 11.3 5.2 41.8 2.8 25.2 5.4 31.8 6.2 46.9.9 16.6-.3 29.2-1 37-1.8 18.5-6.5 47.5-20.7 82.3 7.7-1.5 17.1-4 27.4-8.4 11.3-4.7 20.3-10.3 27-15.1-.6-9.4-1.6-23.2-3.2-39.8-1.1-11.7-5-51-14.7-106.6-.5-3.1-5.8-32.8-18.3-68.4-5.4-15.3-12.2-32-21.5-32.2-.4.1-4.3 0-6.7 2.8z"/><path class="st14" d="M1115.1 503.1c-2 .1-2.1 29-2 41.4.3 29 3 40.3 3.2 55.3.2 17.3-2.8 42.3-18.3 73.6 11.8-5.2 23.6-10.3 35.4-15.5-11.6-125.9-16.2-154.9-18.3-154.8z"/><g class="st15"><path class="st6" d="M1011.2 587.7c0 13.4-3.1 25.6-8 38-3.3 8.2-5.5 18.4 2 25.1 1.4 1.3 3.6-.8 2.1-2.1-9.3-8.3-1.2-21.1 2-30.3 3.4-9.9 5-20.2 4.9-30.6 0-2-3-2-3-.1z"/></g></g><g id="hand_front"><path class="st1" d="M1027.2 425.1c-4.1 1.6-6.5 4.5-9.7 8.5-7.8 9.6-10.3 19.3-12.2 26-1.5 5.2-8 27.4-16.7 44.3-3.3 6.4-8.8 15.7-17.9 26-6.1 5.3-11.9 8.7-16.2 11-5.1 2.6-11.4 5.8-20.3 7.3-9.6 1.6-16.9.3-18.7 0-1.8-.3-8.3-1.6-15.8-5.7-7.1-3.8-11.1-6-13-10.6-1.9-4.6.4-6.4-2-13-1-2.8-2.6-7-6.5-8.5-2.1-.8-6.2-1.4-8.1 1.2-1.3 1.8-1.3 4.5 0 6.9-5.9-4.4-11.2-7.4-15-9.3-4.2-2.1-11.3-5.2-20.3-6.1-6.8-.7-7.9.6-8.1 1.2-.5 1.2.6 2.9 1.6 4.1-2.8-.7-7.5-1.3-12.6.4-2.4.8-5.9 2-6.9 4.9-.6 1.7.1 2.5-.8 4.1-1.2 2-2.8 1.5-4.5 3.7-1 1.2-2 3.4-1.2 4.9.8 1.4 3.1 1.5 5.3 1.6 5.6.2 10.3.3 14.2.4-2.9.5-20.4 3.7-20.7 9.3-.1 1.4 1 2.9 2 3.7 2.2 1.6 5 .2 15.4-2.4 2.9-.7 4.3-1.1 5.3-1.2 1.6-.2 7.9-.9 13 2 5 3 3.1 6.3 8.5 11 3.5 3 7.1 4.1 13.4 6.1 4.4 1.4 8.2 2.1 11 2.4 2.4 1 6 2.6 10.2 4.9 4.7 2.6 7.9 5 8.9 5.7 1.4 1 16.7 11.9 31.7 15.4 11.1 2.6 19.7.8 34.5-2.4 15.6-3.4 27.2-8.7 32.5-11.4 28.3-14.2 44.4-34.6 49.1-41 16.8-22.7 21.7-44 24.4-56.1 4.9-22.5 1.3-30.3-.4-33.3-6.6-11.7-22.3-20.4-33.4-16z"/><path class="st2" d="M871.8 518c-2.5-2.3-1.9-6.3 1.7-6.3 1.9 0 3.9.6 5.5 1.7 4.4 3 3.8 7.8 4.4 12.5.6 4.9 3.3 8.9 7 12.1 8.7 7.5 20.7 10.9 32 11.3 25.9 1.1 48.8-13.3 67.3-30.1 1.4-1.3-.7-3.4-2.1-2.1-22.1 20.1-53.2 37.6-83.6 25.4-7-2.8-15.3-7.5-17.3-15.3-1.5-5.8.1-11.3-5.1-15.6-3.3-2.7-8.7-4.1-12.6-1.9-4.8 2.7-2.3 7.5.8 10.4 1.3 1.4 3.4-.7 2-2.1z"/><path class="st2" d="M1022.8 425.8c-6.9 5.9-11.2 13.6-14.5 21.9-4.2 10.4-7.5 21.3-11.1 31.9-3.8 11.1-7.3 22.3-13.5 32.3-5.9 9.6-13.6 17.8-22.6 24.5-1.5 1.1 0 3.7 1.5 2.6 17.1-12.7 27.4-29.7 34.3-49.6 3.9-11.2 7.6-22.5 11.6-33.7 3.6-10.3 7.9-20.6 16.4-27.8 1.5-1.2-.6-3.3-2.1-2.1zM828.6 507.2c-1.8-4.4 12.6-1.3 13.9-.9 3.6 1.1 7.1 2.6 10.5 4.1 6.4 2.9 12.1 6.5 17.3 11.3 1.4 1.3 3.5-.8 2.1-2.1-8.2-7.6-18.5-12.9-29.1-16.2-3.5-1.1-21.5-4.9-17.6 4.6.8 1.7 3.7 1 2.9-.8z"/><path class="st2" d="M810 515.6c2-7 12.7-5.8 17.9-4.5 5.9 1.5 11.4 4.2 16.8 7 1.7.9 3.2-1.7 1.5-2.6-7.7-4-15.9-8.1-24.8-8.4-5.8-.2-12.6 1.4-14.4 7.6-.4 2 2.5 2.8 3 .9z"/><path class="st2" d="M802.4 524.5c4.5-6.2 11.3-6.7 18.4-5.5 5.3 1 10.8 2.1 15.4 5 1.6 1 3.2-1.6 1.5-2.6-6.2-3.9-14.5-5.6-21.7-6-6.7-.4-12.3 2.2-16.2 7.6-1.1 1.5 1.5 3 2.6 1.5zM823.8 528.1c-5.5.2-10.8 1.1-16.1 2.8-2.9 1-7.1 2.1-8.2 5.3-.8 2.4.5 5 2.5 6.3 3.6 2.4 8.4.5 12-.8 5.9-2.1 12.7-5.3 18.9-2.2 4.9 2.4 7.3 7.6 11.1 11.3 6.4 6.3 15.4 9.2 24.3 8.4 1.9-.2 1.9-3.2 0-3-8.1.8-16.3-1.7-22.2-7.5-4.3-4.2-7-10.1-12.9-12.4-6.7-2.6-13.6.2-20 2.5-1.2.4-3.5 1.7-4.9 1.5-5.2-3.2-5.7-5.2-1.5-6 1.1-.4 2.2-.8 3.4-1.1 4.4-1.3 9-2 13.6-2.2 2 0 2-3 0-2.9z"/><path class="st2" d="M799.7 526.4c7 4.8 15.4 1.3 23.1 3.7 1.8.6 2.6-2.3.8-2.9-7.3-2.4-15.7 1-22.3-3.4-1.6-1-3.1 1.6-1.6 2.6zM865.4 558.9c9.3 1.6 16.6 8.2 24.3 13.2 7.4 4.8 15.2 9.2 23.7 11.9 16.9 5.5 35.7 2.3 52.4-2.7 32.4-9.6 60.9-30.8 78.5-59.7 9.9-16.2 16.1-34.3 18.4-53.2.2-1.9-2.8-1.9-3 0-4 33-21.1 63.8-46.9 84.9-13.2 10.8-28.5 19-44.7 24.2-16.4 5.3-35.4 9.1-52.3 4.1-9.3-2.8-17.9-7.7-26-13-7.5-4.9-14.6-11-23.6-12.6-1.9-.3-2.7 2.5-.8 2.9z"/><path d="M1049.5 442.3c-7.5 1.8-6.5 18.7-11.9 37-6.2 21.1-16.7 35.1-24.3 45.3-11.1 15-21.9 29.5-41.8 38.2-3.3 1.4-20.3 8.6-42.9 6.4-15.3-1.5-32.4-9.8-66.4-26.2-13.6-6.6-25-12.6-40.2-10.7-7.8.9-19.2 3.8-19.1 6.4.1 1.5 4.3 3.1 8 2.8 3.7-.3 4.8-2.3 8.4-3.6 5.7-2 11.4.3 13.5 1.2 7.1 2.9 7.7 7.7 13.5 12.3 3.8 3.1 10.2 6.3 21.1 6.4 3.4 1.4 8.6 3.8 14.3 7.6 7.2 4.7 11.6 9 13.1 10.3 12.4 11.2 37 9.7 45.7 9.5 32.2-.7 54.7-17.3 66.8-26.2 29.2-21.5 41.5-47.5 44.9-55.3 2-4.6 19.7-44.9 5.6-58.1-.5-.6-4.4-4.3-8.3-3.3z" opacity=".15" fill="#333"/><g class="st15"><path class="st6" d="M1058.2 466.2c-3.3 18.3-8.6 36.1-16 53.1-.8 1.8 1.8 3.3 2.6 1.5 7.5-17.3 13-35.3 16.3-53.8.3-1.9-2.6-2.7-2.9-.8z"/></g><g class="st15"><path class="st6" d="M803.5 522.5h-.4c-.7 0-1.3.5-1.4 1.1 0 .2-.1.3-.1.5-.2.7.2 1.3.7 1.7 2.1 1.5 6.3.8 8.7 1.1 5.1.5 10.2 1.5 15.2 2.7 1.9.4 2.7-2.4.8-2.9-4-1-8-1.7-12.1-2.3-1.3-.2-2.6-.3-3.9-.5-1.6-.2-5.9.3-7.2-.7.2.6.5 1.1.7 1.7 0-.2.1-.3.1-.5-.5.4-1 .7-1.4 1.1h.4c1.8 0 1.8-3-.1-3z"/></g><g class="st15"><path class="st6" d="M809.2 517.3c8.7-4.6 19 1.3 26.5 5.5 1.7.9 3.2-1.6 1.5-2.6-8.6-4.8-19.8-10.6-29.6-5.5-1.6.9-.1 3.5 1.6 2.6z"/></g><g class="st15"><path class="st6" d="M828.7 508.3c3 1 6.1 1.7 9 2.9 3.2 1.3 5.2 3.7 7.3 6.4 1.2 1.5 3.3-.6 2.1-2.1-2-2.6-4.1-5.1-7.1-6.5-3.3-1.6-7-2.4-10.4-3.5-1.9-.7-2.7 2.2-.9 2.8z"/></g><g class="st15"><path class="st6" d="M834.5 539.2c7 7 15.7 12.1 25.3 14.6 1 .3 2.1.5 3.1.7.8.1 6.3 1.2.9.4-2.6-.4-5.2-1.4-7.6-2.3-6-2.4-11.2-6-15.7-10.6l-2.1 2.1c6.3 5 13 10.4 21 11.9 4.5.9 8.6-.1 12.6 2.5 4.6 3 8.8 6.5 13.2 9.7 1.6 1.1 3.1-1.5 1.5-2.6-6.1-4.5-12.8-11.9-20.8-12.1-10.2-.2-17.7-5.4-25.4-11.6-1.5-1.2-3.5.7-2.1 2.1 5.2 5.3 11.4 9.3 18.3 11.9 2.9 1.1 11.4 4.7 13.1.1 1.8-4.9-8.2-4.9-10.8-5.6-8.5-2.5-16.1-7.1-22.4-13.4-1.4-1.2-3.5.9-2.1 2.2z"/></g><g class="st15"><path class="st6" d="M1040.4 520.2c-15.9 22.6-37.1 40.9-61.9 53.2-1.7.9-.2 3.4 1.5 2.6 25.2-12.5 46.8-31.2 63-54.3 1.1-1.5-1.5-3-2.6-1.5z"/></g></g><g id="head"><path class="st17" d="M1028.3 397.9c.4 12.3-5.7 21.7-8 25.1-3.4 5.1-10.2 15.3-19.9 16.3-14.9 1.6-32.6-19-33-39.8-.3-17.8 12-39.6 29-40.2 17.6-.6 31.3 21.1 31.9 38.6z"/><path class="st1" d="M959.7 303.2c-9.8 13.5-8.3 28.3-7.8 31.9-.8 10.6-1.5 21.3-2.3 31.9 3.4-1 6.7-2 10.1-2.9.7 2.9 2 7.1 4.6 11.7 2 3.7 10.6 19.4 28 22.8 8.7 1.7 16.4-.4 21.1-2.3.8 2.5 2.9 7.9 8.1 12.7 5.5 5 11.4 6.6 14 7.2 5.6-14.2 11.9-34.4 14-59.2 1.9-23.1 3-36.7-5.9-49.8-11.4-16.8-34.2-25.3-54.3-21.5-4.7.9-19.6 3.7-29.6 17.5z"/><path class="st2" d="M951.8 328.7c-1.6 10.6-2.8 21.2-3.6 31.8-.2 2.1-1.3 6 1 7.3 2.7 1.6 8.5-1.8 11.2-2.7 1.8-.6 1-3.5-.8-2.9-1.7.6-3.5 1.1-5.2 1.7-.9.3-1.7.6-2.6.8-1.1.7-1.4.2-.8-1.4-.6-3 .6-7.5.9-10.5.7-7.8 1.7-15.6 2.8-23.4.3-1.8-2.6-2.6-2.9-.7z"/><path class="st2" d="M958.8 365.6c4.1 11.9 12.4 25.5 24 31.4 11.7 5.9 25.4 4.4 35.9-3.3 1.5-1.1 0-3.7-1.5-2.6-10 7.4-23.2 8.8-34.2 2.6-10-5.6-17.6-18.1-21.2-28.8-.7-1.9-3.6-1.1-3 .7zM968.8 334.9a5.66 5.66 0 01-1.4-4.8c-.8.2-1.7.4-2.5.7 1.4 1.6 2.4 3.5 3 5.6.1-.5.3-1 .4-1.5.5.1 1 .1 1.4.2-.9-1.7-3.5-.2-2.6 1.5.4.9 1.4 1.3 2.4 1 1.3-.4 1.5-1.5 1.1-2.7-.7-2.4-1.9-4.5-3.6-6.3-.7-.8-2.3-.4-2.5.7-.5 2.9.2 5.6 2.1 7.8 1.3 1.3 3.4-.8 2.2-2.2zM959.3 325.5c3.2-2.9 7.7-3.4 11.5-1.3 1.7.9 3.2-1.6 1.5-2.6-4.9-2.8-11-2.1-15.1 1.8-1.4 1.3.7 3.4 2.1 2.1zM975.4 347.8c0-.1-.1-.1-.1-.2.1.1.1.2 0 0 .1.1.1.3.1.2 0 .1-.2.1 0 0 0-.2 0-.2 0 0-.1 0-.1 0 0 0-.1-.1.1-.3 0-.1-.1.1.1-.1 0 .1-.1-.1-.4.1-.1 0h-.8c-.8-.3-.3-1.5.4-1.1-.7-.4-1.6-.2-2.1.5-.4.7-.2 1.7.5 2.1 1.1.6 2.6.3 3.3-.8.6-1.1.3-2.6-.9-3.3-1.2-.7-2.5 0-3.1 1.1-.5.9-.6 2.2.1 3.1.5.7 1.3 1 2.1.5.7-.4 1.1-1.4.6-2.1zM980.7 339.5c.1.1.3.2.3.4 0 .1 0 .4.1.2 0 .1-.1.3 0 .1.1-.3-.1.2 0 0 0-.1.2-.2 0 0l-.1.1c-.1 0-.1 0-.2.1.1 0 .1 0 0 0-.2 0-.3 0-.5-.1l-.3-.3c.2.2-.1-.2 0-.1v-.1-.1c0 .2-.1.1 0 .1 0-.1.1-.1 0-.1-.1.1 0 .1.1-.1-.1.1.1 0 .1-.1.2-.1.3-.1.2-.1h.2c-.8 0-1.5.7-1.5 1.5s.7 1.5 1.5 1.5c1.2 0 2.1-.9 2.3-2 .3-1.2-.3-2.6-1.5-2.9-1.1-.4-2.3.2-2.9 1.2-.6 1.2-.3 2.5.8 3.3.7.5 1.7.1 2.1-.5.3-.7-.1-1.5-.7-2zM983.7 348.7c-.5-.8-.4-1.4.1-1.8.1-.1.1-.1 0 0 .6-.3 1.5-.1 1.6.7-.2-.8-1.1-1.3-1.8-1-.8.2-1.2 1.1-1 1.8.3 1.3 1.7 1.6 2.8 1.1 1.1-.6 1.3-2 .5-2.9-.5-.6-1.6-.6-2.1 0-.7.6-.6 1.5-.1 2.1z"/><path class="st2" d="M966.7 378c6.2-1.2 11.5-5.3 14.1-11.1.8-1.7-1.8-3.3-2.6-1.5-2.3 5.1-6.8 8.7-12.3 9.7-1.9.4-1.1 3.3.8 2.9z"/><path class="st2" d="M976.5 367.3c2.5-.9 5-.2 6.8 1.8 1.3 1.5 3.4-.7 2.1-2.1-2.4-2.7-6.3-3.8-9.7-2.6-1.8.6-1 3.5.8 2.9zM1016 331.7c-1.4-3.1 4.7-7.4 7-8 3-.7 6.2.4 8.3 2.5 5.2 5.2.9 13.6-5.9 14.2-1.9.2-1.9 3.2 0 3 10.1-.8 15.5-13.7 6.9-20.3-3.6-2.8-8.5-3.5-12.6-1.3-3.8 2-8.3 7-6.3 11.4.8 1.7 3.4.2 2.6-1.5zM1012.6 397.1c3.9 7.3 8.3 14.7 16.3 17.9 1.8.7 2.6-2.2.8-2.9-7.2-2.9-11-10-14.5-16.5-.9-1.7-3.5-.2-2.6 1.5z"/><path class="st2" d="M1015.2 398.9c4.1-2.6 7.5-6 10.2-10.1.9-1.5-1.1-2.9-2.4-1.8-2.6 2.4-5.2 4.6-8.2 6.3l1.8 2.4c4-3.3 7.5-7.1 10.5-11.3l-2.7-1.2c-1.7 4.9-4.4 9.3-8.1 12.9-1.4 1.4.7 3.5 2.1 2.1 4.1-4 7-8.8 8.9-14.2.6-1.7-1.8-2.5-2.7-1.2-2.9 4-6.2 7.5-10 10.7-1.3 1.1.4 3.2 1.8 2.4 3.2-1.9 6-4.3 8.8-6.8l-2.4-1.8c-2.3 3.7-5.4 6.7-9.1 9-1.6 1-.1 3.6 1.5 2.6z"/><path class="st17" d="M946.5 334.8c-1.6-4.8-4.7-16.2-.9-29.7.9-3.3 3-9.5 7.8-16 2.9-3.9 13-17.7 30.2-19.2 3.5-.3 10.6-.4 19.2 3.7 4.5-1.1 11.8-2.2 20.6-.9 1.5.2 23.9 3.9 37 22.8 2.7 3.9 5.1 10.2 10.1 22.8 3.5 9.1 6.1 16.7 7.8 21.9 4.7 2.5 21 12.1 29 32.6 6.1 15.6 4.1 29.6 2.8 35.8-1.8 8.3-3.7 17.3-10.7 23.5-16 14-50.4 6.1-67.2-13.7-8.5-10-10.4-21.3-11.9-29.7-3.5-20.4 1.6-37.1 4.8-45.5.5 0 6.2-.3 9.4-5.3 2.3-3.6 2.6-8.5.1-12.3-2.9-4.4-8.3-5.7-12.7-4.5-6 1.6-8.1 7.3-8.3 7.8-3.6-.8-9.1-2.6-14.7-6.5-8.9-6.3-13-14.5-14.6-18.3-4.1.5-15.2 2.3-25.1 11.4-8.1 7.2-11.4 15.3-12.7 19.3z"/><path class="st14" d="M1011.8 329c1.8 4.4 4.2 11.3 4.8 20 .4 6.1 1.4 21.1-8.3 34.6-2.5 3.4-7.6 9.6-16.8 14.3 3 .5 7.6.8 13-.3 7.7-1.6 13-5.4 15.6-7.6.3 2.5 1 5.9 2.2 9.8 4.7 14.5 13.9 23 15.9 24.8 11.8 10.6 24.8 12.8 30.2 13.7 5.1.8 12.3 1.8 20.6-1 3-1 8-2.7 12.4-7.3 4.9-5.1 6.3-10.9 7.6-16.2 1.2-4.7 1.4-8.3 1.6-13 .4-7.5.6-13.1-.6-19.4-2.6-13-10.3-21.6-14.3-26-3.5-3.9-9.3-9.5-18.1-14.3 2.3 4.7 12 25.6 2.9 46-2 4.4-7.4 16.5-17.8 18.4-13.6 2.5-26.8-14-32.1-25.4-9.3-20.1-1-40.2 1-44.8-1.4.7-4.4 2-8.3 1.6-7.3-.8-11.1-7.2-11.5-7.9z"/></g></g></svg>