<svg xmlns="http://www.w3.org/2000/svg" viewBox="0 0 1600 1200"><style>.st0{fill:#e8e8e8}.st1{fill:#161616}.st3{fill:#bc5b5b}.st4{opacity:.38;fill:#6c6d6d}.st6{fill:#ec615b}.st7{fill:#842b08}.st10{opacity:.48;fill:#6c6d6d}.st11{fill:#fff}</style><g id="background"><path class="st0" d="M107.8 504.9c52-25.3 106.1-46.1 161.7-62 14-4 28.3-7.8 42.9-9.3 15.1-1.5 30.1.1 45 2.8 28.7 5.2 57 12.8 84.9 21.3 31.7 9.7 62.9 20.8 94 31.9 1.8.6 2.6-2.2.8-2.9-56.8-20.2-114-40.5-173.3-52.1-13.8-2.7-27.9-4.9-42-4.5-14.3.4-28.4 3.3-42.1 6.9-28.1 7.4-55.9 16.6-83.2 26.7-30.7 11.4-60.7 24.3-90.1 38.6-1.8.8-.3 3.4 1.4 2.6z"/><path class="st0" d="M390 442.1c40.4-10.9 81.7-18.2 123.1-24.4 20.4-3 40.8-5.8 61.3-8.6 21-2.8 42.1-5.4 63.4-5.6 76.1-.6 148.5 26.6 221.3 44.8 40.4 10.1 81.7 17.6 123.5 16.5 1.9 0 1.9-3 0-3-76.8 2-149.8-24.9-223.2-43.6-35.9-9.1-72.4-16.5-109.5-17.7-40.6-1.2-81.2 6.1-121.3 11.8-46.9 6.7-93.6 14.4-139.4 26.8-1.8.7-1 3.6.8 3zM858.5 488.9c40.5 2.6 81.3.5 121.3-6.6 39.9-7 79.4-22.3 120.5-19.3 1.9.1 1.9-2.9 0-3-40.1-2.9-78.6 11.5-117.5 18.7-41 7.6-82.8 9.9-124.3 7.2-1.9-.1-1.9 2.9 0 3zM271.6 448.7c-8.7 11.9-5.5 28.2 3.1 39.2 10.3 13.2 27.4 18.8 42.7 24 9 3.1 18.1 6.2 26.2 11.1 4 2.4 7.7 5.1 11 8.4 2.3 2.4 4.5 4.9 4 8.6-.4 2.9-3.7 5.6-5.8 7.4-7.8 6.9-15.7 13.6-23.6 20.4-5.6 4.8-12.4 10.2-13.1 18.1-1.2 13.8 15.6 19.8 26.3 22.4 20.6 5.1 41.5 8.9 62.5 11.9 41.6 5.9 83.6 8.5 125.6 10.5 42.9 2 85.9 3.4 128.8 7.1 10.4.9 20.9 1.9 31.3 3.2 7.2.9 20.9 3.7 19.5 13.6-1.2 8.2-13 13.3-18.9 18-7.4 5.8-14.3 12.4-20.5 19.5-5.9 6.8-11.2 14.1-15.8 21.9-3.4 5.8-6.9 13.1-5 20 1.8 6.3 7.8 8.7 13.7 9.3 10.1 1 20.6.3 30.7 0 42.4-1.4 84.5-7.5 126.7-10.7 21.2-1.6 42.5-2.4 63.8-1.5 19.7.9 40.6 2.4 59.4 8.5 7.6 2.4 15.6 6.1 20.9 12.3 6.5 7.6 6.1 17.4.8 25.6-5.1 7.9-13.1 13.9-20.3 19.9-8.5 7-17.2 13.8-26.1 20.3-8.3 6-16.7 11.8-25.3 17.3-1.6 1-.1 3.6 1.5 2.6 17.3-11.2 33.9-23.3 49.8-36.3 11.6-9.5 29.8-22.1 27.3-39.5-2-13.5-15.5-20.9-27.2-24.8-18.1-6-38.3-7.6-57.1-8.6-42.8-2.3-85.5 2.7-128 7-21.1 2.1-42.2 4.1-63.4 4.9-10.4.4-21 .8-31.4.2-5.1-.3-10.8-1.4-12.8-6.8-1.8-5 .6-10.9 2.9-15.4 8.9-16.9 22.4-31.8 37.3-43.5 8-6.3 29.4-18 15.8-30.2-4.5-4-11-5.6-16.9-6.4-10.6-1.4-21.3-2.4-31.9-3.3-21.2-1.9-42.5-3.1-63.8-4.2-43.2-2.2-86.5-3.4-129.7-6.8-42.3-3.3-85.5-8-126.6-19.3-7.1-2-16.4-5.3-19.9-12.5-4.9-10.2 6.6-18.3 13.3-24.1 7.8-6.8 16.4-13.2 23.7-20.6 4.8-4.9 6.1-10.4 1.7-16-10.7-13.3-28.9-18.5-44.4-23.8-17.2-5.9-36.9-13.8-43.3-32.6-2.9-8.5-2.4-17.6 3-25 1.2-1.4-1.4-2.9-2.5-1.3z"/><path class="st0" d="M327.4 433.1c-8.7 11.9-5.5 28.2 3.1 39.2 10.3 13.2 27.4 18.8 42.7 24 9 3.1 18.1 6.2 26.2 11.1 4 2.4 7.7 5.1 11 8.4 2.3 2.4 4.5 4.9 4 8.6-.4 2.9-3.7 5.6-5.8 7.4-7.8 6.9-15.7 13.6-23.6 20.4-5.6 4.8-12.4 10.2-13.1 18.1-1.2 13.8 15.6 19.8 26.3 22.4 20.6 5.1 41.5 8.9 62.5 11.9 41.6 5.9 83.6 8.5 125.6 10.5 42.9 2 85.9 3.4 128.8 7.1 10.4.9 20.9 1.9 31.3 3.2 7.2.9 20.9 3.7 19.5 13.6-1.2 8.2-13 13.3-18.9 18-7.4 5.8-14.3 12.4-20.5 19.5-5.9 6.8-11.2 14.1-15.8 21.9-3.4 5.8-6.9 13.1-5 20 1.8 6.3 7.8 8.7 13.7 9.3 10.1 1 20.6.3 30.7 0 42.4-1.4 84.5-7.5 126.7-10.7 21.2-1.6 42.5-2.4 63.8-1.5 19.7.9 40.6 2.4 59.4 8.5 7.6 2.4 15.6 6.1 20.9 12.3 6.5 7.6 6.1 17.4.8 25.6-5.1 7.9-13.1 13.9-20.3 19.9-8.5 7-17.2 13.8-26.1 20.3-8.3 6-16.7 11.8-25.3 17.3-1.6 1-.1 3.6 1.5 2.6 17.3-11.2 33.9-23.3 49.8-36.3 11.6-9.5 29.8-22.1 27.3-39.5-2-13.5-15.5-20.9-27.2-24.8-18.1-6-38.3-7.6-57.1-8.6-42.8-2.3-85.5 2.7-128 7-21.1 2.1-42.2 4.1-63.4 4.9-10.4.4-21 .8-31.4.2-5.1-.3-10.8-1.4-12.8-6.8-1.8-5 .6-10.9 2.9-15.4 8.9-16.9 22.4-31.8 37.3-43.5 8-6.3 29.4-18 15.8-30.2-4.5-4-11-5.6-16.9-6.4-10.6-1.4-21.3-2.4-31.9-3.3-21.2-1.9-42.5-3.1-63.8-4.2-43.2-2.2-86.5-3.4-129.7-6.8-42.3-3.3-85.5-8-126.6-19.3-7.1-2-16.4-5.3-19.9-12.5-4.9-10.2 6.6-18.3 13.3-24.1 7.8-6.8 16.4-13.2 23.7-20.6 4.8-4.9 6.1-10.4 1.7-16-10.7-13.3-28.9-18.5-44.4-23.8-17.2-5.9-36.9-13.8-43.3-32.6-2.9-8.5-2.4-17.6 3-25 1.3-1.3-1.3-2.8-2.5-1.3zM155.1 891.5c68.1-21.2 140.9-34.1 211.6-19.3 19.4 4.1 38.2 10.2 56.2 18.5 1.7.8 3.3-1.8 1.5-2.6-65.1-30.1-139-30.2-208.2-15.8-20.9 4.3-41.6 10-62 16.3-1.7.6-.9 3.5.9 2.9zM681.2 563.8c15.9 2.1 30.9-6.2 46.7-6.7 17.1-.6 33.9 4.3 50.1 9.1 1.9.5 2.6-2.3.8-2.9-15.9-4.7-32.3-9.5-49-9.2-16.4.2-32.1 8.9-48.5 6.8-2-.4-2 2.6-.1 2.9zM767 556c24.7-8.2 51.2-8.5 76-.7 1.8.6 2.6-2.3.8-2.9-25.3-8-52.4-7.7-77.6.7-1.8.6-1 3.5.8 2.9zM331.1 743.6c5.1.7 9.8.3 14.6-1.3.8-.3 1.2-1 1-1.8l-2.4-13.5c-.7.6-1.5 1.1-2.2 1.7 2.6 1.8 5.8.9 7.7-1.6 3.4-4.4-.9-9.4.2-14.1 2.4-10.2 15.3 2.2 18.4 5.4 4.6 4.7 8.3 10.1 11.2 16 .9 1.7 3.4.2 2.6-1.5-4.8-9.7-13.1-21.4-23.6-25.8-3.3-1.4-7.4-1.8-10 1.1-1.3 1.4-1.8 3.3-1.8 5.2 0 1.1.1 2.1.3 3.2.1.8.3 1.5.5 2.3 1.3 3.3 0 5.7-4.1 7.1-1.2-.8-2.4.5-2.2 1.7l2.4 13.5c.3-.6.7-1.2 1-1.8-4.3 1.5-8.5 2-13 1.3-1.7-.2-2.6 2.7-.6 2.9zM930.7 629.8c1.1-2.6 2.1-5.2 3.3-7.7 1.6-3.5 5-4.8 8.6-3.5 4.2 1.5 7.7 3.2 12.2 1.7 4.1-1.4 7.3-4.7 10.2-7.7 2.1-2.1 4.3-4.3 7-5.5 3.6-1.6 11.2-.6 9.6 5.4-.5 1.9 2.4 2.7 2.9.8 1.3-5-2.6-9.2-7.5-10-6-1-10.8 3.9-14.7 7.8-4.2 4.2-8.6 8.3-15 6.3-2.7-.9-5.3-2.6-8.2-2.7-7.1-.3-8.8 8.6-11 13.7-.7 1.7 1.8 3.2 2.6 1.4zM1286.4 482.3c66.1 12.4 132.5 23.3 199.1 32.5 18.7 2.6 37.3 5 56 7.4 1.9.2 1.9-2.8 0-3-66.3-8.3-132.3-18.2-198.1-29.6-18.7-3.3-37.5-6.7-56.2-10.2-1.9-.3-2.7 2.5-.8 2.9zM783.6 927c24.9 12.3 51.9 2.1 77.5-1.8 15.1-2.3 30-.8 45 1.1 15.3 1.9 30.7 3.8 46 5.8 1.9.2 1.9-2.8 0-3-14.4-1.8-28.8-3.6-43.1-5.4-14.2-1.8-28.5-3.7-42.8-2.1-26.7 2.9-55.2 15.7-81.1 2.9-1.7-.9-3.3 1.7-1.5 2.5zM486.3 842.6c10.1 10.1 14.4 24.2 9.8 37.9-1.2 3.7 4.6 5.2 5.8 1.6 5.2-15.7.2-32.3-11.4-43.7-2.7-2.8-6.9 1.4-4.2 4.2z"/><path class="st0" d="M496.4 883.5c3.5 8.6 11.5 14 20.4 15.6 1.9.3 2.7-2.6.8-2.9-7.8-1.4-15.2-5.9-18.3-13.5-.7-1.8-3.6-1-2.9.8z"/><path class="st0" d="M517.1 896.2c-6.1.1-15-.8-20.6 2.3-4.5 2.6-6.1 8.4-6.6 13.2-1.3 11.6 7.8 20.1 19.3 18 1.9-.3 1.1-3.2-.8-2.9-10.3 1.9-17.1-6.6-15.3-16.4.9-4.7 2.6-9.2 7.7-10.3 5.2-1.1 11-.9 16.3-1 1.9.1 1.9-2.9 0-2.9z"/><path class="st0" d="M507.6 927.2c-6.1.5-14.3 3.7-13 11.1 1.1 6.5 6.2 13.1 9.8 18.4 3.1 4.5 6.7 8.5 10.6 12.2 13.4 12.6 29.2 21.6 43.9 32.4 14 10.4 25.9 23.3 35.9 37.6 1.1 1.6 3.7.1 2.6-1.5-11.9-16.9-26.4-32.2-43.9-43.4-15.6-10-33.1-21.1-44.5-35.9-2.5-3.2-4.6-6.7-6.7-10.2-1.8-3-4.3-6.4-4.8-9.9-.8-5.4 5.7-7.4 10.1-7.7 1.9-.3 2-3.3 0-3.1zM488.1 839.9c31.1 12 61.6 25.2 85 49.7 21.6 22.7 35.5 51.5 42.3 82 2.1 9.6 3.5 19.3 4.4 29 .5 4.9.8 9.9 1 14.8.1 2.2.1 4.3.2 6.5 0 .5-.1 10-.8 9.5-1.6-1.1-3.1 1.5-1.5 2.6 5.5 3.7 5.4-7 5.4-9.3-.1-9.9-.6-19.8-1.8-29.6-2.2-19.2-6.5-38.2-13.8-56.1-12.4-30.3-33.5-56.8-61.1-74.6-18.1-11.7-38.4-19.6-58.4-27.3-1.9-.8-2.7 2.1-.9 2.8z"/><path class="st0" d="M497.4 850.5c43.7 38.1 79.4 85.8 100.9 139.8 5.8 14.6 10.5 29.6 14.1 44.9.4 1.9 3.3 1.1 2.9-.8-13.2-55.5-41.2-106.8-78.9-149.5-11.5-13-23.8-25.2-36.9-36.5-1.4-1.3-3.5.9-2.1 2.1z"/><path class="st0" d="M499 882c11.3 2.2 22.2 5.5 32.8 9.9 1.8.7 2.6-2.2.8-2.9-10.6-4.4-21.6-7.7-32.8-9.9-1.9-.4-2.7 2.5-.8 2.9zM542.4 891.3c2.8-7.1 6.8-13.5 11.8-19.3 1.3-1.4-.8-3.6-2.1-2.1-5.4 6.1-9.6 13-12.6 20.6-.6 1.8 2.3 2.6 2.9.8zM602.6 835.5c15.7 36 32.9 78.2 11.9 115.8-.9 1.7 1.6 3.2 2.6 1.5 21.6-38.7 4.3-81.8-11.9-118.8-.8-1.7-3.4-.2-2.6 1.5zM605.3 832.9c9.1 3.4 25.1 9.2 22.8 21.8-.3 1.9 2.5 2.7 2.9.8 2.7-14.6-14-21.3-24.8-25.5-1.9-.6-2.7 2.3-.9 2.9z"/><path class="st0" d="M630.4 856.1c5.1-4.3 11.7.3 14.5 5 2.7 4.5 2.9 9.8.8 14.6-.8 1.8 1.8 3.3 2.6 1.5 3-6.8 2.2-14.5-2.7-20.3-4.3-5.1-11.7-7.5-17.3-2.9-1.5 1.2.7 3.3 2.1 2.1z"/><path class="st0" d="M645.6 879.7c8.3-.9 12.8 7.2 16.3 13.5 3.8 6.9 7.2 14 10 21.4 5.4 14.3 8.6 29.4 9.4 44.6 1.4 27-4.9 55.1-26.4 73.2-1.5 1.3.7 3.4 2.1 2.1 23.4-19.8 29.4-51.3 26.9-80.5-1.5-16.5-5.7-32.7-12.3-47.9-3.3-7.6-7-15.7-12.1-22.3-3.5-4.4-8.1-7.7-13.9-7-1.9.1-1.9 3.1 0 2.9z"/><path class="st0" d="M608 837.3c20.5 28.6 38.1 60.4 44.5 95.4 3.1 17 3.4 34.7.1 51.7-1.6 8.1-3.9 16.2-7 23.8-1.6 4-3.5 8-5.6 11.8-2 3.6-4.7 10.6-9 11.7-1.9.5-1.1 3.4.8 2.9 5.1-1.3 7.6-7.4 10-11.6 3.4-6 6.2-12.2 8.5-18.7 4.7-13.1 7.2-27 7.6-40.9.9-29-7.4-57.3-20.1-83.2-7.7-15.7-17-30.4-27.2-44.6-1.2-1.4-3.8.1-2.6 1.7zM679.2 927.9c.5-1.7 1-3.5 1.5-5.2.3-1.1.8-4.3 1.5-5.2 2.3-3 9.7-.9 12.9-.5 1.4.1 1.9-1.7 1.1-2.6-3.3-3.4-7.1-8.1-5.3-13.1 1.7-4.8 9.4-7 12.4-2l2.4-1.8c-2.2-2.7-4.6-6.2-4.3-9.9.4-4.7 5.1-7.7 9.6-7.1 1.3.2 2.3-1 1.7-2.2-4.7-9.6 3.6-20.2 6.7-29.1 3.2-9.1 4.4-18.7 4-28.3-.1-1.9-3.1-1.9-3 0 .6 12.4-2 24.2-7.1 35.4-3.5 7.5-7.1 15.4-3.2 23.5.6-.7 1.1-1.5 1.7-2.2-5.1-.7-10.6 1.5-12.7 6.6-2.3 5.6.9 11.2 4.4 15.4 1.1 1.3 3.2-.4 2.4-1.8-3.2-5.4-11.3-5.5-15.5-1.2-6.2 6.4-1.2 14.8 3.8 19.9.4-.9.7-1.7 1.1-2.6-3.6-.4-11.2-2.8-14.3 0-3 2.7-3.6 9.6-4.6 13.2-.6 1.9 2.3 2.7 2.8.8z"/><path class="st0" d="M720.9 824c7.1 14.9 10.4 31 13.6 47.1 3.3 17.2 6.7 34.5 6.8 52.1 0 27.8-10 54.5-26.8 76.4-10.1 13.2-22.4 24.5-36.1 33.7-1.6 1.1-.1 3.7 1.5 2.6 23.8-16 43.5-38.2 54.7-64.8 5.3-12.5 8.6-25.9 9.5-39.5 1.2-17.7-1.7-35.4-5-52.8-3.6-19.2-7.1-38.5-15.5-56.3-1-1.8-3.6-.3-2.7 1.5z"/><path class="st0" d="M723.8 836c2.5 35.4-1.5 70.9-11.5 104.9-5.1 17.3-11.8 34.2-19.9 50.4-7.6 15.1-16 34-30.8 43.3-1.6 1-.1 3.6 1.5 2.6 11-7 17.6-18.3 23.9-29.4 7.1-12.5 13.3-25.4 18.6-38.7 10.8-26.8 17.7-55.1 20.5-83.9 1.6-16.3 1.8-32.8.6-49.2-.1-1.9-3.1-1.9-2.9 0zM1175 1004.4c-2.1-28.8 4.3-57.6 18.7-82.7-.7.2-1.4.4-2.1.5 1.9.9 3.7 1.9 5.6 2.8 1.2.6 2.4-.4 2.2-1.7-.5-2.5-.3-4.6.5-7.1-.6.3-1.2.7-1.8 1 1.8.5 3.5 1 5.3 1.5 1.1.3 2.1-.8 1.8-1.8-1.4-5.9 4.3-10.2 8.3-13.5 3.8-3.2 7.5-6.5 10.9-10.2 6.5-7 12-14.8 16.5-23.3h-2.6c10.2 23.4 8.4 51.2-4.2 73.4-6.7 11.8-16.5 20.1-26.4 29-10.2 9.1-18.1 19.6-22.8 32.5-.7 1.8 2.2 2.6 2.9.8 5.7-15.6 16.4-26.2 28.6-36.9 9.9-8.7 18.2-18.3 23.7-30.4 10-22 10.6-47.6.9-69.9-.5-1-2.1-.9-2.6 0-5.7 10.7-13 20.3-21.9 28.5-6 5.5-16.3 11.2-14.1 20.8l1.8-1.8c-1.8-.5-3.5-1-5.3-1.5-.8-.2-1.6.3-1.8 1-.9 3-1.1 5.6-.5 8.6.7-.6 1.5-1.1 2.2-1.7-1.9-.9-3.7-1.9-5.6-2.8-.7-.4-1.6-.2-2.1.5-14.6 25.5-21.3 54.9-19.1 84.2.1 2.1 3.1 2.1 3 .2z"/><path class="st0" d="M1248.9 906.8c6.3-6.3 11.9-13.1 16.9-20.5l-2.4.3c10.2 11.8 14.5 28 11.8 43.4-.6 3.3-1.5 6.6-2.7 9.8-.8 2.1-1.7 4.4-3 6.2-1.3 2-2.3 2.3-4.5 3.1-1.5.5-2.9.4-3.7 2.1-.3.6 0 .9 0 1.5.8 1.7 1.3 3.4 1.5 5.3.1 1.1.1 2.1-.1 3.2l1.5-1.5c-6.7.3-6.1 6.9-8.7 11.4-3.6 6.2-12.5 7.9-18.6 10.6-13.7 6.1-26 15.1-36.1 26.2-1.3 1.4.8 3.6 2.1 2.1 9.6-10.5 21-19.1 34-25.1 5.3-2.4 11.2-3.9 16.1-7.2 1.7-1.1 3.2-2.4 4.4-4.1 2-2.8 2.7-10.9 6.8-11.1.9 0 1.4-.7 1.5-1.5.1-1.7.1-3.4-.2-5.1-.5-2.5-1.7-3.1.8-4.1 2.7-1.1 3.7-1.1 5.3-3.8 3.9-6.4 6.2-13.9 7-21.3 1.6-15.3-3.1-30.7-13.1-42.3-.7-.8-1.9-.4-2.4.3-4.9 7.2-10.3 13.8-16.4 19.9-1.2 1.5.9 3.6 2.2 2.2zM1232.2 897.2c-1 9.1-7.8 18-12.6 25.6-4.9 7.6-10.1 14.9-15.2 22.3-9.9 14.4-19.4 29-25.7 45.4-.7 1.8 2.2 2.6 2.9.8 6.8-17.7 17.5-33.3 28.2-48.8 5.1-7.4 10.2-14.8 15-22.4 4.3-7 9.4-14.5 10.3-22.9.4-1.9-2.6-1.9-2.9 0z"/><path class="st0" d="M1208.6 905.4c-.7 7.1.3 14.1 3.1 20.7.7 1.8 3.6 1 2.9-.8-2.6-6.4-3.6-13-2.9-19.9.1-1.9-2.9-1.9-3.1 0zM1204.5 950.6c6.3 1 12.3.2 18.2-2.4 1.8-.8.2-3.4-1.5-2.6-5 2.2-10.4 3-15.8 2.1-1.9-.2-2.8 2.6-.9 2.9z"/><path class="st1" d="M871.6 1035.4h553.5c5.8 0 5.8-9 0-9H871.6c-5.8 0-5.8 9 0 9zM1245.4 1018.6h141.1c5.8 0 5.8-9 0-9h-141.1c-5.8 0-5.8 9 0 9zM811.3 1034.2h37.4c5.8 0 5.8-9 0-9h-37.4c-5.8 0-5.8 9 0 9zM763.1 1035.4h15.7c5.8 0 5.8-9 0-9h-15.7c-5.8 0-5.8 9 0 9zM1408.2 1016.1h37.4c5.8 0 5.8-9 0-9h-37.4c-5.8 0-5.8 9 0 9zM1467.3 1014.9h16.9c5.8 0 5.8-9 0-9h-16.9c-5.8 0-5.8 9 0 9zM359.1 1044.3h214.2c5.8 0 5.8-9 0-9H359.1c-5.8 0-5.8 9 0 9zM292.6 1018.5h72c5.8 0 5.8-9 0-9h-72c-5.8 0-5.8 9 0 9zM394.2 1024h24c5.8 0 5.8-9 0-9h-24c-5.8 0-5.8 9 0 9zM576 358c4.4-8.4 9.5-16.3 15.5-23.7 3.6-4.5-2.7-10.9-6.4-6.4-6.5 8-12.1 16.4-16.9 25.5-2.7 5.1 5.1 9.7 7.8 4.6zM618.6 296.3c2.7-6.8 6.9-12.6 12.1-17.6 4.2-4-2.1-10.3-6.4-6.4-6.5 6-11.2 13.3-14.5 21.5-2 5.5 6.7 7.8 8.8 2.5zM657 239.5l18-21.3c3.7-4.4-2.6-10.8-6.4-6.4l-18 21.3c-3.6 4.5 2.7 10.9 6.4 6.4zM709.3 174c8.3-7 16.5-14 24.8-20.9 4.4-3.7-2-10.1-6.4-6.4-8.3 7-16.5 14-24.8 20.9-4.4 3.8 2 10.1 6.4 6.4zM784 124.1c6.1-2.2 12.2-3.1 18.6-2.6 5.8.4 5.8-8.6 0-9-7.2-.5-14.2.5-21 2.9-5.4 1.9-3.1 10.6 2.4 8.7zM851 124.1c4.4 2.1 7.9 5.6 9.5 10.3 1.9 5.5 10.6 3.1 8.7-2.4-2.3-6.8-7.1-12.6-13.6-15.7-2.2-1-4.9-.6-6.2 1.6-1.2 2-.6 5.2 1.6 6.2z"/><path d="M529.8 284.5c-2.7-7-8.8-22.8-16.5-22.6-10.7.2-21.5 30.4-21.8 56.6-.3 27.7 11.3 52.3 18.3 67 3.3 7 6.4 12.6 8.7 16.5 13.6-30.7 27.1-76.4 11.3-117.5zm-9.8 24.3c-3.3 3-8.1 4-11.5.8-.8-.7-1.4-1.6-1.9-2.6-3-4.2-2.8-10.4 1.4-14.1 3.1-2.7 7-2.7 10-.8 1.5.8 2.8 1.9 3.6 3.4.5.9.8 1.9 1 2.9 1 3.6.3 7.7-2.6 10.4z" fill="#f87774"/><path class="st3" d="M521.7 264.7c15.7 15.4 18.2 40.3 18 61.2-.3 23.5-5.9 46.8-16.2 67.9-.8 1.7 1.7 3.2 2.6 1.5 10.8-22.1 16.6-46.5 16.6-71.2 0-21.2-3-45.9-18.9-61.6-1.3-1.3-3.5.8-2.1 2.2zM510.1 293c-4.3 5.9-2.5 13.9 3.8 17.5 1.7 1 3.2-1.6 1.5-2.6-5-2.8-6.1-8.7-2.7-13.3 1.1-1.6-1.5-3.1-2.6-1.6z"/></g><g id="legs"><g id="Layer_18"><path class="st1" d="M1059.1 946.5c-1.9 6.9 2.1 9.6-.5 17.5-1.1 3.2-3.4 7.9-15.9 17.5-11.1 8.5-21.2 13.9-24.2 15.4-16.1 8.4-22.5 9-26.2 16.4-.5 1-4.2 8.5-1 13.4 4.4 6.7 17.8 1.6 45.8-.5 24.5-1.8 26.5 1.1 45.2-1.5 16.9-2.4 30.2-6.9 38.6-10.3.7-18.9-2.2-32.8-5.1-42.2-4.3-13.8-8.2-16.8-11.8-33.4-1.4-6.5-1.5-9.2-4.1-11.3-9.3-7.4-36.5 3.4-40.8 19z"/><path class="st4" d="M1069.3 947.1c1.6 2.4 13.6 20.5 6.5 34.3-4.3 8.3-14 12-28.2 17.3-11.4 4.3-12.9 2.9-21 6.5-15.1 6.8-28.4 20.2-26.2 24.5 2 4 15.5-3 46.3-4.1 13.5-.5 15.3.6 25.8 0 11.4-.7 28-3.1 48.2-11.3.7-10.7-.3-19.6-1.3-25.8-1.2-7-2.8-16.2-7.4-25.8-1-2.1-3-5.9-4.7-11.6-1.3-4.4-2-8.1-2.4-10.5-11.9 2.1-23.8 4.3-35.6 6.5z"/><path d="M1070.8 946.2c8.3 2.2 17.9 4 28.6 4.6 2.5.1 5 .2 7.4.2-.8-3.5-1.7-7-2.5-10.5-11.1 1.9-22.3 3.8-33.5 5.7z" opacity=".26" fill="#6c6d6d"/></g><path class="st6" d="M1204.8 587c-2.7 18.7-15.8 27.9-41.8 62.7-24.9 33.3-41.7 62.9-52.1 82.8-8.1 18.4-16.5 43-20.5 72.8-8 60.4 6.9 109.4 17.1 135.3-17.8 3-35.6 6.1-53.4 9.1-14.4-34.4-29.3-82.9-29.5-141.5-.2-62 15.8-108.9 45.3-188.9 13.4-36.4 33-85 60.9-141 67.2 50.9 77.3 86 74 108.7z"/><g id="Layer_19"><path class="st1" d="M1310.6 930.5c-1.9 6.9 2.1 9.6-.5 17.5-1.1 3.2-3.4 7.9-15.9 17.5-11.1 8.5-21.2 13.9-24.2 15.4-16.1 8.4-22.5 9-26.2 16.4-.5 1-4.2 8.5-1 13.4 4.4 6.7 17.8 1.6 45.8-.5 24.5-1.8 26.5 1.1 45.2-1.5 16.9-2.4 30.2-6.9 38.6-10.3.7-18.9-2.2-32.8-5.1-42.2-4.3-13.8-8.2-16.8-11.8-33.4-1.4-6.5-1.5-9.2-4.1-11.3-9.3-7.4-36.5 3.4-40.8 19z"/><path class="st4" d="M1314.1 931.6c1.7 2 13.2 16.1 8.7 27.9-3.3 8.6-14.2 13.5-26.9 19.3-11.1 5.1-12.7 3.8-20.5 8-6.9 3.7-27.6 20.9-24.4 26.3 1 1.8 3.8.9 21.2-.9 11.2-1.1 19.4-2 29.2-2.2 10-.2 10.4.5 19.1 0 10.6-.6 18.6-2 20.9-2.5 7.9-1.5 18.6-4.2 30.8-9.5.9-20.8-1.8-32.7-4.3-39.7-5.4-15-6.5-17.2-6.5-17.2-2.2-4.7-4-7.7-4.9-12.9-.3-2-.5-3.9-1.2-7.4-.7-3.3-1.5-5.9-2.2-7.7-1.5 2.7-6.3 10.9-16.6 15.7-10.1 4.8-19.4 3.4-22.4 2.8z"/><path class="st4" d="M1318.9 931.9c1.4 1.2 13.8 11.3 28 7.3 4.8-1.4 8.4-4 10.6-6-1.5-6.6-3.1-13.1-4.6-19.7-11.3 6.1-22.7 12.3-34 18.4z"/></g><g id="Layer_9"><path class="st6" d="M1237.2 502.1c5.6 7.1 13.3 17.7 21.2 31.3 24.3 41.6 30.4 77.2 38 116.2 9.7 49.8 22.1 98.9 32.4 148.6 10.1 48.8 18.8 88.7 24.6 115.1-.9 1.7-10.1 17.3-27.9 19-9.5.9-16.9-2.7-20.1-4.5-26.6-47.5-43.2-88.3-53.6-117.3-27.4-76.2-33.6-132.1-80.4-205.6-8-12.6-15.2-22.6-20.1-29-18.2-23.7-15-57.6 6.7-77.1 22.3-20.3 57.8-19.1 79.2 3.3z"/><path class="st7" d="M1199.5 535.2c4.2 22.5 14.3 48.8 40.2 52.2 1.9.2 1.9-2.8 0-3-24.4-3.2-33.4-29.2-37.3-50-.3-1.9-3.2-1.1-2.9.8zM1241 552.8c32.9 86.9 58.7 176.4 77.1 267.5 5.2 26 9.9 52.2 13.9 78.4.3 1.9 3.2 1.1 2.9-.8-14.1-91.8-35.6-182.5-64.5-270.8-8.2-25.2-17.1-50.3-26.5-75.1-.7-1.8-3.6-1-2.9.8zM1161.8 590.9c10.8 17.3 21.5 34.6 32.3 51.9 1 1.6 3.6.1 2.6-1.5-10.8-17.3-21.5-34.6-32.3-51.9-1.1-1.6-3.7-.1-2.6 1.5z"/></g><path d="M1182.7 521.1c17.7 20.4 42.3 52.7 62.7 97 11.1 24.1 19.9 56.2 37.5 120.2 19.1 69.6 28.3 113.8 31 127.4 5.4 26.7 9.3 49.4 12.1 66.3 2.8-.3 6.2-1.1 9.8-2.7 10.1-4.5 15.3-12.6 17.3-16.2-1.1-5.5-2.8-13.6-4.9-23.5-3.9-18.5-6.5-30.6-9.4-43.9-2.6-11.9-6.2-28.9-10.6-49.8-2.3-11.4-4.4-20.6-5.8-26.9-2.7-11.8-4.4-17.9-7-30.4-1.6-7.5-2.3-11.5-3.3-16.5-3.9-20-5.7-24.3-10-43.7-5.3-24.2-9.5-49.8-13.7-67.8-.8-3.5-1.5-6.2-1.9-7.6-1.3-5.1-3.2-11.8-5.9-19.5-8.2-24.1-17.1-40-26.5-56.4-14.1-24.7-18.4-26.8-20.5-27.7-20.1-8.2-46.7 17.5-50.9 21.7z" opacity=".41" fill="#6c6d6d"/><path d="M1162.2 589.3c-37.6 45.2-60.1 87.5-73.5 117.4-20.5 45.6-54.5 121.5-35.6 209.3 3 13.7 6.6 24.8 9.2 31.9 15-2.5 30.1-5 45.1-7.5-4.3-10.4-9.4-24.7-13.3-42.2-3-13.6-10.6-52.3-2.7-100.6 3.5-21.7 9-37.6 10.9-43.2 6-17.1 12.6-29.5 17.7-39 2.6-5 9-16.6 22.5-36.6 9.7-14.4 23.1-33.1 40.5-54.3-7-11.8-13.9-23.5-20.8-35.2z" opacity=".39" fill="#6c6d6d"/><path class="st10" d="M1171 604.8c-13.9 17.8-29.5 40.9-43.3 69.3-20.1 41.3-29.5 79.4-34.1 107.8 3.2-13.1 8.5-31.3 18-51.7 8.5-18.3 16.7-30.8 27.6-47.3 10.3-15.5 24.7-35.7 43.7-58.5-3.9-6.6-7.9-13.1-11.9-19.6zM1286.8 605.6c10.8 57.9 21 117.5 30.5 178.7 7.5 48.7 14.3 96.5 20.4 143.5 1.8-.8 3.9-2 6-3.6 5.2-3.9 8.1-8.6 9.6-11.6-22.1-102.4-44.3-204.7-66.5-307z"/></g><g id="hand_r"><path class="st11" d="M922.5 190.7c-.7.4-5.4 2.8-5.9 7.3-.5 3.9 2.4 6.9 4.1 8.7 9 9.3 26.7 7 30.6 6.4 3 .9 7.6 2.5 12.8 5 15.6 7.5 25.1 17.6 28.8 21.5 11.3 11.7 27.8 23 60.8 45.7 10 6.9 24.9 16.7 43.9 27.4 3.5 0 9.3-.4 15.5-3.2 2.4-1.1 18.3-8.3 19.6-23.8 1.1-12.2-7.7-21-9.1-22.4-15.6-6.2-28.5-11.8-37.9-16-60.1-26.7-96.4-49.2-104.6-54.4-6-3.8-10.9-7-14.2-9.1-2.3-4-7.8-12.3-18.3-17.8-2-1-17-8.6-33.8-3.2-3.1 1-5.6 2.2-7.3 3.2-8.8-1.1-19.5-1.9-20.1.5-.4 1.6 3.8 3.9 9.6 7.3 6.1 3.7 14.9 9.2 25.5 16.9z"/><path class="st1" d="M951.8 211.9c-7.3.8-14.7.4-21.8-1.7-3.3-1-6.9-2.2-9.3-4.7-5.1-5.2-1-10.4 3.6-13.6 1.6-1.1.1-3.7-1.5-2.6-3.3 2.3-6.8 4.8-7.5 9-.7 4 1.4 7.8 4.5 10.3 8.2 6.8 22 7.4 32 6.3 1.9-.2 1.9-3.2 0-3z"/><path class="st1" d="M921.5 188.8c-5.6-3.9-11.2-7.7-16.9-11.3-2.6-1.7-5.2-3.3-7.8-4.9-1.6-1-3.2-1.9-4.8-2.9-1-.6-4.5-1.9-4.7-2.8-.2.6-.5 1.1-.7 1.7 4.7-3.5 14.7-1.1 19.7.1 5.7 1.4 12.2 3.1 17.2 6.3 1.6 1 3.1-1.6 1.5-2.6-6.1-3.9-14.4-6-21.4-7.4-5.2-1-13.9-2.4-18.5 1-.5.4-.9 1-.7 1.7.6 2 2.9 2.7 4.5 3.7 3.5 2 6.9 4.1 10.3 6.2 7.1 4.4 14 9 20.8 13.8 1.6 1.1 3.1-1.5 1.5-2.6z"/><path class="st1" d="M908 168.1c10-6.4 22.7-7.9 33.8-3.1 10.3 4.4 17.7 13.2 24.5 21.8 1.2 1.5 3.3-.6 2.1-2.1-7.6-9.5-16-19.2-27.8-23.4-11.3-4-24-2.2-34 4.3-1.7.9-.2 3.5 1.4 2.5z"/><path class="st1" d="M966.7 186.3c49.8 30.2 101.7 56.7 155.4 79.3 1.8.7 2.6-2.2.8-2.9-53.4-22.5-105.1-48.9-154.7-79-1.7-.9-3.2 1.6-1.5 2.6zM950.1 213.8c14.4 3.6 25.5 13.5 36.6 22.8 11.4 9.5 22.9 18.9 34.7 28 24 18.5 49.2 35.6 76.1 49.7 1.7.9 3.2-1.7 1.5-2.6-27.6-14.5-53.4-32.1-78.1-51.2-12.3-9.5-24.2-19.4-36.1-29.3-10.2-8.5-20.8-17-33.9-20.2-1.9-.6-2.7 2.3-.8 2.8z"/><path class="st1" d="M1121.2 265.9c12.2 5.1 11.8 20.3 5.2 29.8-5.7 8.2-18.9 18.5-29.4 14.7-1.8-.7-2.6 2.2-.8 2.9 12.7 4.6 28.6-8.2 34.4-18.7 6.2-11.2 4-26.2-8.7-31.5-1.7-.9-2.5 2-.7 2.8z"/></g><g id="torso"><path class="st11" d="M1134.1 262.6c-2.4.5-5.9 1.6-9.6 3.8-6.6 4.1-10 9.7-12.5 14.4-11.3 21.2-14.4 37.4-14.4 37.4-4.2 22-1.7 39.8 0 51.3 3 20.3 6.2 18.9 9.6 41.2 1.5 9.8 3.4 26.2 2.4 46.5-.7 14-2.5 25.9-4.3 35 2.3 2.6 5.8 6.3 10.6 10.1 25 19.7 55.2 18.2 64.8 17.7 27.3-1.4 47.3-12.7 57.1-19.2 1-1.4 1.9-2.9 2.9-4.3-1.7-4.3-4-11.1-5.8-19.7-4.1-20.1-1.8-34.1 0-58 .8-11 1.8-27.2 1.9-47.5h-7.2c-1.8.1-18.1.4-28.3-12.5-8.8-11.1-6.7-24.1-6.2-26.9 2.5-15.7 15.7-28.8 33.6-34.1-7.5-4-15.6-8.8-24-14.4-9.4-6.3-17.7-12.6-24.9-18.7-8.1 2-14.7 3.9-19.2 5.3-9.5 2.9-13.1 4.4-17.3 2.9-5.2-1.7-7.9-6.8-9.2-10.3z"/><path class="st1" d="M1135.6 262.4c-10.1-.5-17.7 6.7-23 14.6-6.9 10.2-11.6 22.2-14.8 34-7 26.2-3.9 51.8 2.1 77.8 3.2 13.6 6.6 27.2 8 41.2 1.4 15 .6 30.2-1.5 45.1-.7 5.3-3 11.6-2.5 16.9.5 4.7 5.4 7.7 8.9 10.3 9.7 7.2 20.8 12.3 32.5 15.4 28.1 7.4 57.6 2.3 83.8-9.2 1.8-.8.2-3.4-1.5-2.6-22.9 10-48.6 15.2-73.5 10.7-11.1-2-21.9-5.8-31.6-11.5-4.3-2.5-9.5-5.5-12.9-9.2-4.7-5.2-.9-15.7 0-22.2 3.2-24.2 1.9-47.5-3.5-71.3-5.4-24.2-11.8-47.9-8.9-72.9 1.6-13.7 5.5-27.1 11.5-39.5 5.1-10.6 13.1-25.3 26.8-24.6 2.1.1 2.1-2.9.1-3zM1204 285.4c7.8 4.1 15.5 8.5 23.2 13 1.7 1 3.2-1.6 1.5-2.6-7.6-4.5-15.3-8.8-23.2-13-1.7-.9-3.2 1.7-1.5 2.6z"/><path class="st1" d="M1229.4 295.8c-13.7 5.9-24.3 13.1-31.2 26.7-5.4 10.8-9.5 25 .4 34.6 1.4 1.3 3.5-.8 2.1-2.1-10.2-9.8-3.5-25.2 2.5-35.4 6.3-10.7 16.6-16.4 27.7-21.2 1.8-.8.2-3.4-1.5-2.6zM1234.9 373.8c2.4 21.4-2.2 42.4-3.5 63.7-1.2 20.3 1.3 40.6 7.2 60 .6 1.8 3.5 1.1 2.9-.8-6-19.8-8.4-40.4-7-61.1 1.4-20.6 5.6-41.1 3.3-61.8-.1-1.9-3.1-1.9-2.9 0z"/><path class="st1" d="M1238.8 496.7c-3 3.9-6.7 7.1-11 9.5-1.7.9-.2 3.5 1.5 2.6 4.8-2.7 8.8-6.3 12.1-10.6 1.2-1.6-1.5-3.1-2.6-1.5zM1197.9 356.6c9.6 11.3 23.6 17.5 38.4 17.1 1.9 0 1.9-3 0-3-14.1.3-27.2-5.6-36.3-16.3-1.3-1.4-3.4.7-2.1 2.2z"/><path d="M1153.4 290.1c18.7 37.2 26.3 70 29.7 92.1 4 26.1 3.8 46.9 3.6 58.8-.6 32.2-5.1 59-9.5 78.5 3.6-.2 7.1-.4 10.7-.6 7 0 19.3-1.1 32.7-7.7 8.6-4.3 14.9-9.6 19-13.7-4-14.4-5.4-26.1-5.9-33.9-1.4-19.9 1.6-30.8 3-59.4.7-14 .7-25.2.6-32.1-5.6-.1-14.9-1.1-24.4-6.5-5.4-3.1-14.3-8.3-17.2-18.4-1.8-6.3-.5-11.7.6-16 .6-2.4 4.9-18.6 20.8-27.3 5.6-3.1 10.8-4.3 14.3-4.8l-58.8-30.3c-1.8 3.1-4.1 6.5-7.1 10.1-4.3 4.8-8.5 8.5-12.1 11.2z" opacity=".15" fill="#6c6d6d"/><path d="M1205.3 361.6c3.8 20.8 6.9 49.4 3.8 83-2.7 29.7-9.4 54.4-15.9 72.9 6.4-.3 16-1.6 26.8-6 9.7-4 16.9-9.3 21.5-13.2-2.1-5.6-4.7-13.6-6.4-23.4-.7-4.2-1.9-11.9-1.9-24.9-.1-21.6 2.9-28 3.8-49.5.3-6.2.4-15.9-.4-27.9-3.3.4-9.1.6-15.9-1.5-7.9-2.5-13-7-15.4-9.5z" opacity=".29" fill="#6c6d6d"/></g><g id="hand_l"><path class="st11" d="M1233.2 298.3c-9.7.4-16.7 6.3-21.1 9.8-3.5 2.9-13.4 11.1-15.9 25.3-.7 4-2.2 12.5 2.3 20.6 6.9 12.2 22.8 15.1 27.1 15.9 6.4 1.2 7.1-.1 10.3 1.4 3.6 1.6 9.9 6.3 13.6 32.3 1.9 13.3 4.4 32.2-1.4 57.1-5.1 22-9.3 28.5-13.6 31.8-4.7 3.7-12.5 7.3-13.1 7.5-7.9 3.6-9.6 2.8-16.9 6.1-5.6 2.5-12.1 5.3-17.3 11.7-4.8 5.8-6.7 12.2-7.5 16.4l22.5-3.3c1.2 2.1 2.9 5.3 4.7 9.4 3.8 8.7 5.2 15.6 5.6 17.3 1.6 7 7.2 18.2 24.3 36.5-2-12.5-4.1-25-6.1-37.4 2 4.7 5.1 10.4 9.8 16.4 7 8.9 14.7 14.5 20.1 17.8-.9-12.5-1.9-25-2.8-37.4 5 7 10 14 15 21.1-.8-6.5-2.3-14.2-5.1-22.5-5.4-16-13.4-27.8-19.7-35.6 2.9-2.2 6.9-5.4 11.2-9.8 6.3-6.4 11.2-13.1 15.9-21.1 10.4-17.5 18.5-31.1 22.9-51 1.4-6.4 7.4-35.8-4.2-70.7-3.1-9.4-12.1-32.8-33.2-52-14-12.9-22.6-13.8-27.4-13.6z"/><path class="st1" d="M1231.9 297.1c17.7 7 33.4 18.5 44.4 34.1 10.3 14.7 15.5 31.7 19.7 49 9.1 37.2-1.6 74.2-22.8 105.2-7.2 10.5-15.4 20.3-24.3 29.4-1.3 1.4.8 3.5 2.1 2.1 20-20.6 37.1-44.8 45.7-72.5 6.2-19.8 7.4-40.8 3-61.1-3.8-17.4-9-35-18.6-50.1-11.5-18.1-28.7-31.1-48.5-39-1.7-.7-2.5 2.2-.7 2.9z"/><path class="st1" d="M1225.7 370.9c20.8-.2 22.5 33.3 23 47.8.5 16.1.2 32.7-4.2 48.2-2.2 7.7-5.4 15.1-10.2 21.6-2.6 3.6-5.8 7.4-9.7 9.7-3.3 2-6.9 2.5-10.7 3.3-12.2 2.6-23.1 9.5-29.8 20.1-1.6 2.6-7.4 9.9-4.8 13.3.8 1.1 2 1.1 3.3 1.1 3.9-.2 7.9-1.6 11.7-2.4 1.9-.4 1.1-3.3-.8-2.9-3.1.7-7.1 2.3-10.3 2.2-1.9-.1-1.6.3-.9-1.7.7-2.2 2.1-4.3 3.3-6.3 4.5-7.6 10.5-13.3 18.6-17 4.7-2.2 9.4-3.1 14.4-4.3 7.3-1.7 12.6-6.2 17.2-12.1 8.7-11.2 12.8-25.2 14.7-39.1 2.1-15.9 2.2-32.6.2-48.5-1.8-14-6.8-36.3-24.9-36.1-2 .2-2 3.2-.1 3.1z"/><path class="st1" d="M1192.4 533.7c1.6-.3 3.4-.8 5.1-.9 2.1-.7 4.2-.2 6.1 1.5.2.6.3 1.1.5 1.7 1.5 3 2 7 3 10.2 2 6.2 4.4 12.3 7.1 18.2 5.4 11.7 12.5 22.6 21.8 31.6 1.2 1.1 2.7 0 2.5-1.5l-5.4-34.8c-.3-1.9-3.2-1.1-2.9.8l5.4 34.8c.8-.5 1.7-1 2.5-1.5-11.7-11.2-19.6-25.4-25.3-40.4-1.4-3.8-2.7-7.6-3.9-11.4-1-3.2-1.4-7.1-2.9-10-2.7-5.1-9.9-2-14.3-1.2-2 .3-1.2 3.2.7 2.9zM1247.5 517.4c7.7 8.6 12.4 18.4 16.6 29 4.4 11.1 8.5 22.3 9.5 34.2 1-.1 2-.3 2.9-.4-4.4-10.7-10.6-20.3-18.5-28.7-1.3-1.4-3.4.7-2.1 2.1 7.5 8 13.5 17.2 17.7 27.4.6 1.4 3.1 1.5 2.9-.4-1.1-12.9-5.5-24.8-10.3-36.7-4.2-10.5-9.2-20.1-16.7-28.6-1.1-1.5-3.3.6-2 2.1z"/><path class="st1" d="M1228.7 558.3c8.3 13.6 19.1 25.2 32 34.6 1 .7 2.2-.3 2.3-1.3.3-12.7-1.5-25.2-4.6-37.4-.5-1.9-3.4-1.1-2.9.8 3 12 4.8 24.2 4.5 36.6.8-.4 1.5-.9 2.3-1.3-12.5-9-22.9-20.4-30.9-33.5-1.1-1.6-3.7-.1-2.7 1.5z"/><path class="st1" d="M1239.8 550.9c7.5 11.8 13.8 24.2 18.7 37.2.7 1.8 3.6 1 2.9-.8-5-13.3-11.3-26-19-38-1.1-1.5-3.7 0-2.6 1.6z"/><path d="M1211 309.5c10.6 4.6 40.1 19.1 57.9 52.5 19.8 37.4 17.6 86.5-1.6 111.5-7.9 10.2-21.1 24.9-26.3 30.1-9.4 9.5-13.1 11.9-16.9 13.6-8.6 4-12.9 2.4-24.5 7.2-9.9 4.1-15.7 8.9-15.4 9.3.2.5 7.3-2.9 14.2-2.7 0 0 5.2.1 6.7 2.5.1.1.2.3.2.3.3.6.3 1.4 1.3 5.3.7 2.9 1.5 5.3 1.9 6.8 2.4 7.5 6 16.6 11.7 26.5 5.7 10 11.9 17.8 17.2 23.6-1.6-11.7-3.1-23.4-4.7-35.2 3.7 6 8.9 13.1 16.2 20.2 4.5 4.4 8.9 8 12.9 10.8-1.2-13-2.5-26-3.7-39.1 3.7 4.7 7.5 10.2 11.2 16.4 2.2 3.6 4 7.1 5.7 10.4-1.2-10-4-23.1-10.4-37.4-3.5-7.9-7.5-14.5-11.2-20-.4-2.7-.8-5.3-1.1-8 4.2-4.2 9.7-10.3 15.7-18 7-9 20.3-26.3 27.7-49.4 13.9-43.1-.7-81.6-4.6-91.4-4.2-10.6-10.4-25.7-25.4-39.7-12.1-11.3-24.7-17-32.8-19.9-3.4 1.1-7.8 2.9-12.5 6-4.2 2.7-7.2 5.5-9.4 7.8z" opacity=".33" fill="#6c6d6d"/><path d="M1273.8 484.6c-1.5-1.3-18.8 16.5-24.9 22.9-13.8 14.6-15.1 18.6-15.7 20.8-2.6 9.7 1 18.1 7 31.6 5.1 11.5 15.9 31.7 20 30.2 1.9-.7 3.6-6.3-3.4-38.4 12.5 23.1 16.4 27.6 17.6 27 2.3-1-3.3-21.2-11.3-38.6-4.5-9.8-9.2-17.5-12.6-22.7 20.5-25.8 24.1-32.1 23.3-32.8z" opacity=".31" fill="#6c6d6d"/></g><g id="head"><path class="st11" d="M1082.7 160.7c-1 2.5-.6 2.8-3 10.5-1 3.2-1.9 5.9-2.6 7.7.1 10-1.5 17.8-3.1 23.2-1.5 5.1-3.9 11.2-2.3 12.2s5.1-4.4 9-3.5c2.6.6 3.9 3.8 5.2 7.1 0 0 4.1 9.9 8.4 18.1 2.7 5.2 7.3 13.9 16.4 17.1 6 2.1 12 1 15.5.5 4.7-.8 8.4-2.3 10.8-3.5-3.8 6.1-3.7 13.4 0 18.1 4.5 5.5 12.5 4.8 14.4 4.6 5-.5 8.7-2.8 10.4-4-1.8-4.4-3.8-11.1-3.9-19.3-.1-17.2 8.6-29.3 12-33.5 1.9-.4 5.8-1.4 9.3-4.6.8-.7 7.4-6.9 6.2-15.8-.6-4.7-3.7-12.2-10.4-13.5-4.9-.9-8.9 1.9-10 2.7l-2.7-6.6c-5.6-.1-12.7-1-20.4-3.9-22.6-8.4-33.4-27.6-36.6-33.9-2.2.8-5.4 2.2-8.9 4.6-3.1 2-10.4 7-13.7 15.7z"/><path class="st1" d="M1078.8 165.4c-2 16.6-5.3 33-9.6 49.2-.3 1.1.7 2.1 1.8 1.8 4.5-1.2 8.9-2.4 13.4-3.5-.6-.3-1.2-.7-1.8-1 2.2 10.1 6.4 19.5 12.3 28 2.5 3.6 5.3 7 8.3 10.2 2.6 2.8 4.6 5.7 8.5 5.9 17.6.9 34.2-7 45.7-20.1 1.3-1.4-.8-3.6-2.1-2.1-10.7 12.2-25.7 19.7-42.1 19.3-6.6-.2-13.2-11-16.5-15.9-5.3-7.9-9-16.7-11.1-26.1-.2-.8-1.1-1.2-1.8-1-4.5 1.2-8.9 2.4-13.4 3.5l1.8 1.8c4.4-16.4 7.7-33.1 9.7-50 .1-1.9-2.9-1.9-3.1 0z"/><path class="st1" d="M1092.8 169c-.1 6 .8 11.8 2.7 17.4.6 1.6 2.8 1.3 2.9-.4.6-6.3-.1-12.4-2.1-18.4-.5-1.7-2.8-1.3-2.9.4-.3 3.1-.1 6.2.5 9.2.4 1.9 3.2 1.1 2.9-.8-.5-2.8-.6-5.6-.4-8.4-1 .1-2 .3-2.9.4 1.9 5.8 2.5 11.6 2 17.6 1-.1 2-.3 2.9-.4-1.9-5.4-2.8-10.9-2.6-16.6 0-1.9-3-1.9-3 0zM1070.8 181.7l.2.2c-.1-.5-.3-1-.4-1.5.1-.1.2-.3.3-.4h1.5c-1-.6-.9-3.9-.9-4.7.1-1.7.4-3.2 1-4.8h-2.9c1 4.5 1.2 8.9.4 13.5h2.9c-1.6-4.2-1.9-8.5-.8-12.8.5-1.9-2.4-2.7-2.9-.8-1.2 4.9-.9 9.7.8 14.4.5 1.2 2.6 1.6 2.9 0 .8-5.1.7-10-.4-15.1-.4-1.6-2.4-1.3-2.9 0-1.3 3.5-1.8 7.8-.2 11.3.8 1.8 3.4 2.5 4 .1.1-.5 0-1.1-.4-1.5l-.2-.2c-1.3-1.1-3.5 1-2 2.3zM1088.6 226.1c3.1.7 6.4 1.1 9.4-.4 2.9-1.4 5.6-4 8.1-6 1.5-1.2-.6-3.3-2.1-2.1-2.2 1.7-4.3 3.7-6.7 5.1-2.4 1.4-5.2 1.1-7.8.5-2-.4-2.8 2.5-.9 2.9zM1102.9 195.9h-.3c-.3-.1-.5-.1-.8-.2-.1-.1-.2-.1-.2-.2-.1-.2-.3-.4-.4-.7v-.1c-.1-.4.1-.8.6-1.2.3-.1.5-.1.8-.2h.3c-.7-.3-1.7.3-1.8 1-.2.9.3 1.5 1 1.8 1.1.5 2.1-.6 2.1-1.7s-1-2.1-2.1-1.7c-.8.3-1.3 1-1 1.8.2 1.1 1.1 1.7 1.8 1.4zM1110.7 188.3c1.9 0 1.9-3 0-3s-1.9 3 0 3zM1110.9 196.7l.6.6c.6.6 1.5.6 2.1 0 .6-.6.6-1.5 0-2.1l-.6-.6c-.6-.6-1.5-.6-2.1 0-.5.5-.5 1.5 0 2.1zM1082.1 164.8c4.6-11.9 14.4-20.9 26.5-24.6 1.8-.6 1.1-3.5-.8-2.9-13.2 4.1-23.6 13.8-28.6 26.7-.7 1.8 2.2 2.6 2.9.8z"/><path class="st1" d="M1105.7 139.2c7.6 26.5 33.6 40.7 60 40.4 1.9 0 1.9-3 0-3-25 .2-49.9-13-57.1-38.2-.6-1.8-3.5-1-2.9.8zM1134.8 253.5c.6 11.5-.4 22.9-3.1 34.2-.1.6.1 1.4.7 1.7 12.5 6.6 28 1.8 34.5-10.8.9-1.7-1.7-3.2-2.6-1.5-5.7 11.1-19.3 15.6-30.4 9.7.2.6.5 1.1.7 1.7 2.7-11.5 3.8-23.2 3.2-34.9-.1-2-3.1-2-3-.1z"/><path d="M1106.3 141.5c-3.4 1.4-8 3.6-12.5 7.5-8.5 7.3-12 16-13.4 20.4-2.9-.7-7.6-2.3-11-6.5-7-8.7-4.2-23.5 3-31.4 6.7-7.4 12.3-3 24.9-12 8-5.7 7.7-8.9 16.6-14.7 4.3-2.8 10.3-6.8 18.4-8.2 12.2-2.1 22.4 2.8 37.3 9.9 8.7 4.2 6.8 4.2 18.9 10.5 20.3 10.5 23.1 9.1 31.6 15.8 8.8 6.9 13.7 14.7 17.9 21.4 5.9 9.5 6 12.8 12.3 26.5 9.6 20.6 12.5 19.6 18.4 33.9 5 12.1 10 24 7.5 38.4-3.7 21.2-21.1 33.2-24.4 35.4-22.1 14.6-46.5 8.3-55.3 6-10.4-2.7-24.7-6.4-33.4-18.9-11.1-16-8.8-40.5 5-61.8 2 .2 5.5.3 9-1.5 7.9-4.1 11.9-15.8 7.5-23.9-.5-.9-4.4-7.9-12-8-7.5-.1-11.8 6.6-12 7-7.9-1.8-26.6-7.3-41.4-24.4-6.6-7.6-10.5-15.4-12.9-21.4z" fill="#5222d0"/><circle cx="1168.1" cy="215.7" r="5.7" fill="#f8f263"/><path d="M1135.2 250.7c0 1.2.1 2.4.2 3.6.1 1.3.3 2.6.4 3.8 3.6-1.2 9-3.6 13.6-8.7 5-5.7 7.3-13 6.4-13.6-.8-.5-3.2 3.6-8.9 8.1-4.5 3.5-8.8 5.5-11.7 6.8z" fill="#161616" stroke="#161616" stroke-miterlimit="10"/><path d="M1172.5 108.1c8 9 19.3 22.7 30.5 41 12.7 20.6 22.3 36.3 25.9 58.6 2.2 13.9 7.6 47.8-13.9 67.5-12.4 11.3-28.2 13-36.1 13.2 4.1 1.9 10.1 4.3 17.6 6.1 10.4 2.5 26.5 6.3 43.8-.2 3.4-1.3 25.9-10.2 33.6-33.1 5.1-15.2 1.2-29.2-.4-34.8-2.8-9.9-7.8-18.4-10.4-22.9-4.4-7.4-9-13.4-13.1-22.5-2.5-5.4-4.1-9.8-4.1-9.8-2.1-5.5-1.8-5.8-3.2-8.7-1.5-3.3-2.5-4.2-6.8-11-4.1-6.5-3.2-5.6-4.7-7.7-5.7-7.9-12-11.9-13.5-12.8-1.1-.7-3.2-1.7-7.5-3.8-6.5-3.1-11.4-5.3-12.4-5.7-4.9-1.9-12.7-5.8-25.3-13.4z" opacity=".19" fill="#444647"/><path d="M1106 140.4c11.3 14.1 22.3 23.9 30.6 30.4 13.9 10.9 21.9 13.8 28.7 11.7 2.1-.6 3.7-1.6 4.7-2.3-2.3.9-5.3 2.4-8 5.3-.5.6-1 1.2-1.4 1.8-2.2-.5-5.3-1.3-9-2.6-21.1-7.6-32.8-22.3-34.9-25-3.2-4.1-7.4-10.5-10.7-19.3z" opacity=".53" fill="#125689"/><path d="M1258.3 197c1.2 6.9 2.4 16.7 1.9 28.3-.3 6.4-.9 21-5.7 32.7-10.7 26-41.5 35.7-49.3 37.9 3.1.6 33.8 6.1 54.5-13.9 11.8-11.4 15.3-26.1 15.5-27 1.9-8.2 1.2-14.8.8-18.5-2-18.7-11.8-32.5-17.7-39.5z" opacity=".15" fill="#252626"/></g></svg>