<svg width="1351" height="1076" fill="none" xmlns="http://www.w3.org/2000/svg"><path d="M375 411.939a1 1 0 000 2v-2zm0 2h4.359v-2H375v2zm13.077 0h8.718v-2h-8.718v2zm17.436 0h8.718v-2h-8.718v2zm17.436 0h8.718v-2h-8.718v2zm17.436 0h8.718v-2h-8.718v2zm17.436 0h8.718v-2h-8.718v2zm17.436 0h8.718v-2h-8.718v2zm17.436 0h8.718v-2h-8.718v2zm17.436 0h8.718v-2h-8.718v2zm17.436 0h8.718v-2h-8.718v2zm17.436 0h8.718v-2h-8.718v2zm17.436 0h8.718v-2h-8.718v2zm17.436 0h8.718v-2h-8.718v2zm17.436 0h8.718v-2h-8.718v2zm17.436 0h8.718v-2h-8.718v2zm17.436 0h8.718v-2h-8.718v2zm17.436 0h8.718v-2h-8.718v2zm17.436 0h8.718v-2h-8.718v2zm17.437 0h8.718v-2h-8.718v2zm17.436 0h8.718v-2h-8.718v2zm17.436 0h8.718v-2h-8.718v2zm17.436 0h8.718v-2h-8.718v2zm17.436 0h8.718v-2h-8.718v2zm17.436 0h8.718v-2h-8.718v2zm17.436 0h8.718v-2h-8.718v2zm17.436 0h4.359v-2h-4.359v2zm4.359 0c1.23 0 2.433-.12 3.598-.351l-.388-1.962a16.475 16.475 0 01-3.21.313v2zm10.249-3.107a18.531 18.531 0 005.088-5.089l-1.662-1.112a16.549 16.549 0 01-4.539 4.539l1.113 1.662zm7.845-11.739c.23-1.165.351-2.368.351-3.599h-2c0 1.1-.108 2.173-.313 3.211l1.962.388zm.351-3.599v-4.159h-2v4.159h2zm0-12.477v-8.318h-2v8.318h2zm0-16.636v-8.317h-2v8.317h2zm0-16.635v-8.318h-2v8.318h2zm0-16.636v-8.318h-2v8.318h2zm0-16.636v-8.318h-2v8.318h2zm0-16.636v-8.318h-2v8.318h2zm0-16.636v-8.318h-2v8.318h2zm0-16.636v-8.318h-2v8.318h2zm0-16.636v-4.159h-2v4.159h2zm0-4.159c0-1.19-.117-2.354-.34-3.481l-1.962.388c.198 1 .302 2.034.302 3.093h2zm-3.007-9.916a17.939 17.939 0 00-4.923-4.923l-1.113 1.662a15.933 15.933 0 014.374 4.374l1.662-1.113zm-11.357-7.59a18.001 18.001 0 00-3.482-.339v2c1.06 0 2.094.104 3.094.301l.388-1.962zM375 410.939a2 2 0 000 4v-4zm0 4h4.359v-4H375v4zm13.077 0h8.718v-4h-8.718v4zm17.436 0h8.718v-4h-8.718v4zm17.436 0h8.718v-4h-8.718v4zm17.436 0h8.718v-4h-8.718v4zm17.436 0h8.718v-4h-8.718v4zm17.436 0h8.718v-4h-8.718v4zm17.436 0h8.718v-4h-8.718v4zm17.436 0h8.718v-4h-8.718v4zm17.436 0h8.718v-4h-8.718v4zm17.436 0h8.718v-4h-8.718v4zm17.436 0h8.718v-4h-8.718v4zm17.436 0h8.718v-4h-8.718v4zm17.436 0h8.718v-4h-8.718v4zm17.436 0h8.718v-4h-8.718v4zm17.436 0h8.718v-4h-8.718v4zm17.436 0h8.718v-4h-8.718v4zm17.436 0h8.718v-4h-8.718v4zm17.437 0h8.718v-4h-8.718v4zm17.436 0h8.718v-4h-8.718v4zm17.436 0h8.718v-4h-8.718v4zm17.436 0h8.718v-4h-8.718v4zm17.436 0h8.718v-4h-8.718v4zm17.436 0h8.718v-4h-8.718v4zm17.436 0h8.718v-4h-8.718v4zm17.436 0h4.359v-4h-4.359v4zm4.359 0a19.52 19.52 0 003.792-.37l-.776-3.924c-.974.193-1.982.294-3.016.294v4zm10.805-3.276a19.541 19.541 0 005.363-5.363l-3.324-2.226a15.525 15.525 0 01-4.264 4.265l2.225 3.324zm8.27-12.376a19.53 19.53 0 00.37-3.793h-4a15.59 15.59 0 01-.294 3.017l3.924.776zm.37-3.793v-4.159h-4v4.159h4zm0-12.477v-8.318h-4v8.318h4zm0-16.636v-8.317h-4v8.317h4zm0-16.635v-8.318h-4v8.318h4zm0-16.636v-8.318h-4v8.318h4zm0-16.636v-8.318h-4v8.318h4zm0-16.636v-8.318h-4v8.318h4zm0-16.636v-8.318h-4v8.318h4zm0-16.636v-8.318h-4v8.318h4zm0-16.636v-4.159h-4v4.159h4zm0-4.159c0-1.256-.124-2.485-.359-3.675l-3.924.776c.185.936.283 1.905.283 2.899h4zm-3.176-10.472a18.938 18.938 0 00-5.198-5.198l-2.225 3.324a14.946 14.946 0 014.099 4.099l3.324-2.225zm-11.994-8.015a18.974 18.974 0 00-3.676-.358v4c.994 0 1.963.097 2.899.282l.777-3.924z" fill="#2D374B" fill-opacity=".5"/><rect x="315.636" y="235.189" width="470.512" height="179.652" rx="15.264" transform="rotate(-13.715 315.636 235.189)" stroke="#2D374B" stroke-width="4.361"/><path d="M411.844 294.352c.749 3.071-1.064 6.151-4.049 6.88-2.986.729-6.014-1.17-6.764-4.241-.749-3.071 1.064-6.152 4.049-6.88 2.986-.729 6.014 1.17 6.764 4.241z" fill="#2D374B"/><path d="M393.356 281.188c-3.981.972-6.398 5.079-5.399 9.174l9.047 37.071c.999 4.095 5.037 6.627 9.018 5.655l43.25-10.555c3.981-.971 6.398-5.079 5.399-9.173l-9.047-37.072c-1-4.095-5.037-6.627-9.018-5.655l-43.25 10.555zm44.155-6.848c1.99-.486 4.009.78 4.508 2.828l5.881 24.096-15.372-3.897a1.818 1.818 0 00-1.996.855l-10.015 17.018-11.187-4.233a1.817 1.817 0 00-2.218.787l-7.408 11.052-8.143-33.364c-.5-2.047.709-4.101 2.7-4.587l43.25-10.555z" fill="#2D374B"/><rect x="556.343" y="223.081" width="65.295" height="11.872" rx="5.936" transform="rotate(-13.715 556.343 223.081)" fill="#2D374B"/><rect x="566.355" y="270.257" width="104.221" height="11.58" rx="5.79" transform="rotate(-13.715 566.355 270.257)" fill="#2D374B" fill-opacity=".2"/><rect x="690.104" y="240.056" width="46.321" height="11.58" rx="5.79" transform="rotate(-13.715 690.104 240.056)" fill="#2D374B" fill-opacity=".2"/><rect x="576.008" y="303.661" width="35.615" height="11.872" rx="5.936" transform="rotate(-13.715 576.008 303.661)" fill="#2D374B" fill-opacity=".2"/><rect x="627.946" y="291.148" width="35.615" height="11.872" rx="5.936" transform="rotate(-13.715 627.946 291.148)" fill="#2D374B" fill-opacity=".2"/><rect x="679.845" y="278.483" width="35.615" height="11.872" rx="5.936" transform="rotate(-13.715 679.845 278.483)" fill="#2D374B" fill-opacity=".2"/><path fill="#2D374B" d="M487.408 197.134l4.352-1.062 40.813 167.234-4.352 1.062z"/><path d="M788.5 187.014h23.401c9.634 0 17.445-7.811 17.445-17.446V20.445C829.346 10.81 821.535 3 811.901 3H371.917c-9.634 0-17.445 7.81-17.445 17.445v149.123c0 9.635 7.811 17.446 17.445 17.446H514.5" stroke="#2D374B" stroke-width="4.361"/><path d="M436.091 85.467c0 3.161-2.491 5.724-5.565 5.724-3.073 0-5.565-2.563-5.565-5.724s2.492-5.724 5.565-5.724c3.074 0 5.565 2.563 5.565 5.724z" fill="#2D374B"/><path d="M421.252 68.295c-4.098 0-7.42 3.417-7.42 7.632v38.16c0 4.215 3.322 7.631 7.42 7.631h44.519c4.098 0 7.42-3.416 7.42-7.631v-38.16c0-4.215-3.322-7.632-7.42-7.632h-44.519zm44.519 3.816c2.049 0 3.71 1.709 3.71 3.816v24.804l-14.01-7.43a1.818 1.818 0 00-2.142.357l-13.764 14.157-9.865-6.764a1.817 1.817 0 00-2.34.239l-9.818 8.981V75.927c0-2.107 1.661-3.816 3.71-3.816h44.519z" fill="#2D374B"/><rect x="593.368" y="50.487" width="65.295" height="11.872" rx="5.936" fill="#2D374B"/><rect x="591.909" y="98.691" width="104.221" height="11.58" rx="5.79" fill="#2D374B" fill-opacity=".2"/><rect x="719.29" y="98.691" width="46.321" height="11.58" rx="5.79" fill="#2D374B" fill-opacity=".2"/><rect x="593.368" y="133.432" width="35.615" height="11.872" rx="5.936" fill="#2D374B" fill-opacity=".2"/><path fill="#2D374B" d="M532.55 8.936h4.48v172.142h-4.48z"/><rect x="877.694" y="231.167" width="470.512" height="179.652" rx="15.264" stroke="#2D374B" stroke-width="4.361"/><path d="M957.133 311.453c0 3.162-2.492 5.724-5.565 5.724-3.074 0-5.565-2.562-5.565-5.724 0-3.161 2.491-5.724 5.565-5.724 3.073 0 5.565 2.563 5.565 5.724z" fill="#2D374B"/><path d="M942.293 294.281c-4.098 0-7.42 3.417-7.42 7.632v38.16c0 4.215 3.322 7.632 7.42 7.632h44.519c4.098 0 7.42-3.417 7.42-7.632v-38.16c0-4.215-3.322-7.632-7.42-7.632h-44.519zm44.519 3.816c2.049 0 3.71 1.709 3.71 3.816v24.804l-14.01-7.43a1.815 1.815 0 00-2.141.357l-13.765 14.158-9.864-6.764a1.817 1.817 0 00-2.341.238l-9.818 8.981v-34.344c0-2.107 1.661-3.816 3.71-3.816h44.519z" fill="#2D374B"/><rect x="1114.41" y="276.474" width="65.295" height="11.872" rx="5.936" fill="#2D374B"/><rect x="1112.95" y="324.678" width="104.221" height="11.58" rx="5.79" fill="#2D374B" fill-opacity=".2"/><rect x="1240.33" y="324.678" width="46.321" height="11.58" rx="5.79" fill="#2D374B" fill-opacity=".2"/><rect x="1114.41" y="359.418" width="35.615" height="11.872" rx="5.936" fill="#2D374B" fill-opacity=".2"/><rect x="1167.83" y="359.577" width="35.615" height="11.872" rx="5.936" fill="#2D374B" fill-opacity=".2"/><rect x="1221.26" y="359.577" width="35.615" height="11.872" rx="5.936" fill="#2D374B" fill-opacity=".2"/><path fill="#2D374B" d="M1053.59 234.922h4.48v172.142h-4.48z"/><rect x="877.694" y="5.053" width="470.512" height="179.652" rx="15.264" stroke="#2D374B" stroke-opacity=".1" stroke-width="4.361" stroke-dasharray="8.72 8.72"/><path d="M323.293 381.144c15.463 12.37 39.543 39.207 15.321 49.77-.99.432-1.548 1.536-1.254 2.576 4.773 16.85 4.543 52.979-31.47 77.254-.38.256-.672.638-.81 1.075l-7.02 22.325m-39.267-47c-1.834 6-3.2 25.5 4 41.5m-9 4.5c15.666-5.667 45.5-12.6 45.5 7v4.943c0 1.659 1.9 2.595 3.209 1.576 25.574-19.899 50.3-42.341 69.498-62.019M308.793 471.144c-.5 3 .8 9.2 10 10" stroke="#2D374B" stroke-width="5" stroke-linecap="round"/><path d="M335.793 409.644c0 5.604-1.656 10.576-4.209 14.085-2.554 3.513-5.87 5.415-9.291 5.415-3.422 0-6.738-1.902-9.292-5.415-2.553-3.509-4.208-8.481-4.208-14.085 0-5.605 1.655-10.577 4.208-14.086 2.554-3.513 5.87-5.414 9.292-5.414 3.421 0 6.737 1.901 9.291 5.414 2.553 3.509 4.209 8.481 4.209 14.086zM277.293 424.644l31-10M300.793 404.144c.833-3.334 3.9-11 9.5-15" stroke="#2D374B" stroke-width="5" stroke-linecap="round"/><circle cx="323.793" cy="409.144" r="3.5" fill="#2D374B"/><path d="M254.046 532.909L138.018 669.051m0 0c-1.682 5.005-3.351 16.678 10.775 31.093m-10.775-31.093c8.576-1.168 30.873-.601 51.456 11.011 25.728 14.515 52.969 40.042 120.568 62.565m0 0l-22.701 16.017m22.701-16.017c-1.85-19.854-3.33-63.666 5.549-80.083 8.878-16.417 17.409-39.9 23.409-49.4 22.5-32 20.5-26 54-71.5" stroke="#2D374B" stroke-width="5" stroke-linecap="round"/><path d="M221.293 570.144c-18.667 15.5-66 48.2-106 55-9.334 3.833-25.4 14.6-15 27 10.4 12.4 17.333 27.5 19.5 33.5 1.666 5.5 7.5 12.1 17.5-5.5" stroke="#2D374B" stroke-width="5" stroke-linecap="round"/><path d="M107.293 660.644c-7.834 4.5-26.1 13.1-36.5 11.5-10.4-1.6-17.334 2.666-19.5 5-1.167 1.833-1.9 5.6 4.5 6 6.4.4 14 .166 17 0m8.5-6c-3.5 3.666-15.4 12-35 16-3.834.666-9 4.5-2 9 6 3.5 22.6.3 31-4.5-6.5 3.166-18.2 11.6-13 20 1.666 1.666 8.7 1.8 23.5-11m0 0l11-9m-11 9c-3.167 8.166-8 28 5 17 9.5-9.5 7.5-17.6 11.5-20 4-2.4 13-11.667 17-16m-22.5-6.5c-1.167 4.333-2.1 14.4 3.5 20M164.793 671.644c-6.334 18-36 55-62.5 101.5-17.667 29.166-59.8 94.3-87 121.5-3.667 5.166-7.1 16.9 8.5 22.5 12 5 17.4 16.6 19 29 2 15.5 27.5 27 44.5 15.5 13.55-9.167 52.512-75.192 81.946-112.5m20.054-21.5c-5.683 4.363-12.56 12-20.054 21.5m0 0l-33.446 174.496m0 0c3.464 5.34 15.003 15.4 33.446 13m-33.446-13c17-4.5 63.7-13 92.5-13" stroke="#2D374B" stroke-width="5" stroke-linecap="round"/><path d="M217.293 1017.64c6.333-1.66 19.1-10.1 19.5-30.496.4-20.4 8.833-55.5 13-70.5l41-180" stroke="#2D374B" stroke-width="5" stroke-linecap="round"/><circle cx="304.793" cy="441.144" r="1.5" fill="#2D374B"/><circle cx="310.793" cy="449.144" r="1.5" fill="#2D374B"/><circle cx="295.793" cy="452.144" r="1.5" fill="#2D374B"/><path d="M148.793 428.644c24.4-45.6 60.833-51.334 76-48.5 31.5-48.5 75-64.5 101.5-50 21.2 11.6 3.833 40.833-7.5 54l-11-16c-7.6 14.8-29.334 9.333-40 6 9.166 19.333 23.8 69.3-7 114.5s-69.5 46-89 33c-18-12.834-47.4-47.4-23-93zM10.596 1005.72c-23.803-47.576-1.737-79.236 10.197-87.076 18.5 6 19 26 22 35.5l-6.924 19.548c-4.634 8.408-1.93 24.855 0 32.028 8.002 33.23-4.076 36.42-10.004 27.52l-15.269-27.52zM237.293 1050.14c-62.8 8.4-75.834-15.83-74.5-30 10.8-4.4 40.5-6 54.5-7-4 9.2 1 8 4.5 10.5 4.5 3 17 6.67 24 7 31.5 1.5 6.833 17.34-8.5 19.5z" fill="#2D374B"/><path d="M372 484.644c8.5 8 24.2 30.6 21 57M374.5 483.643c4-5.666 12-18 8-29-1.262-3.996-1.838-12.876 1-17.5 3.909-6.367 12.052-7.058 13.5 2.5l1 11m-7.5 13.5c6.5-10.333 21.5-31.8 29.5-35 8-3.2 9.333 0 9 2m0 0c-5.333 5.667-16.5 19.2-18.5 28m18.5-28c5-4.5 15.4-11.8 17-5 1 6.5-15.2 17.9-22 29.5m14.5-17.28c5.167-.833 9 5.28 0 18.28l-2.26 3.5m-13.24 20.5l13.24-20.5m0 0c4.079.5 9.791 5.5 0 21.5-7.247 10.5-25.64 35.3-41.24 50.5" stroke="#2D374B" stroke-width="5" stroke-linecap="round"/><path d="M654 521.643c-18.4-3.2-14.333-21-10-29.5 24-4 17.5-29 10-22-6 5.6-11.5 4.334-13.5 3-8.8-4-1.333-16.666 3.5-22.5l-12.5-18c-4.5.667-15.4-3.2-23-24s7.5-32 16-35c9.167-2.333 34.3-.8 61.5 24 27.2 24.8 22.333 58.667 16.5 72.5-8.5 18.5-30.1 54.7-48.5 51.5z" fill="#2D374B"/><path d="M633.5 434.644c-16 12-47.3 44.2-44.5 77 1.333 7.666 9 25 29 33 2 .166 5.9 1.8 5.5 7m33.5-30c-3.833 4-8.4 13.5-6 23.5M612.5 454.644c-11.5 4.666-31.2 16.2-18 25M625 447.644c2.167 1.666 6.1 6.6 4.5 13M646 477.144c.667 2.333.6 6.9-5 6.5M590.5 502.644c2.833-1 8.8-4.3 10-9.5" stroke="#2D374B" stroke-width="5" stroke-linecap="round"/><circle cx="625" cy="482.644" r="2" fill="#2D374B"/><ellipse cx="619.757" cy="459.877" rx="2.5" ry="3.5" transform="rotate(25.337 619.757 459.877)" fill="#2D374B"/><circle cx="616" cy="492.644" r="2" fill="#2D374B"/><circle cx="627" cy="499.644" r="2" fill="#2D374B"/><path d="M701.5 676.144c-7.6 18-38.167 15.5-52.5 12l-5.5-2v6l10 2c5.333 1.666 16.2 8.5 17 22.5 1 17.5-3.5 64.5-5.5 77-1.6 10-9.333 13.833-13 14.5-5.6 10.8-28 7.833-38.5 5-.8 7.6-7.667 6.833-11 5.5-.4 2.8-4.5 2.833-6.5 2.5-12.4 50.4-9.5 142.666-6.5 182.496-.667 10.84 2.8 31.9 22 29.5 19.2-2.4 53 1 67.5 3 23.6 4.4 31.167-10.5 32-18.5 19.2 6.8 30.333-.83 33.5-5.5-5.6-165.996-31-293.163-43-335.996z" fill="#2D374B"/><path d="M646.5 1033.14c0 2.17-.5 6.9-2.5 8.5-2.5 2-47.5-3-46.5 19.5-.5 3.17 4.5 8 16.5 9.5 16.879 2.11 65.26 8.27 76.861-13m6.139-23l-4.5 19a19.57 19.57 0 01-1.639 4m35.639-37.5c2.074 13.84-2.15 40.7-35.639 37.5M671 571.644c41 19 117.3 112.1 44.5 158.5" stroke="#2D374B" stroke-width="5" stroke-linecap="round"/><path d="M700 681.644c-5-26.167-16.6-88.4-31-108-.833-11.5-5.6-33.3-18-28.5-12.5.333-37.5 6.1-37.5 26.5v17.5m19.5-15.5c-17 8.666-53.3 53.2-62.5 162-.667 13 5.2 39 34 39s40-77.5 43.5-116M584 770.644c-.5 7.166-3.4 22.2-11 25-9.5 3.5-1.5 17.5 3.5 21m0-21c-1.167 8-.6 24 11 24m0-16c-1 5.333-.1 16 11.5 16m0-16c-1.5 6.166-1.6 17.7 10 14.5m5-40c-2.333 8.333-5.8 26.5-1 32.5" stroke="#2D374B" stroke-width="5" stroke-linecap="round"/><path d="M574 691.644c-15.833-.334-48.5 1.4-52.5 11s-10.333 37.333-13 50c-3.5 17-4.3 51.8 20.5 55 24.8 3.2 38.5 4 41.5 4M614 812.143c10.833 3.834 33.8 7 39-11 5.2-18 7.833-63.5 8.5-84 .333-5.833-2.7-17.9-17.5-19.5m-68.5-16c-11.833-1.166-36.2-.4-39 12m109-1.5c9.833.5 26.5 3.5 25 35-1.608 33.763-1.5 82.5-20 81M900.5 520.644c-4.333-6.5-12.9-21.3-12.5-28.5-.333-2.334-.2-7 3-7s4.333 4.666 4.5 7M969 680.644c-38-24.5-49.5-71-58.5-103-4.185-17-14.4-39.5 2-61.5s31.5-6.167 37 4.5l48 80m-28.5 51.5c-13.667 26.5-17 77 0 114.5m19.5-158.5c3.667-10.834 15.4-31.5 33-27.5s28.33-13.667 31.5-23m4.5 160.5c9.5 25.833 37.2 66.7 72 23.5s-16.83-131.667-47-170.5M1056.5 717.644c13.67 2.666 43.8 3.5 55-14.5M1053 557.644c5-2.334 16.2-1.4 29 13" stroke="#2D374B" stroke-width="5" stroke-linecap="round"/><path d="M996 766.643l-20-93.5c-2.5-11 2.4-33.2 42-34 10.33-.333 30-7 39.5-14 9.34-6.881 24.5-4.5 26 5.5l18 78.5" stroke="#2D374B" stroke-width="5" stroke-linecap="round"/><path d="M1055 717.144c-11.67-2.834-32.4-5.5-22 6.5 10.4 12-6.67 8-16.5 4.5-4-1.5-12-3.1-12 2.5 0 1.927 2.01 3.672 5 5.187m20.5 5.813c-5.58-.875-14.81-2.925-20.5-5.813m0 0c-3.61 1.817-6.03 5.633 3.17 9.813m19.33 5.5c-9.19-1.813-15.35-3.691-19.33-5.5m0 0c-2.92 2.735-4.06 8.051 9.33 10.976m11 1.524c-4.45-.359-8.07-.885-11-1.524m0 0c.83 5.008 8 13.124 30 5.524 22-7.6 25.83-10.5 25-11" stroke="#2D374B" stroke-width="5" stroke-linecap="round"/><path d="M1028 989.144c-48.8-9.2-61.333-154.167-61.5-225.5 25.2 7.2 46.83-2 54.5-7.5 5.6 18.4 39.67 5.333 56-3.5 16 16.5 33.5 7.333 40.5 0l57.5 150.5c5.17 16.333 7.5 55-24.5 79-32 23.996-47.67-4.667-51.5-22-3.33 13.5-22.2 38.2-71 29z" fill="#2D374B"/><path d="M1044.5 989.644c3.5 7 3.61 20.166-5.5 26.996-10 7.5-18.33 16-22 22.5-1.83 4.84-.3 13.5 20.5 9.5s37.67-14.66 43.5-19.5c3-2.66 7.7-10.9 2.5-22.5-5.2-11.596-7.83-18.83-8.5-20.996" stroke="#2D374B" stroke-width="5"/><path d="M1146 986.498c4.21 18.372 14.75 57.052 23.23 58.982 8.48 1.93 9.26-13.7 8.58-21.76-.84-11.44-4.44-40.219-12.12-56.076" stroke="#2D374B" stroke-width="5" stroke-linecap="round"/><path d="M1097.5 452.644c34 37.2 7.17 97.166-10.5 122.5-14.8-20.4-29.5-20.834-35-18.5l-7.5-14c9.6-8 16.33-26 18.5-34 4.83 2.666 14.5 3.9 14.5-12.5s-8.33-10.834-12.5-6l-15.5 4c2-24-18.5-35.334-29-38-.67 9-8.31 33.047-45.5 32-35.5-1-39.5-34-38.5-50.5 2.776-45.794 45.667-36.5 58.5-23.5 25.5-25 59 1.5 66.5 20 14.4-1.2 30 11.833 36 18.5zM969 551.644c-5.2-10.4 1.167-18.334 5-21 13.2 25.2 35.83 29.5 45.5 28.5v21.5c-12.4-2-22.167 8.833-25.5 14.5-6.167-10.167-19.8-33.1-25-43.5z" fill="#2D374B"/><path d="M963.5 482.644c-1 27.333 10.4 80.8 64 76 9.5-1.5 14-5 19-14.5M1007.5 543.144c2.17 2.166 8.6 5 17-1M1008.5 511.644c-3.17 7.833-6 22.6 8 19M1068 493.144c1.83 1.333 4.4 4.9 0 8.5M1023.5 497.644c2.67-1.334 9-3 13 1M978.5 501.644c2.167-1.5 7.6-3.2 12 2" stroke="#2D374B" stroke-width="5" stroke-linecap="round"/><path d="M999.5 503.644c0 9.919-7.181 17.5-15.5 17.5-8.319 0-15.5-7.581-15.5-17.5 0-9.92 7.181-17.5 15.5-17.5 8.319 0 15.5 7.58 15.5 17.5zM1046.5 499.644c0 11.262-7.39 19.5-15.5 19.5s-15.5-8.238-15.5-19.5 7.39-19.5 15.5-19.5 15.5 8.238 15.5 19.5z" stroke="#2D374B" stroke-width="5"/><ellipse cx="984.5" cy="516.644" rx="5.5" ry="4" fill="#2D374B"/><ellipse cx="1030.5" cy="513.644" rx="5.5" ry="4" fill="#2D374B"/><path d="M999.5 501.144c3.33-1.167 11-2.9 15-.5M894.5 486.144c1.167-5.334 2.8-17.9 0-25.5-2.8-7.6 1.167-10.167 3.5-10.5 2.5-.334 7.3 2.1 6.5 14.5" stroke="#2D374B" stroke-width="5" stroke-linecap="round"/><path d="M902 452.144c-1.167-6.167-1.6-18.6 6-19 8.8 2 9.667 23.166 9 33.5" stroke="#2D374B" stroke-width="5" stroke-linecap="round"/><path d="M915.5 442.644c3.894-.94 9.534.672 10.715 12m-.215 10c.467-3.967.5-7.267.215-10m0 0c3.095-2.667 8.985-4.4 7.785 10-1.5 18-3 16 1 40M1097.5 915.144c-2.17 13.166-3.1 44.6 10.5 65" stroke="#2D374B" stroke-width="5" stroke-linecap="round"/></svg>