<svg width="430" height="300" fill="none" xmlns="http://www.w3.org/2000/svg"><path d="M53.286 3l84 69m-57.5 9l37.5 18m-114 32.5h105m-32 54l41-12.5m-85.5 87l105.5-58" stroke="#2D374B" stroke-width="5" stroke-linecap="round"/><path d="M269.286 135c0 23.131-5.19 43.948-13.454 58.894-8.313 15.033-19.394 23.606-31.046 23.606-11.653 0-22.734-8.573-31.047-23.606-8.264-14.946-13.453-35.763-13.453-58.894s5.189-43.948 13.453-58.894c8.313-15.033 19.394-23.606 31.047-23.606 11.652 0 22.733 8.572 31.046 23.606 8.264 14.946 13.454 35.763 13.454 58.894z" stroke="#2D374B" stroke-width="5"/><ellipse cx="220.786" cy="135" rx="8" ry="15" fill="#2D374B"/><path d="M407.786 150c3.2-9.6 1.333-23.667 0-29.5l15.5 5.5c6.4 7.6 2.666 15.167 0 18l-15.5 6z" fill="#2D374B"/><path d="M423.286 126l-198-74m13 161.5l185-69.5M220.286 123l46-14.5m-46 38.5l46 16.5" stroke="#2D374B" stroke-width="5" stroke-linecap="round"/><path d="M342.286 272.5c-11.5 3-20.5-1.5-22-4-.441 3.194-2.362 13.582-.5 20.5.956 3.552 3.786 5.822 6.5 6.5 2.738.685 6.677-.014 9-3 4.463-5.739 6.452-16.711 7-20z" fill="#2D374B"/><path d="M329.286 180l-9.501 91c-.711 10.5-4.5 22 5.5 25 12.21 3.663 13.5-7.5 16-19l10.501-55 10-54.5M423.286 126c2.5 2.833 6 10.4 0 18M406.786 120c1.833 5.833 3.5 19 0 30" stroke="#2D374B" stroke-width="5" stroke-linecap="round"/></svg>