<svg width="823" height="696" fill="none" xmlns="http://www.w3.org/2000/svg"><path d="M601.35 182.37L138.227 300.695l81.689 319.729 463.123-118.325L601.35 182.37z" fill="#fff"/><path d="M590.89 200.008L155.864 311.155l74.51 291.632L665.4 491.641l-74.51-291.633z" stroke="#2D374B" stroke-width="3"/><path d="M621.679 204.227L156.725 315.14l76.572 320.993L698.251 525.22l-76.572-320.993z" fill="#fff"/><path d="M200.732 443.592L172.387 324.77 612.05 219.889 654.061 396M439.749 574.092L592.5 537.295l-152.751 36.797zm-59 14l-137.823 32.38-31.176-130.88 168.999 98.5zm11-2.5l18.501-4.5-18.501 4.5zm-185.889-120.5l-2.147-9 2.147 9z" stroke="#2D374B" stroke-width="3" stroke-linecap="round"/><path d="M64.793 270.878a65.736 65.736 0 00-12.53 4.048l2.125 9.907c-5.276 2.536-10.009 5.805-14.137 9.731l-8.507-5.502c-3.08 3.15-5.763 6.645-8.147 10.331-2.383 3.685-4.471 7.565-6.08 11.666l8.507 5.503c-1.887 5.375-2.928 11.032-3.077 16.884l-9.907 2.125a65.72 65.72 0 001.447 13.087 65.725 65.725 0 004.048 12.53l9.907-2.125c2.536 5.275 5.805 10.009 9.731 14.137l-5.502 8.507c3.15 3.08 6.645 5.763 10.33 8.147 3.686 2.383 7.566 4.471 11.667 6.08l5.502-8.507c5.375 1.887 11.033 2.928 16.885 3.077l2.124 9.907a65.742 65.742 0 0013.088-1.447 65.693 65.693 0 0012.53-4.048l-2.125-9.907c5.275-2.536 10.008-5.805 14.136-9.731l8.508 5.502c3.08-3.149 5.763-6.645 8.146-10.33 2.384-3.686 4.471-7.566 6.081-11.667l-8.508-5.502c1.888-5.375 2.928-11.033 3.078-16.885l9.906-2.125a65.653 65.653 0 00-1.446-13.087 65.733 65.733 0 00-4.049-12.53l-9.906 2.125c-2.537-5.275-5.806-10.009-9.732-14.137l5.503-8.507c-3.15-3.08-6.646-5.763-10.331-8.146-3.685-2.384-7.566-4.472-11.667-6.081l-5.502 8.507c-5.375-1.887-11.032-2.927-16.884-3.077l-2.125-9.907a65.739 65.739 0 00-13.087 1.447zm6.868 32.021c17.676-3.791 35.099 7.477 38.89 25.153 3.792 17.676-7.477 35.099-25.153 38.891-17.675 3.791-35.098-7.477-38.89-25.153-3.791-17.676 7.477-35.099 25.153-38.891z" fill="#2D374B"/><path d="M319.833 354.841a65.65 65.65 0 00-12.433 4.334l2.351 9.855c-5.216 2.656-9.874 6.033-13.911 10.052l-8.631-5.306c-3.007 3.219-5.609 6.775-7.908 10.514-2.299 3.739-4.297 7.666-5.812 11.803l8.631 5.306c-1.764 5.417-2.675 11.097-2.691 16.95l-9.855 2.351a65.756 65.756 0 001.745 13.051 65.729 65.729 0 004.334 12.434l9.856-2.351c2.656 5.216 6.033 9.873 10.052 13.911l-5.306 8.63c3.219 3.008 6.775 5.61 10.514 7.909 3.739 2.298 7.666 4.297 11.803 5.812l5.306-8.631c5.417 1.764 11.097 2.674 16.95 2.69l2.351 9.856a65.758 65.758 0 0013.051-1.746 65.683 65.683 0 0012.434-4.334l-2.351-9.855c5.216-2.656 9.873-6.033 13.91-10.052l8.631 5.306c3.008-3.219 5.61-6.775 7.908-10.514 2.299-3.739 4.298-7.666 5.813-11.803l-8.631-5.306c1.764-5.417 2.674-11.097 2.69-16.95l9.856-2.351a65.758 65.758 0 00-1.746-13.051 65.729 65.729 0 00-4.334-12.434l-9.855 2.351c-2.657-5.216-6.033-9.873-10.052-13.911l5.306-8.63c-3.219-3.008-6.775-5.61-10.514-7.909-3.739-2.298-7.666-4.297-11.803-5.812l-5.306 8.631c-5.417-1.764-11.097-2.674-16.95-2.69l-2.351-9.856a65.768 65.768 0 00-13.052 1.746zm7.6 31.856c17.584-4.195 35.26 6.672 39.455 24.257 4.195 17.584-6.672 35.26-24.257 39.455s-35.261-6.672-39.455-24.257c-4.195-17.584 6.672-35.26 24.257-39.455z" stroke="#2D374B" stroke-width="5" stroke-linecap="round" stroke-linejoin="round"/><path d="M354.843 500.487a31.695 31.695 0 00-5.979 2.084l1.13 4.74a26.468 26.468 0 00-6.689 4.834l-4.151-2.552c-1.446 1.549-2.698 3.259-3.803 5.057-1.106 1.798-2.067 3.687-2.795 5.676l4.15 2.552a26.454 26.454 0 00-1.293 8.152l-4.74 1.13c.07 2.076.339 4.178.839 6.277a31.695 31.695 0 002.084 5.979l4.74-1.13a26.468 26.468 0 004.834 6.689l-2.551 4.151c1.548 1.446 3.258 2.698 5.056 3.803 1.798 1.106 3.687 2.067 5.676 2.795l2.552-4.15a26.49 26.49 0 008.152 1.294l1.13 4.739a31.668 31.668 0 006.277-.839 31.695 31.695 0 005.979-2.084l-1.13-4.74A26.468 26.468 0 00381 550.11l4.151 2.552c1.446-1.549 2.698-3.259 3.803-5.057 1.106-1.798 2.067-3.687 2.795-5.676l-4.15-2.552a26.483 26.483 0 001.294-8.151l4.739-1.131a31.668 31.668 0 00-.839-6.277 31.695 31.695 0 00-2.084-5.979l-4.74 1.13a26.468 26.468 0 00-4.834-6.689l2.552-4.151c-1.549-1.446-3.259-2.698-5.057-3.803-1.798-1.106-3.687-2.067-5.676-2.795l-2.552 4.15a26.483 26.483 0 00-8.151-1.294l-1.131-4.739c-2.076.07-4.178.339-6.277.839zm3.655 15.32c8.457-2.017 16.957 3.209 18.975 11.666 2.017 8.457-3.209 16.957-11.666 18.975-8.457 2.017-16.957-3.209-18.975-11.666-2.017-8.457 3.209-16.957 11.666-18.975z" stroke="#2D374B" stroke-opacity=".7" stroke-width="3" stroke-linecap="round" stroke-linejoin="round"/><path d="M596.225 487.148l21.796-50.661c20.288-47.157 77.696-65.333 121.428-38.447 43.81 26.934 53.447 86.507 20.364 125.879l-35.478 42.224c-24.247 28.855-65.967 35.605-98.075 15.865-32.172-19.779-44.96-60.168-30.035-94.86z" stroke="#2D374B" stroke-width="5"/><path d="M609.594 461.054l8.687-21.674c19.081-47.612 76.44-66.569 120.136-39.705 43.784 26.918 52.69 86.822 18.632 125.314l-15.474 17.487c-25.334 28.632-67.581 34.914-100.15 14.891-32.646-20.071-46.087-60.74-31.831-96.313z" fill="#2D374B"/><path d="M338.575 433.166c8.327-1.987 13.467-10.347 11.48-18.674-1.986-8.327-10.347-13.466-18.673-11.48-8.327 1.986-13.467 10.347-11.481 18.673 1.987 8.327 10.347 13.467 18.674 11.481z" stroke="#2D374B" stroke-width="2"/><path d="M340.198 439.975c12.087-2.884 19.548-15.02 16.665-27.107-2.884-12.087-15.02-19.548-27.107-16.665-12.087 2.883-19.548 15.019-16.665 27.107 2.883 12.087 15.019 19.548 27.107 16.665z" stroke="#2D374B" stroke-width="2"/><path d="M312.42 317.066a1 1 0 00-1.945.464l1.945-.464zm58.848 255.313a1 1 0 001.946-.464l-1.946.464zM310.475 317.53l1.381 5.792 1.946-.464-1.382-5.792-1.945.464zm4.145 17.376l2.763 11.584 1.945-.464-2.763-11.584-1.945.464zm5.526 23.168l2.764 11.584 1.945-.464-2.763-11.584-1.946.464zm5.527 23.168l2.763 11.584 1.946-.464-2.764-11.584-1.945.464zm5.527 23.168l2.763 11.584 1.945-.464-2.763-11.584-1.945.464zm5.526 23.168l2.764 11.584 1.945-.464-2.763-11.584-1.946.464zm5.527 23.169l2.763 11.584 1.946-.464-2.764-11.585-1.945.465zm5.527 23.168l2.763 11.584 1.945-.464-2.763-11.584-1.945.464zm5.526 23.168l2.764 11.584 1.945-.464-2.763-11.584-1.946.464zm5.527 23.168l2.763 11.584 1.946-.464-2.764-11.584-1.945.464zm5.527 23.168l2.763 11.584 1.945-.464-2.763-11.584-1.945.464zm5.526 23.168l1.382 5.792 1.946-.464-1.382-5.792-1.946.464zM421.917 284.777a.999.999 0 10-1.945.464l1.945-.464zm41.213 181.388a1.001 1.001 0 001.946-.464l-1.946.464zm-43.158-180.924l1.348 5.654 1.946-.464-1.349-5.654-1.945.464zm4.046 16.962l2.697 11.308 1.946-.464-2.698-11.308-1.945.464zm5.395 22.615l2.697 11.308 1.945-.464-2.697-11.308-1.945.464zm5.394 22.616l2.698 11.307 1.945-.464-2.697-11.307-1.946.464zm5.395 22.615l2.698 11.308 1.945-.464-2.697-11.308-1.946.464zm5.395 22.616l2.698 11.307 1.945-.464-2.697-11.307-1.946.464zm5.395 22.615l2.697 11.308 1.946-.464-2.698-11.308-1.945.464zm5.395 22.616l2.697 11.307 1.946-.464-2.698-11.308-1.945.465zm5.395 22.615l1.348 5.654 1.946-.464-1.349-5.654-1.945.464zM488.221 273.862a1 1 0 00-1.946.464l1.946-.464zm47.246 206.678a1 1 0 001.945-.464l-1.945.464zm-49.192-206.214l1.367 5.728 1.945-.464-1.366-5.728-1.946.464zm4.1 17.185l2.733 11.456 1.945-.464-2.733-11.456-1.945.464zm5.465 22.912l2.733 11.457 1.946-.464-2.733-11.457-1.946.464zm5.466 22.913l2.733 11.456 1.945-.464-2.732-11.456-1.946.464zm5.466 22.913l2.733 11.456 1.945-.464-2.733-11.456-1.945.464zm5.466 22.912l2.733 11.457 1.945-.464-2.733-11.457-1.945.464zm5.465 22.913l2.733 11.456 1.946-.464-2.733-11.456-1.946.464zm5.466 22.913l2.733 11.456 1.945-.464-2.732-11.456-1.946.464zm5.466 22.912l2.733 11.457 1.945-.464-2.733-11.457-1.945.464zm5.466 22.913l1.366 5.728 1.945-.464-1.366-5.728-1.945.464zM560.238 278.511a.999.999 0 10-1.945.464l1.945-.464zm37.269 164.851a1 1 0 001.945-.464l-1.945.464zm-39.214-164.387l1.4 5.871 1.946-.464-1.401-5.871-1.945.464zm4.201 17.613l2.801 11.742 1.946-.464-2.801-11.742-1.946.464zm5.602 23.484l2.801 11.742 1.946-.465-2.801-11.741-1.946.464zm5.602 23.484l2.801 11.741 1.946-.464-2.801-11.742-1.946.465zm5.602 23.483l2.802 11.742 1.945-.464-2.801-11.742-1.946.464zm5.603 23.484l2.801 11.742 1.945-.464-2.801-11.742-1.945.464zm5.602 23.484l2.801 11.742 1.945-.464-2.801-11.742-1.945.464zm5.602 23.484l1.4 5.871 1.945-.464-1.4-5.871-1.945.464zM300.243 546.144a.999.999 0 10.464 1.945l-.464-1.945zm120.107-26.596a1 1 0 10-.464-1.945l.464 1.945zm-119.643 28.541l5.982-1.427-.464-1.946-5.982 1.428.464 1.945zm17.946-4.281l11.964-2.854-.464-1.946-11.964 2.854.464 1.946zm23.929-5.708l11.964-2.854-.464-1.946-11.964 2.854.464 1.946zm23.928-5.708l11.965-2.854-.464-1.946-11.965 2.854.464 1.946zm23.929-5.708l11.964-2.854-.464-1.946-11.964 2.854.464 1.946zm23.928-5.709l5.983-1.427-.464-1.945-5.983 1.427.464 1.945z" fill="#2D374B" fill-opacity=".3"/><path d="M238.077 440.69a1 1 0 00.464 1.946l-.464-1.946zm368.147-85.764a1 1 0 00-.464-1.945l.464 1.945zm-367.683 87.71l5.745-1.371-.464-1.945-5.745 1.37.464 1.946zm17.235-4.112l11.49-2.741-.464-1.945-11.49 2.741.464 1.945zm22.98-5.481l11.49-2.741-.464-1.946-11.49 2.741.464 1.946zm22.98-5.482l11.49-2.741-.464-1.946-11.49 2.741.464 1.946zm22.98-5.482l11.491-2.741-.465-1.946-11.49 2.741.464 1.946zm22.981-5.482l11.49-2.741-.464-1.945-11.49 2.741.464 1.945zm22.98-5.482l11.49-2.741-.464-1.945-11.49 2.741.464 1.945zm22.98-5.482l11.49-2.741-.464-1.945-11.49 2.741.464 1.945zm22.98-5.482l11.49-2.741-.464-1.945-11.49 2.741.464 1.945zm22.98-5.481l11.491-2.741-.465-1.946-11.49 2.741.464 1.946zm22.981-5.482l11.49-2.741-.464-1.946-11.49 2.741.464 1.946zm22.98-5.482l11.49-2.741-.464-1.946-11.49 2.741.464 1.946zm22.98-5.482l11.49-2.741-.464-1.945-11.49 2.741.464 1.945zm22.98-5.482l11.49-2.741-.464-1.945-11.49 2.741.464 1.945zm22.98-5.482l11.491-2.741-.465-1.945-11.49 2.741.464 1.945zm22.981-5.482l11.49-2.741-.464-1.945-11.49 2.741.464 1.945zm22.98-5.482l5.745-1.37-.464-1.945-5.745 1.37.464 1.945z" fill="#2D374B" fill-opacity=".3"/><path d="M303.491 559.762l12.645-3.017M439.804 514.908l83.653-19.955M442.588 526.58l76.844-18.331M444.213 533.389l41.826-9.977M305.115 566.57l26.263-6.265" stroke="#2D374B" stroke-width="3" stroke-linecap="round"/><path d="M454.959 358.215l14.073-22.89M447.629 396.871l52.588-85.537M511 321l-17.516 28.014m-33.065 53.783L477.5 375l-17.081 27.797zM526.291 322.384l-12.807 20.831M470 413.944l13.117-21.334L470 413.944zM543.5 320.5L527 348m-51.617 83.918l17.696-28.783-17.696 28.783zM550.5 337L538 356.5m-45.506 74.317l13.215-21.493-13.215 21.493zM558 350l-14.5 24.5m-35.376 57.625l13.764-22.662-13.764 22.662zM519.31 440.663L572 354M549.013 419.081L565 393" stroke="#2D374B" stroke-opacity=".6" stroke-width="3" stroke-linecap="round"/><path d="M495.253 313.124a65.72 65.72 0 00-12.433 4.334l2.351 9.856c-5.216 2.656-9.874 6.033-13.911 10.052l-8.631-5.306c-3.007 3.219-5.609 6.775-7.908 10.514-2.299 3.739-4.297 7.666-5.812 11.803l8.631 5.306c-1.764 5.416-2.675 11.096-2.691 16.95l-9.855 2.351a65.756 65.756 0 001.745 13.051 65.753 65.753 0 004.334 12.434l9.856-2.351c2.656 5.216 6.033 9.873 10.052 13.91l-5.306 8.631c3.219 3.008 6.775 5.61 10.514 7.908 3.739 2.299 7.666 4.298 11.803 5.813l5.306-8.631c5.416 1.764 11.096 2.674 16.95 2.69l2.351 9.856a65.758 65.758 0 0013.051-1.746 65.753 65.753 0 0012.434-4.334l-2.351-9.855c5.216-2.657 9.873-6.033 13.91-10.052l8.631 5.306c3.008-3.219 5.61-6.775 7.908-10.514 2.299-3.739 4.298-7.666 5.813-11.803l-8.631-5.306c1.764-5.417 2.674-11.097 2.69-16.951l9.856-2.351a65.768 65.768 0 00-1.746-13.051 65.72 65.72 0 00-4.334-12.433l-9.855 2.351c-2.657-5.216-6.033-9.874-10.052-13.911l5.306-8.631c-3.219-3.007-6.775-5.609-10.514-7.908-3.739-2.299-7.666-4.297-11.803-5.812l-5.306 8.631c-5.417-1.764-11.097-2.675-16.95-2.691l-2.351-9.855a65.766 65.766 0 00-13.052 1.745zm7.6 31.857c17.584-4.195 35.26 6.672 39.455 24.256 4.195 17.585-6.673 35.261-24.257 39.456-17.585 4.195-35.261-6.673-39.455-24.257-4.195-17.585 6.672-35.261 24.257-39.455z" stroke="#2D374B" stroke-width="5" stroke-linecap="round" stroke-linejoin="round"/><path d="M218.988 377.906l146.393-34.922M304.459 492.707l90.462-21.579M422.643 464.515l147.365-35.154M452.553 322.704l89.489-21.348" stroke="#2D374B" stroke-opacity=".3" stroke-width="3" stroke-linecap="round"/><path d="M427.224 584.326c-2.166-1.334-4.999-6.8-6.999-14s-12.5-13.334-17.5-15.5c-2.667-1.167-8-1.8-8 5-.001 6 14.7 11.2 15.5 20 .8 8.8.333 12.666 0 13.5-.834 1.666-3.8 3.7-9-1.5s-12.001-6.5-15.5-5.5c-3 1-7.2 4.4 0 10 5.349 4.16 22.899 11.9 38.499 31.5m33.001-26.5c-4-4.5-8.501-11-9.501-18-.688-4.818-5.833-8.167-9-8l18.501 26zm-18-18c0-3.667.299-10.9-8.501-10.5l8.501 10.5zm-6.5-3.5c-1.334-3.834-5.11-11.1-11.91-7.5l11.91 7.5z" stroke="#2D374B" stroke-width="5" stroke-linecap="round"/><path d="M582.749 693.092c-39.697-37.751-94.287-78.878-118.548-96.119-1.02-.724-2.432-.334-3.037.761-7.136 12.898-24.307 24.662-34.137 30.133-1.146.637-1.428 2.165-.542 3.131 13.417 14.622 42.341 43.822 63.764 57.594M178.865 553.515l-9.609 25.208-19.006 43.369M178.865 553.516c-7.928-5.404-31.315-16.633-61.982-19.241M116.82 534.73c-2.018 9.448-6.652 29.862-14.071 42.362-10.833 18.252-35.9 55.9-45.5 69.5M131.175 506.344c0 5.274-1.198 17.768-4.856 28.18m45.027 12.664c7.317-9.006 20.543-23.076 25.89-32.926l8.724-14.915c5.91-9.495 8.439-17.235 10.698-21.432 1.003-1.865 1.628-3.282 3.018-6.055 1.262-2.516 2.372-5.057 1.491-7.142-.674-1.596-3.487-4.39-9.346-2.795-5.858 1.595-9.854 6.542-11.119 8.817-1.268 1.884-6.77 8.713-8.277 10.212-3.502 3.483-20.754 17.923-31.513 9.463l10.434 56.773zm-12.527-70.757c8.931-4.722 26.28-13.235 32.323-19.079 6.207-1.202 21.535.806 19.989-7.424-.323-1.715-5.72-5.968-13.742-7.411-5.773-1.039-9.96-1.444-14.756 1.133-2.719 1.461-3.797 1.98-7.308 4.312l-16.506 28.469zm-.332-15.912c4.631-4.37 7.942-6.868 10.228-8.439 2.225-1.53 3.885-2.918 6.61-4.118l-16.838 12.557zm16.838-12.557c-1.456-.793-7.751-.741-15.172 2.934-8.106 4.015-9.491 5.535-12.63 7.606-3.139 2.071-9.417 6.213-11.875 8.212-4.349 3.536-8.311 7.521-9.876 9.531-2.754 4.254-1.219 7.472 2.921 15.393l46.632-43.676z" stroke="#2D374B" stroke-width="5" stroke-linecap="round"/><path d="M213.569 461.216l13.057-7.06-6.183-9.887-8.84 4.465m-7.855 17.982l-70.605 38.577c-8.531 3.337-14.464-8.356-5.514-12.303l31.141-16.603 44.978-9.671zM228.387 453.198l7.362-10.895M222.196 443.349l13.553-1.046" stroke="#2D374B" stroke-width="5" stroke-linecap="round"/><path d="M288.385 108.074c-.065-1.558 1.599-2.588 2.964-1.835l6.14 3.384c1.34.739 1.388 2.647.087 3.452l-5.847 3.62c-1.301.806-2.987-.088-3.051-1.617l-.293-7.004zM466.498 117.688c1.646-.099 2.697 1.723 1.789 3.098l-4.021 6.091c-.819 1.24-2.658 1.185-3.401-.102l-3.264-5.654c-.743-1.287.128-2.907 1.612-2.996l7.285-.437z" fill="#2D374B"/><path d="M337.846 211.316c-13.979-16.054-51.621-77.82-70.047-108.979-.557-.943-.237-2.134.699-2.702L427.364 3.262a2 2 0 012.861.873c19.07 41.524 51.293 92.512 66.368 114.831a1.996 1.996 0 01-.665 2.849l-155.659 89.869c-.806.466-1.811.334-2.423-.368z" stroke="#2D374B" stroke-width="5" stroke-linecap="round"/><path d="M294.472 114.573l47.152 75.623a2 2 0 002.697.674l116.028-66.989" stroke="#2D374B" stroke-width="5" stroke-linecap="round"/><path d="M342.936 190.515l-9.196-60.713a2 2 0 012.563-2.212l30.407 9.305a2 2 0 002.571-2.151l-6.838-56.859a2.002 2.002 0 01.986-1.97l20.005-11.55a2.001 2.001 0 012.033.019l49.764 29.991" stroke="#2D374B" stroke-width="5" stroke-linecap="round"/><path d="M336.22 130.883c1.913-1.104 2.457-3.745 1.214-5.897-1.243-2.152-3.801-3.002-5.714-1.897-1.913 1.104-2.457 3.745-1.214 5.897 1.243 2.152 3.801 3.002 5.714 1.897zM371.738 140.4c1.913-1.104 2.457-3.745 1.214-5.897-1.243-2.152-3.801-3.002-5.714-1.897-1.913 1.105-2.457 3.745-1.214 5.897 1.243 2.152 3.801 3.002 5.714 1.897zM365.022 80.769c1.913-1.105 2.457-3.745 1.214-5.897-1.242-2.153-3.801-3.002-5.714-1.897-1.913 1.104-2.457 3.744-1.214 5.897 1.243 2.152 3.801 3.001 5.714 1.897zM387.538 67.769c1.913-1.105 2.457-3.745 1.214-5.897-1.243-2.153-3.801-3.002-5.714-1.897-1.913 1.104-2.457 3.744-1.214 5.897 1.242 2.152 3.801 3.001 5.714 1.897zM357.019 163.909c2.153-1.242 3.002-3.801 1.897-5.714-1.104-1.913-3.744-2.457-5.897-1.214-2.152 1.243-3.001 3.801-1.897 5.714 1.105 1.913 3.745 2.457 5.897 1.214zM438.654 98.302c1.913-1.105 2.457-3.745 1.214-5.897-1.242-2.152-3.801-3.002-5.714-1.897-1.913 1.104-2.457 3.745-1.214 5.897 1.243 2.152 3.801 3.002 5.714 1.897zM425.587 74.67a4.5 4.5 0 10-4.5-7.795 4.5 4.5 0 004.5 7.794zM379.821 103.401c2.152-1.242 3.002-3.8 1.897-5.714-1.105-1.913-3.745-2.456-5.897-1.214-2.152 1.243-3.002 3.801-1.897 5.714 1.104 1.913 3.745 2.457 5.897 1.214zM421.038 125.792c1.913-1.104 2.457-3.745 1.214-5.897-1.243-2.152-3.801-3.002-5.714-1.897-1.913 1.105-2.457 3.745-1.214 5.897 1.242 2.152 3.801 3.002 5.714 1.897z" fill="#2D374B"/><path d="M343.436 191.381l11.157-29.186a2 2 0 011.743-1.282l26.952-1.693a2 2 0 001.851-2.302l-8.534-55.173c-.258-1.672 1.546-2.89 2.999-2.025l37.332 22.214c1.292.769 2.939-.109 3.02-1.61l2.697-49.735" stroke="#2D374B" stroke-width="5" stroke-linecap="round"/><path d="M386.469 161.917a4 4 0 10-4-6.928 4 4 0 004 6.928z" fill="#2D374B"/><path d="M254.512 236.008l-2.094-135.502-.745-36.459a2 2 0 011.999-2.04h41.05a2 2 0 011.998 1.907l1.698 36.594 6.399 132.663a2 2 0 01-1.998 2.096h-27.434c1.445 15.064-19.95 17.979-20.873.741z" fill="#fff"/><path d="M275.385 235.267h27.434a2 2 0 001.998-2.096l-6.399-132.663-1.698-36.594a2 2 0 00-1.998-1.908h-23.091m3.754 173.261c1.445 15.064-19.95 17.979-20.873.741l-2.094-135.502-.745-36.459a2 2 0 011.999-2.04h17.959l3.754 173.26zm0 0l-2.467-134.759-1.287-38.502 3.754 173.261z" stroke="#2D374B" stroke-width="5" stroke-linecap="round"/></svg>