<svg width="844" height="316" fill="none" xmlns="http://www.w3.org/2000/svg"><path d="M138.5 291.582c22.4-42 24-102.585 22-127.628-40-66-74-15.5-74-15.5C70 167.163 34.4 226.282 24 313.082M628.405 295.272c-11.6-50.799-4.833-97.833 0-115 24.5-81 79.051-63.361 79.051-31.862l5.5 85.5M184.5 39.292c5.667-5.77 22.709-26.06 12.5-34.811-10.5-9-32 26.667-35.5 37.5-12.167 11.834-30.7 30.7-57.5 77.5" stroke="#000" stroke-width="5" stroke-linecap="round"/><path d="M217 30.994c-7.221-.363-18.998 1.614-32.5 8.298-8.333 5.563-26.8 21.09-34 38.69" stroke="#000" stroke-width="5" stroke-linecap="round"/><path d="M266.5 34.41c-10.343-4.676-29.307-8.69-49.5-3.416-14.625 3.82-29.895 12.514-43 29.359" stroke="#000" stroke-width="5" stroke-linecap="round"/><path d="M168 151.853c5.667-7 26.5-18.9 64.5-10.5 16.5 5.291 49.8 12.697 51 0 3.5-15.5-33-41-51-33s-19-13-9.5-25.5 21-41 39-20.5c6 9.419 4.5 27 17.5 35.628 14.097 9.356 25-3.128 18.5-12.128-5.749-7.96-7.978-7.706-6.341-19.994.214-1.606.494-3.426.841-5.506-1.369-9.195-8.585-21.355-26-25.944-14.388-3.791-40 2.572-59.5 21.572M497.02 55.483c-.023-8.75 4.438-21.643 18.481-29.413 20-12.53 70.9-27.887 114.5 10.913 43.6 38.8 52.833 62.074 52 68.861" stroke="#000" stroke-width="5" stroke-linecap="round"/><path d="M497.02 55.482c-.023-8.75 4.438-21.643 18.481-29.413 10.833-5.995 47.999-13.78 67.999 1.913" stroke="#000" stroke-width="5" stroke-linecap="round"/><path d="M623.949 159.343c.333-11-6-27.3-32-18.5-32.5 11-91 7-91.5-18.5-.4-20.4 36.167-19.5 54.5-16.5 12 1.667 31.3-1.4 12.5-27-23.5-32-35.775-29.362-45.949-9.862-6 11.5-6 14.5-15 14.5-14.669 0-15.717-13.638-12.551-20.638.735-2.284 1.754-4.783 3.071-7.362 8.842-17.316 24.48-38 70.429-15.5M146.5 55.982c-9.5-10.666-29.1-20.8-53.5 0-30.5 26-6.5 105.5-63.5 90-5.167-1.166-17.7-6.4-26.5-18M221.5 86.354c26.5-1.371 31.5 18.629 57.5 28.629M433.948 96.982c-6.5 1.5-15.499 4.234-26.499 3.5-7.5-.5-10 13 1 13 7.5-.5 19.999-2 26.499-5M436 121.982c-12 .334-33-1.234-33 8 0 12.5 15.5 8 37.5 3M323 92.481c3.333-4.666 9.4-9.515 15 1.685 5.6 11.2 2.333 37.649 1 48.815-1 7.5-11 4-13.5-2" stroke="#000" stroke-width="5" stroke-linecap="round"/><path d="M515 90.482c-15.568-15.483-56.058-16.117-80.304-9.162a2.875 2.875 0 00-2.044 2.335c-4.269 27.727 4.283 51.636 9.913 61.684.53.946 1.559 1.48 2.642 1.414 25.917-1.561 45.782-13.077 53.873-19.731.861-.708 1.166-1.857 1.016-2.961-1.423-10.411 9.244-16.237 15.862-18.298.93-.289 1.716-.956 2.004-1.886 1.977-6.37-.123-10.572-2.962-13.395z" fill="#000"/><path d="M518.5 95.983c8-6.334 29.5-17.5 51.5-11.5M674.5 81.981c17-8.5 31.5-10.5 57 7 30.349 20.829 84.667 3.334 110-10.5" stroke="#000" stroke-width="5" stroke-linecap="round"/><path d="M277.5 113.482c-4.8 26.4 27.333 32.334 44 32 18 1.829 23.5-60-7-55.5-5.091.752-9.573 1.936-13.5 3.399-5.5 8.101-12.71 6.42-16.5 10.065-3.919 3.77-6.128 7.488-7 10.036z" fill="#000"/><path d="M409.138 192.482l12.5 8M371.638 187.481c0 5.167 1.4 17.3 7 24.5M337.638 182.981c-3.5 4.667-8.4 15.4 0 21M404.04 50.518c1.263-6.684 4.816-21.605 8.921-27.81M369.987 49.232c-1.715-4.164-3.891-14.873 1.12-24.398M338.409 56.092c-1.219-1.86-3.329-8.152-2.012-18.445" stroke="#000" stroke-width="5" stroke-linecap="round"/></svg>