<svg xmlns="http://www.w3.org/2000/svg" viewBox="0 0 1600 1200"><style>.st0{fill:#e8e8e8}.st1{fill:#191919}.st2{fill:#fff}.st3,.st4,.st5{opacity:.13;fill:#6c6d6d}.st4,.st5{opacity:.16}.st5{opacity:.18}.st6{fill:#fff;stroke:#191919;stroke-width:2;stroke-miterlimit:10}.st7,.st8{opacity:.14;fill:#6c6d6d}.st8{opacity:.15}.st10,.st14,.st9{opacity:.22;fill:#6c6d6d}.st10,.st14{opacity:.12}.st14{opacity:.19}.st15{fill:#5222d0}.st19{fill:#161616}</style><g id="background"><path class="st0" d="M1086.9 136.1V419.7c0 1.9 3 1.9 3 0V199v-62.9c0-1.9-3-1.9-3 0z"/><path class="st0" d="M1086.9 135c79.1 1.3 158.2 3.5 237.3 6.6 1.9.1 1.9-2.9 0-3-79.1-3.1-158.2-5.3-237.3-6.6-1.9 0-1.9 3 0 3zM1089.4 421.5c74.1 5.4 147.7 15.8 221.2 26.3 1.9.3 2.7-2.6.8-2.9-73.8-10.5-147.7-20.9-222-26.4-1.9-.1-1.9 2.9 0 3z"/><path class="st0" d="M1322.7 142.2v306.7c0 1.9 3 1.9 3 0v-239-67.7c0-1.9-3-1.9-3 0z"/><path class="st0" d="M1308.8 447.6c4.9.7 9.8 1.6 14.6 2.5 1.9.4 2.7-2.5.8-2.9-4.9-1-9.7-1.8-14.6-2.5-1.9-.2-2.7 2.6-.8 2.9zM1089.8 267.2c40.2.5 80.2 4.5 120 10 19.5 2.7 39 5.7 58.4 8.7 18.6 2.9 37.5 7.1 56.4 5.5 1.9-.2 1.9-3.2 0-3-19.6 1.6-39.3-2.9-58.5-5.9-19.8-3.1-39.6-6.1-59.4-8.8-38.8-5.2-77.7-9.1-116.9-9.6-2 0-2 3 0 3.1z"/><path class="st0" d="M1105.3 268.3c1.7 44.9 3.5 89.8 5.2 134.7.1 1.9 3.1 1.9 3 0-1.7-44.9-3.5-89.8-5.2-134.7-.1-1.9-3.1-1.9-3 0z"/><path class="st0" d="M1114.1 404.7c68.2 8.3 136.5 15.5 204.8 22.6 1.9.2 1.9-2.8 0-3-68.3-7.2-136.6-14.4-204.8-22.6-1.9-.2-1.9 2.8 0 3z"/><path class="st0" d="M1091.3 418.9c7.5-4.3 14.9-8.6 22.4-13 1.7-1 .2-3.6-1.5-2.6-7.5 4.3-14.9 8.6-22.4 13-1.7 1-.2 3.6 1.5 2.6zM1111.4 250.8c60.8 4.7 121.7 9.3 182.5 14 1.9.1 1.9-2.9 0-3-60.8-4.7-121.7-9.3-182.5-14-1.9-.2-1.9 2.8 0 3zM1104.4 229.4c66.2.3 132.4 2.2 198.6 5.7 1.9.1 1.9-2.9 0-3-66.1-3.5-132.3-5.5-198.6-5.7-2 0-2 3 0 3zM1116.2 198.5l136.8.3c1.9 0 1.9-3 0-3l-136.8-.3c-2 0-2 3 0 3zM1105.8 168.7c62.1-.8 124.1.9 186.1 5 1.9.1 1.9-2.9 0-3-61.9-4.1-124-5.8-186.1-5-2 0-2 3 0 3zM1259.8 415.4c-1.3-2.9-.9-4.5 1.2-5 .8-.3 1.6-.6 2.4-.7 1-.2 2-.4 2.9-.6 1.8-.5 3.5-1.3 4.8-2.7 2.4-2.5 3-5.7 2.4-9-.1-.6-.8-1.2-1.4-1.1-8.3.7-7.6-12.3.9-9.7 1.5.5 2.4-1.5 1.5-2.5-6.6-7.1-19.3-24.4-10.6-33.9 2.3-2.5 6.4-4.1 9.5-2.1 1.9 1.2 3.1 3.5 4.1 5.5 1.4 2.5 2.6 5.3 5 6.9 5.4 3.6 10.9-1.4 11.8-6.8.8-5-1.6-10-1.6-15 0-3.5.7-7.4 3.3-10 2.7-2.7 7.3-3.6 10.5-1 1.1.9 3 .1 2.5-1.5-1-3.3-1.4-6.8.5-9.9 2.2-3.4 7.5-4.7 9.7-.5.9 1.7 3.5.2 2.6-1.5-2.3-4.3-7.9-5.3-12-2.8-5.2 3.2-5.3 10.2-3.7 15.4.8-.5 1.7-1 2.5-1.5-7.9-6.6-17.4.9-18.7 9.6-.4 2.6-.2 5.2.2 7.8.6 4.1 2.8 9.6.1 13.4-5.6 7.9-10.1-5-12.7-8.2-5.7-7.1-16-3.4-18.6 4.7-3.8 11.7 5.8 25.4 13.3 33.4.5-.8 1-1.7 1.5-2.5-4.7-1.5-10.4 1.2-11.2 6.4-.7 5.4 4.4 9.5 9.4 9.1-.5-.4-1-.7-1.4-1.1 2 10.7-13.1 6-15.7 13.9-1.3 4 2.6 7.6 6.4 5.9 1.9-.7.4-3.3-1.4-2.4zM1254.4 488.6v92c0 1.9 3 1.9 3 0v-92c0-1.9-3-1.9-3 0z"/><path class="st0" d="M1256.2 488.5c37.7 8.4 75.3 16.8 113 25.1 1.9.4 2.7-2.5.8-2.9-37.7-8.4-75.3-16.8-113-25.1-1.9-.4-2.7 2.5-.8 2.9zM1257.5 583.2c32.9 10.7 65.9 21.1 99 31.2 1.9.6 2.6-2.3.8-2.9-33.1-10.1-66.1-20.5-99-31.2-1.8-.6-2.6 2.3-.8 2.9z"/><path class="st0" d="M1368.7 512.3v102.5c0 1.9 3 1.9 3 0V512.3c0-2-3-2-3 0z"/><path class="st0" d="M1354.7 614.5c5.3.7 10.6 1.5 15.8 2.2 1.9.3 2.7-2.6.8-2.9-5.3-.7-10.6-1.5-15.8-2.2-1.9-.2-2.7 2.7-.8 2.9zM1264.8 500.4c-1.5 23.9-1.8 47.8-1 71.7.1 1.9 3.1 1.9 3 0-.8-23.9-.5-47.8 1-71.7.1-1.9-2.9-1.9-3 0z"/><path class="st0" d="M1265 576.3c31.1 8.3 63.4 14.9 92.9 27.9 1.8.8 3.3-1.8 1.5-2.6-29.8-13.1-62.3-19.9-93.7-28.2-1.7-.5-2.5 2.4-.7 2.9zM1265.4 500.4c32.3 5.5 64.5 11.6 96.6 18.1 1.9.4 2.7-2.5.8-2.9-32.1-6.6-64.3-12.6-96.6-18.1-1.9-.3-2.7 2.6-.8 2.9z"/><path class="st0" d="M1360.5 516.2c-2.3 28.4-3.3 56.9-3.2 85.4 0 1.9 3 1.9 3 0-.2-28.5.9-57 3.2-85.4.1-1.9-2.9-1.9-3 0zM1267.1 536.9c11.5 5.6 23.5 10.2 35.8 13.8 1.9.5 2.7-2.4.8-2.9-12.1-3.5-23.8-7.9-35.1-13.5-1.7-.8-3.2 1.8-1.5 2.6z"/><path class="st0" d="M1311.9 508.7c-4.8 13.5-8.7 27.3-11.8 41.4-.4 1.9 2.5 2.7 2.9.8 3.1-14 7-27.8 11.8-41.4.6-1.9-2.3-2.6-2.9-.8z"/><path class="st0" d="M1308.7 525.9c9-1.7 16.1 8.1 17.6 15.8 1.6 8.2-2.1 15.7-8.1 21.3-6.4 5.9-15.3 7.7-23.1 3.2-8-4.6-10.5-15.1-7-23.2.8-1.8-1.8-3.3-2.6-1.5-3.8 8.8-2 19.6 5.7 25.7 8.3 6.6 19.9 5.8 27.8-.9 8.3-7 12.9-17.3 9.5-27.9-2.7-8.6-10.9-17.1-20.6-15.3-1.9.3-1.1 3.2.8 2.8zM1326.1 576.6c3.8 2.4 7.2 5.1 10.2 8.3 1.3 1.4 3.5-.7 2.1-2.1-3.2-3.4-6.9-6.3-10.8-8.8-1.6-1-3.1 1.6-1.5 2.6zM1335.7 561.5c3.3.8 6.5 1.5 9.8 2.3 1.9.4 2.7-2.5.8-2.9-3.3-.8-6.5-1.5-9.8-2.3-1.9-.4-2.7 2.4-.8 2.9zM1332.8 529.3c4.1-.2 7.7-1.6 10.9-4.1 1.5-1.2-.6-3.3-2.1-2.1-2.5 2-5.6 3.1-8.8 3.3-2 0-2 3 0 2.9zM1313.7 496.7c-.1-2.2-.4-5.4 1.9-6.6 2.2-1.2 2.8 1 2.7 2.6-.1 2.9-1 5.7 0 8.5.7 1.8 3.6 1 2.9-.8-1.5-3.9 2.3-10.1-2.1-12.9-2.1-1.4-4.8-.6-6.5 1.1-2.1 2.2-2.1 5.3-2 8.1.1 1.9 3.1 1.9 3.1 0zM633.5 29.9v165.8c0 1.9 3 1.9 3 0V29.9c0-2-3-2-3 0z"/><path class="st0" d="M632.9 196.6c-36.3 18.4-65.7 48.7-82.9 85.6-.8 1.7 1.8 3.3 2.6 1.5 17-36.4 46-66.3 81.8-84.5 1.7-.8.2-3.4-1.5-2.6z"/><path class="st0" d="M634.8 198.4c35.3 14.7 63.8 43.8 77.8 79.3.7 1.8 3.6 1 2.9-.8-14.5-36.7-43.5-66.3-79.9-81.4-1.8-.7-2.6 2.2-.8 2.9z"/><path class="st0" d="M557.8 285.5c48.2-21.9 102.2-13.7 152.5-5.4 1.9.3 2.7-2.6.8-2.9-51.3-8.4-105.8-16.5-154.9 5.7-1.6.8-.1 3.4 1.6 2.6z"/><path class="st0" d="M616.6 272.7c-2.9 6.3-4.1 13.9-1 20.4 3.4 7.2 11.8 10.4 19.4 10.6 7.1.2 14.6-2.8 18.2-9.3 3.3-6.1 2.9-13.5-1.9-18.7-1.3-1.4-3.4.7-2.1 2.1 4.1 4.4 4 11.2.7 16.1-3.5 5.3-10.3 7.1-16.4 6.6-6.3-.5-12.9-3.4-15.4-9.5-2.3-5.5-1.3-11.7 1.1-17 .8-1.6-1.8-3.1-2.6-1.3zM487 367.5c19.4-12.4 38.9-24.8 58.3-37.1 1.6-1 .1-3.6-1.5-2.6-19.4 12.4-38.9 24.8-58.3 37.1-1.7 1.1-.2 3.7 1.5 2.6zM497.6 426.8c16.5-15.1 32.2-31 47.1-47.7 1.3-1.4-.8-3.6-2.1-2.1-14.9 16.7-30.6 32.6-47.1 47.7-1.4 1.3.7 3.4 2.1 2.1zM576.3 417.2c-15 38.6-29 77.7-41.9 117.1-.6 1.8 2.3 2.6 2.9.8 12.9-39.4 26.9-78.4 41.9-117.1.7-1.8-2.2-2.5-2.9-.8zM638.6 389.9c11.7 30.9 23.5 61.8 35.2 92.6.7 1.8 3.6 1 2.9-.8-11.7-30.9-23.5-61.8-35.2-92.6-.7-1.8-3.6-1-2.9.8zM693.7 347c17.5 14.7 33.9 30.7 49.1 47.8 1.3 1.4 3.4-.7 2.1-2.1-15.2-17.1-31.6-33-49.1-47.8-1.4-1.3-3.5.8-2.1 2.1zM720.6 306c13.6 6.7 27.3 13.3 40.9 20 1.7.8 3.3-1.7 1.5-2.6-13.6-6.7-27.3-13.3-40.9-20-1.7-.8-3.2 1.7-1.5 2.6zM635.5 776.5c22.1-19 50.6-26.6 78.3-33.6 14.1-3.6 28.1-7.2 41.9-12 15.9-5.5 31.4-12.2 46.8-18.9 1.8-.8.2-3.3-1.5-2.6-16.4 7.1-32.8 14.2-49.7 19.9-14.1 4.7-28.5 8.2-42.9 11.9-26.6 6.9-53.7 14.9-74.9 33.2-1.6 1.2.5 3.3 2 2.1zM826.8 262.8c65.2 4 130 12.6 194.1 25.6 1.9.4 2.7-2.5.8-2.9-64.3-13.1-129.4-21.7-194.8-25.8-2.1 0-2.1 3-.1 3.1z"/><path class="st0" d="M826.9 260.5c.7-4.2.9-8.5.6-12.7-.1-1.9-3.1-1.9-3 0 .3 4 .2 8-.5 12-.3 1.8 2.6 2.6 2.9.7z"/><path class="st0" d="M826.6 250.7c65.2 6.7 130.7 12.6 194.9 26.4 1.9.4 2.7-2.5.8-2.9-64.5-13.8-130.2-19.8-195.7-26.5-1.9-.2-1.9 2.8 0 3z"/><path class="st0" d="M1020.2 275.1c-.4 3.8-.1 7.6.6 11.4.4 1.9 3.3 1.1 2.9-.8-.7-3.5-.8-7-.5-10.6.2-1.9-2.8-1.9-3 0zM831.6 216.3c-1.3 11.6 0 23 4 34 .7 1.8 3.6 1 2.9-.8-3.9-10.7-5.2-21.8-3.9-33.2.2-2-2.8-1.9-3 0z"/><path class="st0" d="M831.1 216.6c12.5 3.4 25.3 4.9 38.2 4.3 1.9-.1 1.9-3.1 0-3-12.7.5-25.2-.9-37.4-4.2-1.9-.5-2.7 2.4-.8 2.9z"/><path class="st0" d="M866.8 220.8c1.6 10.2.3 20.4-4 29.8-.8 1.7 1.8 3.3 2.6 1.5 4.6-10.2 6-21 4.3-32.1-.3-1.9-3.2-1.1-2.9.8zM842.6 215.4c-7.8-10.3-10.7-23.2-7.9-35.8-.8.2-1.7.4-2.5.7 10.3 10 16.8 23.1 18.5 37.4.2 1.9 3.2 1.9 3 0-1.7-15.1-8.4-28.9-19.4-39.5-.8-.8-2.3-.5-2.5.7-2.9 13.4 0 27.2 8.2 38.1 1.1 1.4 3.7-.1 2.6-1.6z"/><path class="st0" d="M850.4 203.6c1.4-7.1 3.6-13.9 6.9-20.3 1.5-3 3.3-5.9 5.3-8.7 1.4-1.9 1.4-3.1 2.3-.9.6 1.5.8 4.3 1 5.8 1.5 13.8-2.6 27.8-11.2 38.7-1.2 1.5.9 3.6 2.1 2.1 10.3-13.1 15.5-31.7 10.8-48.1-2.2-7.7-7.4.5-9.5 3.7-5.2 8.2-8.7 17.4-10.6 26.9-.3 1.9 2.6 2.7 2.9.8zM895.2 257c.4-1.4.4-2.4.3-3.9-.1-1.2-1.2-3.7-.8-4.7 1.5-4.1 10.9-1.1 13.7-.8 9.9 1.2 19.7 2.5 29.5 3.9 19 2.7 37.9 5.8 56.7 9.1-.4-.5-.7-1-1.1-1.4.3 2.1.5 4.2.8 6.3.2 1.9 3.2 1.9 3 0-.3-2.1-.5-4.2-.8-6.3-.1-.6-.4-1.3-1.1-1.4-22.1-4-44.2-7.5-66.4-10.5-10.2-1.4-20.8-3.6-31.1-3.9-2.3-.1-4.6.3-5.8 2.6-1.6 3.2 1 6.8.2 10.1-.5 2 2.4 2.8 2.9.9z"/><path class="st0" d="M926 245.8c-3.8-5.8 4.2-8.9 8.6-8.9 4.2 0 8.4 1 12.6 1.6 7.6 1.1 15.3 2.2 22.9 3.4 7.5 1.1 15.1 2.4 22.6 3.8 3.4.7 6.8 1.4 10.3 2.2 3 .7 15.2 2.2 12.6 7.8-.8 1.7 1.8 3.3 2.6 1.5 4.2-9.1-9.5-11.1-15.3-12.4-12.1-2.7-24.3-4.7-36.6-6.5-6.1-.9-12.1-1.8-18.2-2.6-5.4-.8-11.3-2.4-16.8-1.5-6.1.9-11.6 7.3-7.7 13.2.9 1.5 3.5 0 2.4-1.6zM994.7 260.5c7 1.8 14.1 2.2 21.3 1 1.9-.3 1.1-3.2-.8-2.9-6.6 1-13.2.7-19.7-1-1.9-.4-2.7 2.5-.8 2.9zM551.5 285.6c20.7 2.4 41.5 3.7 62.4 3.9 1.9 0 1.9-3 0-3-20.9-.2-41.7-1.6-62.4-3.9-1.9-.2-1.9 2.8 0 3zM655.6 288.2c19.5 0 38.6-2.4 57.7-6.2 1.9-.4 1.1-3.3-.8-2.9-18.8 3.8-37.6 6.1-56.9 6.1-1.9 0-1.9 3 0 3zM583.4 353.7l-30 53.4c-.9 1.7 1.6 3.2 2.6 1.5l30-53.4c.9-1.7-1.7-3.2-2.6-1.5zM650.9 335.3c6.5 10.3 12.4 20.8 17.8 31.7.9 1.7 3.5.2 2.6-1.5-5.4-10.8-11.4-21.4-17.8-31.7-1-1.7-3.6-.2-2.6 1.5zM695.4 313.9c7.6 4.4 15.1 8.7 22.7 13.1 1.7 1 3.2-1.6 1.5-2.6-7.6-4.4-15.1-8.7-22.7-13.1-1.7-1-3.2 1.6-1.5 2.6z"/></g><g id="bed"><path class="st1" d="M894.8 947.9c74.1-20.1 147.1-43.9 218.8-71.3 35.4-13.5 70.4-27.9 105-43.2 17.6-7.7 35-15.7 52.4-23.9 17.1-8 33.9-16.7 51.2-24.1 19.8-8.5 41-15.2 62.8-13.8 21.9 1.4 41.7 11.7 60.8 21.7 1.7.9 3.2-1.7 1.5-2.6-16-8.4-32.4-17-50.3-20.6-17.4-3.4-35.1-1.3-52 3.7-18 5.3-34.9 13.6-51.7 21.7-17.5 8.5-35.2 16.8-52.9 24.8-71.8 32.6-145.2 61.4-219.9 86.4-41.8 14-83.9 26.7-126.4 38.2-2 .6-1.2 3.5.7 3z"/><path class="st1" d="M1393.2 799.3c14.1 2.8 27.4-2.6 41.3-4.1 15.9-1.7 31.4 2.9 46.2 8.2 28.6 10.2 56 23.4 81.8 39.3 1.7 1 3.2-1.6 1.5-2.6-25.5-15.7-52.6-28.8-80.8-39-13.8-5-28.3-9.6-43.2-9.3-15.5.4-30.5 7.6-46 4.6-1.9-.4-2.7 2.5-.8 2.9zM798.8 1023.1c-10.9 17.4-14.8 37.7-17.1 57.8-2.7 23.5-4.8 47.1-7.1 70.6-.2 1.9 2.8 1.9 3 0 2.2-22.4 4.3-44.8 6.7-67.2 2.3-20.7 5.8-41.7 17.1-59.7 1-1.6-1.5-3.1-2.6-1.5zM869.6 1066.5c-17.8 29.7-20.2 64.9-20.1 98.7 0 1.9 3 1.9 3 0-.1-33.3 2.1-68 19.7-97.2 1-1.7-1.6-3.2-2.6-1.5zM718.1 1055.7c17.4-19.1 37.5-37.9 59.6-51.4 23-14 49.6-16.5 75.8-18.4 1.9-.1 1.9-3.1 0-3-26.1 2-52.8 4.4-75.8 17.9-11.2 6.6-21.2 14.9-31 23.2-10.8 9.2-21.1 19-30.7 29.5-1.3 1.5.8 3.6 2.1 2.2zM1173.3 740.9c55.4 10.1 110.5 21.8 165.2 35.1 1.9.5 2.7-2.4.8-2.9-54.7-13.3-109.8-25-165.2-35.1-1.9-.3-2.7 2.6-.8 2.9z"/></g><g id="pillows"><path class="st2" d="M912.6 533.9c1.6 6.7 3.8 17.7 3.8 31.4 0 38.8-17.4 74.3-22.7 85-3.4 6.8-10.2 19.8-14.6 39-1.5 6.3-2.3 11.6-2.7 15.2 4 .4 10.1 1.1 17.3 2.2 16.2 2.4 23 4.5 32.5 6 8.2 1.2 19.9 2.1 34.7.5-.4 3.7-1.1 9.2-2.2 15.7-2.6 16.2-3.9 24.2-7 30.3-4.8 9.4-10.1 12.1-8.7 16.2 1 3 4.8 4.4 14.1 6.5 15.3 3.5 23.5 3.9 31.4 5.4 8.8 1.7 9.1 3.1 28.2 10.3 16.5 6.2 26 9.8 37.9 12.5 3.8.9 23.7 5.3 49.8 4.3 14.6-.5 19.9-2.3 33.6-1.1 11.5 1 20.8 3.5 27.1 5.4.9-5.6 2.2-14 3.2-24.4 2.2-22.2.5-25.9 3.8-36.8 2.5-8.5 3.8-7.1 13.5-27.6 6.3-13.4 9.5-20.1 11.9-28.2 1.4-4.9 5.5-19.5 4.9-39-.6-20-5.2-16.2-7-37.9-.2-2.8-.6-8.9-4-10.2-2.5-1-5.5 1.1-9 3.4-9.6 6.3-17.6 10.4-19.4 11.3-5 2.4-13.1 4.2-26.2.3 1.4-4.5 3.2-10.7 5.1-18.3 3.3-13.5 4.7-23.1 6.2-33.8 0 0 3.4-23.8-1.1-37.7-.9-2.7-2.2-4.8-4.2-5.6-2-.8-3.9 0-5.9.6-2.9.9-7 1.7-12.7 1.7-.8-1.4-2.1-3.5-3.9-5.6-2.3-2.7-6.9-7.2-15.8-10.7-11-4.4-23.3-5.1-35.2-5.1-20.2 0-21.7 2.2-41.3 2.3-10.3 0-19 .1-30.7-1.7-20.4-3-21.9-7.4-33.2-6.2-7.9.8-15.2 4.6-29.8 12.1-9.2 4.7-16.5 9.1-21.7 12.3z"/><path class="st1" d="M1021.9 605.8c23.7-3.4 45.2 10.1 66.8 17.4 22.1 7.4 45.6 10.1 68.9 8.2 1.9-.2 1.9-3.2 0-3-24.9 2-49.9-1.3-73.3-9.9-20.5-7.6-40.7-18.8-63.2-15.5-1.9.2-1.1 3 .8 2.8z"/><path class="st1" d="M1030.1 608.9c-8.1-3.4-16.5-16.3-26.2-9.5-4.4 3-6.2 8.6-7.7 13.4-2.4 7.6-4.2 15.4-6.2 23.2-4 16.2-10.2 31-17.3 46.1-6.5 13.6-11.9 27.1-14.7 42-2.6 13.9-3.9 28.6-11.1 41.1-2 3.6-7.8 8.9-3.4 12.9 4.2 3.9 12.5 6 17.8 7.4 7 1.9 14.1 2.3 21.4 2.6 8.9.3 16.5 2.5 24.5 6 14.5 6.2 28.9 12.7 44.1 17 18 5.1 35.2 5.2 53.8 4 19.9-1.3 39.4.2 58.7 5.3.8.2 1.5-.3 1.8-1 7.3-18.5 1.9-38.7 7.1-57.6 5.2-18.9 18.6-34.2 24.5-52.9 5.8-18 6.8-37.4 4.6-56.1-1-9-2.8-17.9-5.2-26.6-1.2-4.5-2.3-15.4-9.4-12.8-4.3 1.6-8.5 5-12.3 7.6-4.2 2.8-8.4 5.7-12.8 8.3-9.3 5.7-19.2 10.2-30.3 10.1-1.9 0-1.9 3 0 3 16.1.1 29.6-8.9 42.5-17.5 3.3-2.2 6.6-4.5 10.1-6.5.4-.3 2-1.5 2.7-1.6 4.9-.8 3.3.9 4.4 2.8 1.2 2 1.6 5.2 2.2 7.4 2.5 9 4.3 18.2 5.3 27.6 1.9 18.2.8 36.9-5 54.4-5.7 17.3-17.6 31.6-23.3 48.8-6.6 19.8-.3 41.4-8.1 60.9.6-.3 1.2-.7 1.8-1-14.4-3.8-29.1-5.8-44-5.9-15.5-.1-31 2.6-46.5 1-15.1-1.6-29.7-6.3-43.8-11.9-12.9-5.1-26.1-13.1-40-15-7.1-1-14.4-.4-21.5-1.6-6.5-1.1-15.7-2.8-20.9-6.8-2.3-1.8-2.7-3.1-1.5-5.8.6-1.4 1.9-2.7 2.6-4 1.4-2.4 2.6-4.8 3.6-7.4 2.4-5.9 3.9-12.1 5.2-18.4 2.6-13.1 4.2-26.2 8.9-38.8 5-13.4 12.1-26 17.6-39.2 6.4-15.3 9.1-31.6 13.9-47.5 2.1-6.9 5.7-19.2 15.4-14.8 5.5 2.5 9.3 7.7 14.9 10.1 2.1.5 3.6-2.1 1.8-2.8z"/><path class="st1" d="M1072.5 641.1c13.6 4.8 27.7 6.1 42 4 1.9-.3 1.1-3.2-.8-2.9-13.7 2-27.3.6-40.4-4-1.9-.7-2.6 2.2-.8 2.9zM1139.9 631.8c10.1.6 20-.6 29.6-3.7 1.8-.6 1-3.5-.8-2.9-9.4 3-18.9 4.2-28.8 3.5-2 0-1.9 3 0 3.1zM915.8 534.6c8.4-5.1 16.7-10.2 25.1-15.2 8-4.8 15.8-8.5 25.4-8.2 10 .4 19.8 3.7 29.6 5.5 8.7 1.5 17.6 2.4 26.4 2.7 32.2.9 75.2-12.8 99.5 16.1 1.2 1.5 3.4-.7 2.1-2.1-24.6-29.2-67.1-16.4-99.7-16.9-10.5-.2-21-1.3-31.4-3.3-9.4-1.9-18.8-5-28.4-4.9-8.7.1-16.2 3.4-23.6 7.7-8.9 5.2-17.7 10.7-26.5 16.1-1.7.9-.2 3.5 1.5 2.5z"/><path class="st1" d="M1081.5 541.2c12 1.4 24 1.1 35.9-1 5.5-1 10.9-2.9 16.4-3.7 3-.4 6.6-.7 9.3.9 3.7 2.1 4 6.8 4.1 10.6.4 26.7-3.8 53.7-11.3 79.3-.5 1.9 2.4 2.7 2.9.8 4.2-14.3 7.3-28.9 9.2-43.6 1-7.6 1.6-15.3 2-23 .3-6.4 1.4-14.1-.5-20.3-3.1-10.4-15.2-8-23.1-6-14.8 3.8-29.8 4.9-44.9 3.1-1.9-.4-1.9 2.6 0 2.9zM911 533.2c.3 16.7 6 32.8 4.9 49.7-1 14.9-6 29.1-11.8 42.7-11 25.8-25.6 50.5-29 78.8-.1.8.8 1.5 1.5 1.5 7.6-.2 14.7 1.8 22 3.6 6.9 1.7 13.8 3.1 20.9 4.1 14 1.9 28.2 2.2 42.3 1 1.9-.2 1.9-3.2 0-3-14.8 1.3-29.8.9-44.5-1.3-13.5-2.1-26.8-7.6-40.6-7.3l1.5 1.5c3.6-29.4 19.6-54.9 30.6-81.9 5.2-12.7 9.3-25.9 10.3-39.6 1.1-16.8-4.6-32.9-4.9-49.7-.2-2.1-3.2-2.1-3.2-.1z"/><path class="st3" d="M1049.6 605.5c5.4.7 24.9 3.4 38.9-5.5 11.2-7.1 19.4-22.1 19.4-35.9 0-9.4-3.9-17.9 1-22.4 1.3-1.2 2.1-1 8-2.5 14.4-3.6 16.3-6.4 21.4-5 6 1.6 9.1 6.8 9.5 7.5 3.3 5.7 1.8 12 1 15.9-5.6 27-.3 27.8-8.5 58.3-1.6 5.8-3 10.5-4 13.5 4.2.5 9.8.8 16.4 0 5.7-.7 13.7-1.7 21.9-6.5s10.7-10 14.4-9c3.3.9 4.6 5.7 5.5 9 6.2 23.8 6 35.4 6 35.4-.5 26.4-.7 39.7-2.5 46.3-7.8 29-22.2 25.8-25.9 50.3-2.3 15.3 2.2 23.7-3 45.8-1.8 7.5-3.9 13.5-5.5 17.4-7-2-18.1-4.6-31.9-5.5-20.3-1.3-28.1 2.3-47.8 2-17.2-.2-46-3.4-46.8-10.5-1.3-10.2 57.9-15.4 61.8-39.4 2.6-15.9-21.2-23.8-31.9-50.8-10.4-26.1-2-54 6.5-73.2 12.1 1.2 24.2 2.3 36.4 3.5-60.4-30-72-38.1-71.2-39.9.3-.7 4 .2 10.9 1.2z"/><path class="st4" d="M1191.1 615.5c-3.2.2-1.8 18-8 47.8-.8 3.8-7.2 34.2-21.4 64.3-9 19.1-27.7 51.9-65.3 84.2 22.6 2.8 45.2 5.6 67.8 8.5 1.4-4.7 3.5-12.1 5-21.4 3.6-21.7.3-28.2 4-42.8 3.5-13.8 7.7-13.3 15.9-31.9 1.1-2.5 9.2-21 12-42.3 4.4-34.1-5.6-66.7-10-66.4z"/><path class="st5" d="M1147.3 572.6c-2-.6-5.6 14.8-17.9 26.9-13.7 13.5-32.7 17.3-48.8 17.9 9.5 3.9 21.8 7.9 36.4 10 7.6 1.1 14.6 1.5 20.9 1.5 10.1-44.2 11.1-55.8 9.4-56.3z"/></g><g id="guy_and_a_cat"><g id="leg_right_1_"><path class="st1" d="M621.3 986.6c2.8 19 5.6 37.9 8.3 56.9-42 55.3-60.3 85.6-54.8 90.8 5.9 5.6 39.5-17.9 100.8-70.5-2.1-32.7-4.2-65.3-6.3-98-16 6.9-32 13.9-48 20.8z"/><path class="st6" d="M787 730.5c-22.1 7.2-66.1 24.1-109.9 61.1-18.5 15.6-37.3 31.7-52.7 59.5-13.2 23.8-17.1 44-22.9 75.6-4.4 24-9 58.4-8.4 100.7 13.2-1 27.2-2.4 42-4.6 18.7-2.7 36-6.1 51.9-9.9-.2-20.9 1.6-47 8.4-76.3 4.5-19.3 10.2-36.1 16-50.4 41.5-38.4 80-56.4 108.4-65.6 34.3-11.2 62.7-12.5 84.7-38.2 13.1-15.2 27.3-43 17.6-58.8-19.2-31-120.4 2.1-135.1 6.9z"/><path class="st7" d="M910.1 715c-6.1 1.2-4.4 17.1-9.7 31.4-9.6 25.6-38.2 36.9-61.2 46-135.3 53.8-150.2 64.4-161.9 80.7-11.1 15.5-15.9 32-25.4 65-9.7 33.5-13.2 62.6-14.6 83.4l49.8-8.1c-.1-11 .4-22.8 1.6-35.2 3.7-37.1 12.9-68.5 22.7-93.1 6.3-5.2 15.1-12.2 26-20 22.2-15.9 38.2-27.4 60.1-36.3 17.1-7 18.5-4.5 61.2-18.9 11.8-4 18.2-6.4 26-11.4 18-11.5 26.9-26.3 30.9-33 6.7-11.4 11.6-19.7 9.7-30.3-1.8-10.8-9.9-21.3-15.2-20.2z"/><path class="st4" d="M765.6 842.8c-36.5 6.7-56 23.2-65 32.5-17 17.6-24 39.6-37.4 82.8-7.7 24.9-12.6 45.9-15.7 60.6 12.5-1.6 24.9-3.2 37.4-4.9.4-21.1 2.6-38.9 4.9-52.5 1.4-8.6 3.8-22.4 9.2-40.1 4.4-14.4 9.3-26.5 13.5-35.7 17.7-14.2 35.4-28.5 53.1-42.7z"/></g><g id="blanket"><path class="st6" d="M640.4 819.2c3.9-4 9.9-9.3 18.3-13 22.4-9.8 45.5-1.6 59.4 3.2 31.1 10.8 64.1 16.4 93.9 30.2 45.1 20.9 104.3 48.4 166.2 59.4 69.4 12.3 84.2-6.4 178.1 7.6 34.6 5.1 62.6 12.1 80.9 17.3-8 16.1-16.3 21.2-22.7 22.7-4.3 1-6.5.1-9.7 2.2-8 5.2-3.8 17-9.7 25.9-5.8 8.7-17 7.9-29.1 10.8-24.6 5.8-27 20.3-55 38.9-13.6 9-39.2 25.9-68 24.8-30.9-1.2-34.8-21.9-69.1-33.5-42.8-14.4-55.8 11.7-113.3 7.6-12.1-.9-71.7-5.1-113.3-46.4-28.4-28.1-23.2-48.6-55-80.9-24.3-24.7-51.5-37.5-70.2-44.3 2.3-4.8 4.9-9.7 7.7-14.8 3.5-6.4 7.1-12.2 10.6-17.7z"/><path class="st1" d="M652.7 819c13.9.4 27.4 3.5 40.1 9.2 1.3.6 2.5-1.3 1.1-1.9-13.1-5.9-26.9-9.1-41.2-9.6-1.5 0-1.5 2.3 0 2.3zM685.8 875.7c23.6 13.5 36.1 38.7 52.5 59.3 17.4 21.8 39.8 39.3 65.1 51.1 1.3.6 2.4-1.3 1.1-1.9-26.4-12.4-49.6-30.9-67.3-54.2-15.2-20-27.7-43.3-50.2-56.2-1.3-.8-2.5 1.2-1.2 1.9zM1116.1 945.5c28.2.3 56.4-1.3 84.4-4.7 1.4-.2 1.4-2.4 0-2.3-28 3.4-56.2 5-84.4 4.7-1.5.1-1.5 2.3 0 2.3zM1107.6 982.8c10.4 3.8 21 7 31.7 9.4 1.4.3 2-1.8.6-2.2-10.8-2.5-21.4-5.6-31.7-9.4-1.4-.5-2 1.7-.6 2.2zM756.9 913.7c24.7 21.9 54.6 39.3 86.6 48 16.1 4.3 32.5 5 48.8 1.5 17.2-3.7 33.2-11.1 48.5-19.7 1.3-.7.1-2.7-1.1-1.9-14.6 8.2-29.9 15.3-46.2 19.1-17.1 4-34.2 3.2-51.1-1.6-31-8.8-59.8-25.6-83.9-46.9-1.1-1.1-2.7.5-1.6 1.5zM896.2 900.5c6.6 1.3 12.6 4.2 17.4 9 5.2 5.2 10.7 17.3.5 20.7-1.4.5-.8 2.6.6 2.2 7.8-2.6 8.9-11.4 5.4-18-4.6-8.7-14-14.2-23.3-16-1.4-.3-2 1.9-.6 2.1zM930.4 959.1c21.5-13.9 47.3-16.6 72.2-18.9 1.4-.1 1.4-2.4 0-2.3-25.3 2.3-51.5 5.1-73.3 19.2-1.2.8-.1 2.8 1.1 2zM721 824.8c22.1 5.9 39.5 21 57.9 33.7 19.1 13.2 40 23.6 62 30.9 1.4.5 2-1.7.6-2.2-23-7.6-44.5-18.6-64.2-32.6-17.6-12.4-34.6-26.4-55.8-32.1-1.3-.2-1.9 1.9-.5 2.3z"/><path class="st3" d="M696.7 802.3c28.3 13.2 48.6 27.1 61.9 37.4 14.2 11 18.8 16.7 34.2 26.3 8.3 5.2 25.5 15.9 49.9 23.5 30 9.4 43 5.3 54.5 18.5 1.5 1.7 10.1 11.5 8.8 23.5-1.6 15-17.7 28.5-40.6 31.9 6.5.1 13.8-.3 21.7-1.4 18.7-2.6 33.8-8.4 44.8-13.8-3.5 4.1-7.1 8.8-6 10.2 1.5 1.9 11.2-3.6 18-6.9 12.5-6.1 20.8-6.9 50.3-11.5 65.1-10.1 71.4-13 91.9-11.1 15.8 1.5 34.2 5.4 34.2 8.8-.1 3.5-20.4 4.8-20.3 6.5.2 2.1 36.2 11.9 72-.9 8.1-2.9 28.4-11.3 35.5-3.7 2 2.1 3 5.6 6.5 6.5 4.2 1.1 8.6-2.6 11.5-5.1 3.1-2.6 8.1-7.7 11.5-16.6-1.9-.6-4.6-1.4-7.8-2.3-6.8-1.9-27-7.5-56.3-12.5-9.1-1.5-26.1-4.4-46.2-6-42.1-3.4-53.2 1.9-91.4.9-9.8-.3-39.3-1.4-75.3-9.2-32.1-7-55.2-16.2-93.7-31.9-33.5-13.6-37.3-17-62.3-27.2-24.5-10.1-60.5-23.2-107.3-33.9z"/><path class="st5" d="M987.6 1019.3c10.5-4.4 23-8.6 37.4-11.5 6-1.2 11.7-2.1 17.1-2.8-1.6 3.8-3.3 7.6-5.1 11.5-4.6 10.1-9.4 19.4-14.3 28.2-11.7-8.4-23.4-16.9-35.1-25.4z"/><path class="st8" d="M1168.5 962.1c-25.4 5.8-44.2 4.1-44.3 5.5-.1 1.2 12.6 3.5 68.8 8.8 1.7-3.9 3.5-8.2 5.1-12.9 1.5-4.4 2.7-8.6 3.7-12.5-7.8 3.5-19.1 7.9-33.3 11.1z"/><path class="st9" d="M897.1 899.8c-.4.8 9.4 3 14.3 11.5 3.6 6.3 3.3 13.6 1.8 19.9 1-.4 6.8-2.8 8.3-8.3 1.5-5.7-2.7-10.6-5.1-13.4-7.4-8.8-18.9-10.6-19.3-9.7z"/><path class="st8" d="M1037.4 903.5c34.6-3.4 78.7-4.2 128.8 4.2 25.6 4.3 48.7 10.2 68.8 16.6-.8 2.8-2.6 7.5-6.5 12 0 0-4 4.6-10.2 7.8-15.3 7.9-39.2 0-40.6-.5 6.6-.9 13.9-2.4 21.7-4.6 4.5-1.3 8.6-2.7 12.5-4.2-13.2-5.5-27.7-10.7-43.4-15.2-49.9-14.5-95.3-17.3-131.1-16.1z"/></g><g id="cat"><path class="st1" d="M1095 935.2c1.1-1.3 2.7-1.2 6.9-2 5-1 8.9-2.3 11.6-3.3 15.1-4.2 26.1-9.8 33.6-14.3 16-9.7 23.2-18.9 32.8-16.8 6.1 1.4 11.7 7.1 11.2 11.9-.4 4.1-5 6.8-28 15.5-35.7 13.5-32.4 9.9-43.1 15.5-9.8 5.2-15.3 9.6-20.3 7.4-4.9-2.4-7.4-10.8-4.7-13.9z" id="cat__paw_right"/><path class="st1" d="M1283.5 854.7c-14.7 11.6-14.4 30.5-14.4 32.1.2 6.2 1.8 11.1 3 14-17.7 9-20.6 12.7-20.1 14.4 1.4 4.4 27.7 5.1 39.8-9.7 2.8-3.4 3.9-6.8 6-13.4 4.2-13.1 9.9-39.5 1.7-43.8-4.7-2.4-12.4 3.6-16 6.4z" id="leg_left_1_"/><path class="st1" d="M1177.6 907.7c2.2-4.5 7.6-5.5 17.6-7.8 11-2.5 29.6-6.8 40-10.7 12-4.6 19.1-11 31.3-22 24.4-22 25.5-35.6 36.5-36.1 13.7-.6 30.8 19.5 29.1 37.4-1.3 14-13.6 21.9-36.5 36.5-5.3 3.4-28.2 17.6-63.5 25.3-21 4.6-35.9 7.7-46.3-1-6.5-5.4-11.2-15.4-8.2-21.6z" id="Layer_18"/><path class="st1" d="M1309.4 860.8c-14.7 11.6-14.4 30.5-14.4 32.1.2 6.2 1.8 11.1 3 14-17.7 9-20.6 12.7-20.1 14.4 1.4 4.4 27.7 5.1 39.8-9.7 2.8-3.4 3.9-6.8 6-13.4 4.2-13.1 9.9-39.5 1.7-43.8-4.8-2.5-12.5 3.6-16 6.4z" id="leg_right"/><path class="st1" d="M1292.3 840.8c1.8-1.7 4.2-4.1 6.8-7.2 1.6-1.9 7.6-9.1 14.1-23 3.7-7.8 6.6-14 8.6-23.2 1.9-8.9 3.5-16.8-.4-23.6-3.2-5.6-6.9-8.6-6.9-8.6-3.3-2.6-6.1-3.6-6-5.2.2-1.4 2.7-2.6 5-2.6 7-.1 12.2 12.2 13.1 14.2 4.6 10.9 2.9 21.3 2.1 24.9-.5 2.1-.5 1.5-4.3 12.9-3.7 11.2-3.6 11.4-5.2 15.9-5.4 15.2-8.4 23.6-15.4 26.2-2 .8-5.8 1.5-11.5-.7z" id="cat_paw_right"/><g id="head_1_"><path class="st1" d="M1156.2 924.7c-3.5-1.7-13.1-6.3-13.6-13.3-.1-1.2 1-5.5 3.1-14 .9-3.6 1-3.8 1.4-5.6 1.3-5.9.9-7.1 2.1-9.8.5-1.1 2.7-6.2 5.6-6.3 2.6-.1 5.5 4 6.6 10.1 5-.1 11.4-.2 16.4-.3 5.4-.1 11.8-.2 17.1-.3 1-1.6 2.7-3.9 5.2-6.3 2.4-2.3 4.1-3.9 5.6-3.5 2 .5 2.4 4.6 3.1 9.8 2.5 18.1 4.7 19.6 2.8 24.5-2 5-6 7.6-10.5 10.5-.9.7-23.6 14.8-44.9 4.5z"/><path class="st2" d="M1153.1 901c3.5-.7 6.5 1.4 9.2 3.4.4.3.8-.4.4-.6-2.9-2.2-6-4.2-9.8-3.5-.4 0-.2.8.2.7zM1177 904.4c3.2-2.4 6.8-3.9 10.7-4.4.5-.1.5-.8 0-.8-4.1.5-7.8 2-11.1 4.5-.3.3 0 1 .4.7zM1159.6 893.6c1-.8 2.2-1.1 3.5-.8.5.1.7-.6.2-.7-1.5-.4-3 0-4.2 1-.4.3.1.8.5.5zM1176.8 893.1c1.1-.4 2.2-.3 3.2.4.4.3.8-.4.4-.6-1.1-.7-2.5-.9-3.7-.4-.6.1-.4.8.1.6zM1168.7 908.7c.1-.1.2-.2.3-.4-.2-.1-.3-.2-.5-.3.1.5 0 1-.3 1.4.1-.1.3-.1.4-.2-.3-.4-.3-.8-.1-1.1-.2.1-.4.1-.6.2 0 .4 0 .8.1 1.2l.6.3c0-.3 0-.7.1-1.1h-.8c.2 1.1.1 2.3-.5 3.3-.2.4-.7 1.1-1.2 1.4-1.6.8-1.6-1.3-1.6-2 0-.5-.8-.5-.8 0 0 .9.1 1.9.8 2.6.7.6 1.5.5 2.2-.1 1.6-1.2 2.1-3.4 1.7-5.3-.1-.4-.7-.3-.7.1v1.2c0 .3.4.5.6.3.6-.7.6-1.6-.1-2.2-.2-.2-.5-.1-.6.2-.3.8-.4 1.7.6 2 .2.1.3 0 .4-.2.5-.6.6-1.3.4-2-.1-.2-.3-.3-.5-.3-.6.2-.8.5-.9 1.1.2.4 1 .4 1-.1z"/><path class="st2" d="M1168.4 909c-.8 1.8-.5 4.7 1.5 5.7 2.2 1.1 3.1-1.7 3.3-3.3 0-.5-.7-.5-.8 0-.1.7-.1 1.4-.5 2-.7 1.1-1.9.8-2.6-.1-.9-1.2-.9-2.7-.3-4.1.3-.4-.4-.6-.6-.2zM1160.1 906.8c-2.3-1.2-4.5-2.5-6.6-3.9-.4-.3-.8.4-.4.6 2.1 1.4 4.3 2.7 6.6 3.9.5.3.9-.4.4-.6zM1159.3 909.2c-2.2-.3-4.4-.3-6.7 0-.5.1-.5.8 0 .8 2.2-.3 4.4-.3 6.7 0 .5 0 .5-.8 0-.8zM1159.2 910.4c-2.1.7-4 2-5.4 3.7-.3.4.2.9.5.5 1.3-1.7 3.1-2.9 5.1-3.5.5-.2.3-.9-.2-.7zM1176.4 909.8c3.1-2.1 6.6-3.3 10.3-3.5.5 0 .5-.8 0-.8-3.9.3-7.5 1.5-10.7 3.6-.4.3 0 1 .4.7zM1177.8 911.6c2.9-.9 5.8-.6 8.4.8.4.2.8-.4.4-.6-2.8-1.5-5.9-1.8-9-.9-.5.1-.3.8.2.7zM1179 913.4c2.4.5 4.4 1.7 6 3.5.3.4.8-.2.5-.5-1.7-1.9-3.8-3.2-6.3-3.7-.5-.2-.7.6-.2.7zM1203.8 880.4c-1.3 2-2.2 4.2-2.6 6.5 0 .3.2.5.5.5.4-.1.4-.2.8-.4-.2.1 2-1.5 1.3 0-.2.3.2.7.5.5.4 0 .8.1 1.2.1-.3.4.2.9.5.5s.4-.9 0-1.3c-.6-.6-1.4-.3-2.1.1l.5.5c.3-.6.6-1.4-.2-1.9-1.1-.7-1.9.9-2.7 1.2l.5.5c.4-2.3 1.3-4.4 2.5-6.3.2-.5-.4-.9-.7-.5zM1154.2 880.8c.5 1.7.7 3.4.6 5.1h.8c0-1.2-1.4-2.1-2.3-1-.2.2-.2.5-.4.6-.2.2-.5.3-.8.5-.6.6-.7 1.3-.5 2 .1.5.8.3.7-.2-.1-.9.2-1.5 1.1-1.7.2 0 .3-.2.3-.4h1.1c0 .5.7.5.8 0 .2-1.8 0-3.6-.6-5.3-.2-.3-.9-.1-.8.4z"/></g><path class="st1" d="M1116.8 950c1.1-1.3 2.7-1.2 6.9-2 5-1 8.9-2.3 11.6-3.3 15.1-4.2 26.1-9.8 33.6-14.3 16-9.7 23.2-18.9 32.8-16.8 6.1 1.4 11.7 7.1 11.2 11.9-.4 4.1-5 6.8-28 15.5-35.7 13.5-32.4 9.9-43.1 15.5-9.8 5.2-15.3 9.6-20.3 7.4-5-2.3-7.4-10.7-4.7-13.9z" id="cat_paw_left"/></g><g id="arm_right"><path class="st6" d="M834.4 515.8c-7.4-3.9-17 .4-22.3 2.8-9.4 4.2-20 12.8-32.1 41.1-6.8 15.8-15.4 41-18.1 74.6-10.6 4.6-25.6 9.6-43.9 10.5-19.8.9-30.1-3.6-35.6 2.8-6.9 8-1 27.2 9.8 38.4 12.1 12.6 28.7 13.4 39.8 13.9 8.1.4 37.6.8 64.2-19.5 25.7-19.7 32.6-46.5 40.5-76.7 2-8.6 19.1-76.7-2.3-87.9z"/><path class="st10" d="M826.2 514.7c-8.7 3.1-3.8 28.1-6 56.3-.5 6-4 47.9-21.7 73.1-28.5 40.5-94.5 38.2-109.9 37.4 1.8 3.1 5 7.6 10.3 11.4 6 4.2 12.5 5.8 21.1 6.5 9 .7 23.3 1.9 42.2-3.8 9.8-3 34.7-10.5 51.4-33.6 4.6-6.3 7.2-12.5 12.5-24.9 2.8-6.6 9.5-23.3 14.6-47.6 0 0 3.4-16.3 3.2-56.3 0-4.5-1-8.4-3.8-11.9-3.2-4.4-9.8-8.1-13.9-6.6z"/><path d="M837.6 587.8c-1.1-.3-4.1 15.8-17.9 40.6-9 16.3-20.9 37-42.8 52.5-22.4 15.8-43.5 17.8-43.3 18.4.2.8 42.9-.6 72-28.7 32.5-31.4 33.9-82.3 32-82.8z" opacity=".25" fill="#6c6d6d"/></g><g id="torso"><path d="M835.7 498.5c-13.9 9.6-22.1 20.2-26 25.3-23.1 30.4-25.8 63.5-26.7 78-2.1 32.2 6.7 39.1 7.9 89.5.4 16.7-.2 30.4-.7 39 12.2 8.9 38.4 25.6 75.8 30.3 45.9 5.8 81.2-9.8 94.6-16.6 7.8-7.3 18.5-18.4 28.4-33.8 10.2-15.8 17.3-32.7 26.9-72 5.7-23.4 12.3-54.5 17.4-92.1-8-11.5-36.2-48.7-87.9-62-9.3-2.4-64.7-16.6-109.7 14.4z" fill="#ec615b"/><path d="M938.6 482.7c3.3 10.2 7.1 25.1 8.3 43.3 2.1 30.3-3.9 56.9-16.7 90.7-22 58.3-52.6 107.4-77.1 141.8 9.3 1.6 20 2.7 31.8 2.6 32.2-.2 58.1-9.1 75.1-16.7 5.9-5.7 14.1-14.4 22.4-26.1 3.6-5 14.5-20.9 24.5-47.9 18.2-49 24.2-109.8 25.5-124.6-8-11.9-23.9-31.8-50.6-46.9-16.3-9.3-31.7-13.8-43.2-16.2z" opacity=".09" fill="#6c6d6d"/><path class="st7" d="M1029.8 563c-14.1 38.2-28.7 68.6-40.1 90.2-12.4 23.5-19.5 36.7-31.8 51.6-24.9 30.1-54.8 47.3-78.2 57.3 9.9-.2 21.6-1.2 34.4-3.6 17.9-3.5 32.8-8.9 44.3-14.1 7.1-5.6 16.8-14.2 26.1-26.6 12-16.1 18.8-32.6 27.6-66.2 6-22.8 12.7-52.7 17.7-88.6z"/></g><g id="leg_left"><path class="st1" d="M795.6 896.6l-28.2 50.1c-67.1 18-100.1 30.8-98.9 38.3 1.2 8.1 42.2 10.1 122.8 5.9 18.3-27.1 36.6-54.3 55-81.4l-50.7-12.9z"/><path class="st6" d="M972.8 723.7c25.7 15.2 29.7 59.7 17.8 90.6-19.2 49.6-77.3 58.5-79.8 58.8 22.8-26.2 34.1-39.3 34.1-39.4-.1-.1-35.4 40-105.9 120.2-6.9-.9-35.6-5.3-55.9-30.5-11.8-14.6-15.6-29.9-16.9-38.1 42.1-48.6 84.1-97.1 126.2-145.7 24.6-23.2 58-29.1 80.4-15.9z"/><path class="st4" d="M974.7 726.3c.8 13 .3 32.6-8.3 53.5-11 26.9-29.8 42.5-42.7 52.9-37.4 30.2-80.1 64.1-128.7 100.7 3.5 3.3 7.9 6.9 13.4 10.2 11.5 7 22.5 9.7 30 10.8l72.6-81.6c6.9-1 16.6-3.1 27.4-7.6 10.2-4.3 28.2-12.2 42.1-31.2 12-16.6 14.6-33.1 15.9-42.1 1.5-10.6 3.5-24-2.5-39.5-5.3-13.4-14.1-21.9-19.2-26.1z"/><path class="st14" d="M993.8 760c-2.2 13.2-6.9 31.5-17.8 51-20.8 36.8-51.4 55.1-65.6 62.5 11.2-1.8 34.6-7.2 55.4-26.1 5.9-5.4 17.7-16.3 24.9-35 8.8-23.3 5.1-44 3.1-52.4z"/><path class="st10" d="M943.5 833.3c-2.7-2.7-45.8 35.1-129.4 113.4 7.9 2.8 15.7 5.5 23.6 8.3 73.1-78.5 108.4-119.1 105.8-121.7z"/></g><g id="book"><path class="st6" d="M670 563.4h3.1c.3-1.1.6-2.3.9-3.4 1.2 2.5 3.2 6.6 5.7 11.7 11 22.3 13.2 26 15.2 32.7 1.6 5.5 3.5 13.4 4.1 23.5 1.9-1.3 4.7-3.1 8.3-5.1 19.4-10.6 35.6-10.7 50.2-13.3 10.9-2 26.2-6.4 44.1-17.1-1.1 1.5-2.2 3.1-3.3 4.6 1.7.6 3.5 1.3 5.2 1.9 1 1.3 2.3 3.4 3.4 6.1 5.8 14.3-2.8 30-11.1 44.4-33.9 59.6-37.4 62.7-43.5 65.7-2.5 1.3-27.7 13.6-45.6 2.2-3.7-2.3-10.4-7.8-19-46.7-5.9-26.5-6.6-41.3-12.2-76.1-2.1-13.2-4.1-24-5.5-31.1z"/><path class="st1" d="M675.7 568.9c8.5 18.2 16.9 36.7 19.5 56.7.1.5.8.5.8 0-2.6-20.2-11-38.8-19.6-57.1-.3-.4-.9 0-.7.4z"/><path class="st1" d="M672.5 565.7c5 10.6 9.1 21.5 12.5 32.7.1.5.9.3.7-.2-3.4-11.3-7.6-22.2-12.6-32.9-.2-.4-.8 0-.6.4zM686.2 597.8c3.3 9 5.5 18.3 6.8 27.8.1.5.8.5.8 0-1.3-9.6-3.5-18.9-6.8-28-.2-.4-1-.2-.8.2zM677.5 583.6c4.6 11.3 8.6 22.9 11.9 34.7.1.5.9.3.7-.2-3.3-11.8-7.3-23.4-11.9-34.7-.1-.5-.9-.3-.7.2zM700.8 630.4c12.5-8.3 26.5-13.7 41.4-15.8.5-.1.3-.8-.2-.7-15 2.1-29 7.5-41.6 15.8-.4.3 0 1 .4.7z"/><path class="st1" d="M707 629.2c13-7.9 27.7-10.9 42.3-14.2 15.5-3.5 30.6-8.2 45.3-14.2.4-.2.2-.9-.2-.7-15.2 6.3-30.9 11-47 14.6-14.1 3.2-28.3 6.3-40.8 13.9-.3.2 0 .8.4.6z"/><path class="st1" d="M704.6 632.7c15.4-7.3 31.1-11.8 47.6-15.8 16.2-4 31.9-10.2 47.7-15.6.5-.2.3-.9-.2-.7-16.3 5.6-32.6 12.1-49.4 16-15.9 3.8-31.2 8.5-46.1 15.5-.4.2 0 .8.4.6z"/><path class="st6" d="M669.5 563.2c7.3 23.1 14.7 46.1 22 69.2l10.8 3.6c34.2-11.3 68.3-22.5 102.5-33.8 1.2 1 2.4 2 3.6 3.1 3.9 47.5 7.9 94.9 11.8 142.4-1.4.9-2.7 1.7-4.1 2.6-34.7 5.3-69.3 10.6-104 15.9-5-1.2-9.9-2.4-14.9-3.6-4.4-19.5-8.9-38.9-13.3-58.4l-19.5-138.3c1.7-1 3.4-1.8 5.1-2.7z"/><path class="st1" d="M689.8 633c1.6 43.3 4.7 86.7 7.1 130 .1 1.4 2.3 1.4 2.3 0-2.4-43.3-5.5-86.6-7.1-130-.1-1.4-2.3-1.4-2.3 0zM700.2 635.8c1.4 12.3 2 24.6 2 37 0 1.4 2.2 1.4 2.3 0 0-12.4-.6-24.7-2-37-.2-1.5-2.5-1.5-2.3 0z"/><path class="st15" d="M727.5 639.2c.6 7.5 1.1 15 1.7 22.5 22.1-6.7 44.2-13.5 66.2-20.2-.7-7.8-1.4-15.6-2-23.4-22 7.1-43.9 14.1-65.9 21.1z"/><path class="st4" d="M762.4 617.2c.4 10 .1 32.4-12.7 56.5-13.6 25.6-33.5 38.8-42.1 43.8-.4-8.2-.9-16.4-1.3-24.5-3.4 5.7-6.7 11.4-10.1 17.1.7 17.8 1.5 35.6 2.2 53.5 4.8 1 9.6 2 14.5 3.1 33.7-5.4 67.5-10.8 101.2-16.2 1.8-.7 3.5-1.5 5.3-2.2-3.8-48.1-7.6-96.1-11.4-144.2-15.2 4.4-30.4 8.7-45.6 13.1z"/><path d="M700.7 636.7c-.7 0-1.5 18.5-1 38.6.6 28.6 3.3 41.1 2.5 68.4-.3 8.9-.8 16.2-1.2 20.9 3.7.5 7.5 1 11.2 1.5-.7-4.9-1.7-12-2.7-20.5-7.8-63.6-7.7-108.9-8.8-108.9z" opacity=".1" fill="#6c6d6d"/></g><g id="fingers"><path class="st2" d="M670.1 632.7c-1.1.4-1 2.4-1.9 11.7-.6 6.3-.8 6.4-.6 7.9.5 4.2 2 5 2.5 9.8.3 3.1-.3 3.5.2 6.1.6 3.2 2 5.6 3.1 7.1 0 1 .2 2.7 1 4.4 1.6 3.1 5.3 5.8 7.3 4.8 1.1-.5 1.4-2.6 1.9-6.7.5-3.8.2-4 .6-8.4.4-3.6.7-4.3.4-6.1-.3-2.2-1.1-2.9-1.9-5.2-1.1-3.2-.6-4.4-1.3-7.7-1-5.5-3.6-9.4-5-11.5-1.4-2.3-4.5-6.8-6.3-6.2z"/><path class="st1" d="M669.3 631.7c-5.4 11.7 0 24.8 12.2 29.1 1.4.5 2-1.7.6-2.2-10.8-3.8-15.6-15.4-10.8-25.8.6-1.2-1.4-2.4-2-1.1z"/><path class="st1" d="M669.7 633.6c7.2 6.7 11.4 15.5 12 25.3.1 1.4 2.3 1.4 2.3 0-.6-10.4-5-19.8-12.7-26.9-1.1-1-2.7.6-1.6 1.6zM666.8 645.7c-2.6 11.7 4.3 22.8 16.2 25.3 1.4.3 2-1.9.6-2.2-10.6-2.2-17-11.9-14.6-22.6.2-1.3-1.9-1.9-2.2-.5z"/><path class="st1" d="M668.9 660.5c-2.1 8.9 3.3 17.4 12.3 19.1 1.4.3 2-1.9.6-2.2-7.8-1.4-12.6-8.5-10.8-16.3.4-1.4-1.7-2-2.1-.6z"/><path class="st1" d="M671.8 674.7c-.4 4.3 2.1 8.6 6.1 10.2 1.7.7 3.9.8 5.2-.7 1.4-1.6.8-4 0-5.7-.5-1.3-2.7-.7-2.2.6.5 1.1 1.5 3.3-.1 4-1.2.5-3.1-.7-4-1.4-2.1-1.7-3.1-4.3-2.8-7 .2-1.4-2-1.4-2.2 0z"/><path class="st1" d="M682.1 679.4c2.2 0 3.1-2.2 3.4-4.1.4-2.3 0-4.7-1.2-6.7-.7-1.3-2.7-.1-1.9 1.1.7 1.2 1.1 2.5 1.1 3.8 0 .7-.2 3.6-1.4 3.6-1.4.1-1.4 2.3 0 2.3z"/><path class="st1" d="M684.9 670.2c1.4-1.3 1.4-3.8 1.1-5.6-.3-2.3-1.3-4.3-2.9-6-1-1.1-2.6.5-1.6 1.6s1.8 2.4 2.1 4c.2 1.1.5 3.5-.4 4.4-.9 1.1.7 2.7 1.7 1.6z"/></g><g id="hand_left"><path class="st6" d="M1004.3 529.2c-25.6.4-42.2 39.6-47.2 51.4-7.2 17.1-5.9 24.2-16.3 68.5-3.6 15.6-7 28.2-9.2 36.3-9.3 4.5-27.5 11.6-50.5 9.6-13.7-1.2-29.2-2.6-40.3-13.9-10.8-11-9.7-23.3-21.1-27.1-7.4-2.5-16.3-.2-17.4 3.2-.7 2.4 2.6 4.3 6.8 12.4 1.5 3 2.6 5.5 3.2 7.4-13.4 3.6-24.6 5-32.9 5.6-20.1 1.4-33.5-1.2-37.5 5.9-1.6 2.8-2.2 8.3.5 12.1 1.4 2 3.3 3 4.5 3.5-.2.3-3.1 4-1.6 8.6 1.4 4.3 5.3 5.8 5.7 5.9-.2.5-1.9 4.6.5 8.7 2.3 3.9 6.4 4.7 6.9 4.7-.4 1.4-.8 3.8.2 6.1 1.5 3.6 5.4 5.2 8.8 6.3 18.3 5.7 33.4 3.3 33.4 3.3 17.1-2.7 29.8-10.4 37.2-15.9 7.8 7.1 23.8 19.7 47.6 25.9 8.5 2.2 34.9 8.8 63.9-2.1 30.8-11.5 46.3-35.8 59.7-56.8 14.4-22.6 19.7-41.7 26.7-66.8 9.9-35.6 14.7-53.8 5.8-72.6-6-13.4-20.5-30.5-37.4-30.2z"/><path class="st1" d="M745.5 704.2c13.1 4.3 26.8 4.8 40.1 1.6 1.4-.3.8-2.5-.6-2.2-13 3.1-26.2 2.6-38.9-1.6-1.4-.4-2 1.7-.6 2.2zM750.9 719.3c12.8 3.2 25.9 3.3 38.8.5 1.4-.3.8-2.5-.6-2.2-12.5 2.7-25.2 2.5-37.6-.5-1.4-.4-2 1.8-.6 2.2zM757.1 732.4c11.5 3.5 23.3 4.1 35 1.7 1.4-.3.8-2.5-.6-2.2-11.4 2.3-22.8 1.7-33.8-1.7-1.4-.4-2 1.8-.6 2.2z"/><path class="st10" d="M1027.5 538.3c-.8 18.4-3.7 46-13.7 77.9-11.6 37-23.9 76.2-61 100.6-9.3 6.1-33.6 21.9-66.9 19.1-24.9-2.1-42.8-13.5-51-19.6-16.1 7.6-30 10.6-39.2 11.8-11.8 1.6-20.1 1.1-22.3.9-9.5-.7-17.2-2.7-22.8-4.6 2.3 2.6 4.6 5.2 6.8 7.7-.3 1.9-.4 5 1.4 7.7 2 3.1 5.5 4.3 11.8 5.5 8.6 1.6 12.9 2.4 20.5 2.3 6.9-.2 16.6-.5 28.2-5 4.8-1.9 11.3-5 18.2-10.5 4.3 3.6 10.7 8.5 19.1 13.2 9.7 5.5 29.8 16.6 57.4 16.4 7.9-.1 26.2-.4 46-10.9 12.7-6.8 20.4-14.8 28.2-23.2 16.4-17.6 24.8-34.3 31.4-47.8 10.5-21.4 14.7-37.7 20.9-62.4 7.5-29.3 6.8-38.2 5.5-44.6-3.1-16.1-12.1-27.7-18.5-34.5z"/><path d="M1043 598.4c-9.5 33-21.2 58.8-30.4 76.5-22.6 43.7-38.4 54.7-43.9 58.3-18.8 12.2-37.3 14.6-45.1 15.5-47.9 5.2-84.1-20.8-85.6-17.8-1.2 2.4 20.7 20.7 51 27.3 9 2 35.9 7.5 65.1-5.5 21.6-9.6 33.6-24.5 42.8-36 13.2-16.4 19.4-31.1 26.4-48.3 6.8-16.2 14.9-39.9 19.7-70z" opacity=".2" fill="#6c6d6d"/><path class="st10" d="M759.3 738.2c7 2.2 15.7 4.1 26 4.6 24.6 1.1 43.7-7.1 53.7-12.3-3.7 3.5-20.6 18.7-46 18.2-16.4-.3-28.4-7-33.7-10.5z"/></g><g id="head"><path d="M831 364.5c-3.3 5.6-4.1 16-5.7 36.8-1.7 22.5-.5 32.7-1.3 49.4-.6 13.1-2.4 31.8-7.7 54.5 9 17.1 19.8 23.6 25.7 26.3 29.8 13.8 67.1-8 91.8-22.5 12.1-7.1 21.3-14 27-18.6-2.4-4.8-5.7-12-8.3-21.2-4.3-14.8-3.9-23.7-5.1-40.4-2.9-39.5-3-48.3-9-60.3-3-6-5.5-11.2-10.7-16.1-24.9-23.3-80.6-14.9-96.7 12.1z" fill="#fff" stroke="#161616" stroke-width="2" stroke-miterlimit="10"/><path class="st19" d="M823.3 431c-4.1 5.7-11.8 18-14.3 35.6-1 7.4-1.9 21.6 4 37.9 2.6 7.1 8.9 23.4 25.8 34.9 9.6 6.6 19.1 9 24.8 10.1-3.4-3.7-6.7-7.4-10.1-11.1 3.6 2 12.2 6.1 23.7 5.6 3.5-.2 14.8-1.1 25.3-9.1 7.7-5.9 10.9-12.6 16.2-24.2 7-15.2 11.9-26.1 11.6-40.4-.4-18.6-9.3-23-6.1-40.4.7-3.9 2.9-15.9 10.1-17.7 3.4-.8 7.1.9 9.1 3 4.3 4.5 3.9 13.7-2.5 21.2 3.1-.7 10.2-3 15.2-9.6 7.6-10.2 5.7-24.9-1.5-33.3-1.8-2.1-5.1-6-10.1-6.6-6.7-.8-12.3 5-22.2 16.7-20.7 24.5-20.4 28.8-30.8 36.4-12.5 9.1-23.8 10.8-27.1 11.3-5.6.7-14 1.7-23.2-2.5-11-5.2-16.2-14.4-17.9-17.8z"/><path class="st19" d="M853.8 402.8c-2.6 13-4.1 26.4-4 39.7 0 2.9 0 7.3 3.6 8.2 3.8.9 9.4-3.8 12.2-5.7 1.6-1.1.1-3.7-1.5-2.6-2.5 1.7-10.8 7.8-11.3 2-.3-4.3.1-8.9.3-13.2.5-9.3 1.8-18.5 3.6-27.6.4-1.8-2.5-2.6-2.9-.8zM838.3 414c-1.5-2.4-1.6-5.3-.1-7.7-.9-.1-1.8-.2-2.7-.4 1.1 2.8 1.6 5.8 1.2 8.8.7-.3 1.5-.6 2.2-.9-.3-.2-.6-.3-.9-.5-1.7-.9-3.2 1.7-1.5 2.6.3.2.6.3.9.5.8.4 2.1.1 2.2-.9.5-3.6.2-7.1-1.2-10.4-.5-1.2-2-1.5-2.7-.4-2 3.3-2 7.4.1 10.7.9 1.8 3.5.3 2.5-1.4zM881.3 413.1c-.6-1.1-1-2.2-1-3.5 0-.6.1-1.1.2-1.7l.3-.9c.4-.6.1-.7-.9-.4-.1.1.7 3.2.7 3.5.1 1.4-.1 2.8-.4 4.2.8-.2 1.7-.4 2.5-.7-.7-.6-1.1-1.2-1.1-2.2-.1-1.9-3.1-1.9-3 0 .1 1.7.7 3.2 2 4.3.8.7 2.2.5 2.5-.7.5-2.4.6-4.9.2-7.3-.3-1.6-.9-4.2-3-4-2 .2-2.6 2.9-2.8 4.5-.3 2.2.2 4.3 1.3 6.3.9 1.8 3.5.3 2.5-1.4z"/><path class="st19" d="M878.6 407.7c.2 1.8.3 3.6.5 5.4.2 1.9 3.2 1.9 3 0-.2-1.8-.3-3.6-.5-5.4-.2-1.9-3.2-1.9-3 0z"/><path class="st19" d="M878.4 411.8c-.3 1.3-.4 2.8.6 3.7 1 .9 2.6 1.1 3.5 0 .5-.6.6-1.5 0-2.1-.5-.5-1.6-.6-2.1 0-.2.3.2-.1.4-.2h.2c-.1 0 .2.1 0 0 .1.1.1.2.2.3.1.1 0-.2 0-.1v-.3-.1c0-.2.1-.3.1-.5.2-.8-.2-1.7-1-1.8-.8-.1-1.7.3-1.9 1.1zM835 405.4c-.8 3-.8 6.2.3 9.2.6 1.8 3.5 1 2.9-.8-.9-2.5-1-5-.3-7.6.5-1.8-2.4-2.6-2.9-.8z"/><path class="st19" d="M837.7 410.6c-.3-1.2-.2-2.5.1-3.7-1-.3-1.9-.5-2.9-.8-.4 1.9-.4 3.7-.1 5.6.1.8 1.1 1.2 1.8 1 .8-.2 1.2-1 1-1.8-.2-1.3-.2-2.7.1-4 .4-1.9-2.4-2.7-2.9-.8-.4 1.8-.4 3.5-.1 5.3.5 1.9 3.3 1.1 3-.8zM831.2 399.7c1.6-4.7 7.3-5.6 10.5-1.9 1 1.1 2.5-.5 1.6-1.6-4.4-5-12.1-3.3-14.2 2.9-.6 1.4 1.6 2 2.1.6zM873.6 399.7c3.6-5.8 12.1-2 14.2 3 .5 1.3 2.7.7 2.2-.6-2.8-6.9-13.6-11-18.3-3.6-.8 1.3 1.2 2.4 1.9 1.2zM790.2 370.9c55 7.3 109.9 14.5 164.9 21.8 5.7.8 5.7-8.3 0-9-55-7.3-109.9-14.5-164.9-21.8-5.7-.8-5.7 8.2 0 9z"/><path class="st15" d="M828.6 367.1c1.3-6.6 4.4-17.4 12.2-28.4 3.1-4.4 8.5-12.1 17.8-17.6 17.6-10.5 44.6-9.5 64.1 3.7 19.1 12.9 28.5 35.7 24.2 58.4-39.4-5.4-78.9-10.7-118.3-16.1z"/><path d="M882.5 314.8c15.4 3.1 26.9 15.6 28.3 30.3 1.2 12.1-4.7 24.2-15.2 31.4 17.3 2.2 34.5 4.5 51.8 6.7.9-4.2 1.8-10.5.7-17.9-2.4-16.8-12.5-27.4-17-32-3.5-3.5-16.3-16.2-36.4-18.5-4.9-.6-9.2-.3-12.2 0z" fill="#321693"/><path d="M892.6 384.5c1.6 5.6 3.2 13.1 3.1 22-.2 17.3-6.3 30.5-10.2 37.3 3.3-1.6 8-4.3 12.5-8.8 3.2-3.2 4.4-5.5 7.8-10.5 0 0 5.7-8.4 14.2-18.6 3.3-4 8.2-9.6 15-15.9-14.2-1.9-28.3-3.7-42.4-5.5z" opacity=".24" fill="#6c6d6d"/><path class="st9" d="M933.2 412c-2.6 1-4.1 3-5.1 4.4-1.2 1.7-2.5 4.1-3.4 10.5-.8 5.5-1.6 10.5-.5 16.9.8 4.8 1.8 4.9 3.4 10.8.7 2.5 2.9 10.7 2.4 20.3-.3 7.3-2 12.4-4.4 19.6-2.2 6.5-5.8 15.4-11.8 25.5 11-6.2 22.2-13 33.5-20.3 4.7-3 9.2-6 13.7-9.1-2.5-4.3-5-9.3-7.1-14.9-6.2-16.4-7.1-31.4-6.6-41.9-1.9.8-3.8 1.6-5.6 2.4 5.9-9.3 5.6-18.9 1.2-22.5-2-1.8-6.1-3.1-9.7-1.7z"/><path d="M945 417.4c-.9 3.7-2.2 8-4.4 12.7-1.6 3.4-3.3 6.3-4.9 8.8 3 3.2 7.9 9.5 10 18.6 2.3 9.8.2 17.7-2.2 26.4-1.7 6.4-5.1 15.9-11.8 26.2 9.4-6.4 18.8-12.7 28.2-19.1-3.6-8-7.4-18.5-9.8-31.3-1.8-9.8-2.3-18.7-2.2-26-2.4.9-4.7 1.8-7.1 2.7 1.1-1.1 3.8-4.1 4.9-8.8 1.1-4.8-.2-8.8-.7-10.2z" opacity=".21" fill="#6c6d6d"/><path class="st14" d="M891.9 384.1c11.9 4.2 23.9 8.4 35.8 12.6 2.7-2.2 5.4-4.5 8.2-6.7-14.7-2-29.3-4-44-5.9z"/></g></g></svg>