<svg width="100" height="96" fill="none" xmlns="http://www.w3.org/2000/svg"><g clip-path="url(#clip0)"><path d="M99.401 37.725c1.198-1.198.599-3.593-1.197-3.593l-30.54-4.192c-.598 0-1.197 0-1.796-1.198L52.096.6C51.497 0 50.898 0 50.299 0v80.24h1.198l28.144 13.772c1.197.599 3.593-.599 2.994-2.395l-5.39-30.54c0-.598 0-1.197.6-1.796L99.4 37.725z" fill="#dce0e5"/><path d="M50.3 0c-1.198 0-1.797.599-2.396.599L34.132 29.94c-.6 0-1.198.599-1.797.599L1.796 34.73C0 34.73-.599 37.725.6 38.922L23.353 59.88c.6.599.6 1.797.6 1.797l-5.39 30.539c-.599 2.395 1.197 3.592 2.994 2.395L49.102 80.24h.599V0h.598z" fill="#0abf53"/></g><defs><clipPath id="clip0"><path fill="#fff" d="M0 0h100v95.21H0z"/></clipPath></defs></svg>