<svg xmlns="http://www.w3.org/2000/svg" xmlns:xlink="http://www.w3.org/1999/xlink" width="228.774" height="264.198" viewBox="0 0 228.774 264.198"><defs><linearGradient id="a" x1="0.695" y1="2.426" x2="0.408" y2="-0.5" gradientUnits="objectBoundingBox"><stop offset="0.01"/><stop offset="0.12" stop-opacity="0.749"/><stop offset="1" stop-opacity="0"/></linearGradient><linearGradient id="b" x1="-0.551" y1="0.189" x2="2.088" y2="0.977" xlink:href="#a"/><linearGradient id="c" x1="0.051" y1="0.765" x2="1.395" y2="0.023" xlink:href="#a"/><linearGradient id="d" x1="0.214" y1="0.695" x2="1.339" y2="0.056" xlink:href="#a"/><linearGradient id="e" x1="-0.105" y1="0.488" x2="2.213" y2="0.536" xlink:href="#a"/><linearGradient id="f" x1="-0.61" y1="0.523" x2="2.467" y2="0.466" xlink:href="#a"/><linearGradient id="g" x1="0.586" y1="1.198" x2="0.441" y2="-0.301" gradientUnits="objectBoundingBox"><stop offset="0.02" stop-color="#fff" stop-opacity="0"/><stop offset="0.49" stop-color="#fff" stop-opacity="0.388"/><stop offset="1" stop-color="#fff"/></linearGradient><linearGradient id="h" x1="0.583" y1="1.182" x2="0.438" y2="-0.317" gradientUnits="objectBoundingBox"><stop offset="0.02" stop-color="#fff" stop-opacity="0"/><stop offset="0.5" stop-color="#fff" stop-opacity="0.388"/><stop offset="1" stop-color="#fff"/></linearGradient><linearGradient id="i" x1="-0.483" y1="-0.025" x2="0.941" y2="0.706" gradientUnits="objectBoundingBox"><stop offset="0.02" stop-color="#fff" stop-opacity="0"/><stop offset="0.58" stop-color="#fff" stop-opacity="0.388"/><stop offset="1" stop-color="#fff"/></linearGradient><linearGradient id="j" x1="0.532" y1="1.202" x2="0.431" y2="-0.331" xlink:href="#h"/><linearGradient id="k" x1="0.51" y1="-2.027" x2="0.483" y2="3.523" xlink:href="#a"/></defs><g transform="translate(-0.752 -0.003)"><path d="M225.091,175.287a90.166,90.166,0,0,1-8.764,20.631C207,212.2,193.105,226.108,178.442,238.1c-8.81,7.206-18.133,13.991-28.677,18.27-8.451,3.423-17.491,5.158-26.538,6.3-22.626,2.865-46.237,2.086-67.357-6.518S16.395,230.3,10.374,208.3a82.433,82.433,0,0,1-2.392-13.716c-.42-4.149-.634-8.344-.848-12.509C5.835,156.352,2.488,131.258.2,105.79c-1.016-11.233,2.071-22.4,5.93-32.857a127.608,127.608,0,0,1,8.856-19.027c1.887-3.309,10.7-12.5,10.7-15.81a101.529,101.529,0,0,1,23.94-22.159C68.2,3.872,90.881-.492,112.972.043c11.462.275,23.053,1.842,33.545,6.457,29.694,13.044,43.746,46.168,62.7,72.477,5.242,7.274,11.08,14.289,14.48,22.587,3.5,8.566,4.187,17.987,4.646,27.226C229.111,144.378,229.279,160.256,225.091,175.287Z" transform="translate(0.752 0.002)" fill="#fff" opacity="0.18"/><path d="M208.345,0V1.352c-9.33,16.283-23.222,30.19-37.885,42.187-8.81,7.206-18.133,13.991-28.677,18.27-8.451,3.423-17.491,5.158-26.538,6.3C92.619,70.979,69.008,70.2,47.887,61.6S8.413,35.715,2.392,13.716A82.433,82.433,0,0,1,0,0Z" transform="translate(8.734 194.591)" fill="#f5a623" opacity="0.41"/><path d="M98.265,2.854C90.861-.088,82.654-.05,74.677.019L11.1.6C7.61.6,3.644.882,1.443,3.587-1.613,7.278.725,12.8,3.461,16.707,15.58,33.954,25.078,37.117,46.076,39c4.187.374,21.823,7.053,23.13,3.056.848-2.59-2.292-4.768-.764-7.015,1.215-1.773,3.652-2.155,5.8-2.124,12.363.183,36.1,18.8,43.769,2.178,3.095-6.717.13-10.789-5.586-14.106-3.4-1.979-9.04-3.454-10.789-7.412C99.786,9.433,103.866,5.077,98.265,2.854Z" transform="translate(14.328 200.463)" fill="url(#a)"/><path d="M42.723,27.177A104.466,104.466,0,0,1,33.752,50.75c-.092,1.528-10.461,23.42-15.015,32.857C15.681,89.972,12.433,96.559,6.932,101l-5.387-2.56A2.766,2.766,0,0,1,.2,97.43a2.8,2.8,0,0,1,.206-2.392Q6.649,79.466,12.915,63.878c1.712-4.271,9.055-35.723,11.607-45.412C26.417,11.291,27.387-.553,37.114.02a11.9,11.9,0,0,1,4.31,1.016,9.315,9.315,0,0,0-.543.764c-2.124,3.7-2.185,8.23-1.6,12.455A56.8,56.8,0,0,0,42.723,27.177Z" transform="translate(65.507 128.23)" fill="#3f3d56"/><path d="M6.664,12.035A132.193,132.193,0,0,1,3.76,26.1,56.8,56.8,0,0,1,.314,13.219C-.267,8.994-.205,4.462,1.919.764A9.315,9.315,0,0,1,2.461,0,7.443,7.443,0,0,1,5.006,1.872C7.344,4.524,7.184,8.512,6.664,12.035Z" transform="translate(104.47 129.304)" fill="#3f3d56"/><path d="M28.387,104.161a2.942,2.942,0,0,1-1.7,1.108,16.681,16.681,0,0,1-6.4.818,2.865,2.865,0,0,1-1.727-.543,3.1,3.1,0,0,1-.764-1.88q-1.352-8.405-2.72-16.811c-1.4-8.635-2.82-17.384-2.292-26.156a36.433,36.433,0,0,1,.313-3.775h0c-.764-2.384-9.169-19.47-11.8-26.263A132.193,132.193,0,0,0,4.2,16.593c.52-3.523.68-7.511-1.658-10.2A7.443,7.443,0,0,0,0,4.52C1.979,1.945,6.717-1.494,9.613.7c2.629,1.987,3.989,10.4,4.967,13.5,3.354,10.7,6.617,21.136,9.506,31.933,1.062,3.981,4.294,40.5,4.585,56.308a3.248,3.248,0,0,1-.283,1.719Z" transform="translate(106.946 124.747)" fill="#3f3d56"/><path d="M28.387,104.161a2.942,2.942,0,0,1-1.7,1.108,16.681,16.681,0,0,1-6.4.818,2.865,2.865,0,0,1-1.727-.543,3.1,3.1,0,0,1-.764-1.88q-1.352-8.405-2.72-16.811c-1.4-8.635-2.82-17.384-2.292-26.156a36.433,36.433,0,0,1,.313-3.775h0c-.764-2.384-9.169-19.47-11.8-26.263A132.193,132.193,0,0,0,4.2,16.593c.52-3.523.68-7.511-1.658-10.2A7.443,7.443,0,0,0,0,4.52C1.979,1.945,6.717-1.494,9.613.7c2.629,1.987,3.989,10.4,4.967,13.5,3.354,10.7,6.617,21.136,9.506,31.933,1.062,3.981,4.294,40.5,4.585,56.308a3.248,3.248,0,0,1-.283,1.719Z" transform="translate(106.946 124.747)" fill="url(#b)"/><path d="M6.664,12.035A132.193,132.193,0,0,1,3.76,26.1,56.8,56.8,0,0,1,.314,13.219C-.267,8.994-.205,4.462,1.919.764A9.315,9.315,0,0,1,2.461,0,7.443,7.443,0,0,1,5.006,1.872C7.344,4.524,7.184,8.512,6.664,12.035Z" transform="translate(104.47 129.304)" fill="#3f3d56"/><path d="M1.982,5.983A4.057,4.057,0,0,0,.263,7.457a4.119,4.119,0,0,0-.069,2.7C3.044,24.673,2.746,39.864,7.216,54a29.549,29.549,0,0,0,2.017,5,4.378,4.378,0,0,0,1.116,1.459,4.646,4.646,0,0,0,2.292.764,47.054,47.054,0,0,0,14.518-.275,8.39,8.39,0,0,0,4.822-2.063c1.834-1.933,1.65-4.951,1.528-7.641-.252-6.021.428-12.043.932-18.049a32.964,32.964,0,0,0-.214-9.85c-1.032-4.7-4-8.994-3.912-13.8.038-2.17.581-4.715-.993-6.212a5.632,5.632,0,0,0-2.468-1.161Q22.705,1.016,18.449.206C12.26-.963,7.056,3.1,1.982,5.983Z" transform="translate(83.607 70.926)" fill="#f5a623"/><path d="M34.45,33.256c-.5,6.006-1.184,12.027-.932,18.049a21.067,21.067,0,0,1-.122,4.585,5.761,5.761,0,0,1-1.421,3,8.4,8.4,0,0,1-4.814,2.063,47.3,47.3,0,0,1-14.518.275,4.745,4.745,0,0,1-2.292-.764A4.409,4.409,0,0,1,9.234,59a28.655,28.655,0,0,1-2.01-5C2.746,39.858,3.044,24.69.194,10.149a4.142,4.142,0,0,1,.069-2.7,3.752,3.752,0,0,1,1.528-1.36l.2-.107c.764-.451,1.589-.932,2.4-1.414a1.33,1.33,0,0,0,.153-.1C8.821,1.888,13.291-.771,18.434.207q4.226.81,8.405,1.971A5.716,5.716,0,0,1,29.307,3.34c1.574,1.528,1.032,4.042.993,6.212-.084,4.806,2.881,9.1,3.912,13.8A32.586,32.586,0,0,1,34.45,33.256Z" transform="translate(83.553 70.902)" fill="url(#c)"/><path d="M32.727,33.217c-.5,6.006-1.184,12.027-.932,18.049a21.067,21.067,0,0,1-.122,4.585A47.1,47.1,0,0,1,22.786,57a4.585,4.585,0,0,1-2.361-.351,4.44,4.44,0,0,1-1.345-1.246,28.907,28.907,0,0,1-2.827-4.585c-6.785-13.173-4.134-23.948-10.759-37.2C3.492,9.614-.268,7.161.015,6.29a.8.8,0,0,1,.1-.2,11.257,11.257,0,0,1,2.6-1.528,1.33,1.33,0,0,0,.153-.1C7.144,1.888,11.614-.771,16.757.207q4.226.81,8.405,1.971A5.716,5.716,0,0,1,27.63,3.34c1.574,1.528,1.032,4.042.993,6.212-.084,4.806,2.881,9.1,3.912,13.8A33.828,33.828,0,0,1,32.727,33.217Z" transform="translate(85.276 70.94)" fill="url(#d)"/><path d="M6.522,16.963a18.736,18.736,0,0,0,.29,3.056,13.349,13.349,0,0,1,.527,2.888,1,1,0,0,1-.168.611,1.184,1.184,0,0,1-.841.336l-5.158.588a.42.42,0,0,1-.26,0,.351.351,0,0,1-.13-.222A25.687,25.687,0,0,1,.02,15.947q.115-5.3.313-10.606A4.134,4.134,0,0,1,2.771.871,4.378,4.378,0,0,1,5.323,0C6.706.138,6.935,1.368,6.66,2.43A20.822,20.822,0,0,0,6.4,7.114Q6.339,12.035,6.522,16.963Z" transform="translate(101.639 114.748)" fill="#f5a623"/><path d="M6.522,16.963a18.736,18.736,0,0,0,.29,3.056,13.349,13.349,0,0,1,.527,2.888,1,1,0,0,1-.168.611,1.184,1.184,0,0,1-.841.336l-5.158.588a.42.42,0,0,1-.26,0,.351.351,0,0,1-.13-.222A25.687,25.687,0,0,1,.02,15.947q.115-5.3.313-10.606A4.134,4.134,0,0,1,2.771.871,4.378,4.378,0,0,1,5.323,0C6.706.138,6.935,1.368,6.66,2.43A20.822,20.822,0,0,0,6.4,7.114Q6.339,12.035,6.522,16.963Z" transform="translate(101.639 114.748)" fill="url(#e)"/><path d="M.162,4.895a1.07,1.07,0,0,0,.061.764,11.958,11.958,0,0,0,1.8,3.393c1.261,1.673,2.927,2.988,4.264,4.585,1.223,1.482,2.147,3.186,3.3,4.722.948,1.261,2.04,2.4,2.95,3.691.627.894,1.154,1.857,1.857,2.7a4.806,4.806,0,0,0,2.682,1.765,10.429,10.429,0,0,0,1.566-5.387A79.392,79.392,0,0,0,18.2,3.359c-.076-.588,0-1.116-.451-1.528a2.04,2.04,0,0,0-.764-.374C13.672.478,10.18-.5,6.817.287a19.1,19.1,0,0,0-5.3,2.422,4.585,4.585,0,0,0-1.268.97C-.136,4.1,0,4.4.162,4.895Z" transform="translate(90.302 70.723)" fill="#fff"/><path d="M1.7,7.066a36.173,36.173,0,0,0-.764,6.678L.046,33.352c-.122,2.583-.13,5.471,1.65,7.336,1.926,2.033,5.127,2,7.9,1.681,7.855-.9,15.527-2.927,23.168-4.944a1.467,1.467,0,0,0,.711-.336,1.437,1.437,0,0,0,.267-1.054l-.046-7.3c0-.436-.038-.955-.413-1.192a1.368,1.368,0,0,0-.68-.145q-10.132-.374-20.28-.168a1.154,1.154,0,0,1-.7-.13c-.4-.26-.351-.856-.26-1.33A42.531,42.531,0,0,0,10.989,7C10.53,5.248,9.155-.308,6.618.013,3.943.35,2.216,4.9,1.7,7.066Z" transform="translate(75.785 79.554)" fill="#fff"/><path d="M0,0A17.269,17.269,0,0,1,4.646,4.134C5.609,5.372,6.4,6.724,7.3,8c1.36,1.918,2.988,3.637,4.355,5.548,2,2.8,3.446,6.006,5.739,8.573a.856.856,0,0,0,1.192.283c4.524-1.78,10.568-5.838,12.661-6.4,0-.191,1.421,5.616,1.887,8.061a76.076,76.076,0,0,1-10.446,8.039,15.5,15.5,0,0,1-4.4,2.155,6.067,6.067,0,0,1-4.76-.55,9.169,9.169,0,0,1-2.147-2.17L8.1,27.371a22.763,22.763,0,0,1-2.292-3.255,23.313,23.313,0,0,1-1.842-5.3l-1.9-7.374A56.17,56.17,0,0,1,.122,1.505C.115,1.169.313.138,0,0Z" transform="translate(113.074 74.983)" fill="#fff"/><path d="M7.733.023c1.819-.2,3.5.94,4.867,2.155a7.763,7.763,0,0,1,1.689,1.949A5.777,5.777,0,0,1,14.9,7.1a5.846,5.846,0,0,1-1.444,3.821,3.775,3.775,0,0,1-3.767,1.108c-1.246-.4-2.132-1.528-3.37-1.994-1.482-.527-3.1.061-4.676.183a.909.909,0,0,1-.573-.1.94.94,0,0,1-.306-.481A12.707,12.707,0,0,1,0,5.2c0-1.23.329-1.528,1.414-1.918C3.607,2.445,5.38.29,7.733.023Z" transform="translate(108.772 104.501)" fill="#ffdad2"/><path d="M4.9,7.592c.565-.1,1.146-.168,1.712-.29a16.7,16.7,0,0,0,4.508-2.063q3.477-2,7.076-3.821c.306-.153.665-.443.527-.764a.558.558,0,0,0-.359-.267A4.44,4.44,0,0,0,17.017.2C13.739.066,10.453-.072,7.175.043a6.877,6.877,0,0,0-1.635.2A14.518,14.518,0,0,0,2.8,1.77a8.214,8.214,0,0,0-1.9,1.139A3.377,3.377,0,0,0,0,5.2c0,.833,0,3.163,1.039,3.416.512.13,1.146-.252,1.6-.42A15.145,15.145,0,0,1,4.9,7.592Z" transform="translate(142.516 89.581)" fill="#ffdad2"/><path d="M.038,20.141A13.968,13.968,0,0,1,.588,15.1c.443-1.177,1.2-2.216,1.719-3.37,1.391-3.1.917-6.671.841-10.071A2.1,2.1,0,0,1,3.225.893C3.538.014,4.753-.062,5.654.03A.764.764,0,0,1,6.2.221.764.764,0,0,1,6.335.7c.107,1.971.122,3.95.053,5.922a11.248,11.248,0,0,0,.145,2.957,16.123,16.123,0,0,0,1.6,3.385c2.292,4.462,2.033,9.758,1.7,14.77L9.467,33.2a.986.986,0,0,1-1.192,1.131,38.084,38.084,0,0,1-6.113-.168c-1.65-.191-1.9-.588-1.956-2.185C.069,28.065.13,24.092.038,20.141Z" transform="translate(144.472 52.351)" fill="#f5a623"/><path d="M.038,20.141A13.968,13.968,0,0,1,.588,15.1c.443-1.177,1.2-2.216,1.719-3.37,1.391-3.1.917-6.671.841-10.071A2.1,2.1,0,0,1,3.225.893C3.538.014,4.753-.062,5.654.03A.764.764,0,0,1,6.2.221.764.764,0,0,1,6.335.7c.107,1.971.122,3.95.053,5.922a11.248,11.248,0,0,0,.145,2.957,16.123,16.123,0,0,0,1.6,3.385c2.292,4.462,2.033,9.758,1.7,14.77L9.467,33.2a.986.986,0,0,1-1.192,1.131,38.084,38.084,0,0,1-6.113-.168c-1.65-.191-1.9-.588-1.956-2.185C.069,28.065.13,24.092.038,20.141Z" transform="translate(144.472 52.351)" fill="#f5a623"/><path d="M9.826,27.775c0,.443-.053.894-.092,1.345L9.46,33.238a1.307,1.307,0,0,1-.245.833,1.36,1.36,0,0,1-.948.3A38.084,38.084,0,0,1,2.155,34.2C.5,34.01.252,33.613.2,32.016.061,28.058.1,24.092.038,20.141A13.983,13.983,0,0,1,.588,15.1c.443-1.177,1.2-2.216,1.719-3.37,1.391-3.056.917-6.671.841-10.071A1.933,1.933,0,0,1,3.224.893C3.538.014,4.753-.062,5.654.03A.581.581,0,0,1,6.334.7c.107,1.979.122,3.95.053,5.93a11.149,11.149,0,0,0,.145,2.942,16,16,0,0,0,1.6,3.393,15.03,15.03,0,0,1,1.3,3.568C10.292,20.157,10.056,24.046,9.826,27.775Z" transform="translate(144.48 52.351)" fill="url(#f)"/><path d="M.059,4.944A6.831,6.831,0,0,0,.227,7.588a7.4,7.4,0,0,0,2.682,3.194,1.918,1.918,0,0,1,.5.52,1.8,1.8,0,0,1,.153.6,34.638,34.638,0,0,1,.3,6.037,1.788,1.788,0,0,1-.5,1.421,1.857,1.857,0,0,1-.993.26L1,19.707a.68.68,0,0,0-.382.115c-.2.168-.1.512.115.657A1.223,1.223,0,0,0,1.5,20.6l5.3-.214c.535,0,1.238-.191,1.261-.764l-2.2-.313a.764.764,0,0,1-.474-.176.764.764,0,0,1-.168-.443,22.748,22.748,0,0,1,.092-6.678,1.23,1.23,0,0,1,.176-.527,1.528,1.528,0,0,1,.4-.329A5.433,5.433,0,0,0,8.067,6.678a14.518,14.518,0,0,0-1.032-5.15A2,2,0,0,0,5.087,0C4.544,0,3.994.069,3.452.1A13.815,13.815,0,0,0,1.274.1C.013.367.151,3.775.059,4.944Z" transform="translate(156.402 65.951)" fill="#f5a623"/><path d="M.062,4.944a6.831,6.831,0,0,0,.16,2.644,7.467,7.467,0,0,0,2.69,3.194,1.887,1.887,0,0,1,.5.52,1.811,1.811,0,0,1,.16.6,34.638,34.638,0,0,1,.3,6.037,1.788,1.788,0,0,1-.5,1.421,1.842,1.842,0,0,1-.993.26L1,19.707a.642.642,0,0,0-.382.115c-.2.168-.1.512.115.657A1.215,1.215,0,0,0,1.5,20.6l5.3-.214c.535,0,1.238-.191,1.268-.764l-2.2-.313a.8.8,0,0,1-.481-.176.848.848,0,0,1-.16-.443,22.236,22.236,0,0,1,.092-6.678,1.139,1.139,0,0,1,.176-.527,1.421,1.421,0,0,1,.4-.329A5.448,5.448,0,0,0,8.085,6.64,14.518,14.518,0,0,0,7.03,1.528,1.994,1.994,0,0,0,5.082,0C4.539,0,3.989.069,3.454.1A13.815,13.815,0,0,0,1.277.1C.016.367.153,3.775.062,4.944Z" transform="translate(165.026 65.951)" fill="#f5a623"/><path d="M.059,4.944A6.831,6.831,0,0,0,.227,7.588a7.4,7.4,0,0,0,2.682,3.194,1.918,1.918,0,0,1,.5.52,1.8,1.8,0,0,1,.153.6,34.638,34.638,0,0,1,.3,6.037,1.788,1.788,0,0,1-.5,1.421,1.857,1.857,0,0,1-.993.26L1,19.707a.68.68,0,0,0-.382.115c-.2.168-.1.512.115.657A1.223,1.223,0,0,0,1.5,20.6l5.3-.214c.535,0,1.238-.191,1.261-.764l-2.2-.313a.764.764,0,0,1-.474-.176.764.764,0,0,1-.168-.443,22.748,22.748,0,0,1,.092-6.678,1.23,1.23,0,0,1,.176-.527,1.528,1.528,0,0,1,.4-.329A5.433,5.433,0,0,0,8.067,6.678a14.518,14.518,0,0,0-1.032-5.15A2,2,0,0,0,5.087,0C4.544,0,3.994.069,3.452.1A13.815,13.815,0,0,0,1.274.1C.013.367.151,3.775.059,4.944Z" transform="translate(156.402 65.951)" fill="url(#g)"/><path d="M.062,4.944a6.831,6.831,0,0,0,.16,2.644,7.467,7.467,0,0,0,2.69,3.194,1.887,1.887,0,0,1,.5.52,1.811,1.811,0,0,1,.16.6,34.638,34.638,0,0,1,.3,6.037,1.788,1.788,0,0,1-.5,1.421,1.842,1.842,0,0,1-.993.26L1,19.707a.642.642,0,0,0-.382.115c-.2.168-.1.512.115.657A1.215,1.215,0,0,0,1.5,20.6l5.3-.214c.535,0,1.238-.191,1.268-.764l-2.2-.313a.8.8,0,0,1-.481-.176.848.848,0,0,1-.16-.443,22.236,22.236,0,0,1,.092-6.678,1.139,1.139,0,0,1,.176-.527,1.421,1.421,0,0,1,.4-.329A5.448,5.448,0,0,0,8.085,6.64,14.518,14.518,0,0,0,7.03,1.528,1.994,1.994,0,0,0,5.082,0C4.539,0,3.989.069,3.454.1A13.815,13.815,0,0,0,1.277.1C.016.367.153,3.775.062,4.944Z" transform="translate(165.026 65.951)" fill="url(#h)"/><path d="M.65,6.986A4.867,4.867,0,0,0,0,9.416a2.6,2.6,0,0,0,4.348,1.719c.245-.229.5-.52.833-.5s.481.275.642.5c1.284,1.849,2.292,4.1,4.317,5.074a9.376,9.376,0,0,0,3.446.665l9.62.611a.688.688,0,0,0,.886-.711c.413-2.9-.413-6.273-2.95-7.748-2.025-1.177-4.585-.856-6.877-.5C11.653,4.861,13.632.131,7.84,0,4.845-.09.65,3.792.65,6.986Z" transform="translate(59.441 225.742)" fill="#3f3d56"/><path d="M.72,13.757l2.972-.6a1.2,1.2,0,0,0,.7-.3,1.742,1.742,0,0,0,.283-.894,2.369,2.369,0,0,1,2.613-1.819c1.154.2,2.025,1.238,3.179,1.414a4.478,4.478,0,0,0,1.918-.283Q18.494,9.417,24.523,7.1A4.139,4.139,0,0,0,22.23,2.585,9.315,9.315,0,0,0,16.882,1.9a9.062,9.062,0,0,0-2.438.52c-.986.4-1.834,1.093-2.82,1.528a2.707,2.707,0,0,1-3-.306C7.6,2.578,7.865.308,6.39.01a2.95,2.95,0,0,0-1.3.183C2.18,1.011,1.072.079.315,3.25S.354,10.609.72,13.757Z" transform="translate(126.972 228.477)" fill="#3f3d56"/><path d="M.049,17.574c.26,6.113,1.261,12.226.993,18.339a13.754,13.754,0,0,0,.115,3.759,3.935,3.935,0,0,0,2.2,2.881,5.593,5.593,0,0,0,2.017.252,64.858,64.858,0,0,0,14.3-1.719,3.316,3.316,0,0,0,1.971-1,3.461,3.461,0,0,0,.474-2.01,346.734,346.734,0,0,1,2.7-35.914,1.857,1.857,0,0,0,0-.764C24.57.634,23.561.634,22.782.7A52.266,52.266,0,0,1,14.1.894C11.809.756,9.173-.153,6.9.022,2.922.328,1,6.9.454,10.04A35.608,35.608,0,0,0,.049,17.574Z" transform="translate(82.4 104.723)" fill="#f5a623"/><path d="M.049,17.574c.26,6.113,1.261,12.226.993,18.339a13.754,13.754,0,0,0,.115,3.759,3.935,3.935,0,0,0,2.2,2.881,5.593,5.593,0,0,0,2.017.252,64.858,64.858,0,0,0,14.3-1.719,3.316,3.316,0,0,0,1.971-1,3.461,3.461,0,0,0,.474-2.01,346.734,346.734,0,0,1,2.7-35.914,1.857,1.857,0,0,0,0-.764C24.57.634,23.561.634,22.782.7A52.266,52.266,0,0,1,14.1.894C11.809.756,9.173-.153,6.9.022,2.922.328,1,6.9.454,10.04A35.608,35.608,0,0,0,.049,17.574Z" transform="translate(82.4 104.723)" fill="url(#i)"/><path d="M17.26,12.816c.458,2.758.871,5.777-.543,8.191-1.528,2.636-5,3.759-7.962,3.056a11.187,11.187,0,0,1-6.877-5.647,15.229,15.229,0,0,1-1.7-9.628A9.934,9.934,0,0,1,3.644,2.317,12.723,12.723,0,0,1,7.9.422a7.381,7.381,0,0,1,3.056-.4C16.733.8,16.565,8.613,17.26,12.816Z" transform="translate(90.014 43.638)" fill="#ffdad2"/><path d="M16.574,7.5a13.754,13.754,0,0,1-4.126,2.292c-1.467.5-3.2.894-3.866,2.292A4.2,4.2,0,0,0,8.26,13.7a13.662,13.662,0,0,0,.351,3.652A4.585,4.585,0,0,0,7.2,16.179a1.574,1.574,0,0,0-1.727.191,1.528,1.528,0,0,0-.4,1.093c0,1.78,1.9,2.927,3.614,3.393l.909,3.011A4.936,4.936,0,0,1,5.7,23.018,11.271,11.271,0,0,1,2.919,20.03,33.621,33.621,0,0,1,.894,16.7,5.838,5.838,0,0,1,0,13.566a2.239,2.239,0,0,1,2.1-2.147,7.58,7.58,0,0,1,2.537-8.55A13.386,13.386,0,0,1,10.545.82C12.379.522,16.092-.708,17.8.568,20.44,2.5,18.5,5.925,16.574,7.5Z" transform="translate(85.237 40.159)" fill="#3f3d56"/><path d="M9.981,7.108c.619,1.467,1.582,2.957,1.253,4.508a3.637,3.637,0,0,1-3.179,2.636,6.61,6.61,0,0,1-4.172-1.139,4.814,4.814,0,0,1-1.528-1.337A5.739,5.739,0,0,1,1.691,10.2,52.892,52.892,0,0,1,.063,3.158a3.148,3.148,0,0,1,0-1.253A2.2,2.2,0,0,1,.965.72,4.73,4.73,0,0,1,5.19.323c1.184.4,3.018,1.253,3.668,2.4S9.4,5.756,9.981,7.108Z" transform="translate(92.999 62.74)" fill="#ffdad2"/><path d="M.883,2.015a.7.7,0,0,0-.565.076.688.688,0,0,0-.183.344c-.52,1.979.55,4.042,1.91,5.578a.481.481,0,0,0,.222.168.436.436,0,0,0,.344-.076A7.813,7.813,0,0,0,5.437,4.911a1.093,1.093,0,0,0,1.047.634.764.764,0,0,0,.65-.932,4.745,4.745,0,0,0,3.179,1.582.619.619,0,0,0,.313,0,.55.55,0,0,0,.275-.39c.39-1.337-.489-2.682-.764-4.05C10,1.075,9.892.227,9.227.021A1.108,1.108,0,0,0,8.111.464,4.86,4.86,0,0,0,7.523,1.58a4.585,4.585,0,0,1-.856,1.314,4.951,4.951,0,0,0-2.4-.29A27.508,27.508,0,0,1,.883,2.015Z" transform="translate(96.42 73.61)"/><path d="M6.969,11.2c0,.443-.053.894-.092,1.345H0V0H6.587C7.435,3.584,7.2,7.473,6.969,11.2Z" transform="translate(147.338 68.924)" fill="url(#j)"/><path d="M39.222,3.645,4.814,3.912,0,.267,43.654,0,39.222,3.645Z" transform="translate(134.882 86.2)" fill="#f5a623"/><path d="M39.222,3.645,4.814,3.912,0,.267,43.654,0,39.222,3.645Z" transform="translate(134.882 86.2)" fill="url(#k)"/></g></svg>