<svg xmlns="http://www.w3.org/2000/svg" viewBox="0 0 1600 1200"><style>.st0{fill:#e8e8e8}.st1{fill:#fff}.st2{fill:#161616}.st3{fill:#fff;stroke:#161616;stroke-width:2;stroke-miterlimit:10}.st4{opacity:.11;fill:#6d6c6c}.st6{fill:#ec615b}.st9{opacity:.13;fill:#6d6c6c}</style><g id="background"><path class="st0" d="M335.2 796.5c4.8 28.9 10.6 57.5 17.5 86 .5 1.9 3.3 1.1 2.9-.8-6.9-28.4-12.8-57.1-17.5-86-.4-1.9-3.3-1.1-2.9.8zM432.1 800.5c-5.4 25.6-10 51.5-13.7 77.4-.3 1.9 2.6 2.7 2.9.8 3.7-26 8.3-51.8 13.7-77.4.4-1.9-2.5-2.7-2.9-.8z"/><path class="st0" d="M353.3 883.5c21.8 9.8 47.5 10.7 67.4-4.1 1.5-1.1 0-3.7-1.5-2.6-18.9 14.1-43.5 13.5-64.3 4.1-1.8-.8-3.4 1.8-1.6 2.6zM336.1 796.2c7.4 3.4 15.1 4.1 23.1 4.6 9 .5 18 .8 27 .9 16.6.3 33.8 1.1 49.5-5.4 1.8-.7 1-3.6-.8-2.9-14.8 6.2-31 5.6-46.7 5.4-8.4-.1-16.7-.4-25.1-.8-8.7-.4-17.5-.6-25.5-4.3-1.8-.9-3.3 1.7-1.5 2.5z"/><path class="st0" d="M432.8 795.3c-5.9 27.6-11.1 55.4-15.4 83.3-.3 1.9 2.6 2.7 2.9.8 4.3-27.9 9.4-55.7 15.4-83.3.4-1.9-2.5-2.7-2.9-.8zM344.5 843.1c6.6 15.6 15 30.4 25.1 44 1.1 1.5 3.7 0 2.6-1.5-10.1-13.7-18.5-28.4-25.1-44-.8-1.8-3.3-.2-2.6 1.5zM337.2 798.7c13.5 31.9 30.8 62 51.6 89.7 1.1 1.5 3.8 0 2.6-1.5-20.8-27.7-38.1-57.8-51.6-89.7-.7-1.8-3.3-.3-2.6 1.5zM360.3 800c11.9 29.7 27.1 57.8 45.5 83.9 1.1 1.6 3.7.1 2.6-1.5-18.3-25.9-33.5-53.8-45.2-83.2-.7-1.7-3.6-1-2.9.8z"/><path class="st0" d="M379.8 800.6c10.5 25 23.3 49 38.2 71.7 1.1 1.6 3.7.1 2.6-1.5-14.8-22.5-27.5-46.2-37.9-71-.7-1.7-3.6-.9-2.9.8zM398.2 802.8c6.4 15.9 14.2 31.1 23.4 45.6 1 1.6 3.6.1 2.6-1.5-9.1-14.2-16.8-29.2-23.1-44.8-.7-1.9-3.6-1.1-2.9.7zM413.6 801.4c3.7 8.7 7.9 17.1 12.7 25.2 1 1.7 3.6.2 2.6-1.5-4.8-8.1-9-16.5-12.7-25.2-.7-1.8-3.3-.3-2.6 1.5zM425.8 799c1.4 3.3 3 6.5 5 9.5 1.1 1.6 3.7.1 2.6-1.5-1.8-2.8-3.4-5.7-4.7-8.8-.8-1.8-3.7-1-2.9.8z"/><path class="st0" d="M376.8 798.1c-1.5-9.9-1.9-19.9-1.4-30-.6.5-1.3 1-1.9 1.4 2.1.8 6 3.2 8.3 2.1 2-1 1.6-4 1.7-5.9.4-5.5 1-10.4 3.9-15.2 2.5-4.1 5.8-7.7 8.8-11.5 12-15 23-30.8 33.1-47.2h-2.6c5 8.7 6.7 20.3 7.8 30.2 1.1 9.8.7 19.7-2 29.2-2.5 8.8-6.6 17-11.5 24.7-4.9 7.5-10.7 15.9-17.8 21.5-1.5 1.2.6 3.3 2.1 2.1 7.5-5.9 13.7-14.8 18.8-22.8 5.2-8.1 9.4-16.9 11.8-26.2 2.6-9.9 2.8-20.2 1.5-30.3-1.3-9.9-3-21.1-8-29.8-.6-1-2-.9-2.6 0-9.6 15.6-20 30.7-31.4 45.1-4.5 5.7-10.2 11.3-12.8 18.2-1.2 3.1-1.6 6.3-1.8 9.6-.1.9.3 5-.5 5.5-.6.4-5.1-1.8-5.9-2.1-1-.3-1.8.5-1.9 1.4-.6 10.3 0 20.5 1.5 30.7.2 2 3.1 1.2 2.8-.7zM315.5 700.8c2.9 18.2 7.4 36.2 13.5 53.6 5.5 15.6 11.9 30.3 23 42.7 1.3 1.4 3.4-.7 2.1-2.1-11.6-12.9-18-28.7-23.5-45s-9.6-33.1-12.3-50.1c-.2-1.8-3.1-1-2.8.9z"/><path class="st0" d="M315.8 698.9c5.9 5.5 13.2 8.5 21.1 9.6 2.9.4 11.8-.6 13 2.4.6 1.5-.6 5.6-.8 7.3-.3 3-.6 6.1-1 9.1-.1 1.1 1 1.6 1.9 1.4l10.5-1.5c4.6-.6 6.7 2.6 9.9 5.5 5.5 5.1 10.9 10.3 16.4 15.4 1.4 1.3 3.5-.8 2.1-2.1-7-6.6-13.8-14.1-21.4-20.1-4.9-3.9-12.5-.9-18.3-.1.6.5 1.3 1 1.9 1.4.6-5.4 2.4-12 1.8-17.4-.3-2.6-2.1-3.4-4.5-3.6-11.3-.9-21.7-1.1-30.6-9.4-1.3-1.4-3.5.7-2 2.1z"/><path class="st0" d="M316 697.3c1.7 37 18.6 70.5 37.3 101.7 1 1.7 3.6.1 2.6-1.5-18.4-30.8-35.2-63.7-36.9-100.2-.1-2-3.1-2-3 0z"/><path class="st0" d="M337.4 795.4c4.7.2 9.3.1 14-.4 1.9-.2 1.9-3.2 0-3-4.7.5-9.3.6-14 .4-2-.1-2 2.9 0 3z"/><path class="st0" d="M341 796.7c4-.1 7.9.6 11.6 2.1 1.8.7 3.3-1.8 1.5-2.6-4.2-1.8-8.5-2.7-13.1-2.6-1.9.2-1.9 3.2 0 3.1zM403.4 800.8c9.9-4.1 20.2-5.7 30.9-4.6 1.9.2 1.9-2.8 0-3-10.9-1-21.6.5-31.7 4.8-1.7.6-1 3.5.8 2.8z"/><path class="st0" d="M410 799.6c6.2-2.5 13-1.3 19.4-2.4 1.9-.3 1.1-3.2-.8-2.9-6.5 1.1-13.2-.2-19.4 2.4-1.7.8-.9 3.7.8 2.9z"/><path class="st0" d="M410.8 795.4c7.6.8 15.2.9 22.9.3 1.9-.1 1.9-3.1 0-3-7.7.5-15.3.4-22.9-.3-1.9-.2-1.9 2.8 0 3zM427.8 699.2c-7.3 36.1-35.7 63.5-43.4 99.5-.3 1.4 1.9 2 2.2.6 7.7-36 36.1-63.4 43.4-99.5.3-1.4-1.9-2-2.2-.6zM315.3 696.8c2.5 24.4 9.4 47.9 20.6 69.7.7 1.3 2.6.2 1.9-1.1-10.9-21.4-17.8-44.6-20.2-68.6-.2-1.4-2.5-1.5-2.3 0z"/><path class="st0" d="M317.2 697.5c7.9 6.2 16.9 10.2 26.9 11.7 1.4.2 2-2 .6-2.2-9.5-1.4-18.3-5.1-25.9-11.1-1.2-.9-2.8.7-1.6 1.6zM393.1 740.9c2.7 8.8 3.9 17.7 3.5 26.8-.1 1.4 2.2 1.4 2.3 0 .3-9.4-.9-18.5-3.6-27.4-.4-1.4-2.6-.8-2.2.6zM426.9 694.1c1.2 4 .9 8.1-1 11.9-.7 1.3 1.3 2.4 1.9 1.1 2.2-4.3 2.6-9 1.2-13.6-.3-1.4-2.5-.8-2.1.6zM408.6 748.4c10.1-7.7 20.2-15.4 28.2-25.5.9-1.1-.7-2.7-1.6-1.6-7.8 9.9-17.7 17.6-27.7 25.1-1.1.9 0 2.9 1.1 2zM317.8 701.4c8.4 15.1 17.6 29.6 27.7 43.6 9.5 13.2 21.6 25.5 26.8 41.1.5 1.4 2.6.8 2.2-.6-5.2-15.3-16.6-27.3-26-40.2-10.5-14.4-20.1-29.5-28.8-45.1-.6-1.2-2.6 0-1.9 1.2z"/><path class="st0" d="M339.1 707.7c-.6 10.2.3 20.3 2.6 30.2.3 1.4 2.5.8 2.2-.6-2.3-9.8-3.1-19.6-2.5-29.6.1-1.5-2.2-1.5-2.3 0zM369.4 733c-3 11.5-4.8 23.1-5.5 34.9-.1 1.4 2.2 1.4 2.3 0 .7-11.6 2.5-23.1 5.4-34.3.4-1.4-1.8-2-2.2-.6zM339.8 774.6c3.9 2.7 10.2 3.3 14.8 3.9 4.9.7 9.6.6 14.3-.5 1.4-.3.8-2.5-.6-2.2-5.1 1.1-9.9 1-15 .2-3.8-.6-9.3-1.2-12.4-3.4-1.2-.7-2.3 1.2-1.1 2zM1247.9 878.2h164.3c1.4 0 1.5-2.3 0-2.3h-164.3c-1.5 0-1.5 2.3 0 2.3z"/><path class="st0" d="M1292.3 875c-2.9.9-8.9-29.5-9.2-32.3-1.3-11-1-22.2.8-33.2h-2.2c2 5.6 5.3 9.9 10.1 13.4 1.2.8 2.3-1.1 1.1-1.9-4.3-3.1-7.3-7.1-9.1-12-.3-.9-2-1.2-2.2 0-2.2 13.3-2.2 26.9.1 40.2 1.2 7 3 13.8 5.5 20.5.8 2.2 2.1 8.8 5.7 7.6 1.4-.6.8-2.8-.6-2.3z"/><path class="st0" d="M1293.5 820.6c-2.3-11.5 1.5-22.6 6.3-33 4.3-9.3 9.2-18.2 14.2-27.1 9.7-17.3 19.7-34.6 26.8-53.2h-2.2c5.8 17.3 9.6 35.1 11.1 53.3.7 8.9.8 17.9.6 26.8-.1 4.4.3 9.3-.6 13.6-1 5.1-4.9 7.8-9 10.4-.8.5-.7 1.4 0 1.9 1.3 1 2.4 1.2 4.1 1.3.9 0 2.1-.3 3-.1 4.5 1.1 3.8 4.6 3.5 7.4-.7 6.7-2 13.4-3.8 19.9-3.6 12.6-9.2 24.5-16.6 35.3-.8 1.2 1.1 2.3 1.9 1.1 8.8-12.9 15.1-27.3 18.5-42.5.8-3.4 1.4-6.9 1.8-10.4.4-2.9 1.3-6.5.3-9.4-2.1-5.9-7.8-1.6-11.6-4.5v1.9c5.7-3.7 9.9-7.4 10.3-14.5.6-10.9.7-21.9.1-32.7-1.1-20.3-5-40.3-11.5-59.5-.4-1.1-1.8-1-2.2 0-7.8 20.7-19.4 39.7-30.1 59-9.1 16.5-21.1 35.8-17.2 55.5.4 1.5 2.6.9 2.3-.5z"/><path class="st0" d="M1353.1 770c2.7-5.3 5.4-10.6 8.1-16 1.3-2.5 2.6-5 3.8-7.6.6-1.1 1.1-2.2 1.7-3.4.4-.8.8-1.6 1.2-2.3.8-1.9 2.5-2.4 5.2-1.6 0 .9 1.3 1.6 1.9.8 13.4-15.7 24.9-32.8 34.5-51.1l-2.1-.6c-.3 14.2-.5 28.5.2 42.7.3 6.5.9 13.1 1.8 19.6.4 3 1.6 6.5 1.5 9.6.8 1.9.3 3.5-1.6 4.7-.6 2-1.9 3.2-3.8 3.5-1.7.8-3.8 1.2-5.6 1.6-1.1.3-1.1 1.9 0 2.2 9 2.3 5.9 13.7 4.6 20.1-.7 3.5-.9 7.4-5.4 7.7-1.8.1-2.9-.5-4.7 0-.8.2-1 1-.7 1.7.8 1.9 2.1 1.9 3.4 3.2 3.3 3.2.9 10 0 13.7-1.6 6.9-3.7 13.6-6.3 20.2-5.2 13.4-12.3 25.8-21 37.2-.9 1.2 1.1 2.3 1.9 1.1 9.5-12.5 17.1-26.2 22.4-41 2.7-7.4 4.8-15.1 6.3-22.8.4-2.2 1.6-5.6.6-7.8-1.1-2.5-4.4-2.6-5.5-5.1-.2.6-.4 1.1-.7 1.7 3-.8 6.9 1.8 9.4-.9 2.6-2.7 2.5-9.4 3.2-12.9 1.3-7 1.3-16.2-7.1-18.3v2.2c4.3-1.2 12.8-2.1 13.3-7.8.2-2.8-.9-5.9-1.4-8.6-.8-5-1.4-10-1.9-15.1-1.5-17.4-1.2-34.9-.9-52.4 0-1.1-1.6-1.6-2.1-.6-9.4 18.1-20.9 35.1-34.1 50.6.6.3 1.3.5 1.9.8-.2-6.1-6.9-3.7-9.1-.2-5.9 9.3-10.2 20.1-15.2 29.9-.3 1.4 1.6 2.6 2.3 1.3z"/><path class="st0" d="M1406 692.4c-10.3 64.4-41.5 122.6-61.6 184.2-.4 1.4 1.7 2 2.2.6 20-61.5 51.3-119.7 61.6-184.2.2-1.4-1.9-2-2.2-.6z"/><path class="st0" d="M1362.1 747c.9 21.6 3.1 43.1 6.3 64.5.2 1.4 2.4.8 2.2-.6-3.2-21.2-5.3-42.5-6.2-63.9-.1-1.5-2.4-1.5-2.3 0zM1385.6 774.3c7.1-11.2 17.1-20 25.4-30.2.9-1.1-.7-2.7-1.6-1.6-8.4 10.4-18.5 19.3-25.7 30.7-.9 1.2 1.1 2.3 1.9 1.1zM1337.8 711.1c-.7 56.5-30.5 108.8-26.7 165.7.1 1.4 2.3 1.4 2.3 0-3.8-56.9 26-109.2 26.7-165.7 0-1.5-2.3-1.5-2.3 0z"/><path class="st0" d="M1299.5 783.5c3.1 16.9 7.9 33.4 14.3 49.3.5 1.3 2.7.7 2.2-.6-6.4-15.9-11.2-32.4-14.3-49.3-.3-1.5-2.4-.9-2.2.6zM1323.9 796.5c9.9-11.3 21.4-23.3 27.6-37.1.6-1.3-1.3-2.5-1.9-1.1-6.2 13.6-17.5 25.5-27.3 36.6-.9 1.1.7 2.7 1.6 1.6zM1324 738.5c1.5 9 3.6 17.9 6 26.7.4 1.4 2.6.8 2.2-.6-2.5-8.8-4.5-17.7-6-26.7-.3-1.4-2.4-.8-2.2.6zM1350.1 866.5c8.8-5.6 17.8-11 26.4-17 6.9-4.8 14.6-10 18.9-17.3.7-1.3-1.2-2.4-1.9-1.1-4.6 7.9-13.6 13.5-21 18.5-7.7 5.2-15.6 10-23.4 15-1.4.7-.2 2.7 1 1.9zM309.2 883.2h52.5c1.4 0 1.5-2.3 0-2.3h-52.5c-1.5.1-1.5 2.3 0 2.3zM417.9 884h40.7c1.4 0 1.5-2.3 0-2.3h-40.7c-1.4 0-1.4 2.3 0 2.3zM829.5 223.8v270.6c0 1.4 2.3 1.5 2.3 0V283.5v-59.7c-.1-1.4-2.3-1.4-2.3 0z"/><path class="st0" d="M830.8 224.9H1116c1.4 0 1.5-2.3 0-2.3H830.8c-1.4.1-1.4 2.3 0 2.3zM831.5 497.2h281.1c1.4 0 1.5-2.3 0-2.3H831.5c-1.4.1-1.4 2.3 0 2.3z"/><path class="st0" d="M1114.9 224.5V494c0 1.4 2.3 1.5 2.3 0V284.4v-59.9c0-1.4-2.3-1.5-2.3 0z"/><path class="st0" d="M1112.1 497.2c1.7.1 3.5-.6 4.6-1.9.9-1.1-.6-2.7-1.6-1.6-.8.9-1.8 1.3-3 1.2-1.4 0-1.4 2.2 0 2.3zM830.4 380.5h283c1.4 0 1.5-2.3 0-2.3h-283c-1.4.1-1.4 2.3 0 2.3zM845.2 351.4h247.1c1.4 0 1.5-2.3 0-2.3H845.2c-1.5.1-1.5 2.3 0 2.3zM844.6 319.1h239.7c1.4 0 1.5-2.3 0-2.3H844.6c-1.4 0-1.4 2.3 0 2.3zM859.5 283.5H1070c1.4 0 1.5-2.3 0-2.3H859.5c-1.5.1-1.5 2.3 0 2.3zM881.2 244.8h193c1.4 0 1.5-2.3 0-2.3h-193c-1.4.1-1.4 2.3 0 2.3z"/><path class="st0" d="M836.1 380.5V486c0 1.4 2.3 1.5 2.3 0V380.5c-.1-1.4-2.3-1.4-2.3 0z"/><path class="st0" d="M837.2 488.3h269.4c1.4 0 1.5-2.3 0-2.3H837.2c-1.4 0-1.4 2.3 0 2.3z"/><path class="st0" d="M1107.1 382.6V486c0 1.4 2.3 1.5 2.3 0V382.6c-.1-1.4-2.3-1.4-2.3 0zM838.5 447.3c-.4-7 6.2-11.4 12.5-7.8.5.3 1.2.1 1.5-.4 1.7-3 1.5-5.8 1.9-9.1.4-2.9 1.4-5.6 4.7-6 1.6-.2 3.2.6 4.8.3 2.3-.5 3.2-1.9 4.3-3.9 2-3.9 3.2-7.4 6.8-10.2 8.9-7.2 18.9.2 22.1 9.4 3 8.8.8 18.8.7 27.9 0 .8.7 1.2 1.4 1.1 14.2-2.9 21.7 15.8 9.3 23.5-.8.5-.7 1.8.3 2.1 5.1 1.6 11.9 6.1 7.9 12.4-.8 1.2 1.2 2.4 1.9 1.1 4.8-7.5-2.6-13.6-9.2-15.7l.3 2.1c6.2-3.9 9.4-11.7 6.6-18.7-2.8-7-10.6-10.4-17.7-8.9.5.4.9.7 1.4 1.1.1-10.3 2.8-21.7-2-31.4-3.2-6.6-9.9-12.3-17.7-10.9-3.5.6-6.6 2.7-9 5.3-3 3.2-4.7 11.1-9.2 11.7-3.6.5-5.9-1.1-8.3 2.5-2.7 4-1 9.2-3.3 13.4.5-.1 1-.3 1.5-.4-7.6-4.3-16.4.9-15.9 9.8.2 1.2 2.5 1.2 2.4-.3zM963.4 379.5v107.1c0 1.4 2.3 1.5 2.3 0V379.5c-.1-1.5-2.3-1.5-2.3 0zM970.3 380v106.6c0 1.4 2.3 1.5 2.3 0V380c-.1-1.4-2.3-1.5-2.3 0z"/><path class="st0" d="M1038.4 486.1c-2.1-1.7-4.5-3.7-5.2-6.5-1.3-5.5 2.5-6.2 5.6-8.2 1.8-1.2 3.6-2.6 4-4.8.5-2.5-1.2-4.4-2.3-6.5-2.6-5.3-3.3-12.4 1.7-16.7 4.5-3.9 15 .6 17.5-6.3.7-2.1-.2-3.6-1-5.4-2.2-5.2-3.8-10.3-3.3-16 .3-4.1.9-5.9 5.6-6.5 2-.3 1.5.5 3.2-.7.5-.4.8-1.1 1.2-1.5 2.6-2.6 3.7-5.2 7.9-5.3 11.1-.2 11 14.7 11.5 22.2.3 3.8.7 13.5 6.2 13.9 2.3.2 2.8-1.6 3.8-3.2 3-4.5 6.4-7.3 12.1-6.9 1.4.1 1.4-2.1 0-2.3-4.9-.4-9.8 1.6-12.7 5.7.1-.1-1.2 2.3-1.3 2.3-1.2.4-4.3-1.7-4.8-2.5-1.1-1.9-.9-5-1.1-7.1-.2-3.3-.2-6.7-.7-10-.8-5.1-3.1-10.7-7.9-13.2-4.2-2.2-9.5-1.3-12.8 2.1-.8.9-1.3 2.4-2.2 3.1-1.4 1-3.7.3-5.3.8-1.9.6-3 1.8-3.9 3.6-2.6 5.4-1.4 13 .6 18.4.4 1.2 1.6 2.9 1.8 4.2l-.6 2.7c.3 2.8-1 3.9-4 3.5-.8.1-1.6 0-2.3 0-2.9 0-5.5.2-8 1.9-4.4 3-6.2 8.5-5.5 13.6.5 3.7 2.5 6 3.6 9.4 1.8 5.4-4.7 6.1-7.5 9.3-4.5 5.1 0 11.3 4.2 14.8 1.4.6 3-1 1.9-1.9zM432.5 373.8v-10.1c0-1.4-2.3-1.5-2.3 0v10.1c0 1.5 2.3 1.5 2.3 0z"/><path class="st0" d="M431.3 363.8h158.1c1.4 0 1.5-2.3 0-2.3H431.3c-1.4 0-1.4 2.3 0 2.3zM434.7 375.5h154.8c1.4 0 1.5-2.3 0-2.3H434.7c-1.5 0-1.5 2.3 0 2.3z"/><path class="st0" d="M589.4 363.2v10.6c0 1.4 2.3 1.5 2.3 0v-10.6c0-1.5-2.3-1.5-2.3 0zM443.2 362.3V242c0-1.4-2.3-1.5-2.3 0v120.3c0 1.5 2.3 1.5 2.3 0z"/><path class="st0" d="M442.9 243.2h23.9c1.4 0 1.5-2.3 0-2.3h-23.9c-1.4 0-1.4 2.3 0 2.3z"/><path class="st0" d="M464.8 243.7v118.2c0 1.4 2.3 1.5 2.3 0V243.7c0-1.4-2.3-1.4-2.3 0z"/><path class="st0" d="M466.4 265.4h26.8c1.4 0 1.5-2.3 0-2.3h-26.8c-1.5 0-1.5 2.3 0 2.3z"/><path class="st0" d="M491.2 264.7v95.1c0 1.4 2.3 1.5 2.3 0v-95.1c0-1.5-2.3-1.5-2.3 0zM449.6 256.2c.5 3.4.6 6.8.2 10.2-.2 1.4 2.1 1.4 2.3 0 .4-3.6.3-7.2-.3-10.8-.2-1.4-2.4-.8-2.2.6zM454.3 255.8c.7 3.5.9 7 .9 10.6 0 1.4 2.2 1.4 2.3 0 .1-3.8-.3-7.5-1-11.2-.3-1.4-2.4-.8-2.2.6zM473.2 282.3c4.1.6 8.3 1.2 12.5 1.5 1.4.1 1.4-2.1 0-2.3-4-.3-7.9-.8-11.9-1.4-1.4-.2-2.1 1.9-.6 2.2zM477.3 289.3c2.8-.2 5.6-.4 8.4-.5 1.4-.1 1.4-2.3 0-2.3-2.8.2-5.6.4-8.4.5-1.5.2-1.5 2.4 0 2.3zM502.3 360.7v-16.8c0-1.4-2.3-1.5-2.3 0v16.8c0 1.4 2.3 1.4 2.3 0z"/><path class="st0" d="M502.4 345.4h75c1.4 0 1.5-2.3 0-2.3h-75c-1.4.1-1.4 2.3 0 2.3z"/><path class="st0" d="M576.3 345.1v17.2c0 1.4 2.3 1.5 2.3 0v-17.2c-.1-1.4-2.3-1.4-2.3 0zM517.4 343.1v-11.3c0-1.4-2.3-1.5-2.3 0v11.3c0 1.4 2.3 1.4 2.3 0z"/><path class="st0" d="M516.2 331.6h64.9c1.4 0 1.5-2.3 0-2.3h-64.9c-1.4.1-1.4 2.3 0 2.3z"/><path class="st0" d="M580.5 330.5v14.7c0 1.4 2.3 1.5 2.3 0v-14.7c-.1-1.5-2.3-1.5-2.3 0z"/><path class="st0" d="M578.6 346.4c.9-.3 1.8-.5 2.7-.3 1.4.3 2-1.9.6-2.2-1.3-.3-2.7-.2-3.9.3-.6.2-1 .8-.8 1.4.2.5.8 1 1.4.8zM530.7 331.6c1.3 4 1.7 8.2 1.1 12.4-.2 1.4 2 2 2.2.6.7-4.6.3-9.1-1.1-13.6-.5-1.4-2.6-.8-2.2.6zM542.2 333.3c1.4 0 1.5-2.3 0-2.3-1.4 0-1.4 2.3 0 2.3z"/><path class="st0" d="M542.9 331.1l-.1-.1v1.6l.2-.2c-.5.1-.9.1-1.4.2-.3-.4-.3-.2 0 .6.1.5.2.9.2 1.4.1 1 .1 2 .1 3-.1 2.1-.5 4-1.2 6-.5 1.4 1.7 2 2.2.6 1-2.7 1.4-5.5 1.3-8.3-.1-1.6 0-4.3-1.5-5.3-.4-.2-1.1-.2-1.4.2l-.2.2c-.4.5-.5 1.1 0 1.6l.1.1c1.2 1 2.8-.6 1.7-1.6zM466.9 299.5c8 1.8 16 2.1 24.2.9 1.4-.2.8-2.4-.6-2.2-7.7 1.1-15.4.8-23-.9-1.5-.3-2.1 1.9-.6 2.2zM428.8 203.6h178.6c1.4 0 1.5-2.3 0-2.3H428.8c-1.4 0-1.4 2.3 0 2.3z"/><path class="st0" d="M429.9 201.9v-7c0-1.4-2.3-1.5-2.3 0v7c.1 1.5 2.3 1.5 2.3 0z"/><path class="st0" d="M428.3 195.5h178.6c1.4 0 1.5-2.3 0-2.3H428.3c-1.5.1-1.5 2.3 0 2.3z"/><path class="st0" d="M606.2 194.9c.2 2.1.4 4.3.7 6.4.1 1.4 2.4 1.4 2.3 0-.2-2.1-.4-4.3-.7-6.4-.2-1.4-2.4-1.4-2.3 0zM443.2 192.7v-56c0-1.4-2.3-1.5-2.3 0v56c0 1.4 2.3 1.4 2.3 0z"/><path class="st0" d="M442 137.3h12.7c1.4 0 1.5-2.3 0-2.3H442c-1.4.1-1.4 2.3 0 2.3z"/><path class="st0" d="M453.4 137.3v55.3c0 1.4 2.3 1.5 2.3 0v-55.3c-.1-1.5-2.3-1.5-2.3 0zM463.2 192.3V95.2c0-1.4-2.3-1.5-2.3 0v97.1c0 1.4 2.3 1.4 2.3 0z"/><path class="st0" d="M462.4 94.7h23.3c1.4 0 1.5-2.3 0-2.3h-23.3c-1.5.1-1.5 2.3 0 2.3z"/><path class="st0" d="M484.8 93.9v98.4c0 1.4 2.3 1.5 2.3 0V93.9c0-1.4-2.3-1.4-2.3 0z"/><path class="st0" d="M461.8 112.4c7.8 4.4 16.2 2.5 24.2-.4 1.4-.5.8-2.7-.6-2.2-7.4 2.6-15.2 4.7-22.5.6-1.3-.7-2.4 1.3-1.1 2zM463.4 130c2.9 1.8 6.2 1.6 9.5 1.5 4.3 0 8.5-.4 12.7-1.4 1.4-.4.8-2.5-.6-2.2-3.5.9-7 1.2-10.5 1.3-3.2.1-7.2.6-10-1.2-1.2-.7-2.3 1.2-1.1 2zM499.6 192.9V186c0-1.4-2.3-1.5-2.3 0v6.9c.1 1.4 2.3 1.5 2.3 0z"/><path class="st0" d="M499.1 186.8h70.7c1.4 0 1.5-2.3 0-2.3h-70.7c-1.4 0-1.4 2.3 0 2.3z"/><path class="st0" d="M569.3 186v8.2c0 1.4 2.3 1.5 2.3 0V186c0-1.5-2.3-1.5-2.3 0zM510.9 178.1c.2 2.4.4 4.8.7 7.2.1 1.4 2.4 1.4 2.3 0-.2-2.4-.4-4.8-.7-7.2-.2-1.4-2.5-1.4-2.3 0z"/><path class="st0" d="M512 178.6h59.1c1.4 0 1.5-2.3 0-2.3H512c-1.4.1-1.4 2.3 0 2.3z"/><path class="st0" d="M569.3 179.1v5.7c0 1.4 2.3 1.5 2.3 0v-5.7c0-1.5-2.3-1.5-2.3 0zM538.3 176.6v-10.7c0-1.4-2.3-1.5-2.3 0v10.7c0 1.4 2.3 1.4 2.3 0z"/><path class="st0" d="M537.2 166.4h23.6c1.4 0 1.5-2.3 0-2.3h-23.6c-1.5 0-1.5 2.3 0 2.3z"/><path class="st0" d="M559.6 165.9v11.3c0 1.4 2.3 1.5 2.3 0v-11.3c0-1.5-2.3-1.5-2.3 0zM542.3 163.3c-5.7-5.7-5.9-16.9-5.9-24.4-.6.3-1.3.5-1.9.8 6.7 7.2 11 15.8 12.6 25.5.2 1.4 2.4.8 2.2-.6-1.7-10.1-6.2-19-13.2-26.5-.7-.7-1.9-.2-1.9.8-.1 8.2.4 19.8 6.6 26 .9 1 2.5-.5 1.5-1.6z"/><path class="st0" d="M548.3 160.2c2-9.7 9.3-17 12.3-26.3-.7-.2-1.4-.4-2.2-.6-.9 4.3.2 8.8-.2 13.2-.6 6.2-2.4 12.2-5.2 17.8-.7 1.3 1.3 2.4 1.9 1.1 2.4-4.8 4.2-9.8 5.1-15.1.9-5.4-.5-11.2.6-16.4.3-1.4-1.7-2-2.2-.6-3 9.3-10.2 16.6-12.3 26.3-.3 1.4 1.9 2 2.2.6zM674.7 470.2h92.8c1.4 0 1.5-2.3 0-2.3h-92.8c-1.4.1-1.4 2.3 0 2.3z"/><path class="st0" d="M720.8 470.2v26.4c0 1.4 2.3 1.5 2.3 0v-26.4c0-1.4-2.3-1.4-2.3 0z"/><path class="st0" d="M709 498.3h69.7c1.4 0 1.5-2.3 0-2.3H709c-1.4.1-1.4 2.3 0 2.3z"/><path class="st0" d="M755.1 498.9v24.7c0 1.4 2.3 1.5 2.3 0v-24.7c0-1.4-2.3-1.5-2.3 0zM966.3 795.2h94c1.4 0 1.5-2.3 0-2.3h-94c-1.5 0-1.5 2.3 0 2.3z"/><path class="st0" d="M1017.1 793.2v-29.7c0-1.4-2.3-1.5-2.3 0v29.7c.1 1.5 2.3 1.5 2.3 0z"/><path class="st0" d="M994.3 763.6h80.1c1.4 0 1.5-2.3 0-2.3h-80.1c-1.5 0-1.5 2.3 0 2.3z"/><path class="st0" d="M1064.3 762.5V736c0-1.4-2.3-1.5-2.3 0v26.5c.1 1.4 2.3 1.4 2.3 0zM1178.3 429.8v61.6c0 1.4 2.3 1.5 2.3 0v-61.6c0-1.4-2.3-1.4-2.3 0z"/><path class="st0" d="M1181.3 430h99.2c1.4 0 1.5-2.3 0-2.3h-99.2c-1.5 0-1.5 2.3 0 2.3z"/><path class="st0" d="M1278.5 429.2v58.9c0 1.4 2.3 1.5 2.3 0v-58.9c0-1.4-2.3-1.4-2.3 0zM1180.5 492.8h100.4c1.4 0 1.5-2.3 0-2.3h-100.4c-1.5.1-1.5 2.3 0 2.3z"/><path class="st0" d="M1278.9 488.2c-.5 1.4-.5 2.8-.3 4.3.1.6.8.9 1.4.8.6-.2.9-.8.8-1.4-.2-1 0-2.1.3-3.1.4-1.4-1.7-2-2.2-.6zM1183 433.2v52.4c0 1.4 2.3 1.5 2.3 0v-52.4c-.1-1.4-2.3-1.4-2.3 0z"/><path class="st0" d="M1184.1 488.4h90.3c1.4 0 1.5-2.3 0-2.3h-90.3c-1.5.1-1.5 2.3 0 2.3z"/><path class="st0" d="M1276.4 486.9v-51.6c0-1.4-2.3-1.5-2.3 0v51.6c0 1.4 2.3 1.4 2.3 0z"/><path class="st0" d="M1184.5 434.8h90.3c1.4 0 1.5-2.3 0-2.3h-90.3c-1.4 0-1.5 2.3 0 2.3zM1184.8 465.3c11.9-2.8 24.6 1.2 36.3 3.5 11.9 2.3 23.7 4.6 35.6 6.9 1.4.3 2-1.9.6-2.2-13.2-2.6-26.3-5.1-39.5-7.7-11-2.2-22.5-5.3-33.7-2.7-1.3.4-.7 2.6.7 2.2z"/><path class="st0" d="M1228.1 469.9c2.4 1.4 5 .6 7.6.1 4.3-.8 8.5-2 12.7-3.3 9.1-2.7 18.2-5.7 27.7-6.5 1.4-.1 1.4-2.4 0-2.3-7.7.6-15.1 2.6-22.4 4.8-3.9 1.2-7.8 2.4-11.8 3.5-3.2.9-9.7 3.5-12.7 1.7-1.2-.7-2.3 1.3-1.1 2zM1233.5 452.9c-5-3.6 3.7-10.5 7.1-5.2 1.5 2.4.1 5-2.4 5.9-2.2.7-4.6-.1-6.5-1.2-1.3-.7-2.4 1.2-1.1 1.9 3.4 1.9 7.8 2.8 11-.1 2.8-2.5 2.5-6.9-.4-9.2-6.5-5.2-16 4.7-8.8 9.8 1.1.8 2.2-1.1 1.1-1.9zM820 996.3h246.5c1.4 0 1.5-2.3 0-2.3H820c-1.4.1-1.4 2.3 0 2.3zM955.1 1017.8h195.1c1.4 0 1.5-2.3 0-2.3H955.1c-1.5 0-1.5 2.3 0 2.3zM952.9 972.7h179c1.4 0 1.5-2.3 0-2.3h-179c-1.4.1-1.4 2.3 0 2.3z"/><path class="st0" d="M1018.8 973.2c-4.1 7.5-8.6 14.6-13.7 21.5-.9 1.2 1.1 2.3 1.9 1.1 5-6.9 9.6-14 13.7-21.5.7-1.2-1.2-2.3-1.9-1.1zM1064.6 998c-1.6 5.9-3.6 11.6-6.2 17.2-.6 1.3 1.3 2.4 1.9 1.1 2.7-5.7 4.8-11.6 6.4-17.7.5-1.4-1.7-2-2.1-.6zM256.3 938.8h88.9c1.9 0 1.9-3 0-3h-88.9c-1.9 0-1.9 3 0 3zM294.1 966.8h152.3c1.9 0 1.9-3 0-3H294.1c-1.9 0-1.9 3 0 3z"/><path class="st0" d="M343.8 937.9c-7.9 8.2-15.8 16.3-23.6 24.5-1.3 1.4.8 3.5 2.1 2.1 7.9-8.2 15.8-16.3 23.6-24.5 1.4-1.4-.7-3.5-2.1-2.1zM416.3 1015h231.2c1.9 0 1.9-3 0-3H416.3c-1.9 0-1.9 3 0 3zM530.4 990.9h166.3c1.9 0 1.9-3 0-3H530.4c-2 0-2 3 0 3z"/><path class="st0" d="M611.2 988.6c-8.1 8-16.1 16-24.2 24-1.4 1.4.7 3.5 2.1 2.1 8.1-8 16.1-16 24.2-24 1.4-1.3-.8-3.4-2.1-2.1zM401.7 1042.2h108.8c1.9 0 1.9-3 0-3H401.7c-1.9 0-1.9 3 0 3z"/><path class="st0" d="M520.8 1013.1c-4 9.1-8.1 18.2-12.1 27.2-.8 1.7 1.8 3.3 2.6 1.5 4-9.1 8.1-18.2 12.1-27.2.8-1.8-1.8-3.3-2.6-1.5z"/></g><g id="carpet"><path class="st1" d="M721.1 950c-116 .6-148-.6-270.9 0-17.7.1-32.2.2-42 .2 25.7-22.4 51.4-44.7 77.1-67.1 8.8-.2 21.8-.4 37.7-.5 56.5-.5 90.8.1 133 .5 37.9.3 33.5-.2 108.8-.5 166.8-.5 180.7 2.2 250.4.5 13.1-.3 52.9-1.4 106.5-.9 13.2.1 23.9.3 30.5.5 1.5-.4 6.3-2 9.6-6.8.9-1.3 2.9-4.4 2.7-8.7-.3-7.3-7.1-11.5-7.7-11.8 14.9 5.2 27.1 9.6 35.5 12.7 44.8 16.7 80.6 32.5 107.9 44.6 7.4 3.3 13.5 6 17.3 7.7 1.2-.2 6.6-1.1 11.4 2.3.8.6 5.9 4.2 5.5 9.1-.4 4.3-4.9 6.8-7.3 8.2-5.6 3.2-11.2 3.2-12.3 3.2-14.5.1-15.3 5.1-50.5 7.3-19.3 1.2-27 .2-54.6-.5-13.7-.3-15.8-.1-60.1 0 0 0-53.2.2-135.2 0-46.4-.1-62.4-.3-97.9-.5-52.6-.2-100.9.1-195.4.5z"/><path class="st2" d="M483.9 881.7l-78.6 67.8c-1.5 1.3.7 3.4 2.1 2.1l78.6-67.8c1.5-1.2-.6-3.3-2.1-2.1z"/><path class="st2" d="M485.8 884.3h667.8c1.9 0 1.9-3 0-3H485.8c-1.9 0-1.9 3 0 3zM407.7 951.5h832.5c1.9 0 1.9-3 0-3H407.7c-2 0-2 3 0 3z"/><path class="st2" d="M1145.6 851.2c7.9 0 15.1 4.6 17 12.5 1.8 7.7-2.4 15.2-9.9 17.8-1.8.6-1 3.5.8 2.9 8.4-3 13.7-11.1 12.2-20.1-1.6-9.9-10.4-16.2-20.2-16.2-1.8.1-1.8 3.1.1 3.1z"/><path class="st2" d="M1146.4 851.7c56.6 21.6 112.8 44.5 168.5 68.6 1.8.8 3.3-1.8 1.5-2.6-55.9-24.2-112.3-47.1-169.2-68.9-1.9-.7-2.6 2.2-.8 2.9z"/><path class="st2" d="M1316.6 921.3c5.1-.2 11.5 1.2 14.8 5.5 5.1 6.6-2.4 11-7.8 12.6-8.9 2.7-18.8 3.6-28 5.1-10.2 1.6-20.4 2.9-30.7 3.4-9.4.5-18.9-.1-28.3.4-1.9.1-1.9 3.1 0 3 13.3-.8 26.6 0 40-1.3 13.1-1.3 26.2-3.6 39.2-5.8 7-1.2 19.6-3.2 20.4-12.4.9-9.5-12.2-13.7-19.6-13.4-1.9 0-1.9 3 0 2.9z"/></g><g id="girl_and_cat"><g id="hand_right"><path class="st3" d="M594.7 676.6c-19.7 15.9-12.4 49.1-5.7 125.1 3.2 36.5 5.3 71 6.5 103.2-7.4 4.3-22.3 13.6-20.7 18 1.9 5.3 26.9.7 33.9-.6 19.7 0 35.6 1.8 47 3.7 9.2 1.5 19 3.6 20.3.8 1.1-2.4-4.4-7.3-9.7-11.4-10-5.7-20-11.4-30.1-17.1-2.9-28.9-3.3-52.4-3.2-68.2.3-51.7 4.1-91.8 4.1-91.8 3.9-41.7 8.2-56.9-1.6-65-9.7-7.8-29-6.2-40.8 3.3z"/><path class="st2" d="M600 925.2c6.2-1.4 11.9-3.9 17.2-7.3.8-.5.1-1.8-.8-1.3-5.2 3.4-10.8 5.8-16.8 7.2-.9.1-.5 1.6.4 1.4z"/><path class="st2" d="M608.3 923.3c4-1.1 7.5-4.7 11.5-4.1 5.7.8 11.6 3.2 17.1 4.8.9.3 1.3-1.2.4-1.4-6-1.7-12-3.4-18-5-.9-.3-1.6-.6-2.5-.4-.7.2-2.6 2-3.6 2.6-1.7 1-3.5 1.6-5.4 2.1-.9.2-.5 1.6.5 1.4z"/><path class="st2" d="M612.2 922.1c3.6-.8 7-.8 10.7 0 2.7.6 5.1 1.2 7.8.9.9-.1 1-1.6 0-1.5-3.6.4-6.8-.9-10.3-1.3-2.9-.3-5.8-.1-8.7.5-.8.2-.4 1.6.5 1.4z"/><path class="st2" d="M614 920.5c5.9 0 11.7.7 17.5 2.2.9.2 1.3-1.2.4-1.4-5.9-1.6-11.8-2.3-17.9-2.3-1 0-1 1.5 0 1.5z"/><path class="st4" d="M605 672.7c5 3-.6 20.5-2.3 26.1-5.2 17.7-4.2 41.9-2.3 90.4 1.1 26.7 4.6 64 15.3 109.1 34.4 15.9 51.1 25.4 50 28.4-1 2.8-17.1.2-48.3-8-4.3 1.9-10.9 4.4-19.3 5.7-1.6.2-20.9 3.1-22.7-1.7-1.8-4.8 14.5-15.1 20.5-18.8-1.6-24.9-3-46-4-62-1.9-29.9-2-33.2-2.8-42.1-3.1-34.3-5.5-36.8-6.8-60.2-2.6-47.1 6.1-58.3 11.9-63.1 1.4-.9 7.6-5.7 10.8-3.8z"/><path d="M582.3 710.8c10 92 18 160.3 21 180.7.3 2.2 1 6.8 4 11.9 8.9 15.6 29.3 20.1 42.6 21.6-18.3-4.7-28.8-4.6-35.2-3.4-.9.2-3.3.6-6.8 1.1-4.1.6-10.8 1.6-19.3 1.7-3.8.1-8.9 0-14.8-.6.4-1.1 1.1-2.8 2.3-4.5 1.9-2.9 4.2-4.6 8.5-7.4 3-2 6.9-4.3 11.4-6.8-4.6-64.7-9.1-129.5-13.7-194.3z" opacity=".19" fill="#6d6c6c"/></g><g id="leg_right"><path class="st2" d="M928.6 887.7c12.9-.4 26.1-1 39.4-1.7 8.4-.4 16.6-.9 24.9-1.5 6.1-2.9 12.3-5.7 18.4-8.6 4 4.3 10.4 10.5 19.1 16.6 31.5 22.1 63.7 21.9 63.5 27.4-.2 3.7-15 6.6-26.5 7.4-28.9 2-52.2-7.8-65.6-15.1-22 3.7-44 7.3-66 11-2.4-11.8-4.8-23.6-7.2-35.5z"/><path class="st6" d="M825.5 661c-21.1 21.5-27.5 55.3-16.9 87.1-13.9 51-27.9 101.9-41.8 152.9-.8 2.5-3.4 11.5.9 20.4 5.1 10.5 17.6 16.7 31.1 15.1 51.6-1.5 103.1-3 154.7-4.4 3.3-23.1 6.5-46.2 9.8-69.3-29.9 2.1-59.9 4.1-89.8 6.2 12-26.3 29-65.9 46.2-115.6 24.8-71.3 23.2-86 16-96-18.1-25.1-77.7-29.5-110.2 3.6z"/><path d="M825.2 707.4c-2.1-5.9-7.8-21.6-13-21-5.8.6-9.5 21.3-8.3 38.1.8 10 3.2 18.1 5.3 23.5-1.5 5.1-4 13.9-7.1 24.8-24.8 87.9-22 79.5-24.9 90.2-4.8 17.4-8.7 31.5-11.2 40.3-.6 2.4-2 8.7.7 15.9 2.8 7.5 8.3 11.3 10.5 12.8 1.6 1.1 6.2 4.1 12.5 4.8 1.2.1 1.7.1 8.8-.2l10-.3c9.5-.4 19.8-.5 23.3-.5 8.5-.1 36.6-.9 121.5-3.8 1.8-11.8 3.6-23.7 5.3-35.5-112.9 34.3-150 25.7-161 8.8-22.8-35.3 50.9-133.1 27.6-197.9z" opacity=".25" fill="#6d6c6c"/><path d="M768.2 896.6c10.5-38.7 21-77.5 31.4-116.2-2.4 10-22.7 97.3-11.3 129.1.8 2.4 2.9 8 7.9 13.2 13.6 14.1 36 12.3 44 11.3-13.9 1.5-25.9 2.3-35.4 2.6-12 .5-18.6.3-25.5-3.6-2.2-1.2-7.8-4.5-11.3-11.3-5.7-11.4-.6-23.3.2-25.1z" opacity=".3" fill="#6d6c6c"/></g><g id="leg_left"><path class="st2" d="M1172.9 606.6c11.9-5.1 23.9-10.4 36.1-15.9 7.6-3.5 15.2-6.9 22.6-10.4l14.1-14.7c5.3 2.6 13.5 6 23.8 8.6 37.4 9.1 67.3-2.8 69.1 2.4 1.2 3.5-11.6 11.6-22 16.5-26.2 12.3-51.4 11.7-66.7 9.8-19.2 11.4-38.3 22.8-57.5 34.2-6.5-10.1-13-20.3-19.5-30.5z"/><path class="st6" d="M821.9 642.4c3.9-1.4 10-3.5 17.8-5.3 46.7-10.9 78.4 6 119.1 11.6 36 5 63.6-1 92.5-7.1 28.8-6.2 75.8-20.6 127.1-58.7 5.1 3.1 15.6 10.4 23.1 24 8.5 15.3 8.4 29.7 8 35.6-23.3 18-58.4 41.7-104.9 61.3-29.7 12.6-54.5 18.7-104 31.1-54.4 13.6-91.4 22.6-141.4 23.1-25.6.3-46.6-1.8-60.5-3.6 7.8-37.4 15.5-74.7 23.2-112z"/><path class="st9" d="M798.7 754c9.3 1.4 21.8 3 36.5 3.7 11 .6 31.2 1.3 61.3-2.1 29.5-3.3 53.5-8.8 100.1-19.8 26.5-6.2 40.2-9.4 57.3-14.7 16.8-5.2 37.3-11.5 63-23.2 7-3.2 35.1-16.2 69.2-38.9 9.5-6.3 17.2-11.9 22.7-16 .5-3.5.8-8.3.2-13.9-.8-6.4-2.5-11.5-4.1-15-102 59.8-229.5 106.3-370.1 91.9-8.5-.9-16.9-1.9-25.2-3.2-3.5 17.1-7.2 34.1-10.9 51.2z"/><path class="st4" d="M799 753.7c1.8-8.4 3.7-16.8 5.5-25.2 35.3 4.7 76.3 7.1 121.6 4.1 126.9-8.4 224.5-54.8 282.7-89.4-16 12.1-39.8 28.6-70.5 44.6-52.2 27.1-93.8 36.8-166.9 53.9-63.9 14.9-94.7 16.5-117.9 16.3-22.4-.4-41.2-2.4-54.5-4.3z"/></g><g id="torso"><path class="st3" d="M573.1 600.7c-24.8 6.7-43.8 57-32.7 95.5 11.3 39.3 50.7 54.9 81.7 67.2 58.9 23.3 114.1 12.6 141.2 7.3 19.8-3.8 35.8-9 46.8-13 5.8-5.2 22.9-22 29-51 7.3-34.6-6.4-61.9-9.7-68-53.3 20.7-93.9 18-117.4 13.8-53.6-9.7-92.9-31.6-92.9-31.6-24.9-13.9-33.2-23.7-46-20.2z"/><path class="st9" d="M543.5 640.6c-.7 22 59.8 41.2 63.3 42.4 20.9 7 53.4 14.7 134.8 11.2 24.6-1 58.5-3.3 99-8.7.1-5.9-.2-13.4-2-22-2.2-10.1-5.7-18.2-8.7-24-6 1.9-14.5 4.5-24.8 7.4-9 2.5-14.9 4.1-21.7 5.5 0 0-16.6 3.4-35.2 3.7-26.9.4-49.4-6.2-72.2-13-23.4-6.9-51-17.5-63.8-26.4-4-2.8-7.5-4.8-14.4-8.9-11.3-6.6-14.2-7.4-17.1-7.7-7.6-.7-13.7 3.1-16.7 5.1-9.2 5.8-13.1 14.4-15.8 20.4-1 2.2-4.6 9.9-4.7 15z"/><path d="M570.4 601.8c16.5 12.9 40 29.1 70.5 43.6 16 7.6 41.8 19.6 75.6 26.3 24 4.7 67.6 9.9 122.5-3.9-.6-4.8-1.9-10.7-4.5-17.2-1.7-4.2-3.6-7.9-5.4-10.9-24.5 10.6-46 14.5-60.5 16-35.7 3.8-63.4-2.9-79.9-7-14.7-3.7-33-8.2-53.2-19.4-7.4-4-20.1-11.8-41.4-22.7-5-2.6-9.2-4.7-12.1-6-4 .4-7.8.8-11.6 1.2z" opacity=".15" fill="#6d6c6c"/></g><g id="cat"><path class="st2" d="M717.3 607c6.1-3.8 11.2-4.5 22.1-6.2 28.1-4.5 25.4-4.7 30.7-4.9 12.7-.5 21.3-.9 30.5 4.3 2.9 1.6 10.1 5.8 14.2 14.6.7 1.5 5.7 12.5 1.7 21.7-4.4 10.1-22.4 12.7-58.4 18-5 .7-19.2 2.7-36.7-.4-11.4-2-14.7-4.6-16.7-7.1-6.3-7.9-3.6-21 1.3-29 3.7-6.2 8.7-9.4 11.3-11z" id="body"/><path class="st2" d="M809.6 622.3c1.1-2.2 7.9-1.7 12.7 1.1 4.7 2.7 8.6 8.3 8.6 14.2-.1 6.4-4.7 10.9-11.4 17.4-8.7 8.5-15.1 10.8-14.4 13.5 1 4.1 15.6 1.3 17.8 6.9 1.9 4.8-6.2 13.2-8.6 12.2-1.6-.7.4-4.9-2.1-7.7-3.3-3.6-9.4 0-12.5-3.2-2.5-2.7-1.4-8.2.2-11.6 2.2-4.4 5-4.5 13.5-12 6.5-5.7 7.2-7.7 7.3-9.2.1-1.4-.2-2.9-4.3-9.4-5.4-8.9-7.6-10.8-6.8-12.2z" id="tail"/><path class="st2" d="M785.1 624c-2.5 1.7-8.5 6-9.2 13.7-.6 6.9 3.5 12 4.5 13.1-15.4 5.1-18.7 7.5-18.5 8.8.5 2.5 14.3 3 25.8-.2 4.3-1.2 8.2-2.9 11.2-4.3 5.7-2.6 8.6-3.8 10.1-5.8 3.8-4.9 2.5-11.8 1.5-16.7-1.1-5.5-1.8-9.4-5.2-11.8-6-4.3-15.6 0-20.2 3.2z" id="leg_front"/><g id="head_1_"><path class="st2" d="M686.6 629.5c-2.2-3.3-2.7-6.9-3-9.7-1-7.2.8-13.1 2-16.2-.4-4.6-.9-9.2-1.3-13.7 1.5.7 3.2 1.6 5 2.7 3.1 2 5.6 4.1 7.5 5.9 2.5-1.3 5.3-2.6 8.6-3.8 3.5-1.3 6.8-2.2 9.7-2.9.6-1.6 2-4.4 4.8-6.9 1.9-1.7 3.9-2.7 5.2-3.2 0 .9 0 1.8.1 2.8.4 3.3 1.3 6.1 2.3 8.1 1.5 1.1 8.1 6.2 9.7 15.5 1.3 7.3-1.3 13.2-2.8 15.8-5.9 10.7-17.8 13-20.5 13.5-8.5 1.7-21.7.6-27.3-7.9z"/><path class="st1" d="M724.5 562.2c1.4-1.5 1.6-.3 1.9 1.1.2 1.1.3 2.3.5 3.4.2 1.2.7 2.5 1.9 3.1 3 1.5 6.6-2.4 8.7-4.1 1.5-1.3-.7-3.4-2.1-2.1-1 .9-2.1 1.7-3.2 2.5-1.2.9-1.9 1.3-2.3-.4-.4-1.8-.3-3.8-1.1-5.5-1.4-3-4.5-2-6.3 0-1.4 1.3.7 3.4 2 2zM691.6 618.1c4.7 4.4 12.2 2.3 13.6-4.1.2-.9-1.2-1.3-1.4-.4-1.1 5.2-7.1 7.2-11 3.5-.9-.7-1.9.4-1.2 1zM713.6 617c-.1 0-.1.1-.2.1.2.2.5.4.7.6v-.2l-.5.5c-.1-.1-.1-.2-.2-.3.3.1.7.2 1 .3 0-.1-.1-.2-.1-.4-.5.2-.9.4-1.4.6 1.3 2.4-.7 5.2-3.4 4.7-.9-.2-1.3 1.3-.4 1.4 4 .8 7-3.3 5.1-6.9-.4-.8-1.5-.2-1.4.6.1.3.1.5.3.7.2.4.7.4 1 .3 1.6-.7.6-2.9-1-2.4-.2.1-.5.3-.5.5-.1.4-.1.6 0 1 0 .3.4.6.7.6.4-.1.6-.1 1-.3.9-.6.2-1.9-.7-1.4z"/><path class="st1" d="M713.6 618.1c.9 4.8 7.6 4.9 8.7.2.2-.9-1.2-1.3-1.4-.4-.8 3.3-5.2 3.1-5.8-.2-.2-1-1.7-.6-1.5.4zM716.6 610.5c5.4 2.4 11.3-.9 11.9-6.8.1-1-1.4-1-1.5 0-.5 4.7-5.3 7.5-9.7 5.5-.8-.4-1.6.9-.7 1.3z"/></g><path class="st2" d="M672.9 642.4c-.9-3.3.4-7.4 3-9.7 3.2-2.8 7.4-2.1 12.7-1.3 5.4.9 17.7 2.9 23.4 13.1 1.4 2.5 3.3 5.9 1.9 8.4-3 5.6-19.6 1.7-27.9-1.3-6.3-2.2-11.8-4.2-13.1-9.2z" id="paw_right"/><path class="st2" d="M746.5 620.6c-2.2.2-2 4-5.6 8.8-3.5 4.6-7.9 6.7-15.9 10.3-7.8 3.6-10.9 3.6-14.6 7.7-.9 1-4.4 4.9-3.2 7.5 1.2 2.6 6.4 2.4 9.7 2.4 2.7-.1 4.8-.4 15.5-3.6 4.7-1.4 8.6-2.7 13.5-4.9 4.3-2 5.4-3 6.2-4.1 2.9-3.9 2-9 1.5-11.8-1-5.4-4.1-12.6-7.1-12.3z" id="paw_left"/></g><g id="head"><path class="st3" d="M504.1 610.5c.6 8 6.9 13.3 13.3 18.7 5.5 4.7 16.6 12.5 34.4 15.7 3.3-2.4 8.9-7 13.3-14.7 3.6-6.4 4.9-12.4 5.4-16.2-15.9-9.5-31.7-19-47.6-28.5-12 6-19.5 15.7-18.8 25z"/><path class="st3" d="M499.4 504.6c-9.5 3.2-14.9 10.6-25.2 25.1-11.6 16.4-20.4 31-24.9 42-.7 1.6-.2 3.5 1.2 4.6 1.8 1.4 5.4 2.5 7.4 3.4-.8 5.5-1.3 13.5.6 22.7 3.4 16.6 12.7 27.6 17.3 32.4 8.4.8 21.6.9 36.3-4.4 4.9-1.8 13.6-5 22.5-12.8 7.8-6.8 12.4-14.1 15-19 2.5.6 6.6 1 11-.4 9.3-2.9 18.7-13.3 15.7-21.4-2.2-6-10.9-9.9-20.8-8.3.9-3.8 1.8-9.3 1.8-15.9 0-1.6-.3-13.7-4.6-23.2-8.2-18.1-34-31.3-53.3-24.8z"/><path d="M457.6 553.7c-2.1-5.4-6.4-18.7-2.3-34.4 1.4-5.3 4.2-15.4 13.6-23.6 11.3-9.9 24.6-10.4 28.4-10.4 2.2-2.5 6-6.1 11.6-8.4 2.2-.9 8.3-3.1 21.6-1.2 7 1 17.6 3.4 29.6 9.6 9.3 4.9 15 10.4 18.4 14.4 15.4 18.1 9.6 34.4 25.6 48.5 6.2 5.5 7.9 3.8 17.2 11.6 3.3 2.8 11.6 10.2 18.8 21.6 5 7.9 17.6 27.7 14.7 52.8-2.2 19.7-14.7 48.3-32.9 50.6-19.7 2.5-24.5-28.7-63.8-43.7-22.1-8.4-38.4-5.4-40.9-13.6-2.7-9 14.2-22.1 28.3-31.5 2 1.3 5.9 3.5 10.4 2.8 9.3-1.4 15.7-14 12.4-21.6-1.3-3.1-4-4.7-4.8-5.2-6.7-3.9-14.2.1-14.8.4-8.1-8.9-14-17.1-18-23.2-5.4-8.3-7.9-13.7-8.8-15.6-2.8-6.1-4.5-11.5-5.6-15.6-5.8.3-13.8 1.4-22.4 4.8-2 .8-9 3.7-16.8 9.6-1 .7-5.3 4-10.2 9.4-4 4.2-7.1 8.5-9.3 11.9z" fill="#5222d0"/><path class="st2" d="M474.8 554.7c2.1 3.9 4.5 6.6 9 7.4 4.4.8 8.7-.2 12.3-2.9 1.1-.9 0-2.8-1.1-1.9-2.8 2.1-6.1 3.1-9.6 2.8-4.3-.4-6.6-2.8-8.6-6.5-.8-1.3-2.7-.2-2 1.1zM477.9 541.5c7-4.1 14-2.4 20.6 1.9 1.2.8 2.3-1.2 1.1-1.9-7.2-4.7-15.1-6.4-22.8-1.9-1.2.7-.1 2.7 1.1 1.9zM483.7 576.2c-.3 1.3-.8 1.3-1.5 0 .1-.2.2-.3.3-.5.2-.1.5-.1.7 0 .2.3.4.6.6 1-.1 0-.1.1-.1.2h-1.6c.2-.4.4-.9.5-1.3-.6-.1-1.1.6-1.1 1.1 0 .7.5 1.1 1.1 1.1 1.3.1 2.1-1.7 1-2.5-.5-.4-1.1-.4-1.6 0-.8.7-.8 2.2.3 2.6.9.3 2-.4 2-1.4 0-1-.9-1.7-1.8-1.5-.8.2-1.4 1-1.1 1.8.6 1.3 2.7.8 2.3-.6zM494.4 572.5c.1.5-.6.8-1 .4-.1-.1-.2-.2-.2-.4.8-.9 1.2-.9 1.4.1.4-1.4-1.7-2-2.2-.6-.3 1 .5 2 1.5 2s1.7-.8 1.5-1.8c-.1-.9-1-1.6-2-1.4-1 .2-1.5 1.3-1.3 2.2.5 1.5 2.7.9 2.3-.5zM491.1 582c.7 0 .3 1.4-.4 1-.8-.4.3-1.7.7-.9-.7-1.3-2.6-.1-1.9 1.1.5.9 1.7 1.1 2.5.5 1-.7.9-2.1-.1-2.7-.9-.6-2.2-.2-2.5.9-.3 1.1.6 2.4 1.8 2.3.6 0 1.1-.5 1.1-1.1-.1-.6-.6-1.2-1.2-1.1zM458.6 598c7.9.1 15.1-2.8 20.7-8.4 1-1-.6-2.6-1.6-1.6-5.2 5.2-11.8 7.8-19.1 7.7-1.5 0-1.5 2.2 0 2.3z"/><path d="M516.3 517.5c1.6 11.4 3.5 20.7 4.8 27 3.6 16.9 6.2 23.7 4.8 34.4-1.1 8.2-3.9 14.1-5.5 17.4-11.6 24.2-37.3 35.4-45.4 38.6 4.5.4 9.9.5 15.8 0 10.8-1 19.7-3.8 26.1-6.4 2.4 2.4 5.4 5 9 7.4 9.7 6.4 19.3 8.5 25.4 9.3 2.4-1.6 4.7-3.2 7.1-4.8 4.7 2 11.6 5.3 19.2 10.7 22.8 16.1 28.3 33.9 42.1 33.3 6.9-.3 13.3-4.9 14.7-6 3.7-2.8 6.4-6.1 9.4-11.3 3.8-6.6 11.2-19.7 11.5-38.6.2-11.7-2.5-21.4-5-28-22.6 28.1-56.6 37.5-80.3 25.7-15.9-7.9-23.1-23.3-25.8-30.3 8.4 4.5 18.1 2.2 22.5-4.2 3.3-4.8 4.4-13.2-1-18.3-4.3-4.2-11.3-4.9-17.1-1.6-5.3-5.5-11.1-12.6-16.7-21.2-7.7-12.2-12.6-23.9-15.6-33.1z" opacity=".1" fill="#6d6c6c"/></g><g id="hand_left"><path class="st3" d="M321.7 502.2c12.2-.6 21.9 7.6 25.1 10.3.8.7 3.2 2.6 8.8 9.8 5.4 7 8 12.5 15.5 22.2 7.7 10 15.3 15.6 30.4 26.8 13.8 10.3 24.7 16.1 40.3 24.5 25.4 13.5 45.7 24.4 74.2 32.8 17.6 5.2 21.5 4.4 36.5 10.4 19.4 7.7 38.7 15.4 41.9 31.4 1.8 8.8-1.4 19.7-8.8 25.3-7 5.3-17.5 5.8-46.4-4.6-48.7-17.5-84-42.1-102.2-55.7-5.2-3.9-12.2-9.7-26.3-21.2-24.5-20-44.2-36.7-57.4-48.2-3.3-.7-10.1-2.1-18.9-3.9-13.8-2.8-17.7-3.5-22.8-6.3-7.2-3.9-15.5-10.9-14.2-14.2 1.7-4.2 18.8-.6 21.6-.1-1.6-2.5-4.1-5.7-7.8-8.9-8.6-7.4-14.8-6.7-15.9-10.5-1.7-6.1 11.7-19.2 26.4-19.9z"/><path class="st2" d="M296.9 517.5c8.9.1 15.4 5.9 21.5 11.6 1.1 1 2.6-.6 1.6-1.6-6.6-6.2-13.7-12.2-23.1-12.3-1.4.1-1.4 2.3 0 2.3zM303.2 510.7c8.9.3 16.7 4.1 22.5 10.9.9 1.1 2.5-.5 1.6-1.6-6.1-7.2-14.7-11.2-24.1-11.5-1.5-.1-1.5 2.1 0 2.2zM316.4 504.4c6.3 1.5 11.8 4.9 15.9 9.9.9 1.1 2.5-.5 1.6-1.6-4.4-5.3-10.2-8.9-16.9-10.5-1.4-.3-2 1.9-.6 2.2z"/><path d="M296.7 516.2c2.4-1.9 7.5 1 11.9 3.6 5.7 3.3 9.5 6.5 10.8 7.5 2.6 1.7 4.3 4.7 4.3 4.7 2.4 3.9 14.4 8.4 14.4 8.4 5.9 2.2 8.8 6.1 24.9 19.5 18 14.9 30.8 27.5 33.9 30.5 27.3 26.1 83 58.1 141.5 72 25 5.9 54 9.5 55.2 20.4.6 5.9-6.9 11.7-11.9 14.3-5.4 2.9-19.2 8-74.7-19.1-15.9-7.8-33.3-16.3-55.4-31.5-9.2-6.3-15.7-11.4-47.4-37.7-13.5-11.2-30.7-25.5-50.8-42.4-10.6-1.6-43.3-7-53.7-19.2-1-1.2-3.4-4-2.5-5.8 1.5-3.3 12.6-1.3 22.1 1-3.7-6.1-7.7-9.5-10.5-11.6-6.3-4.5-12.3-5.6-13.1-10.2-.4-1.5-.2-3.5 1-4.4z" opacity=".16" fill="#6d6c6c"/><path class="st4" d="M297.8 542.2c4.2 2.3 8.8 4.6 13.8 6.8 16.5 7.2 32.1 10.5 44.9 12 2.4 1.8 6.2 4.6 10.8 8.2 17.4 13.9 29 25.7 31.5 28.3 15.8 15.8 51.3 41.2 88.1 59.7 23.1 11.6 57.6 26.1 102.6 34.6-1.2 1.8-3.6 4.8-7.6 6.4-2.2.9-4.6 1.3-10.1.9-8.8-.6-14.5-2.3-14.5-2.3-27.3-8.1-55.4-22.1-55.4-22.1-17-8.4-25.5-12.6-35.4-18.9-15.2-9.5-25.6-18.1-31.5-23-21.3-17.6-48.8-40.1-81.9-67.3-10.6-1.3-19.3-3.2-25.8-4.8-18-4.5-23.5-8.3-26.8-13.3-1.6-2-2.3-4-2.7-5.2z"/></g></g></svg>