<svg xmlns="http://www.w3.org/2000/svg" width="277.868" height="47.366" viewBox="0 0 277.868 47.366"><g transform="translate(-160.132 -25.268)"><text transform="translate(234 67.634)" fill="#28282d" font-size="15" font-family="Optima-Bold, Optima" font-weight="700" opacity="0.6"><tspan x="0" y="0">Technologies Company Limited</tspan></text><text transform="translate(233 49.634)" fill="#28282d" font-size="17" font-family="jf-jinxuan-Medium, jf-jinxuan" font-weight="500"><tspan x="0" y="0">東柏資訊科技股份有限公司</tspan></text><path d="M103.309,1.769a.187.187,0,0,1-.1-.029l-.51-.323a.188.188,0,0,1-.075-.226c.923-2.394,1.024-4.631,1.024-8.824v-6.052a.188.188,0,0,1,.188-.187h4.709a.188.188,0,0,1,.188.188v6.093c1.431-1.338,1.5-2.438,1.5-4.6v-1.343a.188.188,0,0,1,.188-.187H115.4a.188.188,0,0,1,.188.188v3.74c0,.365,0,.476.765.476h.1a1.15,1.15,0,0,0,.964-.339.188.188,0,0,1,.158-.05.188.188,0,0,1,.136.095l.612,1.105a.188.188,0,0,1-.036.228,2.839,2.839,0,0,1-2.219.612c-1.963,0-2.312-.481-2.312-1.837V-12.58h-1.682v.628c0,2.611-.677,3.969-2.567,5.066h5.214l.3-.275a.188.188,0,0,1,.194-.036l1.615.629a.188.188,0,0,1,.111.229A12.251,12.251,0,0,1,114.629-1.9,11.487,11.487,0,0,0,118.3-.609a.188.188,0,0,1,.132.1.188.188,0,0,1,0,.165l-.85,1.819a.187.187,0,0,1-.22.1,10.179,10.179,0,0,1-4.088-2.161,12.02,12.02,0,0,1-5.088,2.232.187.187,0,0,1-.216-.121l-.2-.578a.187.187,0,0,1,.021-.167,2.1,2.1,0,0,1-.675.1A6.1,6.1,0,0,1,104.675.2a.187.187,0,0,1-.1-.219l.153-.561a.187.187,0,0,1,.208-.136,11.173,11.173,0,0,0,1.444.152c.5,0,.517-.1.517-.51V-4.912h-1.472c-.2,2.965-.839,5.128-1.965,6.607A.187.187,0,0,1,103.309,1.769Zm-.28-.587.233.148c1.038-1.445,1.626-3.554,1.8-6.44a.188.188,0,0,1,.187-.176h1.836a.188.188,0,0,1,.188.188v4.029c0,.574-.142.885-.892.885a10.5,10.5,0,0,1-1.334-.132l-.067.247A5.519,5.519,0,0,0,107.12.5a1.287,1.287,0,0,0,.929-.3,1.206,1.206,0,0,0,.309-.9V-13.5h-4.334v5.865C104.023-3.476,103.924-1.217,103.029,1.181ZM108.19,1l.086.243a11.43,11.43,0,0,0,4.893-2.222.188.188,0,0,1,.246.007,9.68,9.68,0,0,0,3.9,2.14L118-.287a11.4,11.4,0,0,1-3.754-1.406.188.188,0,0,1-.087-.132.188.188,0,0,1,.045-.152,11.632,11.632,0,0,0,2.324-4.3L115.181-6.8l-.271.245a.188.188,0,0,1-.126.048h-5.439v.39h1.139a.188.188,0,0,1,.183.147A9.761,9.761,0,0,0,112.6-1.836a.187.187,0,0,1-.014.252A11.408,11.408,0,0,1,108.19,1Zm.543-8.281V-.7A1.562,1.562,0,0,1,108.31.47a1.27,1.27,0,0,1-.208.164,11.145,11.145,0,0,0,4.1-2.367,10.135,10.135,0,0,1-1.869-4.012h-1.176a.188.188,0,0,1-.187-.187V-6.7a.187.187,0,0,1,.045-.122h0Zm.358-.134.15.245c1.827-1.036,2.449-2.267,2.449-4.781v-.816a.188.188,0,0,1,.188-.187h2.057a.188.188,0,0,1,.188.188V-9.5c0,1.1.15,1.462,1.938,1.462a2.669,2.669,0,0,0,1.854-.415l-.428-.772a1.55,1.55,0,0,1-1.04.287h-.1c-.884,0-1.14-.191-1.14-.851v-3.552H110.6v1.155C110.6-10.031,110.534-8.815,109.09-7.415Zm58.887,9.166a.187.187,0,0,1-.109-.035,11.8,11.8,0,0,1-4.663-8.448H162.2v5.367c.967-.183,1.725-.352,2.312-.516a.187.187,0,0,1,.227.117l.2.561a.187.187,0,0,1-.082.226,23.977,23.977,0,0,1-5.85,2.18.187.187,0,0,1-.224-.143L158.41-.657a.187.187,0,0,1,.034-.153.187.187,0,0,1,.138-.074c.526-.032,1.115-.093,1.711-.179V-13.328a.188.188,0,0,1,.188-.187h7.208a.188.188,0,0,1,.188.188v6.409a.188.188,0,0,1-.187.188h-3.425a9.744,9.744,0,0,0,1.082,2.859A12.655,12.655,0,0,0,167.22-6.3a.188.188,0,0,1,.126-.09.188.188,0,0,1,.151.035L168.873-5.3a.188.188,0,0,1,.073.14.188.188,0,0,1-.059.146,14.4,14.4,0,0,1-2.937,2.036A11.4,11.4,0,0,0,169.38-.23a.187.187,0,0,1,.09.128.187.187,0,0,1-.038.152l-1.309,1.632A.187.187,0,0,1,167.977,1.752ZM162.01-7.107h1.36a.187.187,0,0,1,.186.164,13.246,13.246,0,0,0,1.924,5.635,9.982,9.982,0,0,0,2.463,2.614L169-.016a11.1,11.1,0,0,1-3.489-2.916.187.187,0,0,1-.032-.155.187.187,0,0,1,.1-.124,14.6,14.6,0,0,0,2.886-1.928l-1.031-.789a13.272,13.272,0,0,1-2,2.492.188.188,0,0,1-.154.052.188.188,0,0,1-.137-.088,10.137,10.137,0,0,1-1.3-3.411.187.187,0,0,1,.039-.155.187.187,0,0,1,.145-.068H167.5v-6.034h-6.833V-.9a.188.188,0,0,1-.16.185c-.58.087-1.158.152-1.685.191L159.11.795a24.416,24.416,0,0,0,5.424-2.019l-.091-.25c-.618.165-1.406.335-2.4.519a.188.188,0,0,1-.154-.04.188.188,0,0,1-.068-.144v-5.78A.188.188,0,0,1,162.01-7.107ZM49.215,1.751a.188.188,0,0,1-.081-.019A61.581,61.581,0,0,0,43.358-.5a.188.188,0,0,1-.122-.222l.146-.6H41.111l.975.935a.187.187,0,0,1,.056.162.188.188,0,0,1-.1.14,22.632,22.632,0,0,1-6.73,1.737.188.188,0,0,1-.2-.14L34.957.914a.188.188,0,0,1,.137-.229,17.837,17.837,0,0,0,5.012-2.01H37.23a.188.188,0,0,1-.187-.187V-7.7a.188.188,0,0,1,.188-.187h1.742l-.154-.525a.187.187,0,0,1,.018-.147.188.188,0,0,1,.12-.088c2.372-.551,3.775-1.679,4.395-3.54H42.056a9.249,9.249,0,0,1-2.149,2.259.188.188,0,0,1-.246-.022l-.408-.425a.187.187,0,0,1-.046-.082A19.652,19.652,0,0,1,36.13-7.05.188.188,0,0,1,35.986-7a.188.188,0,0,1-.131-.075l-.9-1.224a.187.187,0,0,1-.033-.146.187.187,0,0,1,.085-.124,23.358,23.358,0,0,0,3.677-2.783.187.187,0,0,1,.249-.006l.442.374a.187.187,0,0,1,.066.133,10.062,10.062,0,0,0,1.826-3.734.188.188,0,0,1,.229-.126l1.411.391a.188.188,0,0,1,.116.094.187.187,0,0,1,.011.149,7.306,7.306,0,0,1-.315.754h4.692l.346-.211a.188.188,0,0,1,.191,0l1.36.782a.188.188,0,0,1,.09.123.188.188,0,0,1-.031.149A9.8,9.8,0,0,1,46.976-10.1l-.019.012a10.693,10.693,0,0,0,2.987.873.187.187,0,0,1,.134.1.188.188,0,0,1,.006.165l-.646,1.462a.188.188,0,0,1-.213.107,7.312,7.312,0,0,1-1.286-.429.187.187,0,0,1,.036.11v6.188a.188.188,0,0,1-.187.188h-2.9A32.547,32.547,0,0,1,49.953-.263a.187.187,0,0,1,.112.1.188.188,0,0,1,0,.15l-.68,1.649a.187.187,0,0,1-.173.116ZM43.641-.8c1.742.592,4.1,1.47,5.476,2.113L49.644.032A38.16,38.16,0,0,0,43.714-1.1ZM35.368,1l.065.253a23.15,23.15,0,0,0,6.2-1.562l-.96-.922A18.261,18.261,0,0,1,35.368,1Zm2.05-2.7H47.6V-7.514H37.417ZM35.375-8.364l.66.9A19.382,19.382,0,0,0,39-10.814l-.184-.156A23.635,23.635,0,0,1,35.375-8.364ZM44.574-11a.187.187,0,0,1,.161.091,7.737,7.737,0,0,0,4.423,3.124l.486-1.1a7.812,7.812,0,0,1-4.889-2.453.188.188,0,0,1-.031-.193,7.11,7.11,0,0,0,.3-.894.187.187,0,0,1,.181-.14h2.244a.188.188,0,0,1,.158.086.188.188,0,0,1,.013.179,9.089,9.089,0,0,1-.9,1.621l.172.18a9.389,9.389,0,0,0,2.047-2.042l-1.082-.622-.3.18a.187.187,0,0,1-.1.027H42.415a.188.188,0,0,1-.161-.091.188.188,0,0,1-.005-.184,7.559,7.559,0,0,0,.362-.789l-1.039-.288a10.017,10.017,0,0,1-1.929,3.793l.175.183A8.978,8.978,0,0,0,41.8-12.479a.188.188,0,0,1,.156-.084H43.6a.188.188,0,0,1,.15.075.188.188,0,0,1,.03.165c-.6,2.1-2.052,3.368-4.552,3.994l.071.241a6.387,6.387,0,0,0,5.108-2.82A.189.189,0,0,1,44.574-11ZM40.463-7.889h7.3a7.9,7.9,0,0,1-3.191-2.575A6.434,6.434,0,0,1,40.463-7.889Zm4.651-3.606a5.91,5.91,0,0,0,1.453,1.2l-.224-.234a.187.187,0,0,1-.017-.239,8.037,8.037,0,0,0,.828-1.42H45.346C45.278-11.948,45.2-11.716,45.114-11.494ZM73.355,1.684H71.893a.188.188,0,0,1-.187-.187v-6.54a14.592,14.592,0,0,1-2.395,3.5.187.187,0,0,1-.265.011l-.425-.391a.187.187,0,0,1-.027-.245,20.263,20.263,0,0,0,2.773-6.608H69.054a.188.188,0,0,1-.187-.187v-.765a.188.188,0,0,1,.188-.187h2.651v-2.054c-.818.142-1.654.252-2.431.32a.187.187,0,0,1-.2-.149l-.119-.578a.188.188,0,0,1,.141-.22,16.7,16.7,0,0,0,5.365-2.1.188.188,0,0,1,.239.032l1.207,1.326a.187.187,0,0,1,.044.17.187.187,0,0,1-.116.132,19.111,19.111,0,0,1-2.293.687v2.435h2.227a.188.188,0,0,1,.188.188v.765a.188.188,0,0,1-.187.188H73.542v.72A18.09,18.09,0,0,1,76.132-5.8a.188.188,0,0,1-.014.26L74.911-4.419a.187.187,0,0,1-.16.047.188.188,0,0,1-.134-.1c-.232-.452-.585-1.059-1.074-1.847V1.5A.188.188,0,0,1,73.355,1.684ZM72.08,1.309h1.087V-6.97a.188.188,0,0,1,.135-.18.188.188,0,0,1,.211.08c.595.94,1.029,1.666,1.321,2.21l.892-.83A19.329,19.329,0,0,0,73.246-7.8a.187.187,0,0,1-.078-.152v-1a.188.188,0,0,1,.188-.187h2.227v-.39H73.355a.188.188,0,0,1-.187-.187v-2.771a.188.188,0,0,1,.145-.183,20.344,20.344,0,0,0,2.131-.611l-.914-1a16.937,16.937,0,0,1-5.17,2.024l.048.235c.789-.074,1.633-.191,2.452-.34a.188.188,0,0,1,.154.041.188.188,0,0,1,.067.144v2.465a.188.188,0,0,1-.187.188H69.242v.39H71.6a.188.188,0,0,1,.147.071.187.187,0,0,1,.036.159,21.082,21.082,0,0,1-2.792,6.831l.167.154a14.5,14.5,0,0,0,2.559-4.042.187.187,0,0,1,.21-.11.187.187,0,0,1,.15.184Zm84.082.358h-1.428a.188.188,0,0,1-.187-.187v-15.3a.188.188,0,0,1,.074-.15.188.188,0,0,1,.164-.031l1.352.384h1.745l.357-.282a.188.188,0,0,1,.19-.026l1.564.663a.187.187,0,0,1,.1.24,21.073,21.073,0,0,1-2.281,4.318,6.746,6.746,0,0,1,2.073,4.23,2.632,2.632,0,0,1-.594,1.94,1.493,1.493,0,0,1-1.095.448,3.189,3.189,0,0,1-1.847-.755V1.479A.188.188,0,0,1,156.162,1.666Zm-1.241-.375h1.053V-12.716a.187.187,0,0,1,.188-.187h1.955a.187.187,0,0,1,.141.064.187.187,0,0,1,.044.149,20.7,20.7,0,0,1-1.1,4.035,7.458,7.458,0,0,1,1.237,3.811c0,.872-.066,1.539-.894,1.539a4.142,4.142,0,0,1-.915-.142l-.084.285a2.859,2.859,0,0,0,1.649.7,1.111,1.111,0,0,0,.826-.335,2.279,2.279,0,0,0,.487-1.669,6.5,6.5,0,0,0-2.074-4.091.187.187,0,0,1-.018-.236,20.861,20.861,0,0,0,2.26-4.195l-1.294-.549-.321.254a.187.187,0,0,1-.116.04h-1.836a.188.188,0,0,1-.051-.007l-1.138-.323ZM156.5-3.86a.188.188,0,0,1,.045.006,4.565,4.565,0,0,0,1,.173c.369,0,.519-.105.519-1.164a7.153,7.153,0,0,0-1.229-3.691.188.188,0,0,1-.016-.168,21.365,21.365,0,0,0,1.079-3.824h-1.55v8.747A.188.188,0,0,1,156.5-3.86ZM9.214,1.666H7.65a.188.188,0,0,1-.187-.187V-3.009A18.308,18.308,0,0,1,1.133,1.01.187.187,0,0,1,.9.9L.659.308a.188.188,0,0,1,.1-.24A16.727,16.727,0,0,0,6.538-4.657H3.077a.188.188,0,0,1-.187-.187v-5.3a.188.188,0,0,1,.188-.187H7.462v-1.019H1.445a.188.188,0,0,1-.187-.187v-.935a.188.188,0,0,1,.188-.187H7.462v-1.751A.188.188,0,0,1,7.65-14.6H9.214a.188.188,0,0,1,.188.188v1.751h6.137a.188.188,0,0,1,.188.188v.935a.188.188,0,0,1-.187.188H9.4v1.019h4.4a.188.188,0,0,1,.188.188v5.3a.188.188,0,0,1-.187.188H9.978a18.067,18.067,0,0,0,6.3,3.614.187.187,0,0,1,.112.112.187.187,0,0,1-.014.158l-.986,1.7a.188.188,0,0,1-.24.077A16.024,16.024,0,0,1,9.4-3.457V1.479A.188.188,0,0,1,9.214,1.666ZM7.837,1.291H9.026V-4.046a.188.188,0,0,1,.134-.18.188.188,0,0,1,.21.077A15.031,15.031,0,0,0,15.156.591l.788-1.359A17.351,17.351,0,0,1,9.4-4.718a.188.188,0,0,1-.033-.2.187.187,0,0,1,.172-.112h4.08V-9.962h-4.4a.188.188,0,0,1-.187-.187v-1.394a.188.188,0,0,1,.188-.187H15.35v-.56H9.214a.188.188,0,0,1-.187-.187v-1.751H7.837v1.751a.188.188,0,0,1-.187.188H1.632v.56H7.65a.188.188,0,0,1,.188.188v1.394a.188.188,0,0,1-.187.188H3.264v4.929H6.9a.187.187,0,0,1,.166.1.187.187,0,0,1-.012.194A17.048,17.048,0,0,1,1.073.333L1.178.6a17.544,17.544,0,0,0,6.332-4.2.188.188,0,0,1,.207-.051.187.187,0,0,1,.121.175Zm53.634.341h-1.53a.188.188,0,0,1-.187-.187V-6.306H58.106a.188.188,0,0,1-.17-.107v.532a.188.188,0,0,1-.187.188H52.513a.188.188,0,0,1-.187-.187V-6.63a.188.188,0,0,1,.188-.187h5.236a.188.188,0,0,1,.17.107v-.549a.188.188,0,0,1,.188-.187h1.648v-4.9H58.089a.188.188,0,0,1-.187-.187v-.765a.188.188,0,0,1,.188-.187H65.3a.188.188,0,0,1,.188.188v4.369c0,2.476.074,4.563.213,6.035.169,1.781.374,2.091.418,2.138A15.816,15.816,0,0,0,66.2-3.38a.187.187,0,0,1,.054-.134.187.187,0,0,1,.133-.056H67a.188.188,0,0,1,.181.138c.6,2.2.619,3.759.046,4.51a1.136,1.136,0,0,1-.932.467,1.579,1.579,0,0,1-.608-.13c-1.926-.81-2.07-4.626-2.07-10.356v-3.4H61.659v4.9h1.768a.188.188,0,0,1,.188.188v.765a.188.188,0,0,1-.187.188H61.659V1.445A.188.188,0,0,1,61.472,1.633Zm-1.342-.375h1.155V-6.494a.188.188,0,0,1,.188-.187h1.768v-.39H61.472a.188.188,0,0,1-.187-.187v-5.27a.188.188,0,0,1,.188-.187H63.8a.188.188,0,0,1,.188.188v3.587a51.822,51.822,0,0,0,.293,6.893c.269,1.8.761,2.786,1.547,3.117a1.207,1.207,0,0,0,.463.1A.764.764,0,0,0,66.926.85c.28-.367.638-1.38-.072-4.046h-.279c.025,2.03-.019,2.555-.216,2.755a.293.293,0,0,1-.212.09A.423.423,0,0,1,65.9-.442c-.1-.075-.373-.271-.575-2.381-.142-1.486-.218-3.6-.218-6.1v-4.181H58.276v.39h1.666a.188.188,0,0,1,.188.188v5.27a.188.188,0,0,1-.187.188H58.293v.39h1.648a.188.188,0,0,1,.188.188ZM52.7-6.069h4.861v-.373H52.7Zm-26.418,7.7h-1.53a.188.188,0,0,1-.187-.187V-5.629L23.471-4.8a.188.188,0,0,1-.157.033.188.188,0,0,1-.125-.1c-.306-.637-.6-1.215-.851-1.691v8a.188.188,0,0,1-.187.188H20.689a.188.188,0,0,1-.187-.187V-5.687A14.74,14.74,0,0,1,18.293-2.15a.187.187,0,0,1-.132.06.187.187,0,0,1-.135-.052l-.442-.425a.187.187,0,0,1-.028-.236,20.615,20.615,0,0,0,2.679-6.7H18.054a.188.188,0,0,1-.187-.187v-.782a.188.188,0,0,1,.188-.187H20.5V-14.3a.188.188,0,0,1,.188-.187h1.462a.188.188,0,0,1,.188.188v3.637h1.989a.188.188,0,0,1,.188.188v.782a.188.188,0,0,1-.187.188H22.338v.9a16.3,16.3,0,0,1,2.226,2.424v-4.67a.188.188,0,0,1,.188-.187h2.434a32.365,32.365,0,0,0,.592-3.488.187.187,0,0,1,.074-.129A.187.187,0,0,1,28-14.686l1.734.306a.187.187,0,0,1,.131.093.187.187,0,0,1,.011.16,24.944,24.944,0,0,1-1.445,3.094h4.025a.188.188,0,0,1,.188.188V1.309a.188.188,0,0,1-.187.188h-1.53a.188.188,0,0,1-.187-.187V.2H26.469V1.445A.188.188,0,0,1,26.282,1.633Zm-1.342-.375h1.155V.017a.188.188,0,0,1,.188-.187h4.641a.188.188,0,0,1,.188.187v1.1h1.155v-11.78H28.1a.188.188,0,0,1-.163-.1.188.188,0,0,1,0-.189,23.342,23.342,0,0,0,1.5-3.107l-1.312-.231a33.181,33.181,0,0,1-.61,3.478.187.187,0,0,1-.183.146h-2.4Zm-4.063,0h1.087V-7.31a.188.188,0,0,1,.142-.182.188.188,0,0,1,.211.093c.273.508.676,1.27,1.111,2.164L24.3-5.9a16.052,16.052,0,0,0-2.277-2.476.188.188,0,0,1-.063-.14V-9.69a.188.188,0,0,1,.188-.187h1.989v-.407H22.151a.188.188,0,0,1-.187-.187v-3.637H20.876v3.637a.188.188,0,0,1-.187.188H18.241v.407h2.226a.187.187,0,0,1,.146.069.188.188,0,0,1,.038.157,21.239,21.239,0,0,1-2.7,6.919l.192.184a16.272,16.272,0,0,0,2.368-4.117.188.188,0,0,1,.209-.115.188.188,0,0,1,.152.184Zm121.379.358h-1.564a.188.188,0,0,1-.187-.187V-6.261a13.369,13.369,0,0,1-3.223,2.6.188.188,0,0,1-.245-.056l-.357-.51a.188.188,0,0,1,.036-.253,16.077,16.077,0,0,0,4.646-6.212h-4.035a.187.187,0,0,1-.187-.187v-.935a.187.187,0,0,1,.188-.187h4.542a21.212,21.212,0,0,0,.732-2.605.187.187,0,0,1,.22-.145l1.7.34a.188.188,0,0,1,.121.083.188.188,0,0,1,.024.145A21.194,21.194,0,0,1,144-12h7.857a.187.187,0,0,1,.188.188v.935a.187.187,0,0,1-.187.188h-8.414a17.358,17.358,0,0,1-.921,1.75h7.465a.188.188,0,0,1,.188.188V-.408a1.773,1.773,0,0,1-1.96,1.9,6.627,6.627,0,0,1-2.939-.9.187.187,0,0,1-.092-.217l.17-.595a.188.188,0,0,1,.209-.134,14.608,14.608,0,0,0,1.935.219c.647,0,.739-.152.739-.714V-2.414h-5.8V1.428A.188.188,0,0,1,142.256,1.615ZM140.88,1.24h1.189V-2.6a.188.188,0,0,1,.188-.187h6.171a.188.188,0,0,1,.188.188V-.85c0,.69-.182,1.089-1.114,1.089a13.632,13.632,0,0,1-1.829-.2l-.083.289a6.091,6.091,0,0,0,2.629.785A1.4,1.4,0,0,0,149.8-.408v-8.16h-7.615a.188.188,0,0,1-.165-.1.187.187,0,0,1,.007-.191,16.564,16.564,0,0,0,1.126-2.1.188.188,0,0,1,.171-.11h8.346v-.56h-7.938a.187.187,0,0,1-.154-.081.188.188,0,0,1-.021-.173,20.773,20.773,0,0,0,.694-2.2l-1.326-.265a21.928,21.928,0,0,1-.75,2.6.187.187,0,0,1-.177.125h-4.487v.56h4.13a.188.188,0,0,1,.156.083.188.188,0,0,1,.017.176A16.539,16.539,0,0,1,137.086-4.3l.159.227a13.453,13.453,0,0,0,3.305-2.8.187.187,0,0,1,.207-.052.188.188,0,0,1,.122.176ZM90.916,1.6a.188.188,0,0,1-.177-.125L90.535.9a.187.187,0,0,1,.112-.238,13.592,13.592,0,0,0,4.414-2.579A11.521,11.521,0,0,1,92.8-6.97h-.815a.188.188,0,0,1-.187-.187v-.765a.188.188,0,0,1,.188-.187h3.042v-2.43H92.023a.188.188,0,0,1,.168.187v.765A.188.188,0,0,1,92-9.4H90.186v2.753c.451-.144.889-.291,1.331-.448a.187.187,0,0,1,.236.105l.238.578a.187.187,0,0,1-.068.227,18.188,18.188,0,0,1-1.737,1.047V-.017a1.568,1.568,0,0,1-.463,1.15,1.837,1.837,0,0,1-1.3.462A5.228,5.228,0,0,1,85.873.739.187.187,0,0,1,85.79.524l.17-.561a.187.187,0,0,1,.216-.129,9.332,9.332,0,0,0,1.645.24c.466,0,.528-.117.528-.584V-4.238a17.751,17.751,0,0,1-1.885.7.188.188,0,0,1-.231-.123l-.51-1.6a.187.187,0,0,1,.017-.152.187.187,0,0,1,.124-.089c.747-.152,1.519-.335,2.485-.59V-9.4H86.1a.188.188,0,0,1-.187-.187v-.765a.188.188,0,0,1,.188-.187h2.243V-14.3a.188.188,0,0,1,.188-.187H90a.188.188,0,0,1,.188.188v3.757h1.408a.188.188,0,0,1-.168-.187v-.765a.188.188,0,0,1,.188-.187h3.416V-14.3a.188.188,0,0,1,.188-.187h1.53a.188.188,0,0,1,.188.188v2.618h3.518a.188.188,0,0,1,.188.188v.765a.188.188,0,0,1-.187.188H96.935v2.43H98.1l.409-.3a.187.187,0,0,1,.185-.022l1.53.646a.187.187,0,0,1,.108.221,13.161,13.161,0,0,1-2.915,5.437,14.391,14.391,0,0,0,3.751,1.457.187.187,0,0,1,.12.1.187.187,0,0,1,0,.156L100.524,1.4a.188.188,0,0,1-.232.105,11.586,11.586,0,0,1-4.214-2.36,12.165,12.165,0,0,1-5.121,2.45A.188.188,0,0,1,90.916,1.6ZM86.191.491a4.718,4.718,0,0,0,2.228.729A1.473,1.473,0,0,0,89.463.862a1.182,1.182,0,0,0,.347-.879V-5.253a.188.188,0,0,1,.1-.167,17.315,17.315,0,0,0,1.673-.991l-.112-.272c-.469.164-.935.318-1.419.47a.188.188,0,0,1-.167-.028.188.188,0,0,1-.076-.151v-3.2A.188.188,0,0,1,90-9.776h1.818v-.39H90a.188.188,0,0,1-.187-.187v-3.757H88.723v3.757a.188.188,0,0,1-.187.188H86.292v.39h2.243a.188.188,0,0,1,.188.188V-5.95a.187.187,0,0,1-.139.181c-.95.252-1.713.436-2.441.589l.391,1.224a20.29,20.29,0,0,0,1.929-.738.187.187,0,0,1,.177.016.188.188,0,0,1,.084.157V-.51c0,.592-.151.959-.9.959A8.722,8.722,0,0,1,86.269.234ZM90.95.944l.087.247a11.751,11.751,0,0,0,4.926-2.44.188.188,0,0,1,.249.007,11.012,11.012,0,0,0,4.034,2.334l.614-1.46a13.844,13.844,0,0,1-3.839-1.565.188.188,0,0,1-.086-.135.187.187,0,0,1,.049-.152,12.738,12.738,0,0,0,2.939-5.288l-1.28-.541-.373.276a.187.187,0,0,1-.112.037H96.747a.188.188,0,0,1-.187-.187v-2.805a.188.188,0,0,1,.188-.187h3.518v-.39H96.747a.188.188,0,0,1-.187-.187v-2.618H95.4v2.618a.188.188,0,0,1-.187.188H91.8v.39h3.416a.188.188,0,0,1,.188.188v2.805a.188.188,0,0,1-.187.188H92.174v.39h.782a.187.187,0,0,1,.184.151,11.158,11.158,0,0,0,2.323,5.169.188.188,0,0,1-.016.258A13.741,13.741,0,0,1,90.95.944Zm33.405.655a.187.187,0,0,1-.149-.074l-.374-.493a.187.187,0,0,1,.032-.26A8.161,8.161,0,0,0,126.3-2.1a11.378,11.378,0,0,0,.951-4.274h-1.79a.188.188,0,0,1-.187-.187V-7.05a10.331,10.331,0,0,1-.881.851.187.187,0,0,1-.252-.007l-.38-.365V1.411a.188.188,0,0,1-.187.188h-1.462a.188.188,0,0,1-.187-.187v-8.35A11.258,11.258,0,0,1,120.28-5.1a.188.188,0,0,1-.261-.014l-.408-.442a.188.188,0,0,1-.013-.239,19.284,19.284,0,0,0,3.3-8.657.188.188,0,0,1,.081-.125.187.187,0,0,1,.147-.027l1.7.391a.187.187,0,0,1,.141.222,20.371,20.371,0,0,1-1.2,3.79v3.208a14.368,14.368,0,0,0,2.569-6.1.188.188,0,0,1,.088-.126.188.188,0,0,1,.153-.018l1.564.493a.187.187,0,0,1,.054.027.187.187,0,0,1-.06-.137v-.765a.188.188,0,0,1,.188-.187h2.89a.188.188,0,0,1,.186.16c.434,2.97,2.347,4.286,4.106,5.287a.187.187,0,0,1,.09.123.188.188,0,0,1-.03.149l-1.139,1.6a.187.187,0,0,1-.127.077.187.187,0,0,1-.143-.04c-.295-.239-.613-.513-.937-.831-.052,2.041-.238,5.062-.408,6.622a2,2,0,0,1-2.091,1.937,5.048,5.048,0,0,1-2.687-.986.188.188,0,0,1-.075-.21l.17-.561a.187.187,0,0,1,.222-.128,8.638,8.638,0,0,0,1.739.285c.563,0,.695-.167.786-.99a49.39,49.39,0,0,0,.3-5.062h-2a10.968,10.968,0,0,1-1.4,4.982,8.674,8.674,0,0,1-3.318,2.967A.187.187,0,0,1,124.355,1.6ZM122.3,1.224h1.087V-10.234a.188.188,0,0,1,.016-.075,19.9,19.9,0,0,0,1.156-3.575l-1.325-.3a19.6,19.6,0,0,1-3.242,8.5l.178.193a12.112,12.112,0,0,0,1.788-2.137.187.187,0,0,1,.21-.074.188.188,0,0,1,.132.179ZM124.24.949l.165.217c2.531-1.465,4.063-3.239,4.4-7.743A.188.188,0,0,1,129-6.749h2.363a.188.188,0,0,1,.133.055.187.187,0,0,1,.054.133,49.981,49.981,0,0,1-.307,5.291c-.083.749-.221,1.322-1.159,1.322A8.045,8.045,0,0,1,128.428-.2l-.079.26A4.564,4.564,0,0,0,130.712.9a1.629,1.629,0,0,0,1.719-1.6c.164-1.513.345-4.411.4-6.439h-7.185v.39h1.8a.187.187,0,0,1,.136.059.187.187,0,0,1,.051.139C127.43-2.882,126.568-.963,124.24.949Zm-.162-7.735.2.191a12.607,12.607,0,0,0,3.575-5.843l-1.193-.376A14.64,14.64,0,0,1,124.078-6.786ZM128.5-13.04h2.09a.188.188,0,0,1,.185.159,9.324,9.324,0,0,0,3.45,6.012l.9-1.266c-1.753-1.014-3.6-2.371-4.087-5.3H128.5Zm-2.825,5.525h7.3a9.495,9.495,0,0,1-2.548-5.15h-2.118a.187.187,0,0,1-.11-.036.187.187,0,0,1,.054.184A13.237,13.237,0,0,1,125.679-7.515ZM53.822,1.564H52.513a.188.188,0,0,1-.187-.187V-4.2a.188.188,0,0,1,.188-.187h5.236a.188.188,0,0,1,.188.188V1.122a.188.188,0,0,1-.187.188H56.406a.188.188,0,0,1-.187-.187V.392H54.009v.985A.188.188,0,0,1,53.822,1.564ZM52.7,1.189h.934V.2a.188.188,0,0,1,.188-.187h2.584A.188.188,0,0,1,56.593.2V.935h.968V-4.011H52.7Zm147.106.369h0A7.2,7.2,0,0,1,196.426.383a.187.187,0,0,1-.083-.225l.2-.578a.187.187,0,0,1,.217-.121A11.566,11.566,0,0,0,199-.2c.8,0,.937-.287.937-1.1v-11.1H188.717a.188.188,0,0,1-.187-.187v-.765a.188.188,0,0,1,.188-.187h12.971a.188.188,0,0,1,.188.188V-.765a2.552,2.552,0,0,1-.5,1.661A1.923,1.923,0,0,1,199.807,1.559ZM196.749.136a6.654,6.654,0,0,0,3.058,1.048h0a1.567,1.567,0,0,0,1.28-.526A2.224,2.224,0,0,0,201.5-.765V-13.158H188.9v.39h11.219a.187.187,0,0,1,.188.188V-1.292c0,.908-.219,1.47-1.312,1.471a10.974,10.974,0,0,1-2.154-.317ZM81.889,1.513h-1.5a.188.188,0,0,1-.187-.187V-3.539c-1.62.369-3.269.716-4.865,1.053l-.484.1a.187.187,0,0,1-.217-.124l-.255-.765a.187.187,0,0,1,.016-.153.187.187,0,0,1,.125-.09c1.768-.357,3.678-.768,5.681-1.224V-14.3a.188.188,0,0,1,.188-.187h1.5a.188.188,0,0,1,.188.188v9.132l1.777-.407a.188.188,0,0,1,.223.133l.2.748a.188.188,0,0,1-.02.145.188.188,0,0,1-.118.087l-2.066.493V1.326A.188.188,0,0,1,81.889,1.513ZM80.58,1.138H81.7V-4.114a.187.187,0,0,1,.144-.182l2.022-.482-.106-.388-1.831.419a.188.188,0,0,1-.159-.036A.188.188,0,0,1,81.7-4.93v-9.18H80.58V-4.59a.187.187,0,0,1-.146.183c-1.98.452-3.872.861-5.628,1.217l.135.405.321-.068c1.671-.352,3.4-.717,5.088-1.1a.187.187,0,0,1,.159.036.188.188,0,0,1,.071.147Zm102.595.239A.187.187,0,0,1,183,1.256c-.259-.687-.6-1.472-1.011-2.336a49.233,49.233,0,0,1-9.3,1.844.188.188,0,0,1-.2-.142l-.476-1.938a.188.188,0,0,1,.035-.16.188.188,0,0,1,.148-.072c.613,0,1.285-.015,2-.032h.006a27.545,27.545,0,0,0,2.848-6.968.187.187,0,0,1,.1-.119.188.188,0,0,1,.153-.008l1.938.748a.188.188,0,0,1,.105.1.188.188,0,0,1,0,.147,27.542,27.542,0,0,1-3.651,6.026c2.163-.108,4.224-.282,5.756-.486-.453-.858-.917-1.659-1.381-2.384a.188.188,0,0,1,.038-.245l.51-.425a.187.187,0,0,1,.249.008,24.024,24.024,0,0,1,4.3,5.3.188.188,0,0,1-.073.258l-1.819.986A.187.187,0,0,1,183.175,1.378ZM182.087-1.5a.188.188,0,0,1,.169.106c.408.849.75,1.626,1.018,2.314l1.461-.792A23.787,23.787,0,0,0,180.719-4.8l-.255.213c.483.764.964,1.608,1.433,2.51a.187.187,0,0,1,0,.172.187.187,0,0,1-.14.1c-1.662.235-4.023.434-6.478.546a.187.187,0,0,1-.177-.1.187.187,0,0,1,.025-.2,27.063,27.063,0,0,0,3.786-6.082l-1.561-.6a27.575,27.575,0,0,1-2.893,6.956.187.187,0,0,1-.154.088l-.107,0c-.623.014-1.215.028-1.766.031l.38,1.548a48.176,48.176,0,0,0,9.215-1.862A.187.187,0,0,1,182.087-1.5ZM56.389-.39H53.822a.188.188,0,0,1-.187-.188V-3.434a.188.188,0,0,1,.188-.187h2.567a.188.188,0,0,1,.188.188V-.578A.188.188,0,0,1,56.389-.39Zm-2.38-.375H56.2V-3.247H54.009ZM30.923-.56H26.282a.188.188,0,0,1-.187-.187V-5.27a.188.188,0,0,1,.188-.187h4.641a.188.188,0,0,1,.188.188V-.748A.188.188,0,0,1,30.923-.56ZM26.469-.935h4.266V-5.082H26.469Zm165.257-.288h-1.5a.188.188,0,0,1-.187-.187V-7.65a.188.188,0,0,1,.188-.187h7.225a.188.188,0,0,1,.188.188v5.865a.188.188,0,0,1-.187.188h-1.5a.188.188,0,0,1-.187-.187v-.9h-3.858v1.274A.188.188,0,0,1,191.726-1.224ZM190.417-1.6h1.121V-2.873a.188.188,0,0,1,.188-.187h4.233a.188.188,0,0,1,.188.188v.9h1.121v-5.49h-6.85ZM46.291-2.09H38.726a.188.188,0,0,1-.187-.187V-3.451a.188.188,0,0,1,.188-.187h7.565a.188.188,0,0,1,.188.188v1.173A.188.188,0,0,1,46.291-2.09Zm-7.377-.375H46.1v-.8h-7.19Zm74.357.018a.188.188,0,0,1-.125-.047,7.95,7.95,0,0,1-2.211-3.376.187.187,0,0,1,.024-.17.187.187,0,0,1,.153-.079h3.825a.187.187,0,0,1,.151.076.187.187,0,0,1,.028.167,10.542,10.542,0,0,1-1.7,3.357.187.187,0,0,1-.131.072Zm-1.891-3.3a7.55,7.55,0,0,0,1.865,2.833,10.122,10.122,0,0,0,1.435-2.833ZM96.169-2.6a.188.188,0,0,1-.122-.045A8.9,8.9,0,0,1,93.388-7.1a.187.187,0,0,1,.03-.165.187.187,0,0,1,.15-.075h4.743a.187.187,0,0,1,.146.07.187.187,0,0,1,.037.158,10.378,10.378,0,0,1-2.181,4.449.188.188,0,0,1-.128.067ZM93.821-6.97a8.486,8.486,0,0,0,2.326,3.912A9.988,9.988,0,0,0,98.075-6.97Zm54.606,3.791h-6.171a.188.188,0,0,1-.187-.187V-5.287a.188.188,0,0,1,.188-.187h6.171a.188.188,0,0,1,.188.188v1.921A.188.188,0,0,1,148.427-3.178Zm-5.984-.375h5.8V-5.1h-5.8Zm53.516.1h-4.233a.188.188,0,0,1-.187-.187V-6.885a.188.188,0,0,1,.188-.187h4.233a.188.188,0,0,1,.188.188v3.247A.188.188,0,0,1,195.959-3.451Zm-4.046-.375h3.858V-6.7h-3.858ZM46.291-3.977H38.726a.188.188,0,0,1-.187-.188v-1a.188.188,0,0,1,.188-.187h7.565a.188.188,0,0,1,.188.188v1A.188.188,0,0,1,46.291-3.977Zm-7.377-.375H46.1v-.628h-7.19Zm132.175-.135a.187.187,0,0,1-.154-.08l-.357-.51a.187.187,0,0,1,.025-.244,15.228,15.228,0,0,0,4.451-8.084.187.187,0,0,1,.1-.123.188.188,0,0,1,.156-.008l1.8.714a.187.187,0,0,1,.107.238,18.369,18.369,0,0,1-2.4,4.531,14.141,14.141,0,0,1-3.623,3.536A.187.187,0,0,1,171.088-4.487Zm-.111-.673.159.228a16.218,16.218,0,0,0,5.663-7.608l-1.431-.567A15.5,15.5,0,0,1,170.977-5.161Zm14.017.639a.188.188,0,0,1-.113-.038,11.761,11.761,0,0,1-4.416-7.85h-2.577a.188.188,0,0,1-.187-.187v-.765a.188.188,0,0,1,.188-.187h3.366a.187.187,0,0,1,.185.157,8.779,8.779,0,0,0,5.034,6.6.188.188,0,0,1,.1.123.187.187,0,0,1-.031.154L185.146-4.6a.187.187,0,0,1-.124.075Zm-6.918-8.263h2.549a.187.187,0,0,1,.185.159,11.505,11.505,0,0,0,4.145,7.65l1.153-1.589a9.092,9.092,0,0,1-5.013-6.61h-3.021ZM78-4.691l-.031,0a.188.188,0,0,1-.132-.092,23.221,23.221,0,0,0-2.244-3.205.187.187,0,0,1,.011-.248l.425-.442a.187.187,0,0,1,.231-.031,12.444,12.444,0,0,1,3.172,2.57.187.187,0,0,1,.047.136.188.188,0,0,1-.063.129L78.12-4.738A.188.188,0,0,1,78-4.691ZM75.984-8.1a23.524,23.524,0,0,1,2.059,2.927l.978-.862a11.991,11.991,0,0,0-2.83-2.281ZM12.308-5.423H9.214a.188.188,0,0,1-.187-.187V-7.174a.188.188,0,0,1,.188-.187h3.094a.188.188,0,0,1,.188.188V-5.61A.188.188,0,0,1,12.308-5.423ZM9.4-5.8H12.12V-6.986H9.4ZM7.65-5.423H4.59A.188.188,0,0,1,4.4-5.61V-7.174a.188.188,0,0,1,.188-.187H7.65a.188.188,0,0,1,.188.188V-5.61A.188.188,0,0,1,7.65-5.423ZM4.777-5.8H7.462V-6.986H4.777Zm102.306.12h-1.8a.187.187,0,0,1-.135-.058.187.187,0,0,1-.052-.138c.017-.387.017-.79.017-1.216V-8.84a.188.188,0,0,1,.188-.187h1.785a.188.188,0,0,1,.188.188v2.975A.188.188,0,0,1,107.083-5.677Zm-1.608-.375h1.42v-2.6h-1.41v1.564C105.485-6.729,105.485-6.386,105.475-6.052Zm-59.184.358H38.726a.188.188,0,0,1-.187-.187V-6.936a.188.188,0,0,1,.188-.187h7.565a.188.188,0,0,1,.188.188v1.054A.188.188,0,0,1,46.291-5.694Zm-7.377-.375H46.1v-.679h-7.19Zm-7.99.222H26.282a.188.188,0,0,1-.187-.187v-4.046a.188.188,0,0,1,.188-.187h4.641a.188.188,0,0,1,.188.188v4.046A.188.188,0,0,1,30.923-5.847Zm-4.454-.375h4.266V-9.894H26.469Zm121.958.358h-6.171a.188.188,0,0,1-.187-.187V-7.905a.188.188,0,0,1,.188-.187h6.171a.188.188,0,0,1,.188.187v1.853A.188.188,0,0,1,148.427-5.865Zm-5.984-.375h5.8V-7.718h-5.8ZM166.158-7.5H162.01a.188.188,0,0,1-.187-.187V-9.758a.188.188,0,0,1,.188-.187h4.148a.188.188,0,0,1,.188.188v2.074A.188.188,0,0,1,166.158-7.5ZM162.2-7.872h3.773v-1.7H162.2ZM12.308-7.734H9.214a.188.188,0,0,1-.187-.187V-9.4a.188.188,0,0,1,.188-.187h3.094A.188.188,0,0,1,12.5-9.4v1.479A.188.188,0,0,1,12.308-7.734ZM9.4-8.109H12.12v-1.1H9.4ZM7.65-7.734H4.59A.188.188,0,0,1,4.4-7.922V-9.4a.188.188,0,0,1,.188-.187H7.65a.188.188,0,0,1,.188.188v1.479A.188.188,0,0,1,7.65-7.734ZM4.777-8.109H7.462v-1.1H4.777Zm52.971.137H52.513a.188.188,0,0,1-.187-.187v-.748a.188.188,0,0,1,.188-.187h5.236a.188.188,0,0,1,.188.188v.748A.188.188,0,0,1,57.749-7.972ZM52.7-8.347h4.861V-8.72H52.7Zm25.687-.815h-.016a.187.187,0,0,1-.136-.078,30.968,30.968,0,0,0-2.367-2.941.188.188,0,0,1-.006-.244l.374-.459a.188.188,0,0,1,.234-.047,12.725,12.725,0,0,1,3.206,2.311.187.187,0,0,1,.055.133.187.187,0,0,1-.056.133L78.519-9.216A.188.188,0,0,1,78.387-9.162Zm-2.133-3.151a30.939,30.939,0,0,1,2.158,2.676l.864-.851a12.305,12.305,0,0,0-2.848-2.039ZM107.083-9.4H105.3a.188.188,0,0,1-.187-.187V-12.92a.188.188,0,0,1,.188-.187h1.785a.188.188,0,0,1,.188.188v3.332A.188.188,0,0,1,107.083-9.4Zm-1.6-.375h1.41v-2.957h-1.41Zm93.142.307h-9.316a.188.188,0,0,1-.187-.187v-.765a.188.188,0,0,1,.188-.187h9.316a.187.187,0,0,1,.188.188v.765A.187.187,0,0,1,198.628-9.469ZM189.5-9.844h8.941v-.39H189.5Zm-23.341-.492H162.01a.188.188,0,0,1-.187-.187v-2.04a.188.188,0,0,1,.188-.187h4.148a.188.188,0,0,1,.188.188v2.04A.188.188,0,0,1,166.158-10.335ZM162.2-10.71h3.773v-1.665H162.2ZM58.31-10.455H51.935a.188.188,0,0,1-.187-.187v-.782a.188.188,0,0,1,.188-.187h2.6c-.442-.836-.932-1.688-1.31-2.278a.187.187,0,0,1,.031-.239l.442-.408a.187.187,0,0,1,.235-.016A11.939,11.939,0,0,1,56.4-12.165a.188.188,0,0,1,.035.141.188.188,0,0,1-.077.124l-.406.289H58.31a.188.188,0,0,1,.188.188v.782A.188.188,0,0,1,58.31-10.455Zm-6.187-.375h6v-.407H55.369a.187.187,0,0,1-.179-.13.187.187,0,0,1,.07-.21l.726-.516a12,12,0,0,0-2.149-2.065l-.215.2c.414.659.936,1.58,1.386,2.449a.187.187,0,0,1-.006.184.188.188,0,0,1-.16.09h-2.72Zm-13.6-.577a.188.188,0,0,1-.113-.038A24.7,24.7,0,0,0,35.626-13.3a.187.187,0,0,1-.086-.226l.2-.578a.188.188,0,0,1,.211-.122,15.032,15.032,0,0,1,3.5,1.155.187.187,0,0,1,.1.118.187.187,0,0,1-.023.152l-.85,1.309a.187.187,0,0,1-.124.082ZM35.946-13.55a25.169,25.169,0,0,1,2.527,1.686l.624-.961a14.881,14.881,0,0,0-3.054-1Z" transform="translate(233 49.634)" fill="#111226"/><g transform="translate(125.045 -370.919)"><path d="M19.417,19.249a4.378,4.378,0,0,1-1.222-.734l.376-6.156q.034-.518.107-1.79t.112-1.877c.027-.4.067-.843.119-1.324s.129-1.058.227-1.729q.3-1.753.546-2.836T20.446,0h2.1V.536c-.064.037-.179.1-.341.18a1.854,1.854,0,0,0-.389.254.85.85,0,0,0-.227.335q-.118.311-.546,2.289t-.783,4.385a32.98,32.98,0,0,0-.381,4.339l-.082,4.75a1.57,1.57,0,0,0,.582,1.234,1.99,1.99,0,0,0,1.354.507,1.884,1.884,0,0,0,1.352-.691,4.251,4.251,0,0,0,.856-1.639,7.15,7.15,0,0,0,.287-1.995,8.731,8.731,0,0,0-.392-2.763,1.441,1.441,0,0,0-1.4-1.172,2.093,2.093,0,0,0-.6.073,1.875,1.875,0,0,0-.5.245c-.172.115-.354.238-.547.37l-.31-.523.6-.418q1.005-.626,1.4-.836a1.789,1.789,0,0,1,.867-.211,1.639,1.639,0,0,1,1.34.629,3.619,3.619,0,0,1,.706,1.505,7.688,7.688,0,0,1,.2,1.7,8.636,8.636,0,0,1-.322,2.134,8.219,8.219,0,0,1-.9,2.106,5.113,5.113,0,0,1-1.5,1.6,3.521,3.521,0,0,1-2.038.613A5.074,5.074,0,0,1,19.417,19.249Zm9.325.272a3.34,3.34,0,0,1-1.286-.38,1.863,1.863,0,0,1-.772-.994,5.757,5.757,0,0,1-.272-2,14.875,14.875,0,0,1,.41-3.449,5.028,5.028,0,0,1,1.46-2.5,4.413,4.413,0,0,1,3.01-1.033,1.524,1.524,0,0,1,1.257.627,3.983,3.983,0,0,1,.71,1.577,9.754,9.754,0,0,1,.245,1.974,10.672,10.672,0,0,1-.421,3.1,4.685,4.685,0,0,1-1.4,2.237,3.748,3.748,0,0,1-2.55.848Zm.081-8.664a7.749,7.749,0,0,0-.6,2.135,19.548,19.548,0,0,0-.208,2.222,12.691,12.691,0,0,0,.1,1.749,2.744,2.744,0,0,0,.5,1.273,1.517,1.517,0,0,0,1.185.593,1.8,1.8,0,0,0,1.738-1.347,9.027,9.027,0,0,0,.52-3.243v-.294a7.5,7.5,0,0,0-.5-2.826A1.685,1.685,0,0,0,29.94,9.9C29.479,9.922,29.106,10.243,28.823,10.857ZM6.858,12.58A47.06,47.06,0,0,1,2.142,19.35H1.02l.517-8.969L0,10.751V9.987a6.531,6.531,0,0,0,1.6-.273,9.138,9.138,0,0,0,1.564-.7l.288.293a32.282,32.282,0,0,0-.892,8.176A23.54,23.54,0,0,0,4.493,15.04a20.34,20.34,0,0,0,1.645-2.827,12.656,12.656,0,0,0,.989-2.856H8.481l-.545,8.68,1.645-.349v.851a6.1,6.1,0,0,0-3.495.981A42.128,42.128,0,0,0,6.858,12.58Zm5.021,6.769.478-8.721-2.057.416V10.21a7.94,7.94,0,0,0,1.8-.291,11.874,11.874,0,0,0,1.838-.626l-.275,5.238q.03-.071.459-1.126t.693-1.656q.265-.6.531-1.1a3.562,3.562,0,0,1,.5-.749,1.423,1.423,0,0,1,1.061-.543,1.723,1.723,0,0,1,.252.015,1.038,1.038,0,0,1,.124.026v1.747a1.087,1.087,0,0,0-.124-.026,1.821,1.821,0,0,0-.252-.015q-1.025,0-2.163,2.449a22.215,22.215,0,0,0-.9,2.379q-.4,1.245-.639,2.255a9.473,9.473,0,0,0-.244,1.162Z" transform="translate(69.453 420.767)" fill="#a3ccc9" opacity="0.997"/><path d="M36.74,402.346l1.658-.816a13.053,13.053,0,0,0,1.29-.605l-.039-.843a.557.557,0,0,1,.645.013,6.783,6.783,0,0,0,1.132-.592c.079-.132.092-.092.092-.092l.23.365.02.03s1.593-.737,1.671-.737,4.935-.947,5.027-1.079c0,0,.29-.408.447-.356a.3.3,0,0,1,.171.25l.605-.052.764.355.316-.039a2.85,2.85,0,0,1,2.514-.474,4.092,4.092,0,0,0,1.2-.026c.184-.106,1.553-.408,4.422.42a.387.387,0,0,0,.223.172l.276.026.105-.092s.487-.158,2.8.487a9.306,9.306,0,0,0,2.934.369s.2.263.408.263.25.092.25.092.329-.263,1.211.04c.065.026,1.211.407,1.29.407s.223-.276.8-.013c.5.276.618.066.618.066a2.536,2.536,0,0,0,1.106.132,2.116,2.116,0,0,1,1.566.381l.592.079s.868-.434,1.171.29l1.2.013a.706.706,0,0,1,.894.079l.33.066a.658.658,0,0,1,.8-.105l1.2.224s.461-.514.816-.185l1.25-.421s.527-.079.605-.3a.527.527,0,0,1,.566-.171l.566-.29s.158-.052.2.039l.343.185a.741.741,0,0,1,1.027-.4v.039s-.105-.645.079-.7a1.246,1.246,0,0,1,.527.052s.1-.3.223-.355a.585.585,0,0,0,.224-.658s.065-.171.21.039a1.88,1.88,0,0,0,.263.317l.1-.658a1.979,1.979,0,0,1-.289-1.395s.868,1.132,1.013,1.105-.184-.684-.184-.684.343.474.514.407a.4.4,0,0,1,.513.356c.263.263.829.724.829.724l.316.684.223-.079.382.71s1.145.843.921,1.435c0,0,1.5,1.093,1.053,1.843l.382,1.368a.805.805,0,0,1,.605.513,2.374,2.374,0,0,0,.342.672l-.145.592a1.05,1.05,0,0,1,.842.776s-.053.487-.816.25v.552H90.908l-.3.132.407,1.33.04.407-.092,1.132-.355.408-.737.5s0,.2-.356.276-1.829.4-1.829.4l-1.277.552a1.391,1.391,0,0,1-1.066.369l-1.158.408a7.717,7.717,0,0,0-1.658.3c-.592.224-1.171.448-1.487.277a20.949,20.949,0,0,1-3.763-.263l-.579.065s-.369.7-1.224-.039l-.184.329-2.7-.816-.711.223a.96.96,0,0,1-.565-.3,7.43,7.43,0,0,0-.842.145,6.56,6.56,0,0,1-1.882-.553c-.5-.342-.672-.276-.672-.276s-.329.145.014.948a5.839,5.839,0,0,0,.039,1.75.732.732,0,0,1-.4.882c-.065,0-1.342.592-1.105,1.633,0,0-.171,1.171-.171,1.684a3.828,3.828,0,0,1-.4,1.448,3.219,3.219,0,0,0-.105,1.131c-.026.29-.276.474-.474.382,0,0,.579,2.25.263,3.08l.407.408L64.9,427.89s-.184.013.3,3.013c0,0-.158,3.8-.631,6.922a3.563,3.563,0,0,1-2.974,3.093s-.672-.119-1.355-2.2a3.248,3.248,0,0,1,.2-.605s0-.052-1.882-3.172a8.025,8.025,0,0,1-.908-2.789c.04-.106-.119-.908-1.474-2.764a6.355,6.355,0,0,1-.855-1.777c0-.145.526-.355.144-.8-.5-1.158-2.092-3.146-1.553-4.383a2.118,2.118,0,0,1,.947-.882L54.2,420.31l.645-1.026.263.158-.092-.356.211-.118s-.263.763.236.342.343-.382.343-.382l-.211-.316s1.672-1.355,1.448-2.5c0,0,.776.106,1.106-1.053A3.578,3.578,0,0,0,60.2,413.9l.185.157.026-.079.065.21.132-.289s.29.289.369.263.065-.474,1.079-.842a2.619,2.619,0,0,0,1.118-.909s1.027,1.145,1.422,1.145c.566.211,1-.592,1-.592s.461-.579.7-.513c0,0,.4.269,1.356-.091l.039-.015a6.377,6.377,0,0,0-.724-.342l-.223.065a5.382,5.382,0,0,0-1.145-.631s-.4-.672-.7-.5l-.474.013s-.132-.185-.3.2-.29.145-.3,0a2.631,2.631,0,0,0-.106-.421s-.447-.434-.618-.408-.171.263-.171.263-.5-.408-.816-.211c0,0-.236-.315-.763.053,0,0,.237-.948-.4-.263a1.883,1.883,0,0,0-1.645-.539s-.434-.421-.605-.014-.039,0-.039,0-1.355-.368-1.487-.184c0,0,.026.408-.119.408a.97.97,0,0,1-.4-.2.509.509,0,0,0-.513-.487.52.52,0,0,1-.54-.447l-.158-.039s-.026.421-.316.329a1.463,1.463,0,0,0-.236.316c-.079.159-.171.027-.3-.079a1.977,1.977,0,0,1-.25-.25l-.434-.039-.25-.605H53.4l-.092.75s-1.079-.276-1.4.236a1.056,1.056,0,0,0-.908.356c-.119.065-.487.2-.487.2s-.039-.816-.29-.592c-.25.092-.5.514-.553.605,0,0-.329.408-.658-.158l-.54.474-.526-.132-.2-.2s-.552-.079-.605-.013c0,0-.236.382-.342.382s-.329-.3-.329-.3-.158.368-.276.355a1.058,1.058,0,0,0-.408-.579l-.237-.342-1.237.474s-.039.448-.145.448-.329-.316-.329-.316l-1.869.434-.1.079s-.408.053-.553.079-.092.119-.092.119-.816-.066-.776-.158.605-.013.685-.013c0,0-.276-.146-.2-.276s.158-.132.158-.132l-.1-.474.065-.119-.527-.605s-.079-.645.25-.356a2.7,2.7,0,0,0,.434.2c.039-.013.039-.132.039-.132l.3-.2.553.132.092-.079s.026-.461.316-.434a.21.21,0,0,1,.17.134.233.233,0,0,1,.014.037l-.355-.974s.013-.407.513-.065a3.146,3.146,0,0,1,.514.605l.342-.052s0-.3.092-.317a.888.888,0,0,1,.25.027l-.329-.7.052-.408a8.2,8.2,0,0,0,1.067-.539c.132-.132.645-.119.71-.106a1.552,1.552,0,0,0-.368-.987s-.487-.776.052-.789l.145-.184-.039-.105-.158-1.211-.566.29-.934.3-.514-.276s-.8.895-1.329.514l-1.421.5A9.222,9.222,0,0,0,39.4,403.6a2.6,2.6,0,0,1-.158.711,2.376,2.376,0,0,1-1.119.461,7.548,7.548,0,0,0-.934,1.053s-1.079-.026-1.119-.8l.053-.224s-.79-.263-.869-.263c0,0-.356-.21-.026-.645S36.648,402.517,36.74,402.346Z" fill="#a3ccc9"/></g></g></svg>