<svg xmlns="http://www.w3.org/2000/svg" width="265.326" height="36.009" viewBox="0 0 265.326 36.009"><g transform="translate(-230.174 -270.991)"><g transform="translate(45.5 234)"><text transform="translate(234 69)" fill="#797c7e" font-size="12" font-family="Optima-Regular, Optima" letter-spacing="0.018em"><tspan x="0" y="0">Turbotech Technology Company Limited</tspan></text><text transform="translate(234 52.991)" fill="#66ac35" font-size="18" font-family="jf-jinxuan-Medium, jf-jinxuan" font-weight="500"><tspan x="0" y="0">東柏資訊科技股份有限公司</tspan></text></g><path d="M36.381,401.007l1.3-.638a10.216,10.216,0,0,0,1.01-.474l-.031-.659a.436.436,0,0,1,.5.01,5.309,5.309,0,0,0,.886-.464c.061-.1.072-.072.072-.072l.18.286.016.023s1.246-.577,1.308-.577,3.862-.741,3.935-.844c0,0,.227-.319.35-.278a.231.231,0,0,1,.134.2l.474-.041.6.278.247-.031a2.23,2.23,0,0,1,1.967-.371,3.2,3.2,0,0,0,.937-.02c.144-.083,1.215-.319,3.461.329a.3.3,0,0,0,.175.134l.216.02.083-.072a5.406,5.406,0,0,1,2.194.381,7.285,7.285,0,0,0,2.3.289s.155.206.319.206.2.072.2.072.257-.206.947.031c.051.02.947.319,1.01.319s.175-.216.628-.01c.392.216.484.052.484.052a1.984,1.984,0,0,0,.866.1,1.657,1.657,0,0,1,1.226.3l.463.062s.679-.34.916.227l.938.01a.553.553,0,0,1,.7.061l.258.052a.515.515,0,0,1,.628-.083l.937.175s.36-.4.639-.145l.978-.33s.412-.061.474-.237a.413.413,0,0,1,.443-.134l.443-.227s.124-.041.154.031l.268.145a.58.58,0,0,1,.8-.309v.031s-.083-.5.061-.545a.974.974,0,0,1,.412.041s.082-.237.175-.278a.458.458,0,0,0,.175-.515s.051-.134.165.031a1.47,1.47,0,0,0,.206.248l.082-.515a1.549,1.549,0,0,1-.226-1.092s.679.886.793.865-.144-.535-.144-.535.268.371.4.319a.315.315,0,0,1,.4.278c.206.206.649.567.649.567l.247.535.175-.062.3.556s.9.659.721,1.123c0,0,1.174.855.824,1.442l.3,1.071a.63.63,0,0,1,.474.4,1.858,1.858,0,0,0,.268.526l-.113.463a.822.822,0,0,1,.659.608s-.042.382-.639.2v.432h-1l-.237.1.319,1.041.031.319-.072.886-.278.319-.577.391s0,.154-.278.216-1.431.309-1.431.309l-1,.432a1.088,1.088,0,0,1-.834.289l-.906.319a6.036,6.036,0,0,0-1.3.236c-.464.175-.917.351-1.164.217a16.4,16.4,0,0,1-2.945-.206l-.453.051s-.289.546-.958-.031l-.144.257-2.111-.638-.556.175a.751.751,0,0,1-.442-.237,5.83,5.83,0,0,0-.659.113,5.134,5.134,0,0,1-1.473-.433c-.391-.268-.526-.216-.526-.216s-.257.113.011.742A4.57,4.57,0,0,0,60.823,411a.573.573,0,0,1-.309.69c-.051,0-1.051.463-.865,1.278,0,0-.134.916-.134,1.318a3,3,0,0,1-.309,1.133,2.519,2.519,0,0,0-.083.885c-.02.227-.216.371-.371.3a6.287,6.287,0,0,1,.206,2.41l.319.319L58.423,421s-.144.01.237,2.358c0,0-.124,2.977-.494,5.418a2.789,2.789,0,0,1-2.328,2.421s-.526-.093-1.061-1.72a2.542,2.542,0,0,1,.154-.474s0-.041-1.473-2.483a6.281,6.281,0,0,1-.711-2.183c.031-.083-.093-.711-1.154-2.163a4.975,4.975,0,0,1-.669-1.39c0-.113.412-.278.113-.628-.391-.907-1.638-2.462-1.215-3.43a1.658,1.658,0,0,1,.741-.69l-.515-.968.5-.8.206.124-.072-.278.165-.092s-.206.6.185.268.268-.3.268-.3l-.165-.247s1.309-1.061,1.133-1.957c0,0,.608.083.866-.824a2.8,2.8,0,0,0,1.606-.906l.145.123.02-.061.051.165.1-.226s.227.226.289.206.051-.371.844-.659a2.05,2.05,0,0,0,.875-.711s.8.9,1.113.9c.443.165.783-.463.783-.463s.36-.453.546-.4c0,0,.31.21,1.061-.071l.03-.011a4.986,4.986,0,0,0-.567-.268l-.175.051a4.213,4.213,0,0,0-.9-.494s-.309-.526-.546-.391l-.371.01s-.1-.145-.237.154-.227.113-.237,0a2.057,2.057,0,0,0-.083-.33s-.35-.34-.484-.319-.134.206-.134.206-.391-.319-.639-.165c0,0-.185-.247-.6.042,0,0,.186-.742-.309-.206a1.474,1.474,0,0,0-1.287-.422s-.339-.33-.474-.011-.031,0-.031,0-1.061-.288-1.164-.144c0,0,.02.319-.093.319a.759.759,0,0,1-.309-.154.4.4,0,0,0-.4-.382.407.407,0,0,1-.423-.35l-.124-.031s-.02.33-.247.257a1.145,1.145,0,0,0-.185.247c-.062.124-.134.021-.237-.061a1.549,1.549,0,0,1-.2-.2l-.34-.031-.2-.474H49.42l-.072.587s-.844-.216-1.092.185a.826.826,0,0,0-.711.278c-.093.051-.381.154-.381.154s-.031-.638-.227-.464c-.2.072-.391.4-.433.474,0,0-.257.319-.515-.124l-.423.371-.412-.1L45,406.9s-.432-.061-.474-.01c0,0-.185.3-.268.3S44,406.95,44,406.95s-.124.288-.216.278a.828.828,0,0,0-.319-.453l-.186-.268-.968.371s-.031.35-.113.35-.257-.247-.257-.247l-1.463.34-.082.061s-.319.042-.433.062-.072.093-.072.093-.638-.052-.608-.124.474-.01.536-.01c0,0-.216-.114-.155-.216s.124-.1.124-.1l-.082-.371.051-.093-.412-.474s-.061-.505.2-.278a2.107,2.107,0,0,0,.34.155c.031-.01.031-.1.031-.1l.237-.155.433.1.072-.061s.02-.36.247-.34a.164.164,0,0,1,.133.1.181.181,0,0,1,.011.029l-.278-.762s.01-.319.4-.051a2.465,2.465,0,0,1,.4.474l.268-.041s0-.237.072-.248a.7.7,0,0,1,.2.021l-.257-.546.041-.319a6.414,6.414,0,0,0,.835-.422c.1-.1.5-.093.556-.083a1.215,1.215,0,0,0-.288-.773s-.381-.608.041-.618l.113-.144-.031-.083-.124-.947-.443.227-.731.237-.4-.216s-.628.7-1.04.4l-1.112.391a7.213,7.213,0,0,0-.8-.113,2.037,2.037,0,0,1-.124.556,1.86,1.86,0,0,1-.876.361,5.909,5.909,0,0,0-.731.824s-.844-.021-.876-.628l.042-.175s-.618-.206-.68-.206c0,0-.278-.164-.02-.5S36.309,401.141,36.381,401.007Z" transform="translate(195.087 -125.196)" fill="#f0eee9"/></g></svg>