<svg xmlns="http://www.w3.org/2000/svg" width="376" height="186" viewBox="0 0 376 186"><g transform="translate(-77 -489)"><ellipse cx="188" cy="93" rx="188" ry="93" transform="translate(77 489)" fill="#66ac35"/><path d="M-826.6,1501.831c-5.682-3.848-25.5,5.386-26.077,12.6s10.286,16.995,22.728,15.393S-820.914,1505.68-826.6,1501.831Z" transform="translate(-60.074 -1132.035) rotate(-45)" fill="#f5df4d"/><g transform="translate(-33 529)"><text transform="translate(157 84)" fill="#fff" font-size="10" font-family="Optima-Regular, Optima"><tspan x="0" y="0">Technologies Co., Ltd</tspan></text><text transform="translate(234 66.991)" fill="#fff" font-size="18" font-family="jf-jinxuan-Medium, jf-jinxuan" font-weight="500"><tspan x="0" y="0">東柏資訊科技股份有限公司</tspan></text><g transform="translate(104.913 -385.187)"><path d="M25.177,24.959a5.677,5.677,0,0,1-1.584-.952l.487-7.982q.044-.671.138-2.32t.145-2.434c.035-.52.087-1.094.154-1.716s.167-1.371.295-2.241q.383-2.273.708-3.677T26.511,0h2.721V.7c-.084.049-.232.126-.442.233a2.4,2.4,0,0,0-.5.329,1.1,1.1,0,0,0-.295.435q-.154.4-.708,2.968t-1.016,5.685a42.763,42.763,0,0,0-.493,5.626l-.106,6.159a2.036,2.036,0,0,0,.755,1.6,2.58,2.58,0,0,0,1.756.657,2.443,2.443,0,0,0,1.752-.9,5.511,5.511,0,0,0,1.11-2.125,9.271,9.271,0,0,0,.372-2.586,11.321,11.321,0,0,0-.508-3.583,1.868,1.868,0,0,0-1.813-1.52,2.714,2.714,0,0,0-.777.1,2.431,2.431,0,0,0-.65.318c-.223.149-.458.309-.709.48l-.4-.678.782-.542q1.3-.812,1.811-1.084a2.32,2.32,0,0,1,1.124-.273,2.125,2.125,0,0,1,1.737.816,4.693,4.693,0,0,1,.915,1.952,9.969,9.969,0,0,1,.258,2.208,11.2,11.2,0,0,1-.417,2.767,10.657,10.657,0,0,1-1.17,2.731,6.63,6.63,0,0,1-1.94,2.079,4.566,4.566,0,0,1-2.643.8A6.579,6.579,0,0,1,25.177,24.959Zm12.091.353A4.33,4.33,0,0,1,35.6,24.82a2.415,2.415,0,0,1-1-1.289,7.464,7.464,0,0,1-.352-2.59,19.287,19.287,0,0,1,.532-4.472,6.519,6.519,0,0,1,1.893-3.248,5.722,5.722,0,0,1,3.9-1.34,1.976,1.976,0,0,1,1.63.813,5.164,5.164,0,0,1,.921,2.045,12.647,12.647,0,0,1,.318,2.559,13.837,13.837,0,0,1-.546,4.013,6.075,6.075,0,0,1-1.814,2.9,4.86,4.86,0,0,1-3.306,1.1Zm.105-11.234a10.048,10.048,0,0,0-.781,2.768,25.346,25.346,0,0,0-.27,2.881A16.455,16.455,0,0,0,36.457,22a3.558,3.558,0,0,0,.646,1.651,1.967,1.967,0,0,0,1.537.769,2.334,2.334,0,0,0,2.253-1.746,11.7,11.7,0,0,0,.674-4.2v-.381a9.724,9.724,0,0,0-.642-3.664,2.185,2.185,0,0,0-2.1-1.584C38.224,12.865,37.739,13.281,37.373,14.078ZM8.892,16.312a61.02,61.02,0,0,1-6.116,8.777H1.323l.67-11.629L0,13.939V12.95A8.468,8.468,0,0,0,2.07,12.6,11.848,11.848,0,0,0,4.1,11.685l.374.38a41.857,41.857,0,0,0-1.157,10.6A30.522,30.522,0,0,0,5.825,19.5a26.373,26.373,0,0,0,2.133-3.666,16.41,16.41,0,0,0,1.282-3.7H11l-.706,11.255,2.133-.452v1.1a7.914,7.914,0,0,0-4.531,1.273A54.625,54.625,0,0,0,8.892,16.312Zm6.51,8.777.619-11.308-2.667.539V13.239a10.3,10.3,0,0,0,2.338-.377,15.4,15.4,0,0,0,2.383-.812l-.357,6.792q.039-.092.595-1.459t.9-2.148q.344-.779.688-1.427a4.618,4.618,0,0,1,.649-.971,1.845,1.845,0,0,1,1.376-.7,2.235,2.235,0,0,1,.326.02,1.346,1.346,0,0,1,.161.034v2.265a1.409,1.409,0,0,0-.161-.033,2.362,2.362,0,0,0-.326-.02q-1.329,0-2.8,3.175a28.805,28.805,0,0,0-1.171,3.085q-.514,1.615-.829,2.924a12.283,12.283,0,0,0-.316,1.506Z" transform="translate(79.647 428.059)" fill="#fff" opacity="0.997"/><path d="M37.231,404.172l2.15-1.057a16.935,16.935,0,0,0,1.673-.785L41,401.238a.723.723,0,0,1,.836.017,8.8,8.8,0,0,0,1.468-.768c.1-.171.119-.12.119-.12l.3.473.026.039s2.065-.956,2.167-.956,6.4-1.228,6.518-1.4c0,0,.375-.529.58-.461a.383.383,0,0,1,.222.324l.785-.068.991.46.409-.051a3.7,3.7,0,0,1,3.259-.614,5.306,5.306,0,0,0,1.553-.034c.239-.137,2.013-.529,5.734.545a.5.5,0,0,0,.29.223l.358.034.137-.12s.631-.2,3.635.631c.256.12,3.4.751,3.8.478,0,0,.257.342.529.342s.325.119.325.119.426-.341,1.57.052c.085.034,1.57.528,1.673.528s.29-.357,1.04-.017c.649.358.8.086.8.086a3.288,3.288,0,0,0,1.434.171,2.744,2.744,0,0,1,2.031.494l.768.1s1.125-.563,1.518.375l1.554.017a.916.916,0,0,1,1.159.1l.427.086a.853.853,0,0,1,1.04-.137l1.553.291s.6-.666,1.058-.24l1.621-.546s.683-.1.785-.392a.684.684,0,0,1,.734-.222l.734-.375s.2-.068.256.051l.444.24a.961.961,0,0,1,1.331-.512v.051s-.137-.836.1-.9a1.615,1.615,0,0,1,.683.068s.136-.392.29-.46a.758.758,0,0,0,.291-.854s.085-.222.273.051a2.436,2.436,0,0,0,.341.41l.136-.854a2.566,2.566,0,0,1-.374-1.808s1.125,1.468,1.313,1.433-.239-.887-.239-.887.444.614.666.528a.522.522,0,0,1,.665.461c.341.341,1.075.939,1.075.939l.409.887.29-.1.5.921s1.485,1.092,1.194,1.86c0,0,1.945,1.417,1.365,2.389l.5,1.774a1.044,1.044,0,0,1,.785.665,3.078,3.078,0,0,0,.443.871l-.188.768a1.362,1.362,0,0,1,1.092,1.007s-.069.632-1.058.324v.716h-1.655l-.392.171.528,1.724.052.528-.12,1.468-.46.529-.956.648s0,.256-.461.358-2.372.512-2.372.512l-1.656.716a1.8,1.8,0,0,1-1.382.478l-1.5.529a10,10,0,0,0-2.15.391c-.768.291-1.519.581-1.928.359a27.167,27.167,0,0,1-4.88-.342l-.751.085s-.478.9-1.588-.051l-.239.426-3.5-1.057-.922.29a1.244,1.244,0,0,1-.733-.392,9.647,9.647,0,0,0-1.092.188,8.5,8.5,0,0,1-2.44-.717c-.648-.443-.871-.358-.871-.358s-.426.188.018,1.229a7.571,7.571,0,0,0,.051,2.269.949.949,0,0,1-.512,1.143c-.085,0-1.74.768-1.433,2.117,0,0-.222,1.518-.222,2.184a4.963,4.963,0,0,1-.512,1.877,4.174,4.174,0,0,0-.137,1.467c-.034.375-.358.615-.614.5,0,0,.751,2.918.342,3.993l.528.529-1.416,2.764s-.239.017.392,3.907c0,0-.2,4.932-.819,8.976a4.62,4.62,0,0,1-3.856,4.01s-.871-.154-1.757-2.85a4.212,4.212,0,0,1,.256-.785s0-.068-2.44-4.113a10.405,10.405,0,0,1-1.177-3.617c.052-.137-.154-1.177-1.911-3.584a8.241,8.241,0,0,1-1.108-2.3c0-.188.682-.46.187-1.04-.648-1.5-2.713-4.079-2.013-5.683a2.747,2.747,0,0,1,1.228-1.143l-.853-1.6.836-1.331.341.2-.12-.461.274-.153s-.341.99.307.443.444-.5.444-.5l-.274-.409s2.168-1.757,1.877-3.242c0,0,1.007.137,1.434-1.365a4.639,4.639,0,0,0,2.661-1.5l.24.2.034-.1.085.273.171-.374s.375.374.478.341.085-.614,1.4-1.091a3.4,3.4,0,0,0,1.45-1.178s1.332,1.485,1.843,1.485c.734.274,1.3-.768,1.3-.768s.6-.751.9-.665c0,0,.514.348,1.758-.118l.05-.019a8.264,8.264,0,0,0-.939-.443l-.29.085a6.979,6.979,0,0,0-1.485-.819s-.512-.871-.9-.648l-.614.017s-.171-.24-.392.256-.375.188-.392,0a3.408,3.408,0,0,0-.137-.546s-.58-.563-.8-.529-.222.341-.222.341-.648-.529-1.058-.274c0,0-.307-.408-.99.069,0,0,.308-1.229-.512-.341a2.442,2.442,0,0,0-2.133-.7s-.562-.546-.785-.018-.051,0-.051,0-1.757-.477-1.928-.239c0,0,.034.529-.154.529a1.258,1.258,0,0,1-.512-.256.659.659,0,0,0-.665-.632.675.675,0,0,1-.7-.58l-.2-.051s-.034.546-.409.426a1.9,1.9,0,0,0-.307.409c-.1.206-.222.035-.392-.1a2.564,2.564,0,0,1-.325-.325l-.563-.051-.325-.785h-.341l-.119.973s-1.4-.358-1.809.307a1.369,1.369,0,0,0-1.177.461c-.154.085-.631.256-.631.256s-.051-1.057-.375-.768c-.325.12-.648.666-.717.785,0,0-.426.529-.853-.2l-.7.614-.682-.171-.257-.256s-.716-.1-.785-.017c0,0-.307.5-.443.5s-.426-.392-.426-.392-.2.477-.358.46a1.372,1.372,0,0,0-.529-.751l-.308-.443-1.6.614s-.051.58-.188.58-.426-.409-.426-.409l-2.423.563-.136.1s-.529.069-.717.1-.12.154-.12.154-1.057-.086-1.007-.2.785-.017.888-.017c0,0-.358-.189-.257-.358s.2-.171.2-.171l-.136-.614.085-.154-.683-.785s-.1-.837.325-.461a3.489,3.489,0,0,0,.563.257c.051-.017.051-.171.051-.171l.392-.257.717.171.12-.1s.034-.6.409-.563a.273.273,0,0,1,.221.174.3.3,0,0,1,.018.048l-.46-1.263s.017-.528.665-.085a4.08,4.08,0,0,1,.666.785l.443-.068s0-.392.12-.41a1.15,1.15,0,0,1,.324.035l-.426-.9.068-.529a10.627,10.627,0,0,0,1.383-.7c.171-.171.836-.154.921-.137a2.013,2.013,0,0,0-.477-1.28s-.631-1.007.068-1.024l.188-.239-.051-.137-.2-1.57-.734.375-1.211.392-.666-.358s-1.04,1.16-1.723.666l-1.842.648a11.947,11.947,0,0,0-1.331-.188,3.375,3.375,0,0,1-.2.922,3.08,3.08,0,0,1-1.451.6,9.788,9.788,0,0,0-1.211,1.365s-1.4-.034-1.451-1.04l.069-.291s-1.025-.342-1.126-.342c0,0-.461-.273-.034-.836S37.111,404.395,37.231,404.172Z" fill="#f1ede9"/></g></g></g></svg>