<svg xmlns="http://www.w3.org/2000/svg" width="101" height="95.5" viewBox="0 0 101 95.5"><g transform="translate(-131 -18)"><g transform="translate(95.913 -378.187)"><path d="M25.177,24.959a5.677,5.677,0,0,1-1.584-.952l.487-7.982q.044-.671.138-2.32t.145-2.434c.035-.52.087-1.094.154-1.716s.167-1.371.295-2.241q.383-2.273.708-3.677T26.511,0h2.721V.7c-.084.049-.232.126-.442.233a2.4,2.4,0,0,0-.5.329,1.1,1.1,0,0,0-.295.435q-.154.4-.708,2.968t-1.016,5.685a42.763,42.763,0,0,0-.493,5.626l-.106,6.159a2.036,2.036,0,0,0,.755,1.6,2.58,2.58,0,0,0,1.756.657,2.443,2.443,0,0,0,1.752-.9,5.511,5.511,0,0,0,1.11-2.125,9.271,9.271,0,0,0,.372-2.586,11.321,11.321,0,0,0-.508-3.583,1.868,1.868,0,0,0-1.813-1.52,2.714,2.714,0,0,0-.777.1,2.431,2.431,0,0,0-.65.318c-.223.149-.458.309-.709.48l-.4-.678.782-.542q1.3-.812,1.811-1.084a2.32,2.32,0,0,1,1.124-.273,2.125,2.125,0,0,1,1.737.816,4.693,4.693,0,0,1,.915,1.952,9.969,9.969,0,0,1,.258,2.208,11.2,11.2,0,0,1-.417,2.767,10.657,10.657,0,0,1-1.17,2.731,6.63,6.63,0,0,1-1.94,2.079,4.566,4.566,0,0,1-2.643.8A6.579,6.579,0,0,1,25.177,24.959Zm12.091.353A4.33,4.33,0,0,1,35.6,24.82a2.415,2.415,0,0,1-1-1.289,7.464,7.464,0,0,1-.352-2.59,19.287,19.287,0,0,1,.532-4.472,6.519,6.519,0,0,1,1.893-3.248,5.722,5.722,0,0,1,3.9-1.34,1.976,1.976,0,0,1,1.63.813,5.164,5.164,0,0,1,.921,2.045,12.647,12.647,0,0,1,.318,2.559,13.837,13.837,0,0,1-.546,4.013,6.075,6.075,0,0,1-1.814,2.9,4.86,4.86,0,0,1-3.306,1.1Zm.105-11.234a10.048,10.048,0,0,0-.781,2.768,25.346,25.346,0,0,0-.27,2.881A16.455,16.455,0,0,0,36.457,22a3.558,3.558,0,0,0,.646,1.651,1.967,1.967,0,0,0,1.537.769,2.334,2.334,0,0,0,2.253-1.746,11.7,11.7,0,0,0,.674-4.2v-.381a9.724,9.724,0,0,0-.642-3.664,2.185,2.185,0,0,0-2.1-1.584C38.224,12.865,37.739,13.281,37.373,14.078ZM8.892,16.312a61.02,61.02,0,0,1-6.116,8.777H1.323l.67-11.629L0,13.939V12.95A8.468,8.468,0,0,0,2.07,12.6,11.848,11.848,0,0,0,4.1,11.685l.374.38a41.857,41.857,0,0,0-1.157,10.6A30.522,30.522,0,0,0,5.825,19.5a26.373,26.373,0,0,0,2.133-3.666,16.41,16.41,0,0,0,1.282-3.7H11l-.706,11.255,2.133-.452v1.1a7.914,7.914,0,0,0-4.531,1.273A54.625,54.625,0,0,0,8.892,16.312Zm6.51,8.777.619-11.308-2.667.539V13.239a10.3,10.3,0,0,0,2.338-.377,15.4,15.4,0,0,0,2.383-.812l-.357,6.792q.039-.092.595-1.459t.9-2.148q.344-.779.688-1.427a4.618,4.618,0,0,1,.649-.971,1.845,1.845,0,0,1,1.376-.7,2.235,2.235,0,0,1,.326.02,1.346,1.346,0,0,1,.161.034v2.265a1.409,1.409,0,0,0-.161-.033,2.362,2.362,0,0,0-.326-.02q-1.329,0-2.8,3.175a28.805,28.805,0,0,0-1.171,3.085q-.514,1.615-.829,2.924a12.283,12.283,0,0,0-.316,1.506Z" transform="translate(79.647 428.059)" fill="#83bf6e" opacity="0.997"/><path d="M37.231,404.172l2.15-1.057a16.935,16.935,0,0,0,1.673-.785L41,401.238a.723.723,0,0,1,.836.017,8.8,8.8,0,0,0,1.468-.768c.1-.171.119-.12.119-.12l.3.473.026.039s2.065-.956,2.167-.956,6.4-1.228,6.518-1.4c0,0,.375-.529.58-.461a.383.383,0,0,1,.222.324l.785-.068.991.46.409-.051a3.7,3.7,0,0,1,3.259-.614,5.306,5.306,0,0,0,1.553-.034c.239-.137,2.013-.529,5.734.545a.5.5,0,0,0,.29.223l.358.034.137-.12s.631-.2,3.635.631c.256.12,3.4.751,3.8.478,0,0,.257.342.529.342s.325.119.325.119.426-.341,1.57.052c.085.034,1.57.528,1.673.528s.29-.357,1.04-.017c.649.358.8.086.8.086a3.288,3.288,0,0,0,1.434.171,2.744,2.744,0,0,1,2.031.494l.768.1s1.125-.563,1.518.375l1.554.017a.916.916,0,0,1,1.159.1l.427.086a.853.853,0,0,1,1.04-.137l1.553.291s.6-.666,1.058-.24l1.621-.546s.683-.1.785-.392a.684.684,0,0,1,.734-.222l.734-.375s.2-.068.256.051l.444.24a.961.961,0,0,1,1.331-.512v.051s-.137-.836.1-.9a1.615,1.615,0,0,1,.683.068s.136-.392.29-.46a.758.758,0,0,0,.291-.854s.085-.222.273.051a2.436,2.436,0,0,0,.341.41l.136-.854a2.566,2.566,0,0,1-.374-1.808s1.125,1.468,1.313,1.433-.239-.887-.239-.887.444.614.666.528a.522.522,0,0,1,.665.461c.341.341,1.075.939,1.075.939l.409.887.29-.1.5.921s1.485,1.092,1.194,1.86c0,0,1.945,1.417,1.365,2.389l.5,1.774a1.044,1.044,0,0,1,.785.665,3.078,3.078,0,0,0,.443.871l-.188.768a1.362,1.362,0,0,1,1.092,1.007s-.069.632-1.058.324v.716h-1.655l-.392.171.528,1.724.052.528-.12,1.468-.46.529-.956.648s0,.256-.461.358-2.372.512-2.372.512l-1.656.716a1.8,1.8,0,0,1-1.382.478l-1.5.529a10,10,0,0,0-2.15.391c-.768.291-1.519.581-1.928.359a27.167,27.167,0,0,1-4.88-.342l-.751.085s-.478.9-1.588-.051l-.239.426-3.5-1.057-.922.29a1.244,1.244,0,0,1-.733-.392,9.647,9.647,0,0,0-1.092.188,8.5,8.5,0,0,1-2.44-.717c-.648-.443-.871-.358-.871-.358s-.426.188.018,1.229a7.571,7.571,0,0,0,.051,2.269.949.949,0,0,1-.512,1.143c-.085,0-1.74.768-1.433,2.117,0,0-.222,1.518-.222,2.184a4.963,4.963,0,0,1-.512,1.877,4.174,4.174,0,0,0-.137,1.467c-.034.375-.358.615-.614.5,0,0,.751,2.918.342,3.993l.528.529-1.416,2.764s-.239.017.392,3.907c0,0-.2,4.932-.819,8.976a4.62,4.62,0,0,1-3.856,4.01s-.871-.154-1.757-2.85a4.212,4.212,0,0,1,.256-.785s0-.068-2.44-4.113a10.405,10.405,0,0,1-1.177-3.617c.052-.137-.154-1.177-1.911-3.584a8.241,8.241,0,0,1-1.108-2.3c0-.188.682-.46.187-1.04-.648-1.5-2.713-4.079-2.013-5.683a2.747,2.747,0,0,1,1.228-1.143l-.853-1.6.836-1.331.341.2-.12-.461.274-.153s-.341.99.307.443.444-.5.444-.5l-.274-.409s2.168-1.757,1.877-3.242c0,0,1.007.137,1.434-1.365a4.639,4.639,0,0,0,2.661-1.5l.24.2.034-.1.085.273.171-.374s.375.374.478.341.085-.614,1.4-1.091a3.4,3.4,0,0,0,1.45-1.178s1.332,1.485,1.843,1.485c.734.274,1.3-.768,1.3-.768s.6-.751.9-.665c0,0,.514.348,1.758-.118l.05-.019a8.264,8.264,0,0,0-.939-.443l-.29.085a6.979,6.979,0,0,0-1.485-.819s-.512-.871-.9-.648l-.614.017s-.171-.24-.392.256-.375.188-.392,0a3.408,3.408,0,0,0-.137-.546s-.58-.563-.8-.529-.222.341-.222.341-.648-.529-1.058-.274c0,0-.307-.408-.99.069,0,0,.308-1.229-.512-.341a2.442,2.442,0,0,0-2.133-.7s-.562-.546-.785-.018-.051,0-.051,0-1.757-.477-1.928-.239c0,0,.034.529-.154.529a1.258,1.258,0,0,1-.512-.256.659.659,0,0,0-.665-.632.675.675,0,0,1-.7-.58l-.2-.051s-.034.546-.409.426a1.9,1.9,0,0,0-.307.409c-.1.206-.222.035-.392-.1a2.564,2.564,0,0,1-.325-.325l-.563-.051-.325-.785h-.341l-.119.973s-1.4-.358-1.809.307a1.369,1.369,0,0,0-1.177.461c-.154.085-.631.256-.631.256s-.051-1.057-.375-.768c-.325.12-.648.666-.717.785,0,0-.426.529-.853-.2l-.7.614-.682-.171-.257-.256s-.716-.1-.785-.017c0,0-.307.5-.443.5s-.426-.392-.426-.392-.2.477-.358.46a1.372,1.372,0,0,0-.529-.751l-.308-.443-1.6.614s-.051.58-.188.58-.426-.409-.426-.409l-2.423.563-.136.1s-.529.069-.717.1-.12.154-.12.154-1.057-.086-1.007-.2.785-.017.888-.017c0,0-.358-.189-.257-.358s.2-.171.2-.171l-.136-.614.085-.154-.683-.785s-.1-.837.325-.461a3.489,3.489,0,0,0,.563.257c.051-.017.051-.171.051-.171l.392-.257.717.171.12-.1s.034-.6.409-.563a.273.273,0,0,1,.221.174.3.3,0,0,1,.018.048l-.46-1.263s.017-.528.665-.085a4.08,4.08,0,0,1,.666.785l.443-.068s0-.392.12-.41a1.15,1.15,0,0,1,.324.035l-.426-.9.068-.529a10.627,10.627,0,0,0,1.383-.7c.171-.171.836-.154.921-.137a2.013,2.013,0,0,0-.477-1.28s-.631-1.007.068-1.024l.188-.239-.051-.137-.2-1.57-.734.375-1.211.392-.666-.358s-1.04,1.16-1.723.666l-1.842.648a11.947,11.947,0,0,0-1.331-.188,3.375,3.375,0,0,1-.2.922,3.08,3.08,0,0,1-1.451.6,9.788,9.788,0,0,0-1.211,1.365s-1.4-.034-1.451-1.04l.069-.291s-1.025-.342-1.126-.342c0,0-.461-.273-.034-.836S37.111,404.395,37.231,404.172Z" fill="#83bf6e"/></g><g transform="translate(-3)"><g opacity="0.4"><text transform="translate(150 90)" fill="#121328" font-size="9" font-family="Optima-Regular, Optima"><tspan x="0" y="0">Technologies Co., Ltd</tspan></text><path d="M13.516-6.889l.128.023a2.339,2.339,0,0,0,.387.043,2.339,2.339,0,0,0,.387-.043l.128-.023-.01.129c-.012.148-.022.329-.031.536s-.016.43-.022.66-.01.464-.013.7,0,.45,0,.647v.405a1.887,1.887,0,0,1,.469-.405,1.7,1.7,0,0,1,.889-.226,1.983,1.983,0,0,1,.536.076,1.324,1.324,0,0,1,.5.267,1.381,1.381,0,0,1,.365.514,2.056,2.056,0,0,1,.139.809c0,.258-.006.528-.018.8s-.018.561-.018.864v.585c0,.094,0,.189,0,.28s.007.179.013.262l.008.118L17.234.117a3.8,3.8,0,0,0-.727,0l-.114.011,0-.115c.012-.311.026-.635.041-.964s.022-.668.022-1.012v-.549a1.6,1.6,0,0,0-.241-.961.75.75,0,0,0-.64-.307.98.98,0,0,0-.843.347A1.687,1.687,0,0,0,14.464-2.4c0,.167,0,.363,0,.584s.008.446.013.669.014.442.022.651.019.378.031.508l.011.119-.119-.01a4.488,4.488,0,0,0-.793,0l-.119.01.01-.119c.012-.136.022-.31.031-.518s.016-.432.022-.664.01-.471.013-.71,0-.463,0-.665V-4.176c0-.2,0-.425,0-.665s-.008-.477-.013-.71-.014-.457-.022-.669-.019-.393-.031-.541Zm.515.266a2.067,2.067,0,0,1-.3-.026c.008.123.016.265.022.421.009.213.017.439.023.672s.011.473.014.712,0,.465,0,.667v1.629c0,.2,0,.427,0,.667s-.008.479-.014.712-.014.458-.023.668c-.007.155-.014.292-.023.409a4.612,4.612,0,0,1,.592,0c-.008-.113-.016-.247-.022-.4-.009-.21-.017-.43-.023-.654s-.011-.45-.014-.672,0-.419,0-.586a1.877,1.877,0,0,1,.313-1.149,1.18,1.18,0,0,1,1-.427.95.95,0,0,1,.8.386,1.783,1.783,0,0,1,.281,1.082v.549c0,.348-.008.692-.023,1.022-.013.289-.025.574-.036.849a4.069,4.069,0,0,1,.536,0c0-.05,0-.1-.006-.153,0-.094,0-.19,0-.287v-.585c0-.306.006-.6.018-.873s.018-.537.018-.792a1.862,1.862,0,0,0-.122-.73,1.184,1.184,0,0,0-.31-.44,1.125,1.125,0,0,0-.426-.228,1.784,1.784,0,0,0-.481-.068,1.5,1.5,0,0,0-.785.2,1.79,1.79,0,0,0-.571.567l-.03.045h-.172v-.784c0-.2,0-.416,0-.649s.008-.468.014-.7.014-.454.023-.663c.007-.154.014-.294.022-.417A2.067,2.067,0,0,1,14.031-6.623ZM28.69-6.889l.128.023a2.339,2.339,0,0,0,.387.043,2.339,2.339,0,0,0,.387-.043l.128-.023-.01.129c-.012.148-.022.33-.031.541s-.016.436-.022.669-.01.471-.013.71,0,.462,0,.665v1.629c0,.2,0,.426,0,.665s.008.477.013.71.014.456.022.664.019.382.031.518l.01.119L29.6.118a4.488,4.488,0,0,0-.793,0l-.119.01L28.7.009c.012-.136.022-.31.031-.518s.016-.432.022-.664.01-.471.013-.71,0-.462,0-.665V-4.176c0-.2,0-.426,0-.665s-.008-.477-.013-.71-.014-.457-.022-.669-.019-.393-.031-.541Zm.515.266a2.067,2.067,0,0,1-.3-.026c.008.123.016.265.022.421.009.213.017.439.023.672s.011.473.014.712,0,.464,0,.667v1.629c0,.2,0,.428,0,.667s-.008.479-.014.712-.014.458-.023.668c-.007.155-.014.292-.023.409a4.613,4.613,0,0,1,.592,0c-.008-.117-.016-.254-.023-.409-.009-.21-.017-.434-.023-.668s-.011-.473-.014-.712,0-.464,0-.667V-4.176c0-.2,0-.428,0-.667s.008-.479.014-.712.014-.46.023-.672c.007-.157.014-.3.022-.421A2.067,2.067,0,0,1,29.205-6.623Zm52.851-.264.121.02q.106.018.2.031a1.332,1.332,0,0,0,.364,0l.21-.031.127-.02-.012.128c-.018.189-.033.467-.045.826s-.023.765-.031,1.2-.017.89-.022,1.349-.009.886-.009,1.268c0,.411,0,.786.009,1.114s.012.669.018,1.017l0,.112L82.88.117C82.764.106,82.649.1,82.539.1s-.216.006-.332.017l-.114.011.02-.624-.02.028a1.679,1.679,0,0,1-.325.33A1.658,1.658,0,0,1,81.3.112a1.844,1.844,0,0,1-.619.1,2.093,2.093,0,0,1-.7-.123,1.618,1.618,0,0,1-.623-.407,2.073,2.073,0,0,1-.436-.718,2.965,2.965,0,0,1-.164-1.039,2.769,2.769,0,0,1,.178-1.036,2.28,2.28,0,0,1,.466-.739,1.9,1.9,0,0,1,.656-.446,1.962,1.962,0,0,1,.735-.147,1.479,1.479,0,0,1,1.3.641v-.523c0-.227,0-.458,0-.687s-.006-.451-.009-.661-.006-.408-.009-.594-.007-.35-.013-.492Zm.732,6.8Q82.78-.555,82.772-1c-.006-.329-.009-.705-.009-1.118,0-.383,0-.81.009-1.27s.014-.915.023-1.351.02-.841.032-1.2c.01-.29.021-.529.035-.711l-.087.013a1.533,1.533,0,0,1-.419,0l-.089-.013c0,.114.007.24.009.376q0,.279.009.594t.009.662c0,.23,0,.462,0,.69v.982h-.181A2.658,2.658,0,0,1,82.333-2.2a3.571,3.571,0,0,1-.079.741A2.248,2.248,0,0,1,82-.782a1.541,1.541,0,0,1-.448.49,1.131,1.131,0,0,1-.66.193,1.4,1.4,0,0,1-.475-.087,1.032,1.032,0,0,1-.444-.323,1.78,1.78,0,0,1-.306-.6,3.081,3.081,0,0,1-.117-.922,3.728,3.728,0,0,1,.079-.782,2.167,2.167,0,0,1,.246-.651,1.3,1.3,0,0,1,.429-.448,1.145,1.145,0,0,1,.615-.164,1.239,1.239,0,0,1,1.062.5,1.423,1.423,0,0,1,.116.188l-.009-.021a1.289,1.289,0,0,0-1.294-.839,1.763,1.763,0,0,0-.66.132,1.7,1.7,0,0,0-.586.4,2.082,2.082,0,0,0-.425.674,2.571,2.571,0,0,0-.164.962,2.768,2.768,0,0,0,.151.968,1.876,1.876,0,0,0,.392.65,1.42,1.42,0,0,0,.547.358,1.894,1.894,0,0,0,.637.111,1.646,1.646,0,0,0,.551-.084,1.459,1.459,0,0,0,.409-.219,1.48,1.48,0,0,0,.287-.291,2.129,2.129,0,0,0,.185-.3l.028-.055h.183L82.3-.091A3.361,3.361,0,0,1,82.788-.091ZM80.892-.3a.935.935,0,0,0,.546-.158,1.343,1.343,0,0,0,.389-.428,2.05,2.05,0,0,0,.231-.614,3.371,3.371,0,0,0,.074-.7,2.127,2.127,0,0,0-.314-1.259,1.036,1.036,0,0,0-.9-.414.949.949,0,0,0-.51.133,1.1,1.1,0,0,0-.363.38,1.968,1.968,0,0,0-.222.591,3.528,3.528,0,0,0-.074.739,2.887,2.887,0,0,0,.108.86,1.584,1.584,0,0,0,.27.529.835.835,0,0,0,.357.262A1.2,1.2,0,0,0,80.892-.3ZM41.211-6.382a.541.541,0,0,1,.395.164.541.541,0,0,1,.164.395.541.541,0,0,1-.164.395.541.541,0,0,1-.395.164.541.541,0,0,1-.395-.164.541.541,0,0,1-.164-.395.541.541,0,0,1,.164-.395A.541.541,0,0,1,41.211-6.382Zm0,.918a.343.343,0,0,0,.253-.106.343.343,0,0,0,.106-.253.343.343,0,0,0-.106-.253.343.343,0,0,0-.253-.106.343.343,0,0,0-.253.106.343.343,0,0,0-.106.253.343.343,0,0,0,.106.253A.343.343,0,0,0,41.211-5.464Zm15.507-.918a4.632,4.632,0,0,1,1.109.124,5.192,5.192,0,0,1,.886.3l.1.045-.055.1a1.1,1.1,0,0,0-.106.313c-.03.143-.054.263-.072.358l-.011.058-.175.058-.044-.052a1.9,1.9,0,0,0-.239-.23,2.682,2.682,0,0,0-.364-.251,2.31,2.31,0,0,0-.466-.2,1.869,1.869,0,0,0-.564-.081,2.69,2.69,0,0,0-.95.165,2.008,2.008,0,0,0-.755.5,2.367,2.367,0,0,0-.5.864,3.868,3.868,0,0,0-.183,1.259A3.868,3.868,0,0,0,54.508-1.8a2.367,2.367,0,0,0,.5.864,2.008,2.008,0,0,0,.755.5,2.69,2.69,0,0,0,.95.165,2.018,2.018,0,0,0,.57-.077,3.118,3.118,0,0,0,.488-.187,2.925,2.925,0,0,0,.4-.235c.121-.086.224-.162.306-.226l.07-.055.135.135L58.593-.3l-.027.024a1.254,1.254,0,0,1-.279.173,2.548,2.548,0,0,1-.44.16c-.167.046-.356.087-.562.123a3.789,3.789,0,0,1-.656.056A4.223,4.223,0,0,1,55.282.027a2.882,2.882,0,0,1-1.076-.639A3.016,3.016,0,0,1,53.5-1.658a3.657,3.657,0,0,1-.255-1.4,3.657,3.657,0,0,1,.255-1.4,2.958,2.958,0,0,1,.717-1.048,3.1,3.1,0,0,1,1.1-.651A4.259,4.259,0,0,1,56.718-6.382Zm1.818.564a5.189,5.189,0,0,0-.757-.246,4.432,4.432,0,0,0-1.06-.119,4.06,4.06,0,0,0-1.335.21,2.9,2.9,0,0,0-1.031.609,2.759,2.759,0,0,0-.669.977,3.459,3.459,0,0,0-.24,1.325,3.459,3.459,0,0,0,.24,1.325,2.818,2.818,0,0,0,.66.978,2.683,2.683,0,0,0,1,.594,4.024,4.024,0,0,0,1.282.2,3.589,3.589,0,0,0,.622-.052c.2-.035.383-.076.545-.119A2.349,2.349,0,0,0,58.2-.283,1.286,1.286,0,0,0,58.407-.4l.049-.321-.164.118a3.125,3.125,0,0,1-.428.251,3.318,3.318,0,0,1-.52.2,2.217,2.217,0,0,1-.627.085A2.889,2.889,0,0,1,55.7-.248,2.207,2.207,0,0,1,54.868-.8a2.565,2.565,0,0,1-.548-.936,4.064,4.064,0,0,1-.195-1.324,4.064,4.064,0,0,1,.195-1.324,2.565,2.565,0,0,1,.548-.936,2.207,2.207,0,0,1,.829-.551,2.889,2.889,0,0,1,1.021-.177,2.068,2.068,0,0,1,.624.09,2.51,2.51,0,0,1,.506.22,2.883,2.883,0,0,1,.392.271q.1.08.169.152c.014-.069.029-.146.047-.231A1.538,1.538,0,0,1,58.536-5.818Zm13.647-.465.121.019q.116.018.222.031a1.641,1.641,0,0,0,.407,0q.107-.013.222-.031l.121-.019-.006.122c-.018.394-.035.786-.049,1.165s-.022.769-.022,1.162c0,.752,0,1.413.009,1.965q.008.77.017,1.39c.388,0,.766-.005,1.123-.013a11.548,11.548,0,0,0,1.249-.1l.15-.02-.041.146a.956.956,0,0,0-.041.243.751.751,0,0,0,.04.213l.042.136L75.6.118C75.331.106,75.054.1,74.781.1H73.12c-.264,0-.543.006-.828.018l-.109,0,.005-.109c.018-.37.035-.751.049-1.133s.022-.773.022-1.166V-3.834c0-.393-.008-.784-.022-1.162s-.032-.771-.049-1.165Zm.546.262a1.846,1.846,0,0,1-.228-.014l-.107-.014c.016.353.031.7.044,1.045.015.38.023.774.023,1.169v1.548c0,.4-.008.79-.023,1.174-.013.345-.028.69-.044,1.026.25-.009.494-.014.727-.014h1.66c.231,0,.465,0,.7.013a.72.72,0,0,1-.015-.138.866.866,0,0,1,.015-.153c-.4.049-.778.078-1.128.086-.389.009-.8.014-1.226.014h-.1v-.1q-.009-.657-.018-1.49C73-2.42,73-3.082,73-3.834c0-.4.008-.789.023-1.169.013-.341.028-.692.044-1.045l-.107.014A1.847,1.847,0,0,1,72.729-6.02ZM.051-6.269l.132,0c.394.012.784.023,1.16.031.751.018,1.566.018,2.317,0,.376-.009.766-.02,1.16-.031l.132,0-.032.128a1.169,1.169,0,0,0-.042.264.975.975,0,0,0,.041.252l.041.147L4.81-5.5c-.123-.018-.265-.033-.421-.044s-.323-.022-.493-.031-.34-.015-.51-.018L3-5.6c-.016.583-.024,1.175-.024,1.763v1.548c0,.393.008.785.022,1.166s.032.763.049,1.133l.006.114L2.934.118C2.8.106,2.654.1,2.5.1S2.2.106,2.07.118l-.114.01L1.961.013C1.979-.358,2-.739,2.011-1.12s.022-.773.022-1.166V-3.834c0-.587-.008-1.18-.024-1.763l-.392,0c-.169,0-.34.009-.509.018s-.335.019-.493.031-.3.027-.421.044l-.151.022.041-.147a1,1,0,0,0,.041-.261,1.157,1.157,0,0,0-.042-.255Zm4.644.554a.939.939,0,0,1-.016-.162,1.023,1.023,0,0,1,.02-.184c-.351.01-.7.02-1.033.028-.754.018-1.573.018-2.327,0C1-6.042.656-6.051.305-6.061a.966.966,0,0,1,.02.175,1,1,0,0,1-.016.171C.4-5.726.5-5.735.6-5.743c.159-.012.326-.023.5-.032s.345-.015.517-.018.336,0,.492,0h.1l0,.1c.018.616.027,1.244.027,1.866v1.548c0,.4-.008.79-.023,1.174C2.2-.769,2.182-.426,2.166-.09a5.694,5.694,0,0,1,.671,0c-.016-.335-.031-.678-.044-1.022-.015-.384-.023-.778-.023-1.174V-3.834c0-.622.009-1.25.027-1.866l0-.1h.1c.156,0,.321,0,.492,0s.345.009.516.018.338.02.5.032C4.507-5.735,4.6-5.726,4.695-5.715Zm72.721.152h.173l-.009.108c-.018.226-.031.45-.04.667-.008.184-.016.37-.026.557l.262,0c.178,0,.373-.01.581-.022l.147-.008-.047.14a.344.344,0,0,0,0,.067v.189a.255.255,0,0,0,0,.059l.04.138-.142-.007c-.076-.006-.157-.01-.239-.013s-.172,0-.266,0H77.5c0,.04-.007.1-.012.193-.009.166-.016.367-.022.6s-.01.472-.013.723,0,.477,0,.674c0,.165,0,.33.013.489a1.391,1.391,0,0,0,.079.407.613.613,0,0,0,.185.268.551.551,0,0,0,.351.095,1.306,1.306,0,0,0,.179-.017,1.424,1.424,0,0,0,.2-.042L78.58-.35V.084L78.5.1c-.1.018-.212.04-.333.067a1.765,1.765,0,0,1-.377.043A1.217,1.217,0,0,1,76.878-.1a1.233,1.233,0,0,1-.3-.889c0-.162,0-.34.009-.53s.014-.4.023-.622.017-.474.022-.745c.005-.244.008-.516.009-.811h-.188c-.046,0-.1,0-.147,0s-.108.007-.167.013l-.13.013.021-.129c.006-.033.01-.066.013-.1s0-.062,0-.094,0-.053,0-.08-.007-.054-.012-.08l-.026-.128.13.009c.2.013.363.022.483.025,0-.1-.007-.216-.009-.347,0-.178-.01-.364-.022-.553l0-.071Zm-.007,1.532H77.3l.006-.105c.012-.221.022-.443.031-.66.007-.173.017-.351.03-.53l-.577.244c.01.168.016.333.018.492,0,.178.007.328.013.447l.005.1h-.105c-.108,0-.268-.007-.479-.019,0,.024,0,.048,0,.072s0,.066,0,.1l.051,0c.056,0,.109,0,.159,0h.388v.1c0,.335,0,.643-.009.916s-.014.524-.023.749-.016.431-.022.62-.009.363-.009.523a1.044,1.044,0,0,0,.242.749,1.03,1.03,0,0,0,.765.249,1.565,1.565,0,0,0,.334-.038c.092-.02.178-.038.259-.053V-.089l-.1.017a1.474,1.474,0,0,1-.208.019A.74.74,0,0,1,77.6-.192a.81.81,0,0,1-.247-.353,1.589,1.589,0,0,1-.092-.466c-.009-.163-.014-.331-.014-.5,0-.2,0-.425,0-.676s.008-.5.014-.726.014-.433.023-.6a1.991,1.991,0,0,1,.025-.307l.019-.076h.519c.1,0,.189,0,.274,0l.13.006v-.165c-.168.008-.327.014-.474.016ZM39.844-4.447l-.029.147a.8.8,0,0,0-.012.084c0,.03,0,.059,0,.085s0,.056,0,.085a.8.8,0,0,0,.012.084l.026.128-.131-.009c-.174-.012-.346-.026-.511-.041L39-3.9a1.347,1.347,0,0,1,.242.328,1.49,1.49,0,0,1,.183.709,1.409,1.409,0,0,1-.49,1.134,1.937,1.937,0,0,1-1.284.406c-.086,0-.172,0-.255-.009s-.159-.009-.24-.009a.36.36,0,0,0-.237.094.27.27,0,0,0-.1.22.366.366,0,0,0,.082.27.537.537,0,0,0,.352.089c.167.006.333.01.494.013s.329.008.5.014a2.725,2.725,0,0,1,.732.1,1.475,1.475,0,0,1,.511.262,1.042,1.042,0,0,1,.3.388,1.182,1.182,0,0,1,.094.472,1.919,1.919,0,0,1-.128.674,1.769,1.769,0,0,1-.4.62,2.117,2.117,0,0,1-.694.454,2.6,2.6,0,0,1-1.011.179A2.5,2.5,0,0,1,36.2,2.148a1.192,1.192,0,0,1-.547-1.032,1.182,1.182,0,0,1,.094-.472,1.419,1.419,0,0,1,.237-.378A1.178,1.178,0,0,1,36.322,0q.068-.036.137-.065a.8.8,0,0,1-.242-.209.822.822,0,0,1-.164-.511.757.757,0,0,1,.068-.321.992.992,0,0,1,.165-.25.877.877,0,0,1,.234-.183l.036-.018A1.557,1.557,0,0,1,36.063-2a1.487,1.487,0,0,1-.253-.882,1.569,1.569,0,0,1,.145-.7,1.359,1.359,0,0,1,.4-.49,1.784,1.784,0,0,1,.581-.286,2.476,2.476,0,0,1,.689-.094c.115,0,.228,0,.334.009s.24.015.4.027c.138.012.261.021.367.027s.192.009.255.009a4.089,4.089,0,0,0,.709-.043Zm-.856.272c-.068,0-.157,0-.267-.009s-.234-.015-.372-.027c-.159-.012-.294-.021-.4-.027s-.211-.009-.323-.009A2.277,2.277,0,0,0,37-4.161a1.585,1.585,0,0,0-.517.254,1.16,1.16,0,0,0-.344.419,1.373,1.373,0,0,0-.125.608,1.293,1.293,0,0,0,.215.765,1.424,1.424,0,0,0,.606.475l.06.026v.141a.534.534,0,0,1,.26-.068c.086,0,.172,0,.255.009s.159.009.24.009A1.745,1.745,0,0,0,38.8-1.881a1.2,1.2,0,0,0,.419-.981,1.292,1.292,0,0,0-.159-.614,1.033,1.033,0,0,0-.41-.432l-.117-.064.143-.143.044,0c.163.006.33.017.5.032.125.011.254.022.384.032,0-.028,0-.055,0-.081s0-.046,0-.07A5.566,5.566,0,0,1,38.988-4.175Zm-1.35,6.487a2.406,2.406,0,0,0,.933-.163,1.919,1.919,0,0,0,.629-.41,1.57,1.57,0,0,0,.356-.55,1.72,1.72,0,0,0,.115-.6.984.984,0,0,0-.077-.392.844.844,0,0,0-.242-.314,1.278,1.278,0,0,0-.443-.224A2.532,2.532,0,0,0,38.23-.44c-.168-.006-.334-.011-.495-.013s-.329-.008-.5-.014a.718.718,0,0,1-.484-.145.551.551,0,0,1-.143-.414.468.468,0,0,1,.175-.374q.023-.019.046-.036l-.024,0a.635.635,0,0,0-.194.07.678.678,0,0,0-.18.141.792.792,0,0,0-.132.2.558.558,0,0,0-.049.237.618.618,0,0,0,.124.389.694.694,0,0,0,.371.235l.072.021V.033l-.076.019a1.476,1.476,0,0,0-.329.126A.978.978,0,0,0,36.138.4a1.219,1.219,0,0,0-.2.324.984.984,0,0,0-.077.392.99.99,0,0,0,.461.867A2.314,2.314,0,0,0,37.638,2.312ZM6.48-4.447a2.189,2.189,0,0,1,.863.157,1.825,1.825,0,0,1,.614.419,1.668,1.668,0,0,1,.369.617,2.317,2.317,0,0,1,.118.743c0,.061,0,.122,0,.181s-.008.119-.014.18l-.009.092L7.36-2.078c-.508-.01-1.038-.016-1.548,0l-.5.015c0,.011,0,.024,0,.038v.117a1.947,1.947,0,0,0,.1.625,1.4,1.4,0,0,0,.281.492,1.353,1.353,0,0,0,.453.327,1.508,1.508,0,0,0,.625.122,1.36,1.36,0,0,0,.344-.046,2.006,2.006,0,0,0,.351-.129A1.922,1.922,0,0,0,7.784-.71a1.619,1.619,0,0,0,.259-.237L8.1-1.011l.173.1L8.2-.361l-.032.025a2.6,2.6,0,0,1-.7.384,2.423,2.423,0,0,1-.868.16A2.644,2.644,0,0,1,5.685.053,2.072,2.072,0,0,1,4.957-.4a2.05,2.05,0,0,1-.473-.7,2.309,2.309,0,0,1-.165-.875,2.736,2.736,0,0,1,.55-1.8A1.989,1.989,0,0,1,6.48-4.447ZM8.234-2.262c0-.027,0-.053.005-.079,0-.055,0-.112,0-.17a2.117,2.117,0,0,0-.107-.679,1.469,1.469,0,0,0-.324-.544,1.626,1.626,0,0,0-.547-.373,1.993,1.993,0,0,0-.784-.14,1.8,1.8,0,0,0-1.458.594,2.544,2.544,0,0,0-.5,1.673,2.11,2.11,0,0,0,.15.8A1.851,1.851,0,0,0,5.1-.544a1.873,1.873,0,0,0,.658.41,2.445,2.445,0,0,0,.852.142,2.225,2.225,0,0,0,.8-.146,2.45,2.45,0,0,0,.612-.329L8.038-.66Q7.974-.6,7.9-.55a2.122,2.122,0,0,1-.354.213A2.206,2.206,0,0,1,7.162-.2a1.56,1.56,0,0,1-.394.053,1.705,1.705,0,0,1-.707-.139,1.551,1.551,0,0,1-.519-.375,1.6,1.6,0,0,1-.322-.561,2.147,2.147,0,0,1-.109-.689v-.117a.827.827,0,0,1,.011-.155l.016-.078.669-.02c.513-.016,1.046-.01,1.557,0Zm3.043-2.185a3.1,3.1,0,0,1,.916.126,1.625,1.625,0,0,1,.6.3l.055.05-.031.067a2.57,2.57,0,0,0-.108.273,3.037,3.037,0,0,0-.083.3l-.017.078H12.4l-.028-.053a1.177,1.177,0,0,0-.158-.219,1.357,1.357,0,0,0-.239-.209,1.388,1.388,0,0,0-.306-.159,1.025,1.025,0,0,0-.361-.061,1.433,1.433,0,0,0-.652.138,1.2,1.2,0,0,0-.441.378,1.684,1.684,0,0,0-.254.582,3.2,3.2,0,0,0-.083.746A2.049,2.049,0,0,0,10.247-.78a1.323,1.323,0,0,0,1.084.437,1.36,1.36,0,0,0,.344-.046,2.006,2.006,0,0,0,.351-.129,1.922,1.922,0,0,0,.321-.192,1.62,1.62,0,0,0,.259-.237l.055-.063.178.107-.014.07a2.6,2.6,0,0,0-.052.425l0,.046-.036.028a2.6,2.6,0,0,1-.7.384,2.628,2.628,0,0,1-1.674.043,2.007,2.007,0,0,1-.743-.4,2.045,2.045,0,0,1-.535-.723,2.59,2.59,0,0,1-.2-1.077,2.469,2.469,0,0,1,.207-1.05,2.157,2.157,0,0,1,.543-.731,2.175,2.175,0,0,1,.769-.425A2.911,2.911,0,0,1,11.277-4.447Zm1.326.526a1.715,1.715,0,0,0-.469-.209,2.9,2.9,0,0,0-.857-.117,2.711,2.711,0,0,0-.816.126,1.975,1.975,0,0,0-.7.385,1.959,1.959,0,0,0-.492.664,2.273,2.273,0,0,0-.189.966,2.394,2.394,0,0,0,.184.993,1.847,1.847,0,0,0,.482.654,1.808,1.808,0,0,0,.67.358,2.428,2.428,0,0,0,1.548-.038,2.456,2.456,0,0,0,.609-.326q.005-.093.017-.186-.059.052-.125.1a2.122,2.122,0,0,1-.354.213,2.206,2.206,0,0,1-.387.141,1.56,1.56,0,0,1-.394.053,1.53,1.53,0,0,1-1.238-.508,2.237,2.237,0,0,1-.419-1.464,3.4,3.4,0,0,1,.088-.793,1.882,1.882,0,0,1,.286-.651A1.393,1.393,0,0,1,10.561-4a1.629,1.629,0,0,1,.743-.159,1.224,1.224,0,0,1,.431.074,1.588,1.588,0,0,1,.351.183,1.557,1.557,0,0,1,.274.241,1.569,1.569,0,0,1,.107.134c.016-.059.033-.116.052-.171C12.544-3.775,12.572-3.85,12.6-3.921Zm8.223-.526a1.983,1.983,0,0,1,.536.076,1.324,1.324,0,0,1,.5.267,1.381,1.381,0,0,1,.365.514,2.056,2.056,0,0,1,.139.809c0,.258-.006.528-.018.8s-.018.561-.018.864v.585c0,.094,0,.189,0,.28s.007.179.013.262l.008.118L22.238.117a3.8,3.8,0,0,0-.727,0L21.4.129l0-.115c.012-.311.026-.635.041-.964s.022-.668.022-1.012v-.549a1.6,1.6,0,0,0-.241-.961.75.75,0,0,0-.64-.307.98.98,0,0,0-.843.347A1.687,1.687,0,0,0,19.468-2.4v.765c0,.268,0,.553.013.847s.028.56.058.8l.015.123L19.431.118a4.488,4.488,0,0,0-.793,0l-.123.011.015-.123c.029-.236.049-.5.058-.8s.013-.58.013-.847v-.936c0-.267,0-.553-.013-.847s-.028-.57-.058-.824l-.016-.134.132.024a2.339,2.339,0,0,0,.387.043.921.921,0,0,0,.142-.012l.2-.032.124-.019-.009.125c-.011.142-.018.286-.022.429a1.885,1.885,0,0,1,.465-.4A1.7,1.7,0,0,1,20.826-4.447ZM22.141-.091c0-.05,0-.1-.006-.153,0-.094,0-.19,0-.287v-.585c0-.306.006-.6.018-.873s.018-.537.018-.792a1.862,1.862,0,0,0-.122-.73,1.184,1.184,0,0,0-.31-.44,1.125,1.125,0,0,0-.426-.228,1.784,1.784,0,0,0-.481-.068,1.5,1.5,0,0,0-.785.2,1.79,1.79,0,0,0-.571.567l-.03.045h-.172v-.1c0-.2.006-.4.019-.6l-.079.012a1.12,1.12,0,0,1-.173.015,2.052,2.052,0,0,1-.291-.025c.022.223.037.461.045.71.009.3.014.584.014.854v.936c0,.269,0,.557-.014.854-.008.25-.023.483-.045.694a4.61,4.61,0,0,1,.584,0c-.022-.211-.038-.444-.045-.694-.009-.3-.014-.584-.014-.854V-2.4a1.877,1.877,0,0,1,.313-1.149,1.18,1.18,0,0,1,1-.427.95.95,0,0,1,.8.386,1.783,1.783,0,0,1,.281,1.082v.549c0,.348-.008.692-.023,1.022-.013.289-.025.574-.036.849A4.069,4.069,0,0,1,22.141-.091Zm3.311-4.356a2.712,2.712,0,0,1,.813.126A2.126,2.126,0,0,1,27-3.915a2.036,2.036,0,0,1,.535.728,2.622,2.622,0,0,1,.2,1.081,2.622,2.622,0,0,1-.2,1.081A2.036,2.036,0,0,1,27-.3a1.958,1.958,0,0,1-.74.393,2.989,2.989,0,0,1-1.615,0A1.954,1.954,0,0,1,23.9-.3a2.036,2.036,0,0,1-.535-.728,2.622,2.622,0,0,1-.2-1.081,2.622,2.622,0,0,1,.2-1.081,2.036,2.036,0,0,1,.535-.728,2.119,2.119,0,0,1,.741-.406A2.727,2.727,0,0,1,25.452-4.447Zm0,4.455a2.814,2.814,0,0,0,.756-.1,1.759,1.759,0,0,0,.664-.354,1.838,1.838,0,0,0,.482-.658,2.426,2.426,0,0,0,.185-1,2.426,2.426,0,0,0-.185-1,1.838,1.838,0,0,0-.482-.658,1.927,1.927,0,0,0-.668-.368,2.48,2.48,0,0,0-1.5,0,1.92,1.92,0,0,0-.672.368,1.838,1.838,0,0,0-.482.658,2.426,2.426,0,0,0-.185,1,2.426,2.426,0,0,0,.185,1,1.838,1.838,0,0,0,.482.658A1.756,1.756,0,0,0,24.7-.1,2.83,2.83,0,0,0,25.452.008Zm7.506-4.455a2.712,2.712,0,0,1,.813.126,2.126,2.126,0,0,1,.736.406,2.036,2.036,0,0,1,.535.728,2.622,2.622,0,0,1,.2,1.081,2.622,2.622,0,0,1-.2,1.081,2.036,2.036,0,0,1-.535.728,1.958,1.958,0,0,1-.74.393,2.989,2.989,0,0,1-1.615,0A1.954,1.954,0,0,1,31.409-.3a2.036,2.036,0,0,1-.535-.728,2.622,2.622,0,0,1-.2-1.081,2.622,2.622,0,0,1,.2-1.081,2.036,2.036,0,0,1,.535-.728,2.119,2.119,0,0,1,.741-.406A2.727,2.727,0,0,1,32.958-4.447Zm0,4.455a2.814,2.814,0,0,0,.756-.1,1.759,1.759,0,0,0,.664-.354,1.838,1.838,0,0,0,.482-.658,2.426,2.426,0,0,0,.185-1,2.426,2.426,0,0,0-.185-1,1.838,1.838,0,0,0-.482-.658,1.927,1.927,0,0,0-.668-.368,2.48,2.48,0,0,0-1.5,0,1.92,1.92,0,0,0-.672.368,1.838,1.838,0,0,0-.482.658,2.426,2.426,0,0,0-.185,1,2.426,2.426,0,0,0,.185,1,1.838,1.838,0,0,0,.482.658,1.756,1.756,0,0,0,.669.354A2.83,2.83,0,0,0,32.958.008Zm11.88-4.455a2.189,2.189,0,0,1,.863.157,1.825,1.825,0,0,1,.614.419,1.667,1.667,0,0,1,.369.617,2.317,2.317,0,0,1,.118.743c0,.061,0,.122,0,.181s-.008.119-.014.18l-.009.092-1.055-.02c-.508-.01-1.038-.016-1.548,0l-.5.015c0,.011,0,.024,0,.038v.117a1.947,1.947,0,0,0,.1.625,1.4,1.4,0,0,0,.281.492,1.353,1.353,0,0,0,.453.327,1.508,1.508,0,0,0,.625.122,1.36,1.36,0,0,0,.344-.046,2.006,2.006,0,0,0,.351-.129,1.922,1.922,0,0,0,.321-.192A1.621,1.621,0,0,0,46.4-.947l.055-.063.173.1-.067.546-.032.025a2.6,2.6,0,0,1-.7.384,2.423,2.423,0,0,1-.868.16,2.644,2.644,0,0,1-.921-.155A2.072,2.072,0,0,1,43.315-.4a2.05,2.05,0,0,1-.473-.7,2.309,2.309,0,0,1-.165-.875,2.736,2.736,0,0,1,.55-1.8A1.989,1.989,0,0,1,44.838-4.447Zm1.754,2.185c0-.027,0-.053.005-.079,0-.055,0-.112,0-.17a2.117,2.117,0,0,0-.107-.679,1.469,1.469,0,0,0-.324-.544,1.626,1.626,0,0,0-.547-.373,1.993,1.993,0,0,0-.784-.14,1.8,1.8,0,0,0-1.458.594,2.544,2.544,0,0,0-.5,1.673,2.11,2.11,0,0,0,.15.8,1.851,1.851,0,0,0,.427.636,1.873,1.873,0,0,0,.658.41,2.445,2.445,0,0,0,.852.142,2.225,2.225,0,0,0,.8-.146,2.45,2.45,0,0,0,.612-.329L46.4-.66q-.064.057-.135.11a2.122,2.122,0,0,1-.354.213A2.206,2.206,0,0,1,45.52-.2a1.56,1.56,0,0,1-.394.053,1.705,1.705,0,0,1-.707-.139A1.551,1.551,0,0,1,43.9-.658a1.6,1.6,0,0,1-.322-.561,2.147,2.147,0,0,1-.109-.689v-.117a.828.828,0,0,1,.011-.155l.016-.078.669-.02c.513-.016,1.046-.01,1.557,0Zm2.269-2.185a1.651,1.651,0,0,1,.6.1c.151.059.3.113.433.161l.11.038-.055.1a1.922,1.922,0,0,0-.128.316,2.311,2.311,0,0,0-.078.292l-.014.084h-.265l-.023-.068a.759.759,0,0,0-.248-.342.676.676,0,0,0-.449-.148.754.754,0,0,0-.238.04.647.647,0,0,0-.211.117.62.62,0,0,0-.155.2.662.662,0,0,0-.061.3.5.5,0,0,0,.128.375,1.012,1.012,0,0,0,.357.225,4.066,4.066,0,0,0,.5.154,2.374,2.374,0,0,1,.536.2,1.219,1.219,0,0,1,.426.367,1.091,1.091,0,0,1,.177.653,1.352,1.352,0,0,1-.121.554,1.544,1.544,0,0,1-.346.486,1.593,1.593,0,0,1-.542.336,2,2,0,0,1-.71.119,2.634,2.634,0,0,1-.721-.085,2.273,2.273,0,0,1-.49-.2l-.08-.045L47.231-.2a2.26,2.26,0,0,0,.107-.305,1.173,1.173,0,0,0,.055-.31v-.1h.27l.028.055a.878.878,0,0,0,.125.177,1.252,1.252,0,0,0,.208.187,1.175,1.175,0,0,0,.274.145.9.9,0,0,0,.32.057.91.91,0,0,0,.3-.049.8.8,0,0,0,.248-.136A.613.613,0,0,0,49.329-.7a.72.72,0,0,0,.062-.308.461.461,0,0,0-.126-.355,1.147,1.147,0,0,0-.36-.223,4.042,4.042,0,0,0-.5-.162,2.262,2.262,0,0,1-.537-.212,1.31,1.31,0,0,1-.424-.375,1.091,1.091,0,0,1-.177-.653,1.559,1.559,0,0,1,.106-.582,1.3,1.3,0,0,1,.312-.463,1.454,1.454,0,0,1,.5-.3A1.938,1.938,0,0,1,48.861-4.447Zm.86.409c-.107-.039-.219-.081-.334-.126a1.456,1.456,0,0,0-.526-.083,1.74,1.74,0,0,0-.6.1,1.255,1.255,0,0,0-.434.262,1.1,1.1,0,0,0-.264.392,1.361,1.361,0,0,0-.092.507.9.9,0,0,0,.138.535,1.112,1.112,0,0,0,.359.318,2.062,2.062,0,0,0,.489.193,4.238,4.238,0,0,1,.525.171,1.345,1.345,0,0,1,.423.263.657.657,0,0,1,.189.5.918.918,0,0,1-.082.394.811.811,0,0,1-.221.287,1,1,0,0,1-.31.17,1.11,1.11,0,0,1-.361.059,1.1,1.1,0,0,1-.391-.069,1.375,1.375,0,0,1-.32-.17,1.452,1.452,0,0,1-.242-.218,1.375,1.375,0,0,1-.086-.108,1.81,1.81,0,0,1-.049.209c-.028.1-.055.178-.081.246a2.285,2.285,0,0,0,.368.139,2.439,2.439,0,0,0,.665.077,1.805,1.805,0,0,0,.64-.106A1.394,1.394,0,0,0,49.6-.392a1.345,1.345,0,0,0,.3-.423,1.154,1.154,0,0,0,.1-.472.9.9,0,0,0-.138-.535,1.02,1.02,0,0,0-.357-.308,2.175,2.175,0,0,0-.49-.181,4.268,4.268,0,0,1-.525-.161,1.211,1.211,0,0,1-.426-.27.7.7,0,0,1-.187-.516.859.859,0,0,1,.083-.387.818.818,0,0,1,.205-.266.846.846,0,0,1,.275-.153.953.953,0,0,1,.3-.05.879.879,0,0,1,.577.194,1.016,1.016,0,0,1,.256.307c.014-.052.031-.111.053-.179A2.45,2.45,0,0,1,49.721-4.038ZM61.47-4.447a2.712,2.712,0,0,1,.813.126,2.126,2.126,0,0,1,.736.406,2.036,2.036,0,0,1,.535.728,2.622,2.622,0,0,1,.2,1.081,2.622,2.622,0,0,1-.2,1.081,2.036,2.036,0,0,1-.535.728A1.958,1.958,0,0,1,62.28.1a2.989,2.989,0,0,1-1.615,0A1.954,1.954,0,0,1,59.921-.3a2.036,2.036,0,0,1-.535-.728,2.622,2.622,0,0,1-.2-1.081,2.622,2.622,0,0,1,.2-1.081,2.036,2.036,0,0,1,.535-.728,2.119,2.119,0,0,1,.741-.406A2.727,2.727,0,0,1,61.47-4.447Zm0,4.455a2.814,2.814,0,0,0,.756-.1,1.759,1.759,0,0,0,.664-.354,1.838,1.838,0,0,0,.482-.658,2.426,2.426,0,0,0,.185-1,2.426,2.426,0,0,0-.185-1,1.838,1.838,0,0,0-.482-.658,1.927,1.927,0,0,0-.668-.368,2.48,2.48,0,0,0-1.5,0,1.92,1.92,0,0,0-.672.368,1.838,1.838,0,0,0-.482.658,2.426,2.426,0,0,0-.185,1,2.426,2.426,0,0,0,.185,1,1.838,1.838,0,0,0,.482.658,1.756,1.756,0,0,0,.669.354A2.83,2.83,0,0,0,61.47.008ZM40.691-4.379l.132.024a2.339,2.339,0,0,0,.387.043,2.339,2.339,0,0,0,.387-.043l.132-.024-.016.134c-.03.254-.049.531-.058.824s-.013.58-.013.847v.936c0,.268,0,.553.013.847s.028.56.058.8l.015.123L41.607.118a4.488,4.488,0,0,0-.793,0l-.123.011.015-.123c.029-.236.049-.5.058-.8s.013-.58.013-.847v-.936c0-.268,0-.553-.013-.847s-.028-.57-.058-.824ZM41.5-.091c-.022-.211-.038-.444-.045-.694-.009-.3-.014-.584-.014-.854v-.936c0-.27,0-.557.014-.854.008-.249.023-.487.045-.71a2.052,2.052,0,0,1-.291.025,2.052,2.052,0,0,1-.291-.025c.022.223.037.461.045.71.009.3.014.584.014.854v.936c0,.27,0,.557-.014.854-.008.25-.023.483-.045.694A4.61,4.61,0,0,1,41.5-.091Zm-3.865-4.1a1.015,1.015,0,0,1,.785.33,1.343,1.343,0,0,1,.3.931,2.051,2.051,0,0,1-.062.506,1.35,1.35,0,0,1-.195.437,1.012,1.012,0,0,1-.339.309,1,1,0,0,1-.494.116,1,1,0,0,1-.849-.368,1.558,1.558,0,0,1-.268-.956,1.442,1.442,0,0,1,.293-.941A1.024,1.024,0,0,1,37.638-4.186Zm-.009,2.43a.8.8,0,0,0,.4-.091A.813.813,0,0,0,38.3-2.1a1.15,1.15,0,0,0,.165-.373,1.852,1.852,0,0,0,.055-.457,1.154,1.154,0,0,0-.244-.8.813.813,0,0,0-.637-.264.822.822,0,0,0-.679.292,1.249,1.249,0,0,0-.247.814,1.367,1.367,0,0,0,.227.835A.8.8,0,0,0,37.629-1.756ZM6.5-4.159a1.061,1.061,0,0,1,.625.171,1.179,1.179,0,0,1,.368.423,1.708,1.708,0,0,1,.172.535,3.579,3.579,0,0,1,.042.528v.1l-.1,0-.594.018c-.2.006-.408.009-.606.009s-.391,0-.592-.009L5.235-2.4l-.1,0,.008-.1a2.78,2.78,0,0,1,.1-.537,1.93,1.93,0,0,1,.237-.531,1.418,1.418,0,0,1,.406-.411A1.093,1.093,0,0,1,6.5-4.159ZM7.5-2.6A3.509,3.509,0,0,0,7.466-3a1.509,1.509,0,0,0-.152-.473.981.981,0,0,0-.307-.351A.869.869,0,0,0,6.5-3.959a.9.9,0,0,0-.507.136,1.219,1.219,0,0,0-.35.354,1.73,1.73,0,0,0-.213.477,2.722,2.722,0,0,0-.081.394l.473.015c.2.006.4.009.587.009s.4,0,.6-.009Zm17.949-1.56a1.377,1.377,0,0,1,.717.176,1.333,1.333,0,0,1,.467.471,2.05,2.05,0,0,1,.242.657,3.971,3.971,0,0,1,.069.748,3.971,3.971,0,0,1-.069.748,2.05,2.05,0,0,1-.242.657,1.333,1.333,0,0,1-.467.471,1.377,1.377,0,0,1-.717.176,1.377,1.377,0,0,1-.717-.176A1.333,1.333,0,0,1,24.268-.7a2.05,2.05,0,0,1-.242-.657,3.971,3.971,0,0,1-.069-.748,3.971,3.971,0,0,1,.069-.748,2.05,2.05,0,0,1,.242-.657,1.333,1.333,0,0,1,.467-.471A1.377,1.377,0,0,1,25.452-4.159Zm0,3.906A1.182,1.182,0,0,0,26.067-.4a1.136,1.136,0,0,0,.4-.4,1.851,1.851,0,0,0,.217-.594,3.77,3.77,0,0,0,.066-.71,3.77,3.77,0,0,0-.066-.71,1.851,1.851,0,0,0-.217-.594,1.136,1.136,0,0,0-.4-.4,1.182,1.182,0,0,0-.615-.148,1.182,1.182,0,0,0-.615.148,1.136,1.136,0,0,0-.4.4,1.851,1.851,0,0,0-.217.594,3.77,3.77,0,0,0-.066.71,3.77,3.77,0,0,0,.066.71A1.851,1.851,0,0,0,24.44-.8a1.136,1.136,0,0,0,.4.4A1.182,1.182,0,0,0,25.452-.253Zm7.506-3.906a1.377,1.377,0,0,1,.717.176,1.333,1.333,0,0,1,.467.471,2.05,2.05,0,0,1,.242.657,3.971,3.971,0,0,1,.069.748,3.971,3.971,0,0,1-.069.748,2.05,2.05,0,0,1-.242.657,1.333,1.333,0,0,1-.467.471,1.377,1.377,0,0,1-.717.176,1.377,1.377,0,0,1-.717-.176A1.333,1.333,0,0,1,31.774-.7a2.05,2.05,0,0,1-.242-.657,3.971,3.971,0,0,1-.069-.748,3.971,3.971,0,0,1,.069-.748,2.05,2.05,0,0,1,.242-.657,1.333,1.333,0,0,1,.467-.471A1.377,1.377,0,0,1,32.958-4.159Zm0,3.906A1.182,1.182,0,0,0,33.573-.4a1.136,1.136,0,0,0,.4-.4,1.851,1.851,0,0,0,.217-.594,3.77,3.77,0,0,0,.066-.71,3.77,3.77,0,0,0-.066-.71,1.851,1.851,0,0,0-.217-.594,1.136,1.136,0,0,0-.4-.4,1.182,1.182,0,0,0-.615-.148,1.182,1.182,0,0,0-.615.148,1.136,1.136,0,0,0-.4.4,1.851,1.851,0,0,0-.217.594,3.77,3.77,0,0,0-.066.71,3.77,3.77,0,0,0,.066.71,1.851,1.851,0,0,0,.217.594,1.136,1.136,0,0,0,.4.4A1.182,1.182,0,0,0,32.958-.253Zm11.9-3.906a1.061,1.061,0,0,1,.625.171,1.179,1.179,0,0,1,.368.423,1.708,1.708,0,0,1,.172.535,3.579,3.579,0,0,1,.042.528v.1l-.1,0-.594.018c-.2.006-.408.009-.606.009s-.391,0-.592-.009L43.593-2.4l-.1,0,.008-.1a2.781,2.781,0,0,1,.1-.537,1.93,1.93,0,0,1,.237-.531,1.417,1.417,0,0,1,.406-.411A1.093,1.093,0,0,1,44.856-4.159ZM45.861-2.6a3.509,3.509,0,0,0-.038-.4,1.509,1.509,0,0,0-.152-.473.981.981,0,0,0-.307-.351.869.869,0,0,0-.509-.135.9.9,0,0,0-.507.136,1.219,1.219,0,0,0-.35.354,1.73,1.73,0,0,0-.213.477,2.725,2.725,0,0,0-.081.394l.473.015c.2.006.4.009.587.009s.4,0,.6-.009ZM61.47-4.159a1.377,1.377,0,0,1,.717.176,1.333,1.333,0,0,1,.467.471,2.05,2.05,0,0,1,.242.657,3.971,3.971,0,0,1,.069.748,3.971,3.971,0,0,1-.069.748,2.05,2.05,0,0,1-.242.657,1.333,1.333,0,0,1-.467.471,1.377,1.377,0,0,1-.717.176,1.377,1.377,0,0,1-.717-.176A1.333,1.333,0,0,1,60.286-.7a2.05,2.05,0,0,1-.242-.657,3.971,3.971,0,0,1-.069-.748,3.971,3.971,0,0,1,.069-.748,2.05,2.05,0,0,1,.242-.657,1.333,1.333,0,0,1,.467-.471A1.377,1.377,0,0,1,61.47-4.159Zm0,3.906A1.182,1.182,0,0,0,62.085-.4a1.136,1.136,0,0,0,.4-.4A1.851,1.851,0,0,0,62.7-1.4a3.77,3.77,0,0,0,.066-.71,3.77,3.77,0,0,0-.066-.71,1.851,1.851,0,0,0-.217-.594,1.136,1.136,0,0,0-.4-.4,1.182,1.182,0,0,0-.615-.148,1.182,1.182,0,0,0-.615.148,1.136,1.136,0,0,0-.4.4,1.851,1.851,0,0,0-.217.594,3.77,3.77,0,0,0-.066.71,3.77,3.77,0,0,0,.066.71,1.851,1.851,0,0,0,.217.594,1.136,1.136,0,0,0,.4.4A1.182,1.182,0,0,0,61.47-.253Zm6.363-.864a.508.508,0,0,1,.274.088.353.353,0,0,1,.159.318.538.538,0,0,1-.056.243l-.094.187L66.948,1.672l-.328-.128.722-2.25a.8.8,0,0,1,.143-.261A.421.421,0,0,1,67.833-1.117Zm.11.736.088-.177a.335.335,0,0,0,.034-.153A.156.156,0,0,0,68-.861a.313.313,0,0,0-.167-.056.229.229,0,0,0-.192.075.6.6,0,0,0-.108.2l-.658,2.052Zm-2.72-.637a.591.591,0,0,1,.431.182.591.591,0,0,1,.182.431.548.548,0,0,1-.186.42.616.616,0,0,1-.427.166A.616.616,0,0,1,64.8.015.548.548,0,0,1,64.61-.4a.591.591,0,0,1,.182-.431A.591.591,0,0,1,65.223-1.018Zm0,1a.417.417,0,0,0,.293-.113.351.351,0,0,0,.12-.273.393.393,0,0,0-.124-.289.393.393,0,0,0-.289-.124.393.393,0,0,0-.289.124A.393.393,0,0,0,64.81-.4a.351.351,0,0,0,.12.273A.417.417,0,0,0,65.223-.019ZM37.746-.1a1.977,1.977,0,0,1,1.1.234.947.947,0,0,1,.358.838,1.147,1.147,0,0,1-.139.576,1.232,1.232,0,0,1-.357.4,1.57,1.57,0,0,1-.495.231,2.1,2.1,0,0,1-.558.076,2.184,2.184,0,0,1-.547-.066,1.256,1.256,0,0,1-.454-.216,1.058,1.058,0,0,1-.308-.387,1.3,1.3,0,0,1-.113-.565.946.946,0,0,1,.418-.882A2.152,2.152,0,0,1,37.746-.1Zm-.09,2.151a1.9,1.9,0,0,0,.5-.068,1.371,1.371,0,0,0,.432-.2,1.033,1.033,0,0,0,.3-.333.951.951,0,0,0,.113-.477A.753.753,0,0,0,38.733.3a1.83,1.83,0,0,0-.987-.2,1.963,1.963,0,0,0-.993.206.752.752,0,0,0-.32.711,1.107,1.107,0,0,0,.094.479.86.86,0,0,0,.25.315,1.057,1.057,0,0,0,.383.18A1.984,1.984,0,0,0,37.656,2.051Z" transform="translate(150 90)" fill="#121328"/></g><text transform="translate(149 111.5)" fill="#121328" font-size="18.6" font-family="jf-jinxuan-Medium, jf-jinxuan" font-weight="500" letter-spacing="0.2em"><tspan x="0" y="0">東柏資訊</tspan></text><path d="M61.287,1.961a.25.25,0,0,1-.109-.025A67.329,67.329,0,0,0,54.865-.507.25.25,0,0,1,54.7-.8l.147-.6H52.532l.986.946a.25.25,0,0,1,.074.216.25.25,0,0,1-.132.186,24.809,24.809,0,0,1-7.379,1.905.25.25,0,0,1-.27-.186l-.167-.651a.25.25,0,0,1,.183-.305,19.443,19.443,0,0,0,5.327-2.111h-2.98a.25.25,0,0,1-.25-.25v-6.77a.25.25,0,0,1,.25-.25H50.02l-.152-.516a.25.25,0,0,1,.024-.2.25.25,0,0,1,.159-.118c2.553-.593,4.073-1.8,4.756-3.784h-1.33a10.16,10.16,0,0,1-2.349,2.463.25.25,0,0,1-.327-.029l-.446-.465a.251.251,0,0,1-.026-.032A21.51,21.51,0,0,1,47-7.68a.25.25,0,0,1-.192.061.25.25,0,0,1-.175-.1l-.986-1.339a.25.25,0,0,1-.044-.195.25.25,0,0,1,.113-.165,25.513,25.513,0,0,0,4.016-3.039.25.25,0,0,1,.333-.009l.484.409a.249.249,0,0,1,.064.083,11.075,11.075,0,0,0,1.935-4,.25.25,0,0,1,.306-.168l1.544.428a.25.25,0,0,1,.155.125.25.25,0,0,1,.014.2,7.955,7.955,0,0,1-.315.765H59.3l.368-.224a.25.25,0,0,1,.255,0L61.412-14a.25.25,0,0,1,.12.164.25.25,0,0,1-.041.2,10.788,10.788,0,0,1-2.584,2.6,11.831,11.831,0,0,0,3.186.917.25.25,0,0,1,.178.128.25.25,0,0,1,.008.219l-.707,1.6a.25.25,0,0,1-.284.143,7.935,7.935,0,0,1-1.316-.43.252.252,0,0,1,0,.037v6.77a.25.25,0,0,1-.25.25h-2.56A33.23,33.23,0,0,1,62.109-.331a.25.25,0,0,1,.149.133.25.25,0,0,1,0,.2l-.744,1.8a.25.25,0,0,1-.231.155ZM55.241-.907c1.885.641,4.411,1.583,5.915,2.28L61.7.063A41.867,41.867,0,0,0,55.3-1.157Zm-9.05,2.038.05.2A25.485,25.485,0,0,0,52.913-.347l-.979-.939A20,20,0,0,1,46.191,1.131Zm2.233-3.036H59.475v-6.27H48.424ZM46.209-9.139l.664.9a21.14,21.14,0,0,0,3.178-3.587l-.14-.118A25.881,25.881,0,0,1,46.209-9.139Zm10-2.941a.25.25,0,0,1,.214.121A7.263,7.263,0,0,0,58.8-9.637,8.963,8.963,0,0,0,61.2-8.569l.493-1.116a12.286,12.286,0,0,1-2.651-.747,7.087,7.087,0,0,1-2.668-1.941.25.25,0,0,1-.041-.258,7.733,7.733,0,0,0,.324-.973.25.25,0,0,1,.242-.186h2.455a.25.25,0,0,1,.21.115.25.25,0,0,1,.017.239,10.013,10.013,0,0,1-.964,1.75l.136.142a10.219,10.219,0,0,0,2.168-2.161L59.8-14.348l-.3.183a.25.25,0,0,1-.13.036H53.847a.25.25,0,0,1-.214-.121.25.25,0,0,1-.007-.246A8.291,8.291,0,0,0,54-15.307l-1.047-.29a10.982,10.982,0,0,1-2.08,4.093l.136.142a9.8,9.8,0,0,0,2.126-2.316.25.25,0,0,1,.209-.112h1.8a.25.25,0,0,1,.2.1.25.25,0,0,1,.04.22c-.662,2.3-2.243,3.7-4.967,4.39l.054.184a6.93,6.93,0,0,0,5.518-3.06A.251.251,0,0,1,56.209-12.08ZM52.1-8.676H59.5a8.645,8.645,0,0,1-3.292-2.693A6.966,6.966,0,0,1,52.1-8.676Zm4.756-3.91a6.436,6.436,0,0,0,1.257,1.093.25.25,0,0,1-.019-.315,8.656,8.656,0,0,0,.871-1.483H57.088C57.018-13.047,56.939-12.811,56.851-12.586ZM10.081,1.868H8.37a.25.25,0,0,1-.25-.25v-4.8a20.146,20.146,0,0,1-6.865,4.33A.25.25,0,0,1,.94,1L.679.353A.25.25,0,0,1,.807.033,18.287,18.287,0,0,0,7.063-5.051h-3.7a.25.25,0,0,1-.25-.25v-5.8a.25.25,0,0,1,.25-.25H8.12v-1.025H1.581a.25.25,0,0,1-.25-.25v-1.023a.25.25,0,0,1,.25-.25H8.12v-1.87a.25.25,0,0,1,.25-.25h1.711a.25.25,0,0,1,.25.25v1.87H17a.25.25,0,0,1,.25.25v1.023a.25.25,0,0,1-.25.25H10.331v1.025H15.1a.25.25,0,0,1,.25.25v5.8a.25.25,0,0,1-.25.25H11.027a19.924,19.924,0,0,0,6.8,3.867.25.25,0,0,1,.15.15.25.25,0,0,1-.019.211l-1.079,1.86a.25.25,0,0,1-.32.1A17.684,17.684,0,0,1,10.331-3.65V1.618A.25.25,0,0,1,10.081,1.868Zm-1.461-.5H9.831V-4.427a.25.25,0,0,1,.179-.24.25.25,0,0,1,.281.1A16.385,16.385,0,0,0,16.564.588l.815-1.405A18.961,18.961,0,0,1,10.25-5.132a.25.25,0,0,1-.044-.27.25.25,0,0,1,.229-.149h4.419v-5.3H10.081a.25.25,0,0,1-.25-.25v-1.525a.25.25,0,0,1,.25-.25H16.75V-13.4H10.081a.25.25,0,0,1-.25-.25v-1.87H8.62v1.87a.25.25,0,0,1-.25.25H1.831v.523H8.37a.25.25,0,0,1,.25.25V-11.1a.25.25,0,0,1-.25.25H3.617v5.3H7.552a.25.25,0,0,1,.221.134.25.25,0,0,1-.015.258A18.719,18.719,0,0,1,1.231.386l.083.208A19.473,19.473,0,0,0,8.183-3.979a.25.25,0,0,1,.276-.068.25.25,0,0,1,.161.234Zm69.8.463H76.744a.25.25,0,0,1-.25-.25V-6.855H74.735a.249.249,0,0,1-.141-.043v.463a.25.25,0,0,1-.25.25H68.615a.25.25,0,0,1-.25-.25v-.818a.25.25,0,0,1,.25-.25h5.729a.249.249,0,0,1,.141.043v-.481a.25.25,0,0,1,.25-.25h1.759v-5.266H74.716a.25.25,0,0,1-.25-.25v-.837a.25.25,0,0,1,.25-.25H82.6a.25.25,0,0,1,.25.25v4.78c0,2.68.079,4.945.228,6.551a8.039,8.039,0,0,0,.4,2.277,22.083,22.083,0,0,0,.062-2.76.25.25,0,0,1,.072-.179.25.25,0,0,1,.178-.074h.67a.25.25,0,0,1,.241.184c.664,2.421.679,4.141.043,4.974a1.287,1.287,0,0,1-1.055.528,1.772,1.772,0,0,1-.683-.146c-1.022-.43-1.646-1.625-1.967-3.762a38.138,38.138,0,0,1-.307-4.755.249.249,0,0,1-.178.074H78.668V1.581A.25.25,0,0,1,78.418,1.831Zm-1.424-.5h1.174V-7.105a.25.25,0,0,1,.25-.25h1.889v-.337H78.418a.25.25,0,0,1-.25-.25v-5.766a.25.25,0,0,1,.25-.25h2.548a.25.25,0,0,1,.25.25v3.925c0,5.9.142,10.136,1.986,10.911a1.276,1.276,0,0,0,.489.107A.793.793,0,0,0,84.349.9c.3-.394.682-1.481-.078-4.355h-.225c.027,2.224-.022,2.77-.249,3a.364.364,0,0,1-.264.112.505.505,0,0,1-.294-.109c-.128-.093-.424-.309-.648-2.637-.156-1.627-.238-3.937-.238-6.68V-14.3H74.966v.337h1.777a.25.25,0,0,1,.25.25v5.766a.25.25,0,0,1-.25.25H74.985v.337h1.759a.25.25,0,0,1,.25.25ZM68.865-6.686h5.229V-7H68.865Zm9.8-1.507h1.889a.249.249,0,0,1,.164.061c0-.543,0-1.1,0-1.653v-3.675H78.668ZM32.476,1.831H30.8a.25.25,0,0,1-.25-.25V-6.068l-1.124.855a.25.25,0,0,1-.21.044.25.25,0,0,1-.167-.135c-.3-.626-.592-1.2-.845-1.686V1.581a.25.25,0,0,1-.25.25h-1.6a.25.25,0,0,1-.25-.25v-7.6a15.846,15.846,0,0,1-2.338,3.7.25.25,0,0,1-.176.08.25.25,0,0,1-.18-.07l-.484-.465a.25.25,0,0,1-.037-.315,22.48,22.48,0,0,0,2.914-7.26H23.473a.25.25,0,0,1-.25-.25v-.856a.25.25,0,0,1,.25-.25h2.633v-3.935a.25.25,0,0,1,.25-.25h1.6a.25.25,0,0,1,.25.25v3.935h2.131a.25.25,0,0,1,.215.122v-.282a.25.25,0,0,1,.25-.25h2.627a35.314,35.314,0,0,0,.64-3.777.25.25,0,0,1,.1-.173.25.25,0,0,1,.193-.046l1.9.335a.25.25,0,0,1,.174.124.25.25,0,0,1,.015.213A27.569,27.569,0,0,1,34.9-12.117h4.326a.25.25,0,0,1,.25.25v13.3a.25.25,0,0,1-.25.25H37.553a.25.25,0,0,1-.25-.25V.269H32.726V1.581A.25.25,0,0,1,32.476,1.831Zm-1.424-.5h1.174V.019a.25.25,0,0,1,.25-.25h5.078a.25.25,0,0,1,.25.25V1.182h1.174v-12.8H34.466a.25.25,0,0,1-.218-.127.25.25,0,0,1,0-.252,25.333,25.333,0,0,0,1.617-3.342l-1.334-.235a36.42,36.42,0,0,1-.662,3.762.25.25,0,0,1-.244.194H31.052Zm-4.445,0h1.1V-8a.25.25,0,0,1,.189-.242.25.25,0,0,1,.281.124c.294.547.726,1.363,1.192,2.32l.879-.669A17.47,17.47,0,0,0,27.79-9.132a.25.25,0,0,1-.084-.187V-10.6a.25.25,0,0,1,.25-.25h2.131v-.356H27.956a.25.25,0,0,1-.25-.25v-3.935h-1.1v3.935a.25.25,0,0,1-.25.25H23.723v.356h2.391a.25.25,0,0,1,.194.093.25.25,0,0,1,.05.209A23.315,23.315,0,0,1,23.422-3l.149.144a17.88,17.88,0,0,0,2.553-4.456.25.25,0,0,1,.279-.154.25.25,0,0,1,.2.246Zm1.6-10.761a17.717,17.717,0,0,1,2.346,2.54v-3.584a.25.25,0,0,1-.215.122H28.206ZM70.048,1.757H68.615a.25.25,0,0,1-.25-.25v-6.1a.25.25,0,0,1,.25-.25h5.729a.25.25,0,0,1,.25.25V1.228a.25.25,0,0,1-.25.25H72.875a.25.25,0,0,1-.25-.25V.473H70.3V1.507A.25.25,0,0,1,70.048,1.757Zm-1.182-.5H69.8V.223a.25.25,0,0,1,.25-.25h2.827a.25.25,0,0,1,.25.25V.978h.969V-4.344H68.865ZM72.856-.382H70.048a.25.25,0,0,1-.25-.25V-3.757a.25.25,0,0,1,.25-.25h2.809a.25.25,0,0,1,.25.25V-.632A.25.25,0,0,1,72.856-.382ZM70.3-.882h2.309V-3.507H70.3ZM37.553-.568H32.476a.25.25,0,0,1-.25-.25V-5.766a.25.25,0,0,1,.25-.25h5.078a.25.25,0,0,1,.25.25V-.818A.25.25,0,0,1,37.553-.568Zm-4.828-.5H37.3V-5.516H32.726ZM58.088-2.242H49.811a.25.25,0,0,1-.25-.25V-3.776a.25.25,0,0,1,.25-.25h8.277a.25.25,0,0,1,.25.25v1.283A.25.25,0,0,1,58.088-2.242Zm-8.027-.5h7.777v-.783H50.061Zm8.027-1.565H49.811a.25.25,0,0,1-.25-.25v-1.1a.25.25,0,0,1,.25-.25h8.277a.25.25,0,0,1,.25.25v1.1A.25.25,0,0,1,58.088-4.307Zm-8.027-.5h7.777v-.6H50.061ZM13.466-5.888H10.081a.25.25,0,0,1-.25-.25V-7.849a.25.25,0,0,1,.25-.25h3.385a.25.25,0,0,1,.25.25v1.711A.25.25,0,0,1,13.466-5.888Zm-3.135-.5h2.885V-7.6H10.331Zm-1.961.5H5.022a.25.25,0,0,1-.25-.25V-7.849a.25.25,0,0,1,.25-.25H8.37a.25.25,0,0,1,.25.25v1.711A.25.25,0,0,1,8.37-5.888Zm-3.1-.5H8.12V-7.6H5.272Zm52.816.2H49.811a.25.25,0,0,1-.25-.25V-7.589a.25.25,0,0,1,.25-.25h8.277a.25.25,0,0,1,.25.25v1.153A.25.25,0,0,1,58.088-6.186Zm-8.027-.5h7.777v-.653H50.061Zm-12.507.333H32.476a.25.25,0,0,1-.25-.25V-11.03a.25.25,0,0,1,.25-.25h5.078a.25.25,0,0,1,.25.25V-6.6A.25.25,0,0,1,37.553-6.353Zm-4.828-.5H37.3V-10.78H32.726ZM13.466-8.418H10.081a.25.25,0,0,1-.25-.25v-1.618a.25.25,0,0,1,.25-.25h3.385a.25.25,0,0,1,.25.25v1.618A.25.25,0,0,1,13.466-8.418Zm-3.135-.5h2.885v-1.118H10.331Zm-1.961.5H5.022a.25.25,0,0,1-.25-.25v-1.618a.25.25,0,0,1,.25-.25H8.37a.25.25,0,0,1,.25.25v1.618A.25.25,0,0,1,8.37-8.418Zm-3.1-.5H8.12v-1.118H5.272Zm69.072.24H68.615a.25.25,0,0,1-.25-.25v-.818a.25.25,0,0,1,.25-.25h5.729a.25.25,0,0,1,.25.25v.818A.25.25,0,0,1,74.344-8.678Zm-5.479-.5h5.229V-9.5H68.865Zm6.093-2.216H67.983a.25.25,0,0,1-.25-.25V-12.5a.25.25,0,0,1,.25-.25H70.75c-.474-.892-.993-1.794-1.4-2.424a.25.25,0,0,1,.041-.319l.484-.446a.25.25,0,0,1,.313-.021,13.113,13.113,0,0,1,2.717,2.622.25.25,0,0,1,.046.188.25.25,0,0,1-.1.165l-.33.234h2.435a.25.25,0,0,1,.25.25v.856A.25.25,0,0,1,74.958-11.394Zm-6.725-.5h6.475v-.356H71.74a.25.25,0,0,1-.238-.174.25.25,0,0,1,.093-.28l.755-.538a13.135,13.135,0,0,0-2.283-2.192l-.181.167c.45.72,1.013,1.714,1.5,2.651a.25.25,0,0,1-.008.245.25.25,0,0,1-.214.12H68.233Zm-18.645-.542a.25.25,0,0,1-.15-.05,26.984,26.984,0,0,0-3.04-2.027.25.25,0,0,1-.115-.3l.223-.632a.25.25,0,0,1,.281-.163,16.5,16.5,0,0,1,3.839,1.267.25.25,0,0,1,.132.158.25.25,0,0,1-.031.2l-.93,1.432a.25.25,0,0,1-.166.11A.25.25,0,0,1,49.588-12.435Zm-2.763-2.411a27.6,27.6,0,0,1,2.7,1.8l.629-.968a16.289,16.289,0,0,0-3.246-1.063Z" transform="translate(149 111.5)" fill="#121328"/></g></g></svg>