<svg xmlns="http://www.w3.org/2000/svg" xmlns:xlink="http://www.w3.org/1999/xlink" width="240" height="264" viewBox="0 0 240 264"><defs><filter id="a" x="42.403" y="0.46" width="153.503" height="237.464" filterUnits="userSpaceOnUse"><feOffset dy="4" input="SourceAlpha"/><feGaussianBlur stdDeviation="4" result="b"/><feFlood flood-color="#1a202c" flood-opacity="0.239"/><feComposite operator="in" in2="b"/><feComposite in="SourceGraphic"/></filter><filter id="c" x="14.4" y="0" width="209.504" height="263.999" filterUnits="userSpaceOnUse"><feOffset dy="4" input="SourceAlpha"/><feGaussianBlur stdDeviation="4" result="d"/><feFlood flood-color="#1a202c" flood-opacity="0.239"/><feComposite operator="in" in2="d"/><feComposite in="SourceGraphic"/></filter><linearGradient id="e" x1="0.463" y1="1.026" x2="0.433" gradientUnits="objectBoundingBox"><stop offset="0" stop-color="#24c6dc"/><stop offset="1" stop-color="#514a9d"/></linearGradient><filter id="f" x="14.4" y="0" width="209.504" height="264" filterUnits="userSpaceOnUse"><feOffset dy="4" input="SourceAlpha"/><feGaussianBlur stdDeviation="4" result="g"/><feFlood flood-color="#1a202c" flood-opacity="0.239"/><feComposite operator="in" in2="g"/><feComposite in="SourceGraphic"/></filter><clipPath id="h"><rect width="129.503" height="213.464" fill="none"/></clipPath><clipPath id="i"><path d="M51.947,213.248l7.5,17.558,67.056-.57,7.193-17.684ZM9.27,169.987A49.608,49.608,0,0,0,0,198.755v.1C.008,210.429,3.935,224.125,14.541,240c0,0,9.08-26.511,37.409-33.608L31.4,150.273A66.939,66.939,0,0,0,9.27,169.987M133.689,205.7l0,0c28.332,6.583,37.895,32.751,37.966,32.964,39.621-61.526-18.384-89.425-18.384-89.425ZM91.378,0l-.029.045V0c-.135.156-7.185,8.28-16.576,21.712-2.5,3.576-5.168,7.533-7.913,11.817l-.037.058,24.811-.206v-.348l.026.348,24.808-.211-.034-.066A314.979,314.979,0,0,0,91.381,0Z" fill="url(#e)"/></clipPath></defs><g transform="translate(9156 1741)"><rect width="240" height="240" transform="translate(-9156 -1733)" fill="#fff" opacity="0"/><g transform="matrix(1, 0, 0, 1, -9156, -1741)" filter="url(#f)"><path d="M0,198.852v-.1a49.6,49.6,0,0,1,9.271-28.767,66.884,66.884,0,0,1,18.912-17.819q-.176-3.189-.18-6.386v-.4c.069-41.8,21.406-83.842,39.326-111.8l-.5,0,.037-.058c2.745-4.285,5.413-8.24,7.912-11.817C84.164,8.279,91.215.156,91.349,0V.045L91.379,0h0a314.967,314.967,0,0,1,25.054,33.1l.035.067-.2,0c18.594,27.945,40.92,70.221,41.237,112.47v1.821q-.016,2.065-.1,4.13c12.522,7.9,47.261,35.814,14.256,87.065-.067-.2-8.568-23.46-33.266-31.644q-2.279,3.145-4.871,6.225h-.11l-6.912,17-67.055.568-7.5-17.556.605-.005q-2.417-2.817-4.565-5.7C22.765,215.98,14.541,240,14.541,240,3.936,224.126.009,210.429,0,198.852Z" transform="translate(26.4 8)" fill="#fff"/></g><g transform="translate(-9129.6 -1733)"><g transform="translate(28.003 0.46)"><g clip-path="url(#h)"><path d="M35.75,213.638l38.563-.33,3.252-.029,38.563-.325c72.343-85.872-42-212.781-42-212.781s-7,8.042-16.346,21.414C29.7,61.769-19.621,150.143,35.75,213.638" transform="translate(-10.609 -0.175)" fill="#fff"/></g></g><g clip-path="url(#i)"><rect width="211.279" height="239.999" transform="translate(-12.887 0.001)" fill="url(#e)"/></g><path d="M32.711,88.423q-2.771,0-2.771-2.024V69.857H23.679v-4.64h16.1q2.023,0,2.024,2.336t-2.024,2.3H35.517V86.4q0,2.023-2.806,2.024m28.907-2.8a9.821,9.821,0,0,1-7.694,3.239A9.841,9.841,0,0,1,46.217,85.6a12.832,12.832,0,0,1-2.9-8.877,12.466,12.466,0,0,1,2.9-8.768,10,10,0,0,1,7.707-3.149,9.975,9.975,0,0,1,7.726,3.167,12.5,12.5,0,0,1,2.9,8.763,12.822,12.822,0,0,1-2.93,8.879M50.311,82.067a4.272,4.272,0,0,0,7.227,0,9.446,9.446,0,0,0,1.338-5.342,9.072,9.072,0,0,0-1.32-5.25,4.411,4.411,0,0,0-7.243-.016,9.093,9.093,0,0,0-1.32,5.25,9.654,9.654,0,0,0,1.317,5.358m21.314,6.356q-2.771,0-2.771-2.024V65.217h8.153a11.913,11.913,0,0,1,6.541,1.621A6.417,6.417,0,0,1,86.29,72.65a7.2,7.2,0,0,1-2.616,6.071,10.394,10.394,0,0,1-6.541,1.993H74.423v5.67q0,2.039-2.8,2.04m2.8-12.078h2.428q4.011,0,4.012-3.561a2.684,2.684,0,0,0-1.056-2.4,5.29,5.29,0,0,0-3.115-.747h-2.27Z" transform="translate(38.82 106.24)" fill="#33335d"/><g transform="translate(49.857 57.583)"><g transform="translate(0 0)"><path d="M60.893,18.179a43.1,43.1,0,1,0,.377,0Z" transform="translate(-17.98 -18.179)" fill="#cbd5e0"/><path d="M56.42,20.176a35.57,35.57,0,1,0,.306,0Z" transform="translate(-13.023 -14.905)" fill="#718096"/><g transform="translate(12.392 20.729)"><g transform="translate(0 0)"><rect width="1.255" height="11.778" transform="translate(56.947 6.004)" fill="#f7f7f7"/><rect width="0.398" height="11.778" transform="translate(57.177 6.004)" fill="#e5e5e5"/><circle cx="1.906" cy="1.906" r="1.906" transform="translate(55.669 2.857)" fill="#18162e"/><path d="M1187.892,771.661h-4.376V783.85h4.376c2.209,0,4.37-2.728,4.37-6.094S1190.1,771.661,1187.892,771.661Z" transform="translate(-1129.02 -754.298)" fill="#18162e"/><path d="M333.279,783.85V771.661H328.9c-2.209,0-4.37,2.728-4.37,6.094s2.161,6.094,4.37,6.094Z" transform="translate(-324.533 -754.298)" fill="#18162e"/><g transform="translate(1.201 17.363)"><path d="M345.436,777.755c0-3.366,2.161-6.094,4.37-6.094h-1.98c-2.209,0-4.37,2.728-4.37,6.094s2.161,6.094,4.37,6.094h1.98C347.6,783.85,345.436,781.121,345.436,777.755Z" transform="translate(-343.456 -771.661)" fill="#0a0a11"/><rect width="1.364" height="12.185" transform="translate(5.616 0.004)" fill="#0a0a11"/><g transform="translate(53.861)"><path d="M1206.728,777.755c0-3.366-2.161-6.094-4.37-6.094h1.98c2.209,0,4.37,2.728,4.37,6.094s-2.161,6.094-4.37,6.094h-1.98C1204.567,783.85,1206.728,781.121,1206.728,777.755Z" transform="translate(-1201.728 -771.661)" fill="#2a2a3f"/><rect width="1.364" height="12.185" transform="translate(1.364 12.188) rotate(180)" fill="#2a2a3f"/></g></g><path d="M4.05,0h0a0,0,0,0,1,0,0V15.758a0,0,0,0,1,0,0h0A4.05,4.05,0,0,1,0,11.709V4.05A4.05,4.05,0,0,1,4.05,0Z" transform="translate(7.427 15.578)" fill="#f7f7f7"/><path d="M457.074,759.239a2.219,2.219,0,0,1-1.617-2.222V745.793a2.219,2.219,0,0,1,1.617-2.222v-.045h-.42a2.154,2.154,0,0,0-2.02,2.267v11.224a2.154,2.154,0,0,0,2.02,2.268h.42Z" transform="translate(-446.38 -727.948)" fill="#e5e5e5"/><path d="M0,0H0A4.05,4.05,0,0,1,4.05,4.05v7.659A4.05,4.05,0,0,1,0,15.758H0a0,0,0,0,1,0,0V0A0,0,0,0,1,0,0Z" transform="translate(51.766 15.578)" fill="#f7f7f7"/><path d="M1153.159,759.239a2.219,2.219,0,0,0,1.617-2.222V745.793a2.219,2.219,0,0,0-1.617-2.222v-.045h.42a2.154,2.154,0,0,1,2.02,2.267v11.224a2.154,2.154,0,0,1-2.02,2.268h-.42Z" transform="translate(-1100.589 -727.948)" fill="#fff"/><g transform="translate(10.672)"><path d="M513.7,497.986a23.228,23.228,0,0,0-20.949,12.941V531.85c3.825,7.758,11.767,10.659,20.949,10.659s17.124-2.9,20.949-10.659V510.927A23.227,23.227,0,0,0,513.7,497.986Z" transform="translate(-492.746 -497.986)" fill="#f7f7f7"/><g transform="translate(1.616)"><path d="M522.178,531.85V510.927c2.807-7.758,8.636-12.941,15.375-12.941a20.708,20.708,0,0,0-15.441,6.985,15.008,15.008,0,0,0-3.892,10.069v11.629a15.635,15.635,0,0,0,11.916,14.96,29.326,29.326,0,0,0,7.417.881C530.814,542.51,524.985,539.608,522.178,531.85Z" transform="translate(-518.22 -497.986)" fill="#e5e5e5"/><path d="M822.951,497.986h0c6.739,0,12.568,5.183,15.375,12.941V531.85c-2.807,7.758-8.636,10.659-15.375,10.659h0a29.324,29.324,0,0,0,7.418-.881,15.634,15.634,0,0,0,11.915-14.96V515.04a15.007,15.007,0,0,0-3.892-10.069A20.708,20.708,0,0,0,822.951,497.986Z" transform="translate(-803.618 -497.986)" fill="#fff"/></g><path d="M569.176,714.982a3,3,0,0,1-2.421,2.434,243.3,243.3,0,0,1-30.662,0,3,3,0,0,1-2.421-2.434,40.008,40.008,0,0,1,0-14.272,3,3,0,0,1,2.421-2.434,243.349,243.349,0,0,1,30.662,0,3,3,0,0,1,2.421,2.434A40.016,40.016,0,0,1,569.176,714.982Z" transform="translate(-530.475 -685.117)" fill="#18162e"/><g transform="translate(2.556 12.676)"><path d="M796.519,1014.617q-.9,0-1.791-.007Q795.623,1014.617,796.519,1014.617Z" transform="translate(-778.126 -994.51)" fill="#0a0a11"/><path d="M533.68,701.978a2.953,2.953,0,0,1,2.421-2.348,252.213,252.213,0,0,1,30.661,0,2.952,2.952,0,0,1,2.421,2.348,30.618,30.618,0,0,1,.64,6.05,40.239,40.239,0,0,0-.64-7.316,3,3,0,0,0-2.421-2.434,243.345,243.345,0,0,0-30.661,0,3,3,0,0,0-2.421,2.434,40.223,40.223,0,0,0-.64,7.316A30.609,30.609,0,0,1,533.68,701.978Z" transform="translate(-533.04 -697.793)" fill="#0a0a11"/><path d="M822.95,1014.617q.9,0,1.791-.007Q823.845,1014.617,822.95,1014.617Z" transform="translate(-804.557 -994.51)" fill="#0a0a11"/><path d="M855.85,1014.353q.65-.005,1.3-.015Q856.5,1014.347,855.85,1014.353Z" transform="translate(-835.37 -994.255)" fill="#0a0a11"/><path d="M746.681,1013.957l-.184,0Z" transform="translate(-732.955 -993.895)" fill="#0a0a11"/><path d="M896.5,1013.957l.184,0Z" transform="translate(-873.44 -993.895)" fill="#0a0a11"/><path d="M770.858,1014.353q-.65-.005-1.3-.015Q770.208,1014.347,770.858,1014.353Z" transform="translate(-754.553 -994.255)" fill="#0a0a11"/></g><path d="M775.767,925.651c0,1.112-1.535,2.014-3.428,2.014s-3.428-.9-3.428-2.014Z" transform="translate(-751.389 -898.518)" fill="#f7f7f7"/><circle cx="3.269" cy="3.269" r="3.269" transform="translate(9.517 18.345)" fill="#46e6f2"/><circle cx="3.269" cy="3.269" r="3.269" transform="translate(25.818 18.345)" fill="#46e6f2"/></g><path d="M1205.175,546.335a2.555,2.555,0,0,1-1.341-2.368,2.114,2.114,0,0,1,.215-.945c-.05,0-.1-.007-.153-.007a1.906,1.906,0,1,0,1.279,3.32Z" transform="translate(-1146.322 -540.158)" fill="#0a0a11"/><g transform="translate(3.413 32.783)"><path d="M384.856,1027.514l-3.4-12.483a.424.424,0,0,0-.534-.294c-1.855.572-3.23,1.265-2.29,4.715.911,3.344,3.683,8.135,5.729,8.59A.424.424,0,0,0,384.856,1027.514Z" transform="translate(-378.329 -1014.717)" fill="#2a2a3f"/><path d="M384.856,1027.515l-.01-.037a2.422,2.422,0,0,0-.411-.558,14.324,14.324,0,0,1-3.364-4.857,10.28,10.28,0,0,1-.219-6.108,3.667,3.667,0,0,1,.482-1.124.424.424,0,0,0-.412-.094c-1.855.572-3.23,1.265-2.29,4.715.911,3.344,3.683,8.135,5.729,8.591A.424.424,0,0,0,384.856,1027.515Z" transform="translate(-378.329 -1014.719)" fill="#0a0a11"/></g></g></g></g><g transform="translate(2.742 3.521)"><path d="M24.5,27.15a1.75,1.75,0,1,1-1.75-1.75,1.751,1.751,0,0,1,1.75,1.75" transform="translate(-15.766 -9.861)" fill="#718096"/><path d="M22.753,29.4A2.25,2.25,0,1,1,25,27.15,2.253,2.253,0,0,1,22.753,29.4Zm0-3.5A1.25,1.25,0,1,0,24,27.15,1.251,1.251,0,0,0,22.753,25.9Z" transform="translate(-15.766 -9.861)" fill="rgba(0,0,0,0)"/><path d="M22.518,34.739a1.75,1.75,0,1,1-1.75-1.75,1.751,1.751,0,0,1,1.75,1.75" transform="translate(-19.018 2.58)" fill="#718096"/><path d="M20.768,36.989a2.25,2.25,0,1,1,2.25-2.25A2.253,2.253,0,0,1,20.768,36.989Zm0-3.5a1.25,1.25,0,1,0,1.25,1.25A1.251,1.251,0,0,0,20.768,33.489Z" transform="translate(-19.018 2.58)" fill="rgba(0,0,0,0)"/><path d="M30.994,21.6a1.75,1.75,0,1,1-1.75-1.75,1.751,1.751,0,0,1,1.75,1.75" transform="translate(-5.122 -18.961)" fill="#718096"/><path d="M29.244,23.85a2.25,2.25,0,1,1,2.25-2.25A2.253,2.253,0,0,1,29.244,23.85Zm0-3.5a1.25,1.25,0,1,0,1.25,1.25A1.251,1.251,0,0,0,29.244,20.35Z" transform="translate(-5.122 -18.961)" fill="rgba(0,0,0,0)"/><path d="M42.671,21.263a1.75,1.75,0,1,1-1.75-1.75,1.751,1.751,0,0,1,1.75,1.75" transform="translate(14.02 -19.513)" fill="#718096"/><path d="M40.921,23.513a2.25,2.25,0,1,1,2.25-2.25A2.253,2.253,0,0,1,40.921,23.513Zm0-3.5a1.25,1.25,0,1,0,1.25,1.25A1.251,1.251,0,0,0,40.921,20.013Z" transform="translate(14.02 -19.513)" fill="rgba(0,0,0,0)"/><path d="M30.994,48.878a1.75,1.75,0,1,1-1.75-1.75,1.751,1.751,0,0,1,1.75,1.75" transform="translate(-5.122 25.761)" fill="#718096"/><path d="M29.244,51.128a2.25,2.25,0,1,1,2.25-2.25A2.253,2.253,0,0,1,29.244,51.128Zm0-3.5a1.25,1.25,0,1,0,1.25,1.25A1.251,1.251,0,0,0,29.244,47.628Z" transform="translate(-5.122 25.761)" fill="rgba(0,0,0,0)"/><path d="M42.671,48.878a1.75,1.75,0,1,1-1.75-1.75,1.751,1.751,0,0,1,1.75,1.75" transform="translate(14.02 25.761)" fill="#718096"/><path d="M40.921,51.128a2.25,2.25,0,1,1,2.25-2.25A2.253,2.253,0,0,1,40.921,51.128Zm0-3.5a1.25,1.25,0,1,0,1.25,1.25A1.251,1.251,0,0,0,40.921,47.628Z" transform="translate(14.02 25.761)" fill="rgba(0,0,0,0)"/><path d="M49.583,26.487a1.75,1.75,0,1,1-1.753-1.75,1.753,1.753,0,0,1,1.753,1.75" transform="translate(25.353 -10.948)" fill="#718096"/><path d="M47.83,28.737a2.25,2.25,0,1,1,2.253-2.25A2.251,2.251,0,0,1,47.83,28.737Zm0-3.5a1.25,1.25,0,1,0,1.253,1.25A1.25,1.25,0,0,0,47.83,25.237Z" transform="translate(25.353 -10.948)" fill="rgba(0,0,0,0)"/><path d="M52.288,34.762a1.75,1.75,0,1,1-1.75-1.75,1.751,1.751,0,0,1,1.75,1.75" transform="translate(29.787 2.618)" fill="#718096"/><path d="M50.538,37.012a2.25,2.25,0,1,1,2.25-2.25A2.253,2.253,0,0,1,50.538,37.012Zm0-3.5a1.25,1.25,0,1,0,1.25,1.25A1.251,1.251,0,0,0,50.538,33.512Z" transform="translate(29.787 2.618)" fill="rgba(0,0,0,0)"/><path d="M24.5,43.024a1.75,1.75,0,1,1-1.75-1.75,1.751,1.751,0,0,1,1.75,1.75" transform="translate(-15.766 16.163)" fill="#718096"/><path d="M22.753,45.274A2.25,2.25,0,1,1,25,43.024,2.253,2.253,0,0,1,22.753,45.274Zm0-3.5A1.25,1.25,0,1,0,24,43.024,1.251,1.251,0,0,0,22.753,41.774Z" transform="translate(-15.766 16.163)" fill="rgba(0,0,0,0)"/><path d="M50.245,42.361a1.75,1.75,0,1,1-1.75-1.75,1.751,1.751,0,0,1,1.75,1.75" transform="translate(26.437 15.076)" fill="#718096"/><path d="M48.495,44.611a2.25,2.25,0,1,1,2.25-2.25A2.253,2.253,0,0,1,48.495,44.611Zm0-3.5a1.25,1.25,0,1,0,1.25,1.25A1.251,1.251,0,0,0,48.495,41.111Z" transform="translate(26.437 15.076)" fill="rgba(0,0,0,0)"/></g></g></g></g></svg>