<svg xmlns="http://www.w3.org/2000/svg" xmlns:xlink="http://www.w3.org/1999/xlink" width="200" height="200" viewBox="0 0 200 200"><defs><linearGradient id="a" x1="0.5" x2="0.5" y2="1" gradientUnits="objectBoundingBox"><stop offset="0" stop-color="#00d2ff"/><stop offset="1" stop-color="#3a47d5"/></linearGradient></defs><g transform="translate(9687.504 1497.867)"><circle cx="100" cy="100" r="100" transform="translate(-9687.504 -1497.867)" opacity="0" fill="url(#a)"/><g transform="translate(-9663.834 -1469.537)"><path d="M3802.13,656.547h0a57.3,57.3,0,0,0-57.3,57.3v23.1c0,28.865,114.6,28.865,114.6,0v-23.1A57.3,57.3,0,0,0,3802.13,656.547Z" transform="translate(-3724.63 -642.091)" fill="#f7f7f7"/><g transform="translate(25.393 14.456)"><path d="M3785.974,736.952v-23.1c0-31.646,18.861-57.3,42.126-57.3h0c-28.779,0-52.108,25.655-52.108,57.3v23.1c0,14.432,26.055,21.649,52.108,21.649C3807.036,758.6,3785.974,751.384,3785.974,736.952Z" transform="translate(-3775.991 -656.547)" fill="#e5e5e5"/><path d="M4088.635,656.547h0c23.264,0,42.125,25.655,42.125,57.3v23.1c0,14.432-21.064,21.649-42.125,21.649,26.053,0,52.107-7.216,52.107-21.649v-23.1C4140.742,682.2,4117.414,656.547,4088.635,656.547Z" transform="translate(-4036.528 -656.547)" fill="#fff"/></g><path d="M3724.186,1162.311c-.213-.02-.432-.041-.661-.066-15.646-2.159-36.294-6.375-43.022-13.1-3.708-3.708-6.312-15.532-7.381-22.854-.008,0-.014.007,0,0l-5.667-.326c.209,1.527.917,6.131,1.238,7.869,1.735,9.358,4.366,15.852,7.817,19.3,8.232,8.233,30.981,12.617,46.248,14.7.668.09.791.09,1.175.142Z" transform="translate(-3660.15 -1033.271)" fill="#f7f7f7"/><path d="M3809.858,629.2a70.541,70.541,0,0,0-139.339.209h5.721a64.895,64.895,0,0,1,127.894-.209Z" transform="translate(-3662.706 -569.813)" fill="#f7f7f7"/><path d="M3813,898.3V874.158a4.13,4.13,0,0,1,4.563-4.11,386.885,386.885,0,0,0,82.752,0,4.128,4.128,0,0,1,4.563,4.11V898.3a4.149,4.149,0,0,1-3.431,4.075,239,239,0,0,1-85.018,0A4.149,4.149,0,0,1,3813,898.3Z" transform="translate(-3781.438 -819.989)" fill="#2b2b3f"/><path d="M3900.313,870.048a386.885,386.885,0,0,1-82.752,0,4.13,4.13,0,0,0-4.563,4.11v3.456a4.13,4.13,0,0,1,4.563-4.11,386.916,386.916,0,0,0,82.752,0,4.128,4.128,0,0,1,4.563,4.11v-3.456A4.128,4.128,0,0,0,3900.313,870.048Z" transform="translate(-3781.438 -819.989)" fill="#1e1e28"/><g transform="translate(44.712 59.306)"><ellipse cx="9.503" cy="9.287" rx="9.503" ry="9.287" transform="translate(46.57 0)" fill="#46e6f2"/><ellipse cx="9.503" cy="9.287" rx="9.503" ry="9.287" fill="#46e6f2"/></g><path d="M4041.762,1125.039c0,4.281-3.842,7.752-8.58,7.752H4026.9c-4.738,0-8.578-3.471-8.578-7.752h0a70.583,70.583,0,0,0,23.438,0Z" transform="translate(-3952.543 -1032.501)" fill="#2b2b3f"/><path d="M3695.681,1150.015c-3.708-3.707-6.312-15.532-7.383-22.854h0l-2.632-.151c.781,4.974,3.476,20.342,7.465,24.33,6.221,6.223,20.825,10.76,46.158,12.963l.073-1.119c-.211-.021-.431-.041-.66-.066C3723.056,1160.959,3702.408,1156.743,3695.681,1150.015Z" transform="translate(-3675.327 -1034.144)" fill="#e5e5e5"/><g transform="translate(61.227 123.982)"><rect width="32.473" height="16.579" rx="8.29" fill="#2b2b3f"/><path d="M4015.225,1321.858H3999.33c-4.459,0-8.094,3.233-8.281,7.285.014.276.037.548.076.816.568-2.928,4.025-3.506,8.205-3.506h15.895c4.18,0,7.637.578,8.205,3.506a8.023,8.023,0,0,0,.076-.816C4023.318,1325.091,4019.686,1321.858,4015.225,1321.858Z" transform="translate(-3991.04 -1320.499)" fill="#1e1e28"/></g><path d="M3760.432,571.9a70.555,70.555,0,0,0-86.075,54.027c1.877-.213,2.689,2.123,3.744.216.836-1.506,2.118-7.7,2.63-9.045,10.563-27.877,30.922-36.625,34.205-38.235C3726.98,572.951,3739.384,569.926,3760.432,571.9Z" transform="translate(-3665.902 -569.813)" fill="#e5e5e5"/><g transform="translate(0 53.628)"><path d="M3634.517,891.581h0c-6.01,0-10.883,5.348-10.883,11.947v15.437c0,6.6,4.873,11.947,10.883,11.947h0c3.412,0,6.179-3.037,6.179-6.782V898.363C3640.7,894.617,3637.929,891.581,3634.517,891.581Z" transform="translate(-3623.634 -891.581)" fill="#2b2b3f"/><path d="M3647.213,891.807a5.721,5.721,0,0,0-.936-.142c-5,.293-8.989,5.522-8.989,11.933v15.436c0,6.41,3.986,11.64,8.989,11.933a5.638,5.638,0,0,0,.936-.142c-3.176-.918-5.6-5.846-5.6-11.791V903.6C3641.609,897.654,3644.037,892.726,3647.213,891.807Z" transform="translate(-3635.012 -891.652)" fill="#1e1e28"/></g><g transform="translate(114.542 10.535)"><path d="M4310.888,633.02c.211.138.377.236.43.265C4311.175,633.2,4311.03,633.108,4310.888,633.02Z" transform="translate(-4310.888 -633.02)" fill="#fff"/><path d="M4313.73,634.787c1.953,1.3,24.33,19.126,27.785,44.827.186,1.4.381,2.64.582,3.729h3.771A70.708,70.708,0,0,0,4313.73,634.787Z" transform="translate(-4313.256 -634.492)" fill="#fff"/></g><g transform="translate(137.94 53.628)"><path d="M4457.45,891.581h0c6.012,0,10.885,5.348,10.885,11.947v15.437c0,6.6-4.873,11.947-10.885,11.947h0c-3.412,0-6.176-3.037-6.176-6.782V898.363C4451.274,894.617,4454.038,891.581,4457.45,891.581Z" transform="translate(-4451.274 -891.581)" fill="#2b2b3f"/><path d="M4480.437,891.807a5.712,5.712,0,0,1,.938-.142c5,.293,8.988,5.522,8.988,11.933v15.436c0,6.41-3.986,11.64-8.992,11.933a5.677,5.677,0,0,1-.934-.142c3.176-.918,5.6-5.846,5.6-11.791V903.6C4486.04,897.654,4483.612,892.726,4480.437,891.807Z" transform="translate(-4475.576 -891.652)" fill="#2a2a3f"/></g></g></g></svg>