<svg xmlns="http://www.w3.org/2000/svg" xmlns:xlink="http://www.w3.org/1999/xlink" width="540" height="305.798" viewBox="0 0 540 305.798"><defs><clipPath id="a"><rect width="282.486" height="172.347" fill="none"/></clipPath><clipPath id="b"><rect width="176.882" height="140.736" fill="none"/></clipPath><clipPath id="c"><rect width="43.196" height="43.196" fill="none"/></clipPath><clipPath id="d"><rect width="95.862" height="62.845" fill="none"/></clipPath><clipPath id="e"><rect width="146.488" height="116.552" fill="none"/></clipPath><clipPath id="f"><rect width="35.775" height="35.774" fill="none"/></clipPath><clipPath id="g"><rect width="127.214" height="101.217" fill="none"/></clipPath><clipPath id="h"><rect width="31.066" height="31.067" fill="none"/></clipPath><clipPath id="i"><rect width="165.324" height="131.539" fill="none"/></clipPath><clipPath id="j"><rect width="40.374" height="40.374" fill="none"/></clipPath><clipPath id="k"><rect width="90.95" height="59.626" fill="none"/></clipPath><clipPath id="l"><rect width="90.95" height="59.625" fill="none"/></clipPath></defs><g transform="translate(7905 995.894)"><g transform="translate(-7776.863 -898.372)" opacity="0.2"><g transform="translate(0 0)"><g clip-path="url(#a)"><path d="M324.9,273.331H214.762a86.173,86.173,0,0,1,0-172.347H324.9a86.173,86.173,0,1,1,0,172.347" transform="translate(-128.59 -100.984)" fill="#4b4b4b"/></g></g></g><path d="M317.069,263.628H206.93a86.173,86.173,0,0,1,0-172.347H317.069a86.173,86.173,0,1,1,0,172.347" transform="translate(-7905.425 -999.321)" fill="#fff"/><path d="M207.034,234.158a56.6,56.6,0,0,1,0-113.2h110.14a56.6,56.6,0,0,1,0,113.2Z" transform="translate(-7905.53 -999.426)" fill="#dfdfdf"/><path d="M207.081,220.947a43.342,43.342,0,0,1,0-86.684h110.14a43.342,43.342,0,0,1,0,86.684Z" transform="translate(-7905.577 -999.473)" fill="#454545"/><path d="M175.168,177.183a18.187,18.187,0,1,1,18.187,18.187,18.186,18.186,0,0,1-18.187-18.187" transform="translate(-7905.617 -999.56)" fill="#acacac"/><path d="M312.3,177.183a18.187,18.187,0,1,1,18.187,18.187A18.186,18.186,0,0,1,312.3,177.183" transform="translate(-7906.1 -999.56)" fill="#acacac"/><path d="M286.7,193.85H237.07a3.824,3.824,0,0,1,0-7.649H286.7a3.824,3.824,0,0,1,0,7.649" transform="translate(-7905.821 -999.656)" fill="#acacac"/><path d="M319.642,88.057a5.1,5.1,0,0,1-5.1-5.1A28.076,28.076,0,0,0,286.5,54.913H238.057a28.077,28.077,0,0,0-28.045,28.045,5.1,5.1,0,1,1-10.2,0,38.286,38.286,0,0,1,38.243-38.243H286.5a38.286,38.286,0,0,1,38.242,38.243,5.1,5.1,0,0,1-5.1,5.1" transform="translate(-7905.704 -999.157)" fill="#acacac"/><g transform="translate(-7555.676 -989.776)" opacity="0.2"><g transform="translate(0 0)"><g clip-path="url(#b)"><path d="M517.911,47.141A21.594,21.594,0,1,0,486.14,18.335a21.714,21.714,0,0,0-5.33,5.966,54.538,54.538,0,0,0-7.329-.5H404.516a53.959,53.959,0,0,0-53.958,53.958c0,28.721,21.366,52.19,49.669,53.854L418.6,149.993V131.733l54.876-.012a53.961,53.961,0,0,0,44.43-84.58" transform="translate(-350.558 -9.257)" fill="#4b4b4b"/></g></g></g><path d="M473.481,17.715H404.515a53.959,53.959,0,0,0-53.958,53.958c0,28.721,21.367,52.19,49.671,53.854L418.6,143.9V125.645l54.877-.013a53.958,53.958,0,1,0,0-107.917" transform="translate(-7906.234 -999.062)" fill="#fff"/><g transform="translate(-7428.519 -991.305)" opacity="0.2"><g transform="translate(0 0)"><g clip-path="url(#c)"><path d="M478.165,29.321a21.6,21.6,0,1,1,21.6,21.6,21.6,21.6,0,0,1-21.6-21.6" transform="translate(-478.165 -7.722)" fill="#4b4b4b"/></g></g></g><path d="M482.6,24.716a21.6,21.6,0,1,1,21.6,21.6,21.6,21.6,0,0,1-21.6-21.6" transform="translate(-7906.699 -999.011)" fill="#8b8b8b"/><path d="M493.732,36.531h21.009a10.5,10.5,0,0,0-6.6-9.749,7.461,7.461,0,1,0-7.8,0,10.5,10.5,0,0,0-6.6,9.749" transform="translate(-7906.739 -999.046)" fill="#454545"/><path d="M439.96,67.718H398.4a3.952,3.952,0,1,1,0-7.9H439.96a3.952,3.952,0,1,1,0,7.9" transform="translate(-7906.389 -999.211)" fill="#b1b1b1"/><path d="M481.464,67.718H455.8a3.952,3.952,0,1,1,0-7.9h25.665a3.952,3.952,0,1,1,0,7.9" transform="translate(-7906.591 -999.211)" fill="#b1b1b1"/><path d="M456.022,82.265H398.4a3.952,3.952,0,0,1,0-7.9h57.619a3.952,3.952,0,0,1,0,7.9" transform="translate(-7906.389 -999.262)" fill="#b1b1b1"/><path d="M481.524,82.265h-8.881a3.952,3.952,0,1,1,0-7.9h8.881a3.952,3.952,0,1,1,0,7.9" transform="translate(-7906.65 -999.262)" fill="#b1b1b1"/><g transform="translate(-7464.687 -889.152)" opacity="0.2"><g transform="translate(0 0)"><g clip-path="url(#d)"><path d="M514.021,110.236H465.58a23.71,23.71,0,0,0,0,47.42h32.963v15.425l15.424-15.425h.054a23.71,23.71,0,0,0,0-47.42" transform="translate(-441.869 -110.236)" fill="#4b4b4b"/></g></g></g><path d="M517.859,106.654H469.418a23.711,23.711,0,0,0,0,47.421h32.962V169.5l15.424-15.424h.054a23.711,23.711,0,0,0,0-47.421" transform="translate(-7906.569 -999.376)" fill="#acacac"/><path d="M500.369,128.289H468.463a3.034,3.034,0,1,1,0-6.068h31.905a3.034,3.034,0,1,1,0,6.068" transform="translate(-7906.639 -999.43)" fill="#fff"/><path d="M512.7,139.458H468.462a3.034,3.034,0,0,1,0-6.068H512.7a3.034,3.034,0,1,1,0,6.068" transform="translate(-7906.639 -999.47)" fill="#fff"/><path d="M519.3,128.289h-6.819a3.034,3.034,0,0,1,0-6.068H519.3a3.034,3.034,0,1,1,0,6.068" transform="translate(-7906.794 -999.43)" fill="#fff"/><g transform="translate(-7899.037 -819.177)" opacity="0.2"><g transform="translate(0 0)"><g clip-path="url(#e)"><path d="M144.58,211.832a17.883,17.883,0,1,0-26.312-23.857,17.976,17.976,0,0,0-4.413,4.942,45.006,45.006,0,0,0-6.07-.413H50.67A44.687,44.687,0,0,0,5.984,237.192c0,23.786,17.7,43.221,41.135,44.6L62.338,297.01V281.889l45.447-.01a44.688,44.688,0,0,0,36.795-70.046" transform="translate(-5.984 -180.458)" fill="#4b4b4b"/></g></g></g><path d="M103.83,187.462H46.716A44.687,44.687,0,0,0,2.029,232.149c0,23.785,17.7,43.221,41.136,44.6l15.218,15.219V276.846l45.447-.011a44.687,44.687,0,1,0,0-89.373" transform="translate(-7905.007 -999.66)" fill="#fff"/><g transform="translate(-7797.67 -820.444)" opacity="0.2"><g transform="translate(0 0)"><g clip-path="url(#f)"><path d="M107.709,197.074A17.887,17.887,0,1,1,125.6,214.961a17.886,17.886,0,0,1-17.887-17.887" transform="translate(-107.709 -179.187)" fill="#4b4b4b"/></g></g></g><path d="M111.382,193.26a17.887,17.887,0,1,1,17.887,17.887,17.887,17.887,0,0,1-17.887-17.887" transform="translate(-7905.392 -999.618)" fill="#8b8b8b"/><path d="M120.6,203.045H138a8.7,8.7,0,0,0-5.471-8.073,6.179,6.179,0,1,0-6.459,0,8.7,8.7,0,0,0-5.47,8.073" transform="translate(-7905.425 -999.646)" fill="#454545"/><path d="M76.07,228.873H41.653a3.273,3.273,0,0,1,0-6.546H76.07a3.273,3.273,0,0,1,0,6.546" transform="translate(-7905.135 -999.783)" fill="#b1b1b1"/><path d="M110.442,228.873H89.187a3.273,3.273,0,1,1,0-6.546h21.255a3.273,3.273,0,0,1,0,6.546" transform="translate(-7905.303 -999.783)" fill="#b1b1b1"/><path d="M89.372,240.921H41.653a3.273,3.273,0,0,1,0-6.546H89.372a3.273,3.273,0,0,1,0,6.546" transform="translate(-7905.135 -999.825)" fill="#b1b1b1"/><path d="M110.491,240.921h-7.355a3.273,3.273,0,0,1,0-6.546h7.355a3.273,3.273,0,0,1,0,6.546" transform="translate(-7905.352 -999.825)" fill="#b1b1b1"/><g transform="translate(-7498.144 -815.777)" opacity="0.2"><g transform="translate(0)"><g clip-path="url(#g)"><path d="M528.655,211.116A15.53,15.53,0,1,0,505.8,190.4a15.62,15.62,0,0,0-3.832,4.291,39.147,39.147,0,0,0-5.271-.358H447.1a38.807,38.807,0,0,0-38.807,38.808c0,20.655,15.367,37.534,35.723,38.731l13.216,13.216V271.955l39.468-.009a38.809,38.809,0,0,0,31.954-60.83" transform="translate(-408.294 -183.87)" fill="#4b4b4b"/></g></g></g><path d="M496.7,189.953H447.1a38.806,38.806,0,0,0-38.807,38.807c0,20.656,15.367,37.535,35.723,38.732l13.216,13.216V267.577l39.468-.009a38.807,38.807,0,0,0,0-77.615" transform="translate(-7906.438 -999.669)" fill="#fff"/><g transform="translate(-7406.691 -816.878)" opacity="0.2"><g transform="translate(0 0)"><g clip-path="url(#h)"><path d="M500.07,198.3A15.534,15.534,0,1,1,515.6,213.832,15.533,15.533,0,0,1,500.07,198.3" transform="translate(-500.07 -182.766)" fill="#4b4b4b"/></g></g></g><path d="M503.259,194.987a15.534,15.534,0,1,1,15.534,15.533,15.533,15.533,0,0,1-15.534-15.533" transform="translate(-7906.772 -999.632)" fill="#8b8b8b"/><path d="M511.266,203.485h15.11a7.551,7.551,0,0,0-4.75-7.011,5.366,5.366,0,1,0-5.609,0,7.553,7.553,0,0,0-4.75,7.011" transform="translate(-7906.8 -999.657)" fill="#454545"/><path d="M472.592,225.915H442.7a2.842,2.842,0,0,1,0-5.684h29.888a2.842,2.842,0,0,1,0,5.684" transform="translate(-7906.549 -999.776)" fill="#b1b1b1"/><path d="M502.443,225.915H483.984a2.842,2.842,0,0,1,0-5.684h18.459a2.842,2.842,0,0,1,0,5.684" transform="translate(-7906.694 -999.776)" fill="#b1b1b1"/><path d="M484.145,236.377H442.7a2.842,2.842,0,1,1,0-5.684h41.44a2.842,2.842,0,1,1,0,5.684" transform="translate(-7906.549 -999.812)" fill="#b1b1b1"/><path d="M502.485,236.377H496.1a2.842,2.842,0,0,1,0-5.684h6.387a2.842,2.842,0,0,1,0,5.684" transform="translate(-7906.737 -999.812)" fill="#b1b1b1"/><g transform="translate(-7905 -970.951)" opacity="0.2"><g transform="translate(0 0)"><g clip-path="url(#i)"><path d="M156.418,63.557a20.183,20.183,0,1,0-29.7-26.924,20.3,20.3,0,0,0-4.981,5.576,50.92,50.92,0,0,0-6.85-.465H50.433A50.434,50.434,0,0,0,0,92.177c0,26.844,19.971,48.78,46.425,50.335L63.6,159.687V142.621l51.292-.012a50.434,50.434,0,0,0,41.526-79.053" transform="translate(0 -28.148)" fill="#4b4b4b"/></g></g></g><path d="M114.891,36.053H50.433A50.432,50.432,0,0,0,0,86.486c0,26.844,19.97,48.78,46.424,50.335L63.6,154V136.931l51.291-.012a50.433,50.433,0,1,0,0-100.866" transform="translate(-7905 -999.127)" fill="#fff"/><g transform="translate(-7786.151 -972.381)" opacity="0.2"><g transform="translate(0 0)"><g clip-path="url(#j)"><path d="M119.269,46.9a20.187,20.187,0,1,1,20.187,20.187A20.187,20.187,0,0,1,119.269,46.9" transform="translate(-119.269 -26.713)" fill="#4b4b4b"/></g></g></g><path d="M123.414,42.6A20.187,20.187,0,1,1,143.6,62.782,20.187,20.187,0,0,1,123.414,42.6" transform="translate(-7905.435 -999.079)" fill="#8b8b8b"/><path d="M133.82,53.639h19.637a9.818,9.818,0,0,0-6.173-9.112,6.973,6.973,0,1,0-7.29,0,9.816,9.816,0,0,0-6.173,9.112" transform="translate(-7905.471 -999.111)" fill="#454545"/><path d="M83.561,82.789H44.719a3.693,3.693,0,1,1,0-7.387H83.561a3.693,3.693,0,1,1,0,7.387" transform="translate(-7905.145 -999.266)" fill="#b1b1b1"/><path d="M122.353,82.789H98.365a3.693,3.693,0,1,1,0-7.387h23.988a3.693,3.693,0,1,1,0,7.387" transform="translate(-7905.333 -999.266)" fill="#b1b1b1"/><path d="M98.574,96.385H44.72a3.693,3.693,0,1,1,0-7.387H98.574a3.693,3.693,0,1,1,0,7.387" transform="translate(-7905.145 -999.313)" fill="#b1b1b1"/><path d="M122.409,96.385h-8.3a3.693,3.693,0,0,1,0-7.387h8.3a3.693,3.693,0,1,1,0,7.387" transform="translate(-7905.389 -999.313)" fill="#b1b1b1"/><g transform="translate(54.315 -13.909)"><g transform="translate(-7825.966 -735.812)" opacity="0.2"><g transform="translate(0 0)"><g clip-path="url(#k)"><path d="M147.767,264.118H101.809a22.5,22.5,0,1,0,0,44.991h31.273v14.634l14.634-14.634h.051a22.5,22.5,0,1,0,0-44.991" transform="translate(-79.313 -264.118)" fill="#4b4b4b"/></g></g></g><path d="M151.408,260.72H105.45a22.5,22.5,0,1,0,0,44.991h31.273v14.634l14.634-14.634h.051a22.5,22.5,0,1,0,0-44.991" transform="translate(-7905.292 -999.918)" fill="#acacac"/><path d="M134.815,281.247H104.544a2.878,2.878,0,0,1,0-5.757h30.271a2.878,2.878,0,1,1,0,5.757" transform="translate(-7905.358 -999.97)" fill="#fff"/><path d="M146.515,291.843H104.544a2.878,2.878,0,1,1,0-5.757h41.971a2.878,2.878,0,1,1,0,5.757" transform="translate(-7905.358 -1000.007)" fill="#fff"/><path d="M152.774,281.247H146.3a2.878,2.878,0,0,1,0-5.757h6.469a2.878,2.878,0,1,1,0,5.757" transform="translate(-7905.505 -999.97)" fill="#fff"/></g><g transform="translate(-0.168 10.665)"><g transform="translate(-7888.293 -995.614)" opacity="0.2"><g transform="translate(0 0)"><g clip-path="url(#l)"><path d="M85.22,3.4H39.262a22.5,22.5,0,0,0,0,44.991H70.535V63.023L85.169,48.389h.051a22.5,22.5,0,1,0,0-44.991" transform="translate(-16.766 -3.398)" fill="#4b4b4b"/></g></g></g><path d="M88.861,0H42.9a22.5,22.5,0,0,0,0,44.991H74.176V59.625L88.81,44.991h.051A22.5,22.5,0,1,0,88.861,0" transform="translate(-7905.072 -999)" fill="#acacac"/><path d="M72.267,20.527H42a2.878,2.878,0,1,1,0-5.757H72.267a2.878,2.878,0,1,1,0,5.757" transform="translate(-7905.138 -999.052)" fill="#fff"/><path d="M83.967,31.123H42a2.878,2.878,0,1,1,0-5.757H83.967a2.878,2.878,0,1,1,0,5.757" transform="translate(-7905.138 -999.089)" fill="#fff"/><path d="M90.227,20.527H83.758a2.878,2.878,0,0,1,0-5.757h6.469a2.878,2.878,0,1,1,0,5.757" transform="translate(-7905.285 -999.052)" fill="#fff"/></g><g transform="translate(25.362 -29.871)"><g transform="translate(-7606.325 -719.849)" opacity="0.2"><g transform="translate(0 0)"><g clip-path="url(#l)"><path d="M368.184,280.137H322.225a22.5,22.5,0,0,0,0,44.991H353.5v14.634l14.634-14.634h.051a22.5,22.5,0,1,0,0-44.991" transform="translate(-299.73 -280.137)" fill="#4b4b4b"/></g></g></g><path d="M371.825,276.738H325.867a22.5,22.5,0,1,0,0,44.991H357.14v14.634l14.634-14.634h.051a22.5,22.5,0,1,0,0-44.991" transform="translate(-7906.068 -999.974)" fill="#fff"/><path d="M355.231,297.265H324.96a2.878,2.878,0,1,1,0-5.757h30.271a2.878,2.878,0,1,1,0,5.757" transform="translate(-7906.134 -1000.026)" fill="#b1b1b1"/><path d="M366.931,307.862H324.961a2.879,2.879,0,0,1,0-5.758h41.971a2.879,2.879,0,1,1,0,5.758" transform="translate(-7906.134 -1000.064)" fill="#b1b1b1"/><path d="M373.191,297.265h-6.469a2.878,2.878,0,0,1,0-5.757h6.469a2.878,2.878,0,1,1,0,5.757" transform="translate(-7906.281 -1000.026)" fill="#b1b1b1"/></g></g></svg>