<svg version="1.1" id="Layer_1" xmlns="http://www.w3.org/2000/svg" x="0" y="0" viewBox="0 0 100 100" xml:space="preserve"><style>.st0{fill:#fff}</style><g id="XMLID_1_"><g id="XMLID_34_"><path id="XMLID_13_" class="st0" d="M45.1 58.1l-2.5-2.5c-.4-.4-1.1-.3-1.3.3l-1.8 4.8-.3.9c-.3.7.6 1.4 1.2 1l4.7-3.2c.3-.3.4-.9 0-1.3z"/><path id="XMLID_12_" class="st0" d="M76.7 33.1L22.4 43.8c-.8.2-.9 1.3-.1 1.6l11.5 3.2h.5l25.1-8.1c.9-.3 1.5.9.7 1.5L43.5 52.9c-.4.3-.5.9-.1 1.3l10.2 10.1c.3.3.9.3 1.2-.1l22.8-29.8c.4-.6-.2-1.5-.9-1.3z"/><path id="XMLID_11_" class="st0" d="M55.6 42.9l-20.1 7c-.3.1-.5.5-.5.9l1.4 9.2c.1.8 1.3.9 1.6.2l2.6-7 .1-.3.4-.2 14.7-9.2c.4-.3.1-.7-.2-.6z"/></g><g id="XMLID_32_"><path id="XMLID_10_" class="st0" d="M87.6 43.3H76.8c-.2 0-.4-.2-.4-.4s.2-.4.4-.4h10.8c.2 0 .4.2.4.4s-.2.4-.4.4z"/></g><g id="XMLID_30_"><path id="XMLID_9_" class="st0" d="M23.8 63.2h-12c-.2 0-.4-.2-.4-.4s.2-.4.4-.4h12c.2 0 .4.2.4.4s-.1.4-.4.4z"/></g><g id="XMLID_28_"><path id="XMLID_8_" class="st0" d="M26.5 52.2h-23c-.3 0-.5-.2-.5-.4s.2-.4.4-.4h23.1c.2 0 .4.2.4.4.1.2-.1.4-.4.4z"/></g><g id="XMLID_26_"><path id="XMLID_7_" class="st0" d="M59.4 33.5H47c-.2 0-.4-.2-.4-.4s.2-.4.4-.4h12.3c.2 0 .4.2.4.4s-.1.4-.3.4z"/></g><g id="XMLID_24_"><path id="XMLID_6_" class="st0" d="M71.4 57h-4.5c-.2 0-.4-.2-.4-.4s.2-.4.4-.4h4.5c.2 0 .4.2.4.4s-.1.4-.4.4z"/></g><g id="XMLID_22_"><path id="XMLID_5_" class="st0" d="M16.4 45.1h-11c-.2 0-.4-.2-.4-.4s.2-.4.4-.4h11c.2 0 .4.2.4.4s-.2.4-.4.4z"/></g><g id="XMLID_20_"><path id="XMLID_4_" class="st0" d="M96.5 35.4h-14c-.2 0-.4-.2-.4-.4s.2-.4.4-.4h14c.2 0 .4.2.4.4.1.2-.1.4-.4.4z"/></g><g id="XMLID_18_"><path id="XMLID_3_" class="st0" d="M94.4 50.1H79.5c-.2 0-.4-.2-.4-.4s.2-.4.4-.4h14.9c.2 0 .4.2.4.4s-.2.4-.4.4z"/></g><g id="XMLID_16_"><path id="XMLID_2_" class="st0" d="M75.8 67.4h-11c-.2 0-.4-.2-.4-.4s.2-.4.4-.4h11c.2 0 .4.2.4.4s-.2.4-.4.4z"/></g></g></svg>