<svg version="1.1" id="Layer_1" xmlns="http://www.w3.org/2000/svg" x="0" y="0" viewBox="0 0 100 100" xml:space="preserve"><style>.st0{fill:#fff}</style><path id="XMLID_45_" class="st0" d="M90 42H78.5c-.2 0-.4-.2-.4-.4s.2-.4.4-.4H90c.2 0 .4.2.4.4s-.1.4-.4.4z"/><path id="XMLID_44_" class="st0" d="M33.1 67.8H20.3c-.2 0-.4-.2-.4-.4s.2-.4.4-.4h12.8c.2 0 .4.2.4.4s-.2.4-.4.4z"/><path id="XMLID_43_" class="st0" d="M12.1 47.8H4.8c-.2 0-.4-.2-.4-.4s.2-.4.4-.4h7.3c.2 0 .4.2.4.4s-.2.4-.4.4z"/><path id="XMLID_42_" class="st0" d="M74 36.4H60.9c-.2 0-.4-.2-.4-.4s.2-.4.4-.4H74c.2 0 .4.2.4.4.1.2-.1.4-.4.4z"/><path id="XMLID_41_" class="st0" d="M94.5 61.7h-4.9c-.2 0-.4-.2-.4-.4s.2-.4.4-.4h4.9c.2 0 .4.2.4.4.1.2-.1.4-.4.4z"/><path id="XMLID_40_" class="st0" d="M7.8 39H3c-.2 0-.4-.2-.4-.4s.2-.4.4-.4h4.9c.2 0 .4.2.4.4s-.2.4-.5.4z"/><path id="XMLID_39_" class="st0" d="M18.9 31.1h-8.3c-.2 0-.4-.2-.4-.4s.2-.4.4-.4h8.3c.2 0 .4.2.4.4.1.2-.1.4-.4.4z"/><path id="XMLID_38_" class="st0" d="M41 37.3H26c-.2 0-.4-.2-.4-.4s.2-.4.4-.4h15c.2 0 .4.2.4.4.1.2-.1.4-.4.4z"/><path id="XMLID_37_" class="st0" d="M97 49.3h-7.2c-.2 0-.4-.2-.4-.4s.2-.4.4-.4H97c.2 0 .4.2.4.4.1.2-.1.4-.4.4z"/><path id="XMLID_36_" class="st0" d="M80.4 65.2H68.6c-.2 0-.4-.2-.4-.4s.2-.4.4-.4h11.8c.2 0 .4.2.4.4s-.2.4-.4.4z"/><g id="XMLID_14_"><path id="XMLID_35_" class="st0" d="M59.3 65.7c-.5-.9-.9-2.1-.9-3.5 0-.6.1-1.1.2-1.6L53.9 65c1.8.5 3.9.6 5.4.7z"/><path id="XMLID_33_" class="st0" d="M54.1 33.4h-7.6c-.3 0-.5.3-.3.6l2.8 4.6 3.3-.2 7.2-.4-4.5-4.3c-.2-.2-.5-.3-.9-.3z"/><path id="XMLID_29_" class="st0" d="M24.1 52.2c2.7-1.6 3.8-3 4.2-3.9.2-.5 0-1-.5-1.2-.8-.3-2.2-.6-3.7-.6-1.4 0-3 .3-4.4 1.4-.1 0-.1.1-.2.2l-3 3.7c-.6.7-.1 1.7.7 1.8.4.1.9.1 1.4.1 1.6 0 3.4-.3 5.5-1.5z"/><path id="XMLID_27_" class="st0" d="M64.8 52.8c.4-.4.3-1.1-.3-1.3-1.5-.5-4.4-1.3-8.2-1.3-2.8 0-6 .4-9.5 1.6-.2.1-.3.2-.4.3l-7.8 13c-.5.9.1 2 1.1 2h8.6c.7 0 1.3-.3 1.8-.7l14.7-13.6z"/><ellipse id="XMLID_25_" class="st0" cx="61.5" cy="62.2" rx="1.7" ry="3.4"/><path id="XMLID_48_" class="st0" d="M80 45l-.2-.2c.1 0 .2.1.2.2z"/><path id="XMLID_50_" class="st0" d="M78.9 43.4l.3.6c0-.2-.2-.4-.3-.6z"/><path id="XMLID_51_" class="st0" d="M79.6 44.5c-.1-.1-.1-.2-.2-.3.1.1.2.2.2.3z"/><path id="XMLID_52_" class="st0" d="M81.3 46.1s-.1 0 0 0c-.1 0 0 0 0 0z"/><path id="XMLID_53_" class="st0" d="M81.7 46.4z"/><path id="XMLID_54_" class="st0" d="M80.9 45.8c-.1-.1-.1-.1 0 0-.1-.1-.1-.1 0 0z"/><path id="XMLID_55_" class="st0" d="M80.3 45.3l.1.1c0-.1 0-.1-.1-.1z"/><path id="XMLID_31_" class="st0" d="M86.3 48.4c-1.4-.6-2.8-1-4.2-1.8-1.3 1.1-6.4 1.4-8.3 1.1-1.4-.3-2.6-1.3-3.5-2.5-.5-.7 0-1.6.9-1.6 5.5.2 7.1-1.1 7.2-1.1.2.3.4.5.6.8-1.7-3.1-4.9-4.6-8.1-4.6h-.6c-3.4.2-11.6.7-17.7 1-6.1.4-25.2 1.5-25.2 1.5L23 34.9c-.8-1.3-2.2-2-3.7-2H19l-6.2.4c-1 .1-1.6 1.1-1.2 2.1 1.5 2.8 4.2 8 6.5 12.2l.3-.3c.1-.2.3-.3.4-.4 1.5-1.1 3.2-1.7 5.3-1.7 1.7 0 3.2.4 4.1.7.6.2 1.1.7 1.4 1.3.3.6.2 1.3-.1 1.9-.8 1.5-2.4 3-4.8 4.5-.4.2-.8.4-1.1.6.4.1.7.3 1.1.4 4.8 1.1 10.8 1.8 17.2 2.2l3.1-5.2c.3-.5.7-.8 1.2-1 3.3-1.1 6.6-1.7 10-1.7 4 0 7.1.8 8.6 1.3.8.3 1.3.9 1.5 1.7.2.8-.1 1.6-.7 2.1L62 57.4c8.1 0 15-.2 18.3-.4 10.9-.5 8.7-7.5 6-8.6zm-49.8-.5c0 .3-.3.6-.6.6h-1.2c-.3 0-.6-.3-.6-.6v-2c0-.3.3-.6.6-.6h1.2c.3 0 .6.3.6.6v2zm6.7 0c0 .3-.3.6-.6.6h-1.2c-.3 0-.6-.3-.6-.6v-2c0-.3.3-.6.6-.6h1.2c.3 0 .6.3.6.6v2zm6.6 0c0 .3-.3.6-.6.6H48c-.3 0-.6-.3-.6-.6v-2c0-.3.3-.6.6-.6h1.2c.3 0 .6.3.6.6v2zm6.7 0c0 .3-.3.6-.6.6h-1.2c-.3 0-.6-.3-.6-.6v-2c0-.3.3-.6.6-.6h1.2c.3 0 .6.3.6.6v2zm6.7 0c0 .3-.3.6-.6.6h-1.2c-.3 0-.6-.3-.6-.6v-2c0-.3.3-.6.6-.6h1.2c.3 0 .6.3.6.6v2z"/></g></svg>