<svg xmlns="http://www.w3.org/2000/svg" viewBox="0 0 500 500"><g fill="#e0e0e0"><path d="M83.39 411.5l-23.08-13.33c-2.32-1.33-2.32-3.5 0-4.84l274.84-158.68a9.3 9.3 0 018.38 0L366.62 248c2.31 1.34 2.31 3.5 0 4.84L91.78 411.5a9.26 9.26 0 01-8.39 0z"/><ellipse cx="420.09" cy="306.92" rx="41.91" ry="24.2"/><ellipse cx="199.64" cy="440.84" rx="39.08" ry="22.56"/></g><path d="M86.39 363.9s-1.7-14.89-9.1-26.44-17.58-18.77-27.08-19.52-17.16 8-7 14S71.42 344 79.72 366.48z" fill="#34c38f"/><path d="M86.39 363.9s-1.7-14.89-9.1-26.44-17.58-18.77-27.08-19.52-17.16 8-7 14S71.42 344 79.72 366.48z" opacity=".1"/><path d="M83.6 360a.17.17 0 00.1 0 .5.5 0 00.28-.66c-10-24.67-29.09-35-37.78-37a.5.5 0 00-.6.38.49.49 0 00.38.61c8.5 2 27.2 12.09 37.06 36.37a.51.51 0 00.56.3z" fill="#fff"/><path d="M32.89 360.32c.86 1.94 3 2.95 4.94 3.74s4.11 1.65 5.17 3.48c2.14 3.7-1.38 8.91.92 12.51a6.68 6.68 0 004.53 2.63 44 44 0 004.45.39 16.37 16.37 0 002.11-.16 9.63 9.63 0 016.13.65c2.94 1.65 3.84 5.37 5.63 8.23a14 14 0 009.91 6.21c1.32.17 3.78.41 5.13-.34a2.68 2.68 0 00.28-.18c.18-.21.42-.47.52-.62a.19.19 0 00.05-.09c.52-1.92-.33-3.91-.36-5.9a2 2 0 010-.35c.08-2.31.14-4.6.2-6.9q.17-6.35.12-12.7c0-2.75.31-5.76-.86-8.35-1.29-2.85-4.49-2.91-5.7-5.71-.48-1.11-.74-2.31-1.21-3.43a9.85 9.85 0 00-8.39-5.86c-5.59-.28-10.61 4.24-16.2 3.83a42.41 42.41 0 01-4.28-.81c-4.53-.85-9.76.44-12.31 4.27a5.85 5.85 0 00-.78 5.46z" fill="#34c38f"/><path d="M83.14 388a.48.48 0 00.34-.59c-7.73-29-38.27-33.18-45.42-32.67a.49.49 0 00-.44.52.48.48 0 00.51.44c7-.51 36.87 3.59 44.43 32a.47.47 0 00.58.3z" fill="#fff"/><path d="M49.2 373.26a.44.44 0 00.25-.13 25.4 25.4 0 0120.79-5.86.48.48 0 10.14-.94 26.39 26.39 0 00-21.61 6.13.48.48 0 000 .67.47.47 0 00.43.13z" fill="#fff"/><g><path d="M125.08 48.74a.94.94 0 00-1 .08l-2.08 1.4-.46 1.26a2.42 2.42 0 00.57 2.33A11.08 11.08 0 01123 55a1.41 1.41 0 002 .44l4.9-3.23a1 1 0 011-.1zm-7.54 18c-.69-4-3.22-6-6.5-5.68a10.13 10.13 0 01.68 2.32c1.08 6.29-2.91 15.22-8.9 19.94a12.2 12.2 0 01-6.29 2.81c2 4.22 7 4.62 12.12.55 5.99-4.68 9.97-13.68 8.89-19.95zm.1-26.9a1.18 1.18 0 00-.38-.16l-3.69-.83a2 2 0 00-2.1 1L108 46.44a3 3 0 01-.78.88 2.67 2.67 0 01-.59.4l1.09 3.61a1.25 1.25 0 001.74.8 18.93 18.93 0 012.28-.75 3.69 3.69 0 001.31-.69 3 3 0 00.79-.89l3.46-6.62a2 2 0 012.1-1l3.69.83a1.24 1.24 0 01.37.14zm-10.4 64.07a1 1 0 01-.35-.56l-1.25-4.14a1.24 1.24 0 00-1.74-.8 16.28 16.28 0 01-2.27.75 2.76 2.76 0 00-.72.3l.16.53a1.06 1.06 0 00.48.64zm-7.08-60.72a.8.8 0 00-.4-.11 1.06 1.06 0 00-.68.26l-5.54 4.35a1.39 1.39 0 00-.21.21.77.77 0 00-.15.16 3.48 3.48 0 00-.48.87l-.07.22a2.6 2.6 0 00-.15.89l.33 5.26a4.11 4.11 0 01-.81 2.54c-.91 1.09-1.76 2.23-2.56 3.4a2.81 2.81 0 01-1.22.94 1.81 1.81 0 01-.49.14.93.93 0 01-.23 0 1.15 1.15 0 01-.32 0l-3.55-.17h-.13a1.43 1.43 0 00-.29 0 1.1 1.1 0 00-.26.06 1.48 1.48 0 00-.29.12 2.51 2.51 0 00-.52.32 2.23 2.23 0 00-.57.73L78.2 71a1.42 1.42 0 00.56 1.8l3.95 2.2a1.71 1.71 0 01.09 1 36.3 36.3 0 00-.62 3.58A4.47 4.47 0 0181 82.07l-.06.05-4.85 4.45a1.86 1.86 0 00-.23.26 1 1 0 00-.19.32 2.83 2.83 0 00-.41 1.85l.93 5.35a1 1 0 00.42.72l5.8 3.34a1 1 0 01-.4-.7l-.92-5.35a2.38 2.38 0 01.06-1 2.81 2.81 0 01.76-1.4l4.84-4.45h.06A4.55 4.55 0 0088 83a33 33 0 01.62-3.57 1.79 1.79 0 00-1-2l-2.87-1.22a1.43 1.43 0 01-.75-1.9l3.34-7.49a2.1 2.1 0 01.57-.73 2.25 2.25 0 011.48-.53l3.56.17a2.39 2.39 0 001-.2 2.81 2.81 0 001.22-.94c.8-1.17 1.66-2.31 2.56-3.4a4.11 4.11 0 00.86-2.55l-.33-5.25a2.46 2.46 0 01.14-.91 2.93 2.93 0 01.97-1.48l5.53-4.35a1 1 0 011.09-.15zm-8.29 55.86a2.43 2.43 0 00-.59-2.33 10.93 10.93 0 01-.94-1.17 1.44 1.44 0 00-2-.45l-2.8 1.84-2 5.5a1.21 1.21 0 00.49 1.5l5.84 3.37a1.22 1.22 0 01-.49-1.51z" fill="#e0e0e0"/><path d="M86.75 85.48l-4.84 4.45a2.81 2.81 0 00-.76 1.4L75.34 88a2.92 2.92 0 01.29-.78 1 1 0 01.19-.32 1.86 1.86 0 01.23-.26l4.85-4.45zM94 65.54a2.39 2.39 0 01-1 .2l-3.56-.17a2.25 2.25 0 00-1.48.53l-5.82-3.36a2.51 2.51 0 01.52-.32 1.48 1.48 0 01.29-.12 1.1 1.1 0 01.26-.06 1.43 1.43 0 01.29 0h.09l3.55.17a1.15 1.15 0 00.32 0h.23a2.84 2.84 0 00.47-.15zM130.89 52.08a1 1 0 00-1 .12L125 55.42a1.41 1.41 0 01-2-.44 9.21 9.21 0 00-1-1.17 2.44 2.44 0 01-.57-2.34l.46-1.25 2.1-1.38a1 1 0 011-.1zM123.45 43.18a1.24 1.24 0 00-.37-.14l-3.69-.83a2 2 0 00-2.1 1l-3.46 6.62a3 3 0 01-.79.89l-5.82-3.37a3 3 0 00.78-.88l3.47-6.62a2 2 0 012.1-1l3.69.83a1.18 1.18 0 01.38.16zM106 46.54a1 1 0 00-1.09.15L99.37 51a2.93 2.93 0 00-.92 1.45l-5.82-3.35.07-.22a3.48 3.48 0 01.48-.87.77.77 0 01.15-.16 1.39 1.39 0 01.21-.21l5.54-4.35a1.06 1.06 0 01.68-.26.8.8 0 01.4.11z" fill="#fafafa"/><path d="M132.27 58.18l-.92-5.35a.88.88 0 00-1.46-.63L125 55.42a1.41 1.41 0 01-2-.44 11.08 11.08 0 00-1-1.17 2.42 2.42 0 01-.57-2.33l2.5-6.76a1.25 1.25 0 00-.92-1.68l-3.69-.82a2 2 0 00-2.09 1l-3.47 6.62a3.67 3.67 0 01-2.1 1.58 18.93 18.93 0 00-2.28.75 1.25 1.25 0 01-1.74-.8l-1.25-4.14a.92.92 0 00-1.56-.5L99.37 51a3.11 3.11 0 00-1.05 2.35l.33 5.26a4.17 4.17 0 01-.86 2.55 42.66 42.66 0 00-2.57 3.4A2.87 2.87 0 0193 65.74l-3.56-.17a2.27 2.27 0 00-2 1.25L84 74.32a1.44 1.44 0 00.75 1.9l2.87 1.22a1.79 1.79 0 011 2A33.15 33.15 0 0088 83a4.48 4.48 0 01-1.2 2.43l-4.9 4.5a3 3 0 00-.82 2.42L82 97.7a.88.88 0 001.46.63l4.9-3.22a1.4 1.4 0 012 .44 11.08 11.08 0 001 1.17 2.42 2.42 0 01.57 2.33l-2.5 6.76a1.24 1.24 0 00.92 1.68l3.69.82a2 2 0 002.09-1l3.47-6.61a3.67 3.67 0 012.1-1.58 18.24 18.24 0 002.27-.75 1.26 1.26 0 011.75.8l1.25 4.14a.92.92 0 001.56.49l5.47-4.32a3.07 3.07 0 001-2.34l-.33-5.27a4.16 4.16 0 01.86-2.54 44.55 44.55 0 002.57-3.4 2.84 2.84 0 012.25-1.15L124 85a2.26 2.26 0 002-1.26l3.35-7.49a1.44 1.44 0 00-.75-1.9l-2.87-1.22a1.78 1.78 0 01-1-2 33.58 33.58 0 00.62-3.58 4.45 4.45 0 011.2-2.43l4.9-4.51a2.94 2.94 0 00.82-2.43zm-23.63 28.49c-6 4.71-11.73 3.43-12.82-2.87s2.9-15.23 8.9-19.94 11.73-3.43 12.82 2.87-2.9 15.27-8.9 19.94z" fill="#f0f0f0"/><path d="M182.2 82.32a1.14 1.14 0 00-1.23.1l-2.53 1.67-.57 1.52a2.94 2.94 0 00.69 2.82 12.56 12.56 0 011.16 1.42 1.74 1.74 0 002.38.53l5.9-3.88a1.14 1.14 0 011.2-.13zm-9.11 21.74c-.83-4.8-3.88-7.19-7.85-6.87a12.31 12.31 0 01.82 2.81c1.31 7.6-3.51 18.39-10.75 24.09a14.7 14.7 0 01-7.59 3.39c2.37 5.1 8.38 5.58 14.63.67 7.24-5.7 12.05-16.49 10.74-24.09zm.13-32.5a1.39 1.39 0 00-.47-.18l-4.46-1a2.42 2.42 0 00-2.52 1.17l-4.2 8a3.59 3.59 0 01-.94 1.07 4.22 4.22 0 01-.71.48l1.31 4.36a1.52 1.52 0 002.1 1 20.46 20.46 0 012.75-.9 4.68 4.68 0 001.59-.83 3.54 3.54 0 001-1.08l4.19-8a2.43 2.43 0 012.52-1.17l4.47 1a1.5 1.5 0 01.45.16zM160.65 149a1.39 1.39 0 01-.42-.68l-1.51-5a1.51 1.51 0 00-2.1-1 21 21 0 01-2.75.91 3.5 3.5 0 00-.87.36l.2.64a1.25 1.25 0 00.58.77zm-8.55-73.39a1 1 0 00-.49-.13 1.24 1.24 0 00-.82.32l-6.69 5.25a2.84 2.84 0 00-.26.24 1.63 1.63 0 00-.17.2 4.53 4.53 0 00-.59 1.06c0 .08-.06.17-.08.25a3.07 3.07 0 00-.17 1.08l.4 6.36a5.12 5.12 0 01-1.05 3.08c-1.1 1.31-2.12 2.69-3.1 4.11a3.24 3.24 0 01-1.47 1.13 3.49 3.49 0 01-.58.18 1.45 1.45 0 01-.29 0 1.2 1.2 0 01-.38 0l-4.29-.21H132a2.07 2.07 0 00-.35 0 1.83 1.83 0 00-.32.07l-.35.14a3.25 3.25 0 00-.62.39 2.52 2.52 0 00-.69.88l-4 9a1.72 1.72 0 00.68 2.18l4.65 2.91a2.19 2.19 0 01.11 1.24 39.74 39.74 0 00-.75 4.31 5.45 5.45 0 01-1.44 2.94l-.07.06L123 128a1.43 1.43 0 00-.28.32v.05a1.9 1.9 0 00-.23.39A3.45 3.45 0 00122 131l1.12 6.46a1.32 1.32 0 00.51.88l7 4a1.21 1.21 0 01-.49-.85l-1.08-6.49a2.94 2.94 0 01.07-1.24 3.49 3.49 0 01.92-1.68l5.85-5.38.07-.06a5.54 5.54 0 001.45-2.94 39.74 39.74 0 01.75-4.31A2.16 2.16 0 00137 117l-3.48-1.48a1.72 1.72 0 01-.9-2.29l4-9a2.33 2.33 0 01.69-.88 2.67 2.67 0 011.78-.64l4.3.21a2.78 2.78 0 001.24-.25 3.32 3.32 0 001.48-1.13c1-1.42 2-2.8 3.1-4.11a5 5 0 001-3.08l-.4-6.35a2.91 2.91 0 01.16-1.1 3.6 3.6 0 011.11-1.74l6.68-5.25a1.15 1.15 0 011.33-.19zm-10 67.5a3 3 0 00-.7-2.82 10.79 10.79 0 01-1.15-1.42 1.73 1.73 0 00-2.38-.53l-3.38 2.22-2.49 6.64a1.49 1.49 0 00.59 1.82l7.06 4.07a1.48 1.48 0 01-.6-1.83z" fill="#e0e0e0"/><path d="M135.9 126.71l-5.85 5.38a3.49 3.49 0 00-.92 1.68l-7-4a4.23 4.23 0 01.35-.94 1.9 1.9 0 01.23-.39v-.05a1.43 1.43 0 01.29-.39l5.86-5.38zM144.65 102.62a2.78 2.78 0 01-1.24.25l-4.3-.21a2.67 2.67 0 00-1.78.64l-7-4.06a3.25 3.25 0 01.62-.39l.35-.14a1.83 1.83 0 01.32-.07 2.07 2.07 0 01.35 0h.11l4.29.21a1.2 1.2 0 00.38 0h.29c.18 0 .37-.12.56-.19zM189.22 86.37a1.11 1.11 0 00-1.2.14l-5.92 3.89a1.72 1.72 0 01-2.38-.54 11.45 11.45 0 00-1.16-1.41 2.94 2.94 0 01-.69-2.82l.57-1.51 2.56-1.67a1.13 1.13 0 011.23-.12zM180.24 75.61a1.5 1.5 0 00-.45-.16l-4.47-1a2.43 2.43 0 00-2.52 1.17l-4.19 8a3.54 3.54 0 01-1 1.08l-7-4.07a3.59 3.59 0 00.94-1.07l4.2-8a2.42 2.42 0 012.52-1.17l4.46 1a1.39 1.39 0 01.47.18zM159.15 79.67a1.15 1.15 0 00-1.33.19l-6.68 5.25a3.6 3.6 0 00-1.14 1.74l-7-4c0-.08.06-.17.08-.25a4.53 4.53 0 01.59-1.06 1.63 1.63 0 01.17-.2 2.84 2.84 0 01.26-.24l6.69-5.25a1.24 1.24 0 01.82-.32 1 1 0 01.49.13z" fill="#fafafa"/><path d="M190.89 93.73l-1.11-6.46a1.07 1.07 0 00-1.77-.76l-5.91 3.89a1.72 1.72 0 01-2.38-.54 12.37 12.37 0 00-1.15-1.41 2.92 2.92 0 01-.69-2.82l3-8.16a1.49 1.49 0 00-1.1-2l-4.46-1a2.42 2.42 0 00-2.53 1.18l-4.19 8a4.44 4.44 0 01-2.54 1.9 21.43 21.43 0 00-2.74.91 1.53 1.53 0 01-2.11-1l-1.51-5a1.12 1.12 0 00-1.89-.6l-6.68 5.26a3.75 3.75 0 00-1.26 2.88l.4 6.35a5 5 0 01-1 3.08c-1.1 1.31-2.13 2.69-3.1 4.11a3.46 3.46 0 01-2.72 1.38l-4.3-.21a2.77 2.77 0 00-2.47 1.51l-4 9.06a1.73 1.73 0 00.9 2.29L137 117a2.14 2.14 0 011.19 2.39 39.84 39.84 0 00-.74 4.32 5.36 5.36 0 01-1.45 2.94l-5.92 5.44a3.58 3.58 0 00-1 2.92l1.11 6.46a1.06 1.06 0 001.76.76l5.92-3.89a1.73 1.73 0 012.38.53 10.79 10.79 0 001.15 1.42 2.92 2.92 0 01.69 2.82l-3 8.16a1.49 1.49 0 001.1 2l4.46 1a2.41 2.41 0 002.53-1.17l4.19-8a4.37 4.37 0 012.53-1.9 21 21 0 002.75-.91 1.52 1.52 0 012.11 1l1.51 5a1.11 1.11 0 001.88.59l6.69-5.25a3.75 3.75 0 001.27-2.84l-.4-6.36a5 5 0 011-3.07c1.09-1.31 2.13-2.69 3.1-4.11a3.45 3.45 0 012.72-1.38l4.3.21a2.77 2.77 0 002.47-1.51l4-9.06a1.72 1.72 0 00-.9-2.29l-3.4-1.48a2.16 2.16 0 01-1.19-2.39 42.52 42.52 0 00.75-4.32 5.42 5.42 0 011.44-2.94l5.93-5.44a3.59 3.59 0 00.96-2.92zm-28.54 34.42c-7.25 5.69-14.18 4.14-15.49-3.47s3.5-18.39 10.74-24.09 14.18-4.14 15.49 3.47-3.5 18.39-10.74 24.09z" fill="#f0f0f0"/><path d="M43.49 215.43a2.84 2.84 0 00-.15-2.51 23.71 23.71 0 01-2.34-5.14 1.23 1.23 0 00-1.73-.8l-2.51 1.13a16.74 16.74 0 00.83 1.51 2.86 2.86 0 01.15 2.5l-6.9 13.93a1.58 1.58 0 00.61 2l5.67 3.27a1.58 1.58 0 01-.56-2zm30.68-96.94a.84.84 0 00-.37-.08 1.08 1.08 0 00-.57.16l-11.64 6.72-.17.12a2.2 2.2 0 00-.18.14l-.16.16a2.84 2.84 0 00-.3.37 2.79 2.79 0 00-.57 1.39L59 140.42a4.31 4.31 0 01-1.21 2.42 70.2 70.2 0 00-6.47 6.84 2.23 2.23 0 01-2.29.65l-7.46-2.61a1.34 1.34 0 00-.59-.08.14.14 0 00-.09 0 .2.2 0 00-.11 0l-.22.05a1.77 1.77 0 00-.65.34.4.4 0 00-.12.1 1.17 1.17 0 00-.28.35l-8.57 14.82a1.76 1.76 0 00-.18 1.08 1.69 1.69 0 00.56 1.13l6 5.17a2.21 2.21 0 01.58 2.3 67.8 67.8 0 00-2.69 9 4.09 4.09 0 01-.66 1.37 1.33 1.33 0 01-.21.26l-.19.24a3.72 3.72 0 01-.44.38l-10.63 7.49-.19.15a1.8 1.8 0 00-.19.2 3.11 3.11 0 00-.81 1.93v13.44a1 1 0 00.42.87l5.69 3.36a1 1 0 01-.42-.87v-13.44a3.1 3.1 0 01.47-1.5 2.77 2.77 0 01.71-.8l10.64-7.47a3.91 3.91 0 00.83-.88 4.28 4.28 0 00.66-1.39 73.44 73.44 0 012.69-9A2.21 2.21 0 0043 174l-6-5.17a1.7 1.7 0 01-.57-1.13 1.62 1.62 0 01.19-1.08l8.56-14.82a1.81 1.81 0 011.42-.86 1.56 1.56 0 01.68.08l7.47 2.61a2.21 2.21 0 002.29-.64 68 68 0 016.46-6.85 4.31 4.31 0 001.21-2.42l1.17-12.95a2.54 2.54 0 01.21-.77 3.12 3.12 0 011.18-1.41L79 121.87a1 1 0 01.88-.11zM66.3 233.76a1 1 0 01-.39-.77l-1.13-11.3a1.23 1.23 0 00-1.56-1.09 23.7 23.7 0 01-3.89.53l.86 8.57a1 1 0 00.44.78zm18.23-81c1.67 2.31 2.55 5.83 2.55 10.43 0 12.54-8.8 27.79-19.67 34.06-4.23 2.45-7.84 3.26-10.67 2.6 3.52 4.09 9.55 4.65 16.4.7C84 194.23 92.8 179 92.8 166.44c0-7.64-3.26-12.5-8.27-13.73zm11.32-36.12a1.56 1.56 0 00-2.06.48L85.18 130l-.12.16a1.39 1.39 0 01-.21.21l-.11.09-.12.1a2.92 2.92 0 01-1.69.56 16.31 16.31 0 00-1.71 0l.27 2.74a1.23 1.23 0 001.56 1.14 23.57 23.57 0 015.61-.56 2.92 2.92 0 001.68-.56 1.87 1.87 0 00.56-.56l8.61-13a1.56 1.56 0 012-.48zm16.66 24a.73.73 0 00-.19-.07 1.08 1.08 0 00-.71.09l-7.85 3.53c.2.37.37.74.54 1.13s.29.67.41 1a.6.6 0 01.08.21c.15.36.27.71.39 1.09a1.72 1.72 0 01.07.21 1.28 1.28 0 00.31.53.53.53 0 00.14.12l.1.07a.75.75 0 00.3.14h.1a1.4 1.4 0 00.5 0 1.19 1.19 0 00.22-.08l10.36-4.67a1 1 0 01.77-.07.35.35 0 01.14.06z" fill="#e0e0e0"/><path d="M101.55 119.88a1.56 1.56 0 00-2 .48l-8.61 13a1.87 1.87 0 01-.56.56l-5.72-3.3.24-.18a1.39 1.39 0 00.21-.21l.12-.16 8.61-12.94a1.56 1.56 0 012.06-.48zM40.27 186.71a3.91 3.91 0 01-.83.88l-10.64 7.47a2.77 2.77 0 00-.71.8l-5.71-3.29a4 4 0 01.32-.45 1.8 1.8 0 01.19-.2l.19-.15 10.63-7.49a3.72 3.72 0 00.44-.38l.19-.24c.07-.08.13-.17.2-.26zM46.65 150.94a1.81 1.81 0 00-1.42.86l-8.56 14.82a1.62 1.62 0 00-.19 1.08l-5.72-3.3a1.76 1.76 0 01.18-1.08l8.57-14.82a1.17 1.17 0 01.28-.35.4.4 0 01.12-.1 1.77 1.77 0 01.65-.34l.22-.05a.2.2 0 01.11 0 .14.14 0 01.09 0zM79.84 121.76a1 1 0 00-.88.11l-11.64 6.72a3.12 3.12 0 00-1.18 1.41l-5.71-3.3a3.42 3.42 0 01.35-.62 2.84 2.84 0 01.3-.37l.16-.16a2.2 2.2 0 01.18-.14l.17-.12 11.64-6.72a1.08 1.08 0 01.57-.16.84.84 0 01.37.08zM112.51 140.62l5.73 3.31a.35.35 0 00-.14-.06 1 1 0 00-.77.07L107 148.61a1.19 1.19 0 01-1.41-.26 1.28 1.28 0 01-.31-.53 1.72 1.72 0 00-.07-.21c-.12-.38-.24-.73-.39-1.09a.6.6 0 00-.08-.21c-.12-.34-.26-.68-.41-1s-.34-.76-.54-1.13l7.85-3.53a1.08 1.08 0 01.71-.09l.19.08z" fill="#fafafa"/><path fill="#fafafa" d="M118.24 143.93h.01v.01h-.01z"/><path d="M118.65 158.24v-13.45a.86.86 0 00-1.32-.85L107 148.61a1.24 1.24 0 01-1.73-.8 23.24 23.24 0 00-2.31-5.14 2.88 2.88 0 01-.15-2.51l6.9-13.92a1.56 1.56 0 00-.61-2l-7.49-4.33a1.58 1.58 0 00-2.07.49l-8.6 12.94a2.87 2.87 0 01-2.26 1.12 23 23 0 00-5.6.57 1.23 1.23 0 01-1.55-1.1l-1.14-11.31a.86.86 0 00-1.4-.71l-11.67 6.69a3.11 3.11 0 00-1.39 2.17l-1.17 12.95a4.31 4.31 0 01-1.21 2.42 70.11 70.11 0 00-6.46 6.86 2.22 2.22 0 01-2.29.65L47.33 151a1.84 1.84 0 00-2.1.78l-8.56 14.82a1.83 1.83 0 00.38 2.21L43 174a2.21 2.21 0 01.58 2.3 70.11 70.11 0 00-2.69 9 4.3 4.3 0 01-1.49 2.26l-10.63 7.49a3.11 3.11 0 00-1.19 2.28v13.47a.86.86 0 001.32.85L39.3 207a1.23 1.23 0 011.73.8 23.24 23.24 0 002.31 5.14 2.88 2.88 0 01.16 2.51l-6.91 13.92a1.57 1.57 0 00.61 2l7.5 4.33a1.57 1.57 0 002.06-.49l8.61-12.94a2.85 2.85 0 012.25-1.12 23 23 0 005.6-.57 1.24 1.24 0 011.56 1.1L65.91 233a.87.87 0 001.41.71L79 227a3.17 3.17 0 001.39-2.17l1.16-12.95a4.31 4.31 0 011.21-2.42 70.2 70.2 0 006.47-6.84 2.21 2.21 0 012.28-.65l7.49 2.6a1.83 1.83 0 002.09-.78L109.6 189a1.82 1.82 0 00-.37-2.21l-6-5.17a2.21 2.21 0 01-.58-2.3 70.11 70.11 0 002.69-9 4.36 4.36 0 011.49-2.26l10.64-7.49a3.13 3.13 0 001.18-2.33zM73.14 200.5c-10.86 6.27-19.67 1.19-19.67-11.35s8.81-27.79 19.67-34.06 19.66-1.19 19.66 11.35-8.8 27.79-19.66 34.06z" fill="#f0f0f0"/></g><g><path d="M362.11 41.15l-274 158v202a3.5 3.5 0 005.24 3l4.89-2.82L357 252.15a11.31 11.31 0 005.11-8.85z" fill="#fafafa"/><path d="M361.14 42.83V243.3a10.4 10.4 0 01-4.63 8L97.71 400.53l-4.88 2.82a2.48 2.48 0 01-1.25.34 2.57 2.57 0 01-1.77-.72 2.47 2.47 0 01-.77-1.82V199.74l272.1-156.91m1-1.68l-274 158v202a3.51 3.51 0 003.51 3.51 3.47 3.47 0 001.73-.47l4.89-2.82L357 252.15a11.31 11.31 0 005.11-8.85V41.15z" fill="#e0e0e0"/><path fill="#455a64" opacity=".8" d="M355.61 37.4L81.55 195.42l6.52 3.76L362.11 41.15l-6.5-3.75z"/><path d="M89.91 404.24a3.54 3.54 0 01-1.84-3.09v-202l-6.52-3.76v200.88a4.73 4.73 0 000 .75 5.39 5.39 0 002.66 4l5.38 3.11.27.15z" fill="#ebebeb"/><path d="M81.55 195.51v-13.63a5.68 5.68 0 012.55-4.43l269-155a5.6 5.6 0 015.09 0l1.4.81a5.64 5.64 0 012.55 4.42v13.58l-274 158z" fill="#34c38f"/><path d="M81.55 195.51v-13.63a5.68 5.68 0 012.55-4.43l269-155a5.6 5.6 0 015.09 0l1.4.81a5.64 5.64 0 012.55 4.42v13.58l-274 158z" fill="#fff" opacity=".3"/><path d="M88.07 185.64a5.69 5.69 0 012.54-4.43l269-155.06c1.4-.82 2.54-.17 2.54 1.46v13.65l-274 158z" fill="#34c38f"/><path d="M88.81 183.12a5.25 5.25 0 00-.74 2.52v13.63l-6.51-3.76v-13.63a5.19 5.19 0 01.74-2.51z" fill="#34c38f"/><path d="M88.81 183.12a5.25 5.25 0 00-.74 2.52v13.63l-6.51-3.76v-13.63a5.19 5.19 0 01.74-2.51z" opacity=".15"/><path d="M350.15 40.64c0 1.53 1.07 2.14 2.39 1.38a5.29 5.29 0 002.39-4.14c0-1.53-1.07-2.14-2.39-1.38a5.29 5.29 0 00-2.39 4.14zM340.58 46.16c0 1.53 1.07 2.15 2.39 1.38a5.27 5.27 0 002.39-4.14c0-1.52-1.07-2.14-2.39-1.38a5.29 5.29 0 00-2.39 4.14zM331 51.69c0 1.52 1.08 2.14 2.4 1.38a5.29 5.29 0 002.39-4.14c0-1.53-1.07-2.15-2.39-1.39a5.32 5.32 0 00-2.4 4.15z" fill="#fafafa"/><path d="M185.52 157v74.8a4.75 4.75 0 01-2.16 3.74l-73.55 42.56a2.48 2.48 0 01-.37.17c-1 .4-1.78-.18-1.78-1.41V202a4.57 4.57 0 01.63-2.12 4.29 4.29 0 011.53-1.6l73.56-42.58c1-.57 1.83-.27 2.08.63a1.28 1.28 0 01.05.27c0 .15.01.27.01.4zM349.9 62.17v106a4.73 4.73 0 01-2.15 3.72L211 250.85a2.53 2.53 0 01-.37.18h-.05c-1 .35-1.75-.23-1.75-1.44v-106a4.44 4.44 0 01.64-2.12 4.38 4.38 0 011.52-1.61l136.77-79c1-.57 1.83-.27 2.08.64a1.41 1.41 0 01.05.27c0 .17.01.28.01.4z" fill="#e0e0e0"/><path d="M115.53 371.67a4.5 4.5 0 01-2.29-.6c-1.64-.94-2.54-2.9-2.54-5.51 0-5.16 3.64-11.46 8.11-14 2.26-1.31 4.41-1.5 6-.55s2.54 2.9 2.54 5.51c0 5.16-3.64 11.46-8.11 14a7.61 7.61 0 01-3.71 1.15zm7-20.33a6.64 6.64 0 00-3.27 1 16.87 16.87 0 00-7.62 13.2c0 2.25.73 3.91 2.06 4.68s3.13.57 5.08-.55a16.9 16.9 0 007.62-13.21c0-2.25-.73-3.91-2.06-4.68a3.63 3.63 0 00-1.78-.44z" fill="#34c38f"/><path d="M116.55 360.84a.36.36 0 010-.24.8.8 0 01.09-.3l1.9-3.38c0-.08.09-.16.14-.24a.53.53 0 01.16-.17l.68-.39a.14.14 0 01.17 0 .34.34 0 01.07.22V365a.82.82 0 01-.07.3.44.44 0 01-.17.2l-.71.41a.12.12 0 01-.16 0 .29.29 0 01-.07-.22v-6.62l-1.24 2.2a.35.35 0 01-.17.17.13.13 0 01-.16-.05z" fill="#34c38f"/><path d="M139.14 358a4.6 4.6 0 01-2.3-.59c-1.64-.95-2.54-2.91-2.54-5.51 0-5.17 3.64-11.47 8.11-14.05 2.26-1.3 4.41-1.5 6.05-.55s2.54 2.91 2.54 5.51c0 5.16-3.64 11.47-8.11 14a7.58 7.58 0 01-3.75 1.19zm7-20.32a6.72 6.72 0 00-3.27 1 16.89 16.89 0 00-7.62 13.21c0 2.24.73 3.9 2.06 4.67s3.14.57 5.08-.55a16.89 16.89 0 007.61-13.16c0-2.24-.73-3.9-2.06-4.67a3.53 3.53 0 00-1.78-.46z" fill="#e0e0e0"/><path d="M143.15 346.58a2.78 2.78 0 00.33-.85 3.46 3.46 0 00.08-.66 1.21 1.21 0 00-.22-.81c-.14-.17-.38-.16-.72 0a1.59 1.59 0 00-.7.77 3.94 3.94 0 00-.32 1.1.8.8 0 01-.11.33.57.57 0 01-.15.18l-.69.39a.13.13 0 01-.17 0 .26.26 0 01-.07-.22 6.12 6.12 0 01.2-1.26 6.75 6.75 0 01.47-1.21 5.25 5.25 0 01.68-1 3.29 3.29 0 01.85-.72 1.55 1.55 0 01.95-.28 1 1 0 01.66.33 1.8 1.8 0 01.39.74 3.87 3.87 0 01.13 1v.66a4.53 4.53 0 01-.12.67 7.68 7.68 0 01-.28.79c-.12.29-.29.62-.49 1l-1.61 3.2 2.42-1.4a.12.12 0 01.17 0 .31.31 0 01.07.21v1a.82.82 0 01-.07.29.39.39 0 01-.17.2l-4.07 2.35a.11.11 0 01-.16 0 .25.25 0 01-.07-.21v-.82a1.19 1.19 0 01.08-.45 3.51 3.51 0 01.15-.32zM162.74 344.41a4.44 4.44 0 01-2.29-.59c-1.65-.95-2.55-2.9-2.55-5.51 0-5.16 3.64-11.46 8.11-14 2.26-1.31 4.41-1.5 6.05-.56s2.54 2.91 2.54 5.52c0 5.16-3.63 11.46-8.11 14a7.58 7.58 0 01-3.75 1.14zm7-20.32a6.72 6.72 0 00-3.27 1 16.9 16.9 0 00-7.62 13.21c0 2.25.73 3.91 2.06 4.67s3.13.58 5.08-.55a16.88 16.88 0 007.62-13.2c0-2.25-.73-3.91-2.06-4.68a3.53 3.53 0 00-1.79-.45z" fill="#e0e0e0"/><path d="M168.18 328a.11.11 0 01.16 0 .27.27 0 01.07.21v1a.94.94 0 01-.06.31 2.73 2.73 0 01-.13.29l-1.27 2.8a1.71 1.71 0 01.71-.11 1 1 0 01.55.24 1.37 1.37 0 01.34.61 3.1 3.1 0 01.13 1 5 5 0 01-.18 1.34 5.4 5.4 0 01-.5 1.21 5 5 0 01-.75 1 4.26 4.26 0 01-.93.74 2.67 2.67 0 01-1.06.39 1.2 1.2 0 01-.75-.14 1.07 1.07 0 01-.46-.52 2 2 0 01-.18-.77.54.54 0 01.06-.3.5.5 0 01.17-.2l.69-.4h.14a.46.46 0 01.12.18.83.83 0 00.14.22.46.46 0 00.23.12.77.77 0 00.36 0 2.37 2.37 0 00.54-.24 2.47 2.47 0 00.85-.82 2.06 2.06 0 00.33-1.12c0-.41-.11-.63-.33-.68a1.22 1.22 0 00-.85.24l-.73.41a.11.11 0 01-.16 0 .27.27 0 01-.07-.21v-1a.89.89 0 01.06-.31 2.73 2.73 0 01.13-.29l1.22-2.68-2.41 1.39a.13.13 0 01-.16 0 .29.29 0 01-.07-.22v-.95a.66.66 0 01.07-.3.47.47 0 01.16-.2z" fill="#e0e0e0"/></g><g><path d="M413.63 121.89l-23.6.68c-.87-.75-5.49-5.36-5.49-5.36S371 115.47 370.88 116s12 15.17 13.33 16.63a8.27 8.27 0 004.6 2.27c3.51.21 22.81.4 22.81.4z" fill="#b16668"/><path d="M414.8 121.89c-1.89-.52-24.34.35-24.34.35l-5.76-5.43s-3.27-.6-8.19-1.06-6.54 0-6.54 0 10.94 13.65 12.62 15.9 2.75 3.61 6.52 3.76c4.76.19 23.43.3 23.43.3z" fill="#455a64"/><path d="M248.48 286.78l-.74-.43a4.78 4.78 0 01-2.16-3.74v-106a4.78 4.78 0 012.16-3.74L384.5 93.93a4.75 4.75 0 014.31 0l.75.43a4.75 4.75 0 012.15 3.73v106a4.75 4.75 0 01-2.15 3.73l-136.76 79a4.77 4.77 0 01-4.32-.04z" fill="#34c38f"/><path d="M391.69 97.75c-.14-1.12-1.05-1.53-2.13-.91l-136.77 79a4.34 4.34 0 00-1.52 1.6l-5.05-2.91a4.33 4.33 0 011.52-1.62L384.5 93.93a4.75 4.75 0 014.31 0l.75.43a4.82 4.82 0 012.13 3.39z" fill="#fff" opacity=".4"/><path d="M252.43 287a4.78 4.78 0 01-3.94-.17l-.76-.43a4.78 4.78 0 01-2.14-3.74v-106a4.23 4.23 0 01.63-2.12l5.05 2.91a4.46 4.46 0 00-.63 2.12v106c0 1.2.77 1.77 1.79 1.43z" opacity=".1"/><path d="M264.59 263.85a.49.49 0 01-.42-.24.48.48 0 01.18-.66l114.07-65.86a.48.48 0 01.66.18.49.49 0 01-.18.66l-114.07 65.86a.53.53 0 01-.24.06z" fill="#37474f"/><path d="M259.32 255.05l4.64-2.68c.35-.2.63 0 .63.37v.81a1.37 1.37 0 01-.63 1.09l-4.64 2.68c-.35.2-.63 0-.63-.36v-.82a1.39 1.39 0 01.63-1.09zM259.32 243.7L264 241c.35-.2.63 0 .63.37v.82a1.39 1.39 0 01-.63 1.09l-4.68 2.72c-.35.2-.63 0-.63-.36v-.82a1.39 1.39 0 01.63-1.12zM259.32 232.35l4.64-2.68c.35-.2.63 0 .63.36v.82a1.39 1.39 0 01-.63 1.09l-4.64 2.68c-.35.2-.63 0-.63-.37v-.81a1.37 1.37 0 01.63-1.09zM259.32 221l4.64-2.67c.35-.2.63 0 .63.36v.82a1.39 1.39 0 01-.63 1.09l-4.64 2.68c-.35.2-.63 0-.63-.37v-.82a1.39 1.39 0 01.63-1.09zM259.32 209.64L264 207c.35-.21.63 0 .63.36v.82a1.39 1.39 0 01-.63 1.09l-4.64 2.67c-.35.2-.63 0-.63-.36v-.82a1.39 1.39 0 01.59-1.12zM259.32 198.28l4.68-2.68c.35-.2.63 0 .63.36v.82a1.39 1.39 0 01-.63 1.09l-4.64 2.68c-.35.2-.63 0-.63-.36v-.82a1.39 1.39 0 01.59-1.09zM259.32 186.93l4.64-2.68c.35-.2.63 0 .63.36v.82a1.39 1.39 0 01-.63 1.09l-4.64 2.68c-.35.2-.63 0-.63-.36V188a1.39 1.39 0 01.63-1.07zM296.87 161.49l49.5-28.49c.45-.26.82 0 .82.48v1.06a1.82 1.82 0 01-.82 1.42l-49.5 28.53c-.45.26-.81.05-.81-.47v-1.12a1.79 1.79 0 01.81-1.41zM273.08 263l4.64-2.67c.35-.2.63 0 .63.36v.82a1.39 1.39 0 01-.63 1.09l-4.64 2.67c-.34.21-.63 0-.63-.36v-.82a1.41 1.41 0 01.63-1.09zM286.86 255.05l4.63-2.67c.35-.2.63 0 .63.36v.82a1.39 1.39 0 01-.63 1.09l-4.63 2.68c-.35.2-.63 0-.63-.37v-.82a1.4 1.4 0 01.63-1.09zM300.63 247.1l4.64-2.68c.34-.2.62 0 .62.36v.82a1.4 1.4 0 01-.62 1.09l-4.64 2.68c-.35.2-.63 0-.63-.36v-.82a1.39 1.39 0 01.63-1.09zM314.4 239.14l4.64-2.67c.34-.2.63 0 .63.36v.82a1.41 1.41 0 01-.63 1.09l-4.64 2.68c-.35.2-.63 0-.63-.37v-.82a1.4 1.4 0 01.63-1.09zM328.17 231.2l4.64-2.68c.35-.2.63 0 .63.36v.82a1.39 1.39 0 01-.63 1.09l-4.64 2.68c-.35.2-.63 0-.63-.37v-.81a1.37 1.37 0 01.63-1.09zM341.94 223.25l4.64-2.68c.35-.2.63 0 .63.36v.82a1.39 1.39 0 01-.63 1.09l-4.64 2.68c-.34.2-.63 0-.63-.36v-.82a1.41 1.41 0 01.63-1.09zM355.72 215.3l4.63-2.68c.35-.2.63 0 .63.36v.82a1.39 1.39 0 01-.63 1.09l-4.63 2.68c-.35.2-.63 0-.63-.37v-.82a1.37 1.37 0 01.63-1.08zM369.49 207.34l4.64-2.67c.34-.2.62 0 .62.36v.82a1.4 1.4 0 01-.62 1.09l-4.64 2.67c-.35.2-.63 0-.63-.36v-.82a1.39 1.39 0 01.63-1.09z" fill="#455a64"/><path d="M275.4 252.94a.36.36 0 01-.36-.36v-1.45a.36.36 0 01.36-.36.37.37 0 01.37.36v1.45a.37.37 0 01-.37.36zM275.4 248.46a.36.36 0 01-.36-.36v-3a.36.36 0 01.36-.36.37.37 0 01.37.36v3a.37.37 0 01-.37.36zm0-6.06a.37.37 0 01-.4-.4v-3a.36.36 0 01.36-.36.37.37 0 01.37.36v3a.38.38 0 01-.33.4zm0-6.07a.36.36 0 01-.4-.33v-3a.36.36 0 01.36-.37.37.37 0 01.37.37v3a.37.37 0 01-.33.33zm0-6.06a.37.37 0 01-.36-.37v-3a.36.36 0 01.36-.36.37.37 0 01.37.36v3a.38.38 0 01-.37.37zm0-6.07a.36.36 0 01-.36-.36v-3a.36.36 0 01.36-.37.37.37 0 01.37.37v3a.37.37 0 01-.37.36zM275.4 218.14a.37.37 0 01-.36-.37v-1.45a.36.36 0 01.36-.36.37.37 0 01.37.36v1.45a.38.38 0 01-.37.37zM289.17 245a.36.36 0 01-.36-.36v-1.45a.37.37 0 11.73 0v1.45a.36.36 0 01-.37.36zM289.17 240.74a.36.36 0 01-.36-.36v-2.84a.37.37 0 01.73 0v2.84a.36.36 0 01-.37.36zm0-5.67a.36.36 0 01-.36-.36v-2.84a.37.37 0 11.73 0v2.84a.36.36 0 01-.37.36zm0-5.68a.36.36 0 01-.36-.36v-2.84a.37.37 0 01.73 0V229a.36.36 0 01-.37.39zm0-5.67a.36.36 0 01-.36-.36v-2.84a.37.37 0 11.73 0v2.84a.36.36 0 01-.37.36zm0-5.68a.36.36 0 01-.36-.36v-2.84a.37.37 0 01.73 0v2.84a.36.36 0 01-.37.32zm0-5.67a.36.36 0 01-.36-.36v-2.84a.37.37 0 01.73 0V212a.36.36 0 01-.37.37zm0-5.68a.36.36 0 01-.36-.36v-2.84a.37.37 0 01.73 0v2.84a.36.36 0 01-.37.36zm0-5.67a.36.36 0 01-.36-.36v-2.84a.37.37 0 01.73 0v2.84a.36.36 0 01-.37.34zm0-5.68a.36.36 0 01-.36-.36v-2.84a.37.37 0 01.73 0V195a.36.36 0 01-.37.34zm0-5.67a.36.36 0 01-.36-.36v-2.84a.37.37 0 01.73 0v2.84a.36.36 0 01-.37.36zM289.17 184a.37.37 0 01-.36-.37v-1.45a.37.37 0 01.73 0v1.45a.37.37 0 01-.37.37zM303 237.12a.37.37 0 01-.37-.36v-1.45a.37.37 0 01.37-.37.36.36 0 01.36.37v1.45a.36.36 0 01-.36.36zM303 233a.38.38 0 01-.37-.37v-2.71a.38.38 0 01.37-.37.37.37 0 01.36.37v2.71a.37.37 0 01-.36.37zm0-5.43a.38.38 0 01-.37-.37v-2.71a.37.37 0 01.37-.36.36.36 0 01.36.36v2.71a.37.37 0 01-.36.33zm0-5.43a.37.37 0 01-.37-.36V219a.37.37 0 01.37-.36.36.36 0 01.36.36v2.72a.36.36 0 01-.36.38zm0-5.43a.37.37 0 01-.37-.36v-2.75a.37.37 0 01.37-.37.36.36 0 01.36.37v2.71a.36.36 0 01-.36.36zM303 211.25a.38.38 0 01-.37-.37v-1.45a.37.37 0 01.37-.36.36.36 0 01.36.36v1.45a.37.37 0 01-.36.37zM316.72 229.21a.36.36 0 01-.36-.36v-1.46a.36.36 0 01.72 0v1.46a.36.36 0 01-.36.36zM316.72 224.8a.37.37 0 01-.36-.37v-3a.36.36 0 01.72 0v3a.37.37 0 01-.36.37zm0-5.93a.36.36 0 01-.36-.36v-3a.36.36 0 11.72 0v3a.36.36 0 01-.36.36zM316.72 213a.36.36 0 01-.36-.36v-1.46a.36.36 0 01.72 0v1.46a.36.36 0 01-.36.36zM330.49 221.3a.36.36 0 01-.36-.36v-1.46a.36.36 0 11.72 0v1.46a.36.36 0 01-.36.36zM330.49 217a.36.36 0 01-.36-.36v-2.84a.36.36 0 11.72 0v2.84a.36.36 0 01-.36.36zm0-5.68a.37.37 0 01-.36-.37v-2.84a.36.36 0 01.72 0V211a.37.37 0 01-.36.32zm0-5.69a.36.36 0 01-.36-.36v-2.85a.36.36 0 11.72 0v2.85a.36.36 0 01-.36.36zm0-5.69a.36.36 0 01-.36-.36v-2.84a.36.36 0 01.72 0v2.84a.36.36 0 01-.36.36zm0-5.68a.36.36 0 01-.36-.36v-2.85a.36.36 0 11.72 0v2.85a.36.36 0 01-.36.36zm0-5.69a.36.36 0 01-.36-.36v-2.84a.36.36 0 11.72 0v2.84a.36.36 0 01-.36.36zm0-5.68a.37.37 0 01-.36-.37v-2.84a.36.36 0 01.72 0v2.84a.37.37 0 01-.36.37zm0-5.69a.36.36 0 01-.36-.36V174a.36.36 0 01.72 0v2.85a.36.36 0 01-.36.35zM330.49 171.51a.36.36 0 01-.36-.36v-1.45a.36.36 0 11.72 0v1.45a.36.36 0 01-.36.36zM344.26 213.39a.37.37 0 01-.36-.37v-1.45a.36.36 0 01.36-.36.37.37 0 01.37.36V213a.38.38 0 01-.37.39zM344.26 208.9a.36.36 0 01-.36-.36v-3a.37.37 0 01.36-.37.38.38 0 01.37.37v3a.37.37 0 01-.37.36zm0-6.06a.36.36 0 01-.36-.37v-3a.36.36 0 01.36-.36.37.37 0 01.37.36v3a.37.37 0 01-.37.37zm0-6.07a.36.36 0 01-.36-.36v-3a.37.37 0 01.36-.37.38.38 0 01.37.37v3a.37.37 0 01-.37.36zm0-6.06a.36.36 0 01-.36-.36v-3a.36.36 0 01.36-.36.37.37 0 01.37.36v3a.37.37 0 01-.37.36zm0-6.07a.36.36 0 01-.36-.36v-3a.37.37 0 01.36-.37.38.38 0 01.37.37v3a.37.37 0 01-.37.36zM344.26 178.58a.36.36 0 01-.36-.36v-1.46a.36.36 0 01.36-.36.37.37 0 01.37.36v1.46a.37.37 0 01-.37.36zM358 205.48a.37.37 0 01-.36-.37v-1.45a.36.36 0 01.36-.36.37.37 0 01.37.36v1.45a.38.38 0 01-.37.37zM358 200.92a.36.36 0 01-.36-.36v-3.1a.36.36 0 01.36-.36.37.37 0 01.37.36v3.1a.37.37 0 01-.37.36zm0-6.2a.36.36 0 01-.36-.36v-3.1a.36.36 0 01.36-.36.37.37 0 01.37.36v3.1a.37.37 0 01-.37.36zM358 188.52a.36.36 0 01-.36-.36v-1.45a.37.37 0 01.36-.37.38.38 0 01.37.37v1.45a.37.37 0 01-.37.36zM371.81 197.56a.37.37 0 01-.37-.36v-1.45a.37.37 0 01.37-.36.36.36 0 01.36.36v1.45a.36.36 0 01-.36.36zM371.81 193.08a.37.37 0 01-.37-.36v-3a.37.37 0 01.37-.36.36.36 0 01.36.36v3a.36.36 0 01-.36.36zm0-6.06a.38.38 0 01-.37-.37v-3a.37.37 0 01.37-.36.36.36 0 01.36.36v3a.37.37 0 01-.36.35zm0-6.07a.37.37 0 01-.37-.36v-3a.37.37 0 01.37-.36.36.36 0 01.36.36v3a.36.36 0 01-.36.41zm0-6.06a.38.38 0 01-.37-.37v-3a.37.37 0 01.37-.36.36.36 0 01.36.36v3a.37.37 0 01-.36.37zm0-6.07a.37.37 0 01-.37-.36v-3a.37.37 0 01.37-.37.36.36 0 01.36.37v3a.36.36 0 01-.36.36zM371.81 162.76a.38.38 0 01-.37-.37v-1.45a.37.37 0 01.37-.36.36.36 0 01.36.36v1.45a.37.37 0 01-.36.37z" fill="#fafafa"/><path d="M278.62 214.43c1.77-1.05 3.21-5.15 3.21-9.16v-12.73a14 14 0 016.29-10.89l1.65-1c3.45-2 6.29-.36 6.29 3.63v21.81c0 4 2.83 5.63 6.28 3.63l3-1.75a2.64 2.64 0 014 2.29 2.64 2.64 0 003.93 2.31l3.14-1.75a14.19 14.19 0 006.23-11v-22.03A13.72 13.72 0 01329 167l1.56-.87c3.49-1.94 6.34-.27 6.34 3.73v3.64c0 4 2.83 5.63 6.29 3.63l1.66-1c3.46-2 6.29-.36 6.29 3.63v3.64c0 4 2.83 5.63 6.29 3.63l.78-.44a14 14 0 006.29-10.9v-3.64c0-4 1.64-8.21 3.66-9.38l3.67-2.11v36.33l-96.43 55.69v-36.26z" fill="#fafafa" opacity=".6"/><path d="M275.4 216.81a.49.49 0 01-.24-.91l3.21-1.89c1.62-.95 3-4.95 3-8.74v-12.73a14.45 14.45 0 016.53-11.31l1.64-.95c1.83-1.05 3.58-1.21 4.93-.43s2.09 2.37 2.09 4.48v21.81c0 1.75.57 3.05 1.61 3.65s2.44.44 4-.44l3-1.75a3.14 3.14 0 014.7 2.71 2.12 2.12 0 001.06 1.86 2.15 2.15 0 002.15 0l3.13-1.76a13.65 13.65 0 006-10.56v-22.06a14.17 14.17 0 016.59-11.22l1.55-.87c1.84-1 3.61-1.16 5-.36s2.1 2.4 2.1 4.51v3.64c0 1.75.57 3 1.61 3.64s2.44.45 4-.43l1.66-1c1.83-1.06 3.58-1.21 4.93-.43s2.09 2.37 2.09 4.48v3.64c0 1.76.57 3 1.6 3.65s2.44.44 4-.43l.77-.45a13.39 13.39 0 005.89-10.44v-3.64c0-4.23 1.72-8.53 3.91-9.8l3.66-2.11a.49.49 0 01.49.84l-3.67 2.11c-1.85 1.07-3.42 5.18-3.42 9v3.64a14.47 14.47 0 01-6.54 11.24l-.77.44c-1.83 1.06-3.58 1.21-4.93.44s-2.09-2.37-2.09-4.49v-3.64c0-1.75-.57-3-1.61-3.64s-2.44-.45-3.95.43l-1.67 1c-1.83 1.05-3.58 1.21-4.93.43s-2.09-2.37-2.09-4.48v-3.64c0-1.76-.57-3.06-1.62-3.68s-2.47-.48-4 .38l-1.55.86a13.14 13.14 0 00-6.09 10.38v22.09a14.76 14.76 0 01-6.47 11.4l-3.15 1.72a3.12 3.12 0 01-4.65-2.73 2.16 2.16 0 00-3.24-1.87l-3 1.75c-1.83 1.06-3.58 1.21-4.93.44s-2.09-2.37-2.09-4.49v-21.77c0-1.75-.57-3-1.6-3.64s-2.45-.45-4 .43l-1.64.95a13.36 13.36 0 00-6.05 10.47v12.73c0 4.23-1.52 8.43-3.46 9.57l-3.21 1.9a.55.55 0 01-.24.07z" fill="#fafafa"/><path d="M289.17 178.21c1.09-.63 2-.12 2 1.13a4.36 4.36 0 01-2 3.41c-1.08.62-2 .12-2-1.14a4.34 4.34 0 012-3.4z" fill="#fafafa"/><path d="M344.26 173.73c1.09-.63 2-.12 2 1.13a4.34 4.34 0 01-2 3.41c-1.08.63-2 .12-2-1.14a4.34 4.34 0 012-3.4zM303.35 206.43c1.09-.63 2-.12 2 1.14a4.32 4.32 0 01-2 3.4c-1.09.63-2 .12-2-1.13a4.34 4.34 0 012-3.41z" fill="#37474f"/><path d="M366.39 103.73a37 37 0 014.4 1.17c2.2.78 3 2 3.62 4.08a8.12 8.12 0 01.16 3.22 1.87 1.87 0 01-.44 1 4.32 4.32 0 01-1.26 1c-2 1.09-3.57 1.79-5.39.37-1.14-.88-2.19-1.88-3.39-2.67a10.88 10.88 0 00-3-1.23 15.36 15.36 0 00-3.77-.51 6.6 6.6 0 00-2.76 1 2.56 2.56 0 01.56-3c1.69-1.54 4.34-3.8 6.34-4.42 1.74-.55 3.11-.26 4.93-.01z" fill="#b16668"/><g><path d="M446.41 301.72c-2.52 1.45-5.36 1.42-8.44.25l-2-16.55 10 1zM415.49 292.71c-2 4.74-6 3.56-10.45.7l.27-16.7 10.61-.32z" fill="#b16668"/><path d="M428.19 318a3.8 3.8 0 00.19 2.56c.34.51 2.31 2.09 5.77 2.23s6.26-.39 8.16-1.68a5.74 5.74 0 002.93-4.57c.13-1.89-.14-3.7.72-5.17s2.06-2.91 2.33-3.65a7.3 7.3 0 00-.09-3.83z" fill="#263238"/><path d="M436.77 301.27a9.76 9.76 0 01-.34 2.11 19.38 19.38 0 01-1.91 4.2 16.34 16.34 0 01-1.32 2c-1 1.22-2.17 2.23-3.2 3.4a6.84 6.84 0 00-1.92 4.12c-.06 2.6 2.78 3.4 5 3.72a16.09 16.09 0 007-.56 6.49 6.49 0 004.59-5.31c.09-.73 0-1.46.09-2.19a10.26 10.26 0 011.88-4.59 13.63 13.63 0 001.48-2.52c.62-1.62 0-3.41-.45-5-.42-1.37-.88-2.92-1.37-2.78a1.71 1.71 0 01-.09.84 3.45 3.45 0 00-.35.83 7.25 7.25 0 01-.37 1.08 2.81 2.81 0 01-1.11 1.3l-.18-2.93a1 1 0 00-1.09-1.2 18.6 18.6 0 00-5.56-.29.8.8 0 00-.84 1c.04.95.1 1.86.06 2.77z" fill="#455a64"/><path d="M434.19 308.14c.95-.76 3.11-.83 4.3-.74a7.22 7.22 0 013.39 1.08.78.78 0 001-.11.72.72 0 00-.11-1.1 7.32 7.32 0 00-3.82-1.29c-2.92-.11-3.76.41-3.76.41s-1.31.89-1 1.75zM432.05 310.86c1.19-.76 3.58-.72 4.76-.63a6.62 6.62 0 013.31 1.15.78.78 0 001-.11.72.72 0 00-.11-1.1 7.57 7.57 0 00-3.91-1.4c-2.92-.12-3.66.5-3.66.5a2.41 2.41 0 00-1.39 1.59zM440 303.16a7.39 7.39 0 00-3.66.42c-.5.3-.81 1.12-.48 1.32a6.73 6.73 0 013.23-.54 9.47 9.47 0 013.18.77c.25.1.55.25.81.38a.7.7 0 00.95-.32.65.65 0 00-.28-.83 9.34 9.34 0 00-3.75-1.2z" fill="#f5f5f5"/><path d="M388 304.21a3.17 3.17 0 00.2 2.3c.34.67 3.93 2.55 8.68 2.09a19.86 19.86 0 009.73-3.73c1.78-1.26 3.66-1.54 6-1.74s5.41-1.48 5.9-2.59a5.25 5.25 0 00-.17-3z" fill="#263238"/><path d="M406.66 289l-1.25-.42a1.1 1.1 0 00-.71-.06c-.3.12-.41.49-.48.8a12 12 0 01-.46 2.09 5.2 5.2 0 01-1.29 1.44 22.68 22.68 0 01-3.73 2.57c-1.53.88-3 1.57-4.62 2.34s-3.77 1.3-5 2.2a3.43 3.43 0 00.19 5.67c1.86 1 6.73 2.05 11.75.46 2.73-.86 5.71-3.9 9.32-4.29 2.3-.25 6.63-1 8.06-2.82.53-.79-.28-3.23-.94-5.33-.73-2.3-1.08-5.91-1.84-5.69 0 .77-.69 1.24-1.07 1.9a13.79 13.79 0 00-.78 1.86 3.34 3.34 0 01-1.15 1.62 1.53 1.53 0 01-1.87-.05c-.7-.68-.33-1.92-.85-2.74a2.93 2.93 0 00-1.66-1z" fill="#455a64"/><path d="M400.85 294.11a2.13 2.13 0 011.66-1.19 6.2 6.2 0 014.1 1.41.86.86 0 01-.08 1.42.88.88 0 01-1-.08 6.56 6.56 0 00-4.68-1.56zM397.66 296a2.45 2.45 0 012-1.1 7.63 7.63 0 014.48 1.52.85.85 0 01-.08 1.38.83.83 0 01-1-.08 6.54 6.54 0 00-5.4-1.72zM394.12 297.77a2.74 2.74 0 012.06-1 7.38 7.38 0 014.3 1.55.84.84 0 01-.08 1.37.81.81 0 01-.95-.08 6.29 6.29 0 00-5.33-1.84z" fill="#f5f5f5"/><path d="M442.51 177.72c1.14 18.14 3 61.07 3 61.07.26 2.26 1.09 7.68 1.5 15.81.6 11.79-.34 37.83-.34 37.83a12.73 12.73 0 01-10.06.79s-6.71-37.13-8.86-48.71c-1.88-10.17-5.56-32.24-5.56-32.24L420.45 240a81.21 81.21 0 01-.4 15c-.67 5.38-3.91 28.73-3.91 28.73a21.41 21.41 0 01-11.39.09s-1-38.11-1.28-43.07c-.28-5.65-1.46-66.62-1.46-66.62z" fill="#37474f"/><path d="M422.17 212.27l-3.17-14.8s-7.46-.43-11.7-4.46c0 0 .85 4 10.29 6.21l3.13 15 .31 13.92z" fill="#263238"/><path d="M439.08 123.73c3.57.63 3.81 2.4 4.59 5.94a29 29 0 01.9 8.69l-2.65 20.91.91 24.08c-5.74 6.24-28.69 8.25-41.22-.91 0 0 .14-39.56.72-45.9 1-11.1 6-15 13.42-15l12.62 1.07z" fill="#34c38f"/><path d="M425.74 95.69a11.21 11.21 0 11-11.17-11.24 11.2 11.2 0 0111.17 11.24zM429.25 97.88l2.39-6.42a4.21 4.21 0 013.48 1.23c1.49 1.54.64 6.32-1.24 11 0 0-1.84 8.53-2.58 9.93a3.89 3.89 0 01-2.24 1.79z" fill="#263238"/><path d="M429.43 104.07c.69.41 1.67-.9 2.52-1.78s3.61-2.09 5 .82-1.24 6.86-3.41 7.54c-3.76 1.16-4.31-1.24-4.31-1.24l-.33 13.51a12.08 12.08 0 01-9.12 6.87c-6.65.88-5.26-4.59-3.07-7.27v-4.11a23.74 23.74 0 01-5 .24c-2.75-.44-4.48-2.62-5.3-5.6-1.33-4.8-1.83-8.67-.65-18.08C407 84.64 419 84.58 425.47 88.68s3.96 15.39 3.96 15.39z" fill="#b16668"/><path d="M429.36 105c1.09-.32 1.88-2 2.59-2.69 1.19-1.08-.31-10.83-.31-10.83a4.62 4.62 0 00-1.12-4.94c-1.62-1.79-4.32-2-8.95-2.74-2.28-.36-5-.54-7.23-1a22.85 22.85 0 01-6.72-2.15 2.06 2.06 0 00-1.28-.33 1.21 1.21 0 00-.81.67 2.29 2.29 0 00-.19 1.07 4 4 0 00.2 1.13c.07.21.51.87.42 1.06-.24.47-2-.32-2.37-.43a.29.29 0 00-.41.15 4.33 4.33 0 00.21 3.75 12.63 12.63 0 006.36 5.41 17.42 17.42 0 008.68 1.21 16.3 16.3 0 003.7-.86 9.38 9.38 0 00.81 1.27 5.46 5.46 0 001.2 1 4.74 4.74 0 001.44.67c.52.14 1 .07 1.32.64a2.68 2.68 0 01.22 1.19l.1 3.59a5.7 5.7 0 00.25 1.79 1.93 1.93 0 001.2 1.27 1.16 1.16 0 00.69.1z" fill="#263238"/><path d="M416.71 118.41s6.16-1.22 8.31-2.36a7 7 0 003-2.93 9.72 9.72 0 01-1.7 3.47c-1.58 2-9.6 3.45-9.6 3.45z" fill="#9a4a4d"/><path d="M417.62 102.21a1.24 1.24 0 101.24-1.28 1.27 1.27 0 00-1.24 1.28zM419.1 98.41l2.73 1.77a1.72 1.72 0 00-.5-2.31 1.58 1.58 0 00-2.23.54z" fill="#263238"/><path d="M419.68 109.7l-4.34 1.86a2.4 2.4 0 003.19 1.26 2.3 2.3 0 001.15-3.12z" fill="#9a4a4d"/><path d="M406.32 99.75l2.6-1.57a1.45 1.45 0 00-2-.55 1.59 1.59 0 00-.6 2.12zM407.34 101.82a1.23 1.23 0 102.46 0 1.24 1.24 0 00-1.22-1.28 1.26 1.26 0 00-1.24 1.28z" fill="#263238"/><path fill="#9a4a4d" d="M414.21 101.16l-1.05 7.87-4.02-1.73 5.07-6.14z"/></g><path d="M439.52 123.82L424.61 156s-20.88-.66-27.74-1.92c-2.34-.42-1.93-1.72-2.88-4.22s-2.3-2-2.3-2v3.41c.08 2.25-3.5 3.4-5.09 4-2.61 1-5.48 1.67-8.18 2.51a4 4 0 00-2.4 1.46 2.55 2.55 0 00.08 2.48c1.23 2.2 2.89 4.07 5.33 4.36 3 .36 6.37-.47 9.3-1 3.46-.62 5.9-1.43 9.33-1s8.11 1 11.38 1.58c3.77.68 11.87 2 15.15 2.11 2.37.1 4 1.07 6.66-3.25 1.85-3 6-10.87 9.6-17.81 3.66-7.15 4.88-11.64 4.69-16.17-.08-2.27-2.02-6.24-8.02-6.72z" fill="#b16668"/><path d="M438.45 123.66c3.07.18 5.76.62 7.57 2.15s3.42 4.11.84 13.16-13 25.85-14.52 27.93-3.79 1.53-8.19 1.06-13.71-2.45-13.71-2.45 1.43-7 .81-10.1l13 .28 8.19-20.32s2.71-8.02 6.01-11.71z" fill="#455a64"/></g><g><path d="M196.14 434.4l-.43-11.62 9.35-5.61s-1 12.22-.77 13.9 2.37 2.72 2.76 3.85-5.36 13.08-8.74 15.78-9.1-.44-9.69-1.66 2.77-1.25 4.44-2.3c.59-.38 1.27-.89 1.27-.89a105.8 105.8 0 001.81-11.45z" fill="#ffa8a7"/><path d="M205.52 432.82c-1.09 1-1.87 3.35-3.3 6.61s-2.35 6.78-6.16 8.78c-2.58 1.36-6.35.36-4.47-.47a10.77 10.77 0 002.74-1.89 10.65 10.65 0 01-4.43 1.62c-2.12.28-6.5 1.58-3.66 4.8 1.1 1.24 3.42 1.94 8 2 4.36 0 6.36-1.32 7.9-4.49 1.87-3.83 6-7.86 7.31-10 1.63-2.68-1.25-6.36-3.93-6.96z" fill="#37474f"/><path d="M262.29 403.51l-7-7.47 5.39-6.74 6.17 6.22c1.66 1.26 3.18.8 4.21 1.42s4.22 13.48 3.35 17.72-7.28 5.48-8.52 4.91 1.34-2.73 1.95-4.6c.21-.67.41-1.5.41-1.5a103.92 103.92 0 00-5.96-9.96z" fill="#ffa8a7"/><path d="M268.5 396.3c-.22 1.45.7 3.77 1.68 7.19s2.52 6.73.87 10.7c-1.12 2.69-4.65 4.33-3.74 2.49a10.89 10.89 0 00.9-3.21 10.58 10.58 0 01-2.38 4.08c-1.44 1.57-4.09 5.62.2 5.7a12.08 12.08 0 007.83-2.55 9.39 9.39 0 002.86-9.21c-1-4.15-.44-9.86-.79-12.39-.41-3.1-4.99-4.05-7.43-2.8zM194.25 314.62s19.14 45.6 21.21 50.69 3.78 7.14 6.83 9.25S257.94 399 257.94 399c6.08-2.53 6.21-6.48 6.21-6.48s-16.07-20.4-20.35-24.16-11.12-6-11.12-6l-4.57-33.09c-1.34-6.51-.51-13.69-10.19-24.77z" fill="#37474f"/><path d="M217.92 304.52l-32.8 3.78s.3 26.2 1.9 47.34c1.76 23.37 8.5 70.44 8.5 70.44a18.3 18.3 0 009.24-1S209 391 209 386.07a48.84 48.84 0 00-2.39-14.33c.64-10.24 4.43-24.1 5-36 8.63-3.56 11.78-8.36 13-14.79 1.17-6.18-4.37-12.65-6.69-16.43z" fill="#37474f"/><path d="M209.65 351.36l2.82-17.56s8.88-3.17 12.3-7.78c0 0-1.09 6.7-9.47 9.89-.54.68-4.77 17.56-4.77 17.56z" fill="#263238"/><path d="M205.38 216.46c-3.71-3-5.66-4.77-8.63-7.48a1.91 1.91 0 00-3 .23l5.92 15.8a9.84 9.84 0 012.68 2.29c1.13 1.49 5 24.06 5 24.06l10.85-2.89s-7.72-27.96-12.82-32.01z" fill="#ffa8a7"/><path d="M119.68 290.67l-.74-.43a4.78 4.78 0 01-2.16-3.73V211.7a4.79 4.79 0 012.16-3.74l73.56-42.57a4.81 4.81 0 014.31 0l.75.43a4.77 4.77 0 012.15 3.74v74.81a4.75 4.75 0 01-2.16 3.73L124 290.67a4.77 4.77 0 01-4.32 0z" fill="#34c38f"/><path d="M199.69 169.21c-.15-1.11-1.05-1.52-2.13-.9L124 210.89a4.42 4.42 0 00-1.52 1.6l-5-2.91a4.33 4.33 0 011.52-1.62l73.55-42.56a4.77 4.77 0 014.32 0l.75.42a4.84 4.84 0 012.07 3.39z" fill="#fff" opacity=".4"/><path d="M123.63 290.84a4.78 4.78 0 01-3.94-.17l-.76-.43a4.77 4.77 0 01-2.15-3.74v-74.8a4.27 4.27 0 01.64-2.12l5 2.91a4.48 4.48 0 00-.64 2.13v74.81c.05 1.23.83 1.81 1.85 1.41z" opacity=".1"/><path d="M149.12 219.26c-7.16 8.62-12.06 20.67-12.06 31.26a22.47 22.47 0 002.77 11.67l19.25-24.4z" fill="#37474f"/><path d="M169 207.71a18.35 18.35 0 00-9.94 2.83 37.33 37.33 0 00-10 8.72l10 18.53z" fill="#34c38f"/><path d="M169 207.71a18.35 18.35 0 00-9.94 2.83 37.33 37.33 0 00-10 8.72l10 18.53z" opacity=".45"/><path d="M179.06 214.75c-2.09-4.35-5.64-6.83-10-7l-9.94 30.08z" fill="#34c38f"/><path d="M179.06 214.75l-20 23-19.25 24.4c3.78 6.14 11 7.63 19.25 2.85 12.16-7 22-24.92 22-40a23.84 23.84 0 00-2-10.25z" fill="#34c38f"/><path d="M179.06 214.75c-2.09-4.35-5.64-6.83-10-7l-9.94 30.08z" fill="#455a64"/><path d="M179.06 214.75l-20 23-19.25 24.4c3.78 6.14 11 7.63 19.25 2.85 12.16-7 22-24.92 22-40a23.84 23.84 0 00-2-10.25z" fill="#34c38f"/><path d="M179.06 214.75l-20 23-19.25 24.4c3.78 6.14 11 7.63 19.25 2.85 12.16-7 22-24.92 22-40a23.84 23.84 0 00-2-10.25z" opacity=".25"/><path d="M139.83 262.7a.5.5 0 01-.4-.25 23 23 0 01-2.85-11.93c0-10.43 4.66-22.54 12.18-31.59a.51.51 0 01.84.08l10 18.54a.5.5 0 010 .55l-19.25 24.4a.48.48 0 01-.52.2zm9.2-42.53c-7.09 8.81-11.46 20.37-11.46 30.35a22.83 22.83 0 002.33 10.76l18.57-23.54z" fill="#fff"/><path d="M159.08 238.3a.5.5 0 01-.45-.27l-10-18.53a.51.51 0 01.05-.57 37.88 37.88 0 0110.1-8.83 19 19 0 0110.22-2.9.54.54 0 01.4.22.51.51 0 01.06.45l-9.9 30.13a.52.52 0 01-.44.35zm-9.35-19l9.27 17.2 9.35-28.29a18.52 18.52 0 00-9 2.77 36.29 36.29 0 00-9.62 8.34z" fill="#fff"/><path d="M159.08 238.3a.48.48 0 01-.26-.07.51.51 0 01-.23-.6l9.94-30.08a.53.53 0 01.51-.35c4.59.22 8.31 2.82 10.48 7.33a.49.49 0 01-.08.55l-20 23a.49.49 0 01-.36.22zm10.3-30.06l-9 27.29 18.09-20.86a11 11 0 00-9.09-6.43z" fill="#fff"/><path d="M149.75 268.38a11.76 11.76 0 01-10.35-5.92.53.53 0 010-.59l19.24-24.4 20-23.05a.5.5 0 01.46-.17.52.52 0 01.39.28 24.27 24.27 0 012.1 10.52c0 15.2-10 33.33-22.29 40.43a19.42 19.42 0 01-9.55 2.9zm-9.29-6.16c3.8 5.83 10.8 6.75 18.36 2.38 12-6.94 21.78-24.68 21.78-39.55a23.82 23.82 0 00-1.68-9.36l-19.46 22.43z" fill="#fff"/><path d="M145.61 206.15l26.95-15.54c.45-.27.81-.05.81.47v1.06a1.81 1.81 0 01-.81 1.42l-26.95 15.54c-.45.26-.82.05-.82-.47v-1.06a1.82 1.82 0 01.82-1.42z" fill="#455a64"/><path d="M155.25 291.28c-7 2-8.77.92-11.2-1.75-1.18-1.29-16.75-20.95-18.65-23.11s-2.11-2.72-5-4.06-3.72-1.55-5.09-3.22-.78-2.45-.85-3.52c-.09-1.48-.94-2.21-1-3.32-.12-1.38.51-2 .48-2.64 0-1-.59-1.33-.65-3.15 0-.63 2.57-3.28 3.48-4.28v4.89c2.86 4 7.49 3.67 8 3.1s.41-3.49 1.34-5.15 2.89-2.27 2.72-.64c-.08.95.17 4.24.22 5.72a12 12 0 001.31 5.66c1.49 2.64 23.78 23.67 23.78 23.67M199.68 219.56a8.37 8.37 0 00-2.74-2.46c-1.74-.95-2.55-2.45-2.12-3.43.33-.74 1.54 0 2.62.4s4.06 1.34 5.54 2.67 1.91 2.35 3.45 2.21a4.57 4.57 0 01-3.18 1.47 6 6 0 01-3.57-.86z" fill="#ffa8a7"/><path d="M138.86 282.76c10.61-4.57 21.44-8.19 32.19-12.45 5-2 8.16-3.23 12-4.36 3.66-1.07 7.35-.93 11-1.58.44-.1.91-.18 1.39-.26 6.21-1.14 15.58-2.87 18.12-3.32.24-.05.46-.08.66-.13a7.18 7.18 0 011.79.06 6.22 6.22 0 013.83 3.27c1 2.26 1.37 4.25.63 8.1-.2 1-1.68 4.08-2.62 7.47-1.73 6.23-3.33 14.13-4.44 17.1-.07.13-.1.24-.15.33l4.64 7.54s-3.11 3.84-12.34 6.53-20.46-2.77-20.46-2.77-2.37-12.43-2.81-15.92c0-.2-.08-.51-.13-.87-.09-.74-.88-5.87-.88-5.87-.34-1-2.85-.68-10.58 1.59s-18 4.66-18 4.66z" fill="#ffa8a7"/><path d="M219.67 254.15c-2.95-11.51-5.75-23-5.75-23L202.37 235l8.51 36.27 9.62.87c2.08-7.3.78-11.72-.83-17.99z" fill="#ffa8a7"/><path d="M207.42 261.66c.67-.1.69-.8.27-3s-1.05-4.92-1.05-4.92 7.76-3.29 12.88-2.16c0 0 .85 3.12 2.06 9.46s-.13 9.57-3.89 19.21z" fill="#455a64"/><path fill="#ffa8a7" d="M192 257.05l1.35 11.91 11.74 1.35-1.7-15.79-11.39 2.53z"/><path d="M185 238.44a4.5 4.5 0 01-2.27-3.44 4.84 4.84 0 011.66-3.83 5.49 5.49 0 01-1.54-4.52 5 5 0 012.8-3.82 4.5 4.5 0 014.66.64 3.88 3.88 0 012-3.74 6.09 6.09 0 014.34-.55 14.44 14.44 0 014.1 1.76 38.72 38.72 0 003.69 2c1.2.52 2.76.88 4 1.31 4.48 1.55 10.89 5.75 9.56 17.21-.79 6.73-19.22 10.42-19.12 15.07l-.08-.09-5-6-3.82-4.59c-1.19-1.43-2.57-3-2.66-4.94a1.84 1.84 0 00-1.74-2.23 4.37 4.37 0 01-.58-.24z" fill="#263238"/><path d="M183.86 241.9s-2.85 3.91-2.52 4.35a6.41 6.41 0 002 1z" fill="#f28f8f"/><path d="M192.57 229.48c-2.65 1.22-7.24 3.5-8.82 13-1.61 9.75 0 13 1.24 14.31.86.91 5.72 1.13 8.18.48 3.09-.81 10.05-3.18 13.36-8.1 3.9-5.8 5-13.7.94-17-5.7-4.63-12.66-3.73-14.9-2.69z" fill="#ffa8a7"/><path d="M191.38 228.9c-.54.22-1.7.12-2.14.5a4.94 4.94 0 00-1.44 4.12 4.24 4.24 0 002.74 3.47 12.56 12.56 0 00-.19 3.88c.21 1.3.46 3 1.24 3.6 0 0 1.74-3.42 4.69-2.28s2.53 5.15.06 7.1-3.83.36-3.83.36-.26 4.87 3.43 6.9a10.5 10.5 0 007.88 2c2.61-3.6 6.09-5 9-7.83 7.59-7.44 7.07-18.45-3.46-22.48a20.54 20.54 0 00-9.62-1.33 18.77 18.77 0 00-3.57.77c-.49.16-1 .34-1.43.53a5.07 5.07 0 01-1.69.27 6.26 6.26 0 00-1.67.42z" fill="#263238"/><path d="M185 256.79c.75.79 4.47 1.06 7.06.7l-.18-1.75a20.51 20.51 0 01-3.93 1c-2.29.38-3.06-.1-3.1-.13z" fill="#f28f8f"/><path d="M217.53 283.33c-1.67 6.17-3 10.51-4.09 13.33-.07.13-.1.24-.15.33l4.64 7.54s-3.11 3.84-12.34 6.53-20.44-1.06-20.44-1.06-4-23.91-4.05-24.33c11.82-5.28 9.27-20.92 9.27-20.92.84-.14 4.85-.68 5.34-.77 5.42-1 8.12-1.84 13.07-2.5 4.08-.56 11.46 11.8 8.75 21.85z" fill="#34c38f"/><path d="M214.39 293.8c-.11.27-9.13 5.42-11.86 6.17a22.64 22.64 0 0010.77-3z" opacity=".2"/><path d="M190.37 264.73a25.82 25.82 0 00-7.79 1.16c-3.86 1.06-15 5.79-15 5.79s-1.55 10.67 3.18 15.54c0 0 4.84-1.12 7.33-1.59 2.12-.4 2.58-.7 3 0a11.88 11.88 0 007.75-6.33c2.91-5.48 2.55-12.52 1.53-14.57z" fill="#455a64"/></g></svg>