<svg width="46" height="80" fill="none" xmlns="http://www.w3.org/2000/svg"><path d="M24.354 56.78l.083 21.553c0 .917-.733 1.667-1.65 1.667h-.017a1.658 1.658 0 01-1.667-1.65l-.083-21.57C9.301 55.98 0 46.178 0 34.26c0-.917.75-1.667 1.667-1.667 8.168 0 15.336 4.35 19.32 10.868l-.05-11.769c-3.901-4.234-6.018-9.684-5.951-15.435.05-5.985 2.4-11.586 6.617-15.77a1.66 1.66 0 012.35 0 22.387 22.387 0 016.619 15.77v.2c0 5.85-2.234 11.385-6.302 15.636l.05 11.485c3.951-6.585 11.152-10.986 19.37-10.986.917 0 1.667.75 1.667 1.668 0 11.918-9.285 21.72-21.003 22.52z" fill="#FFC83E"/><path d="M16.797 31.91c-3.392-4.543-5.21-9.985-5.146-15.691a26.25 26.25 0 01.573-5.21A22.475 22.475 0 001.866 8.49 1.65 1.65 0 00.2 10.156C.2 20.503 7.25 29.27 16.797 31.91zm17.107-15.453c0 5.624-1.823 10.99-5.149 15.453 9.552-2.637 16.618-11.405 16.618-21.754 0-.933-.75-1.667-1.667-1.667-3.674 0-7.208.884-10.377 2.527a26.15 26.15 0 01.575 5.213v.228z" fill="#2B59FF"/></svg>