<svg width="70" height="80" fill="none" xmlns="http://www.w3.org/2000/svg"><path d="M64.551 57.416c-3.483 7.8-7.567 13.767-12.1 17.717 3.083-5.733 4.65-13.3 4.65-22.633 0-13.467-6.8-28.317-12.667-38.667C54.268 5.666 63.434.466 63.868.216a1.642 1.642 0 011.5-.067c.483.217.833.634.95 1.15.3 1.434 7.6 35.067-1.767 56.117zM7.284 52.5c0 8.783 1.383 16 4.1 21.583-2.983-2.967-6.067-7.3-8.483-13.6-6.917-18 .666-45.734.983-46.9a1.667 1.667 0 012.5-.967c.233.15 4.6 2.95 10.167 7.5-4.8 9.567-9.267 21.4-9.267 32.384z" fill="#2B59FF"/><path d="M33.535 2.95c-.634-.85-2.05-.85-2.684 0-.833 1.116-20.233 27.566-20.233 49.55 0 12.8 3 21.9 8.95 27.083.3.267.683.417 1.083.417h11.534c-.917 0-1.667-.75-1.667-1.667v-6.316l-7.484-7.467a1.68 1.68 0 010-2.367 1.68 1.68 0 012.367 0l5.117 5.117V44.116l-7.484-7.466a1.66 1.66 0 010-2.35 1.653 1.653 0 011.826-.37c.203.086.387.212.541.37l5.117 5.116v-5.833c0-.917.75-1.667 1.666-1.667.917 0 1.667.75 1.667 1.667v20.184l5.133-5.134a1.66 1.66 0 012.35 0 1.68 1.68 0 010 2.367l-7.483 7.483v19.85c0 .917-.75 1.667-1.666 1.667h11.533c.4 0 .8-.15 1.1-.417C50.75 74.4 53.768 65.3 53.768 52.5c0-21.984-19.417-48.434-20.233-49.55z" fill="#FFC83E"/></svg>