<svg xmlns="http://www.w3.org/2000/svg" width="188.68" height="110.099"><defs><linearGradient id="a" x1="-6.187" y1=".919" x2="-6.287" y2=".181" gradientUnits="objectBoundingBox"><stop offset="0" stop-color="#f79239"/><stop offset="1" stop-color="#f7c759"/></linearGradient><linearGradient id="b" x1="-14.103" y1=".5" x2="-13.146" y2=".5" gradientUnits="objectBoundingBox"><stop offset="0" stop-color="#3f2323"/><stop offset="1" stop-color="#5e3434"/></linearGradient></defs><g data-name="Group 2723"><path data-name="Path 1299" d="M157.286 99.328s-4.389-9.4 5.724-16.7 12.4-12.6 12.4-12.6 3.416 17.147-2.767 25.284v11.775h-14.97z" fill="#4e8fb7"/><path data-name="Path 1300" d="M166.338 106.448s.5-6.572-6.344-10.972-6.74-8.836-6.74-8.836-5.253 12.586 1.387 19.808z" fill="#70b2dd"/><path data-name="Path 1301" d="M164.82 106.448a14.272 14.272 0 017.581-13.6c8.638-4.747 10.451-10.862 10.451-10.862s4.77 15.426-3.053 24.463z" fill="#abdaf7"/><path data-name="Path 1327" d="M1.09 79.976l.157.845c3.763 20.241 14.774 29.138 14.774 29.138h165.211s10.107-17.772 5.663-33.282a19.775 19.775 0 00-.209-.7c-2.925-9.233-11.177-17.55-30.029-20.678a923.52 923.52 0 01-11.229-1.932c-.486-.093-.958-.179-1.429-.265-11.962-2.19-20.3-4.144-26.647-6.377h-.008c-.464-.165-.92-.336-1.368-.5-12.886-4.856-17.295-11.161-28.846-23.973q-1.346-1.492-2.873-2.927a18.056 18.056 0 00-.681-.623A64.513 64.513 0 0060.154 5.318a28.39 28.39 0 00-.718-.229c-11.423-3.464-23.834-3.514-34.33 2.548-.4.229-.793.465-1.19.716-8.311 5.246-15.313 14.515-19.5 29.195C-.575 55.104-.785 69.126 1.09 79.976z" fill="#fff" opacity=".36"/></g><g data-name="Group 2731"><g data-name="Group 2726"><g data-name="Group 2724" fill="#f49187"><path data-name="Path 1302" d="M111.303 88.74a59.739 59.739 0 0010.387 12.169v4.415h-10.318a85.842 85.842 0 01-9.793-6.455s-2.141-13.658 9.724-10.129z"/><path data-name="Path 1303" d="M46.432 97.137s.481 8.763 2.771 9.31 11.672-7.58 11.672-7.58l1.067-3.878-6.951-4.851s-8.28 2.434-8.559 6.999z"/></g><g data-name="Group 2725"><path data-name="Path 1304" d="M938.978 189.29c2.2-4.016 15.746-1.1 15.746-1.1l-9.64 9.281h43.321c-1.435-4.776-.58-16.4-.58-16.4.007.088.023.168.038.256a12.757 12.757 0 003.213 7.134c.183 2.381 3.053 2.556 3.053 2.556a15.621 15.621 0 011.473-5.265 8.4 8.4 0 018.251-4.863c.58-2.921-2.671-3.651-2.671-3.651s-4-22.272-9.823-26.654-15.318-6.572-15.318-6.572l-9.777-.635s-19.172 3.651-22.989 9.946-3.152 30.122-3.152 30.122c-3.053 2.376-1.145 5.845-1.145 5.845z" transform="translate(-892.551 -92.153)" fill="url(#a)"/><path data-name="Path 1305" d="M62.174 96.041s-1.622-13.509 3.628-25.284c0 0-.858 17.891 6.774 22.911s20.607 4.016 23.851 12.779l-28.622-.243z" fill="#f6613a" opacity=".5"/><path data-name="Path 1306" d="M95.314 89.177a12.758 12.758 0 003.213 7.134c.183 2.381 3.053 2.556 3.053 2.556a15.621 15.621 0 011.473-5.265 15.363 15.363 0 01-4.243-6.747c-2.023-6.4-.732-13.349-.641-13.845a113.017 113.017 0 00-2.855 16.167z" fill="#f6613a" opacity=".5"/></g></g><path data-name="Path 1307" d="M74.577 100.697s-10.78-7.211-19.94-4.29-8.4 8.945-5.438 10.041h22.834z" fill="#feb19e"/><g data-name="Group 2727"><path data-name="Path 1308" d="M71.696 51.556s2.244 12.049 8.922 12.115c5.831.051 4.48-7.266 4.046-9.128-.061-.277-.107-.431-.107-.431l2.42-8.821-12.846-6.506-.259 1.351v.022z" fill="#feb19e"/><path data-name="Path 1309" d="M84.667 54.544c-.061-.277-.107-.431-.107-.431l2.42-8.821-12.846-6.506-.259 1.351v.022c-1.687 14.385 10.556 14.385 10.792 14.385z" fill="#ff856a"/><path data-name="Path 1310" d="M974 113.8a20.9 20.9 0 01-2.1-7.166c-.381-3.742.716-4.609 2.338-4.609 0 0 .859-4.245 2.91-5.705s10.4.685 13.6 2.511 5.533-3.2 7.012-2.994 1.765 4.089.62 5.824c0 0 2.672-1.415 3.1-2.876s3.482 1.187 2.385 6.618-3.626 6.116-3.626 6.116-.477 5.751-5.391 6.39-17.888-.456-17.888-.456z" transform="translate(-901.57 -79.325)" fill="url(#b)"/><path data-name="Path 1311" d="M95.279 32.42s-2.385 15.609-8.4 17.617-11.035-4.131-11.8-5.774a20.977 20.977 0 01-1.084-5.087s-2.048.455-2.286-3.014 2.909-5.522 3.673.456c0 0 2.941-1.552 2.051-6.846a13.19 13.19 0 008.077 3.043c4.707 0 .636-3.043.636-3.043a13.284 13.284 0 009.133 2.648z" fill="#feb19e"/></g><g data-name="Group 2730"><g data-name="Group 2728"><path data-name="Rectangle 486" fill="#abdaf7" d="M96.902 106.448h-39.18v-2.008h39.18z"/><path data-name="Rectangle 487" fill="#70b2dd" d="M69.807 106.448H57.722v-2.008h12.085z"/><path data-name="Path 1312" d="M64.337 104.5s3.465-4.947 8.662-4.867c3.933.06 4.079 2.433 4.079 2.433a2.334 2.334 0 012.651 2.434z" fill="#ffc7ae"/></g><g data-name="Group 2729"><path data-name="Path 1313" d="M113.057 104.196s-.192-2.738 1.081-3.1a2.364 2.364 0 012.226.669s.954-4.016 4.516-4.138 9.985 3.347 6.042 6.572z" fill="#feb19e"/><path data-name="Path 1314" d="M103.901 105.323a1.151 1.151 0 001.175 1.125h21.432a1.126 1.126 0 100-2.249h-21.432a1.151 1.151 0 00-1.175 1.124z" fill="#70b2dd"/><path data-name="Path 1315" d="M110.258 105.323a1.151 1.151 0 001.176 1.125h15.074a1.126 1.126 0 100-2.249h-15.074a1.151 1.151 0 00-1.176 1.124z" fill="#abdaf7"/><path data-name="Path 1316" d="M115.792 102.386l3.8-11.878a1.08 1.08 0 011.3-.692 1.019 1.019 0 01.728 1.355l-4.542 11.534a1 1 0 01-1.286-.319z" fill="#525559"/></g></g></g><g data-name="Group 2733"><path data-name="Path 1317" d="M142.553 72.832c-.414 2.4.487 4.534 2.012 4.775s3.1-1.506 3.51-3.9-.487-4.533-2.012-4.774-3.097 1.503-3.51 3.899z" fill="#fff" stroke="#f230db" stroke-miterlimit="10"/><path data-name="Path 1318" d="M119.363 93.946h40.689a4.368 4.368 0 004.045-2.636c4.763-11.377 8.282-22.44 9.708-32.977a4.236 4.236 0 00-4.32-4.7H128.24a4.289 4.289 0 00-4.3 3.549 164.028 164.028 0 01-8.685 31.218 4.192 4.192 0 004.108 5.546z" fill="#90c6e0"/><path data-name="Path 1319" d="M121.012 93.946h39.04a4.368 4.368 0 004.045-2.636c4.763-11.377 8.282-22.44 9.709-32.977a4.237 4.237 0 00-4.32-4.7h-39.589a4.3 4.3 0 00-4.3 3.549 163.457 163.457 0 01-8.678 31.218 4.187 4.187 0 004.093 5.546z" fill="#abdaf7"/><g data-name="Group 2732" fill="#90c6e0"><path data-name="Path 1320" d="M123.016 106.448h15.631a5.315 5.315 0 005.03-3.432l4.679-15.642c-2.587.007-5.129-.007-7.625-.007-.832 0-1.664 0-2.488.007l-3.725 12.166a4.178 4.178 0 01-3.3 2.592l-5.846.876a2.377 2.377 0 00-1.985 1.789z"/><path data-name="Path 1321" d="M131.221 102.132l1.32-.117a4.945 4.945 0 004.176-2.95l4.014-11.7c-.832 0-1.663 0-2.488.007l-3.725 12.166a4.177 4.177 0 01-3.297 2.594z" opacity=".35" style="mix-blend-mode:multiply;isolation:isolate"/></g><path data-name="Path 1322" d="M142.868 73.348c-.58 2.313.162 4.465 1.656 4.808s3.176-1.254 3.755-3.567-.162-4.465-1.657-4.808-3.175 1.254-3.754 3.567z" fill="#fff"/></g><g data-name="Group 2734"><path data-name="Rectangle 488" fill="#70b2dd" d="M2.831 106.448H188.68v3.651H2.831z"/><path data-name="Rectangle 489" fill="#4e8fb7" d="M2.831 106.448h41.215v3.651H2.831z"/></g><g data-name="Group 2735"><path data-name="Path 1323" d="M22.294 91.539l1.781-10.588 5.661.669-2.1 10.526z" fill="#70b2dd"/><path data-name="Path 1324" d="M22.458 90.565l-1.961-13.068a.765.765 0 00-.888-.622.741.741 0 00-.635.838l2.174 13.521h-.823l-2.918-10.358a.794.794 0 00-.954-.537.754.754 0 00-.572.924l2.724 9.971 2.735 1.217z" fill="#4e8fb7"/><path data-name="Path 1325" d="M16.696 90.565v13.48a2.212 2.212 0 002.259 2.161h8.138a2.212 2.212 0 002.259-2.161v-13.48z" fill="#abdaf7"/><path data-name="Rectangle 490" fill="#90c6e0" d="M16.697 90.565h12.657v3.162H16.697z"/></g><g data-name="Group 2736" transform="translate(163.587 3)"><ellipse data-name="Ellipse 93" cx="18.005" cy="17.226" rx="18.005" ry="17.226" transform="translate(-12 -2.761)" fill="#70b2dd" opacity=".35" style="mix-blend-mode:multiply;isolation:isolate"/><ellipse data-name="Ellipse 94" cx="16.942" cy="16.209" rx="16.942" ry="16.209" transform="translate(-10.637 -3)" fill="#70b2dd"/><ellipse data-name="Ellipse 95" cx="12.464" cy="11.925" rx="12.464" ry="11.925" transform="translate(-6.16 1.284)" fill="#d9f1ff"/><path data-name="Path 1326" d="M-.714 12.667h6.14V4.729a1.187 1.187 0 012.371 0V14.75H-.714a1.042 1.042 0 110-2.083z" fill="#70b2dd"/></g></svg>