<svg version="1.1" id="Layer_1" xmlns="http://www.w3.org/2000/svg" x="0" y="0" viewBox="0 0 100 100" xml:space="preserve"><style>.st0{fill:#fff}</style><g id="XMLID_2_"><path id="XMLID_7_" class="st0" d="M77.4 44.4c.3.2.5.3.8.5-.2-.2-.5-.3-.8-.5z"/><path id="XMLID_34_" class="st0" d="M78.2 58.4c-.3.2-.5.3-.8.5.3-.2.6-.4.8-.5z"/><path id="XMLID_35_" class="st0" d="M82.5 48.2c-1.1-.9-2.4-2-3.9-3-.3 1.8-.6 4-.6 6.5s.3 4.7.6 6.5c1.6-1.1 2.9-2.1 3.9-3 2.1-1.9 2.1-5.2 0-7z"/><g id="XMLID_63_"><path id="XMLID_24_" class="st0" d="M90.9 39.1H78.3c-.3 0-.5-.2-.5-.5s.2-.5.5-.5h12.6c.3 0 .5.2.5.5s-.2.5-.5.5z"/></g><g id="XMLID_61_"><path id="XMLID_23_" class="st0" d="M82.6 68.5H70c-.3 0-.5-.2-.5-.5s.2-.5.5-.5h12.6c.3 0 .5.2.5.5s-.2.5-.5.5z"/></g><g id="XMLID_59_"><path id="XMLID_22_" class="st0" d="M21.6 74.6h-14c-.3 0-.5-.2-.5-.5s.2-.5.5-.5h14c.3 0 .5.2.5.5s-.3.5-.5.5z"/></g><g id="XMLID_57_"><path id="XMLID_21_" class="st0" d="M11.1 43.8h-8c-.3 0-.5-.2-.5-.5s.2-.5.5-.5h8c.3 0 .5.2.5.5s-.2.5-.5.5z"/></g><g id="XMLID_55_"><path id="XMLID_20_" class="st0" d="M20 63.3h-8c-.3 0-.5-.2-.5-.5s.2-.5.5-.5h8c.3 0 .5.2.5.5s-.2.5-.5.5z"/></g><g id="XMLID_53_"><path id="XMLID_19_" class="st0" d="M66.3 31.9H51.9c-.3 0-.5-.2-.5-.5s.2-.5.5-.5h14.4c.3 0 .5.2.5.5s-.2.5-.5.5z"/></g><g id="XMLID_51_"><path id="XMLID_18_" class="st0" d="M94.3 61.9h-7.2c-.3 0-.5-.2-.5-.5s.2-.5.5-.5h7.2c.3 0 .5.2.5.5s-.2.5-.5.5z"/></g><g id="XMLID_49_"><path id="XMLID_17_" class="st0" d="M48.7 25.2h-5.3c-.3 0-.5-.2-.5-.5s.2-.5.5-.5h5.3c.3 0 .5.2.5.5s-.2.5-.5.5z"/></g><g id="XMLID_47_"><path id="XMLID_16_" class="st0" d="M20.4 37.1H10.3c-.3 0-.5-.2-.5-.5s.2-.5.5-.5h10.1c.3 0 .5.2.5.5s-.2.5-.5.5z"/></g><g id="XMLID_45_"><path id="XMLID_15_" class="st0" d="M14.4 29.1H5.3c-.3 0-.5-.2-.5-.5s.2-.5.5-.5h9.1c.3 0 .5.2.5.5s-.2.5-.5.5z"/></g><g id="XMLID_43_"><path id="XMLID_14_" class="st0" d="M96.9 46.5H89c-.3 0-.5-.2-.5-.5s.2-.5.5-.5h7.9c.3 0 .5.2.5.5-.1.3-.3.5-.5.5z"/></g><g id="XMLID_41_"><path id="XMLID_13_" class="st0" d="M61.3 74.1H48.4c-.3 0-.5-.2-.5-.5s.2-.5.5-.5h12.9c.3 0 .5.2.5.5s-.2.5-.5.5z"/></g><path id="XMLID_9_" class="st0" d="M24.2 51.6v-6.5c-3.5 0-5.3 1.9-5.3 1.9s1.8.2 2.3 1.2c-3.2.5-5.8 3.4-5.8 3.4s2.5 2.9 5.8 3.4c-.5 1-2.3 1.2-2.3 1.2s1.8 1.9 5.3 1.9v-6.5z"/><path id="XMLID_28_" class="st0" d="M27.1 61.4v14.4c11.1 0 16.6-5.1 19.3-9.2-9.5-1.4-16.4-4-19.3-5.2zm9 8.5l-1 .6c-.1.1-.2.1-.2.3l-.2 1.2c-.1.3-.4.4-.6.2l-.9-.8c-.1-.1-.2-.1-.3-.1l-1.2.1c-.3 0-.5-.3-.4-.5l.5-1.1v-.3l-.5-1.1c-.1-.3.1-.6.4-.5l1.2.1c.1 0 .2 0 .3-.1l.9-.8c.2-.2.6-.1.6.2l.2 1.2c0 .1.1.2.2.3l1 .6c.3 0 .3.3 0 .5z"/><path id="XMLID_31_" class="st0" d="M27.1 27.5v14.4c2.9-1.2 9.8-3.8 19.3-5.2-2.7-4.1-8.3-9.2-19.3-9.2zm9 6.6l-1 .6c-.1.1-.2.1-.2.3l-.2 1.2c-.1.3-.4.4-.6.2l-.9-.8c-.1-.1-.2-.1-.3-.1l-1.2.1c-.3 0-.5-.3-.4-.5l.5-1.1v-.3l-.5-1.1c-.1-.3.1-.6.4-.5l1.2.1c.1 0 .2 0 .3-.1l.9-.8c.2-.2.6-.1.6.2l.2 1.2c0 .1.1.2.2.3l1 .6c.3 0 .3.3 0 .5z"/><g id="XMLID_1_"><path id="XMLID_27_" class="st0" d="M77.1 44.2c-5.7-3.5-14.2-6.7-25.6-5.7-15.5 1.4-25.9 6.4-25.9 6.4v13.5s10.4 5 25.9 6.4c11.3 1 19.8-2.2 25.6-5.7-.4-1.9-.8-4.5-.8-7.5 0-2.9.4-5.5.8-7.4zM45.7 52c-2.3.7-7.7 2.1-12.9 2.1-2.5 0-4.3-.4-5.3-.8-.6-.2-.9-.7-.9-1.3v-.6c0-.6.4-1.1.9-1.3 1-.4 2.7-.8 5.3-.8 5.1 0 10.5 1.4 12.9 2.1.4 0 .4.5 0 .6zm15.7 7c-4.1 0-7.4-3.3-7.4-7.4 0-4.1 3.3-7.4 7.4-7.4 4.1 0 7.4 3.3 7.4 7.4 0 4.1-3.3 7.4-7.4 7.4z"/><path id="XMLID_38_" class="st0" d="M61.4 46.1c-3 0-5.5 2.5-5.5 5.5s2.5 5.5 5.5 5.5 5.5-2.5 5.5-5.5-2.4-5.5-5.5-5.5zm0 9.4c-2.1 0-3.9-1.7-3.9-3.9 0-2.1 1.7-3.9 3.9-3.9s3.9 1.7 3.9 3.9-1.7 3.9-3.9 3.9z"/></g></g></svg>