<svg height="454.937" width="439.9" xmlns="http://www.w3.org/2000/svg"><g fill="#d04e8e" opacity=".1"><path d="M305.019 127.708a42.138 42.138 0 1142.14-42.138 42.186 42.186 0 01-42.14 42.138zm0-78.9a36.758 36.758 0 1036.758 36.758 36.8 36.8 0 00-36.758-36.754z" opacity=".3"/><path d="M305.019 132.879a47.311 47.311 0 01-28.774-84.864.448.448 0 01.546.711 46.415 46.415 0 1028.228-9.568.45.45 0 010-.9 47.309 47.309 0 110 94.617z"/></g><g fill="#d04e8e" opacity=".1"><path d="M333.289 205.197a50.4 50.4 0 1154.384 46.062 50.45 50.45 0 01-54.384-46.062zm94.034-7.792a43.961 43.961 0 10-40.181 47.442 44.01 44.01 0 0040.181-47.442z" opacity=".3"/><path d="M378.35 145.228a.535.535 0 01.49-.579 56.644 56.644 0 0161.058 51.714.536.536 0 11-1.069.089 55.569 55.569 0 00-59.9-50.734.536.536 0 01-.579-.49z"/></g><rect fill="none" height="129.349" opacity=".08" rx="7.16" stroke="#d04e8e" stroke-miterlimit="10" stroke-width="2" width="99.919" x="24.888" y="123.648"/><g fill="#d04e8e"><g opacity=".1"><path d="M17.578 47.225h87.31v14.19h-87.31a2.142 2.142 0 01-2.142-2.142v-9.906a2.142 2.142 0 012.142-2.142z"/><path d="M104.889 47.225h104.214a2.142 2.142 0 012.142 2.142v9.906a2.142 2.142 0 01-2.142 2.142H104.889v-14.19z" opacity=".3"/></g><g opacity=".1"><path d="M134.426 75.346h74.677a2.142 2.142 0 012.143 2.142v9.905a2.142 2.142 0 01-2.142 2.142h-74.678V75.346z" opacity=".3"/><path d="M17.578 75.346h116.848v14.19H17.578a2.142 2.142 0 01-2.142-2.142v-9.906a2.142 2.142 0 012.142-2.142z"/></g><g opacity=".1"><path d="M414.193 406.483v-57.601h13.215v57.601z"/><path d="M390.359 329.862v76.621h13.215v-76.621z" opacity=".3"/><path d="M367.131 406.483V302.095h13.215v104.388z"/><path d="M319.899 348.882h13.215v57.601h-13.215z" opacity=".3"/><path d="M296.639 406.483V364.93h13.215v41.553zM344.221 379.334v27.149h13.215v-27.149z"/><path d="M284.653 407.275h154.333a.415.415 0 000-.83H284.653a.415.415 0 100 .83z"/></g><g opacity=".1"><path d="M120.865 363.16a58.049 58.049 0 10-75.273 32.763 58.049 58.049 0 0075.273-32.763zm-86.928-34.205a35.367 35.367 0 1119.96 45.861 35.366 35.366 0 01-19.96-45.861z" opacity=".3"/><path d="M92.299 394.072l-9.945-20.385a35.39 35.39 0 01-34.741-2.1 6649.441 6649.441 0 00-12.289 19.068 58.1 58.1 0 0056.975 3.415z"/><path d="M35.324 390.657l12.318-19.05a35.265 35.265 0 01-12.75-14.565l-20.495 9.7a57.883 57.883 0 0020.927 23.915z"/></g></g><path d="M390.356 46.415h30.445v64.635h-30.445z" fill="none" opacity=".08" stroke="#d04e8e" stroke-miterlimit="10" stroke-width="2"/><path d="M403.571 60.213h30.445v64.635h-30.445z" fill="#d04e8e" opacity=".1"/><g transform="translate(-31.541 3.642)"><path d="M95.388 0h6v214.816h-6zM398.136 0h6v214.816h-6z" fill="#e48698"/><circle cx="154.474" cy="154.474" fill="#5b3f92" r="154.474" transform="rotate(-45 275.076 69.335)"/><circle cx="143.612" cy="143.612" fill="#4c3584" r="143.612" transform="rotate(-45 282.757 50.792)"/><circle cx="132.888" cy="132.888" fill="#e5e5e5" r="132.888" transform="rotate(-45 290.34 32.485)"/><circle cx="125.927" cy="125.927" fill="#fff" r="125.927" transform="rotate(-45 295.262 20.603)"/><path d="M250 369.29a154.471 154.471 0 0094.016-277.038c-1.236 3.558-2.313 6.883-3.326 9.478a591.288 591.288 0 01-33.365 71.8c-35.747 64.432-88.842 119.584-158.457 147.184-1.022.4-4.127 1.57-8.337 3.089A153.99 153.99 0 00250 369.29z" fill="#802e6b" opacity=".04"/><circle cx="250" cy="102.998" fill="#263168" r="8.343"/><circle cx="8.343" cy="8.343" fill="#1f265a" r="8.343" transform="rotate(-80.57 318.715 26.555)"/><circle cx="8.343" cy="8.343" fill="#263168" r="8.343" transform="rotate(-22.5 595.577 -209.843)"/><circle cx="8.343" cy="8.343" fill="#263168" r="8.343" transform="rotate(-81.565 306.53 -93.43)"/><g fill="#e48698"><path d="M265.972 121.381L250 95.293l-15.972 26.087h9.317v93.436h13.31v-93.435z"/><path d="M189 220.5l-18.706 24.2 30.061 5.655-3.312-8.708 54.816-20.961-4.731-12.441-54.816 20.961z"/><circle cx="12.954" cy="12.954" r="12.954" transform="rotate(-80.959 249.738 -24.989)"/></g></g><ellipse cx="218.459" cy="435.496" fill="#802e6b" opacity=".08" rx="154.474" ry="19.441"/><path d="M193.792 323.542l-3.495 17.858c-8.472.367-18.175.148-19.024 2.23-.462 1.132 1.128 2.021 2.3 2.365 3.383.991 6.494.917 9.986 1.372 1.922.251 3.851.422 5.768.687a10.087 10.087 0 005.671-.451c2.4-1.113 2.624-4.826 3.473-7.107a113.181 113.181 0 015.2-11.52 2.635 2.635 0 000-2.339 3.324 3.324 0 00-2.445-1.353 49.917 49.917 0 00-6.407-.884" fill="#bf7b6b"/><path d="M285.867 304.228c-23.041-14.5-33.135-23.487-55.611-35.185-7.4-3.848-14.638-.588-17.377 1.324-11.468 8.008-13.6 30.674-23.138 56.972-.113.311 10.025 2.72 14.6 3.861 4.8-12.729 15.467-25.359 18.134-39.492 6.8 4.743 18.964 30.955 27.5 33.042a35.909 35.909 0 0020.328-1.011 22 22 0 0010.076-6.636c2.541-3.189 6.771-9.007 5.488-12.875z" fill="#1f265a"/><path d="M180.597 403.725c-3.291 9.346-4.958 16.243-4.958 16.243a103.306 103.306 0 00-15.8 7.915c-.814.5-1.727 1.236-1.572 2.176.2 1.206 1.844 1.4 3.057 1.242 6.043-.777 11.874-2.686 17.663-4.585a5.362 5.362 0 002.949-1.754 5.1 5.1 0 00.661-2.007c1.076-6.215 4.356-8.514 7.045-15.043" fill="#bf7b6b"/><path d="M302.378 306.693c-2.538-1.814-5.215-3.684-8.308-4.091-6.293-.83-14.338 3.059-20.168 5.115-7.108 2.507-14.067 5.421-20.9 8.591-14.09 6.532-28.394 13.721-41.455 22.125-3.1 2-6.337 3.983-8.529 6.951a28.5 28.5 0 00-3.55 7.558c-5.569 15.7-18.44 40.549-24.009 56.25a67.126 67.126 0 0113.494 5.752c7.577-16.624 24.528-41.35 34.15-56.88 1.38-2.228 2.869-4.56 5.2-5.766a15.424 15.424 0 015.7-1.256c15.078-1.459 27.439-2.794 44.628-8.161 8.631-2.7 22.329-7.9 27.9-15.023 4.443-5.679 4.207-15.192-4.153-21.165z" fill="#263168"/><path d="M335.325 274.667a6.751 6.751 0 00-2.012-2.133c-4.772-3.765-14.736-11.434-14.736-11.434a6.471 6.471 0 00-5.89-.9 19.141 19.141 0 00-5.421 2.955l-18.672 12.976c-1.027.713.878 7.9 1.245 9.1 2.264 7.362-7.332 16.866-7.332 16.866 9.613 15.533 18.812 6.429 30.342 16.724.9.8 6.083-2.116 6.083-2.116s2.515.958 2.8.516c2.039-3.164 2.356-7.088 3.121-10.773 1.949-9.383 7.044-17.783 10.188-26.835.557-1.606 1.041-3.427.284-4.946z" fill="#ffc866"/><path d="M292.145 303.315l-19.159-8.93a4.935 4.935 0 01-2.34-4.223v-35.055c0-1.73 1.048-2.645 2.34-2.042l19.159 8.929a4.934 4.934 0 012.341 4.223v35.056c0 1.73-1.048 2.644-2.341 2.042z" fill="#263168"/><path d="M285.24 272.993c0 1.977-1.2 3.021-2.674 2.333a5.639 5.639 0 01-2.674-4.826c0-1.977 1.2-3.021 2.674-2.333a5.639 5.639 0 012.674 4.826z" fill="#9376d1"/><path d="M338.831 244.175c0-.447-7.22-2.119-11.638 2.683 0 0-1.59 14.2-8.345 20.393-.389.357-8.966 1.048-9.786 2.869a1.926 1.926 0 00.181 1.462 11.9 11.9 0 005.462 5.576c2.264 1.27 6.608 2.58 9.2 2.4 5.4-.376 10.638-1.754 9.41-7.023-1.667-7.144 5.534-25.898 5.516-28.36zM342.008 281.952a34.223 34.223 0 00-11.752.59 5.673 5.673 0 00-2.3.929 9.867 9.867 0 00-2.7 3.089c-3.476 10.3-4.194 17.059-6.923 27.3-7.792-9.627-12.039-11.615-18.969-19.948-2.1-2.522-2.684-3.695-2.949-6.1-.41-3.708-1.928-4.106-1.928-4.106l-.1 2.86c-1.856-2.385-7.291-10.067-8.349-9.527-.6.309-1.842 6.492-1.16 9.855.27 1.333 4.633 4.971 7.6 7.406 3.277 2.688 12.282 20.4 23.147 31.286 1.1 1.1 2.388 2.227 3.942 2.27 2.276.063 5.4-3.462 6.7-6.416 5.021-11.4 9.445-17.822 14.423-30.4.994-2.51 3.016-6.146 1.192-8.136" fill="#bf7b6b"/><path d="M344.292 274.412a8.371 8.371 0 00-2.93-6.14c-2.931-2.3-6.615-.915-8.973 1.489-6.464 6.59-7.739 11.677-9.9 21.553 9.339 1.743 17.012 2.18 19.431 1.664.655-.136 2.512-12.93 2.372-18.566z" fill="#ffc866"/><path d="M338.684 224.29c-2.194-1.412-10.846-3.1-16.074 3.869-5.061 6.751-4.467 21.834-1.44 29.629 1.3 3.345 12.034-.175 13.691-1.5 3.3-2.633 4.3-5.459 7.655-10.369 1.729-2.533 3.43-3.874 3.622-6.934.134-2.127-2.384-6.4-3.032-8.427a11.458 11.458 0 00-4.422-6.268zM275.982 268.061l-2.7 5.757a2.315 2.315 0 01-2.062 1.333 9.5 9.5 0 01-1.531-.082c-1.221-.187-1.127-5.578 0-7.015a6.574 6.574 0 015.441-1.767 1.25 1.25 0 01.852 1.774z" fill="#bf7b6b"/><path d="M321.195 224.448c-2.882 2.9-3.7 7.786-3.822 11.873l12.174.03a6.092 6.092 0 002.327-.3 2.077 2.077 0 001.38-1.751l.328 2.006h4.828c-2.021 2.033-2.388 5.212-2 8.054s1.393 5.578 1.688 8.43a17.18 17.18 0 01-2.419 10.652 12.11 12.11 0 004.393-7.588 26.966 26.966 0 00-.146-8.933 20.282 20.282 0 01-.388-5.419 5.783 5.783 0 012.706-4.491 1.54 1.54 0 011.558-.1 1.611 1.611 0 01.536.814 6.489 6.489 0 01-.511 5.467c-.749 1.259-1.9 2.222-2.762 3.409s-2 4.558-1.324 5.855a36.96 36.96 0 0018.213-4.409 45.429 45.429 0 01-4.88-11.039c-.808-2.785-1.359-5.675-2.654-8.27-5.176-10.365-21.428-12.139-29.225-4.29z" fill="#e48698"/></svg>