<svg width="570" height="384" fill="none" xmlns="http://www.w3.org/2000/svg"><path d="M290.1 61.4l264.5 242.1-284.4 80.3L.1 143.8l290-82.4z" fill="url(#paint0_linear)"/><path d="M37.4 115.5s-5.7-15.2 6.7-29.3l254.1 236.3s-12.1 11.5-6.7 29.3L37.4 115.5z" fill="url(#paint1_linear)"/><path d="M293 331.7l270.9-83.2M291.1 339.8L562 256.6" stroke="#E7EAF3" stroke-miterlimit="10"/><path d="M569.3 239.1s-12 14.5-6.7 29.3l-271.4 84.2s-5.1-12.9 6.9-30.2l271.2-83.3z" fill="#fff"/><path d="M320.7.6l248.6 238.5-271.1 83.3L44.1 86.1 320.7.6z" fill="url(#paint2_linear)"/><path opacity=".09" d="M344.2 23L323.1 2.8 137.3 60.2c3 2.7 7.1 4.9 11.8 6.2L317 112.3c9.6 2.6 18 0 18.6-5.7l8.6-83.6z" fill="#3A350C"/><path d="M341.7 20.7L320.6.5 134.9 57.9c3 2.7 7.1 4.9 11.8 6.2L314.6 110c9.6 2.6 18 0 18.6-5.7l8.5-83.6z" fill="url(#paint3_linear)"/><path d="M313.9 21L299.4 7.1 171.8 46.5c2 1.8 4.9 3.4 8.1 4.3l115.2 31.5c6.6 1.8 12.4 0 12.8-3.9l6-57.4z" fill="url(#paint4_linear)"/><path d="M182 166.1l7.4-2.3 23 12.4-8.6-16.9 7.4-2.3 22.8 21.2-6.3 1.9-13.7-12.7 7.9 14.5-5.1 1.6-19.5-10.9 13.7 12.7-6.3 1.9-22.7-21.1zM227.8 157.5c3-.9 6.4-.5 9.1.7l-2.6-2.4 6.3-1.9 18.1 16.8-6.3 1.9-2.6-2.4c.5 1.8-.5 3.6-3.5 4.6-5 1.5-12.6-.6-18.3-5.9-5.7-5.3-5.2-9.9-.2-11.4zm6.7 3.9c-2.3.7-2.9 2.8 0 5.5s6.6 3.5 9 2.8c2.4-.7 2.9-2.9 0-5.5s-6.7-3.5-9-2.8zM271.8 167c-5.5 1.7-11.8.3-15.6-2.9l6.2-1.9c1.4 1.1 3.5 1.5 5.3 1 1.6-.5 1.8-1.4 1-2.1-2.9-2.7-12 2.7-18.6-3.5-3.1-2.9-2.6-6.1 2.7-7.8 5.3-1.6 10.8-.1 14.8 3.1l-5.8 1.8c-1.4-1.1-3.3-1.5-5-1-1.5.5-1.8 1.2-.9 2 2.9 2.7 11.9-2.6 18.8 3.6 3.1 2.9 2.3 6.1-2.9 7.7zM271.2 150.1l-2.5.8-4.6-4.3 2.5-.8-4.4-4.1 6.3-1.9 4.4 4.1 4.1-1.3 4.6 4.3-4.1 1.3 7.3 6.8c1.1 1 2 1.3 3.4.8l2.2-.7 4.7 4.4-3.2 1c-4.3 1.3-8.8.7-13.5-3.6l-7.2-6.8zM308 155.9c-6 1.8-13.9-.1-19.6-5.5-5.7-5.3-5.1-10 1-11.8 6-1.8 13.7.1 19.2 5.3l1.5 1.5-14.2 4.4c2.6 2.1 5.3 2.7 7.4 2 1.8-.5 2-1.6 1.5-2.6l6.7-2c2.5 3.5 1.6 7.1-3.5 8.7zm-15.2-9.1l7.8-2.4c-2-1.8-4.9-2.4-7-1.7-1.9.6-2.4 2.2-.8 4.1zM327.5 149.6l-6.3 1.9-18.1-16.8 6.3-1.9 3 2.8c-.5-2.2.5-4.1 3.2-5l5.9 5.5-1.7.5c-3 .9-3.8 2.3-.7 5.2l8.4 7.8zM255.6 214.8l-9.6 2.9 2.5 4.2-6.6 2-13.5-24 7.3-2.2 32.1 18.3-6.6 2-5.6-3.2zm-17.4-10.3l5.2 8.7 6.3-1.9-11.5-6.8zM260.1 195.7c2.7-.8 6.2-.5 9.1.6l-8.4-7.8 6.3-1.9 24 22.3-6.3 1.9-2.6-2.4c.5 1.9-.4 3.7-3.5 4.6-5 1.5-12.6-.6-18.4-5.9-5.8-5.3-5.2-9.9-.2-11.4zm6.6 3.9c-2.3.7-2.9 2.8 0 5.5s6.6 3.5 9 2.8c2.4-.7 2.9-2.9 0-5.5s-6.6-3.5-9-2.8zM305.1 204.9c-6 1.8-14.1-.1-19.9-5.4-5.7-5.3-4.7-10.1 1.3-11.9 6-1.8 14.2.1 19.9 5.4 5.7 5.3 4.7 10-1.3 11.9zm-4.8-4.5c2.2-.7 2.9-2.7-.2-5.5-3.1-2.9-6.6-3.6-8.8-2.9-2.3.7-2.8 2.6.3 5.5 3.1 2.9 6.4 3.6 8.7 2.9zM313.1 179.4c5.1-1.6 12.6.5 18.3 5.9 5.7 5.4 5.3 9.9.3 11.5-3 .9-6.4.5-9.1-.7l2.5 2.4-6.3 1.9-24-22.3 6.3-1.9 8.5 7.9c-.4-2 .6-3.8 3.5-4.7zm3 5.1c-2.3.7-2.9 2.9 0 5.5 2.9 2.7 6.6 3.5 8.9 2.8 2.4-.7 2.9-2.9 0-5.6-2.9-2.7-6.5-3.5-8.9-2.7zM353.1 190.1c-6 1.8-13.9-.1-19.6-5.5-5.7-5.3-5.1-10 1-11.8 6-1.8 13.7.1 19.2 5.3l1.5 1.5L341 184c2.6 2.1 5.3 2.7 7.4 2 1.8-.5 2-1.6 1.5-2.6l6.7-2c2.5 3.5 1.6 7.2-3.5 8.7zm-15.1-9l7.8-2.4c-2-1.8-4.9-2.4-7-1.7-2 .6-2.4 2.1-.8 4.1zM386.1 174.7l-9.6 3 2.5 4.2-6.6 2-13.5-24 7.3-2.2 32.1 18.3-6.6 2-5.6-3.3zm-17.4-10.3l5.2 8.7 6.3-1.9-11.5-6.8zM377.6 153.9c-1.7-1.6-1.5-3.3.7-4 2.2-.7 5 .1 6.7 1.7 1.7 1.5 1.5 3.2-.7 3.9-2.2.7-5-.1-6.7-1.6zm5.5 4.3l6.3-1.9 18.1 16.8-6.3 1.9-18.1-16.8z" fill="#06FFD2"/><path d="M148.6 131.9l-1.1.3 2.2 2.1-1.3.4-5.8-5.4 2.4-.7c1.6-.5 3.2 0 4.2.9.8.9 1.1 1.9-.6 2.4zm-1-.8c.7-.2.7-.6.2-1.1-.5-.5-1.2-.7-1.9-.5l-1 .3 1.7 1.6 1-.3zM157 130.7l-2.6.8.7 1.2-1.4.4-3.4-6.1 1.5-.5 8.2 4.7-1.4.4-1.6-.9zm-4.7-2.7l1.5 2.5 1.9-.6-3.4-1.9zM157.5 124.8c1.6-.5 3.2 0 4.1.9.7.7 1 1.5.2 2l3.9 1.7-1.5.5-3.7-1.7-.6.2 2.3 2.1-1.3.4-5.8-5.4 2.4-.7zm.9.9l-1.1.3 1.7 1.6 1.1-.3c.7-.2.7-.6.2-1.1-.5-.6-1.2-.8-1.9-.5zM160.7 123.8l4.8-1.5.9.9-1.7.5 4.9 4.5-1.3.4-4.9-4.5-1.7.5-1-.8zM170.9 120.6l1.3-.4 5.8 5.4-1.3.4-5.8-5.4zM173.5 119.8l1.3-.4 5.8 5.4-1.3.4-5.8-5.4z" fill="#fff"/><defs><linearGradient id="paint0_linear" x1="-3.084" y1="157.609" x2="558.506" y2="286.44" gradientUnits="userSpaceOnUse"><stop offset="0" stop-color="#97A4AF" stop-opacity="0"/><stop offset=".098" stop-color="#97A4AF" stop-opacity=".078"/><stop offset=".264" stop-color="#8C98A4" stop-opacity=".209"/><stop offset=".379" stop-color="#677788" stop-opacity=".3"/></linearGradient><linearGradient id="paint1_linear" x1="36.062" y1="218.944" x2="298.152" y2="218.944" gradientUnits="userSpaceOnUse"><stop stop-color="#51DE8A"/><stop offset="1" stop-color="#0A873D"/></linearGradient><linearGradient id="paint2_linear" x1="44.084" y1="161.514" x2="569.344" y2="161.514" gradientUnits="userSpaceOnUse"><stop stop-color="#51DE8A"/><stop offset="1" stop-color="#0A873D"/></linearGradient><linearGradient id="paint3_linear" x1="240.506" y1="-3.606" x2="234.88" y2="106.675" gradientUnits="userSpaceOnUse"><stop offset="0" stop-color="#7CF0AB"/><stop offset="1" stop-color="#119848"/></linearGradient><linearGradient id="paint4_linear" x1="244.35" y1="4.288" x2="240.488" y2="79.998" gradientUnits="userSpaceOnUse"><stop offset="0" stop-color="#37E17C"/><stop offset="1" stop-color="#0D9D48"/></linearGradient></defs></svg>