<svg width="1299" height="810" fill="none" xmlns="http://www.w3.org/2000/svg"><path d="M1085.85 630l-56.54-20.669a1.996 1.996 0 01-1.31-1.879v-54.197a1.999 1.999 0 012.49-1.94l.14.036M1085.85 630v-57.5m0 57.5l35.64-39.746c.33-.367.51-.843.51-1.336v-51.447m-36.15 35.029l-55.22-21.149m55.22 21.149l36.15-35.029m-91.37 13.88l35.21-35.407a2.012 2.012 0 012.18-.442l53.98 21.969M1191 585.158v46.35c0 .482.17.948.49 1.312l26.23 30.18M1191 585.158l26.72 26.165M1191 585.158l47.13-8.948a2.01 2.01 0 011.86.626l24.01 26.638M1217.72 663v-51.677m0 51.677l44.66-8.533a1.998 1.998 0 001.62-1.964v-49.029m-46.28 7.849l46.28-7.849" stroke="#21325B" stroke-width="5" stroke-linecap="round"/><path d="M1198 485.591v41.387L1236.17 548M1198 485.591l38.17 21.022M1198 485.591L1236.17 458l38.83 21.679M1236.17 548v-41.387m0 41.387l38.83-26.277v-42.044m-38.83 26.934l38.83-26.934" stroke="#21325B" stroke-width="5"/><path d="M1256.76 425L1235 458.393 1273.24 480l21.76-33.393L1256.76 425z" stroke="#21325B" stroke-width="5"/><path d="M1198 420l8 18M1170 430l26 22M1169 459l16 9" stroke="#21325B" stroke-width="5" stroke-linecap="round"/><path d="M279.417 147.717c-2.627-44.739-25.181-65.135-36.129-69.74 35.21 13.5 65.471-3.148 76.2-13.159l6.569 19.08c22.597-1.052 23.429-32.019 21.02-47.37-3.716-23.686-34.289-49.082-84.739-29.607-50.449 19.474-72.696 66.889-77.513 88.162-38.888-4.737-74.886 29.168-88.024 46.713-13.576 18.203-34.29 67.898-8.54 121.059 32.188 66.45 126.524 30.193 139.262 21.053 44.012-31.58 55.179-80.267 51.894-136.191z" fill="#21325B"/><path d="M349.5 129c0 7.643-1.821 14.44-4.636 19.242-2.849 4.861-6.422 7.258-9.864 7.258-3.442 0-7.015-2.397-9.864-7.258-2.815-4.802-4.636-11.599-4.636-19.242 0-7.643 1.821-14.44 4.636-19.242 2.849-4.861 6.422-7.258 9.864-7.258 3.442 0 7.015 2.397 9.864 7.258 2.815 4.802 4.636 11.599 4.636 19.242z" stroke="#21325B" stroke-width="5"/><ellipse cx="336.5" cy="129.5" rx="2.5" ry="4.5" fill="#21325B"/><path d="M279 144l42-10M330.421 84c4.577 6.575 17.276 20.543 29.422 27.615 12.423 7.232 15.038 18.409 9.154 27.614l-9.154 14.465c6.539 10.082 16.869 35.373 5.885 55.887m-45.114 83.502c-.872-8.11 2.484-27.352 22.884-39.45M250 299v-33.532" stroke="#21325B" stroke-width="5" stroke-linecap="round"/><circle cx="302.5" cy="181.5" r="2.5" fill="#21325B"/><ellipse cx="297" cy="205.5" rx="3" ry="2.5" fill="#21325B"/><path d="M327 217c1.522 3.683 6.652 11.44 15 13" stroke="#21325B" stroke-width="5" stroke-linecap="round"/><ellipse cx="318" cy="198.5" rx="3" ry="2.5" fill="#21325B"/><path d="M369.953 281.723l9.181-2.628c3.716-1.533 10.755-2.103 9.181 7.885-1.574 9.988-29.336 11.17-30.822 0-.545-4.09-.434-10.014 1.344-15.77m20.297-17.742c-11.97 1.845-17.79 9.627-20.297 17.742m0 0c-5.312-2.278-11.723-7.842-7.985-15.77m11.887-11.828c-6.596 4.352-10.234 8.321-11.887 11.828m0 0c-5.875-3.286-11.197-13.405 14.51-27.598m15.739 1.971c-9.837-.657-30.429-4.337-34.101-13.799-3.673-9.462 8.088-10.513 14.427-9.856 8.088 1.314 27.937 7.491 42.626 21.684 18.362 17.741 59.677 63.738 79.351 105.134 15.739 33.118 42.407 76.88 53.774 94.621 22.516 35.045 58.365 107.763-36.068 110.392-24.264.675-59.677-28.65-96.401-51.254M149.981 651.233c.437 16.999-6.684 52.19-38.662 56.958-31.978 4.769-71.863 5.078-87.809 4.637-10.266.883-28.046-1.193-17.037-16.558 11.009-15.366 28.614-17.882 36.04-17.22 19.878 1.325 59.501-5.431 58.977-43.05M766 659c6.808-1.097 24.244-8.691 31.622-25.019 9.223-20.411 28.328-28.97 34.916-21.07 5.27 6.321 3.074 10.535 2.635 11.852" stroke="#21325B" stroke-width="5" stroke-linecap="round"/><path d="M583.191 645.183C505.256 639.953 473.924 615.549 468 604c12.506 118.319 329.118 90.863 321.878 77.136-5.793-10.982-14.262-18.521-17.773-20.918-53.975-33.992-91.495-8.498-188.914-15.035z" fill="#21325B"/><path d="M312.763 793.788c-92.908-14.633-123.386-69.102-119.427-95.523 22.436 65.714 168.924 73.167 230.283 26.421 45.188-34.426 46.41-101.62 43.551-126.686 11.877 36.583 37.78 45.453 74.564 62.327 31.014 14.227 153.528 11.743 213.135 6.775 29.694-2.475 57.227 19.063 39.592 77.908-26.395 88.071-365.563 67.07-481.698 48.778z" fill="#21325B"/><path d="M388.646 281c6.131 13.138 18.524 48.347 19.05 84.081l-45.983-55.835c-8.102-9.196-30.086-24.83-53.209-13.795l-62.405 6.569C197.051 374.715 97.641 529.959 92.386 569.372c-5.255 39.413 5.693 61.09 11.824 67.002 11.605 11.167 41.516 26.801 68.317 0 5.328-5.327 9.723-10.38 13.332-15.108m14.258-41.384c-2.628 11.824.287 22.329-14.258 41.384m0 0c-5.757 38.537 3.748 118.108 87.83 128.092 84.083 9.985 135.321-10.729 150.429-22.334 17.298-14.67 50.581-60.039 45.326-124.151l-28.247-90.65" stroke="#21325B" stroke-width="5" stroke-linecap="round"/><path d="M810.31 664.182c-3.665 19.909-10.255 26.851-15.055 28.815 7.855 37.329-7.2 66.799-22.255 74.003 10.909-1.31 36.786-6.156 53.02-15.062 16.233-8.907 23.346-25.978 24.873-33.4 3.273-18.119 9.426-59.726 7.855-81.207-1.571-21.48-15.491-17.245-22.255-12.442-7.201 4.802-22.517 19.384-26.183 39.293z" stroke="#21325B" stroke-width="5"/><path d="M1236.5 460v26.429m0 0L1221 497m15.5-10.571l15.5 8.589" stroke="#21325B" stroke-width="5" stroke-linecap="round"/></svg>