<svg width="1423" height="1295" fill="none" xmlns="http://www.w3.org/2000/svg"><path d="M777.819 915.282c-54.137-8.151-66.609-60.847-64.935-93.962 23.766 8.392 81.974 17.65 114.075-11.542.689-.627 1.597-.935 2.516-.779 41.288 6.997 118.996 45.524 152.116 131.753 17.22 44.83-5.26 63.718-24.04 39.45-16.5-21.04-54.312-62.12-73.541-58.1 2.033 27.62-1.777 84.048-24.036 101.858-12.557 10.04-26.787-1.8-25.113-12.2 3.707-34.188-4.665-88.588-57.042-96.478zM819.791 712.667c25.368-45.076 8.492-74.042-3.117-82.891 1.009 34.356-23.582 52.108-36.004 56.689l1.975 12.005c3.489-3.475 26.218 8.017 37.146 14.197zM671.991 686.466c15.967 15.505 29.379 15.474 35.672 16.253 21.142-16.617 34.448-12.279 38.459-8.033l-1.201-16.121c-11.558-8.542-19.714-23.591-22.348-30.048-3.064 2.535-7.003 1.515-8.59.688-2.036-1.358-5.915-6.425-5.142-15.835.773-9.41 7.583-6.808 10.892-4.33l16.643 1.977c-.532-15.578 9.122-20.669 14.016-21.268-3.746-8.667 3.164-12.366 6.794-13.809 5.116 6.411 11.883 9.045 14.743 10.267 29.16 7.969 47.123-2.311 55.504-15.293 9.087-13.099 7.977-44.102-17.242-51.92-8.238-3.274-27.823-6.098-40.255 8.796-35.971-13.665-53.478 24.134-58.317 37.876l-5.556 12.518c-47.174 9.499-48.82 52.995-43.746 73.555 6.768-7 9.269 6.901 9.674 14.727z" fill="#000"/><path d="M826.314 810.214c-2.274-5.14-8.234-15.086-2.876-30.904.442-2.272 1.297-4.497 1.863-6.866 11.177-46.665-27.205-65.279-33.948-71.122" stroke="#000" stroke-width="5" stroke-linecap="round"/><path d="M823.856 778.898c12.732 4.593 34.574 7.717 59.601-4.81 25.027-12.526 21.931-90.665 14.251-99.764-6.145-7.28-10.273-9.312-14.043-5.489-18.87 21.24-21.413 34.941-26.912 57.502-1.932 7.926-4.258 12.132-8.044 9.05-9.397-10.826-34.951-33.605-61.992-38.106" stroke="#000" stroke-width="5" stroke-linecap="round"/><path d="M791.252 700.697c-1.524-1.272-2.998-2.039-4.367-2.451-3.433-1.034-6.198.164-7.411 1.195-5.201 3.643-19.125 7.921-33.22-4.11-9.711-6.532-33.092-10.051-48.931 28.123M701.324 752.289c-4.652-14.044-17.676-43.424-32.55-48.593-14.874-5.169-20.957 7.017-22.139 13.756-2.736 14.871-2.643 50.701 19.622 75.05 27.832 30.437 61.148 12.696 68.818-26.374M634.099 669.098c-2.318-.347-6.223 1.292-3.289 10.624 3.667 11.664 11.869 20.435 18.921 26.508" stroke="#000" stroke-width="5" stroke-linecap="round"/><path d="M639.946 664.075c-2.033-1.101-6.086-1.591-6.03 5.258.114 2.061.862 6.564 2.943 8.099M649.441 678.391l-2.009-17.298c-.181-1.12-1.326-3.387-4.461-3.494-3.92-.134-2.697 5.032-2.836 6.586-.111 1.244.917 6.493 1.445 8.961M657.778 682.026l-3.047-13.752c-.316-1.961-2.134-5.616-6.875-4.55M668.322 702.236c1.19-5.694 2.368-17.988.531-25.028-1.042-3.993-1.268-7.865-4.464-8.084-4.617-.315-3.366 6.038-5.121 9.629-.47.682-.965 1.759-1.162 3.035-.32 2.074.144 4.676 2.776 6.976M883.7 668.507l-1.565-9.707-3.737-7.222c-1.357-3.101-2.84-11.636 1.861-12.393 4.138-.668 5.257 3.776 5.927 7.936l-.099 4.284M886.646 647.118c1.927-3.139.326-9.214-2.319-14.383-3.315-6.475 2.769-10.038 7.173-8.535 3.524 1.203 3.014 9.229 2.957 13.174" stroke="#000" stroke-width="5" stroke-linecap="round"/><path d="M894.349 637.909c-.086-4.073.063-12.35-2.895-13.712.882-2.704 3.519-5.992 6.284-5.612 1.785.246 3.729 1.435 4.935 7.252-.672 4.324.236 5.71-2.318 11.104" stroke="#000" stroke-width="5" stroke-linecap="round"/><path d="M900.373 636.28c2.504-5.163 1.624-6.485 2.292-10.62 2.977-.846 8.389-.108 6.22 9.614l-2.941 10.724M909.56 636.452c3.327.402 8.852 4.548 4.341 17.93-4.512 13.381-12.793 18.817-16.37 19.862M713.285 822.462c-1.304-2.324-4.438-8.752-6.543-15.876" stroke="#000" stroke-width="5" stroke-linecap="round"/><path d="M737.577 631.076c1.678 10.207 10.324 16.8 18.855 15.397 8.531-1.403 14.609-10.418 12.93-20.625-1.679-10.208-10.324-16.801-18.855-15.398-8.531 1.403-14.609 10.418-12.93 20.626zM783.108 630.114c1.679 10.207 10.324 16.8 18.855 15.397 8.531-1.403 14.609-10.417 12.931-20.625-1.679-10.208-10.325-16.8-18.856-15.397-8.531 1.403-14.609 10.417-12.93 20.625z" stroke="#000" stroke-width="5"/><path d="M781.655 626.281l-11.301.576M775.215 637.214c3.217 8.536 9.908 15.704 2.367 21.005" stroke="#000" stroke-width="5" stroke-linecap="round"/><path d="M805.864 644.971a5.367 5.367 0 11-1.742-10.592 5.367 5.367 0 011.742 10.592zM761.038 645.817a5.367 5.367 0 11-1.742-10.592 5.367 5.367 0 011.742 10.592z" fill="#000"/><path d="M715.454 635.44c-.591 1.548-1.187 5.127 1.162 7.061M811.713 605.572c6.6 12.935 12.32 44.428-14.89 71.241-27.211 26.813-55.788 1.077-66.675-15.143l-7.677-13.605c-3.281 2.837-10.435 5.343-12.808-7.321-2.373-12.664 2.599-14.328 5.382-13.577 1.509.356 4.808 1.892 5.93 5.189M736.405 630.543l-18.467-2.04M756.254 627.752c-2.923.384-8.761 2.659-8.725 8.683M808.711 624.804c-2.216-1.003-7.649-2.229-11.648.891M769.739 668.767c2.889 1.509 9.534 3.622 13 0M854.177 1036.95c-3.598 4.3-5.858 13.45-.652 19.71 5.717 6.88 10.107 14.18 11.581 19.32.474 3.66-2.032 9.44-15.847 3.21-13.816-6.24-23.787-16.46-27.046-20.8-1.645-2.35-3.551-8.86 1.994-16.07 5.545-7.22 8.579-11.81 9.402-13.21M988.65 988.372c.25 5.59 4.79 13.858 12.86 14.938 8.86 1.2 17.04 3.6 21.6 6.38 2.83 2.38 4.9 8.33-9.49 13.09s-28.65 3.99-33.98 3.01c-2.81-.62-8.62-4.12-9.42-13.19-.8-9.06-1.68-14.498-2.02-16.078M657.288 864.523c2.522 11.673 14.82 38.654 43.835 53.189M675.299 917.532c1.473 4.45 7.24 14.89 18.525 21.07M1066.74 678.767c7.86-5.908 21-23.449 11.79-32.192-5.72-5.425-14.17.539-10.36 6.511 7.15 11.213 21.32-10.408 26.08-20.617 1.67-4.702 3.22-15.553-5-15.553-10.36 0-8.22 17 3.22 14.468 8.4-1.862 15.01-18.085 12.86-37.617M1012.74 1279.86c23.79-11.13 81.69-32.68 123-29.84 5.85.24 14.7 2.7 3.22 10.66-11.47 7.95-17.21 12.07-18.64 13.14-5.98 4.97-11.84 15.48 12.55 17.76 30.48 2.84 116.54-28.06 286.87-5.33M186.693 1098.18c10.929-5.3 37.531-15.56 56.511-14.21 2.692.11 6.756 1.29 1.483 5.08-5.272 3.78-7.908 5.75-8.567 6.25-2.746 2.37-5.437 7.38 5.766 8.46 14.005 1.35 53.547-13.36 131.807-2.54M645.739 777.767c-87.482 0-360.685-70.873-460-383M827.739 635.767c19.868-41.816 34.769-104.361 30.157-198M694.739 591.767c-26.637-20.719-226.837-167.534-296-349" stroke="#000" stroke-width="5" stroke-linecap="round"/><path d="M660.983 293.1c-223.823-142.247-410.55 10.008-475.936 103.916C173.962 150.364 322.992 78.15 484.226 23.93 502.015 8.738 472.436 5.216 429.3 7.818 559.474-22.24 704.754 42.14 738.871 69.8 926.58 206.892 904.909 381.181 888.694 413.83c-18.885 38.021-77.979 61.651-117.398 2.712-39.42-58.938-89.967-106.851-110.313-123.441z" fill="#000"/><path d="M249.474 638.29c29.597 74.764-8.976 99.062-31.962 101.865-72.758 13.097-173.753-34.324-207.855-229.043C-37.963 239.2 179.671 81.826 355.746 28.439 496.606-14.27 512.724 19 461.751 33.09 41.517 149.253 212.477 544.835 249.474 638.29zM240.739 730.767c81.694 55.496 284.023 134.76 433 83.423M1013.69 72.852c6.14 11.804 29.65 36.029 74.59 38.493 56.17 3.079 63.54 12.933 61.39 55.429-2.15 42.496 4.3 62.512 63.23 51.426 58.94-11.085 143.35-68.363 129.23-8.93-1.95 8.725-9.21 31.657-22.72 53.582M530.77 1152v-21M512 1142.67l11.45 9.33M538.41 1152l8.59-13.67M1239.77 1019v-21M1221 1009.67l11.45 9.33M1247.41 1019l8.59-13.67" stroke="#000" stroke-width="5" stroke-linecap="round"/></svg>