<svg width="416" height="284" fill="none" xmlns="http://www.w3.org/2000/svg"><path d="M229.829 17.424c33.2 24 31.167 125 26 172.5h11c16-100-3.333-152.334-15-166l-22-6.5zM346.829 51.424c33.139 20.591 31.11 107.246 25.952 148h10.98c15.971-85.797-3.327-130.698-14.972-142.423l-21.96-5.577z" fill="#000"/><path d="M409.829 193.424c5.667-44.834 4-125.5-42-137.5M367.829 55.924l-186.5-52M411.893 200.864l-163-10.372a1 1 0 00-1.064.997v16.491a1 1 0 00.943.998l163 9.385a1 1 0 001.057-.998v-15.503a1 1 0 00-.936-.998zM295.829 212.424v69M262.829 210.923v47.5" stroke="#000" stroke-width="5" stroke-linecap="round"/><path d="M13.336 236.853c21.97 15.493 166.173-24.664 233.493-45.929l-137.5 5.5C63.276 202.12-8.634 221.36 13.336 236.853z" fill="#000" stroke="#000" stroke-width="5" stroke-linecap="round"/><path d="M247.829 207.424c-38.614 20.22-139.011 61.282-230 52.883M17.83 259.924l-8-26.5M228.329 186.923c7.667-66.333 5.5-195.8-64.5-183-14.667 2.5-46 18.9-54 64.5" stroke="#000" stroke-width="5" stroke-linecap="round"/><path d="M110.456 65.136c8.893-43.105 39.064-58.774 53.373-61.213 37.045-6.773 55.092 26.297 62.738 68.767.342 1.904-1.206 3.607-3.136 3.476L113.156 68.65c-1.778-.121-3.06-1.77-2.7-3.514z" fill="#000"/><path d="M110 195.04l57.329-60.888M88 69.54l79.329 64.612 26.536 21.667a3 3 0 003.873-.065L230 127.54" stroke="#000" stroke-width="5" stroke-linecap="round"/><path d="M89.695 68.61l132.866 8.697c1.091.072 2.059.713 2.471 1.726 9.137 22.436 6.672 78.098 4.042 105.996a2.98 2.98 0 01-2.767 2.688l-114.917 8.061a2.948 2.948 0 01-2.913-1.727c-9.802-21.975-26.439-73.84-21.935-122.771.147-1.6 1.55-2.775 3.153-2.67z" stroke="#000" stroke-width="5" stroke-linecap="round"/><path d="M91.83 142.423c-19.003 0-20.411-1.377-39.406-4.57-1.479-.249-2.91.631-3.45 2.031-6.477 16.837-29.296 44.836-42.645 21.039-3.834-6.833-7.7-26.5 7.5-50.5 14.862-23.466 29.66-12.834 35.608-4.093.264.389.419.836.459 1.305.635 7.405-.21 19.766-5.67 29.788-3.108 5.708-7.715 10.657-14.397 13.5-18.8 8-19-13.5-13-25 3-6.5 8.5-12.5 16.5-6.5 6.5 6 1 12.5-2.5 17M20.33 170.043l80.999 7.881M86.33 106.923c-18.5 0-18 0-48.5-10M30.83 136.424l13.397 1" stroke="#000" stroke-width="5" stroke-linecap="round"/></svg>