<svg width="1975" height="853" fill="none" xmlns="http://www.w3.org/2000/svg"><path d="M1769.98 649.204c0 .729-12.78 12.639-15.02 19.414-.84 2.51-.22 4.315 3.02 4.586 9.6.8 21-13.667 25.5-21" stroke="#000" stroke-width="5" stroke-linecap="round"/><path d="M1754.98 640.204c-4.79 7.441-13.15 18.909-20.47 25.414.67 5 5.69 12.6 20.45 3 2.24-6.775 15.02-18.685 15.02-19.414" stroke="#000" stroke-width="5" stroke-linecap="round"/><path d="M1741.98 633.204c-9.16 9.833-25.8 30.9-19 36.5 1.21.992 2.74 1.088 4.5.507 2.1-.693 4.5-2.347 7.03-4.593 7.32-6.505 15.68-17.973 20.47-25.414" stroke="#000" stroke-width="5" stroke-linecap="round"/><path d="M1815.98 652.204c-15.33-18.667-63-52.5-91-28-11.16 10.833-25.08 30.414-17.08 38.414 4 3 12.66-1 18.24-9M1639.33 438.27c11.93 6.656 38.56 15.975 49.57 0 13.77-19.969 26.17 3.715 20.66 19.04-5.51 15.325-52.26 40.833-83.66-15.117M1632.67 527.949c6.49.43 23.13-3.567 37.74-23" stroke="#000" stroke-width="5" stroke-linecap="round"/><path d="M1666.67 478.449c-1.08 6.051-.85 16.323 3.74 26.5 3.87 8.602 10.85 17.137 22.76 23M1684.17 475.949c8.5 7.166 22.5 26.4 16.5 52M1660.17 474.449c-9.67 4.833-28.1 20.2-24.5 43M1797.9 444.118c104.5 0 104.8 129 158 181" stroke="#000" stroke-width="5" stroke-linecap="round"/><path d="M1653.44 186.67c-47.04 6.794-64.02 64.236-66.64 92.108-13.43 44.226-12.24 80.949-2.77 108.44 1.58 6.968-2.19 19.205-29.9 12.412-27.7-6.794-15.89-54.22-6.53-77.084 5.23-12.02 6.53-34.187 6.53-43.768-9.93-129.082 69.04-143.061 109.77-133.916-12.55 8.362-12.2 31.356-10.46 41.808z" fill="#000"/><path d="M1818.04 216.761c-20.29-104.609-142.04-100.034-178.69-67.997-41.24 52.305 64.14 181.76 92.94 169.337 20.42-15.691 35.75-7.192 39.93 0 18.85 32.429-7.85 50.561-23.56 55.574 4.19 22.491-49.75 47.074-41.89 64.073 41.89 52.959 170.18-33.344 139.41-59.496-24.61-20.922-23.27-47.727-22.91-60.151 1.97-66.034 0-71.264-5.23-101.34z" fill="#000"/><path d="M1636.9 358.618c-23.77-5.143-11.23-15.429-5.94-36" stroke="#000" stroke-width="5" stroke-linecap="round"/><ellipse rx="5.981" ry="8.972" transform="matrix(-.9816 .191 .191 .9816 1601.9 302.026)" fill="#000"/><ellipse rx="5.902" ry="8.853" transform="scale(-1 1) rotate(8.554 -2966.168 -10996.078)" fill="#000"/><path d="M1757.9 328.618c2.26 4 5.43 13.6 0 20M1712.9 430.512c-54.24 0-84.3 35.746-132-42.894M1642.9 395.095c-12.68 3.913-22.83 0-26-8.477" stroke="#000" stroke-width="5" stroke-linecap="round"/><path d="M1644.4 319.618c0 16.03 11.46 28.5 25 28.5 13.53 0 25-12.47 25-28.5s-11.47-28.5-25-28.5c-13.54 0-25 12.47-25 28.5zM1577.4 302.618c0 16.03 11.46 28.5 25 28.5 13.53 0 25-12.47 25-28.5s-11.47-28.5-25-28.5c-13.54 0-25 12.47-25 28.5z" stroke="#000" stroke-width="5"/><path d="M1627.9 306.096c4.07-.862 13.37-1.163 18 4.522M1693.48 309.859l20.25.653M959.398 454.533v85M1023.4 464.533v81" stroke="#000" stroke-width="5" stroke-linecap="round"/><path d="M767.971 440.941l13.407 243.641a10 10 0 009.985 9.451H1165.4c5.52 0 10-4.477 10-10V435.168c0-5.575-4.56-10.074-10.14-9.999l-387.439 5.223c-5.685.077-10.162 4.872-9.85 10.549z" fill="#000"/><rect x="779.398" y="697.533" width="396" height="19" rx="9.5" fill="#000"/><path d="M1024.4 319.533c34.83-.5 111.5 25.999 142 109.499M947.898 319.033c-79.5 15.5-117.5 49.5-147.5 115M1233.4 407.118l26.5-22M1213.9 398.118l19.5-32.5M1237.4 422.118c5.17 2 16.9 3.9 22.5-4.5M756.398 387.033l-18-46.5M725.898 392.033l-30-31M718.398 409.533l-22.5-8.5M704.398 670.308c5.05-.172 10.685-.408 16.961-.721 38.517-1.926 37.781-28.734 32.167-43.367-.419-1.093-1.097-2.09-1.915-2.926-36.303-37.118-68.267-25.395-81.038-13.861-.823.744-1.478 1.69-1.958 2.69-20.373 42.462-13.055 55.505-5.344 57.253 1.353.307 2.762.454 4.137.637 4.312.574 15.193 1.035 36.99.295zm0 0c-2.333-9.092-4.1-31.576 7.5-48.776M1825.4 649.533h147M1686.9 649.533h-142M1313.9 649.533h114.5M629.898 649.533h-108M342.898 764.618l-52 75.5M1186.4 485.118c18.5 29 39.5 63.5 0 128.414M1246.31 675.406c-9.22-1.737-27.22 1.371-16.44 23.819 8.22 17.121 20.92 26.054 24.66 29.775" stroke="#000" stroke-width="5" stroke-linecap="round"/><path d="M1268.46 750.813c-20.39-17.277-20.43-61.481-17.61-84.345.15-1.271 1.46-2.037 2.68-1.634 20.07 6.637 44.28 3.056 56-.158 1.21-.33 2.45.494 2.59 1.736 6.12 54.118-9.1 78.258-17.61 84.42-.08.06-.16.108-.25.154-4.73 2.308-16.2 5.428-25.53.016-.1-.055-.19-.118-.27-.189z" stroke="#000" stroke-width="5" stroke-linecap="round"/><ellipse cx="1281.53" cy="664" rx="32" ry="6" fill="#000"/><path d="M1288.7 643c5.35-4.741 12.83-19.543 0-40.83-12.83-21.286 1.21-40.983 9.83-48.17M1273.53 622c-7.44-10.035-19.11-34.484-6.23-52" stroke="#000" stroke-width="5" stroke-linecap="round"/><path d="M1327.42 751.234c13.96-7.666-11.03-6.19-24.67-5.991l-7.22 7.188c15.05 2.995 26.48 1.198 31.89-1.197zM1024.9 322.032c4.5-13 .4-21.748-3.6-23.414-24.001 22-60.402 13.833-73.902.5-4.8 4.4-2 17.414 0 21.414 26 28.8 63.002 12.667 77.502 1.5z" fill="#000"/><path d="M918.398 402.033l8.031-12.326c7.826-12.012 23.058-16.808 36.355-11.446l19.136 7.716a30.006 30.006 0 0034-8.299l21.98-25.645M761.898 503.533c-7.5 17.666-16.4 60.5 8 90.5" stroke="#000" stroke-width="5" stroke-linecap="round"/><path d="M1093.84 117.638c-11 39.5-16.5 43-32.5 60.5 0-17.295-2.97-46.324-2.97-58.412-52.39 0-96.602-21.386-112.16-32.08.557 36.264-33.44 59.975-33.44 59.975s4.877 14.645 7.663 47.422c2.23 26.221-4.18 21.153-7.663 15.342-10.032-32.358-26.473-23.711-33.44-15.342-85.487-138.905 45.979-165.744 71.059-163.187 18.949-16.18 45.375-28.858 63.951-30.718 67-6.707 97.34 52.452 79.5 116.5z" fill="#000"/><path d="M913.941 235.108c9 54.945 69.408 94.454 112.999 49.945 43.59-44.509 34.87-125.982 30.21-164M878.342 191.638c-5.5 13.5-.34 43.415 35.6 43.415M894.193 199.053c-.796 2.889-.159 9.734 8.748 14M1055.94 228.053c11.73-4.89 20-23 16.82-52M989.941 261.053c11.499 3 10.769-5.255 19.499-12.5" stroke="#000" stroke-width="5" stroke-linecap="round"/><circle cx="1024.27" cy="191.203" r="7.5" fill="#000"/><circle cx="958.271" cy="192.203" r="7.5" fill="#000"/><path d="M941.941 175.053c1.579-4.647 8.389-13.243 23-10.455M1011.94 166.053c3.49-3.018 12.97-7.244 23 0M987.748 187.053c-1.164 9.874-1.956 29.898 4.193 31M1449.4 650.119c-2.5-21.501-13.27-27.247 33.99-117.902 20.48-39.299 60.78-48.66 87.67-39.376 21.12 7.295 34.57 31.243-22.04 140.282M1586.9 489.618c7.83-8.667 23.3-31 22.5-51M1538.4 478.618c0-1.5 19.5-16.5 13.5-40-1.88-7.372-9.7-35.9-6.5-45.5" stroke="#000" stroke-width="5" stroke-linecap="round"/><path d="M270.263 369.44c4.978-56.177-19.321-85.726-32.093-93.477 41.316 23.299 82.031 8.156 97.224-2.327l4.656 24.962c28.306 2.858 35.05-35.537 34.883-55.091-.258-30.169-33.613-67.422-99.966-52.483-66.353 14.938-102.768 69.858-112.683 95.451-47.507-13.07-98.54 22.497-118.119 41.915-20.244 20.155-62.866 81.087-32.937 149.121 40.378 91.789 147.786 68.996 165.317 59.967 60.576-31.195 87.496-97.817 93.718-168.038z" fill="#000"/><path d="M361.049 359.089c-1.413 9.535-4.939 17.686-9.346 23.168-4.456 5.545-9.389 7.914-13.745 7.269-4.355-.646-8.389-4.345-11.048-10.945-2.628-6.524-3.642-15.348-2.23-24.884 1.411-9.535 4.939-17.686 9.345-23.168 4.457-5.546 9.39-7.915 13.746-7.27 4.355.647 8.389 4.344 11.047 10.945 2.629 6.524 3.643 15.349 2.231 24.885z" stroke="#000" stroke-width="5"/><path d="M343.157 367.291c3.066.453 6.214-3.654 7.032-9.177.818-5.522-1.005-10.368-4.071-10.822-3.066-.455-6.214 3.654-7.032 9.176-.818 5.523 1.005 10.368 4.071 10.823z" fill="#000"/><path d="M270.43 364.737l51.892-4.709M345.761 299.58c4.482 9.027 17.706 28.758 31.514 39.8 14.121 11.294 15.314 25.691 6.298 36.064l-14.055 16.318c7.757 59.344-3.671 103.289-76.362 123.745" stroke="#000" stroke-width="5" stroke-linecap="round"/><path d="M292.293 418.864a3.146 3.146 0 00.921-6.224 3.144 3.144 0 00-3.57 2.652 3.144 3.144 0 002.649 3.572zM281.028 447.723c2.061.306 3.939-.84 4.193-2.559.254-1.719-1.211-3.359-3.272-3.665-2.061-.306-3.939.84-4.193 2.559-.254 1.718 1.211 3.359 3.272 3.665zM308.443 442.884c2.061.306 3.938-.839 4.193-2.559.254-1.718-1.211-3.359-3.272-3.665-2.061-.306-3.939.84-4.193 2.559-.254 1.718 1.21 3.359 3.272 3.665z" fill="#000"/><path d="M365.397 573.187l23.271-24.735c4.211-4.679 15.16-9.76 25.266 7.354 10.107 17.113 6.428 35.207 3.325 42.115M488.293 531.937c2.307-3.118 3.534-5.86 3.968-7.76 2.215-3.88 3.539-12.834-9.302-16.166-19.935-5.174-16.612 7.113-12.625 7.759 13.289 1.552 18.839 12.718 17.959 16.167z" stroke="#000" stroke-width="5" stroke-linecap="round"/><path d="M420.551 584.725c1.994-6.856 12.096-22.76 36.554-31.535 16.473-5.911 25.831-14.433 30.591-21.253M456.521 534.07c-6.043-3.22-21.217-6.956-33.572 3.865M475.706 534.336c-5.909-10.476-21.136-28.422-34.771-16.397M407.362 537.935c5.447-16.01 17.023-36.896 55.155-39.591M508.512 598.841c2.76-3.854 4.146-7.364 2.888-9.787-3.658-7.045-12.654.186-16.694 4.683-10.057 10.817-29.411 29.621-24.194 7.74 5.216-21.881-5.879-20.534-31.858 6.175l-25.824 15.713M506.401 633.149c2.224 6.843-1.344 22.682-34.046 26.52-12.373 1.451-14.232 1.247-25.845.267h-19.891" stroke="#000" stroke-width="5" stroke-linecap="round"/><path d="M486.569 619.458c6.426-4.737 16.674-13.338 21.934-20.685 5.712-.066 11.243 3.155 2.428 14.413-3.817 4.875-10.323 11.255-20.668 19.528" stroke="#000" stroke-width="5" stroke-linecap="round"/><path d="M490.273 632.783c10.345-8.273 16.851-14.653 20.667-19.528 5.45 1.537 10.353 7.482-4.539 19.894-3.257 2.714-7.46 5.738-12.812 9.093M176.795 549.48c-88.082 64.289-77.543 144.462-77.543 243.543M179.194 550.571l42.285 37.025c1.373 1.203 3.533.49 3.922-1.294l11.024-50.444c.409-1.87 2.735-2.533 4.066-1.155l28.628 29.61M269.119 520.687c2.345 4.397 5.707 11.544 8.858 19.849 4.324 11.401 8.25 24.987 8.601 36.647M277.978 540.537l79.026 42.388M216.363 623.273c14.441 19.575 95.771 73.779 154.297 14.306l15.962-17.316M255.93 814.618c18.79-4.861 107.911-53.693 133.867-99.068M382.839 656.563c6.437 23.122 8.248 42.64 6.958 58.987 14.32-9.832 27.999-17.394 27.999-48.399 0-21.932-15.958-40.838-30.398-46.888" stroke="#000" stroke-width="5" stroke-linecap="round"/><path d="M263.124 604.668c3.311 0 5.995-3.223 5.995-7.199s-2.684-7.198-5.995-7.198c-3.31 0-5.995 3.222-5.995 7.198 0 3.976 2.685 7.199 5.995 7.199zM271.518 639.459c3.31 0 5.995-3.223 5.995-7.199s-2.685-7.198-5.995-7.198c-3.311 0-5.996 3.222-5.996 7.198 0 3.976 2.685 7.199 5.996 7.199z" fill="#000"/><path d="M335.206 440.306c-.772 4.679 1.235 14.349 15.446 15.596" stroke="#000" stroke-width="5" stroke-linecap="round"/><path d="M458.511 478.279c-7.674 8.638 8.997 20.399 13.712 27.259 6.714-1.919 24.661 1.538 21.064 12.935 6.595-7.398 29.972-25.793 34.168-31.192 8.86-11.398-3.158-20.394-11.393-29.393-5.49-5.999-13.187-17.995-27.576-5.999-10.791 8.998-22.301 17.752-29.975 26.39z" stroke="#000" stroke-width="5"/><path d="M482.311 602.119l-11.24-19.411a1.2 1.2 0 01.222-1.48c7.492-6.929 23.462-21.364 34.094-29.834a1.169 1.169 0 011.699.242c5.988 8.698 18.027 29.721 23.776 52.585.071.284.039.581-.102.839-3.525 6.437-6.494 10.257-13.689 14.456" stroke="#000" stroke-width="5" stroke-linecap="round"/><path d="M1648.65 843.617c-9.2-16 20.16-18.333 36-17.5v11.501l51.5 5.999c-25.34 6.667-78.3 16-87.5 0z" fill="#000"/><path d="M1761.64 822.118l-19.5 20M1737.64 781.118l-50.5-3.5M1707.64 764.618l54 2.5M1686.14 777.618l-2.5 58M1761.64 768.118v53M1742.14 799.618v42.5M1686.14 777.618l21.5-13M1742.14 842.118l-59-6" stroke="#000" stroke-width="5" stroke-linecap="round"/><path d="M1453.9 791.118c.5-14 56.5-9.5 60-9v9l17 12c-25.83.666-77.4-.8-77-12z" fill="#000"/><path d="M1592.9 789.618v-51M1549.4 802.618v-56M1513.4 789.618v-56M1513.4 733.618l39.5-10M1592.9 738.118l-43.5 8M1549.4 803.118l43.5-13M1592.9 738.118l-40-14.5M1513.4 734.118l36.5 12" stroke="#000" stroke-width="5" stroke-linecap="round"/><path d="M494.901 808.118c.5-14 56.5-9.5 60-9v9l17 12c-25.834.666-77.4-.8-77-12z" fill="#000"/><path d="M633.9 806.618v-51M590.4 819.618v-56M554.4 806.618v-56M590.4 820.118l43.5-13M633.9 755.118l-43.5 8M554.4 750.618l39.5-10M633.9 755.118l-40-14.5M554.4 751.118l36.5 12" stroke="#000" stroke-width="5" stroke-linecap="round"/><path d="M618.334 703.974l-21.114 33.074a2 2 0 00.972 2.945l34.125 13.021a2 2 0 002.438-.856l19.933-33.977a2 2 0 00-1.035-2.889l-32.943-12.119a2 2 0 00-2.376.801z" stroke="#000" stroke-width="5"/><path d="M560.441 697.618l8 18M532.441 707.618l26 22M531.441 736.618l16 9" stroke="#000" stroke-width="5" stroke-linecap="round"/></svg>