<svg xmlns="http://www.w3.org/2000/svg" viewBox="0 0 1600 1200"><style>.st0{fill:#161616}.st1{fill:none;stroke:#161616;stroke-width:2;stroke-miterlimit:10}.st3{fill:#e8e8e8}.st5,.st6{fill:#161616;stroke:#161616;stroke-width:3;stroke-miterlimit:10}.st6{fill:#fff}.st9{opacity:.2;fill:#3d3d3d}.st12,.st13,.st14{opacity:.18;fill:#3d3d3d}.st13,.st14{opacity:.24}.st14{opacity:.19}.st15{fill:#ec615b}</style><g id="coins_ground"><path class="st0" d="M570.8 1113h53.4c1.9 0 1.9-3 0-3h-53.4c-1.9 0-1.9 3 0 3zM805.5 1111.2h39.6c1.9 0 1.9-3 0-3h-39.6c-2 0-2 3 0 3zM864.3 1109.4h23c1.9 0 1.9-3 0-3h-23c-1.9 0-1.9 3 0 3z"/><path class="st1" d="M770.1 989.5H580.2c-6.6 0-12-5.4-12-12v-6.2c0-6.6 5.4-12 12-12h189.9c6.6 0 12 5.4 12 12v6.2c0 6.6-5.4 12-12 12zM788.7 1021.3H598.8c-6.6 0-12-5.4-12-12v-6.2c0-6.6 5.4-12 12-12h189.9c6.6 0 12 5.4 12 12v6.2c0 6.6-5.4 12-12 12zM744.9 1052.3H555c-6.6 0-12-5.4-12-12v-6.2c0-6.6 5.4-12 12-12h189.9c6.6 0 12 5.4 12 12v6.2c0 6.6-5.4 12-12 12z"/><path class="st1" d="M768.1 1081.5H578.3c-6.6 0-12-5.4-12-12v-6.2c0-6.6 5.4-12 12-12h189.9c6.6 0 12 5.4 12 12v6.2c-.1 6.6-5.5 12-12.1 12zM788.7 1111.7H598.8c-6.6 0-12-5.4-12-12v-6.2c0-6.6 5.4-12 12-12h189.9c6.6 0 12 5.4 12 12v6.2c0 6.6-5.4 12-12 12z"/><path class="st0" d="M714.6 972.3v12.4c0 1.4 2.3 1.5 2.3 0v-12.4c-.1-1.5-2.3-1.5-2.3 0zM721.3 974.5v11.3c0 1.4 2.3 1.5 2.3 0v-11.3c0-1.4-2.3-1.4-2.3 0zM743.9 968.3v15.8c0 1.4 2.3 1.5 2.3 0v-15.8c0-1.4-2.3-1.4-2.3 0zM748.4 977.3v6.2c0 1.4 2.3 1.5 2.3 0v-6.2c0-1.4-2.3-1.4-2.3 0zM593.2 967.9v17.5c0 1.4 2.3 1.5 2.3 0v-17.5c-.1-1.5-2.3-1.5-2.3 0zM583.9 972.3v10.3c0 1.4 2.3 1.5 2.3 0v-10.3c0-1.4-2.3-1.4-2.3 0zM621.3 968.6v14c0 1.4 2.3 1.5 2.3 0v-14c-.1-1.5-2.3-1.5-2.3 0zM611 976.8v9.3c0 1.4 2.3 1.5 2.3 0v-9.3c-.1-1.5-2.3-1.5-2.3 0zM663.4 968.9v18.2c0 1.4 2.3 1.5 2.3 0v-18.2c0-1.4-2.3-1.4-2.3 0zM670.3 975.8v9.3c0 1.4 2.3 1.5 2.3 0v-9.3c-.1-1.5-2.3-1.5-2.3 0zM680.5 967.5v18.2c0 1.4 2.3 1.5 2.3 0v-18.2c0-1.4-2.3-1.4-2.3 0zM613.7 998v21.6c0 1.4 2.3 1.5 2.3 0V998c0-1.4-2.3-1.4-2.3 0zM626.1 1005.2v15.4c0 1.4 2.3 1.5 2.3 0v-15.4c-.1-1.4-2.3-1.4-2.3 0zM666.2 1001.1v15.4c0 1.4 2.3 1.5 2.3 0v-15.4c-.1-1.4-2.3-1.4-2.3 0zM692.2 995.6v25c0 1.4 2.3 1.5 2.3 0v-25c-.1-1.4-2.3-1.4-2.3 0zM715.8 1005.6v8.2c0 1.4 2.3 1.5 2.3 0v-8.2c0-1.5-2.3-1.5-2.3 0zM566.4 1030.6v19.9c0 1.4 2.3 1.5 2.3 0v-19.9c0-1.5-2.3-1.5-2.3 0zM619.2 1031.3v20.6c0 1.4 2.3 1.5 2.3 0v-20.6c0-1.5-2.3-1.5-2.3 0zM597.3 1033v13.7c0 1.4 2.3 1.5 2.3 0V1033c-.1-1.5-2.3-1.5-2.3 0zM604.8 1028.5v11.3c0 1.4 2.3 1.5 2.3 0v-11.3c0-1.4-2.3-1.4-2.3 0zM677.5 1028.9v20.9c0 1.4 2.3 1.5 2.3 0v-20.9c-.1-1.5-2.3-1.5-2.3 0zM658.6 1028.5v5.1c0 1.4 2.3 1.5 2.3 0v-5.1c0-1.4-2.3-1.4-2.3 0zM722.3 1022.4v19.9c0 1.4 2.3 1.5 2.3 0v-19.9c0-1.5-2.3-1.5-2.3 0zM732.3 1036.7v12c0 1.4 2.3 1.5 2.3 0v-12c-.1-1.4-2.3-1.4-2.3 0zM696.3 1028.5v17.5c0 1.4 2.3 1.5 2.3 0v-17.5c0-1.4-2.3-1.4-2.3 0zM585.6 1054.6v22.3c0 1.4 2.3 1.5 2.3 0v-22.3c0-1.5-2.3-1.5-2.3 0zM603 1080.9v-22.3c0-1.4-2.3-1.5-2.3 0v22.3c0 1.5 2.3 1.5 2.3 0zM610.2 1080.3v-8.6c0-1.4-2.3-1.5-2.3 0v8.6c0 1.4 2.3 1.4 2.3 0zM626.1 1052.9v23.3c0 1.4 2.3 1.5 2.3 0v-23.3c-.1-1.5-2.3-1.5-2.3 0zM631.9 1063.8v11c0 1.4 2.3 1.5 2.3 0v-11c-.1-1.4-2.3-1.4-2.3 0zM639.8 1059.7v12c0 1.4 2.3 1.5 2.3 0v-12c-.1-1.4-2.3-1.4-2.3 0zM665.5 1052.9v24.3c0 1.4 2.3 1.5 2.3 0v-24.3c-.1-1.5-2.3-1.5-2.3 0zM691.5 1061.8v13.4c0 1.4 2.3 1.5 2.3 0v-13.4c0-1.5-2.3-1.5-2.3 0zM727.1 1052.2v25.7c0 1.4 2.3 1.5 2.3 0v-25.7c0-1.5-2.3-1.5-2.3 0zM738.1 1064.8v12.3c0 1.4 2.3 1.5 2.3 0v-12.3c0-1.4-2.3-1.4-2.3 0zM757 1053.5v19.2c0 1.4 2.3 1.5 2.3 0v-19.2c-.1-1.4-2.3-1.4-2.3 0zM613.6 1110.8v-22.3c0-1.4-2.3-1.5-2.3 0v22.3c0 1.4 2.3 1.4 2.3 0zM621.8 1110.4v-11.3c0-1.4-2.3-1.5-2.3 0v11.3c.1 1.5 2.3 1.5 2.3 0zM644.9 1084.4v25.7c0 1.4 2.3 1.5 2.3 0v-25.7c0-1.5-2.3-1.5-2.3 0zM665.5 1088.5v15.8c0 1.4 2.3 1.5 2.3 0v-15.8c-.1-1.5-2.3-1.5-2.3 0zM658.3 1091.6v6.2c0 1.4 2.3 1.5 2.3 0v-6.2c-.1-1.5-2.3-1.5-2.3 0zM702.8 1082v26.7c0 1.4 2.3 1.5 2.3 0V1082c0-1.5-2.3-1.5-2.3 0zM711.4 1093.6v12c0 1.4 2.3 1.5 2.3 0v-12c-.1-1.4-2.3-1.4-2.3 0zM733.3 1083.3v25c0 1.4 2.3 1.5 2.3 0v-25c0-1.4-2.3-1.4-2.3 0zM773.1 1085.4v21.6c0 1.4 2.3 1.5 2.3 0v-21.6c-.1-1.4-2.3-1.4-2.3 0zM779.2 1094.7v10.3c0 1.4 2.3 1.5 2.3 0v-10.3c0-1.5-2.3-1.5-2.3 0zM753.6 1019v-16c0-1.4-2.3-1.5-2.3 0v16c.1 1.4 2.3 1.5 2.3 0zM767.4 996.5v21.5c0 1.4 2.3 1.5 2.3 0v-21.5c-.1-1.4-2.3-1.5-2.3 0zM777.8 953.7c5.5 3.2 8.5 9.2 8 15.5-.1 1.4 2.1 1.4 2.3 0 .6-7.1-2.9-13.8-9.1-17.4-1.3-.8-2.5 1.1-1.2 1.9zM548.8 1028c-2.7 4.4-3.2 9.6-1.4 14.4.5 1.3 2.7.8 2.2-.6-1.6-4.3-1.2-8.7 1.2-12.7.7-1.2-1.2-2.4-2-1.1zM537.5 1016.7c-5.8 7.3-8.7 16-8.5 25.3 0 1.4 2.3 1.5 2.3 0-.2-8.7 2.5-16.9 7.9-23.8.8-1-.8-2.6-1.7-1.5zM776.8 1048.6c4 2.1 6.5 6.1 6.5 10.7 0 1.4 2.3 1.5 2.3 0 0-5.3-2.9-10.2-7.6-12.6-1.3-.7-2.5 1.2-1.2 1.9z"/><path d="M673.1 961.7c6.1-.8 20.4-1.8 34 6.4 3.9 2.3 6.9 4.9 9.4 7.4-.3 4.6-.7 9.2-1 13.8-14.7.6-29.3 1.2-44 1.7 2 .1 18 1 26.7 14 3.8 5.7 4.7 11.4 4.9 14.8-.5 3.6-2.1 11.3-7.9 18.7-7 8.9-15.8 12.2-19.2 13.3 1.6.8 9.2 5.1 11.8 14.3 1.5 5.4.6 10.1 0 12.3-9.7 10.5-19.4 21-29.1 31.6l133.6 1.5c1.7-.9 4.9-3 6.9-6.9 3.3-6.4 1.7-14.1-2-18.7-7-8.9-22.9-5.8-24.7-5.4.5-.3 8.6-6.4 7.9-16.3-.5-7.1-5.4-11.4-6.4-12.3-7.1-.5-14.1-1-21.2-1.5.7-.7 6-6.5 4.9-14.8-.9-6.4-5.2-11.8-11.3-14.3 9.5-.1 17.7-.3 24.2-.5 18.9-.5 23.2-.8 26.6-4.4 4.6-5 6.1-14.7 1.5-20.7-2.5-3.2-5.9-4.4-7.9-4.9-7.4-.3-14.8-.7-22.2-1 1.1 0 6.4.1 10.4-3.9 3.9-4 3.6-9.3 3.5-11.8-.1-1.6-.7-8.2-5.4-12.3-4.9-4.3-11.2-3.1-22.7-2.5-9 .5-18.1-.4-27.1 0-18.8.8-37.8 1.7-54.2 2.4z" opacity=".15" fill="#3d3d3d"/></g><g id="ground"><path class="st3" d="M811.8 1085.1h265.7c1.9 0 1.9-3 0-3H811.8c-1.9 0-1.9 3 0 3zM1105.4 1087.6c46.2-3.6 92.3-4.6 138.6-.7 1.9.2 1.9-2.8 0-3-46.3-3.9-92.3-2.9-138.6.7-1.9.1-1.9 3.1 0 3zM1230.6 1103.4c24.9 2.2 49.6-4 74.4-5.6 25.5-1.6 51.1 0 76.3 4.5 1.9.3 2.7-2.6.8-2.9-24.8-4.4-50-6.1-75.2-4.7-25.4 1.4-50.8 8-76.3 5.7-1.9-.2-1.9 2.8 0 3z"/><path class="st3" d="M1246.2 1083.2c-10.4-8-20.1-17-28.7-26.9-1.9-2.2-3.7-4.4-5.5-6.6-1.3-1.6-2.7-3.3-3.6-5.1-1.2-2.4-.7-4.1-.7-6.8 0-4.7-2.7-4.5-5.8-7.7-4.7-4.9-5.4-12-6.8-18.3-1.3-5.9-3.7-11.1-6.4-16.4-6.3-12.7-9.2-27.2-13-40.8-.3.6-.7 1.2-1 1.8 13.2-1.8 27.5 8.1 38 15.3 5.4 3.7 10.5 7.7 15.4 12 4.9 4.4 12.4 10.6 9.7 18-.4 1 .6 1.9 1.4 1.9 8.2.3 14.4 8.5 18.8 14.6 4.3 5.8 7.8 12.2 10.4 18.9 5.2 13.5 6.8 28.2 4.5 42.5-.3 1.9 2.6 2.7 2.9.8 2.6-16 .6-32.4-5.9-47.4-3.2-7.3-7.4-14.2-12.5-20.4-4.7-5.7-10.4-11.8-18.3-12.1.5.6 1 1.3 1.4 1.9 2.3-6.2-1.3-11.9-5.5-16.3-5.4-5.7-11.7-10.6-18.1-15.1-11.8-8.4-27.9-19.7-43.2-17.5-.8.1-1.2 1.1-1 1.8 3.9 13.9 6.8 28.5 13.3 41.5 3.3 6.7 5.5 13 7.1 20.3 1.1 5.4 2.7 11 6.7 15.1 1.7 1.8 4.7 2.8 5 5.4.2 2.4-.6 4.1.3 6.7 1.9 5.3 6.8 10.1 10.4 14.2 8.8 10.1 18.7 19.2 29.3 27.4 1.4 1 2.9-1.6 1.4-2.7z"/><path class="st3" d="M1263.3 1017.3c3.5-12.9 13.9-24.1 22.1-34.3 2.2-2.7 4.3-5.3 6.5-7.9 1.8-2.2 4.1-6.3 7.2-6.8 1.3-.2 1.9.6 3.3-.3 1.5-.9 2.1-2.7 2.9-4.1 6-10.9 15.6-18.8 25.7-25.9 7.9-5.6 15.7-11.2 19.6-20.4-1-.3-1.9-.5-2.9-.8-4.1 15.2-4.1 30.3-1.5 45.8 2.7 16.1 3.3 31.7-1.1 47.7-8.4 30.5-31.5 51-55 70.4-1.5 1.2.6 3.3 2.1 2.1 23-19 45.7-39.1 54.8-68.5 4.3-14 5.5-28.8 3.5-43.3-1.2-8.6-3.1-17-3.4-25.8-.3-9.4.9-18.7 3.4-27.7.5-1.9-2.2-2.5-2.9-.8-4.6 11-15.9 16.6-24.9 23.5-4.6 3.5-8.9 7.4-12.8 11.7-1.7 1.9-3.3 4-4.7 6.1-1.1 1.7-2.8 6.3-4.6 6.9-1.2.4-2.5-.3-3.9.3-2 .8-3.3 3.2-4.6 4.7-4.4 5.3-8.8 10.5-13 15.9-7.3 9.2-15.6 19-18.8 30.5-.4 2.1 2.5 2.9 3 1zM1187.1 971.8c9 6.4 15.8 15 22.5 23.7 7.1 9 14.1 18.1 20.7 27.5 12.7 18 23.8 37.3 29.7 58.7.5 1.9 3.4 1.1 2.9-.8-6.1-22.2-17.7-42.2-31-60.8-6.5-9.1-13.3-17.9-20.2-26.7-6.9-8.9-13.9-17.6-23.2-24.1-1.5-1.2-3 1.4-1.4 2.5z"/><path class="st3" d="M1337.1 942.7c-15.9 41.8-52.6 73-63.1 117.2-.4 1.9 2.4 2.7 2.9.8 10.4-44.2 47.2-75.4 63.1-117.2.7-1.8-2.2-2.6-2.9-.8z"/><path class="st3" d="M1312.5 949.8c1.5 13.9.6 27.7-2.7 41.2-.5 1.9 2.4 2.7 2.9.8 3.3-13.8 4.3-27.9 2.8-42-.2-1.9-3.2-1.9-3 0zM1321.6 978.1c9.4-5.9 18.3-12.5 26.7-19.8 1.5-1.3-.7-3.4-2.1-2.1-8.2 7.1-16.9 13.6-26.1 19.3-1.7 1.1-.2 3.7 1.5 2.6zM1188.2 998.1c6.9-.2 16.6-2.2 22.9 1.1 1.7.9 3.2-1.7 1.5-2.6-7.1-3.8-16.7-1.8-24.4-1.5-2 .1-2 3.1 0 3zM1226 982.9c-1.2 9.7-1 19.2.4 28.9.3 1.9 3.2 1.1 2.9-.8-1.4-9.4-1.4-18.7-.3-28.1.3-1.9-2.7-1.9-3 0zM1164.5 1119.1c16.2.9 32.2-2.7 48.4-2.4 15.5.3 30.6 4.4 46.1 1.9 1.9-.3 1.1-3.2-.8-2.9-15.8 2.6-31.4-2-47.2-2-15.5 0-30.9 3.3-46.5 2.4-1.9-.2-1.9 2.8 0 3zM1351.9 1081.5c11.6-1.6 23.3-2.1 35-1.6 11.5.5 22.9 1.9 34.5.9 11.3-.9 22.5-2.7 33.9-2.6 11.5.1 22.9 1.4 34.3 2.9 1.9.2 1.9-2.8 0-3-11.4-1.4-22.8-2.8-34.3-2.9-12-.1-23.8 1.9-35.8 2.7-11.5.8-22.9-.7-34.4-1.1-11.4-.4-22.7.3-33.9 1.8-2 .3-1.2 3.2.7 2.9zM314.3 1100.7c31 4.3 61.7-2.6 92.6-4.7 16.4-1.1 32.5.1 48.9 1.6s32.8 2.2 49.3 2.3c18.8.1 37.7-.4 56.5-1 1.9-.1 1.9-3.1 0-3-21.1.6-42.3 1.2-63.4.9-20.7-.3-41.1-2.6-61.7-3.9-40.6-2.7-80.9 10.5-121.4 4.9-1.9-.2-2.7 2.6-.8 2.9zM489.4 1117.6c11.7 0 23.3-2.8 34.9-3.7 11.8-.9 23.6-1.1 35.4-.6 1.9.1 1.9-2.9 0-3-11.8-.5-23.6-.4-35.4.6-11.6.9-23.3 3.7-34.9 3.7-1.9 0-1.9 3 0 3z"/></g><g id="buildings"><path class="st3" d="M425.9 470v599.8c0 1.9 3 1.9 3 0V835.9 602 470c0-1.9-3-1.9-3 0zM677.7 433.4V948.6c0 1.9 3 1.9 3 0V747.9 547.2 433.4c0-1.9-3-1.9-3 0zM683.7 719.1c56.7 23.6 113.5 47 170.5 70 1.8.7 2.6-2.2.8-2.9-57-23-113.8-46.4-170.5-70-1.8-.7-2.5 2.2-.8 2.9zM842.5 787.1V1076.7c0 1.9 3 1.9 3 0V851v-63.9c0-1.9-3-1.9-3 0zM1115.7 1075.6V886.7c0-1.9-3-1.9-3 0v188.9c0 1.9 3 1.9 3 0zM1087.8 893.5c61.1-26.3 122.4-52.7 180.5-85.3 16.6-9.3 33-19.2 49-29.7 1.6-1.1.1-3.7-1.5-2.6-55.8 36.5-116 65.3-176.8 92.1-17.5 7.7-35.1 15.3-52.6 22.8-1.9.9-.3 3.4 1.4 2.7z"/><path class="st3" d="M1164.9 854.7V612.2v-68.9c0-1.9-3-1.9-3 0v311.4c0 1.9 3 1.9 3 0z"/><path class="st3" d="M1147.4 549.4h287.3c1.9 0 1.9-3 0-3h-287.3c-2 0-2 3 0 3zM1406.9 559.3v501.4c0 1.9 3 1.9 3 0V669.2 559.3c0-1.9-3-1.9-3 0zM413.1 473.3c69.9-22.5 144.5-27.4 217-35.7 21.2-2.4 42.4-4.8 63.6-7.3 1.9-.2 1.9-3.2 0-3-37.8 4.3-75.7 8.7-113.5 13-35.9 4.1-72 8-107.5 14.9-20.4 3.9-40.6 8.9-60.4 15.2-1.8.6-1 3.5.8 2.9zM447.4 546.1v-50c0-1.9-3-1.9-3 0v50c0 1.9 3 1.9 3 0z"/><path class="st3" d="M445 495.9h29.4c1.9 0 1.9-3 0-3H445c-1.9 0-1.9 3 0 3z"/><path class="st3" d="M473 495.2v52.1c0 1.9 3 1.9 3 0v-52.1c0-1.9-3-1.9-3 0z"/><path class="st3" d="M446.3 549.3h26.1c1.9 0 1.9-3 0-3h-26.1c-1.9 0-2 3 0 3zM531.8 545.7v-50c0-1.9-3-1.9-3 0v50c0 1.9 3 1.9 3 0z"/><path class="st3" d="M529.5 495.4h29.4c1.9 0 1.9-3 0-3h-29.4c-2 0-2 3 0 3z"/><path class="st3" d="M557.4 494.8v52.1c0 1.9 3 1.9 3 0v-52.1c0-1.9-3-1.9-3 0z"/><path class="st3" d="M530.7 548.8h26.1c1.9 0 1.9-3 0-3h-26.1c-1.9 0-1.9 3 0 3zM618.5 543.8v-50c0-1.9-3-1.9-3 0v50c0 1.9 3 1.9 3 0z"/><path class="st3" d="M616.1 493.5h29.4c1.9 0 1.9-3 0-3h-29.4c-1.9 0-1.9 3 0 3z"/><path class="st3" d="M644.1 492.9V545c0 1.9 3 1.9 3 0v-52.1c0-2-3-2-3 0z"/><path class="st3" d="M617.4 546.9h26.1c1.9 0 1.9-3 0-3h-26.1c-1.9 0-1.9 3 0 3zM416.8 686.7v197.6c0 1.9 3 1.9 3 0V686.7c0-2-3-2-3 0zM437.8 896.9v91.7c0 1.9 3 1.9 3 0v-91.7c0-1.9-3-1.9-3 0zM403.6 464.7c32.2-11.2 64.9-20.4 98.2-27.5 1.9-.4 1.1-3.3-.8-2.9-33.3 7.1-66.1 16.3-98.2 27.5-1.8.6-1 3.5.8 2.9zM686.1 733.4c33.8 12.7 66.7 27.8 99.5 42.9 1.7.8 3.3-1.8 1.5-2.6-33.1-15.2-66.2-30.4-100.2-43.2-1.8-.7-2.6 2.2-.8 2.9zM705.7 839.1v-50c0-1.9-3-1.9-3 0v50c0 2 3 2 3 0z"/><path class="st3" d="M703.4 788.9h29.4c1.9 0 1.9-3 0-3h-29.4c-2 0-2 3 0 3z"/><path class="st3" d="M731.3 788.3v52.1c0 1.9 3 1.9 3 0v-52.1c0-2-3-2-3 0z"/><path class="st3" d="M704.6 842.3h26.1c1.9 0 1.9-3 0-3h-26.1c-1.9 0-1.9 3 0 3zM1129 890c65.3-24.5 127.9-55.7 186.8-93 1.6-1 .1-3.6-1.5-2.6-58.7 37.2-121.1 68.3-186.1 92.7-1.8.7-1 3.6.8 2.9zM1416.1 566.4c.1 77.4.2 154.7.2 232.1 0 1.9 3 1.9 3 0-.1-77.4-.2-154.7-.2-232.1 0-1.9-3-1.9-3 0zM1199.5 539.3h236.3c1.9 0 1.9-3 0-3h-236.3c-1.9 0-1.9 3 0 3zM1193.9 638.7v-50c0-1.9-3-1.9-3 0v50c0 2 3 2 3 0z"/><path class="st3" d="M1191.6 588.5h29.4c1.9 0 1.9-3 0-3h-29.4c-1.9 0-1.9 3 0 3z"/><path class="st3" d="M1219.5 587.9V640c0 1.9 3 1.9 3 0v-52.1c0-2-3-2-3 0z"/><path class="st3" d="M1192.9 641.9h26.1c1.9 0 1.9-3 0-3h-26.1c-2 0-2 3 0 3zM1332.8 638.7v-50c0-1.9-3-1.9-3 0v50c0 2 3 2 3 0z"/><path class="st3" d="M1330.4 588.5h29.4c1.9 0 1.9-3 0-3h-29.4c-1.9 0-1.9 3 0 3z"/><path class="st3" d="M1358.4 587.9V640c0 1.9 3 1.9 3 0v-52.1c0-2-3-2-3 0z"/><path class="st3" d="M1331.7 641.9h26.1c1.9 0 1.9-3 0-3h-26.1c-1.9 0-1.9 3 0 3z"/><ellipse cx="1271.8" cy="187.2" rx="59.9" ry="60.9" fill="none" stroke="#e8e8e8" stroke-width="3" stroke-miterlimit="10"/><path class="st3" d="M1202.7 422.5c16.6-11.3 36.8-4.2 54 1.6 8.1 2.7 16.3 5.2 24.8 6 9.2.9 18.4-.1 27.4-1.9 35.7-7.4 74.3-32.6 111-15.5 1.7.8 3.3-1.8 1.5-2.6-27-12.6-56.7-2.7-83.1 6.3-15.4 5.3-31.3 10.6-47.8 11-16.9.4-31.7-6.5-47.6-10.9-13.8-3.9-29.4-5-41.8 3.4-1.5 1.1 0 3.7 1.6 2.6zM455.1 368c28.9 8.3 57.3-5.3 84.4-13.8 14.8-4.6 30.4-8.3 46-6.3 15.9 2.1 30.4 9.7 45 16 14.8 6.4 30.2 11.7 46.6 9.1 1.9-.3 1.1-3.2-.8-2.9-31.3 5-57.5-19.5-87.1-24.7-28.9-5.1-56.4 8.7-83.4 16.7-16.3 4.8-33.2 7.7-49.9 2.9-1.9-.5-2.7 2.4-.8 3zM713.9 411.4c10.7-.3 20.1-5.1 29.6-9.4 5.8-2.6 11.8-5.1 18.2-5.6 7.1-.6 13.3 1.9 19.4 5.3 11.2 6.2 21.6 11.9 34.5 13.9 12.2 2 24.6 1.1 36.5-2.5 1.8-.6 1.1-3.5-.8-2.9-13.2 4-27.2 4.5-40.7 1.3-6.4-1.5-12.6-3.9-18.4-7-5.5-3-10.7-6.6-16.5-8.9-22.3-8.9-40.2 12.1-61.8 12.7-1.9.2-1.9 3.2 0 3.1zM1020.8 318.2c28.8 13.4 61.1 12.8 91.7 6.9 34.6-6.7 67.2-22 103-21.4 20.2.4 40.2 4.8 58.8 12.8 1.8.8 3.3-1.8 1.5-2.6-30-13-63.4-16.5-95.4-9.8-17.5 3.7-34.4 9.8-51.7 14.3-16.4 4.2-33.2 7.2-50.1 7.8-19.3.6-38.6-2.3-56.2-10.5-1.8-.9-3.3 1.7-1.6 2.5z"/></g><g id="leg_r"><path class="st5" d="M675.8 867.9c3.1 16.3 6.1 32.7 9.2 49-51.6 18.7-76.7 31.6-75.1 38.8 1.9 8.7 42.4 9 121.6 1-3.4-34-6.8-68-10.2-102.1-15.2 4.5-30.4 8.9-45.5 13.3z"/><path class="st6" d="M917.3 663.6c-21.6 8.9-30.7 6.7-58 14.2-50.3 13.8-86.7 39.6-109.4 59.1l3.3 111.6c-2.3 2.7-27.5 31.3-65.7 27.4-26.3-2.7-42.7-19.3-47.1-24.1-.7-34.3-.1-70.9 2.2-109.4 1.4-22.3 3.2-43.9 5.5-64.6 3.4-4.8 8.6-11.7 15.3-19.7 52.6-62.6 115.6-90.4 149.9-105 34.2-14.6 55.6-23.7 87.5-26.3 8.5-.7 93.5-6.7 107.2 27.4 12.7 31.1-37.4 87.5-90.7 109.4z"/><path d="M1002.5 543.7c-19-13.1-60.9 42.7-144.3 95.3-80.2 50.5-122.2 49.7-146.4 98.8-7.4 14.9-15.1 38.5-19.8 62.5-5.8 30.2-5.8 56-4.5 74.3 6.5-.3 14.2-1.2 22.5-3.4 20.1-5.3 34.4-15.4 42.8-22.5-1.1-37.9-2.3-75.8-3.4-113.6 14-11.4 36.3-27.7 66.4-41.6 56.3-26.1 77.4-14.9 123.8-41.6 10.7-6.1 71.2-41 69.8-86.6-.4-7.3-.5-17.2-6.9-21.6z" opacity=".16" fill="#3d3d3d"/><path d="M1010.3 561.7c-4.2-3.4-20.5 19.4-59.6 47.3-48.6 34.6-72 34.2-125.5 66.4-19.3 11.6-47.2 30.2-78.1 58.5 6-2.6 15.7-7 27-13.5 23-13.4 28.6-21.6 46.1-30.4 6.3-3.1 18.1-6.3 41.6-12.4 41.1-10.7 47-10.2 61.9-16.9 19.7-8.8 32.6-19.9 39.4-25.9 32.6-28.6 52.5-68.9 47.2-73.1z" opacity=".25" fill="#3d3d3d"/><path class="st9" d="M748.2 735c-12.8 46.1-25.5 92.3-38.3 138.4 5.7-1.5 12.7-3.9 20.3-7.9 10.9-5.8 18.6-12.7 23.6-18-1.9-37.5-3.7-75-5.6-112.5z"/></g><g id="leg_l"><path class="st5" d="M1001.1 1024.1c3.1 16.3 6.1 32.7 9.2 49-46.7 23.5-68.9 38.1-66.9 43.8 2.5 6.9 40.2.9 113-17.9-3.3-29.4-6.5-58.8-9.8-88.2-15.2 4.5-30.3 8.9-45.5 13.3z"/><path class="st6" d="M1041.1 515.9c3.5 27 8 67.7 10.2 117.4 3.3 76.7-1.5 119.4-2.3 176.1-.7 49.7 1.6 121 15.8 208.9-7.7 5.1-25.1 15.2-49.7 16.9-23.4 1.6-41.3-5.2-49.7-9-2.2-42.6-6.1-87.9-12.4-135.5-11.6-87.7-29.1-166.7-48.5-235.9-12-16.6-24.1-33.1-36.1-49.7 43.7-30.9 87.3-61.7 131-92.6 13.8 1.2 27.7 2.3 41.7 3.4z"/><path d="M884.9 613.7c-3.1-4.3-6.1-8.7-9.2-13-.9 3.4-1.8 6.8-2.7 10.3 14.8-9.2 29.3-18.9 43.2-29.5 11.6-8.8 22.4-18.5 34.1-27.1 7.4-5.5 15-10.7 22.6-15.9 7.3-4.9 14.7-11.1 22.7-15 4.3-2.1 9.4-1.8 14-1.8 8.8 0 17.5.3 26.2.8 9.6.5 9.6-14.5 0-15-8.7-.4-17.5-.8-26.2-.8-5.6 0-11.4 0-16.7 1.7-8.3 2.7-15.8 9.2-22.9 14.1-8.2 5.5-16.3 11-24.3 16.8-12.4 9-23.8 19.1-35.9 28.4-14.2 10.9-29.1 20.9-44.3 30.3-3.2 2-5.1 6.9-2.7 10.3 3.1 4.3 6.1 8.7 9.2 13 5.5 7.8 18.5.3 12.9-7.6z" fill="#fff"/><path d="M941.7 527.9c15.2 44.9 29.3 94.9 40.5 149.6 27.9 136.9 28.4 258.7 20.3 354.4 4.8 1.7 10.9 3.2 18 3.4 22.5.6 38.7-12.4 43.9-16.9-4.4-22.1-10.1-55.2-13.5-95.6-7.4-87.5 1.9-137.1 3.4-211.5.9-45.2-.8-109.4-13.5-187.9-33.1 1.5-66.1 3-99.1 4.5z" opacity=".14" fill="#3d3d3d"/><path class="st9" d="M1044.1 569.6c-2.8 98.5-7.6 199.8-14.6 303.8-3.6 53.7-7.8 106.6-12.4 158.6 4.6.8 12.8 1.6 22.5-1.1 12.6-3.6 20.4-11.1 23.6-14.6-11.2-65-14-117.7-14.6-153-1.1-66.8 5.2-100.9 3.4-178.9-1.2-49.6-5-89.8-7.9-114.8z"/></g><g id="hand_r"><path class="st6" d="M635.1 163.3c1.3-3-11.5-9.2-10.2-12.7 1.3-3.6 17.2-4.5 27.9 3.4 11.2 8.2 10.5 20.2 16.9 35.6 7.3 17.3 18.8 26.7 36.3 41.1 10.5 8.7 51.5 41.3 110.6 39.5 26.8-.8 49.2-8.5 65.8-16.6-2.3 28.7-4.7 57.5-7 86.2-13.6 3.1-32.3 5.8-54.2 3.9-79.6-6.9-130.7-68.3-146.5-87.2-9.6-11.5-22.7-29.2-34.7-53.3-9.4 2.8-24 6-41.5 4.2-12.4-1.2-27.2-5-27.1-8.5.1-4.6 25.6-7.7 25.4-9.3-.2-1.4-20.3 4.1-25.4-3.4-4-5.9 1.6-19.2 11-24.6 2.9-1.6 6.2-2.6 14.4-2.5 22.2 0 37.1 6.9 38.3 4.2z"/><path class="st0" d="M571.1 180.5c5.1-1.2 11 1.3 16.2 1.5 4.6.2 9.2-.2 13.7-1.1 1.9-.4 1.1-3.3-.8-2.9-5.7 1.1-11.4 1.4-17.2.6-4.4-.6-8.3-2-12.7-1-1.9.4-1.1 3.3.8 2.9zM575.3 170.6c6-1.2 11.3 1.3 17.1 1.6 5.1.3 10.2-.7 15.2-2 1.9-.5 1.1-3.4-.8-2.9-6.5 1.7-12.8 2.5-19.5 1.1-4.5-.9-8.3-1.7-12.9-.8-1.8.5-1 3.4.9 3zM630.6 173.6c5.1 5.4 12 8.2 19.4 8 1.9-.1 1.9-3.1 0-3-6.7.3-12.7-2.2-17.2-7.1-1.4-1.4-3.5.7-2.2 2.1z"/><path class="st12" d="M571.4 185.4c.3-2.7 22.1-3.4 42.1-.5 10.8 1.5 21.3 3 31.2 7.7 21.6 10.1 28.7 29.4 39.9 47.1 0 0 25.1 39.3 70 61.3 44.6 21.8 95.5 7.2 124.2-4.4l-3.3 43.2c-26.5 5.4-47.7 4.1-61.3 2.2-75.7-10.7-123.2-68.9-142.1-92-15.3-18.7-25.5-35.9-31.7-47.6-9.9 3.6-24.6 7.3-42.1 5.5-12.1-1.3-26.4-5.3-26.3-8.8.2-4.5 24.3-7.2 24.1-8.2-.1-.5-6.9 1-15.3-1.1-3.3-.8-9.5-2.9-9.4-4.4z"/><path class="st13" d="M798.5 324.9c35.7.5 63.3-13.5 77.7-22.4-.5 12.8-1.1 25.5-1.6 38.3-19.8 3.3-54.5 6.1-94.1-6.6-71.7-22.9-106.9-79.9-116-95.8 2.9 5.2 50 85.4 134 86.5z"/><path class="st14" d="M605.4 201.8c21.4.1 35.8-3.1 36.1-1.6.2 1.2-8.7 4.8-18.1 6.6-27.3 5.2-52.3-6.1-52-7.7.3-1.1 11.5 2.6 34 2.7z"/></g><g id="coin"><circle class="st15" cx="628.8" cy="91.6" r="28.2"/><ellipse class="st1" cx="623.1" cy="89.5" rx="32" ry="32.1"/><path class="st0" d="M627.5 71.9c-6.3-.4-22.5 5.7-16.5 14.8 3.5 5.3 10.3 1.8 15.2 3.1 6.3 1.7 5.6 9.3 1.7 13-4.1 3.8-9.9 3.2-13.8-.3-1.4-1.3-3.6.8-2.1 2.1 7.9 7.2 22 3.1 22-8.6 0-5.3-3.6-8.7-8.6-9.3-3.7-.5-14.1 2.3-11.7-5.3 1.6-5.2 9.3-6.8 13.9-6.5 1.9.1 1.9-2.9-.1-3z"/><path class="st0" d="M624.1 73.3c.3-3.3.6-6.5.9-9.8.2-1.9-2.8-1.9-3 0-.3 3.3-.6 6.5-.9 9.8-.2 1.9 2.8 1.9 3 0zM622.1 109.1c.3 2.3.6 4.7.8 7 .2 1.9 3.2 1.9 3 0-.3-2.3-.6-4.7-.8-7-.2-1.9-3.2-1.9-3 0z"/></g><g id="torso"><path class="st15" d="M912.6 246.5c-3.3.2-14.4.7-28.6 4.2-8.1 2-14.5 4.3-18.2 5.8-6.7 13.6-15.3 34.6-18.5 61.2-4.6 37.9 4.6 62.3 10.9 100 4.3 25.9 7.8 63.4 3 110.8 10.2 9.3 36.8 31 77.2 36.6 57.2 8 99.2-22.2 107.9-28.7 5.3-32.8 10.3-66.5 14.8-101 7.7-58.4 13.5-114.9 17.8-169.2-27.7-26.1-51.7-33.1-68.6-34.5-32.5-2.8-61.9 12.8-97.7 14.8z"/><path d="M957.5 271.7c6.2 6.4 14.7 16.1 22.3 29.3 36.5 63.4 13.9 137.4 3.8 170.2-7 23-20.3 56.7-46.5 93.1 10 1.7 22.6 2.7 37 1.3 34.2-3.4 59-18.9 71.4-28.1 9.4-53.4 17.4-110.2 23.6-170.2 3.6-35.2 6.3-69.5 8.3-102.6-3.9-3.8-9.9-8.9-17.9-14-12.9-8.3-33.2-21.2-56.1-17.2-29.2 5-44 34.2-45.9 38.2z" opacity=".17" fill="#3d3d3d"/><path d="M1072.9 287.6c-5.1 14.3-13 37.1-21 65.7-23.8 83.9-22.1 119.9-51 163.2-8.8 13.2-23.6 31.9-48.5 50.4 12.3-.1 30.1-1.6 50.4-8.3 18.4-6.1 32.5-14.3 42.1-21 7.8-41.8 14.7-86.9 19.8-135.2 4.1-40.2 6.8-78.6 8.2-114.8z" opacity=".11" fill="#3d3d3d"/></g><g id="hand_l"><path class="st6" d="M1026.5 480.1c-2.1-3.9.1-9.7 3.4-12.8 6.1-5.8 17.2-3.6 22.2 2.7.7.9 4.1 5.1 2.7 8.7-3 7.3-24 9.2-28.3 1.4z"/><path class="st6" d="M1054.7 249.2c14.9 10.3 33.3 25.3 51 46.3 19.3 22.8 31.9 45.8 40.3 65.1 7.1 16.5 11.4 31.2 14.1 42.3-8.9 20.5-25.6 50.7-56.4 77.2-11.1 9.6-22.1 17-32.2 22.8-5.3 5.9-12.7 13.4-22.5 21.1-6.4 5.1-15.1 11.9-17.1 10.2-1.6-1.4 1.2-8.3 5.5-13.1 5.1-5.6 11.4-7.3 11.3-7.6-.1-.3-5.7.7-10.9 4.7-6 4.7-5.7 9.1-8.7 9.8-6.3 1.5-20.8-13.7-18.6-29.1 1.8-12.9 14.5-19.8 18.8-22.2 11.8-6.5 23.3-5.3 27.5-4.7 15-23.3 30-46.5 45-69.8-4.1-3.3-9.5-8-15.4-14.1-6.9-7.1-26.3-27.3-35.6-55-12.5-37.2-1-71.5 3.9-83.9z"/><path class="st0" d="M1012.9 511.6c3.7-8.2 10-14.6 18.2-18.2 1.8-.8.2-3.4-1.5-2.6-8.6 3.8-15.5 10.7-19.3 19.3-.8 1.7 1.8 3.2 2.6 1.5zM1023.9 525.5c-3.1-9.4 6-19.1 13.5-23.4 1.7-1 .2-3.6-1.5-2.6-8.7 5-18.5 16-14.9 26.8.6 1.8 3.5 1 2.9-.8z"/><path class="st12" d="M1050.1 265.7c12 12.4 28.9 30.9 47 55.2 25.4 33.9 38 50.9 38.9 68.8 1.6 33.2-23.3 74.7-56.1 90.5-9.5 4.6-34.2 13.9-48.4 32.1-4.1 5.2-8.3 12.4-6.8 14 1.3 1.3 6.1-2.1 7.7-.5 1.9 1.9-2.7 7.7-1.4 9 1.6 1.6 10.5-4.1 19.5-11.3 5.8-4.7 12.9-11.1 20.4-19.5 9.5-5.4 19.6-12.2 29.9-20.8 32.7-27.3 50.3-59.2 59.7-81-2.3-8.8-5.8-20.7-11.3-34.4-16.6-41.3-38.8-68-46.1-76.4-10.5-12.2-26.3-28.1-48.4-43.4-1.6 5.9-3.1 11.8-4.6 17.7z"/><path d="M1146 416.8c-9.6 12.4-14.5 20.3-18.5 26.2-7.6 11-18.9 21.5-41.6 42.5-8.1 7.5-19.1 17.5-32.6 29-14.2 12.3-21.1 18.6-20.8 19 .4.5 14.1-9.9 41.2-31.2 5.1-3 12.3-7.4 20.4-13.6 46.6-35.7 67.5-87 65.6-88.2-.8-.4-5.1 5.1-13.7 16.3z" opacity=".21" fill="#3d3d3d"/></g><g id="head"><path class="st6" d="M891.7 82.5c-29.4 24.1-28.2 73-16.7 104.6 7.3 20 19 33.7 26.7 41.3l-4.8 34.8c8.5 3.9 20.7 8 35.6 8.7 39 1.9 66.9-20.9 74.5-27.5-6.9-23.1-13.8-46.2-20.7-69.4-.9-6.5-2.4-16.5-4-28.7-4.3-31.8-4.1-33.5-6-38.7-.8-2.1-12.8-32.6-40.7-38-22.5-4.2-41.1 10.6-43.9 12.9z"/><path class="st5" d="M867.5 163.9c-1.7 6.7-3.5 17.2-2.3 29.8.8 8.4 2.2 23 12.7 37.1 11.3 15.2 26.5 21 33 23.1-.5-1.7-1.1-3.8-1.4-6.3-.3-2.6-.2-5 0-6.8 6.9 3.8 13.9 7.5 20.8 11.3 17.5-16.1 23.3-30.9 25.3-41.6 1.6-8.4 2.6-23.8 6.3-52 .7-5 2-14 7.7-16.3 2.7-1.1 6.3-.6 8.6 1.4 6.9 5.8-.1 22.6 1.4 23.1s13.6-16.4 9.5-35.7c-2.1-10-7.9-16.9-11.3-20.3-7.6 12-16 24.4-25.3 37.1-5.9 8.1-11.8 15.7-17.6 23.1-2.2 1.2-5.5 2.5-9.3 2.2-3-.3-4-1.3-6.2-1.9-8.2-2.3-12.6 7.4-20.7 6.1-6.6-1.1-7.2-8.2-14.5-8.4-3.5-.1-4.9 1.5-8.5.8-3.8-1.1-6.5-3.7-8.2-5.8z"/><path class="st0" d="M901.5 135.5c-2.5 11.6-4.1 23.3-4.8 35.1-.1 1.2 1.3 1.8 2.3 1.3 4.1-2.1 8.3-4.3 12.4-6.4 1.7-.9.2-3.5-1.5-2.6-4.1 2.1-8.3 4.3-12.4 6.4.8.4 1.5.9 2.3 1.3.7-11.6 2.2-23 4.7-34.3.3-1.9-2.6-2.7-3-.8z"/><ellipse class="st5" cx="885.5" cy="141.7" rx="2.3" ry="5.8"/><ellipse class="st5" cx="924.3" cy="141.7" rx="3.1" ry="5.8"/><path class="st0" d="M879.9 130.4c1.9-3.5 6.1-2.7 9.2-1.6 1.8.6 2.6-2.3.8-2.9-4.4-1.6-10-1.7-12.6 3-.9 1.6 1.7 3.2 2.6 1.5zM917.7 126.3c4.7-4.5 11.9-4.1 15.9 1.3 1.1 1.5 3.7 0 2.6-1.5-5.1-6.9-14.3-7.8-20.6-1.9-1.4 1.3.7 3.4 2.1 2.1z"/><path class="st0" d="M844.3 112c42.1 2.5 84.1 6 125.9 10.6 5.7.6 5.7-8.4 0-9-41.9-4.6-83.9-8.1-125.9-10.6-5.8-.3-5.8 8.7 0 9z"/><path d="M871.5 105.8c.7-6.5 3.3-23.2 16.1-36.8 16.7-17.7 47.6-25.1 71.6-10.1 18.8 11.8 28.9 34.6 25.5 57.8-37.7-3.6-75.4-7.2-113.2-10.9z" fill="#5222d0"/><path d="M924.7 54.3c-4.9 4.1-4.9 12.8-3.2 22 1.9 10.1 6.8 22.4 14.1 35.1 16.4 1.9 32.8 3.9 49.2 5.8.7-3.6 1.4-8.8.8-15 0 0-1.1-11.4-7.1-21.7-12-20.6-43.4-35-53.8-26.2z" opacity=".69" fill="#3a1da3"/><path class="st13" d="M976.1 171.7c-3.7 2-7.4 1.5-8.7 1.2 3.2 6.1 13.1 26.7 8.3 53.3-4.6 25.3-19.6 40.6-24.8 45.5 6.5-1.3 13.9-3.4 21.9-6.6 15.2-6.2 26.6-14.4 34.3-21.1l-24-84.3c0 .5-.4 8.5-7 12z"/><path class="st14" d="M939.1 119.3c1.2 5.1 2.2 12.8 1 21.8-2.1 15.2-9.4 25.7-13.2 30.6 2.3-.7 4.6-1.5 6.9-2.2 4.6-5.6 9.3-11.6 13.9-17.7 7.6-10.1 14.6-20.1 21-29.7-9.9-.9-19.7-1.9-29.6-2.8z"/></g></svg>