<svg width="588" height="319" fill="none" xmlns="http://www.w3.org/2000/svg"><path d="M4 213.459c50.796 10.416 26.977 80.323 64.207 98.926 44.435 22.205 59.736-102.815 53.954-155.88-1.657-23.267-28.758-33.616-32.414 0-3.884 35.708 40.439 174.173 91.235 120.743l33.916-39.228c9.424-11.608 28.002-27.735 43.702 0 15.699 27.734 40.715 18.569 51.261 10.519L343 224.443" stroke="#53C2AD" stroke-width="7" stroke-linecap="round"/><path d="M359 106.5l-68-31L588 0 359 106.5z" fill="#2FB59E"/><path d="M588 0L369 207l38.35-78.69L588 0z" fill="#015B4A"/><path d="M487.723 197L407.5 128.5 588 0 487.723 197z" fill="#2FB59E"/><path d="M369 207l-10-100.5L588 0 407.5 128.5 369 207z" fill="#077C76"/></svg>