<svg xmlns="http://www.w3.org/2000/svg" viewBox="0 0 1600 1200"><style>.st0{fill:#e8e8e8}.st1{fill:#161616}.st2{fill:#fff}.st3{fill:#333}.st4,.st5{opacity:9.000000e-002;fill:#6d6c6c}.st5{opacity:.13}.st9{fill:#191919}.st10,.st15{opacity:.16;fill:#6d6c6c}.st15{opacity:.15}</style><g id="background"><path class="st0" d="M1387.2 953.6c-14.9-22.8-24.6-48.6-28.3-75.6-.5.6-1 1.3-1.4 1.9 3.4-.3 6.3.4 9 2.5 1.5 1.2 3.6-.9 2.1-2.1-3.4-2.6-6.9-3.8-11.1-3.4-1.1.1-1.6.9-1.4 1.9 3.8 27.3 13.5 53.3 28.6 76.3 1 1.6 3.6.1 2.5-1.5z"/><path class="st0" d="M1368.5 880.8c-3.4-35.1 2-70.5 15.8-103h-2.6c1.5 2.2 2.6 4.3 3.5 6.8.6 1.8 3.5 1 2.9-.8-1-2.7-2.1-5.1-3.8-7.5-.6-.8-2.1-1.1-2.6 0-14 33-19.6 68.9-16.2 104.5.2 1.9 3.2 2 3 0z"/><path class="st0" d="M1389 783.3c3.5-8.5 7.4-16.9 11.8-24.9 3.7-6.7 9-20.2 18.6-18.3 9.7 1.9 12.9 14.8 15 22.9 2.3 9 3.3 18.3 3.6 27.5.6 17.4-.8 34.9-2 52.2-1.3 18.4-3.4 36.8-7.7 54.8-4.7 20-11.7 39.3-20.6 57.7-.8 1.7 1.7 3.3 2.6 1.5 8.8-18.1 15.8-37.1 20.5-56.7 4.9-20.1 7.1-40.6 8.4-61.2 1.3-20.5 3.3-41.5.8-62-1.5-12.3-5.1-39.3-21.9-40.1-8.8-.4-13.4 8.8-17.1 15.2-5.7 9.8-10.6 20-14.9 30.5-.7 1.9 2.2 2.7 2.9.9z"/><path class="st0" d="M1438.3 854.9c3.4-6.8 7.4-13.2 12.2-19 2.3-2.8 13.1-17.2 17.4-13.9.9.7 1.2 4.1 1.4 5.3.6 2.5 1 5.1 1.2 7.7.4 4 .5 7.9.3 11.9-.4 8.5-1.9 17-4 25.3-7.6 30.3-21.2 58.9-38.9 84.5-1.1 1.6 1.5 3.1 2.6 1.5 20.5-29.5 37.2-64.9 42.3-100.8 1.2-8.5 1.6-17.1.4-25.6-.5-3.7-1.2-15.7-7.3-14.5-2.8.6-5.4 3.8-7.4 5.6-3.2 3-6.3 6.2-9.1 9.5-5.4 6.4-10 13.4-13.7 20.9-.9 1.8 1.7 3.3 2.6 1.6zM652.1 957.4c-13.2-15.1-24.1-32.1-32.3-50.4-.2.7-.4 1.4-.5 2.1 4-1.8 8-2.5 12.4-2.2 1.9.1 1.9-2.9 0-3-4.9-.3-9.4.6-13.9 2.6-.8.4-.8 1.4-.5 2.1 8.4 18.6 19.4 35.7 32.8 51 1.1 1.4 3.3-.7 2-2.2z"/><path class="st0" d="M631.9 902.7c-7.9-13.8-12.9-29.1-14.3-44.9-.9-10-2.7-45.8 16-36 6.6 3.5 10.4 11 13.8 17.3 4 7.3 7.5 14.9 10.6 22.6 5.6 14.1 9.7 28.8 12.2 43.7 3 17.7 3.7 35.7 2.3 53.7-.2 1.9 2.9 1.9 3 0 2.8-36.1-3.3-72.6-17.9-105.8-3.6-8.2-7.6-16.6-12.6-24.1-3.6-5.4-8.5-10.7-15.2-11.9-16-2.9-15.8 21.2-15.8 31.2.1 19.6 5.4 38.8 15.2 55.8 1.1 1.5 3.7 0 2.7-1.6z"/><path class="st0" d="M666.9 877.5c-.6-7.5 1.6-41.7 15.8-34.5 11.3 5.7 13.7 23.4 14.3 34.6.7 12.7.2 25.5-.1 38.2-.4 13.3-1.4 26.5-6 39.1-.7 1.8 2.2 2.6 2.9.8 5.7-15.4 6-31.8 6.3-48 .3-15.3 1.6-31.6-2.5-46.6-2.3-8.3-10.5-26.6-22.3-21.1-5 2.4-7.2 9.2-8.8 14.1-2.4 7.7-3.2 15.6-2.6 23.6.1 1.8 3.1 1.8 3-.2zM624.3 819.8c12.9 28.8 23.5 58.5 31.6 89 .5 1.9 3.4 1.1 2.9-.8-8.2-30.7-18.8-60.7-31.9-89.7-.8-1.8-3.4-.3-2.6 1.5z"/><path class="st0" d="M616 859.3c15.3 5.4 27.7 16.5 34.8 31.1.9 1.7 3.4.2 2.6-1.5-7.5-15.3-20.6-26.8-36.6-32.5-1.8-.6-2.6 2.3-.8 2.9zM645.9 833.3c-2.7 8.9-4.1 18-4.4 27.2-.1 1.9 2.9 1.9 3 0 .3-9 1.7-17.8 4.3-26.4.5-1.9-2.4-2.7-2.9-.8zM666.1 859.3c9.4 11 16.1 23.6 20.1 37.5.5 1.9 3.4 1.1 2.9-.8-4.1-14.4-11.1-27.5-20.8-38.8-1.3-1.5-3.4.6-2.2 2.1z"/><path class="st0" d="M681 858.5c6.5 32.3 5.4 64.2 2 96.8-.2 1.9 2.8 1.9 3 0 3.5-32.8 4.5-65-2.1-97.6-.4-1.9-3.3-1.1-2.9.8zM486.2 598.5v21.4c0 1.9 3 1.9 3 0v-21.4c0-1.9-3-1.9-3 0z"/><path class="st0" d="M487.7 621.9h104.9c1.9 0 1.9-3 0-3H487.7c-1.9 0-1.9 3 0 3zM487.7 599.7h105.6c1.9 0 1.9-3 0-3H487.7c-1.9 0-1.9 3 0 3z"/><path class="st0" d="M591.8 598v21.9c0 1.9 3 1.9 3 0V598c0-2-3-2-3 0zM525.7 621.5v18.3c0 1.9 3 1.9 3 0v-18.3c0-1.9-3-1.9-3 0z"/><path class="st0" d="M527.4 642.4h83.7c1.9 0 1.9-3 0-3h-83.7c-2 0-2 3 0 3zM593.5 622.1h18.7c1.9 0 1.9-3 0-3h-18.7c-2 0-2 3 0 3z"/><path class="st0" d="M610.8 621.7v18.7c0 1.9 3 1.9 3 0v-18.7c0-1.9-3-1.9-3 0zM601.2 641.3v20.3c0 1.9 3 1.9 3 0v-20.3c0-2-3-2-3 0z"/><path class="st0" d="M603.1 663.2h69c1.9 0 1.9-3 0-3h-69c-2 0-2 3 0 3zM612.5 642.6h60c1.9 0 1.9-3 0-3h-60c-1.9 0-1.9 3 0 3z"/><path class="st0" d="M670.8 640.9v19.4c0 1.9 3 1.9 3 0v-19.4c0-1.9-3-1.9-3 0zM602.6 660.1h-57.3c-1.9 0-1.9 3 0 3h57.3c1.9 0 1.9-3 0-3z"/><path class="st0" d="M546.5 661.4v-19.3c0-1.9-3-1.9-3 0v19.3c0 1.9 3 1.9 3 0zM423.2 169.7v216.8c0 1.9 3 1.9 3 0V169.7c0-1.9-3-1.9-3 0z"/><path class="st0" d="M424.5 388.7h271c1.9 0 1.9-3 0-3h-271c-1.9 0-1.9 3 0 3zM425.2 169.7H693c1.9 0 1.9-3 0-3H425.2c-1.9 0-1.9 3 0 3z"/><path class="st0" d="M694.6 169.1v217c0 1.9 3 1.9 3 0v-217c0-1.9-3-1.9-3 0zM438 180.7v195.8c0 1.9 3 1.9 3 0V180.7c0-2-3-2-3 0z"/><path class="st0" d="M439.3 378.6h240.5c1.9 0 1.9-3 0-3H439.3c-1.9 0-2 3 0 3zM439.9 180.8h237.7c1.9 0 1.9-3 0-3H439.9c-1.9 0-1.9 3 0 3z"/><path class="st0" d="M678.8 180.1v196c0 1.9 3 1.9 3 0v-196c0-1.9-3-1.9-3 0zM555.7 181v95.6c0 1.9 3 1.9 3 0V181c0-2-3-2-3 0z"/><path class="st0" d="M557.2 275H442.8c-1.9 0-1.9 3 0 3h114.4c1.9 0 1.9-3 0-3zM570.6 181v94.7c0 1.9 3 1.9 3 0V181c0-2-3-2-3 0z"/><path class="st0" d="M572.1 278.9h105.6c1.9 0 1.9-3 0-3H572.1c-2 0-2 3 0 3zM441.9 292.9h114.8c1.9 0 1.9-3 0-3H441.9c-1.9 0-2 3 0 3z"/><path class="st0" d="M555.2 291.8V376c0 1.9 3 1.9 3 0v-84.2c0-1.9-3-1.9-3 0zM570.1 294v82c0 1.9 3 1.9 3 0v-82c0-1.9-3-1.9-3 0z"/><path class="st0" d="M571.2 296h108.3c1.9 0 1.9-3 0-3H571.2c-1.9 0-2 3 0 3zM646 181.7c-22.5 25.4-43.6 52-63.4 79.6-1.1 1.6 1.5 3.1 2.6 1.5 19.6-27.4 40.6-53.8 62.9-79 1.3-1.4-.8-3.6-2.1-2.1zM645.8 218.7c-10.4 12.6-20.8 25.2-31.2 37.7-1.2 1.5.9 3.6 2.1 2.1 10.4-12.6 20.8-25.2 31.2-37.7 1.2-1.5-.9-3.6-2.1-2.1zM453.4 374.9c26.2-26.2 52.4-52.5 78.6-78.7 1.4-1.4-.8-3.5-2.1-2.1-26.2 26.2-52.4 52.5-78.6 78.7-1.3 1.3.8 3.4 2.1 2.1zM498.7 365.7c8.9-11.4 18.3-22.2 28.4-32.5 1.4-1.4-.8-3.5-2.1-2.1-10.1 10.3-19.6 21.1-28.4 32.5-1.2 1.5.9 3.7 2.1 2.1zM1181.4 166.4v216.8c0 1.9 3 1.9 3 0V166.4c0-1.9-3-1.9-3 0z"/><path class="st0" d="M1182.7 385.4h271c1.9 0 1.9-3 0-3h-271c-1.9 0-1.9 3 0 3zM1183.4 166.5h267.8c1.9 0 1.9-3 0-3h-267.8c-1.9 0-1.9 3 0 3z"/><path class="st0" d="M1452.8 165.8v217c0 1.9 3 1.9 3 0v-217c0-1.9-3-1.9-3 0zM1196.2 177.4v195.8c0 1.9 3 1.9 3 0V177.4c0-2-3-2-3 0z"/><path class="st0" d="M1197.5 375.3H1438c1.9 0 1.9-3 0-3h-240.5c-2 0-2 3 0 3zM1198.1 177.5h237.7c1.9 0 1.9-3 0-3h-237.7c-1.9 0-1.9 3 0 3z"/><path class="st0" d="M1437 176.8v196c0 1.9 3 1.9 3 0v-196c0-1.9-3-1.9-3 0zM1313.9 177.7v95.6c0 1.9 3 1.9 3 0v-95.6c0-2-3-2-3 0z"/><path class="st0" d="M1315.4 271.7H1201c-1.9 0-1.9 3 0 3h114.4c1.9 0 1.9-3 0-3zM1328.8 177.7v94.7c0 1.9 3 1.9 3 0v-94.7c0-2-3-2-3 0z"/><path class="st0" d="M1330.3 275.6h105.6c1.9 0 1.9-3 0-3h-105.6c-2 0-2 3 0 3zM1200.1 289.6h114.8c1.9 0 1.9-3 0-3h-114.8c-2 0-2 3 0 3z"/><path class="st0" d="M1313.4 288.6v84.2c0 1.9 3 1.9 3 0v-84.2c0-2-3-2-3 0zM1328.3 290.8v82c0 1.9 3 1.9 3 0v-82c0-2-3-2-3 0z"/><path class="st0" d="M1329.4 292.7h108.3c1.9 0 1.9-3 0-3h-108.3c-2 0-2 3 0 3zM1404.2 178.4c-22.5 25.4-43.6 52-63.4 79.6-1.1 1.6 1.5 3.1 2.6 1.5 19.6-27.4 40.6-53.8 62.9-79 1.3-1.4-.8-3.5-2.1-2.1zM1404 215.4c-10.4 12.6-20.8 25.2-31.2 37.7-1.2 1.5.9 3.6 2.1 2.1 10.4-12.6 20.8-25.2 31.2-37.7 1.2-1.5-.9-3.6-2.1-2.1zM1211.6 371.6c26.2-26.2 52.4-52.5 78.6-78.7 1.4-1.4-.8-3.5-2.1-2.1-26.2 26.2-52.4 52.5-78.6 78.7-1.3 1.3.8 3.4 2.1 2.1zM1256.9 362.5c8.9-11.4 18.3-22.2 28.4-32.5 1.4-1.4-.8-3.5-2.1-2.1-10.1 10.3-19.6 21.1-28.4 32.5-1.2 1.4.9 3.6 2.1 2.1zM1176 490.2h106c1.9 0 1.9-3 0-3h-106c-1.9 0-1.9 3 0 3z"/><path class="st0" d="M1227.8 490v20c0 1.9 3 1.9 3 0v-20c0-1.9-3-1.9-3 0z"/><path class="st0" d="M1229.3 511.5h83.3c1.9 0 1.9-3 0-3h-83.3c-1.9 0-1.9 3 0 3z"/><path class="st0" d="M1281.8 489.3v19.3c0 1.9 3 1.9 3 0v-19.3c0-1.9-3-1.9-3 0zM1177.5 488v-16c0-1.9-3-1.9-3 0v16c0 1.9 3 1.9 3 0z"/><path class="st0" d="M1177.3 472.8h77.3c1.9 0 1.9-3 0-3h-77.3c-1.9 0-1.9 3 0 3z"/><path class="st0" d="M1253.8 473.3v15.3c0 1.9 3 1.9 3 0v-15.3c0-1.9-3-1.9-3 0zM1160 512.2h74c1.9 0 1.9-3 0-3h-74c-1.9 0-1.9 3 0 3z"/><path class="st0" d="M1157.8 512v16.7c0 1.9 3 1.9 3 0V512c0-1.9-3-1.9-3 0z"/><path class="st0" d="M1159.3 531.5h70.7c1.9 0 1.9-3 0-3h-70.7c-1.9 0-1.9 3 0 3z"/><path class="st0" d="M1228.5 512v17.3c0 1.9 3 1.9 3 0V512c0-1.9-3-1.9-3 0zM664.8 446.1h130.7c1.9 0 1.9-3 0-3H664.8c-1.9 0-1.9 3 0 3z"/><path class="st0" d="M665.7 444.6v-16.8c0-1.9-3-1.9-3 0v16.8c0 1.9 3 1.9 3 0z"/><path class="st0" d="M665.9 427.5h70c1.9 0 1.9-3 0-3h-70c-1.9 0-1.9 3 0 3z"/><path class="st0" d="M734.4 427.8V444c0 1.9 3 1.9 3 0v-16.2c0-2-3-2-3 0zM715.3 446.9v16.8c0 1.9 3 1.9 3 0v-16.8c0-2-3-2-3 0z"/><path class="st0" d="M717.4 466.3h76.3c1.9 0 1.9-3 0-3h-76.3c-1.9 0-1.9 3 0 3z"/><path class="st0" d="M794 446.3v19.1c0 1.9 3 1.9 3 0v-19.1c0-1.9-3-1.9-3 0zM733.8 465.9v15.6c0 1.9 3 1.9 3 0v-15.6c0-1.9-3-1.9-3 0z"/><path class="st0" d="M734.2 481.2h-66.5c-1.9 0-1.9 3 0 3h66.5c1.9 0 1.9-3 0-3zM720.3 463.9h-52.1c-1.9 0-1.9 3 0 3h52.1c1.9 0 1.9-3 0-3z"/><path class="st0" d="M666.8 465.4v16.8c0 1.9 3 1.9 3 0v-16.8c0-2-3-2-3 0zM1358.4 691.3h82.5c1.9 0 1.9-3 0-3h-82.5c-1.9 0-1.9 3 0 3z"/><path class="st0" d="M1407.5 689v-18.6c0-1.9-3-1.9-3 0V689c0 1.9 3 1.9 3 0z"/><path class="st0" d="M1406.8 671.5h70.6c1.9 0 1.9-3 0-3h-70.6c-2 0-2 3 0 3z"/><path class="st0" d="M1475.8 670.8v15.9c0 1.9 3 1.9 3 0v-15.9c0-2-3-2-3 0z"/><path class="st0" d="M1438.9 690.9h37.3c1.9 0 1.9-3 0-3h-37.3c-2 0-2 3 0 3zM1355.3 691.4v14.3c0 1.9 3 1.9 3 0v-14.3c0-1.9-3-2-3 0z"/><path class="st0" d="M1357.2 708.7h78.1c1.9 0 1.9-3 0-3h-78.1c-1.9 0-1.9 3 0 3z"/><path class="st0" d="M1434.6 690.2v16.3c0 1.9 3 1.9 3 0v-16.3c0-1.9-3-1.9-3 0zM1366.3 647.3h75.7c1.9 0 1.9-3 0-3h-75.7c-1.9 0-1.9 3 0 3z"/><path class="st0" d="M1440.5 647v23c0 1.9 3 1.9 3 0v-23c0-2-3-2-3 0zM1365.6 646.2v21.4c0 1.9 3 1.9 3 0v-21.4c0-1.9-3-1.9-3 0z"/><path class="st0" d="M1369.1 670.7h53.5c1.9 0 1.9-3 0-3h-53.5c-1.9 0-1.9 3 0 3z"/></g><g id="ground"><path class="st1" d="M533.6 960.6h49.2c1.9 0 1.9-3 0-3h-49.2c-1.9 0-1.9 3 0 3z"/><path class="st1" d="M407.5 960.8H1504.6c3.9 0 3.9-6 0-6H407.5c-3.9 0-3.9 6 0 6zM1312.9 981H1521c3.9 0 3.9-6 0-6h-208.1c-3.8 0-3.8 6 0 6zM599.2 1056.6h233.3c3.9 0 3.9-6 0-6H599.2c-3.9 0-3.9 6 0 6zM178 1027.3h155.7c3.9 0 3.9-6 0-6H178c-3.9 0-3.9 6 0 6zM366.5 1000h170.7c3.9 0 3.9-6 0-6H366.5c-3.9 0-3.9 6 0 6z"/></g><path class="st1" d="M329.9 919c76.8-42.1 150.1-90.4 221.8-140.7 71.8-50.4 142.3-102.8 214-153.4 40.2-28.3 80.8-56.1 122.2-82.6 1.6-1 .1-3.6-1.5-2.6-73.9 47.3-145.1 98.6-216.2 150-71 51.4-142 103-215.5 150.7-41.2 26.7-83.1 52.3-126.2 75.9-1.8 1-.3 3.6 1.4 2.7z" id="rope"/><g id="dog"><path class="st2" d="M274.3 898.4c-6 3.3-10 7.6-12.1 9.9-3.2 3.5-5.4 5.8-7.1 9.3-2.6 5.6-2.3 11.9-1.5 24.3.6 9.2 1.2 8.3.8 10.4-2.2 11.4-14.7 13.5-14.4 21.2.2 4.8 5 8.7 9.1 10.1 6.3 2.2 13.9-.6 18.4-7.1-4.8 2.4-11.8 7-16.2 15.2-1.6 3-3.7 6.9-2.3 8.8 2.4 3.3 13.3-.6 23-4.8-.5 2.3-.6 5.1 1 7.1 3.9 4.9 15.4 1 18.4 0 3.4-1.2 3.9-1.8 19.2-11.4 8-5 10.8-6.7 15.4-10.1 3.9-2.9 6.9-5.4 9.1-7.3 7.2.2 15.9-.2 25.5-2 18.1-3.5 32-10.6 40.9-16.2.7 2.9 1.3 5.9 2 8.8-8.7 5.4-15.4 9.4-20 12.1-2.9 1.7-5.9 3.5-5.6 4.8.5 1.9 7.3 1.8 11.6 1.8 4.8 0 8.8-.6 11.6-1 .2.7.9 2.6 2.8 3.5 2.8 1.5 6.4-.2 6.3-.5 0-.2-1.5-.2-1.5-.3 0-.2 10.9-.2 18.4-.8 6.3-.5 15.5-1.7 26.8-5.3 1.9-7.7 2.3-13.7 2.3-17.9 0-3.1-.2-4.7.3-7.8.9-6.1 2.8-8.1 3.8-12.6.7-3 .9-7.5-1-13.4 3.3-1.3 5.5-3.1 6.8-4.3.3-.3 7.1-6.9 6.3-15.9-.2-1.9-.4-4.4-2-5.3-2.6-1.4-7.1 2.2-9.3 4.8-3.9 4.5-4.1 10.1-4 12.6-2.7-4.2-8.1-11.4-17.4-15.9-3.7-1.8-7.4-2.9-11.4-3.5-18.8-3.2-40.9 3.3-54.8 8.3-18.2 6.6-26.9 12.3-38.1 10.4-3.4-.6-10.8-1.9-15.9-7.6-2-2.2-2.2-3.5-4.8-6.6-.9-1.1-5.6-6.6-11.6-9.3-12.2-5.6-26 2-28.8 3.5z"/><path class="st3" d="M325.5 916.5c-2.3 5.3-5.5 10.1-9.5 14.4-1.3 1.4.8 3.5 2.1 2.1 4.2-4.4 7.5-9.4 9.9-15 .9-1.8-1.7-3.3-2.5-1.5z"/><path class="st3" d="M326.9 917.7c-2.3 6.4-5.8 12-10.5 16.8-1.3 1.4.8 3.5 2.1 2.1 5.1-5.2 8.8-11.3 11.3-18.1.6-1.8-2.3-2.6-2.9-.8z"/><path class="st1" d="M277.6 921.9c1.9 12.2 3.7 24.8 9.6 35.9 4.2 8 13 15.6 22.4 10.7 9.3-4.9 10.6-16.9 10-26.3-.7-10.3-4.3-20.2-11.8-27.5-1.4-1.3-3.5.8-2.1 2.1 6.3 6.2 9.7 14.4 10.7 23.1 1 8.9.7 21.8-8.7 26.2-11.4 5.2-18.5-9.8-21.3-18.2-3-8.7-4.4-17.7-5.7-26.8-.5-1.9-3.4-1.1-3.1.8zM273.8 896.8c-11.3 7.9-21.6 18.1-23.1 32.5-.3 3.4-.1 6.8.7 10 1.2 4.7 3.8 8.6 1 13.4-4.4 7.6-10.7 14.7-15.9 21.8-1.1 1.6 1.5 3.1 2.6 1.5 4.9-6.7 10-13.3 14.7-20.1 4-5.7 2.9-9.5 1-15.9-5.4-17.3 7.5-31.6 20.6-40.7 1.5-1 0-3.6-1.6-2.5z"/><path class="st1" d="M236.4 977.1c4.2 3.8 8.8 7.9 14.7 8.5 5.4.5 10.6-2.4 14.8-5.4 9.5-6.7 16.3-16.2 20.7-26.9.7-1.8-2.2-2.6-2.9-.8-3.5 8.6-8.9 16.5-16 22.5-4 3.3-9.2 7.3-14.6 7.6-5.9.4-10.6-4-14.6-7.7-1.4-1.2-3.5.9-2.1 2.2zM255.6 941.7c1.5 2.8 3.2 5.4 5.3 7.7 1.3 1.5 3.4-.7 2.1-2.1-1.9-2.2-3.5-4.6-4.8-7.1-1-1.7-3.5-.2-2.6 1.5z"/><path class="st1" d="M241 971.8c2 2.3 2.6 5.2 2.3 8.1-.2 1.9 2.8 1.9 3 0 .4-3.7-.7-7.4-3.2-10.2-1.3-1.4-3.4.7-2.1 2.1z"/><path class="st1" d="M238.3 976.2c1.2.9 2.3 1.9 3.5 2.8 1.2 1 3.4-.3 2.4-1.8-.8-1.2-1.3-2.6-1.3-4.1-.9.3-1.9.5-2.8.8.3.4.6.8.8 1.2 1.1 1.6 3.7.1 2.6-1.5-.3-.4-.6-.8-.8-1.2-.8-1.1-2.8-.8-2.8.8 0 2 .6 3.9 1.7 5.6l2.4-1.8c-1.2-.9-2.3-1.9-3.5-2.8-.6-.5-1.5-.6-2.1 0-.6.4-.7 1.5-.1 2zM297.7 894.6c8.6 2.1 14.4 8.7 19.6 15.4 5 6.3 8.4 9.7 16.8 9.2 17.4-1.1 34-7.7 50.5-12.7 17-5.1 38.5-10.7 55.3-2.1 17.4 8.9 23.9 30.3 15.2 47.6-.9 1.7 1.7 3.2 2.6 1.5 12.5-25-4.1-53.1-31.3-56-31.2-3.3-59.4 15.2-89.8 18.4-5.7.6-10.5.3-14.5-4.5-2.4-2.9-4.6-6-7.1-8.8-4.6-5.1-9.9-9.3-16.7-11-1.7-.4-2.5 2.5-.6 3z"/><path class="st1" d="M425.4 923.2c-7.8 6.2-13.5 14.3-12.9 24.7.6 9.2 6.1 17.1 14.3 21.3 1.7.9 3.2-1.7 1.5-2.6-7.7-4-12.9-11.5-12.8-20.4.1-9 5.3-15.6 12-20.9 1.5-1.1-.6-3.3-2.1-2.1z"/><path class="st1" d="M427 968.4c-5.6 1.7-11.1 3.7-16.5 6.1-3 1.4-10.4 3.4-11.4 7.1-2.1 7.8 17.3 4.7 20.2 4.5 5.8-.4 11.6-1 17.4-1.9 5.1-.8 12-.9 16.6-3.4 3.5-1.8 3.2-5.7 3.4-9.2.5-6.9 1.1-13.7 1.6-20.6.2-1.9-2.8-1.9-3 0-.3 4.4-.7 8.7-1 13.1-.3 4 .6 12-3.3 14.3-2.7 1.6-7.4 1.6-10.5 2.1-4.9.8-9.7 1.5-14.7 2-4.1.4-8.2.7-12.3.8-2.2.1-4.4.3-6.6.2-1.9-.1-5.1.6-3.8-2.1.6-1.1 4.4-2.4 5.6-2.9 2.3-1.1 4.7-2.2 7.1-3.2 3.9-1.6 7.9-2.9 11.9-4.1 2-.5 1.2-3.4-.7-2.8zM317.1 947.9c.7 16.7-13 27.9-26.4 35.1-5.7 3-27.2 9.8-19.6 20 6.7 9 23.2-.3 30.5-4.2 12.6-6.7 23.6-15.8 34.6-24.9 1.5-1.2-.6-3.3-2.1-2.1-9.5 7.8-19 15.7-29.6 21.9-5.4 3.2-11.1 6-17.1 8-3.4 1.1-7.9 2.9-11.3 1.2-7-3.4-1.2-8.5 2.8-10.7 18-9.5 42.3-20.1 41.2-44.4-.1-1.8-3.1-1.8-3 .1zM258.7 941.8c.5-3.4 2.3-6.5 5.4-8.1 1.7-.9.2-3.5-1.5-2.6-3.8 2-6.2 5.8-6.8 9.9-.3 1.9 2.6 2.7 2.9.8z"/><path class="st1" d="M271.2 970.4c-1.6 3-4.6 4.7-7.2 6.8-2.7 2.2-5.3 4.6-7.8 7.1-3 3.1-9.7 8.5-10 13.2-.7 11.6 20.9 1.6 25 .3 1.8-.6 1-3.5-.8-2.9-4.5 1.5-8.9 3.1-13.5 4.4-1.3.5-2.7.8-4 .9-2.5-2.9-2.6-5.4-.5-7.3 1-1.7 2.8-3.2 4.1-4.6 3-3.2 6.2-6.2 9.6-9 2.8-2.3 5.9-4.1 7.6-7.4 1-1.7-1.6-3.2-2.5-1.5zM335.9 975c28.1.1 55.7-8.6 78.6-24.9 1.6-1.1.1-3.7-1.5-2.6-22.5 16-49.4 24.6-77.1 24.5-1.9-.1-1.9 2.9 0 3z"/><path class="st1" d="M399 957.2c.6 1.7 1.1 3.3 1.7 5 .9 2.5 1.7 3.3-.8 4.8-3.1 1.9-6.8 3.3-10.1 4.9-3.4 1.6-6.8 3.1-10.1 4.9-1.6.8-3.1 1.7-3.8 3.4-3.6 9.6 20 4.2 23.5 3.1 1.8-.6 1-3.5-.8-2.9-2.7.9-5.5 1.6-8.3 1.9-1.8.2-6.8 1.3-8.6.3-4.8-2.7 2.9-4.9 4.5-5.7 2.5-1.2 5-2.5 7.6-3.7 2.8-1.4 9.6-3 10.9-6.1 1.2-2.8-2-8.2-2.9-10.8-.5-1.7-3.4-.9-2.8.9zM458.5 918.7c-.1-3.9.6-7.6 2.7-11 .9-1.4 2.2-3.3 3.8-4 8.4-3.5 6.9 4.4 6.2 7.2-1.8 6.4-6.8 11.6-12.3 15-1.7 1-.1 3.6 1.5 2.6 5.4-3.2 9.8-7.8 12.5-13.6 1.7-3.8 3.4-9.4.1-12.8-3-3.1-7.8-2.3-10.9.1-4.9 3.8-6.7 10.6-6.5 16.6 0 1.8 3 1.9 2.9-.1zM274.8 900.2c6.6-4.4 17.1-8.9 24.8-4.9 1.7.9 3.2-1.7 1.5-2.6-8.8-4.6-20.2-.1-27.8 4.9-1.6 1-.1 3.6 1.5 2.6z"/><path class="st4" d="M308 914.5c3 1.2 10.6 4.6 16 12.8 2.3 3.5 8 12.2 4.8 22-2.9 8.8-11.1 12.7-13 13.5 1.3-2.8 3.1-7.3 3.5-13 .5-7.2-1.3-12.6-3.3-18.5-1.4-4.3-3.8-10.2-8-16.8z"/><path class="st5" d="M278 945.8c-2.8 10.9-8 18-10.8 21.8-5.8 7.9-12.3 13.2-17.3 16.5 3.8-.5 9.3-1.9 15-5.3 1.6-1 8.8-5.3 14.3-14.3 3-4.9 4.5-9.4 5.3-12.5-1.7-9.4-3.3-18.8-5-28.3.6 4.9.9 12.8-1.5 22.1z"/><path d="M451 911.8c.9 4.7 1.9 12 .5 20.8-2.4 15.6-10.6 25.8-14.3 30.3-11.7 14.3-26.2 20-33 22.3 15.8-.5 28.6-1.9 38-3.3 6.4-.9 10.5-1.7 13-5 4.2-5.6-.8-11.6 1.5-25 1.5-9.1 4.2-9.7 4.5-16.3.3-6-1.5-14-10.2-23.8z" opacity=".07" fill="#6d6c6c"/><path d="M401.3 957.5c.7 1.1 3 4.8 1.8 8.3-.3.8-1.1 2.6-5.8 5-8 4.2-12.5 2.5-16.3 6.8-.3.3-2.9 3.3-2 5.3.9 1.9 4.9 1.7 8.3 1.5 3.3-.2 8-.9 13.5-3 3.2-2.1 7.1-4.4 11.8-6.5 5.2-2.3 10-3.8 14-4.8-.4-1.3-1.3-3.2-2.8-5.3-2.7-3.6-5.2-4.1-7.5-7.3-1-1.4-2.3-3.7-2.8-7.3-4.1 2.5-8.2 4.9-12.2 7.3z" opacity=".14" fill="#6d6c6c"/><path d="M470.5 902.5c-.2 2.6-.8 6.5-2.5 10.8-3 7.7-7.5 11.8-6.8 12.5.6.6 5-2.1 7.8-6 2.3-3.3 2.9-6.5 3-7.5.7-4.7-.8-8.4-1.5-9.8z" opacity=".25" fill="#6d6c6c"/></g><g id="guy"><g id="leg_back"><path class="st9" d="M1096.6 891.2c22.6 21.2 45.1 42.5 67.7 63.7-26.4 53.7-37 82.1-31.8 85.3 6.4 4 37.4-31.3 93.1-106.1-38.4-28-76.8-56-115.2-84.1-4.6 13.8-9.2 27.5-13.8 41.2z"/><path class="st2" d="M999.8 581.6c-8.4 12.8-3.6 24.5 1.2 68.7 4.9 44.8.8 40.1 4.8 71.1 6.8 52.4 21.8 90.3 33.8 120 0 0 16.9 42.1 50 80.8.9 1.1 3 3.3 6 5.4 3 2.1 9.4 6.5 16.9 5.4 7.9-1.1 13.9-7.8 16.3-13.9 2.7-6.9-.5-10.1 3-15.7 2.6-4 4.9-3.4 11.5-8.4 4.6-3.6 10.5-8.1 13.3-15.7 3.1-8.6.7-16.4 0-18.7-2.1-6.6-6.1-10.8-7.2-12.1-4.9-5.3-12.5-20.2-27.7-50-11.8-23-30.3-75.1-36.2-140.4-5.2-58 3.8-78.5-12.7-91-19.5-14.8-59.1-6.7-73 14.5z"/><path class="st1" d="M1081.1 602.8c-.9 34.8 3.4 69.5 10.9 103.5 7.3 33 16.7 66.3 29.7 97.5 6.6 16 14.8 31.3 25.5 44.9 1.2 1.5 3.3-.6 2.1-2.1-20-25.2-30.4-56.3-39.8-86.6-10.2-32.7-18.3-66.1-22.5-100.2-2.3-18.9-3.3-38-2.8-57 0-2-3-2-3.1 0zM1000.2 647c.2 53.5 7.3 107.3 24 158.3 8.2 25 18.7 49.4 31.8 72.2 6.6 11.6 13.9 22.9 21.9 33.7 6.7 9.1 14.6 19.2 26.2 22.1 10.7 2.7 21.4-1.6 25.6-12.1 4.3-10.9 1.4-25.1 10.4-33.9 1.4-1.4-.7-3.5-2.1-2.1-6.9 6.7-7.3 16.4-8.7 25.3-.7 4.4-1.5 9-3.9 12.8-4 6.6-11.7 8.8-19 7.4-13.1-2.5-21.6-15-28.8-25.1-7.1-10-13.7-20.4-19.8-31.1-24.7-43.8-40-92.5-47.9-142.1-4.5-28.2-6.6-56.8-6.7-85.4 0-2-3-2-3 0z"/><path class="st1" d="M1144.8 845.9c8.1 9.6 14.4 22.1 10.1 34.8-2.2 6.7-7.2 9.2-12.7 12.7-4.8 3.1-8.8 7.2-12.1 11.9-1.1 1.6 1.5 3.1 2.6 1.5 2.8-3.8 6-7.4 9.9-10.1 2.5-1.7 5.3-3 7.8-4.8 4.7-3.4 7.3-8.7 8.3-14.3 2.2-12.8-3.8-24.3-11.8-33.9-1.2-1.4-3.3.8-2.1 2.2z"/><path class="st10" d="M1002.1 644.7c-.2 13.2.2 27 1.2 41.5 3.6 51.1 14.5 95.4 27 131.6 0 0 15.7 44.9 36.6 76.3 2.3 3.4 6.7 9.1 15.6 20.4 9.2 11.8 11.9 14.7 16.8 16.8.7.3 13.2 5.5 21.6-.6 2.3-1.6 4.1-5.5 7.8-13.2 3.8-7.9 5.7-12.1 6.6-18 4.9-.2 8.5-2.9 9-6 .6-3.8-3.8-7-4.2-7.2-6-4.1-14.3-.7-18 0-18.3 3.3-41.2-40.3-48.1-53.5-28.5-55.3-42.8-82.9-52.9-113.5-5.9-18.9-13.2-44.1-19-74.6z"/><path class="st5" d="M1015.3 761.3c.9-.3 2.5 4.2 18 35.4 30.2 60.7 37.4 69.5 45.1 76.3 9.2 8.2 25.7 19.4 54.1 24 .3 1.8 3.9 21.6-7.8 30.6-5.1 4-11 4.2-12.6 4.2-18.1.6-36.9-24.1-53.5-53.5-32.3-57.2-46.6-115.9-43.3-117z"/></g><g id="leg_front"><path class="st9" d="M876.5 897.4c-13.4 28-26.7 55.9-40.1 83.9-59.1-8.8-89.5-10.2-91-4.3-1.9 7.3 41.3 26.1 129.4 56.3 15-45.1 30-90.2 44.9-135.4-14.3-.1-28.7-.3-43.2-.5z"/><path class="st2" d="M995.4 572.4c-10.3 8.8-13.3 18.2-21.6 37.4-12.8 29.5-27.3 58.3-40.3 87.8-25.9 58.8-34.3 71.8-53.9 118-11.3 26.6-11.2 28.5-17.3 39.6-6.3 11.4-12.8 21-17.3 37.4-2.7 9.8-3.3 17.1-.7 24.5 1 2.9 4.1 12 12.2 15.1 5.2 2 10.5.8 16.5-.7 4.9-1.2 8.8-2.9 11.5-4.3 1.8 2.3 5 5.7 10.1 7.9 9.5 4.3 18.6 1.4 23 0 2.6-.8 12.3-4.2 19.4-13.7 4.9-6.5 6.3-13 7.2-16.5 3.6-14.9 11-28.6 15.8-43.2 2.6-8 7.6-20.2 41-69 36-52.6 37.8-49.5 55.4-78.4 19.1-31.4 29.8-48.6 34.5-74.8 3.8-21.2 9.4-52.3-9.2-70.7-21.1-21.4-63.8-15.8-86.3 3.6z"/><path class="st1" d="M1091.4 591.8c6.3 57.6-24.9 109.9-57.6 154.5-16.6 22.6-34.1 44.5-49.2 68-15.6 24.2-27.7 50.2-37.6 77.2-5 13.7-8.2 31.3-21.7 39.5-11.3 6.8-26.1 6.3-36.6-1.7-1.5-1.2-3 1.4-1.5 2.6 17.9 13.5 43.4 6 53-13.6 6.3-12.9 10-27.3 15.3-40.6 6-14.9 12.8-29.6 20.6-43.6 29.4-52.3 73.6-95 99.6-149.4 13.8-29 22.3-60.8 18.7-93-.2-1.8-3.2-1.9-3 .1z"/><path class="st1" d="M993.8 563.4c-27.4 59.9-54.8 119.9-82.3 179.8-13.8 30.3-27.7 60.5-41.5 90.8-6.5 14.3-13.3 28.5-19.6 42.9-5 11.3-9.8 24-7.9 36.5 1.6 10.1 7.9 20.8 19 21.6 8 .6 16.1-3.2 23.5-5.6 8.7-2.8 17.5-5.7 26.2-8.5 1.8-.6 1-3.5-.8-2.9-6.9 2.2-13.7 4.4-20.6 6.7-7.2 2.3-14.4 5.2-21.8 6.8-14.5 3-22.5-9.4-23-22.4-.5-14.4 6.7-28.3 12.5-41 6.4-13.9 12.7-27.8 19.1-41.8 25.5-55.7 51-111.4 76.4-167.1 14.4-31.5 28.8-63 43.2-94.4 1-1.7-1.6-3.2-2.4-1.4z"/><path class="st1" d="M884.6 930c1 .6 2 1.3 2.9 2 .6.5 1.5.6 2.1 0 .5-.5.6-1.6 0-2.1-1.1-.9-2.3-1.7-3.5-2.5-1.6-1-3.1 1.6-1.5 2.6z"/><path class="st4" d="M1047.2 554.6c-12.1 6-8.4 30.4-10.2 57.1-1.3 19.7-4.6 25.7-50.5 130.4-38.6 88.1-43.2 99.7-58.3 122.6-18.7 28.3-37.5 49.6-51.1 63.7l9.6-.6c2.1 2 5.5 4.6 10.2 6.6 2.3 1 12.6 5.4 23.4 1.8 10.6-3.5 15.8-12.7 19.8-19.8 6-10.7 7.6-20.2 8.4-24.6 2.2-11.7 9.1-25 22.8-51.7 18.5-35.9 36.5-50.6 69.7-99.7 27.2-40.4 42.2-63.1 49.3-97.3 5.7-27.3 4-50.8 1.8-66.1-14.7-13.9-33.5-28.1-44.9-22.4z"/><path class="st10" d="M1090.4 624.9c-1.7-.7-10.1 19.5-27 49.3-23.3 40.8-31.4 44.6-62.5 91.3-31.4 47.2-30.9 55.1-63.7 103.3-17 25-32 44.8-42.1 57.7-2.9 4.7-2.4 6.9-1.8 7.8 2.5 4.3 15.1 1.4 21 0 7.6-1.8 11.5-2.7 15.6-5.4 8.7-5.7 10.6-14.6 16.8-33 3.3-9.9 7.5-19.5 10.8-29.4 7.2-21.2 17.4-36.1 34.2-60.1 57.6-81.9 57.4-77.3 67.3-95.5 23.7-43.2 33.8-85 31.4-86z"/></g><g id="hand_back"><path d="M806.2 273.9c-2.6 4.4-3.1 8.6-3.3 10.5-1 8.2 1.8 14.6 3 17.1 6.6 14.3 21.7 19.2 24.4 20 1.8 6.7 3.6 13.4 5.6 20.2 4.5 15.9 9.2 31.5 14 46.7l19.2-2.7c-1.8-8.5-4-15.3-5.6-19.8-4.8-13.8-9.3-20.7-13.2-35.7-1-4-1.7-7.4-2.1-9.5 1.6-1.1 3.8-3 5.9-5.7 8.3-10.8 6.3-24 5.9-26.8-.7-4.3-1.8-12.1-8.4-18.7-8.4-8.5-19.2-8.7-20.8-8.7-9.7-.3-19.7 4.7-24.6 13.1z" fill="#848484"/><path class="st2" d="M812 282c-.4 1.2-1.5 5.5-.3 10.8 1.8 7.8 8 14.9 16.3 17.3 6.5 1.9 16.4 1.7 21.7-4.8 3.7-4.5 3.6-9.9 3.5-14.9-.1-5.6-.3-14.2-7.1-19.8-8.2-6.8-19.1-3.4-19.8-3.2-7.1 2.3-12.4 8-14.3 14.6zM830.1 345.1c-.3 1.5-.7 3.7-.7 6.2 0 1.2 0 4.5 1.2 9.5.8 3.1 1.3 3.9 4.6 11.9 3.6 8.7 4.3 11.1 7 12.2 1.8.8 3.7.5 4.9.2-2.9-4.6-2.7-7.3-2-8.9.6-1.5 1.6-1.8 2.2-3.7.2-.7.5-2-.6-6.5-1.1-4.4-1.6-4.4-1.9-7-.4-3 .3-3.1-.1-5.9-.1-.5-.5-3.2-2.2-6.3-1.6-2.8-2.6-4.6-4.6-5.2-2.6-.6-5.5.9-7.8 3.5zM855 343.9c-2.5 2.5-6 7.2-4.6 9.7 1.2 2 5.4 2.2 7.5 2.3 1.5.1 2.7 0 3.6-.1.4 1.1.8 2.1 1.1 3.2 2.8 8.2 5.2 16.3 7.2 24.3.3 1.1.6 2.2.8 3.2-.9 1.3-2.6 3.3-5.3 4.9-3.7 2.1-7.2 2.4-8.9 2.4 1.9 4.6 4.7 10.4 8.9 16.7 1.2 1.8 4.7 7.1 10.5 13.4 5.5 6 11 12 19.8 17.2 11.9 7.1 23.1 8.7 29.3 9.5 9.3 1.2 16.6.7 20.3.3 3.2-.3 15.9-1.9 30.6-9.4 13.7-7 22-15.4 28.3-21.9 4.9-5 13.3-13.9 20.6-28 5-9.8 6.9-17.1 10.5-31.4 5.1-20.2 7.6-30.3 2.6-34.9-4.2-3.8-11.6-2.2-17.6-.8-9.9 2.2-16.6 7.5-24.7 14.1-4.1 3.4-7.7 6.9-14.6 13.7-14.6 14.4-15.5 16.7-23.5 23.3-4.8 4-8.7 6.6-16.5 11.7-15.6 10.4-20 11.3-23.4 11.5-6.2.3-10.9-1.8-15.2-3.7-12.8-5.8-18.9-16-20.8-19.2-2.5-4.3-4.4-7.6-4.5-12.2-.1-5.3 2.2-7 2.3-13.5.1-3.8.2-9.1-3-11.8-5-4.4-15.6-.1-21.3 5.5z"/><path class="st1" d="M875.3 369.2c9.4 16.2 23.9 33.2 44.7 30.7 1.9-.2 1.9-3.2 0-3-19.8 2.4-33.2-13.9-42.2-29.2-.9-1.7-3.5-.2-2.5 1.5z"/><path class="st1" d="M898.1 403.5c13.2 1.2 25.4-4.5 36.5-10.9 11.5-6.6 22.1-14.6 31.7-23.8 19.2-18.5 39.2-48.3 69.9-42.8 1.9.3 2.7-2.6.8-2.9-27.3-4.9-47.5 17-64.4 34.9-9.9 10.5-20.6 20.1-32.8 27.9-12.4 8-26.5 15.9-41.7 14.6-1.9-.2-1.9 2.8 0 3z"/><path class="st1" d="M851.3 388.6C866 416.5 884.1 444 917 451c30.3 6.5 61.1-4.5 83.3-25.3 13-12.2 23-27.2 30.2-43.4.8-1.7-1.8-3.3-2.6-1.5-12.1 27-32.6 51.6-60.6 62.8-28.2 11.2-61.7 7.6-84.1-13.7-12.6-12-21.2-27.5-29.3-42.8-.9-1.8-3.5-.2-2.6 1.5zM859.4 339.7c-5.1 2.2-12.3 8.9-9.5 15.2 3.1 6.8 14.1.9 18-2 1.5-1.1 0-3.7-1.5-2.6-2.3 1.7-13 8.1-14 2.2-.8-4.4 5.2-8.7 8.6-10.2 1.7-.8.1-3.4-1.6-2.6z"/><path class="st1" d="M860 342.5c3.8-2.9 9.8-7.5 14.6-3.3 3.9 3.5 3.1 9.6 2.4 14.1-.9 5.8-3.2 13.9.5 19.1 1.1 1.6 3.7.1 2.6-1.5-3.6-5.1-.3-14.3.3-19.9.5-4.2.3-8.5-2.1-12-5.2-7.6-14-3.5-19.8.9-1.5 1.2 0 3.8 1.5 2.6zM858.3 355.8c3.4 10.1 6.5 20.3 9.5 30.6.3-.6.7-1.2 1-1.8-6.8 1.6-13.8-.1-20.2 3.2.7.3 1.5.6 2.2.9-1.2-4.3-2.7-8.6-4.2-12.8-.7-1.8-3.6-1-2.9.8 1.6 4.2 3 8.5 4.2 12.8.3 1 1.3 1.3 2.2.9 6-3.1 13.1-1.4 19.5-2.9.8-.2 1.3-1.1 1-1.8-3-10.3-6.1-20.4-9.5-30.6-.5-2-3.4-1.2-2.8.7z"/><path class="st1" d="M849 389.7c4.4 7.2 18.1 4.5 21.2-2.7.8-1.8-1.8-3.3-2.6-1.5-2.1 5-12.8 8-16.1 2.7-.9-1.7-3.5-.2-2.5 1.5z"/><path class="st1" d="M851.7 390.6c5.1 1.1 10.1.8 15-1 1.8-.7 1-3.6-.8-2.9-4.4 1.6-8.9 1.9-13.4 1-1.9-.4-2.7 2.5-.8 2.9z"/><path class="st1" d="M850.8 390.1c3.6-5.5 10.4-7 16-3.7 1.7 1 3.2-1.6 1.5-2.6-7.2-4.1-15.6-2.1-20.2 4.8-1 1.6 1.6 3.2 2.7 1.5z"/><path class="st1" d="M856.3 388.3c1.2-3.8 6.3-1.7 8.7-.6 1.7.8 3.3-1.8 1.5-2.6-4.3-2-11.2-3.7-13.1 2.4-.5 1.9 2.4 2.7 2.9.8zM843.8 383.6c-2.6-1.7-4.3-4.6-4.2-7.8.1-1.4.5-2.7 1.1-3.9.3-.5 3.1-4.1 3.8-3.6 1.5 1.2 3.6-.9 2.1-2.1-3.8-3-8.4 3.1-9.4 6.4-1.7 5.3.6 10.6 5.1 13.6 1.6 1 3.1-1.6 1.5-2.6z"/><path class="st1" d="M844.7 377.8c4.4-2.5 5.1-8.4 1.2-11.7-1.5-1.2-3.6.9-2.1 2.1 2.4 2 2.2 5.4-.6 7-1.7 1-.2 3.6 1.5 2.6zM840.4 384.5c2.2 2.2 5.7 2.7 8.3 1 1.6-1 .1-3.6-1.5-2.6-1.5 1-3.4.8-4.7-.5-1.3-1.4-3.4.7-2.1 2.1z"/><path class="st1" d="M838 374.5c-1.8-2.7-2.4-5.8-1.7-9 .8-3.8 4.2-8.4 8.2-4.5 1.4 1.4 3.5-.8 2.1-2.1-3.9-3.9-8.7-2.8-11.5 1.8-2.9 4.7-2.6 10.8.4 15.3 1 1.6 3.6.1 2.5-1.5z"/><path class="st1" d="M834.5 367.6c-.2-1.4-.7-2.5-1.4-3.8-1.3-2.4-1.6-4.2-.9-6.9 1.2-4.6 5.1-8 9.8-5.2 1.7 1 3.2-1.6 1.5-2.6-4.3-2.5-9.8-1.5-12.5 2.8-1.4 2.2-2.3 5.1-2.3 7.7-.1 3.3 2.4 5.6 2.9 8.8.3 1.9 3.2 1.1 2.9-.8z"/><path class="st1" d="M831.6 353c-1.6-2.3-1.7-5.5.3-7.6 2-2.1 5.2-2.2 7.6-.7 1.6 1 3.1-1.6 1.5-2.6-3.5-2.2-8.3-1.8-11.2 1.2-2.9 3-3.1 7.9-.8 11.3 1.1 1.5 3.7 0 2.6-1.6zM840.9 351.3c2.2 1.1 3 4.2 1.3 6.1-1.3 1.4.8 3.6 2.1 2.1 2.9-3.2 2.1-8.8-1.9-10.8-1.7-.8-3.3 1.7-1.5 2.6z"/><path class="st1" d="M838.3 344.8c1.9.9 3 2.9 2.6 5.1-.4 1.9 2.5 2.7 2.9.8.7-3.4-.9-6.9-4-8.4-1.7-1-3.2 1.6-1.5 2.5zM844.3 362.3c.7 1.1.9 2.5.3 3.8-.3.7-.2 1.6.5 2.1.6.4 1.7.2 2.1-.5 1-2.2.9-4.7-.3-6.8-1-1.8-3.6-.3-2.6 1.4zM829.5 322.7c1.2 6.8 2.7 13.5 4.6 20.2.5 1.9 3.4 1.1 2.9-.8-1.9-6.6-3.4-13.4-4.6-20.2-.3-1.9-3.2-1.1-2.9.8zM846.3 321.1c2.4 8 4.8 15.9 7.1 23.9.6 1.8 3.4 1.1 2.9-.8-2.4-8-4.8-15.9-7.1-23.9-.6-1.9-3.5-1.1-2.9.8z"/><path class="st1" d="M829.8 319.8c-12.7-1.2-24.3-17.4-26.1-29.2-2.2-14.3 11.1-26.1 24.3-28.6 28.3-5.2 43.3 44.4 19.1 57.4-1.7.9-.2 3.5 1.5 2.6 21-11.3 15.3-47.1-2.3-58.8-21.2-14.1-53 8.6-44.2 33.2 4.1 11.4 14.8 25.1 27.7 26.3 1.9.3 1.9-2.7 0-2.9z"/><path class="st1" d="M829.7 309.3c-9.7-2.2-17.3-10.7-17.2-20.9.1-10.8 9-20.4 19.9-20.8 13.1-.4 19.5 12.3 19.3 23.9-.1 6.7-1.1 13.1-8 15.8-5.3 2-11.1 3.8-16.7 1.6-1.8-.7-2.6 2.2-.8 2.9 6.4 2.5 13.8.4 19.9-2.3 5.8-2.6 7.5-7.2 8.3-13.3 1.6-13.3-3.6-29.6-18.9-31.4-12.6-1.5-23.8 8.3-25.6 20.6-1.8 12.5 7.1 24 19.2 26.8 1.7.4 2.5-2.5.6-2.9z"/><path class="st1" d="M832.9 266.5c-4.1 12.9-8.2 25.9-12.2 38.8-.6 1.8 2.3 2.6 2.9.8 4.1-12.9 8.2-25.9 12.2-38.8.6-1.8-2.3-2.6-2.9-.8zM838.8 280.9c-3.1 9.3-6.5 18.5-10 27.6-.7 1.8 2.2 2.6 2.9.8 3.5-9.1 6.9-18.4 10-27.6.6-1.9-2.3-2.7-2.9-.8z"/><path d="M1036.8 325.7c-4.4 11.1-12.1 27.6-25.3 45.2-14.2 19.1-30.3 40.7-59.3 50.1-7.2 2.3-28.7 9-54.5 1-22.5-7-36-21.4-41.3-27.7 2.5 6.7 7.2 17 16 27.2 4.6 5.3 21.5 24.4 50.6 29.2 3.6.6 22.4 3.5 44.3-4.9 24.1-9.2 37.1-26.3 46.2-38.4 6.4-8.5 17.8-24.1 22.4-47.7 2.7-14 2-26 .9-34z" opacity=".12" fill="#6d6c6c"/><path d="M877.3 423c7.5 4.8 21.1 12.1 39.4 14.1 22.7 2.5 39.9-4.6 52.5-9.7 25-10.3 42.5-25.8 53.5-37.9-3.8 9-11.8 24.4-27.7 37.9-7.5 6.4-33.4 28.4-68.6 23.3-26.8-3.9-43.6-21.4-49.1-27.7z" opacity=".21" fill="#6d6c6c"/></g><g id="torso"><path d="M1019.1 315.9c-16.6 12.3-22.7 28.7-29.6 46.9-12.8 33.8-10.7 60.7-9.3 103.3.9 27.1 1.7 66.4.9 115.4 17.2 4.3 38.8 8 63.8 8.9 19.4.6 36.7-.6 51.3-2.6 8.2-37.7 16.8-68.1 23.2-89.2 21.4-70.6 43.1-122.3 23.3-163.7-1-2-2-3.7-3.1-5.2-22.8-32.2-86.7-38.9-120.5-13.8z" fill="#474747"/><path class="st15" d="M1091.3 302.9c-1.3 7.3-3.5 18.8-6.8 32.6-18.7 78-37.5 82.3-40.8 125.5-3.4 43.5 14.2 59.2-.5 91.9-7.7 17.1-19.5 28.5-28.2 35.5 13.9 1 28.8 1.6 44.7 1.5 12.5-.1 24.3-.6 35.5-1.5 7.1-30.9 13.9-55.6 19-72.9 2.5-8.5 5.5-18.6 11.2-37.4 9.3-30.8 11.7-38.4 15.6-53 5.7-21.7 8.6-32.8 9.2-43.8 1-16.5 2.1-35.3-9.7-51.1-7.5-10.1-17.8-15.5-23.3-18.5-10.2-5.5-19.6-7.8-25.9-8.8z"/><path d="M1133.1 441.5c-2.1-.8-12.8 27.6-31.6 66.1-17.5 35.8-34.1 64-45.7 82.7 13.1-1 26.3-1.9 39.4-2.9 3.4-13.3 8.6-33.2 15.1-57.4 16-59.6 24.9-87.8 22.8-88.5z" opacity=".17" fill="#6d6c6c"/></g><g id="hand_front"><path class="st2" d="M1125.8 325.2c-3.3 1.2-8 3.2-13.4 6.3-19 10.9-29.1 25.9-35.3 34.9 0 0-20.9 30.4-53.1 71.2-10 12.7-20 24.5-32.3 37.3-25.5 26.6-36.8 32.1-41.7 34.2-12.2 5.4-22.9 10.1-37 9-9.3-.7-15.1-3.6-21.5.3-6.8 4.1-11.3 13.9-10.4 19.3.1.6.5 2.5.7 5.2.1.7.2 3.1 0 6.6-.3 5.4-.9 4.9-.7 6.9.6 4.3 3.6 6.5 2.7 7.9-.6 1-2.2.1-3.4 1.4-1.4 1.4-.8 4.1-.7 4.5.7 3.1 3.3 4.9 4.4 5.5 4.3 2.8 7.2 1.3 18.1 1.7 7.7.3 10 1.2 13.8-.7 1-.5 2.7-1.4 5.7-4.8 8.6-9.6 7.6-16 15.1-22.1 2.7-2.2 5.4-3.4 7.1-4.1 5.5-2.4 9.1-2.3 14.4-3.5 3.6-.7 7.2-2.2 14.4-5.2 11.7-4.8 20.7-9.5 24.2-11.4 21.1-11.4 40.2-25.8 44.3-29 21.9-16.7 35.9-30.8 54.1-49.1 13.1-13.1 26.9-27.9 40.3-48 4.1-6.2 11.4-17.7 13.8-33.9 1.1-7.3 2.2-15.5-2-23.8-5.8-12.1-18.5-15.8-21.6-16.6z"/><path class="st1" d="M1122.8 324.3c-18.9 5.9-33.3 23-45.1 38-13.4 17.1-25.5 35.1-38.5 52.4-13.9 18.5-28.3 36.6-44 53.6-14.9 16-31.2 31.8-51.3 41-11.7 5.3-24.6 8.3-37.4 7.2-7.3-.6-16.6-2.4-21.1 5-1 1.6 1.6 3.2 2.6 1.5 2.7-4.5 8.3-4.4 12.9-4 4.8.3 9.5.9 14.3.7 9.5-.5 18.9-2.9 27.7-6.6 18.7-7.9 34.3-21.5 48.3-36 30.2-31.2 55-66.8 80.6-101.7 7.2-9.8 14.6-19.4 23.1-28.1 8.2-8.4 17.5-16.5 29-20.1 1.5-.6.7-3.5-1.1-2.9z"/><path class="st1" d="M1122.5 326.2c16.7-2.3 26 15.4 25.9 29.7-.1 14.2-6.1 28.2-13.1 40.3-13 22.7-31.9 42.1-50.2 60.6-36.2 36.3-78.4 69.2-128.3 83.9-6.1 1.8-13.5 2.4-18.9 6-5.1 3.4-7.7 10-11.2 14.9-2.6 3.6-5.4 7.1-8.4 10.4-3.9 4.2-7.5 4.6-12.8 4.2-4-.3-8-.6-12.1-.9-4.1-.3-9.9 0-11.9-4.4-.8-1.8-3.4-.2-2.6 1.5 2.1 4.7 7.1 5.3 11.7 5.7 3.7.3 7.4.6 11.1.8 3.6.3 7.7 1.1 11.3.4 6-1.2 10.5-8.7 14-13.1 4.2-5.4 7.7-14.3 13.8-17.7 3.4-1.9 7.7-2.4 11.4-3.4s7.3-2 10.9-3.2c6.5-2.1 13-4.6 19.3-7.3 13.2-5.7 25.8-12.5 37.9-20.3 24.2-15.6 46.2-34.5 66.5-54.8 20.6-20.6 42.3-42.7 55.3-69.2 6.8-13.9 12.4-30.7 8-46.1-3.5-12.4-14.8-22.6-28.2-20.8-2.1.2-1.3 3.1.6 2.8zM882.1 537c.9-6.1 16.4-5.5 20.5-5.9 5.6-.5 10.6-1.7 15-5.4 1.5-1.3-.7-3.4-2.1-2.1-6.4 5.4-15.2 4.3-23 5.3-4.1.6-12.5 2.1-13.2 7.2-.4 2 2.5 2.8 2.8.9z"/><path class="st1" d="M879.1 537.4c4.9 9.7 15.5 15 26.1 12.7 1.9-.4 1.1-3.3-.8-2.9-9.4 2.1-18.5-2.8-22.8-11.3-.8-1.7-3.4-.2-2.5 1.5z"/><path class="st1" d="M880.5 540.2c-2 5.2.3 11 4.7 14.2 5 3.7 11.5 3.3 17.3 2.3 1.9-.3 1.1-3.2-.8-2.9-4.5.8-9.6 1.2-13.8-1.2-4.1-2.3-6.2-7.2-4.6-11.6.8-1.8-2.1-2.6-2.8-.8z"/><path class="st1" d="M880.7 548.5c-2.8 4.6-1.6 10.7 2.3 14.4 4.6 4.4 11.6 3.9 16.9 1.3 1.7-.8.2-3.4-1.5-2.6-4.1 1.9-9.4 2.5-13.1-.7-3.1-2.7-4.1-7.3-2-10.9 1-1.7-1.6-3.2-2.6-1.5z"/><path class="st1" d="M882 571.3c-2-3.2.7-7.2 4.5-5.8 1.8.7 2.6-2.2.8-2.9-6.2-2.3-11.1 4.9-7.8 10.2.9 1.6 3.5.1 2.5-1.5zM885.3 523.5c5.6-2 11.5.7 13.9 6.1.8 1.8 3.4.2 2.6-1.5-2.9-6.5-10.5-9.9-17.3-7.4-1.8.6-1 3.5.8 2.8z"/><path class="st1" d="M884.2 521.7c-4 2.9-3.9 9.8.6 12.2 1.7.9 3.2-1.7 1.5-2.6-2.4-1.3-3-5.4-.6-7 1.6-1.2.1-3.8-1.5-2.6z"/><path class="st1" d="M885.1 530c.2-2.2.9-4 2.2-5.8h-2.6c1 1.7 1 3.3 0 4.9.9.1 1.8.2 2.7.4-.2-.6-.3-5.2.9-4.4.9.6-1.1 3.7-1.5 4.4h2.6c-.4-.7-.7-1.4-.7-2.2.4-2.2 1-2.4 1.7-.5.5.4 1 .7 1.4 1.1-.3-1.1 0-1.7.9-1.5.9-.4 1.1-.1.6.8.7.2 1.4.4 2.1.5.3.3.5.6.8.9-.3 1.9 2.6 2.7 2.9.8.4-2.5-1.9-5.9-4.5-3.6-2.2 2 0 5.7 2.8 4.2 2.7-1.5 1.6-5.6-1.2-6.3-3.2-.7-4.8 3.1-3.4 5.5.4.7 1.4.9 2.1.5 2.5-1.5 2.3-5.7-.5-6.8-3.6-1.5-5.9 2.8-5.4 5.8.1.7.8 1.1 1.4 1.1 4.2.2 5.2-6 1.3-7.3-5.4-1.8-6.9 5-4.9 8.6.6 1.1 2 .9 2.6 0 1.4-2 4.3-9.2-.3-9.6-4.3-.3-5.5 5.9-4.6 8.9.4 1.2 2.1 1.5 2.7.4 1.5-2.5 1.5-5.4 0-8-.6-1-2-.9-2.6 0-1.6 2.2-2.3 4.6-2.6 7.3-.1 1.9 2.9 1.8 3.1-.1z"/><path class="st1" d="M882.6 533.3c5.1.9 17.5 1.9 18.8-5.5.3-1.9-2.6-2.7-2.9-.8-.9 5.1-11.6 4-15.1 3.4-1.9-.3-2.7 2.6-.8 2.9z"/><path class="st1" d="M894.7 531.8c3.8 15.3 3.4 31-1.3 46-.6 1.8 2.3 2.6 2.9.8 4.8-15.5 5.3-31.8 1.3-47.6-.5-1.9-3.4-1.1-2.9.8z"/><path class="st1" d="M894.1 532c.7 7.6 1.1 15.1 1.3 22.7.2 7.3.7 14.8-1.7 21.8-.6 1.8 2.3 2.6 2.9.8 2.3-6.7 2-13.7 1.9-20.7-.2-8.2-.6-16.4-1.3-24.6-.3-1.9-3.3-1.9-3.1 0z"/><path class="st1" d="M898 531.9c2.2 1.6 1.8 9.5 1.9 12 .1 3.4.1 6.7-.1 10.1-.4 7.2-1.5 14.4-3.3 21.4-.5 1.9 2.4 2.7 2.9.8 2.2-8.8 3.4-17.7 3.5-26.8 0-4.6-.2-9.2-.7-13.8-.3-2.7-.5-4.7-2.7-6.3-1.6-1.1-3.1 1.5-1.5 2.6z"/><path class="st1" d="M897.3 531.1c1.3 8.1 1.7 16.2 1.1 24.3-.1 1.9 2.9 1.9 3 0 .6-8.4.2-16.8-1.2-25.1-.3-1.9-3.2-1.1-2.9.8z"/><path class="st1" d="M890 531.7c3.3 11.1 4.6 22.6 3.7 34.2-.2 3-3.3 17.1 4.8 13.3 3-1.4 3.3-4.9 3.6-7.7.6-5.7.7-11.4.7-17.1 0-9 1.2-19.9-4-27.7-1.1-1.6-3.7-.1-2.6 1.5 4.3 6.5 3.5 14.9 3.6 22.4 0 4.1 0 8.2-.1 12.3l-.3 5.7c-.1 1-.7 9.2-3.6 5.8 0 0 .6-4.4.7-4.9.2-1.8.4-3.7.5-5.5.2-3.7.2-7.4 0-11-.4-7.5-1.8-14.9-3.9-22.1-.7-1.9-3.6-1.1-3.1.8z"/><path class="st1" d="M893.7 531.3c.6 4.8 1.1 9.6 1.7 14.3.2 1.9 3.2 1.9 3 0-.6-4.8-1.1-9.6-1.7-14.3-.3-1.9-3.3-1.9-3 0z"/><path class="st1" d="M890.7 528.4c2.1 5.4 3.8 11 4.9 16.7.4 1.9 3.3 1.1 2.9-.8-1.1-5.7-2.7-11.3-4.9-16.7-.7-1.8-3.6-1-2.9.8z"/><path class="st15" d="M1143.8 335.9c-3.8 0-4.8 20.2-10.2 37.4-4.7 14.9-12.7 27.1-46.7 60.3-47.2 46-71.6 69.3-111.8 89.5-17 8.5-31.9 14-42.3 17.5-3.3 2.9-14.2 11.7-30.1 11.7-7.8 0-14.1-2.1-18-3.9-.7.4-2.9 1.7-3.9 4.4-1.1 2.9-.3 6.3 1.9 8.8-.8.7-3 3.1-2.9 6.3.1 3.7 3 6 3.9 6.8 3.4 2.8 9.2 2.9 20.4 2.9h12.2c1.9-2 4.7-5.1 7.8-9.2 7.4-10 8.2-15 13.6-19.5 6.2-5.1 13.4-5.3 16.5-5.8 26.7-4.6 59.8-26.6 78.3-38.9 29.5-19.6 46.3-38.1 79.8-74.9 0 0 17.8-19.6 31.6-49.6 2.1-4.5 6.6-15 5.3-28.2-.7-6.3-2.8-15.5-5.4-15.6z"/></g><g id="head"><path d="M1101.7 235c.8 24.2-.1 37.9 4 61 1.9 10.8 4.2 19.5 5.9 25.3-10.3 3.3-27.6 7.3-48.8 5-13.9-1.5-25.2-5.2-33.3-8.6 3.7-7 8.2-17.3 10.7-30.3 2.2-11.3 2.2-21.1 1.7-28.5-10.4-4.2-20.8-8.5-31.2-12.7-.9-5.3-1.7-10.6-2.6-15.8-2.9-.9-5.9-1.8-8.8-2.7 3.9-5.9 10-15.2 17.2-26.8 13.5-21.9 14.3-25.3 19.7-29.6 14.6-11.8 41.4-14.8 55.3-2.7 8.2 7.2 9 27 10.2 66.4z" fill="#fff" stroke="#161616" stroke-width="2" stroke-miterlimit="10"/><path class="st1" d="M999.1 229.4c5.5 1.6 11.1 2.6 16.8 3.2 1.9.2 1.9-2.8 0-3-5.4-.6-10.8-1.6-16-3.1-1.9-.5-2.7 2.4-.8 2.9zM1008.1 186.1c3.7-.9 7.7 1.1 9.1 4.7.7 1.8 3.6 1 2.9-.8-2-5.2-7.3-8.1-12.7-6.8-2 .5-1.2 3.4.7 2.9zM1030.6 195.6c4.5-.2 8.6 2.4 10.1 6.6.6 1.8 3.5 1 2.9-.8-1.9-5.5-7.1-9.2-12.9-8.9-2 .2-2 3.2-.1 3.1zM1031.6 208.3c-.7-1.5-.4-2.8-.2-4.4.3-.4.3-.6 0-.4-.3.1-.3.3 0 .6.1.7.3 1.4.4 2.1 0 .5-.2 1.5-.1 1.9l.6.6c0-.3.1-.6.1-.9.2-1.5.4-3 .6-4.6.2-1.5-2.2-2-2.8-.8-.5 1-.7 1.9-.7 3 .1 1.9 3.1 1.9 3 0 0-.6 0-.9.3-1.5-.9-.3-1.9-.5-2.8-.8-.2 1.8-.7 3.7-.7 5.5 0 1.3.7 2.4 2 2.6 3.3.5 3.6-3.7 3.4-6-.3-2.1-1.9-6.6-4.8-4.2-2.5 2-1.9 6.3-.8 8.8.7 1.7 3.3.2 2.5-1.5z"/><path d="M1030.6 176.2c2-4.7 6-12.1 13.5-19 2.6-2.4 8.2-7.5 15.7-10 14.2-4.7 32.7.8 43.7 14.1 10.8 13 12.9 31.8 5.6 47.9-26.1-11-52.3-22-78.5-33z" fill="#3a3a3a"/><path class="st1" d="M986.1 164.1c40.5 16.3 81 32.5 121.4 48.8 5.4 2.2 7.7-6.5 2.4-8.7-40.5-16.3-81-32.5-121.4-48.8-5.3-2.1-7.7 6.6-2.4 8.7z"/><path d="M1082.3 201c-8.1.8-13.7 4.7-20.3 9.4-13.9 10-12 15.5-21.5 21.5-15.1 9.6-25.1-1-38.8 8.6-11.7 8.2-14.2 22.6-14.7 26-.5 3.2-2.2 16.3 5.9 27.7 7 9.9 18.7 14.8 19.9 13.3.4-.5-.2-2.3-5.7-8.5 1.6 1.9 4.2 4.4 8 6.1 4.4 2 8.9 2.4 9.1 1.7.2-.5-2.3-1.1-3.7-3.6-.8-1.5-.9-3-.9-4.2 3 3.3 7.1 6.6 11.8 6.5 12.9-.5 22-26.4 25-35 9.7-27.8 5.6-45.5 18.2-52.9 1.1-.6 6.1-3.6 10.3-1.6 5.4 2.5 7.3 12.2 4 17.5-2.9 4.5-8.8 4.4-8.7 5.4.2 1.3 10.2 2 19.7-2.2 3.5-1.5 6.3-2.8 8.5-5.8 3.7-5.3 2.9-12.8.7-17.6-4.8-10.3-18-13.2-26.8-12.3z" fill="#161616" stroke="#161616" stroke-width="2" stroke-miterlimit="10"/><path d="M1083.7 240.5c-1.8-.3-4.4-.9-4.4-1.5 0-.3.7-.6.7-.6 0-.1-2.8 2.1-5.6 1.8-1.3-.2-2.3-.9-2.9-1.5 2.2 10.9 4.1 24.1 4.2 39.3.2 19.3-2.3 35.8-5.1 48.5 6 .7 14.6.9 24.5-1.2 6.2-1.3 11.5-3.3 15.6-5.2-6-18.4-7.8-32.4-8.3-41.7-.3-4.4-.6-14.7-.8-19.7-.3-9.2-.6-16.8-.7-21.9-.9.4-2.3 1.1-4.1 1.8-2.4 1-7.4 2.8-13.1 1.9z" opacity=".22" fill="#6d6c6c"/><path d="M1076.3 146.3c10.3 5 16.2 15.8 14.8 26.4-1.7 12.6-12.9 18.5-14 19.1 11.2 4.5 22.4 8.9 33.6 13.4.9-2.6 1.9-6.2 2.4-10.7 1.4-14.2-4.4-24.8-5.7-26.9-2-3.4-9.1-14.9-23.1-19.5-3.1-1.2-5.9-1.6-8-1.8z" fill="#282828"/></g></g></svg>