<svg xmlns="http://www.w3.org/2000/svg" viewBox="0 0 1600 1200"><style>.st0{fill:#e8e8e8}.st1{fill:#ec615b}.st2{fill:#5222d0}.st3{fill:#161616}.st4,.st5{opacity:.15;fill:#6d6c6c}.st5{opacity:.13}.st7,.st8{fill:#fff;stroke:#161616;stroke-width:2;stroke-miterlimit:10}.st8{fill:#161616}.st10,.st9{opacity:.23;fill:#6d6c6c}.st10{opacity:.2}.st12,.st13,.st14{opacity:.18;fill:#6d6c6c}.st13,.st14{opacity:.17}.st14{opacity:.12}</style><g id="background"><path class="st0" d="M734.2 1008.5V896.8c0-1.9-3-1.9-3 0v111.7c0 2 3 2 3 0z"/><path class="st0" d="M733.5 896.6h170.6c1.9 0 1.9-3 0-3H733.5c-1.9 0-1.9 3 0 3z"/><path class="st0" d="M902.6 897.7v105.7c0 1.9 3 1.9 3 0V897.7c0-1.9-3-2-3 0zM744.8 910.7c-3.2-2.5-.9-7.7 3.2-6.4 1.9.6 3.2 2.7 2.2 4.6-1.1 2.1-4 2.3-5.4.4-1.1-1.5-3.7 0-2.6 1.5 2.3 3 6.7 3.9 9.5 1 2.8-2.8 2.2-7.5-1-9.6-2.8-1.9-7-1.6-9.1 1.2-2.1 2.8-1.7 7.1 1.1 9.3 1.5 1.3 3.6-.8 2.1-2zM885.6 908.2c-2.6-4.7 4.2-9.6 7.3-4.6 2.9 4.7-3.8 8.5-7.1 4.9-1.3-1.4-3.4.7-2.1 2.1 2.6 2.8 7 3.1 10.1.9 3.3-2.3 3.7-6.7 1.4-9.9-2.3-3.2-6.6-4.4-9.9-2-3.1 2.3-4.3 6.7-2.3 10.1.9 1.7 3.5.2 2.6-1.5zM752.7 919.4h113c1.9 0 1.9-3 0-3h-113c-1.9 0-1.9 3 0 3zM755.8 925.6h77.4c1.9 0 1.9-3 0-3h-77.4c-1.9 0-1.9 3 0 3zM842 926.3h24.3c1.9 0 1.9-3 0-3H842c-2 0-2 3 0 3zM1278.8 580.4h159.8c1.9 0 1.9-3 0-3h-159.8c-1.9 0-1.9 3 0 3z"/><path class="st0" d="M1363.9 577.7V615c0 1.9 3 1.9 3 0v-37.3c0-1.9-3-1.9-3 0z"/><path class="st0" d="M1318.3 618.3h120.1c1.9 0 1.9-3 0-3h-120.1c-1.9 0-1.9 3 0 3zM1407.1 620.3v36.8c0 1.9 3 1.9 3 0v-36.8c0-1.9-3-1.9-3 0zM645.8 443.6c-3.3-5-1.5-11.7 4.3-13.9 5.4-2 11.7 1.2 13.3 6.8 1.5 5.1-2.1 10.8-7.2 12.2-6.2 1.7-11.9-3.6-12.2-9.6-.1-1.9-3.1-1.9-3 0 .3 7.4 6.8 14 14.5 12.8 7.3-1.1 12.8-9 10.7-16.2-2.1-7.2-10.1-11.6-17.2-8.9-7.5 2.8-10.3 11.6-5.9 18.3 1.1 1.6 3.7.1 2.7-1.5zM629.2 424.4c3.3-5.6 8.1-9.9 14.3-12 1.8-.6 1-3.5-.8-2.9-6.9 2.3-12.5 7.1-16.1 13.4-1 1.7 1.6 3.2 2.6 1.5z"/><path class="st0" d="M640.7 402.6c.7 2.8 1.5 5.5 2.2 8.3.5 1.9 3.4 1.1 2.9-.8-.7-2.8-1.5-5.5-2.2-8.3-.5-1.8-3.4-1-2.9.8z"/><path class="st0" d="M643.1 402c3.3-.3 6.6-.6 9.9-.7.4 0 1.9-.3 2.2-.1.4.3.4 1.8.5 2.2.3 1.7.5 3.4.7 5.1.2 1.9 3.3 1.9 3 0l-.9-7.2c-.2-1.2-.5-2.3-1.7-2.9-1.7-.8-4.1-.2-5.9-.1-2.6.1-5.1.4-7.7.6-2 .3-2 3.3-.1 3.1zM627.1 422.6c-2.1-.8-6.7-3.8-8.4-1.1-1 1.6-.8 4.4-1.1 6.2-.5 3.1-1 6.2-1.5 9.4-.1.7.1 1.3.7 1.7 2.3 1.4 4.5 2 7.2 1.6 1.9-.2 1.9-3.2 0-3-2.1.3-3.8-.1-5.7-1.2.2.6.5 1.1.7 1.7l1.8-11.4c.1-.9.3-1.8.4-2.7.2-1.1-.9-.5 0-.2 1.7.5 3.4 1.3 5.1 1.9 1.8.7 2.6-2.2.8-2.9z"/><path class="st0" d="M622.8 439.9c.1 6.1 2.6 11.8 7.3 15.8 1.5 1.2 3.6-.9 2.1-2.1-4.1-3.5-6.3-8.3-6.4-13.7-.1-1.9-3.1-1.9-3 0z"/><path class="st0" d="M630.5 454.4c-2.9 2.2-7.9 4.8-4.6 8.8 3.3 4 8.9 7 13.4 9.3 1.7.9 3.2-1.7 1.5-2.6-3.2-1.6-6.2-3.4-9-5.6-1.2-.9-4.3-2.7-3.4-4.5.5-1.2 3.2-2.5 4.2-3.3 1.5-1.1-.6-3.2-2.1-2.1z"/><path class="st0" d="M641.2 472.3c1.8-2.5 3.4-5 4.9-7.7 1-1.7-1.6-3.2-2.6-1.5-1.5 2.7-3.2 5.2-4.9 7.7-1.2 1.5 1.5 3 2.6 1.5z"/><path class="st0" d="M643.9 463.3c1.1 2.9 4.3 3.1 7.1 3.5 4 .7 7.9.8 11.7-.5 1.8-.6 1-3.5-.8-2.9-2.4.8-4.9 1-7.5.8-1.2-.1-7.1-.4-7.7-1.8-.6-1.6-3.5-.9-2.8.9z"/><path class="st0" d="M660.1 465.3c.7 2.4 1.1 7.1 3.1 8.8 1.6 1.4 4.6.2 6.2-.2 3.4-.8 6.7-2 9.9-3.4 2.1-1 4.4-1.6 4.7-4.1.2-1.9-2.8-1.9-3 0-.1.6-5.8 2.6-6.1 2.7-1.6.6-3.2 1.1-4.8 1.5-1.9.5-3.7 1.5-5.2-.5-1-1.3-1.3-4.2-1.7-5.7-.8-1.8-3.7-1-3.1.9z"/><path class="st0" d="M683.9 466.4c-.9-3.3-2.3-6.4-4.4-9.1-1.2-1.5-3.8 0-2.6 1.5 1.9 2.5 3.3 5.3 4.1 8.4.5 1.9 3.4 1.1 2.9-.8z"/><path class="st0" d="M677.4 459.1c2.2-.2 3.1-1.9 3.8-3.8 1.2-3.1 2.2-6.3 2.9-9.6.4-1.9-2.5-2.7-2.9-.8-.4 1.9-.9 3.8-1.5 5.7-.2.8-1.4 5.4-2.3 5.5-1.9.2-1.9 3.2 0 3zM657.5 410.4c4.4.9 8 3.2 10.9 6.6 1.2 1.5 3.4-.6 2.1-2.1-3.2-3.8-7.4-6.4-12.2-7.4-1.9-.3-2.7 2.6-.8 2.9z"/><path class="st0" d="M670.3 415.7c1.1-1.4 2.1-2.9 3.2-4.3.6-.9 1.3-1.7 1.9-2.6.9-.4 1.6-.1 2.1.9 2.8 1.9 5.2 5.5 7.5 8-.1-.6-.2-1.2-.2-1.8-1.5 3-3.4 5.7-5.8 8-1.4 1.4.7 3.5 2.1 2.1 2.6-2.6 4.7-5.4 6.3-8.7.3-.6.2-1.3-.2-1.8-2.2-2.3-4.4-4.7-6.5-7-1.1-1.2-2.3-3-4-3.3-3.8-.6-7.1 6.6-8.8 8.9-1.3 1.6 1.3 3.1 2.4 1.6z"/><path class="st0" d="M677 426.5c.8 1.1 1.3 2.3 1.6 3.6.5 1.9 3.4 1.1 2.9-.8-.4-1.5-1-3-1.9-4.3-.5-.7-1.3-1-2.1-.5-.6.3-.9 1.3-.5 2z"/><path class="st0" d="M681 430.7c3-.4 5.9-1 8.8-1.8 1.9-.5 1.1-3.4-.8-2.9-2.9.8-5.9 1.4-8.8 1.8-1.9.3-1.1 3.2.8 2.9z"/><path class="st0" d="M688 428.6c1.4 4.8 2.1 9.7 2.3 14.8.1 1.9 3.1 1.9 3 0-.2-5.3-1-10.5-2.4-15.6-.6-1.9-3.5-1.1-2.9.8z"/><path class="st0" d="M690.5 443.1c-2.4 1-4.8 1.1-7.3.2-1.8-.6-2.6 2.3-.8 2.9 2.9 1 6 .9 8.9-.2 1.8-.7 1-3.6-.8-2.9zM576.3 409.9c-12.9-.8-19.4-15.2-12.6-25.9 5.3-8.5 18.1-10.7 26.1-4.9 7.6 5.6 9.5 17.7 3.8 25.2-6 7.9-17.8 8.7-25.4 2.9-1.5-1.2-3 1.4-1.5 2.6 9.2 7 23.8 5.1 30.2-4.8 6.4-9.9 2.6-24.7-8-30-10.6-5.2-24.5-.5-29.2 10.4-5.4 12.7 3 26.7 16.7 27.6 1.8 0 1.8-3-.1-3.1zM532.9 411.2c-4.2-10.7-4.7-22-.8-32.8.7-1.8-2.2-2.6-2.9-.8-4.1 11.3-3.6 23.3.8 34.4.7 1.8 3.6 1 2.9-.8z"/><path class="st0" d="M517.2 371.3c4.5 1.9 8.9 3.9 13.4 5.8 1.8.8 3.3-1.8 1.5-2.6-4.5-1.9-8.9-3.9-13.4-5.8-1.7-.7-3.3 1.8-1.5 2.6zM517.9 367.7c2.9-4.6 5.8-9.8 9.5-13.9 1-1.1 2.5-3.1 4.2-2.9.8.1 2.3 1.4 3 1.8l7.5 4.5c1.7 1 3.2-1.6 1.5-2.6-3.5-2.1-6.9-4.5-10.6-6.3-1.8-.9-3.1-1.3-4.9-.3-2.3 1.4-4.1 5.2-5.6 7.3-2.5 3.6-4.9 7.2-7.3 10.9-.9 1.6 1.7 3.1 2.7 1.5zM529.9 412.3c-2.6 1.6-7.8 3.5-9.6 6-.8 1.1-.8 1.9-.4 3.2 1 2.7 5.4 6 7.3 8.1l10.5 11.4c.3.4 1 .6 1.5.4 4.2-1.4 7.3-3.9 9.5-7.7 1-1.7-1.6-3.2-2.6-1.5-1 1.7-2.4 3.7-4.2 4.7-2.3 1.2-2.9.8-4.7-.8-2.9-2.4-5.3-5.8-7.9-8.6-1.3-1.4-2.6-2.9-4-4.3-.5-.5-2.7-2.5-2.7-2.9 0-.8 8-4.9 8.7-5.3 1.8-1.1.3-3.7-1.4-2.7z"/><path class="st0" d="M548.4 434.9c8.1 6.1 18 8.6 28 6.6 1.9-.4 1.1-3.3-.8-2.9-9.2 1.8-18.2-.7-25.6-6.3-1.6-1.2-3.1 1.4-1.6 2.6z"/><path class="st0" d="M576 440.4c-.1 5.9-2.1 15.2 6.4 14.6 8.8-.7 17.9-4.3 25.8-8 1.7-.8.2-3.4-1.5-2.6-5.6 2.6-11.4 4.7-17.3 6.2-3 .7-6.5 2.3-8.9.2-2.4-2.1-1.4-7.3-1.4-10.4-.1-2-3.1-2-3.1 0z"/><path class="st0" d="M609.1 445.8c-1.4-5-3.1-9.9-5-14.7-.7-1.8-3.6-1-2.9.8 1.9 4.8 3.6 9.7 5 14.7.5 1.8 3.4 1 2.9-.8z"/><path class="st0" d="M601.6 431.3c4.7 1.8 9.5-4.2 12.5-7.1 4.3-4.1 7.9-8.7 9.9-14.4.6-1.8-2.3-2.6-2.9-.8-1.5 4.4-4.1 8-7.3 11.3-2.1 2.1-8.2 9.3-11.4 8.1-1.8-.7-2.6 2.2-.8 2.9z"/><path class="st0" d="M621.2 411.9c2.8 1.1 5.6 2.2 8.4 3.4 1.6.6 4 2.1 5.8 1.7 3.5-.8 5.2-7.1 6.4-9.9 2.1-4.9 3.8-9.9 5-15.1.7-2.8 2.5-7.1-.5-8.9-1.6-1-3.1 1.6-1.5 2.6 1.1.7-1.8 9.3-2.2 10.6-1.1 3.7-2.5 7.4-4.1 10.9-.7 1.5-1.3 3.4-2.3 4.6-1.6 2-1.5 1.9-4.2 1.3-3.4-.8-6.9-2.7-10.1-4-1.7-.8-2.5 2.1-.7 2.8z"/><path class="st0" d="M647.1 383.3c-5.4-2.4-10.9-3.7-16.8-3.8-1.9 0-1.9 3 0 3 5.3.1 10.4 1.2 15.3 3.4 1.7.7 3.2-1.8 1.5-2.6z"/><path class="st0" d="M630 382.3c2.1-3.1-.5-6.6-2.2-9.3-2.6-4.4-5.7-8.5-8.9-12.5-1.2-1.5-3.3.6-2.1 2.1 2.3 2.8 4.5 5.8 6.6 8.9 1.3 2 5.6 7 4.1 9.3-1.1 1.6 1.5 3.1 2.5 1.5zM544.5 357.4c5.8-4.9 12.8-7.3 20.4-7.5 1.9-.1 1.9-3.1 0-3-8.4.2-16.1 3-22.5 8.4-1.5 1.2.7 3.3 2.1 2.1z"/><path class="st0" d="M564.6 347.4c-1.2-4.4-2.7-8.7-3.7-13.2-1.3-5.5 6.3-4.5 10-4.8 3.5-.3 10.1-2.2 12.3 1.2 2.2 3.5 2.8 9.3 3.2 13.2.2 1.9 3.2 1.9 3 0-.6-6.2-2.3-12-4.9-17.6-.2-.4-.8-.8-1.3-.7-5.1.4-10.1.8-15.2 1.2-2.6.2-6.7-.3-9 1.4-1.8 1.4-1.7 3.7-1.4 5.7.7 4.8 2.7 9.7 4 14.4.6 1.8 3.5 1.1 3-.8z"/><path class="st0" d="M587.3 348.2c2.2.1 4.3.7 6.3 1.6 1.7.8 3.3-1.8 1.5-2.6-2.5-1.1-5.1-1.8-7.8-2-1.9-.1-1.9 2.9 0 3z"/><path class="st0" d="M595.7 348.3c2.6-4.4 4.9-9 6.9-13.7.8-1.8-1.8-3.3-2.6-1.5-2 4.7-4.3 9.3-6.9 13.7-.9 1.6 1.7 3.2 2.6 1.5z"/><path class="st0" d="M601.9 336.1c7.9 3.3 15.3 7.6 22.3 12.7 1.6 1.2 3-1.5 1.5-2.6-7.1-5.3-14.8-9.6-23-13-1.8-.8-2.6 2.1-.8 2.9z"/><path class="st0" d="M624.2 349.6c-1.3 4.2-3.8 7.7-7.6 10.1-1.6 1-.1 3.6 1.5 2.6 4.4-2.8 7.5-6.9 8.9-11.9.7-1.9-2.2-2.7-2.8-.8zM1310.5 911.8c2.7 29 7.5 57.7 14.4 86 .5 1.9 3.4 1.1 2.9-.8-6.8-28-11.6-56.5-14.3-85.2-.2-2-3.2-2-3 0z"/><path class="st0" d="M1312 912.3c14.2 3.8 29.9 2.5 44.4 2.6 16 .1 32 0 48-.2 1.9 0 1.9-3 0-3-15.4.2-30.7.3-46.1.2-14.9-.1-31.1 1.4-45.6-2.5-1.8-.5-2.6 2.4-.7 2.9z"/><path class="st0" d="M1403.6 912.9c-.7 29-4.8 57.7-12.1 85.8-.5 1.9 2.4 2.7 2.9.8 7.4-28.3 11.5-57.4 12.2-86.6 0-1.9-3-1.9-3 0z"/><path class="st0" d="M1324.7 998.5c4.5 2.8 9.5 3.7 14.7 4.2 7.4.7 14.8 1 22.2 1.2 7.2.2 14.4.1 21.6-.2 4.5-.2 9-.6 12.2-4.2 1.3-1.4-.8-3.6-2.1-2.1-3.7 4.2-10.8 3.3-15.9 3.5-5.9.1-11.8.1-17.6-.1-10.5-.3-24.2.7-33.4-4.9-1.8-1-3.3 1.6-1.7 2.6zM1313.7 911.7c30.1 4.8 60.6-.1 90.8 3.5 1.9.2 1.9-2.8 0-3-29.9-3.5-60.2 1.4-90-3.4-1.9-.3-2.7 2.6-.8 2.9z"/><path class="st0" d="M1314.4 941c5.4 11.7 11.2 23.1 17.7 34.3 5.6 9.7 11.6 19.1 19.6 27 1.4 1.4 3.5-.8 2.1-2.1-8.2-8.2-14.3-18-20-28-6.1-10.6-11.6-21.5-16.7-32.6-.9-1.9-3.5-.4-2.7 1.4zM1320.7 911.8c15 31.8 33 62.2 53.6 90.7 1.1 1.5 3.7.1 2.6-1.5-20.7-28.5-38.6-58.9-53.6-90.7-.8-1.8-3.4-.2-2.6 1.5zM1346.7 914.7c12 27.3 27.1 53 45.1 76.7 1.2 1.5 3.8 0 2.6-1.5-18-23.7-33.1-49.4-45.1-76.7-.7-1.8-3.3-.3-2.6 1.5zM1367.9 914.2c8 17.8 17.9 34.6 29.6 50.2 1.1 1.5 3.7 0 2.6-1.5-11.7-15.6-21.6-32.4-29.6-50.2-.8-1.7-3.4-.2-2.6 1.5zM1388.6 916c3.9 7.9 8.2 15.6 12.9 23.1 1 1.6 3.6.1 2.6-1.5-4.7-7.5-9-15.2-12.9-23.1-.9-1.7-3.5-.2-2.6 1.5z"/><path class="st0" d="M1337.5 910.3c-12.5-9.4-21.7-22.2-26.7-37-.2.6-.5 1.1-.7 1.7l5.7-3c.9-.5.9-1.6.3-2.4-9.3-11.3-7.2-29.6-8.2-43.4-1.2-16.1-2.9-32.1-5-48.1-.8.4-1.5.9-2.3 1.3 19.6 13 31.5 33.8 40.1 55.1 9.7 24 18.2 49.9 17.6 76.1 0 1.9 3 1.9 3 0 .6-27.4-8.4-54.8-18.9-79.8-8.8-21-20.9-41.2-40.3-54-.9-.6-2.4.2-2.3 1.3 2.4 18 4.2 36 5.4 54.1.9 13.3-.3 28.6 8.6 39.6l.3-2.4-5.7 3c-.6.3-.9 1.1-.7 1.7 5.3 15.6 15 29 28.1 38.8 1.7 1.1 3.2-1.5 1.7-2.6z"/><path class="st0" d="M1355.4 864.2c2.8-6.3 5.7-12.7 8.5-19 1.3-2.9 2.6-5.8 3.9-8.6 1-2.2 4.6-12.7 8.9-8 .8.9 2.2.4 2.5-.7 4.2-12.6 13.8-21.8 22.5-31.3 9.2-10 17.8-20.6 25.6-31.6-.9-.3-1.9-.5-2.8-.8-.2 40-1.3 85.9-33.7 114.4-.9.8-.3 2.2.7 2.5 9 3 2.7 13.7-.9 18.3-3.3 4.2-7.1 8-11.1 11.5-1.5 1.3.7 3.4 2.1 2.1 6.2-5.4 14.1-12.6 16.8-20.7 1.9-5.7-.1-12.1-6-14.1.2.8.4 1.7.7 2.5 33-29.1 34.4-75.8 34.6-116.6 0-1.6-2-1.9-2.8-.8-8.7 12.2-18.2 23.6-28.4 34.5-8.2 8.7-16.2 17.6-20 29.1.8-.2 1.7-.4 2.5-.7-4.8-5.2-10 .7-12.1 5.1-4.8 10.3-9.3 20.7-14 31.1-.9 2 1.7 3.6 2.5 1.8zM1310.2 798.1c18.6 36.1 31.7 74.8 39 114.8.3 1.9 3.2 1.1 2.9-.8-7.3-40.2-20.6-79.2-39.3-115.5-.9-1.7-3.5-.2-2.6 1.5z"/><path class="st0" d="M1362.8 908.5c10.6-33.2 29-63 47.3-92.5 1-1.6-1.6-3.2-2.6-1.5-18.4 29.7-36.9 59.7-47.6 93.2-.5 1.8 2.3 2.6 2.9.8z"/><path class="st0" d="M1390.9 803.8c-5.5 19.1-8.9 38.6-10.4 58.5-.1 1.9 2.9 1.9 3 0 1.5-19.5 4.9-38.8 10.3-57.7.5-1.8-2.3-2.6-2.9-.8zM1306.9 836.6c14.4 7.2 25.7 18.7 32.6 33.3.8 1.7 3.4.2 2.6-1.5-7.1-14.9-18.9-27-33.7-34.3-1.7-.9-3.2 1.7-1.5 2.5zM1331.3 816.5c-1.1 8.1-1.8 16.3-2.2 24.5-.1 1.9 2.9 1.9 3 0 .4-8.2 1.2-16.3 2.2-24.5.3-2-2.7-1.9-3 0zM1413.4 779.7c-4 11.6-6.4 23.6-7.2 35.8-.1 1.9 2.9 1.9 3 0 .8-12 3.2-23.7 7.1-35 .7-1.8-2.2-2.6-2.9-.8zM343.1 595.6c11 5 23.7 8.6 35.2 3.2 10.5-4.9 17.4-15.5 28.3-19.5 14-5 27.4 5.6 40.4 9.2 13.4 3.7 27.6 2.6 40.4-2.6 1.8-.7 1-3.6-.8-2.9-13.4 5.5-28.3 6.3-42.1 1.6-11.2-3.8-22.2-11.3-34.5-9.2-10.2 1.7-17.4 9.8-25.2 15.8-5.3 4.1-11.1 7-17.9 7.3-7.7.3-15.3-2.4-22.2-5.5-1.8-.8-3.3 1.8-1.6 2.6zM425.3 558.8c9.6 5.4 20.5 7.8 31.5 6.7 11.8-1.2 20.9-6.8 30.8-12.9 21.7-13.3 48.7-15.2 72.2-5.6 1.8.7 2.6-2.2.8-2.9-20.4-8.4-43.8-8.3-64.1.4-11.4 4.9-20.8 13.7-33 16.7-12.4 3.1-25.6 1.1-36.7-5.1-1.7-.8-3.2 1.8-1.5 2.7zM650.8 646.3h140.8c1.9 0 1.9-3 0-3H650.8c-1.9 0-1.9 3 0 3z"/><path class="st0" d="M698 671.5v-27c0-1.9-3-1.9-3 0v27c0 2 3 2 3 0zM747.9 642.1v-33.5c0-1.9-3-1.9-3 0v33.5c0 1.9 3 1.9 3 0zM705.5 602.7h73.6c1.9 0 1.9-3 0-3h-73.6c-1.9 0-1.9 3 0 3z"/><path class="st1" d="M849.9 374.6c-16.9-18.4 14.8-54.1 32.9-32 7.4 9 8.3 22.5 2.5 32.5-6 10.5-21.2 14.5-30.1 5.2-1.3-1.4-3.5.7-2.1 2.1 7 7.3 18.6 8 27 2.6 9.5-6.1 13.2-18.4 11.7-29.2-1.4-9.8-7.9-20-17.7-22.9-10.5-3-20.9 4.4-26.5 12.9-6.1 9.4-7.7 22.2.3 30.9 1.2 1.4 3.3-.7 2-2.1zM885.1 409.8c-1.1-2.6 0-5.8 2.3-7.4 2.7-1.9 6.1-.7 7.8 1.9 3.6 5.5-3.4 10.9-8.4 7.7-1.6-1.1-3.1 1.5-1.5 2.6 3.5 2.3 8.2 1.7 11.3-1.1 3.4-3.1 3.3-8.2.5-11.7-6.7-8.1-18.4.4-14.6 9.5.7 1.7 3.3.2 2.6-1.5zM241.6 989.7c-.6-3.9 2.4-7.4 6.1-7.9 3.3-.4 5.3 2.2 7.6 3.9 2.4 1.8 5.6 3.4 8.7 2 3.6-1.8 2.7-6.9 6.6-8.5 6.3-2.7 11.4 3.7 14.8 8 .8 1 2.6.2 2.6-1.1-.3-8.8 14.3-3.2 19-3.3 1.9 0 1.9-3 0-3-5.5.1-11-3.1-16.5-1.1-3.4 1.2-5.7 3.8-5.6 7.4.9-.4 1.7-.7 2.6-1.1-3.8-4.8-8.4-10.1-15.2-9.5-2 .2-4 .9-5.5 2.3-2.3 2.1-2.5 7.7-6.7 7.1-3.2-.5-5.5-4.6-8.5-5.8-2.2-.9-4.6-.8-6.8.2-4.4 1.9-6.8 6.3-6 11 .2 2.1 3.1 1.3 2.8-.6zM237.3 976.5c1.5-4 3.5-8.9 8.4-9.1 3.1-.1 6.3 1.9 9 3.1 4 1.6 8.2 2.5 11.7-.6 4.2-3.7 6-13.1 12.9-7.5 3.4 2.8 5.9 6.3 10.7 6.6.9 0 1.4-.7 1.5-1.5.4-4.5 3.7-8 8.2-8.5 1.9-.2 1.9-3.2 0-3-6.3.8-10.6 5.2-11.2 11.5l1.5-1.5c-5.8-.3-8.2-7.8-14-8.5-6-.8-7.7 5.6-10.8 9.3-5.3 6.2-13.7-2.6-20.2-2.3-6.2.3-8.9 6.2-10.7 11.3-.6 1.7 2.3 2.5 3 .7z"/><path class="st2" d="M602.9 804c-4.5-7.7 3.5-18.1 12-13.4 9.7 5.3 4 19.4-6.5 17.3-1.9-.4-2.7 2.5-.8 2.9 13.1 2.6 21.5-14.6 9.7-22.3-11.1-7.2-23.3 6.1-17 17 1 1.7 3.6.2 2.6-1.5zM622.5 823.7c-.2-3 1.4-6.9 5-6.7 1.6.1 3.4 1.1 3.5 2.8.1 1.6-1.5 3.3-3.1 3-1.9-.4-2.7 2.5-.8 2.9 6.3 1.3 9.4-7.5 3.9-10.7-6.1-3.6-11.9 2.7-11.5 8.7.1 2 3.1 2 3 0z"/></g><g id="ground"><path class="st3" d="M610.8 1011.6H965c1.9 0 1.9-3 0-3H610.8c-1.9 0-1.9 3 0 3zM812.5 1025.7h321.4c1.9 0 1.9-3 0-3H812.5c-1.9 0-1.9 3 0 3zM1058.8 1009.2h387c1.9 0 1.9-3 0-3h-387c-1.9 0-1.9 3 0 3zM1274.6 1024.5H1454c1.9 0 1.9-3 0-3h-179.4c-1.9 0-1.9 3 0 3zM202.7 1032.7h282.6c1.9 0 1.9-3 0-3H202.7c-1.9 0-1.9 3 0 3zM296.5 1050.3h192.3c1.9 0 1.9-3 0-3H296.5c-1.9 0-1.9 3 0 3zM641.3 1057.3h229.9c1.9 0 1.9-3 0-3H641.3c-1.9 0-1.9 3 0 3zM480.6 1104.2H687c1.9 0 1.9-3 0-3H480.6c-1.9 0-1.9 3 0 3zM961.5 1071.4h182.9c1.9 0 1.9-3 0-3H961.5c-2 0-2 3 0 3z"/></g><g id="shadows"><path class="st4" d="M890.4 1057.6c-4 24.5 48.6 51.9 75.6 66 65.5 34.2 186.3 63.6 268.2-6.4 14.6-12.5 48.3-45.5 62.8-109.6-324.2-4.7-402.1 22.2-406.6 50z"/><path class="st5" d="M954.3 1089.5c.7 12 23.9 20.4 38.3 25.5 47 16.9 90.9 2 120.3-8.5 67.2-23.9 143.3-76.7 135.1-95.8-14.4-33.8-296.1 36.2-293.7 78.8z"/><path class="st4" d="M617 1006.5c-55.8 56.3-111.7 112.5-167.5 168.8-60.5-20-121.1-40.1-181.6-60.1 116.3-36.3 232.7-72.5 349.1-108.7z"/></g><g id="robot"><path d="M389.5 755.3c-2.6 5.5.2 12.8 5.8 26.9 3 7.6 6 13.7 8.2 17.8l23.1-8.7c-2.3-2.6-5.7-7.1-8.2-13.5-6.2-16.1.5-27.4-5.3-31.8-5.6-4.1-19.6.7-23.6 9.3z" fill="#fff"/><path class="st7" d="M469 1079.3c8 5.7 24.2-11.9 33.5-6.1 4.2 2.6 2.2 7.1 6.9 10.1 5 3.3 10.6.2 25-3.6 17.5-4.6 26.5-6.9 33.1-2.4 5.8 3.9 6.4 10.9 9.3 10.5 2.6-.4 5.1-6.7 3.2-10.9-3.8-8.2-24-6.4-27.8-6.1-19.5 1.8-27.5 10.3-34.3 5.6-6.2-4.3-2.4-13.4-8.9-16.9-4.6-2.5-7.8 1.6-23.8 5.2-11.6 2.6-17.5 2.2-19 6.1-1 2.6.1 6.7 2.8 8.5zM546 1037.8c8.2 3.4 13.9-1.4 22.6-2.4 18.4-2.2 25.5 15.3 38.3 10.9 9-3.1 15-15 12.9-17.7-.9-1.2-3.3-.9-5.2-.4-.2 1.4-1.7 11.1-8.1 13.3-3.4 1.2-6.8-.2-12.9-2.8-7.3-3.1-8-5-12.9-6.9-4.5-1.7-6.4-.9-17.7-.8-16.7.2-23.2-1.2-23.8.8-.5 1.6 3.2 4.5 6.8 6z"/><path class="st3" d="M531.3 1052.2c12-1.9 23.7-3.6 34.4-9.6 9.1-5.1 16.8-12.4 22.7-21 1.1-1.6-1.5-3.1-2.6-1.5-5.9 8.6-13.7 15.7-22.9 20.6-10.1 5.4-21.2 6.8-32.3 8.6-2 .3-1.2 3.2.7 2.9z"/><path class="st8" d="M304.9 676.6c-4 3.2-8 6.4-12 9.5 10.1 34.4 20.1 68.7 30.2 103.1l141.6-47.1c.8-3.1 1.6-6.2 2.5-9.2-54.2-18.8-108.3-37.5-162.3-56.3zM297.1 853.7c15.2-9.8 30.5-19.6 45.7-29.3 36.8 89.5 73.5 179.1 110.3 268.6-16 7.8-32.1 15.6-48.1 23.5-21.6-38.2-44-82.9-64.5-133.7-18.7-46.3-32.7-89.7-43.4-129.1z"/><path class="st7" d="M340.6 824.4c7.1 30 15.9 61.8 27 95 22.9 68.8 50.3 128.4 77.4 178.3 62.6-34.4 125.1-68.8 187.7-103.2-21.2-47.3-42.1-101.8-59.8-163-10.2-35.3-18.3-69.1-24.6-100.9-69.3 31.3-138.5 62.5-207.7 93.8z"/><path class="st3" d="M436.7 931.1c6.5 23.1 15.9 45.1 27.9 65.8 1 1.7 3.6.2 2.6-1.5-12-20.5-21.2-42.3-27.6-65.1-.5-1.8-3.4-1-2.9.8z"/><path class="st3" d="M438.3 930c33.3-15.7 66.9-30.7 100.9-44.9 1.8-.7 1-3.6-.8-2.9-34.2 14.3-68.1 29.3-101.7 45.2-1.7.9-.2 3.4 1.6 2.6z"/><path class="st3" d="M538.3 885c7.7 21.9 16.4 43.4 26 64.5.8 1.8 3.4.2 2.6-1.5-9.6-20.9-18.1-42.1-25.7-63.8-.6-1.8-3.5-1-2.9.8zM467.4 998c5.6-4 11.6-7 18.2-8.9 1.8-.5 1.1-3.4-.8-2.9-6.8 2-13.2 5.1-18.9 9.2-1.6 1.1-.1 3.7 1.5 2.6z"/><path class="st3" d="M479.7 988c.6-7 3.1-14.2 9.1-18.4 6-4.2 13.8-4.1 19.2 1 9.2 8.8 11.3 25.2 11.2 37.2 0 1.9 3 1.9 3 0 .1-13.7-2.9-37.1-17.8-43.1-15.4-6.2-26.6 9.9-27.7 23.3-.1 1.9 2.9 1.9 3 0z"/><path class="st3" d="M487.8 986.7c.4-6.6 8.9-13.8 14.7-8.9 3.7 3.1 5.4 8.6 6.4 13.2 2.2 9.8.9 20-.9 29.8-.3 1.9 2.5 2.7 2.9.8 2.5-13.6 4.9-31.5-4.1-43.4-3-3.9-7.7-6.6-12.5-4.4-4.6 2-9.2 8-9.5 13.1-.1 1.7 2.9 1.7 3-.2z"/><path class="st3" d="M507.6 1021.5c1.5 3.7 5.6 3.2 8 .6 3.6-3.8 5.7-9.4 6.6-14.5.3-1.9-2.6-2.7-2.9-.8-.5 2.9-1.3 5.6-2.6 8.2-.4.8-5 8.5-6.2 5.6-.7-1.7-3.6-.9-2.9.9zM505.9 967.3c4.4-6 9.5-12.2 16.7-15.1 8.2-3.2 14.8-.8 20.7 5.2 3.6 3.6 6.9 6.3 12.2 6.8 4.4.4 8.7-.1 12.2 3.3 2.8 2.7 4.4 6.5 5.8 10 .7 1.8 3.6 1 2.9-.8-2.3-5.7-5.3-12.4-11.6-14.6-5.2-1.7-10.6.1-15.3-3.3-3.1-2.2-5.3-5.4-8.4-7.7-14.2-10.5-29.5 3.5-37.7 14.6-1.2 1.7 1.4 3.2 2.5 1.6z"/><path class="st3" d="M511.4 970.9c4.9-6.5 16.8-18.1 24.7-9.7 3.6 3.8 5.8 8.6 11.5 9.3 4.8.6 9.2-2 13.7 1 3.6 2.4 3.9 7 7.3 9.4 3.4 2.4 8.2.6 7.7-3.9-.2-1.9-3.2-1.9-3 0-2.6 1.8-4.3 1.4-5.1-1.4-.5-1.1-1.1-2.1-1.7-3.1-.7-1-1.4-1.8-2.4-2.6-2.1-1.8-4.9-2.9-7.7-3-4.6-.2-9 2-13-1.6-2-1.8-3.4-4.3-5.2-6.3-9.5-10.3-23.2 2.2-29.4 10.3-1.1 1.6 1.5 3.1 2.6 1.6z"/><path class="st3" d="M513.3 974.3c7.4-5.4 15.4-9.6 24.1-12.6 1.8-.6 1-3.5-.8-2.9-8.9 3-17.2 7.3-24.8 12.9-1.6 1.1-.1 3.7 1.5 2.6zM546.3 958.6c7-2.7 13.9-5.7 20.5-9.2 1.7-.9.2-3.5-1.5-2.6-6.4 3.3-13 6.3-19.8 8.9-1.8.7-1 3.6.8 2.9zM512.5 957.3c6-20.1 17.4-39 35.9-49.8 1.7-1 .2-3.6-1.5-2.6-19.2 11.2-31 30.7-37.3 51.6-.5 1.9 2.4 2.7 2.9.8z"/><path class="st3" d="M521.1 950.8c6.7-14.5 14.7-29.3 28.9-37.7 1.7-1 .2-3.6-1.5-2.6-14.7 8.7-23.1 23.8-30 38.8-.8 1.7 1.8 3.2 2.6 1.5zM458.3 978.5c7.7-.6 15.4-1.4 23.2-.3.9.1 1.4-1.3.4-1.4-7.9-1.1-15.7-.4-23.5.2-1 .1-1 1.6-.1 1.5zM454.8 972.8c9.6-2.4 19.2-2.2 28.8.5.9.3 1.3-1.2.4-1.4-9.8-2.8-19.7-3-29.6-.5-1 .2-.6 1.7.4 1.4zM511.2 955.1c-1.3 2.5-2.7 4.9-4 7.4-.5.8.8 1.6 1.3.8 1.3-2.5 2.7-4.9 4-7.4.4-.9-.9-1.7-1.3-.8zM550.5 915.3c2.5 8.1 1.9 15.8-1.2 23.6-1 2.5-2.3 5.2-2.2 8 .1 2.9 2.1 4.8 2.5 7.6.1 1 1.6.5 1.4-.4-.3-1.8-.5-1.8-1-3.4-1.2-3.7-1.6-4.8-.5-8.4 1.1-3.3 2.7-6.3 3.4-9.7 1.3-6 .9-12-1-17.8-.3-.8-1.7-.4-1.4.5z"/><path class="st3" d="M555.7 928.6c1.7 8-7.8 17.3-.8 24.3.7.7 1.7-.4 1.1-1.1-6.3-6.3 2.8-16.1 1.2-23.7-.3-.9-1.7-.5-1.5.5zM463.7 989.7c4.5-1.4 9-2 13.6-1.8 1 0 1-1.5 0-1.5-4.8-.1-9.4.5-14 1.9-1 .2-.6 1.6.4 1.4zM460.8 986.9c5.8-1.2 11.6-1.9 17.5-1.9 1 0 1-1.5 0-1.5-6.1.1-12 .7-17.9 2-1 .2-.6 1.6.4 1.4zM487.9 986.9c5.7-3.2 11.6-5.9 17.6-8.3.9-.3.5-1.8-.4-1.4-6.2 2.4-12.2 5.2-18 8.4-.8.5-.1 1.8.8 1.3z"/><path class="st3" d="M486.7 986.4c6.4-2.8 12.7-5.5 19.1-8.3.9-.4.1-1.7-.8-1.3-6.4 2.8-12.7 5.5-19.1 8.3-.9.4-.1 1.7.8 1.3z"/><path class="st3" d="M487.1 987.2c6.4-2.9 12.8-5.9 19.3-8.8.9-.4.1-1.7-.8-1.3-6.4 2.9-12.8 5.9-19.3 8.8-.9.4-.1 1.7.8 1.3zM482.1 930.2c-4.2 13.2-3.1 27.2 3.2 39.6.4.9 1.7.1 1.3-.8-6.1-12-7.1-25.6-3.1-38.5.4-.9-1.1-1.3-1.4-.3z"/><path class="st3" d="M482.9 930.5c1.6-.5 3.1-.6 4.7-.4 1 .1.9-1.4 0-1.5-1.7-.2-3.5-.1-5.1.5-.9.3-.5 1.7.4 1.4z"/><path class="st3" d="M486.2 929c-2.3 12.9-3.4 26.2 3.5 37.9.5.8 1.8.1 1.3-.8-6.7-11.3-5.6-24.3-3.4-36.8.2-.8-1.3-1.2-1.4-.3zM481.7 926.4c-1-.8-2-1.7-2.9-2.5-.7-.6-1.8.4-1.1 1.1 1 .8 2 1.7 2.9 2.5.8.6 1.9-.5 1.1-1.1zM483.9 923.2c-.3-.8-.7-1.6-1-2.5-.1-.4-.5-.6-.9-.5-.4.1-.7.5-.5.9.3.8.7 1.6 1 2.5.1.4.5.6.9.5.3 0 .7-.5.5-.9zM488 925.1c.1-1 .6-2 1.5-2.6.8-.6 0-1.9-.8-1.3-1.2.9-2 2.1-2.2 3.5-.1.4.1.8.5.9.4.1.9-.1 1-.5zM490.1 927.9c.8.7 1.7.9 2.7.7.9-.2.5-1.7-.4-1.4-.4.1-.9 0-1.2-.3-.8-.7-1.9.4-1.1 1zM465.4 779.5c2.5 6.6 5.1 13.2 7.6 19.8.3.9 1.8.5 1.4-.4-2.5-6.6-5.1-13.2-7.6-19.8-.3-.9-1.7-.5-1.4.4z"/><path class="st3" d="M466.3 779c18.1-7.5 36.1-15.3 53.8-23.5.9-.4.1-1.7-.8-1.3-17.7 8.2-35.5 16-53.5 23.4-.8.3-.4 1.8.5 1.4zM474.8 800c18-7.7 35.5-16.4 52.6-26 .8-.5.1-1.8-.8-1.3-17.1 9.6-34.6 18.3-52.6 26-.8.4 0 1.7.8 1.3z"/><path class="st3" d="M520 755.1c2.9 5.7 5.3 11.5 7.4 17.5.3.9 1.8.5 1.4-.4-2.1-6.1-4.6-12.1-7.6-17.9-.3-.8-1.6 0-1.2.8zM500.2 783.1c8.2-3.4 15.9-7.6 23.4-12.4.8-.5.1-1.8-.8-1.3-7.3 4.8-15 8.8-23 12.2-.9.4-.5 1.8.4 1.5zM618.5 992c-1.7-.3-2.9-2-2.1-3.7.9-1.8 3.3-1.8 4.7-.6 1.2 1.1 1.7 2.9.5 4.2-.9.9-2.6 1.3-3.7.4-.7-.6-1.8.5-1.1 1.1 1.8 1.4 4.3 1.1 5.9-.5 1.9-2 1-5-1-6.5-2.2-1.6-5.5-1.2-6.7 1.4-1.2 2.5.4 5.2 3.1 5.7 1 .1 1.4-1.3.4-1.5zM448.8 1087.3c-2.5-.9-2.4-4-.9-5.8.6-.7 1.5-1.3 2.3-1.7 1.7-.8 2.7.8 3.2 2.2.7 1.9.8 4.5-1 5.9-1.5 1.1-3.9 1.2-4.9-.5-.5-.8-1.8-.1-1.3.8 1.4 2.5 4.8 2.7 7 1 2.9-2.2 2.4-6.7.6-9.5-2-3.2-5.9-1.1-7.7 1.4-1.8 2.6-1 6.5 2.1 7.5 1.2.4 1.5-1 .6-1.3zM351.8 830.4c-1.4.5-1.6-1.2-1.3-2.1.3-.7.8-1.2 1.4-1.6 1.3-.7 3-.6 3.9.6.8 1 1 2.7-.1 3.5-1 .8-2.5.6-3.4-.4-.6-.8-1.7.3-1.1 1.1 1.4 1.8 4.4 1.7 5.9 0 1.6-1.9.8-4.9-1.2-6.2-2.2-1.3-5.2-.4-6.5 1.7-.7 1.1-1 2.7-.2 3.8.7 1 1.8 1.4 2.9 1 1-.3.6-1.7-.3-1.4zM538.2 748.5c-1.2-1.4-2.1-3.6-1.1-5.3.7-1.2 2.5-2 3.7-1.2 1.3.9 1.6 3.1 1 4.5-.7 1.7-2.9 2.6-4.3 1.2-.7-.7-1.8.4-1.1 1.1 1.7 1.7 4.7 1.4 6.1-.6 1.5-2 1.4-5.6-.6-7.2-1.8-1.5-4.5-.7-5.8 1-1.8 2.4-.7 5.5 1 7.6.7.7 1.8-.4 1.1-1.1zM430.5 933.3c6.9 22.9 17.5 44.3 28.2 65.6.4.9 1.7.1 1.3-.8-10.7-21.2-21.3-42.4-28.1-65.2-.3-.9-1.7-.5-1.4.4zM428.7 925.1c15.1-7 30.2-14 45.2-21.1.9-.4.1-1.7-.8-1.3-15.1 7.1-30.1 14.1-45.2 21.1-.8.4 0 1.7.8 1.3zM451.5 909.6c8.3-3.5 16.2-7.5 23.8-12.3.8-.5.1-1.8-.8-1.3-7.5 4.7-15.3 8.7-23.5 12.1-.8.5-.4 1.9.5 1.5zM460 777.9c1.8 4.9 3.7 9.8 5.5 14.7.3.9 1.8.5 1.4-.4-1.8-4.9-3.7-9.8-5.5-14.7-.3-.9-1.7-.5-1.4.4zM520.8 1048.2c26-15.3 52.3-30.2 78.8-44.6.8-.5.1-1.8-.8-1.3-26.5 14.4-52.8 29.3-78.8 44.6-.8.5 0 1.8.8 1.3z"/><path class="st3" d="M530.6 1040.8c1.6 2.2 3.2 4.5 4.8 6.7.6.8 1.9 0 1.3-.8-1.6-2.2-3.2-4.5-4.8-6.7-.5-.7-1.8 0-1.3.8zM582.5 1012l4.8 7.2c.5.8 1.8 0 1.3-.8l-4.8-7.2c-.6-.8-1.9 0-1.3.8z"/><path class="st7" d="M304.7 677.6c9.4 33.1 18.7 66.1 28.1 99.2 44.9-14.7 89.8-29.3 134.7-44-9.2-30.2-18.4-60.5-27.6-90.7-45 11.8-90.1 23.7-135.2 35.5z"/><path class="st3" d="M388.8 766.1c1.9 10.7 5.2 20.9 10 30.7.9 1.7 3.4.2 2.6-1.5-4.7-9.5-7.9-19.5-9.7-30-.4-1.9-3.3-1.1-2.9.8zM411.3 759.4c1.8 9.9 3.8 19.8 9.5 28.3 1.1 1.6 3.7.1 2.6-1.5-5.6-8.3-7.5-18-9.2-27.6-.4-1.9-3.2-1.1-2.9.8z"/><path class="st3" d="M394.6 777.8c3-6.1 13.4-10.5 19.9-10 1.4.1 1.4-2.1 0-2.3-4.7-.4-8.9 1.5-13 3.5-3.6 1.8-6.9 3.8-8.8 7.6-.7 1.4 1.3 2.5 1.9 1.2zM397.3 787.8c2.3-3.2 5.6-5.1 9.2-6.5 3-1.2 7.6-3.4 10.8-1.8 1.3.6 2.4-1.3 1.1-1.9-4-2-8.6 0-12.5 1.6-4.2 1.7-7.8 3.8-10.5 7.5-.9 1.1 1 2.3 1.9 1.1zM333.3 695.6c10.4 3.6 20.8 7.3 31.2 10.9 1.8.6 2.6-2.3.8-2.9-10.4-3.6-20.8-7.3-31.2-10.9-1.8-.7-2.6 2.2-.8 2.9z"/><path class="st3" d="M340.8 714.4c7-8.7 14.3-17.1 21.7-25.3 1.3-1.4-.8-3.6-2.1-2.1-7.5 8.2-14.7 16.7-21.7 25.3-1.2 1.4.9 3.6 2.1 2.1zM407.7 675.6c9.1 5.5 18.3 10.8 27.5 16.1 1.7 1 3.2-1.6 1.5-2.6-9.2-5.3-18.4-10.6-27.5-16.1-1.6-1-3.2 1.6-1.5 2.6z"/><path class="st3" d="M429.9 668.3c-7.1 8.1-13.9 16.5-20.5 25.1-1.2 1.5 1.4 3 2.6 1.5 6.4-8.4 13.1-16.5 20-24.5 1.3-1.4-.9-3.5-2.1-2.1zM375.2 728.1c13.2-3.9 26.4-7.7 39.7-11.6 1.8-.5 1.1-3.4-.8-2.9-13.2 3.9-26.4 7.7-39.7 11.6-1.8.6-1 3.5.8 2.9zM338.9 769.6c-1.1-.7-1.4-2.4-.6-3.4.9-1.1 2.7-1 3.6 0 .9 1 .6 2.9-.5 3.7-1.2.8-2.7.4-3.6-.7-.6-.7-1.7.3-1.1 1.1 1.4 1.7 4.3 2.1 6 .5 1.6-1.5 1.7-4.3.1-5.8-1.6-1.5-4.4-1.3-5.7.4-1.4 1.8-.8 4.4 1.1 5.6.8.4 1.5-.9.7-1.4zM439.3 735.9c.6 1.3 1.1 2.7 1.7 4 .4.9 1.8.5 1.4-.4-.6-1.3-1.1-2.7-1.7-4-.4-.8-1.8-.5-1.4.4z"/><path class="st3" d="M440.2 736.5c8.4-2.9 16.7-5.7 25.1-8.6.9-.3.5-1.8-.4-1.4-8.4 2.9-16.7 5.7-25.1 8.6-.9.2-.5 1.7.4 1.4z"/><path class="st9" d="M453.6 775.2c-7.3 14.2-16.9 35.9-23.9 63.5-10.1 39.7-23.6 92.8 1.8 141.7 25.2 48.4 75.3 66.9 93.8 72.7-26.1 14.4-52.1 28.8-78.2 43.2-20-34.8-40.9-75.9-59.8-123.3-22-55-36.4-105.9-46.1-149.9 37.6-15.9 75-31.9 112.4-47.9z"/><path class="st10" d="M437.6 929.5c9.5 22.3 18.9 44.6 28.4 66.9 33.4-16.2 66.7-32.4 100.1-48.6-9-21.7-18-43.3-26.9-65-33.9 15.5-67.8 31.1-101.6 46.7z"/><path d="M493.9 969.9c5.9-1.8 11.4 2.1 12.5 2.9 7.1 5.2 8.1 14.7 9.1 25 .6 5.5.8 13.9-1 24.1-1.8.3-3.5.6-5.3 1 1-3.5 8.7-32.2-3.8-43.3-1.3-1.1-4.9-4.3-9.1-3.8-7.9.9-11.5 13.4-12.5 13-1.1-.6.4-16 10.1-18.9z" opacity=".21" fill="#6d6c6c"/><path class="st9" d="M507.8 968.4c-.6-.5 4.6-11.6 15.4-14.4 1.4-.4 7.3-1.8 13.5 1 6.8 3 5.8 7.4 12 10.6 7.3 3.7 11.4-.9 17.8 2.9 6.8 4 8 13.5 7.2 14-1 .5-5.1-11.6-13.5-12.5-3.2-.3-5 1.2-10.6.5-2.4-.3-4.5-.6-6.7-1.9-4.2-2.5-3.8-5.6-7.2-8.2-3.8-2.9-8.8-2.2-11.1-1.9-10.4 1.2-16.2 10.5-16.8 9.9z"/><path class="st10" d="M376 660c-2.6 2.6-19.5 20.1-17.3 45.7 1.9 22.2 17.3 41.8 39.5 50-21.3 6.6-42.7 13.2-64 19.7-9.3-32.7-18.6-65.4-27.9-98.2 23.2-5.6 46.4-11.4 69.7-17.2z"/></g><g id="girl"><g id="leg_right"><path class="st3" d="M1082.9 1041.8c17.3-11.7 34.5-23.4 51.8-35.1 10.5.8 26.4 1 45.1-2.9 20-4.2 45.6-13.7 44.7-19.6-.1-.9-1-2.6-12.9-5.4-17.7-4.2-31.7-4.2-41.8-4.6-8-.3-19.7-1.1-34.2-3.3-21.6 12.7-43.1 25.3-64.7 38 3.9 10.9 7.9 21.9 12 32.9z"/><path class="st1" d="M1038.7 816.3c-9.4 8.6-8.5 19.5-14 36.1-5.6 17-15 31-59.7 71.5-69.4 62.9-86.3 65.1-92.1 90.6-5.3 23.4 2.2 50.7 19.2 67.1 22.5 21.6 55.4 18.1 79.6 15.5 60.8-6.6 105-40.7 128.2-62.6-1.7-13.5-3.4-27-5.2-40.5 10.3-10.5 23.7-27.2 32.4-50.9 21.4-58.3-3.7-111.4-9.6-123.1-27.9-10.9-61.6-19.3-78.8-3.7z"/><path class="st12" d="M1076.5 806.3c-5.5 23.1-13.7 40.7-20.1 52.3-10.5 19-21.6 31.9-32.7 44.5-12 13.8-18.3 19-37.1 37.1-56.5 54.4-58.8 64.4-59.4 70.5-.7 8.7.7 27.6 29.2 52.7 18.2-14.3 34.3-22.7 45.3-27.7 27.8-12.7 41.5-11.8 68.5-27.2 11.5-6.5 21.9-12.3 32.3-23.2 27.9-29.3 31.1-66.6 32.3-79.9 3.5-40.7-10.7-72.2-18.1-86.1-13.4-4.3-26.8-8.7-40.2-13z"/><path class="st13" d="M1112.2 972.6c-34.2 10.2-78.1 28.2-121.6 61.6-12.9 9.9-24.3 20.1-34.3 30 34.6-5.5 70.4-12.3 107.4-20.7 12.4-2.8 24.5-5.7 36.5-8.7-2-13.4-4-26.9-6-40.3 6-7.4 12-14.7 18-21.9z"/><path class="st14" d="M1098.6 813.4c6.9 9.4 17.2 26 22.4 49.1 6.1 27.3 1.8 49.1-.5 60-9.7 45.5-37.9 75-51.2 87.2 8.6-4.1 21.7-11.7 33.8-25.1 17.4-19.1 23.1-39.2 26.2-50.7 13.7-50.6-5.4-97.4-12.5-112.8-6.2-2.6-12.2-5.2-18.2-7.7z"/></g><g id="leg_left"><path class="st3" d="M1134 1053.9c17.3-11.7 34.5-23.4 51.8-35.1 10.5.8 26.4 1 45.1-2.9 20-4.2 45.6-13.7 44.7-19.6-.1-.9-1-2.6-12.9-5.4-17.7-4.2-31.7-4.2-41.8-4.6-8-.3-19.7-1.1-34.2-3.3-21.6 12.7-43.1 25.3-64.7 38 4 10.9 8 21.9 12 32.9z"/><path class="st1" d="M1089.9 828.4c-8.6 11.3 4.8 26.2.2 49.4-4.5 22.6-22.2 33.2-63.9 62.9-85.5 61.1-94.2 76.2-97.7 90.2-5.3 21.1-.6 46.8 14.7 62.8 21.2 22.1 55.5 18.1 79.6 15.5 60.8-6.6 105-40.7 128.2-62.6-1.7-13.5-3.4-27-5.2-40.5 10.3-10.5 23.7-27.2 32.4-50.9 21.4-58.3-3.7-111.4-9.6-123.1-52.9-17.3-72-12.6-78.7-3.7z"/><path class="st12" d="M1127.7 818.4c4 6.3 46.4 73.7 20.4 120.1-9.5 17-29.9 34-34.5 37.9-18.4 15.4-31.9 20.8-44.2 28.3-18.2 11-41.5 31.1-61.7 70.8 18.2-14.3 34.3-22.7 45.3-27.7 27.8-12.7 41.5-11.8 68.5-27.2 11.5-6.5 21.9-12.3 32.3-23.2 27.9-29.3 31.1-66.6 32.3-79.9 3.5-40.7-10.7-72.2-18.1-86.1-13.5-4.4-26.9-8.7-40.3-13z"/><path class="st13" d="M1163.4 984.6c-34.2 10.2-78.1 28.2-121.6 61.6-12.9 9.9-24.3 20.1-34.3 30 34.6-5.5 70.4-12.3 107.4-20.7 12.4-2.8 24.5-5.7 36.5-8.7-2-13.4-4-26.9-6-40.3l18-21.9z"/><path class="st14" d="M1149.8 825.5c6.9 9.4 17.2 26 22.4 49.1 6.1 27.3 1.8 49.1-.5 60-9.7 45.5-37.9 75-51.2 87.2 8.6-4.1 21.7-11.7 33.8-25.1 17.4-19.1 23.1-39.2 26.2-50.7 13.7-50.6-5.4-97.4-12.5-112.8-6.2-2.6-12.2-5.2-18.2-7.7z"/></g><g id="hand_right"><path class="st7" d="M1079.6 586.3c-5.5-2.7-14.8 5.6-18.6 9-18.3 16.4-22 35.6-34.1 66.5-3.9 9.9-9.9 24.2-18.6 41.3-9.7 10.6-23.9 23.7-43.1 35.3-11.6 7-22.7 12-32.3 15.6-5.7-1.8-16.8-4.5-29.9-1.8-8 1.6-16.6 3.4-21 10.2-7.8 12.1 2.6 32.8 15.6 43.1 4.1 3.3 11 8.7 19.8 7.8 11.3-1.2 21.4-12.6 24.5-28.7 17.3-3.5 52.5-13.1 84.4-42.5 7.1-6.6 24.8-24 38.3-52.1 11.2-23.2 13.5-41.1 17.4-70.6 3.2-24.5 1.3-31.2-2.4-33.1z"/><path d="M1076.7 585.3c-4.9 0-5.9 27.5-14 54.6-11.3 38-32.8 63.1-42.5 74.3-10.8 12.3-42.9 48.1-97.1 62.9-16.9 4.6-31.5 6-41.9 6.3 1.4 3.8 8.3 21.4 25.4 27.3 3.2 1.1 9.1 3.1 15.9 1.3 10.6-2.8 18.7-13.8 21-27.9 19-4.4 57.5-16 88.2-47.6 13.5-13.8 22.3-28.2 24.8-32.4 10.8-18.2 15.2-33 20.3-50.2 9.1-30.5 7.9-44.2 6.3-52.7-.6-2.9-3-15.9-6.4-15.9z" opacity=".08" fill="#6d6c6c"/><path class="st4" d="M1075.4 650c-1.3-.5-7.2 20.1-27.9 48.9-10.7 14.8-24.2 33.5-47 49.5-14.4 10.1-34.1 18.8-73.6 36.2-20 8.8-31.5 13.3-31.1 19 .4 5.8 12.7 11.1 22.9 9.5 11.5-1.8 21.2-12.6 23.5-27.3 10.5-3.1 24.7-8.1 40.6-15.9 6.6-3.2 28.9-14.2 45.7-28.6 40.6-34.8 49-90.4 46.9-91.3z"/></g><g id="torso"><path class="st7" d="M1077.7 578.4c-22.7 14.9-29.8 39.9-37.2 65.7-1.5 5.1-7.5 27.3-7.9 58.6-.3 30.5 5.1 38.8 5.7 64.3.4 17.1-1.4 41.7-12.1 72.2 8.2 7.9 33 29.5 72.2 35 40.8 5.8 71.7-9.6 81.5-15 .9-11.7 2.1-29.9 2.1-52.2.1-94.3-20.2-143.7 9.3-177.9 3.9-4.5 10.6-10.9 21.4-16.4-7.7-8.8-42-46.3-91.5-45.7-9.4 0-26.8.4-43.5 11.4z"/><path d="M1142.1 569.5c-11.7 23.2-25.6 58.5-26.4 102.2-.8 41.1 10.6 59.3 7.5 95.9-2.1 25.2-11.3 61-44.2 102.8 7.4 2.3 16.1 4.3 25.8 5.2 34.3 3.1 61.8-9 75.8-16.7 2.2-28.3 2.1-51.1 1.7-66-1.3-45.4-5.2-80.4-5.2-80.4-2-14.3-2.1-26.5-1.7-35.6.6-13 1-20.7 4.6-29.9 2.5-6.3 8.2-17.4 21.8-27.6 3.8-2.1 7.7-4.2 11.5-6.3-9.8-12.2-27.6-30.5-55.1-39.6-5.6-1.9-11-3.2-16.1-4z" opacity=".1" fill="#6d6c6c"/><path class="st14" d="M1213.3 612.5c-7.8-7.1-15.7-14.2-23.5-21.2-25.9 26.3-37.3 51.4-42.5 71.8-4.7 18.6-1.5 22.5-3.4 88.4-1.5 51.9-4 67.4-12.6 83.8-9.8 18.8-23.6 31.2-33.3 38.5 8.6 1.8 21.7 3.4 37.3 1.1 20.5-3 35.5-11.3 43.6-16.7 1.8-25.5 2.1-47.5 1.7-64.9-1.6-83.3-17.3-124.6 8-159 7.9-10.7 17.4-17.5 24.7-21.8z"/></g><g id="tools"><path class="st7" d="M881.6 753.6c17.3 35.4 34.5 70.8 51.8 106.2 30.8-18.1 61.5-36.3 92.3-54.4l-48.3-96.6c-31.9 14.9-63.8 29.9-95.8 44.8z"/><ellipse class="st7" cx="948.8" cy="776.1" rx="27.2" ry="27.6"/><path class="st7" d="M980.4 779.7c-4.4 7.1-3.5 16 1.7 21.3 6.3 6.5 15.6 4.5 16.1 4.4 11.6 22.1 23.2 44.1 34.8 66.2 5.9-2.3 11.9-4.6 17.8-7-13.6-21.6-27.3-43.2-40.9-64.9.5-.4 7.9-5.8 7.4-14.4-.4-7.7-7.1-14.6-16.1-15.7 4 4.3 4.8 10.3 2.2 14.8-3 5.3-9.2 5.6-9.6 5.7-5.6.4-11.2-3.8-13.4-10.4z"/><path class="st3" d="M933.9 761.2v.3c0 .8.7 1.5 1.5 1.5s1.5-.7 1.5-1.5v-.3c0-.8-.7-1.5-1.5-1.5s-1.5.6-1.5 1.5z"/><ellipse class="st7" cx="992.6" cy="777.9" rx="11.6" ry="11.8"/><path class="st3" d="M929.9 756.9c1.4 1.5 3 3 4.5 4.4 1.5 1.3 3.6-.9 2.1-2.1-1.6-1.4-3.1-2.8-4.5-4.4-1.3-1.4-3.4.7-2.1 2.1zM922.9 785.4c2.6-1 5-2.2 7.4-3.7 1.6-1.1.1-3.7-1.5-2.6-2.1 1.4-4.3 2.5-6.6 3.4-1.9.7-1.1 3.6.7 2.9zM938.4 801c1.7-2.1 3.4-4.3 4.9-6.6 1.1-1.6-1.5-3.1-2.6-1.5-1.4 2.1-2.9 4.1-4.4 6-1.2 1.4.9 3.6 2.1 2.1zM960.9 791.9c2.3.7 4.4 1.8 6.2 3.3 1.5 1.2 3.6-.9 2.1-2.1-2.2-1.9-4.7-3.3-7.6-4.1-1.7-.6-2.5 2.3-.7 2.9zM967.1 774.6c1.7-1 3.5-1.8 5.3-2.5 1.8-.6 1-3.5-.8-2.9-2.1.7-4.1 1.7-6 2.8-1.7.9-.2 3.5 1.5 2.6zM957.7 750c-.7 1.4-1.4 2.8-2.1 4.1-.9 1.7 1.7 3.2 2.6 1.5.7-1.4 1.4-2.8 2.1-4.1.8-1.7-1.7-3.2-2.6-1.5zM981 776.9c1.6.2 3.2.3 4.8.5.8.1 1.5-.7 1.5-1.5 0-.9-.7-1.4-1.5-1.5-1.6-.2-3.2-.3-4.8-.5-.8-.1-1.5.7-1.5 1.5 0 .9.7 1.4 1.5 1.5zM991.4 766.9l.9 2.7c.3.8 1 1.3 1.8 1 .7-.2 1.3-1.1 1-1.8l-.9-2.7c-.3-.8-1-1.3-1.8-1-.7.2-1.3 1-1 1.8zM988.5 788.7c.8-1.4 1.7-2.7 2.7-3.9.5-.6.6-1.5 0-2.1-.5-.5-1.6-.6-2.1 0-1.2 1.4-2.3 2.9-3.2 4.5-.9 1.6 1.7 3.2 2.6 1.5zM998.8 777.8c1.6.2 3.1-.2 4.6-.8.7-.3.9-1.4.5-2.1-.4-.8-1.3-.9-2.1-.5-1 .4-2.1.5-3.1.4-.8-.1-1.5.8-1.5 1.5.1.9.8 1.4 1.6 1.5zM995.7 785.1l2.4 3c.5.6 1.6.5 2.1 0 .6-.6.5-1.5 0-2.1l-2.4-3c-.5-.6-1.6-.5-2.1 0-.7.6-.5 1.5 0 2.1zM879.6 754.7c16.1 35.6 33.2 70.8 51.3 105.4.9 1.7 3.5.2 2.6-1.5-18.2-34.6-35.3-69.8-51.3-105.4-.8-1.7-3.4-.2-2.6 1.5z"/><path class="st3" d="M879 754.2c15.9 36.1 33.1 71.5 51.7 106.2.9 1.7 3.5.2 2.6-1.5-18.6-34.7-35.9-70.2-51.7-106.2-.8-1.8-3.4-.2-2.6 1.5zM936.3 847.9c-2-.7-2-3.7-.8-5.1 1.2-1.3 3.5-1.6 4.8-.2 3 3-1.1 7-4.4 5.3-.9-.4-1.6.9-.8 1.3 2.3 1.2 5.3.7 6.9-1.5 1.5-2.1.8-5.3-1.4-6.7-2.2-1.4-5.4-.6-6.7 1.6-1.4 2.3-.7 5.9 2 6.9.9.1 1.3-1.3.4-1.6z"/><path class="st3" d="M936.5 845.9c1 0 1-1.5 0-1.5s-1 1.5 0 1.5zM938.9 843.7v-.2c0-1-1.5-1-1.5 0v.2c0 .9 1.5.9 1.5 0zM938 846.2v.2c0 1 1.5 1 1.5 0v-.2c0-1-1.5-1-1.5 0zM881.2 753.1c16.2-7.6 32.5-15.2 48.7-22.9 15.7-7.3 31.2-15.3 47.3-21.6.9-.3.5-1.8-.4-1.4-15.6 6.2-30.7 13.8-45.9 20.9-16.8 7.9-33.7 15.8-50.5 23.7-.8.4-.1 1.7.8 1.3zM891.2 757.3c-2.3-1.1.5-4.4 2.4-2.8 1.8 1.6-.3 4.3-2.3 3.1-.8-.5-1.6.8-.8 1.3 1.6.9 3.7.5 4.8-1 1-1.5.5-3.7-.9-4.8-1.5-1.1-3.6-.6-4.7.8-1.2 1.5-.8 3.8.9 4.6.7.5 1.5-.8.6-1.2zM984.8 767.5c-4.9 2.7-7.1 8-5.6 13.4.3.9 1.7.5 1.4-.4-1.4-4.8.6-9.4 4.9-11.7.9-.5.1-1.8-.7-1.3z"/><path class="st3" d="M980.5 776.9c.8-6.7 8.9-14.5 15.6-9.5.8.6 1.5-.7.8-1.3-7.7-5.7-16.9 3.1-17.9 10.8-.1 1 1.4.9 1.5 0zM923.5 788.3c-5.4-14.8-.7-33.3 16.1-37.5.9-.2.5-1.7-.4-1.4-17.6 4.4-22.8 23.8-17.2 39.4.4.8 1.9.4 1.5-.5z"/><path class="st3" d="M920.1 773.5c.1 11.4 3.9 24.1 16.3 27.2.9.2 1.3-1.2.4-1.4-11.6-3-15.1-15.1-15.2-25.8 0-1-1.5-1-1.5 0z"/><path class="st3" d="M920 782.4c2.9 13.2 13.9 22.1 27.4 22.3 1 0 1-1.5 0-1.5-12.8-.2-23.2-8.7-25.9-21.2-.2-.9-1.7-.5-1.5.4z"/><path class="st12" d="M977.2 785.4c.7 1.6 4.6 9.7 13.9 12.9 5.6 1.9 10.6 1.1 12.9.5 1.8 3.6 3.6 7.1 5.5 10.7 10.4 20.1 21 39.7 31.7 58.8-2.7 1.3-5.5 2.6-8.2 3.8-11.8-22.3-23.5-44.7-35.3-67-1.8.4-6.7 1.2-11.5-1.4-6.1-3.2-9.6-10.4-9-18.3z"/><path d="M979.9 798l18.6 6.3c13.8 21.3 27.5 42.7 41.3 64-2.4.6-4.7 1.3-7.1 1.9-11.7-21.4-23.3-42.8-35-64.3-1.6.2-5.6.7-10.1-1.4-4.4-1.9-6.8-5.2-7.7-6.5z" opacity=".29" fill="#6d6c6c"/><path class="st13" d="M927.2 757c-2.4 1.2-17 9.1-21.1 26.3-.3 1.1-4.8 21.7 6.8 31.2 10.6 8.6 31.8 5.9 46.8-11.2-2.3-.1-16.5-1.2-26.3-13.4-11.3-14.4-6.7-31.3-6.2-32.9z"/><path class="st12" d="M926.9 758.6c-1.2 1.4-13.4 15.9-8.5 33.1.7 2.4 5.1 17.5 18.6 20.2 9.8 2 19.3-3.6 24.1-10.7 7.8-11.6 3.4-28.5-7.1-37.2-11.1-9-25.3-5.8-27.1-5.4z"/></g><g id="hand_left"><path class="st7" d="M1188.8 619.4c3.8-4.1 11.6-12.6 18.8-10.8 13.7 3.3 15.4 40.3 16 51.3 1.1 23.3-1.3 62-25.1 110.6-11 13-26.3 28.8-46.8 43.9-23.7 17.5-46.4 28.2-63.8 34.9-8.8 7.9-16.8 13.5-22.7 17.1-8.6 5.4-13 8.1-19.6 9.2-3.4.6-14.8 2.5-25.3-4.8-10-7-12.4-17.6-12.9-20.3-1.6-7.9 0-14.4 1-17.6 10.8-1.9 21.5-3.8 32.3-5.7-19.7-3.1-23.8-5.6-23.8-7.3 0-3.6 16.2-7.7 30.9-7 13.6.6 24.3 5.3 31 8.9 15.4-13.9 28.1-24.8 37-32.2 12.7-10.6 19.8-16 29.3-25.7 10.5-10.7 18-20.4 22.7-26.9.4-19.5 1.4-36 2.4-48.5 3.5-43.8 8.5-58.2 18.6-69.1z"/><path class="st3" d="M1006.6 841.7c9.8 4.8 20.7 4.6 30.5-.2 1.7-.8.2-3.4-1.5-2.6-8.8 4.2-18.7 4.4-27.5.2-1.7-.8-3.3 1.8-1.5 2.6zM1006.7 850c8.6 8.8 20.9 9.3 32.1 5.8 1.8-.6 1-3.5-.8-2.9-10.2 3.2-21.3 3.1-29.1-5-1.4-1.4-3.6.7-2.2 2.1zM1012.4 864.6c9.9 6.1 22.3 6.1 32.3 0 1.6-1 .1-3.6-1.5-2.6-9 5.5-20.2 5.5-29.2 0-1.7-1-3.3 1.6-1.6 2.6z"/><path class="st13" d="M1202 609.5c.9 5.5 1.8 11.1 2.7 16.7 1.6 10.2 3.1 20.3 4.5 30.3 0 0 4.1 40.2-11.7 79.6-14 34.8-38.3 54.3-62.8 74-22.2 17.8-43.1 34.7-75.5 39.3-22.1 3.2-40.8-.6-52.6-4.1.2 3.4 1.2 10.1 5.6 16.8 2.1 3.1 8.6 12 19.9 14.3 3.1.6 8.8 1.2 19.9-3.1 7.9-3 21.3-9.5 34.7-24 17.2-6.3 31-13.4 41.3-19.4 7.7-4.5 27.1-16.3 48.5-36.2 9.4-8.8 16.8-16.9 21.9-23 5.9-11.3 12.1-25.5 16.8-42.4 7.5-26.3 7.8-45.7 8.2-70.9 0 0 .2-10.6-4.6-31.6-1.9-8.3-4-15-9.2-16.8-2.8-1-5.7-.3-7.6.5z"/><path class="st13" d="M1013 864.1c5.2 1.4 13.6 3.1 23.4 1.6 10.6-1.6 14.2-5.4 35.1-14.6 13.8-6.1 13.9-5.1 25.4-10.4 13-6 22.3-11.5 29.6-15.9 27.7-16.7 54.3-37.4 65-45.9-14.7 15.9-35.8 35.1-64.4 51.7-14.2 8.3-27.8 14.5-40 19.2-3.2 3.4-8.4 8.4-15.6 13.3-10.5 7.2-20.8 14.3-33.8 13.3-3.5-.2-14-1.6-24.7-12.3z"/></g><g id="head"><path class="st2" d="M1002.4 439.1c-7.5 2.7-14.8 16.8-9.9 72.8-9.7 30.1-3.7 61 15.8 78.7 14.7 13.3 32.3 14.7 35.7 14.9 23.1 1.4 46.5-11.5 55.6-30.3 1.6-3.2 4.7-9.9 4.1-18.5-1.1-15-12.9-25.1-17.2-28.9-42.2-37.8-66.3-95.1-84.1-88.7z"/><path class="st7" d="M1080.2 544.5c-.1 6.5 7.5 10.2 12.7 24.3 2.5 6.9 3.3 13 3.5 16.7 3.7.8 14.4 2.5 25.9-3 8.1-3.9 12.9-9.6 15.2-12.7-8.1-16.2-16.2-32.4-24.3-48.7-27.3 9.8-32.9 17.9-33 23.4z"/><path class="st7" d="M1004.4 432.2c-8.7 18.5-4.8 37.4-2.1 50 2.6 12.4 10.2 36.6 32.5 55.9 15.5 13.4 31.6 18.7 40.4 21 7.7-3.3 19.5-9.4 30.6-20.8 11.4-11.7 16.5-23.3 21.3-34.1 9-20.7 15.2-34.9 12.8-52.8-2.6-20.4-15.8-42.1-36.8-52.8-36.1-18.5-83.7 1.9-98.7 33.6z"/><path class="st3" d="M1037.7 471.5c1.5 6.8 3.2 13.6 5.2 20.3 1.9 6.5 3.7 13.8 6.7 19.9 4.3 8.7 12.2-6.7 14.1-10.2.9-1.7-1.6-3.2-2.6-1.5-.8 1.5-6.3 11.6-7.8 11.2-2.6-.7-4.8-11.4-5.5-13.7-2.8-8.8-5.2-17.7-7.2-26.7-.5-1.9-3.4-1.1-2.9.7zM1006.3 478.2c7.2 0 14.3-1 21.3-2.8 1.9-.5 1.1-3.4-.8-2.9-6.7 1.8-13.6 2.7-20.5 2.7-1.9 0-2 3 0 3zM1060.5 464.1c6.1-7.3 16.2-9.2 24.4-4 1.6 1 3.1-1.6 1.5-2.6-9.2-5.9-21-3.9-28 4.4-1.2 1.5.9 3.7 2.1 2.2zM1019.5 490.7c-1.2-.3-2.2-4.6-1.1-5.2 1.1-.5 1.1 2.1 1.1 2.5.1.9 0 2.4.3 3.3v.5c.2-.1.4-.3.6-.4 0-.1-.9-1-1.1-1.3-.4-.7-.5-1.5-.4-2.3 0-.3.1-.5.2-.8h-1.3c-.1.1.4 1.3.4 1.5.1.4.2 1.2.4 1.5.1.2.1.4.2.6.9 0 1.3-.4 1-1-.3-1.9-3.2-1.1-2.9.8.3 1.7 1.7 3.6 3.7 2.7 2.2-1 1-3.8.5-5.4-.5-1.6-1.1-4.2-3.4-3.3-1.8.7-2 3.2-1.8 4.8.3 1.8 1.3 3.7 2.9 4.7 1.9 1.2 3.9 0 4-2.1 0-1.2-.2-2.5-.3-3.8-.1-1.2-.1-2.5-.6-3.6-.7-1.7-2.5-2.7-4.3-1.9-4.1 1.7-3.2 10.2 1.1 11.1 1.9.4 2.7-2.5.8-2.9zM1073.3 478.5c-1-.6-1.2-1.7-1.3-2.8 0-.3-.1-2.7 0-2.7.2-.1.9 2.6 1 3.2.2 1.5.1 3-.2 4.5.8-.2 1.7-.4 2.5-.7-1.9-1.6-3-4-2.5-6.5-.2.3-.5.6-.7.9.2-.1.4 2.6.4 2.9.1.8.3 1.5.8 2.2 1 1.6 3.6.1 2.6-1.5-1.1-1.7-.1-3.8-1.6-5.4-1-1.1-2.9-1.8-4.1-.6-1.1 1.1-.6 4-.2 5.3.6 1.9 1.6 3.5 3.1 4.8.8.7 2.3.5 2.5-.7.6-2.9.5-5.9-.5-8.7-.7-1.9-2.3-4-4.5-2.8-1.9 1.1-1.9 3.8-1.7 5.7.2 2.2.9 4.2 2.8 5.4 1.7 1.1 3.2-1.5 1.6-2.5zM1081.3 495.9c1.9 0 1.9-3 0-3-2 0-2 3 0 3zM1090.2 486.1h.3c.8 0 1.5-.7 1.5-1.5s-.7-1.5-1.5-1.5h-.3c-.8 0-1.5.7-1.5 1.5s.6 1.5 1.5 1.5zM1088.4 493.8v.3c0 .8.7 1.5 1.5 1.5s1.5-.7 1.5-1.5v-.3c0-.8-.7-1.5-1.5-1.5-.9 0-1.5.7-1.5 1.5zM1050.1 531.7c8.9-2.5 17.3.7 25.5 4.1 1.8.7 2.6-2.2.8-2.9-8.7-3.6-17.7-6.8-27.1-4.1-1.8.6-1 3.5.8 2.9z"/><path class="st2" d="M989 465.8c-10.3-27.5 9.6-55.2 12.2-58.8 1.9-2.5 23.5-30.8 59.2-30 15.6.3 27.4 6 33.5 9.6 8.8.6 25.5 3 42.2 14.4 30.1 20.4 36 53.6 37 60.1 7.8 7.1 18.8 18.6 27.9 35.3 2.7 5 7.1 13.1 9.9 23.3 1.9 7.3 13.3 49.4-13.6 71.9-15.5 13-38.8 15.4-56.4 7.5-17.9-8-27.2-25.5-28.4-27.8-.8-1.5-1.3-2.7-1.7-3.5-16.2-36.5 9.6-73.4 11.3-75.7.8-.3 11-4.2 13.1-13.9 1.8-8.2-2.4-18.9-9.1-19.6-4.4-.5-9.2 3.5-12.2 9.1-7.4-3.7-16.4-9-25.7-16.5-12.5-10.2-21-20.9-26.6-29.2-10.4 3.1-31.4 11.1-48.8 31.3-8 9.3-13 18.7-16.1 26.1-2.3-3.1-5.4-7.6-7.7-13.6z"/><path class="st5" d="M1046.7 427.5c8.8 4.7 27 16.2 39.3 38.5 5 9.1 15.3 27.7 11.3 52-3.6 21.8-16.8 35.7-22.1 40.8 2.8-1.2 6.7-2.4 11.6-3 4.3-.5 8-.2 10.8.2 2.5 3.8 5.2 8.7 7.6 14.6 2.5 6.2 3.9 11.9 4.7 16.5 4.1-1.3 8.2-2.5 12.3-3.8.8 1.5 2 3.6 3.9 5.8 8.9 10.8 22.2 12.8 27.6 13.6 16 2.4 28.4-3.3 33-5.4 0 0 9.5-4.5 16.3-11.3 15-14.8 16.2-49.4.8-85.4-.9 3.5-4.8 16.9-17.9 25.2-13.9 8.8-32.8 8.6-46.6-1.6-15.7-11.6-16.6-30.1-16.7-32.6 1.7-.5 4.6-1.7 7.4-4.3.6-.5 5.7-5.6 5.7-13.4 0-4.8-1.9-14.4-8.5-15.6-4.7-.9-10.3 2.7-13 8.9-9.3-4.5-21.9-11.9-34.2-23.8-8-7.7-13.9-15.4-18.3-22-3.2.9-6.8 2.1-10.5 3.8-1.7.9-3.1 1.6-4.5 2.3z"/><path class="st4" d="M1121.8 492.2c-2.6 2.1-6.5 5.7-10 11-8 11.9-6.4 20.8-13.3 34.5-2 4.1-5.5 9.9-11.6 16.3 4.9-1.3 9.8-2.7 14.8-4 1.1 4.5 2.4 9.1 3.8 13.8 2.4 8.1 4.9 15.7 7.6 22.9 2.7-1.1 5.3-2.3 8-3.4-3.5-4.2-8.6-11.1-11.9-20.8-5.5-16.1-2.9-30-1.3-37.9 2.8-14.6 9.1-25.5 13.9-32.4z"/><path d="M1033.7 538.1c1.3 2 6.1 9.7 4 19-2.6 11.4-13.9 18.1-23.7 19-9.8 1-17.2-3.9-19.4-5.5 1.6 4.2 4.5 10.4 9.9 16.4 14.9 16.6 40.7 22.6 62.3 15.4 14.7-4.9 23.9-14.7 28.5-20.5-.3-3.2-1-7.1-2.4-11.4-2.2-6.7-5.4-11.7-8-15-2.9 1.5-5.7 3-8.6 4.6-5.7-1.1-13.5-3.2-22-7.5-9.4-4.6-16.1-10.2-20.6-14.5z" opacity=".33" fill="#6d6c6c"/><path class="st3" d="M1087.2 555.8c5.7-3.2 10.8-7 15.5-11.4 1.4-1.3-.7-3.5-2.1-2.1-4.5 4.3-9.5 7.9-14.9 11-1.7.8-.2 3.4 1.5 2.5z"/><path class="st3" d="M1088.5 557.2c5.6-4.6 10.9-9.5 16-14.6 1.4-1.4-.8-3.5-2.1-2.1-5.1 5.1-10.5 10-16 14.6-1.5 1.3.6 3.4 2.1 2.1z"/></g></g></svg>