<svg width="100" height="96" fill="none" xmlns="http://www.w3.org/2000/svg"><g clip-path="url(#clip0)"><path d="M52.096 1.198l13.772 28.144c.599.599 1.198 1.198 1.797 1.198l30.539 4.191c1.796 0 2.395 2.395 1.197 3.593L77.246 59.88c-.6.599-.6 1.197-.6 1.796l5.39 30.54c.599 1.796-1.796 2.993-2.994 2.394L50.898 80.84h-1.796L21.557 95.21c-1.797.599-3.593-.599-2.994-2.395l5.39-30.539c0-.599 0-1.198-.6-1.796L.6 38.324C-.6 37.126 0 35.33 1.796 35.33l30.54-4.192c.598 0 1.197-.599 1.796-1.197L47.904 1.198c1.198-1.796 3.593-1.796 4.192 0z" fill="#0abf53"/></g><defs><clipPath id="clip0"><path fill="#fff" d="M0 0h100v95.21H0z"/></clipPath></defs></svg>