<svg xmlns="http://www.w3.org/2000/svg" viewBox="0 0 1600 1200"><style>.st0{fill:#e8e8e8}.st2{fill:#161616}.st3{fill:#191919}.st4{fill:#fff;stroke:#191919;stroke-width:2;stroke-miterlimit:10}.st10,.st5{opacity:.47;fill:#6c6d6d}.st10{opacity:.24}.st14{opacity:.28}.st20{fill:#282828}</style><g id="background_grey"><path class="st0" d="M1468.4 679.6c-11.1 95.3-22.1 190.5-33.2 285.8-3.2 27.1-6.3 54.2-9.5 81.4-.2 1.9 2.8 1.9 3 0 11.1-95.3 22.1-190.5 33.2-285.8 3.2-27.1 6.3-54.2 9.5-81.4.2-1.9-2.8-1.9-3 0z"/><path class="st0" d="M1470.8 681.2c2-10.2 19.7-9.2 26.4-5 6.5 4.1 4.4 12.4 3.7 18.8l-2.1 19.8c-2.8 26.8-5.6 53.5-8.4 80.3-5.6 53.2-11.2 106.4-16.8 159.5-3.1 29.7-6.2 59.5-9.4 89.2-.2 1.9 2.8 1.9 3 0 12.4-117.6 24.9-235.2 37.1-352.8.5-5.2 1.2-10.7-2.5-14.9-3.1-3.5-7.9-4.9-12.3-5.5-7.8-1-19.7.3-21.6 9.7-.4 2 2.5 2.8 2.9.9zM1458.8 757.2c-19.8-4.1-22.6 23.3-29.4 35.2-9.6 16.6-26.9 28.1-45.9 30.5-1.5.2-2.2 2.5-.4 2.9 6.4 1.6 7.6 9.4 8.2 14.9.6 5.7.7 11.5.2 17.2-1.2 12.4-5.1 24.3-11.4 35-1 1.7 1.6 3.2 2.6 1.5 2.5-4.2 8.5-3.6 11.8-.6 3.8 3.5 3.8 9.4 3.3 14.1-1 8.2-4.1 15.8-2 24.1.3 1.3 2 1.4 2.7.4 10.5-14.7 25.1-25.8 42.1-31.9 1.8-.6 1-3.5-.8-2.9-17.8 6.4-32.9 17.9-43.9 33.3.9.1 1.8.2 2.7.4-3-12.1 7.6-26.8-.7-37.9-4.2-5.7-13.9-7-17.9-.4.9.5 1.7 1 2.6 1.5 7.4-12.7 11.7-27 12.1-41.7.3-9.2.7-27-10.9-29.8-.1 1-.3 2-.4 2.9 16.1-2 31-10 41.6-22.3 5.1-5.9 9-12.7 11.7-20.1 3.4-9.5 7.7-26.2 21.3-23.4 1.9.4 2.7-2.5.8-2.9z"/><path class="st0" d="M1479 686.3c3.8 2.7 8.6 3.3 12.9 1.6 1.8-.7 1-3.6-.8-2.9-3.7 1.4-7.4 1-10.6-1.3-1.5-1.1-3 1.5-1.5 2.6zM1480.5 692.4c1.9 3.2 6 4.8 9.5 3.4 1.8-.7 1-3.6-.8-2.9-2.3.9-4.9.2-6.1-2-1-1.7-3.5-.2-2.6 1.5zM1347.4 1052.6c16.9-1.8 35.6-6.2 52.4-1.8 7.6 2 15 5 22.7 6.9 8.5 2.1 17.3 3.3 25.9 4.6 1.9.3 2.7-2.6.8-2.9-8.7-1.3-17.4-2.6-25.9-4.6-8.3-2-16.1-5.4-24.4-7.3-16.5-4-34.8.3-51.4 2.1-2 .2-2 3.3-.1 3zM1438 1051.6c12.8 1 24.9-2.9 37.2-5.7 13.8-3.1 27.8-4.2 41.9-3.3 1.9.1 1.9-2.9 0-3-13.1-.8-26.1 0-38.9 2.6-13.3 2.7-26.3 7.5-40.1 6.4-2.1-.2-2.1 2.8-.1 3zM1356.5 578c-13.3 84.6-26.6 169.2-40 253.9-3.8 24-7.6 48.1-11.4 72.1-.3 1.9 2.6 2.7 2.9.8 13.3-84.6 26.6-169.2 40-253.9 3.8-24 7.6-48.1 11.4-72.1.3-1.9-2.6-2.7-2.9-.8zM1328.2 582.7c-15.3 84.5-30.1 169.1-44.4 253.7-4 23.9-8 47.7-12 71.6-.3 1.9 2.6 2.7 2.9.8 14.1-84.7 28.6-169.3 43.6-253.9 4.2-23.8 8.5-47.6 12.8-71.5.4-1.8-2.5-2.6-2.9-.7z"/><path class="st0" d="M1330.3 581.8c5.1-10.8 18.5-13.1 26.8-4.4 1.3 1.4 3.5-.7 2.1-2.1-9.6-10-25.6-7.5-31.5 5.1-.8 1.6 1.8 3.1 2.6 1.4zM1317.5 626.7c-3.5 14-18.2 19.8-30.5 23.9-11.3 3.8-23 7.9-30.3 17.9-1 1.4.9 2.6 2.1 2.1 8.6-3.7 6.2 11 5.3 14.6a60.7 60.7 0 01-5.6 13.7c-.5.8-.1 2 .9 2.2 5.5 1.2 2.6 9.5 1.4 12.9-2 5.6-4.1 11.1-6.1 16.7-4.1 11.1-8.1 22.2-12.2 33.3-.4 1.2.8 2.1 1.8 1.8 1.9-.4 3.2-1.3 4.6-2.6 1.3-1.2 2.7-2.7 4.4-3.3 1.9-.6 4-.2 6-.1 5.7.2 11.4-.5 16.7-2.5 10.2-3.8 18.7-11.2 23.7-20.9.9-1.7-1.7-3.2-2.6-1.5-5.3 10.3-14.8 17.9-26 20.8-5.7 1.5-11 .4-16.6 1-4.9.5-6.5 5.3-11 6.2l1.8 1.8c5.4-14.8 10.9-29.6 16.3-44.4 2-5.5 8.5-20-1.4-22.2.3.7.6 1.5.9 2.2 4-7.1 8.5-17 7.2-25.4-.8-5.4-5.6-9.3-11-7l2.1 2.1c15.1-20.5 54.1-14.2 61.2-42.5.2-1.9-2.6-2.7-3.1-.8zM1239.7 916c11.8 1.3 22.1-6.9 34-5.2 10.9 1.5 20.8 7.4 32 6.9 1.9-.1 1.9-3.1 0-3-11.4.5-21.5-5.7-32.6-7-11.7-1.3-21.8 6.6-33.4 5.3-1.9-.2-1.9 2.8 0 3z"/><path class="st0" d="M1302.1 725.5c-1.9 4-4.2 7.7-7 11.2-1.2 1.5.9 3.6 2.1 2.1 3-3.6 5.5-7.5 7.4-11.8.9-1.7-1.7-3.2-2.5-1.5zM878.8 896.3c39.6-9.8 80.9-2.8 120.9-.3 42 2.6 84.1 3 126.2 2.6 23.9-.2 47.7-.7 71.6-1.1 1.9 0 1.9-3 0-3-42.7.8-85.5 1.6-128.2 1-21.2-.3-42.4-1-63.5-2.2-20.5-1.2-40.9-3.3-61.4-4.4-22.2-1.2-44.6-.9-66.3 4.5-1.9.4-1.1 3.3.7 2.9zM1208.5 948.4c30.7 4.5 60.9-3.7 91.4-5.9 31.7-2.3 63.4 2.4 94.3 9.7 1.9.4 2.7-2.4.8-2.9-29.8-7-60.5-11.7-91.3-10-31.5 1.7-62.8 10.9-94.4 6.3-1.9-.4-2.7 2.5-.8 2.8zM206.9 895.7c37-3.6 73.8-1.2 110.2 6.3 16.9 3.5 33.9 7.2 51.3 7 16.9-.2 33.7-3.4 50.3-6.2 20-3.4 40.3-6.3 60.5-3 1.9.3 2.7-2.6.8-2.9-34.3-5.7-67.7 6.2-101.6 8.7-19 1.4-37.3-1.7-55.8-5.5-17.5-3.6-35-6.6-52.9-8-20.9-1.6-41.9-1.4-62.8.7-1.9 0-1.9 3 0 2.9zM97.1 655c30-7.7 60.1-15.4 90.8-19.8 30.6-4.4 61.1-4.5 91.7-.6 58.9 7.6 117.3 21.9 174.7 37.1 112.9 30.1 223.5 68.2 336.3 98.7 63.7 17.2 128.1 32 193.4 41.3 1.9.3 2.7-2.6.8-2.9C867.6 792 754 757.9 641 723.4c-112.8-34.5-226.2-70.5-343-89.2-33.6-5.4-67.1-7.4-101.1-3.3-34.1 4.1-67.5 12.6-100.7 21.1-1.8.6-1 3.5.9 3z"/><path class="st0" d="M684.8 739.2c69.9.3 139.1-10.8 207.5-24.4 68.8-13.7 137.2-30 206.8-39.9 39.6-5.7 79.5-9.1 119.5-8.9 1.9 0 1.9-3 0-3-69.9-.4-139.1 10.7-207.5 24.2-68.8 13.7-137.2 30-206.8 40-39.6 5.7-79.5 9.2-119.5 9-2 0-2 3 0 3zM1371.6 682.1c22.1 7.6 43.5 17.1 63.9 28.5 1.7.9 3.2-1.6 1.5-2.6-20.7-11.5-42.3-21.1-64.7-28.8-1.7-.6-2.5 2.3-.7 2.9zM60.7 790.8c11 19.6 15.3 42.1 12.6 64.4-.1.8.8 1.5 1.5 1.5 3.4-.2 9.3 0 11.8 2.8 2.3 2.5 0 5.3-1.5 7.4-2 2.8-4.6 5.7-4.6 9.3 0 2 .8 3.6 1.5 5.4 1.6 3.7 2.5 7.2 3.2 11.2.9 5.4 1.9 10.6 4.1 15.6 8.6 19.8 28.1 32.4 45.8 43.4 1.6 1 3.2-1.6 1.5-2.6-19.6-12.2-42.3-26.8-47.4-51-1.3-6.2-2.1-12.1-4.5-18.1-2.7-6.4 2.2-9.3 4.9-14.4 5.1-9.3-7.6-12.4-14.7-12l1.5 1.5c2.8-22.8-1.8-45.8-13-65.9-1-1.7-3.6-.2-2.7 1.5zM65.9 791c10.2 6 20.5 12.1 30.7 18.1 4.1 2.4 12 6.3 10.2 12-1 3.2-4.6 4.5-4.5 8.2 0 1 .9 1.7 1.9 1.4 8-2.1 11.3 7.3 14.4 12.6 2.6 4.4 6.4 7.5 10 11.1 7.2 7.3 13 15.8 17.4 25 9.1 19 11.7 40.9 7 61.4-.4 1.9 2.5 2.7 2.9.8 5.1-22.4 1.9-46.1-8.7-66.5-5.4-10.5-12.7-19.1-21.1-27.3-6.7-6.5-10.3-23.3-22.7-20.1.6.5 1.3 1 1.9 1.4-.1-2.3 3.2-4 4.3-5.8.7-1.3 1-2.5.9-4-.3-3.9-3.7-7.2-6.7-9.5-5.4-4.1-11.8-7.2-17.7-10.6-6.2-3.7-12.5-7.4-18.7-11.1-1.7-.7-3.2 1.9-1.5 2.9z"/><path class="st0" d="M83.1 819.4c26.4 36.3 46 77.1 57.8 120.3.5 1.9 3.4 1.1 2.9-.8-11.9-43.5-31.5-84.6-58.1-121-1.1-1.6-3.7-.1-2.6 1.5zM124.4 842.8c1.4-33.7 28.3-59.7 30.8-93.3-1 .1-2 .3-2.9.4 2.7 8.4 5.4 16.8 8.2 25.2 1.7 5.1 11.9 28 .4 27.7-1.5 0-2 2-.8 2.8 4.5 2.9 3.6 8.9 3.9 13.6.2 4 1.1 7.4 2.7 11.1 5.2 11.5 6.3 22.7 4.6 35.1-1.6 11.5-4.8 22.7-7.6 33.9-3 12.2-6 24.5-9 36.7-.5 1.9 2.4 2.7 2.9.8 3.3-13.5 6.7-27 10-40.6 3-12.1 6.4-24.2 7.4-36.7.4-5.5.3-11.1-.7-16.6-1.1-6.2-4.2-11.3-6.1-17.2-2.4-7.4 1.2-17.9-6.5-22.8-.3.9-.5 1.9-.8 2.8 10.5.3 8.9-11.9 6.8-18.4-4.1-12.7-8.3-25.5-12.4-38.2-.5-1.6-2.8-1.3-2.9.4C150 783 123 809 121.6 842.8c-.3 1.9 2.7 1.9 2.8 0z"/><path class="st0" d="M153.8 776.9c-5.8 25.8-10.1 52-12.8 78.3-.2 1.9 2.8 1.9 3 0 2.7-26.1 7-51.9 12.7-77.5.4-1.9-2.5-2.7-2.9-.8zM101.3 890.4c10.8 2 20.4 7.1 28.1 14.9 1.4 1.4 3.5-.7 2.1-2.1-8-8.2-18.1-13.6-29.4-15.7-1.9-.3-2.7 2.6-.8 2.9zM116.2 865.3c1-8.1 2.1-16.1 3.1-24.2.2-1.9-2.8-1.9-3 0-1 8.1-2.1 16.1-3.1 24.2-.2 1.9 2.8 1.9 3 0z"/><path class="st0" d="M138.2 807.1c3.1 4.1 5.2 8.5 6.3 13.5.4 1.9 3.3 1.1 2.9-.8-1.2-5.2-3.4-10-6.6-14.2-1.2-1.5-3.8-.1-2.6 1.5zM923.3 832.6c.6 6.4.4 12.8-.3 19.2-.1.6.5 1.4 1.1 1.4 2.7.4 5.4.8 8.2 1.1-.3-.7-.6-1.5-.9-2.2-1 2.4-3.9 6.2-2.5 8.8.9 1.6 3.2 2.1 4.1 4 1.1 2.3.8 5 1.8 7.3 4 8.6 19.1 3.4 21.5 12.5.5 1.9 3.4 1.1 2.9-.8-2-7.8-10.6-7.1-16.8-9.2-6.6-2.2-4.5-8.3-7.6-13-.7-1-2.7-1.8-3.1-2.6-.4-.8 1.7-4.3 2.3-5.5.3-.8.2-2.1-.9-2.2-2.7-.4-5.4-.8-8.2-1.1.4.5.7 1 1.1 1.4.8-6.4.9-12.8.3-19.2-.2-1.8-3.2-1.8-3 .1z"/><path class="st0" d="M926.6 836.2c8.5 3.9 17.8 7.1 25.6 12.3 10 6.7 11.4 16.6 11.3 27.9 0 1.9 3 1.9 3 0 0-10.2-.7-20.4-8.9-27.5-8.2-7.2-19.7-10.8-29.5-15.3-1.7-.8-3.2 1.8-1.5 2.6z"/><path class="st0" d="M935.1 851.8c11.1 7.3 19.5 17.5 24.8 29.7.8 1.8 3.3.2 2.6-1.5-5.4-12.7-14.3-23.2-25.8-30.7-1.7-1.1-3.2 1.5-1.6 2.5zM964.1 853.7c-.8-3.1-2.2-7-.6-10 1.3-2.4 3.8-2.9 5.9-4.3 3.1-2 3.8-6.7 5.3-9.7 1-2 2.9-5.9 4.9-7.1 2.9-1.8 5.3 1.4 6.1 4.2.8 2.8.3 5.5-.7 8.2-.5 1.3-1.3 2.4-1.2 3.9.1 1.1.4 1.7 1 2.7 1.7 2.6 3.5 4.3 3.8 7.7.4 5.8-2.6 10.8-6.2 15.1-5.5 6.6-12.2 12-14.6 20.6-.5 1.9 2.4 2.7 2.9.8 3.6-12.6 18.2-18.7 20.6-31.8.9-4.8-.4-8.1-2.4-12.3-1.9-4.1-.8-5.4-.1-9.2.4-2.1.3-4.4-.3-6.5-.8-3.1-3.6-7.8-7.4-7.7-3.8 0-7.1 6.5-8.6 9.2-1.5 2.7-2.3 7-4.6 8.9-1.8 1.5-3.9 1.7-5.6 3.4-3.8 4.1-2.5 9.9-1.2 14.7.7 1.8 3.6 1.1 3-.8z"/><path class="st0" d="M976.8 840.6c-5.2 11.6-9.7 23.5-13.3 35.7-.6 1.9 2.3 2.6 2.9.8 3.5-11.9 7.9-23.6 13-34.9.8-1.8-1.8-3.4-2.6-1.6zM186 879c29.1-9.7 60.8-8.8 89.3 2.7 1.8.7 2.6-2.2.8-2.9-29-11.6-61.3-12.5-90.9-2.7-1.8.7-1 3.6.8 2.9z"/><ellipse cx="1176.8" cy="233" rx="81.5" ry="80.3" fill="none" stroke="#e8e8e8" stroke-width="2" stroke-miterlimit="10"/><path class="st0" d="M205.6 395.1c-6.3-10.2 8.7-18.5 17.2-17.8 10.5.9 19.9 7 30.5 7.6 17.3 1.1 31.8-10.6 46.9-17 9.3-3.9 18.6-5.3 28.4-2.8 9.6 2.5 18.3 7.4 27.8 10.1 8.3 2.4 16.4 2.5 24.8.3 9.4-2.4 18.1-6.9 27.6-9.2 10.2-2.5 19.1-.8 27.8 4.8 7.3 4.7 14 10.9 22.5 13.5 9 2.8 24.7-.6 29.1 10.1 4.6 11.1-12.1 15.5-19.7 16.5-11.8 1.4-23.8 1.7-35.6.7-11.5-.9-22.7-3.7-34.2-4-10.6-.3-19.6 2.6-28.7 7.9-9.6 5.7-18.7 10.6-30.1 11.8-24.3 2.6-48.1-6.6-72.3-6.3-13.6.1-27.8 3.7-41.2-.1-11.2-3.2-22.5-13.7-19.8-26.2.4-1.9-2.5-2.7-2.9-.8-1.9 9 2.1 17.2 9 23 8.5 7.1 19.1 8.9 29.9 8.7 13.1-.3 25.8-2.1 38.9-.8 12.2 1.3 24.3 3.8 36.5 5.2 11.2 1.2 22.9 1.4 33.8-1.9 11.6-3.6 20.6-12.3 32.2-15.7 13.2-3.9 27.1-.2 40.4 1.5 13.4 1.7 27 1.9 40.4.6 8.3-.8 18-2.1 24-8.6 5.1-5.6 3.8-13.4-2.1-17.9-8.9-6.8-21.2-3.4-31-8.1-9-4.3-16.1-11.9-25.5-15.7-20.7-8.4-39.4 9.2-59.8 9.9-11.4.4-21.8-5.1-32.1-9.1-9.5-3.6-19.1-5.7-29.1-3.4-10.6 2.4-19.9 8.2-29.5 13-12.1 6-23.4 9-36.7 4.9-10.5-3.2-21.9-8.8-32.5-2.8-6.9 3.9-12.2 12-7.5 19.6 1 1.7 3.6.2 2.6-1.5zM721.1 253.5c8-16.5 29.9-4.1 41.5-.4 15 4.8 27.4-2 40.8-8.2 8.3-3.9 16.5-6.2 25.7-5.7 9.4.6 18.6 3.2 27.9 4.5 17.7 2.4 34.2-3.2 51.4-6.1 9.2-1.5 18.6-1.8 27.8-.8 4.7.5 9.4 1.3 14 2.5 4.3 1.1 9.6 2.1 13.4 4.4 11.6 6.9-3.8 18.5-11 20.6-7.4 2.2-15.3 1.7-22.8.4-8.7-1.5-17.3-4-26.1-4.3-8.3-.4-15.8 1.8-23.4 4.8-8.8 3.5-17.2 6.9-26.8 7-9.4.1-18.9-1.2-28.3-1.7-21.6-1-43.3-.5-64.8 1.5-10.3 1-20.8 3.4-31.1 3.5-5.1.1-10.5-1-14.3-4.6-2.2-2.2-3.8-5.1-3.3-8.3.6-3.9 3.8-7.6 8.2-6.9 1.9.3 2.7-2.6.8-2.9-6.1-.9-11.3 3.5-12.1 9.6-.8 6.6 4.6 12.2 10.4 14.5 9 3.6 19.5.7 28.7-.4 11.4-1.4 22.8-2.4 34.3-2.9 11.5-.5 22.9-.7 34.4-.3 11.4.3 22.8 1.6 34.2 2 10.4.3 19.4-2.7 28.9-6.5 11.1-4.4 21.1-6.3 33-4.3 15.9 2.6 34.4 9 49.2-.9 5.1-3.4 10.3-9.9 8.5-16.4-2-7.5-13.9-9.3-20.1-10.8-9.6-2.3-19.5-3.3-29.4-2.9-10.6.5-20.9 2.9-31.2 5.1-11.6 2.5-22.9 3.8-34.7 1.9-10-1.6-20-4.5-30.3-4.2-21.4.5-38.4 21-60.4 14.4-9.4-2.8-18.1-8.4-28.3-8.2-7.1.2-14.2 3-17.4 9.7-.7 1.5 1.9 3 2.7 1.3zM1165.2 403.8c25.3-14.1 55.2-7 82.7-7.6 13.7-.3 25.9-3.4 38.9-7.6 7.4-2.4 14.7-4.1 22.5-4.1 7.7-.1 15.3.9 23 1.3 6.5.3 13.1.3 19.4-1.3 3.1-.7 6-2 9-2.7 6.8-1.5 10 3.5 10.2 9.7.4 15.3-15 23.8-28.1 26.1-15.8 2.7-32.2.7-48.1.2-15.1-.4-29.8 1-44.7 3.7-17.2 3.1-34.5 7-52.1 6.6-8.3-.2-16.6-1.3-24.5-3.9-3.9-1.3-8-2.9-11.5-5.2-3.7-2.4-9.1-10.7-1.5-12.3 1.9-.4 1.1-3.3-.8-2.9-4.3.9-6.6 5.3-5.8 9.6 1.2 6 7.9 9.3 13 11.5 14.6 6.4 30.9 7.2 46.6 5.7 18.6-1.7 36.6-6.7 55.2-8.8 19.2-2.2 38.4.2 57.7.1 14.4-.1 31.3-1.6 41.3-13.4 3.8-4.5 6.4-10.2 6.5-16.2.1-4.8-1.4-11.1-6.3-13.1-6.3-2.6-13.9 2.2-20.1 3.2-9.1 1.4-18.5.2-27.6-.4-8.1-.6-16.2-.7-24.2 1.1-8.9 2-17.3 5.7-26.2 7.8-34.8 8.2-73.1-7.8-105.8 10.5-1.9.8-.4 3.4 1.3 2.4zM125.1 1014.5c37.1-10.6 74.7-21.1 113.3-24.3 19.4-1.6 39-1.3 58.3 2 18.5 3.2 35.9 9.5 52.9 17.2 18.7 8.3 37 17.6 56.5 23.7 1.8.6 2.6-2.3.8-2.9-36.2-11.4-68.3-33-105.8-40.2-37.2-7.2-75.4-3-112.1 4.8-21.8 4.7-43.3 10.7-64.7 16.8-1.8.5-1 3.4.8 2.9zM355.1 1007.2c28.9-3.5 57.6-6.1 86.6-2.7 28.6 3.4 56.5 11.6 82.5 24 1.7.8 3.3-1.8 1.5-2.6-25.4-12.1-52.5-20.3-80.4-23.9-30.2-4-60.1-1.4-90.2 2.2-1.9.2-1.9 3.2 0 3zM482.5 1027.6c14.4 4.2 28.7 8.6 43.1 12.5 12.4 3.3 25.3 5.4 37.8 1.1 1.8-.6 1-3.5-.8-2.9-13.1 4.6-26.7 1.6-39.7-2.1-13.2-3.7-26.4-7.7-39.6-11.5-1.8-.5-2.6 2.4-.8 2.9zM360.5 1034.2c31.3 1.5 60.7 21.4 92.5 14.2 1.9-.4 1.1-3.3-.8-2.9-31.3 7.1-60.8-12.8-91.7-14.3-1.9-.1-1.9 2.9 0 3zM80.3 1040.6l69.9-19.8c1.9-.5 1.1-3.4-.8-2.9l-69.9 19.8c-1.9.5-1.1 3.4.8 2.9z"/><path class="st0" d="M141.6 1034.9c21.3-5.7 42.9-10.5 64.6-14.3 1.9-.3 1.1-3.2-.8-2.9-21.7 3.9-43.3 8.6-64.6 14.3-1.9.6-1.1 3.4.8 2.9z"/></g><g id="background_black"><path class="st2" d="M595.2 949.8h232.3c5.8 0 5.8-9 0-9H595.2c-5.8 0-5.8 9 0 9zM857.1 951.5h47.8c5.8 0 5.8-9 0-9h-47.8c-5.8 0-5.8 9 0 9zM936.1 949.8h21.4c5.8 0 5.8-9 0-9h-21.4c-5.8 0-5.8 9 0 9zM924.6 1023.9h278.3c5.8 0 5.8-9 0-9H924.6c-5.8 0-5.8 9 0 9zM1226 1022.3h46.1c5.8 0 5.8-9 0-9H1226c-5.8 0-5.8 9 0 9zM1295.2 1023.9h18.1c5.8 0 5.8-9 0-9h-18.1c-5.8 0-5.8 9 0 9zM274.1 174.7c5 2.7 9.6 6 13.8 9.9 1.4 1.3 3.5-.8 2.1-2.1-4.3-4.1-9.1-7.5-14.4-10.3-1.7-1-3.2 1.6-1.5 2.5zM294.3 167.6c-1.9-4.3-3.8-8.5-5.7-12.8-.8-1.8-3.4-.2-2.6 1.5 1.9 4.3 3.8 8.5 5.7 12.8.8 1.8 3.4.3 2.6-1.5zM307.2 160.7c-1.8-5.3-2.4-10.6-1.6-16.2.2-1.9-2.8-1.9-3 0-.7 5.8-.2 11.5 1.8 17 .5 1.8 3.4 1 2.8-.8zM649.7 218.2c3.7 1.7 7.8 1.8 11.5-.3 5.1-2.9 5.3-7.8 6.5-13 .4-1.9 1-4.2 2.5-5.5 3.1-2.7 4.2-.8 6.7-.1 1.6.4 3.1.5 4.6-.2 2.9-1.3 10.1-15 13.4-10.5 1.2 1.5 3.8 0 2.6-1.5-2.4-3.1-5.8-2.8-8.9-.7-2.1 1.4-3.1 3.4-4.4 5.4-.7 1.2-1.6 2.8-2.7 3.7-3.1 2.3-4.3.3-7-.2-4.2-.8-7.4 2-8.9 5.8-1.3 3.1-1 6.6-2.2 9.8-2 4.9-7.4 7.1-12.2 4.8-1.8-.9-3.3 1.7-1.5 2.5zM664.7 227.8c3.3 2.4 7.1.8 9.6-2 4.4-5.2 1.3-14 8.2-17.3 5.1-2.5 11-1.4 15.9-4.9 4.3-3.1 6.6-7.9 7-13.1.1-1.9-2.9-1.9-3 0-.4 6.1-4.4 11.1-10.3 12.8-3.8 1.1-8 .9-11.5 2.7-2.9 1.5-4.6 4.1-5.4 7.2-.6 2.1-.7 4.4-1.2 6.5-.8 3-3.8 8.4-7.7 5.5-1.6-1.1-3.1 1.5-1.6 2.6z"/></g><g id="leg_r"><path class="st3" d="M676.4 836.9c9.6 8.2 19.4 16.4 29.4 24.6 9.6 7.9 19.2 15.7 28.7 23.2 4.3 13.2 2.4 21.1-.3 25.8-4.7 8.3-12.3 8.4-24.8 20.4-6.4 6.1-13.8 13.3-12.4 17.5 1.7 5.1 16.7 7.5 70-1.5l33-68.4-72.4-75.1c-17.1 11.2-34.1 22.4-51.2 33.5z"/><path class="st4" d="M568.2 600.4c-10.9 26.3.4 55.5 18.2 101.2 7.4 19 15.1 33.3 19.1 40.6 7.9 14.5 12.5 20.8 44.8 66.3 25.7 36.2 28.2 39.9 35.7 42.3 25.8 8.3 67.6-12.9 68-40.6.3-19.4-19.9-33.4-23.2-35.7-12.3-17.3-20-33.1-24.9-44.8-8.5-20.5-17.6-42.3-15.8-69.7 1.6-23.6 9.5-25 9.1-45.6-.1-3.2-1.3-41.7-24.9-57.2-30.8-20.1-90.3 5.2-106.1 43.2z"/><path class="st5" d="M697.9 604.9c1.6 4.4.3 12.7-2.3 29.2-2.9 18.4-5 19.5-6 29.2-1.7 16.2 2.4 28.3 10.2 51.4 2.1 6.1 6.5 15.8 15.3 35.2 6.1 13.4 9.1 19.4 15.8 25 5.4 4.5 7.6 4.3 12 8.8 6.3 6.5 10.5 16.2 10.7 25 .4 19.9-19.1 35.9-36.1 41.2-15 4.7-28.3 1.1-34.3-.9-11.8-14-28.1-34.2-45.9-59.8-23.1-33.2-36-51.6-45.9-77.4-12-31.2-31.1-80.9-6.5-109.4 29.1-33.5 104.6-20.1 113 2.5z"/><path d="M632.1 648c12.3 9.7 10.4 26.4 13 51 3 28.3 10.6 54.7 18.1 71.4 21.5 48 63.6 64.6 57.5 76.5-3.4 6.6-19.8 8.2-31.5 4.6-4.3-1.3-7.6-3.2-9.7-4.6-18.5-24-32.8-44.5-42.6-58.9-50.4-73.8-55.7-97.9-51.4-117.7 1.2-5.5 4.3-20 16.2-25.9 9.5-4.9 22.3-2.8 30.4 3.6z" opacity=".37" fill="#6c6d6d"/><path class="st5" d="M664.4 646.9c-7 15-14.7 25.2-20.2 31.7-13.7 16-24.2 20.4-31.7 35.6-5.2 10.7-6.1 20.9-6.2 27.3-3.1-4.9-6.2-10.2-9.2-15.8-6.7-12.7-11.7-24.7-15.4-35.6 27.6-14.4 55.1-28.8 82.7-43.2z"/></g><g id="leg_l"><path class="st3" d="M482.8 828.4c9.6 8.2 19.4 16.4 29.4 24.6 9.6 7.9 19.2 15.7 28.7 23.2-3.2 3.6-8.2 9.1-14.3 15.7-11.3 12.1-14.3 14.6-17.8 20.5-1.7 2.9-11.1 19-6.1 25.3 6.6 8.3 36.9-3.2 56.7-15.7 12.1-7.7 31.5-22.9 47.1-51.9L534.1 795c-17.2 11.1-34.3 22.3-51.3 33.4z"/><path class="st4" d="M572.4 590.1c-16 9.9-28.9 19.7-73 60-71.5 65.2-78.3 76.5-80.4 92-3.5 25.7 7.1 53.8 26.5 71.6 4.8 4.4 24.3 22.2 51.2 19.8 22.5-2 52.5-18.3 51.2-40.8-.8-14.7-14.8-28.4-33.6-34.9 38.6-35.2 73.9-57.2 100-71.1 32.7-17.4 53.5-23.5 62.9-45.4 11.6-27.1 1.3-67.6-22.7-79.1-21-10-45.6 5.3-82.1 27.9z"/><path d="M621.9 579c0 18.5-3 43.3-17.4 66.5-33 52.8-93.6 49.6-109 97.2-1.8 5.7-8.3 32 4.7 46.6 7.2 8 18.4 10.3 21.5 21.1 1.8 6.2 0 12.2-1.8 16.4 13.9-3.1 24.6-13.8 26.9-26.9 3.6-20.7-16.3-34.1-17.8-35.1-6.3-4.1-12.5-5.4-16.4-5.9 43.5-41.1 82.6-64.4 111.6-78.3 20-9.6 44.2-19.2 53.7-42.8 8-20 2-41.3-4.1-55.5-17.3-1.2-34.6-2.2-51.9-3.3z" opacity=".42" fill="#6c6d6d"/><path d="M641.5 605c1.7 9.3 2.9 23.3-2.7 37.8-9.4 24.3-31.8 33.8-56 50.1-17.5 11.7-41.5 30.8-66.5 61.5 7.4-6 17.7-14.1 30.3-23.3 23.6-17.2 36.7-26.7 55.8-36.9 28.4-15 42.6-22.5 43.4-22.9 3.2-1.4 10-4.3 16.9-10.7 2-1.9 7.8-7.5 12.4-17.3 1.7-3.7 15.7-32.8 3.6-43.3-7.4-6.6-23.1-4.5-37.2 5z" opacity=".5" fill="#6c6d6d"/></g><g id="hand_r"><path class="st4" d="M592.4 329.5c11.9-2.4 30-4.7 51.8-2.5 18.9 1.9 53.6 5.3 80.7 31.4 7.2 7 20 19.6 24.6 39.9 5.7 25.2-4.4 46.8-8.5 54.4-16.6 30.8-42.6 30.7-54.4 59.5-1.1 2.7-4.3 10.9-11.9 18.7-8.3 8.4-19.9 14.2-22.1 11.9-1-1.1-.5-4.2 5.9-13.6-1.6 1-8.2 5.2-16.1 3.4-10.9-2.4-18.2-14.6-16.1-22.9.5-2.1 1.9-5.3 18.7-15.3 7.7-4.6 11.6-6.9 18.7-10.2 18.3-8.5 51.5-37.5 46.7-64.6-2.8-15.6-17.6-27.3-29.7-32.3-24.1-9.8-39.8 6.2-58.6-1.7-11-4.7-23.8-17.8-29.7-56.1z"/><path d="M602.2 345.8c9.5 0 23.7.8 40.4 4.4 22.8 5 43 11.4 61.8 28.4 15.8 14.3 18.7 34.6 19.6 40.9.8 5.8 3.7 25.7-7.1 44-6.9 11.6-13.8 13.4-35.1 31.1-10.8 9-14.8 18.3-28 25.8s-18.4 5.3-20 4.4c-7.2-3.8-7.5-14.9-7.6-16.4 2.4-2.3 6.2-5.7 11.1-9.3 16.2-12 23.5-11.4 37.3-20 5.4-3.4 21.7-13.9 30.7-33.3 2.6-5.6 6.1-13.6 4.9-24-1.3-11-7.2-18.3-9.3-20.9-12.6-15.2-32.1-17.4-36-17.8-20.7-1.9-29.5 8.9-43.6 1.8-6.2-3.1-9.8-7.9-11.6-10.2-8.7-11.8-7.9-25.1-7.5-28.9z" opacity=".29" fill="#6c6d6d"/><path class="st10" d="M614.7 378.7c.5-5.8 23.4-8.8 39.1-8.9 15.7-.1 33.4-.2 47.6 12.4 8.2 7.2 11.4 15.3 12 16.9 9 23.2-7 45.9-8.9 48.4 2.1-3.2 8.9-14.4 6.2-28.4-2.7-14.5-13.7-22.4-19.1-26.2-3.2-2.3-13.9-9.7-28.9-10.2-17.1-.5-24.6 8.5-38.2 3.6-.6-.3-10.1-3.8-9.8-7.6z"/></g><g id="hand_l"><path class="st4" d="M328.6 260c-3.5-5.8-7.7-14.2-10.8-24.9-9.2-32.4-.8-65 3-64.9 1.5 0 3.4 5.1 5.3 26.4 2.1-7.3 3.2-13.3 3.9-17.6.7-4.5 1.1-8.2 3.7-12 2-3 4.6-4.9 6.5-6 1.7-1.5 3.4-3.1 5.1-4.6 1.8 1.5 3.3 3 4.6 4.6 13.6 16.6 6.3 42 4.3 48.3 2.3-1.5 5.2-3.8 7.8-7.2 4.7-6 4.9-10.9 6-10.8 2.1.2 4.7 17.7-1.5 35.2-1.9 5.4-4.2 9.6-6 12.5-.4 10-.6 44.8 24.2 76.8 2.3 2.9 37.4 47 84.5 44.8 30.7-1.4 41.2-20.7 61.6-12.8 15.8 6.1 27.3 24.5 27.7 43.6.5 19.9-11.1 38.4-29.4 47-13.1 1.1-32.3 1.5-54.9-2.1-25.7-4.1-79.2-12.7-109.7-54.2-13.4-18.3-19.6-39.2-22.1-50-.4-1.8-.7-3.1-1.2-5.5-3.1-14.5-7.3-36-12.6-66.6z"/><path class="st2" d="M339.4 168.7c1.9 0 1.9-3 0-3s-1.9 3 0 3z"/><path class="st2" d="M339.7 161.4c-2.9 11.4-4.5 22.9-4.6 34.6 0 1.4 2.2 1.4 2.3 0 .1-11.5 1.6-22.9 4.5-34 .3-1.4-1.9-2-2.2-.6zM348.5 161.4c-2.2 10.9-3.5 21.9-3.6 33 0 1.4 2.2 1.4 2.3 0 .2-10.9 1.3-21.7 3.5-32.4.2-1.5-1.9-2.1-2.2-.6z"/><path class="st10" d="M318 179.6c2 .1.9 20.1 5.3 45.6 5.2 30.3 16.2 51.7 22.5 67.5 11.2 28.2 33 82.9 82.8 107.2 50.8 24.9 105.5 5.5 122.5-1.3.5 3.1 1.2 11.2-2.9 20-3.8 8.2-9.7 12.8-12.4 14.5-4.7 1.9-11.7 4.3-20.5 5.6-13.7 2-24.5.1-33.8-1.7-31.5-6.2-47.3-9.2-62-15.8-15.3-6.8-34.9-15.6-51.3-35.1-16-18.9-20.9-38.3-29.5-72.7-5.4-21.5-8-39.7-9.4-52.6-5.7-9.5-13-24.6-15-44.1-2-19 1.8-37.1 3.7-37.1z"/><path d="M333.1 167.6c1.2-1.1 2.4-2.2 3.7-3.3-6.1 23.6-9.4 35.4-9.9 35.3-.5-.2 1.5-10.8 6.2-32z" opacity=".4" fill="#6c6d6d"/><path d="M424.9 423.7c12.6 3.4 30.5 6.7 52 5.5 34.6-1.9 60.6-14.4 74.4-22.4-.4 3.2-1.8 11.8-8.7 19.7-7.9 9.1-17.8 11.3-20.9 11.8-9.6.3-20 .1-31.1-.8-25.9-2.2-48.1-7.8-65.7-13.8z" opacity=".44" fill="#6c6d6d"/></g><g id="blanket_back"><path d="M577 466.4c30.1-16.6 78.3-40.7 140.5-60.7 96.5-31 151.4-27.9 245.9-47.9 52.3-11 128.4-31.6 218.7-73.4.2 10.8.7 21.9 1.6 33.5 1.9 25.5 5.4 49 9.6 70.3-9 15.4-18.1 30.9-27.1 46.3 2.7 26.6 5.3 53.2 8 79.8-54.1 1.2-109.5 3.2-166.1 6.4-139.4 7.8-271.6 21.1-396 38.3-11.7-30.8-23.4-61.7-35.1-92.6z" fill="#303030"/><g class="st14"><path class="st3" d="M692.5 426.4c77-22.3 156.7-34.3 236.8-35.8 1.9 0 1.9-3 0-3a918.55 918.55 0 00-237.6 35.9c-1.9.5-1.1 3.4.8 2.9z"/></g><g class="st14"><path class="st3" d="M902.5 407.4c70.5-17.8 146.9-1 214.7-30.9 1.8-.8.2-3.4-1.5-2.6-67.5 29.8-143.9 12.9-214 30.6-1.9.5-1.1 3.4.8 2.9z"/></g><g class="st14"><path class="st3" d="M1044.9 427c34.4-7.6 69.9-9.1 104.9-4.2 1.9.3 2.7-2.6.8-2.9-35.5-5-71.5-3.6-106.5 4.2-1.9.4-1.1 3.3.8 2.9z"/></g></g><g id="torso"><path class="st4" d="M524.6 346.2c4.9 3.1 13.1 9.1 19.4 19.4 8.9 14.5 15.8 40.5 1.7 58.4-7.6 9.6-18.5 13.5-26 15 5.2 16.6 10.1 34.8 14 54.4 9.3 46 11.3 87.5 10.2 122 21.2 3.7 50.1 6.5 84.2 3.2 30.6-3 56-10 75-16.7-4.8-84.7-24.7-147.6-40.9-187.5-4.6-11.3-39.3-95.4-69.7-91.4-8.8 1.1-13.5 9.1-34.1 16.4-13.7 4.8-25.8 6.3-33.8 6.8z"/><path d="M569.6 336.7c9.8 11.1 23.5 28.4 35.7 51.9 31.6 60.6 30.3 117.6 28.8 139.2-2.6 37.2-12.8 68.3-23.5 91.5 14.4-1.3 30.1-3.4 46.9-6.6 16.3-3.1 31.3-6.8 44.8-10.7-.9-15.3-2.9-39-7.5-67.6-10.9-67.8-28.9-114.1-46.1-147.9-28.5-55.7-48.9-65.2-55.7-62.8-1.1.4-6.1 2.6-11.7 5.7-5 2.7-8.9 5.3-11.7 7.3z" opacity=".36" fill="#6c6d6d"/><path d="M637 368.3c4.1 32.3 8.6 58.7 12 76.9 12 64.5 21.7 90.1 12.2 125.7-5.2 19.6-14.2 34.4-20.9 43.8 8-.5 17.1-1.5 26.9-3.5 13.9-2.8 25.8-6.9 35.4-11-2-62.3-14.7-135.7-52.5-208.5-4.2-8.1-8.6-15.9-13.1-23.4z" opacity=".49" fill="#6c6d6d"/></g><g id="blanket_front"><path d="M526.7 470.4c-1.6 15.7-2.3 33.7-1.3 53.5 1.6 30.6 6.9 56.8 12.7 77.7 11.3-.5 28.1-.9 48.4 0 43.6 1.9 65.3 8 85.4 10.2 60.6 6.8 79-24.3 146.6-34.4 29.6-4.4 74.7-5.7 133.8 14 42.1 22.9 84.1 45.9 126.2 68.8 3.9-8.1 14.2-26.5 35.7-39.5 30.4-18.5 61.4-13 68.8-11.5-6-15.6-15.5-46.9-7.6-84.1 2.8-13.1 7.1-24.2 11.5-33.1-24.6-10.3-59.3-23.3-102-34.4-74.1-19.4-131.7-22.6-189.9-25.5-110.9-5.6-194.1 4.7-216.7 7.6-61.4 8.1-112.9 20-151.6 30.7z" fill="#565656"/><path d="M820.7 514c0 .3 83.7 11.8 167.3 24.5 32.9 5 66.7 10.4 105.8 30.5 25.3 13 44.1 27.7 56.6 38.7 4.4-1.3 10.8-2.7 18.6-2.2 4.8.3 8.9 1.1 12.2 2.1-3.2-9.1-6.4-20.4-8.4-33.7-1.9-12.5-2.2-23.6-1.9-32.8C891.4 519 820.7 513.7 820.7 514z" opacity=".25" fill="#2d2d2d"/><path d="M525.8 509.8c6.7 10.7 14 16.5 19.2 19.7 17.5 10.9 33.4 6.8 76.6 12.2 8.5 1.1 15.4 2.2 19.7 2.9-37.3 3.7-74.7 7.4-112 11-.9-6.6-1.7-13.6-2.3-20.9-.7-8.7-1.1-17.1-1.2-24.9z" opacity=".28" fill="#232323"/><g class="st14"><path class="st20" d="M657.3 546c29.7 2.3 59.6-.2 88.5-7.5 1.9-.5 1.1-3.4-.8-2.9-28.7 7.2-58.2 9.7-87.7 7.4-1.9-.2-1.9 2.8 0 3z"/></g><g class="st14"><path class="st20" d="M773.8 539.1c33.3-2.3 66.7-.8 99.7 4.5 1.9.3 2.7-2.6.8-2.9-33.2-5.4-66.9-6.9-100.5-4.6-2 .2-2 3.2 0 3z"/></g><g class="st14"><path class="st20" d="M740.1 497.3c64-11.1 129.8-9.1 193 5.9 1.9.4 2.7-2.4.8-2.9-63.7-15.1-130.1-17-194.6-5.9-1.9.3-1.1 3.2.8 2.9z"/></g><path d="M1006.2 636.5c22.8 10 43.3 24.5 60.2 42.7 1.3 1.4 3.4-.7 2.1-2.1a184 184 0 00-60.8-43.2c-1.8-.8-3.3 1.8-1.5 2.6z" fill="#681225"/></g><g id="head"><path d="M570.8 250.9c7.4 24.4 10.1 38.5 20.6 60.8 4.9 10.4 9.6 18.7 12.9 24.1-10.7 5-28.1 11.4-50.4 12.2-13.2.5-24.5-1.2-33.2-3.1.9-6.7 1.4-15 .7-24.5-.9-11.9-3.4-21.9-5.9-29.3l-35.7-4.5c-2.3-5.1-4.7-10.2-7-15.4-3.3-.1-6.5-.2-9.8-.3 2.5-7 6.2-18.1 10.5-31.8 8-25.8 7.9-29.5 12.2-35.3 11.9-15.9 38.8-26 56.3-17.5 10.7 5 16.9 24.9 28.8 64.6z" fill="#fff" stroke="#161616" stroke-width="2" stroke-miterlimit="10"/><path class="st2" d="M463.4 272.5c6.1.1 12.2-.3 18.2-1.2 1.9-.3 1.1-3.2-.8-2.9-5.8.9-11.6 1.2-17.4 1.1-1.9 0-1.9 3 0 3zM460.9 226.2c3.6-1.9 8.3-1 10.8 2.4 1.1 1.5 3.7 0 2.6-1.5-3.4-4.7-9.7-6.2-14.9-3.5-1.7.9-.2 3.5 1.5 2.6zM465 240.8c-.3-1.1-.3-2.2 0-3.3.2-.5.4-1.1.7-1.5.2-.3.4-.5.6-.7-.2 0-.3.1-.3.4 0 2.1-.9 3.9-2.5 5.3.9.4 1.7.7 2.6 1.1 0-1.9.4-3.7 1.3-5.4.9-1.7-1.7-3.2-2.6-1.5-1.1 2.2-1.7 4.5-1.7 7 0 1.4 1.6 1.9 2.6 1.1 1.6-1.4 2.8-3.3 3.2-5.4.3-1.8.5-4.5-1.5-5.3-1.9-.7-3.7 1-4.5 2.5-1.1 2.1-1.3 4.4-.7 6.7.3 1.6 3.2.9 2.8-1zM490 230.4c4.6-1.4 9.5.1 12.3 4.1 1.1 1.6 3.7.1 2.6-1.5-3.5-5-9.8-7.3-15.7-5.5-1.8.6-1 3.5.8 2.9zM490.6 244.2c-.1-1.4.1-2.8.9-4 .2-.3.4-.6.7-.9-.1-.4-.1-.4-.1 0-.1.6-.1 1.3-.2 2-.1.6-.3 1.3-.6 1.9-.1.3-.2.5-.4.7.3.7.5.7.7 0 .5-.5.8-1.6 1.1-2.2.4-.7.7-1.4 1.1-2.2.8-1.5-1.1-3-2.4-1.8-.8.8-1.3 1.6-1.6 2.7-.5 1.9 2.3 2.6 2.9.8.2-.6.4-.9.9-1.4l-2.4-1.8c-.9 1.7-1.9 3.4-2.6 5.2-.5 1.2-.4 2.6.8 3.3 3 2 5-2.2 5.5-4.5.5-2.2.6-7-3.1-6-3 .9-4.2 5.4-4 8.1 0 2.1 3 2.1 2.8.1z"/><path d="M481.5 210.2c.8-5.3 2.9-13.9 8.8-22.8 2.1-3.1 6.4-9.8 13.5-14.3 13.4-8.6 34-7.9 49 2.6 14.6 10.3 21.9 28.8 18.8 47.1-30.1-4.2-60.1-8.4-90.1-12.6z" fill="#494949"/><path class="st2" d="M432.4 209.6L571 226.7c5.7.7 5.7-8.3 0-9l-138.6-17.1c-5.7-.7-5.7 8.3 0 9z"/><path d="M541.5 221.5c-8.2 2.9-12.9 8.4-18.4 15-11.6 13.8-8.2 18.9-16.3 27.5-13 13.7-26.2 5.6-37.8 19-9.8 11.4-8.6 26.8-8.2 30.2.4 3.4 2.1 17.1 13.6 26.5 9.9 8.1 23.3 10 24.2 8.2.3-.7-.8-2.3-8.2-7.1 2.2 1.5 5.5 3.3 9.9 4.1 5 .9 9.8 0 9.9-.7 0-.5-2.7-.5-4.8-2.7-1.2-1.3-1.8-2.8-2-4.1 4 2.6 9.1 4.8 14 3.4 13.2-3.9 15.6-32.6 16.3-42.1 2.5-30.8-6.5-47.6 4.4-58.4.9-.9 5.4-5.3 10.2-4.4 6.2 1.1 10.9 10.5 8.8 16.7-1.7 5.3-7.9 6.8-7.5 7.8.6 1.3 11-.7 19.7-7.5 3.2-2.5 5.8-4.5 7.1-8.2 2.4-6.4-.4-13.7-4.1-18-7.4-9-21.9-8.4-30.8-5.2z" fill="#161616" stroke="#161616" stroke-width="2" stroke-miterlimit="10"/><path d="M553.8 261.3c-2 .2-4.8.3-4.9-.4-.1-.3.6-.8.6-.8s-2.4 2.9-5.3 3.3c-1.4.2-2.6-.3-3.4-.7 5.2 10.8 10.5 23.8 15 38.7 5 16.4 7.8 31.4 9.4 44.2 5.4 0 12.9-.6 21.4-3.2 7-2.2 12.6-5.1 16.7-7.6-11.2-17.1-16.8-30.8-19.9-40.1-1.5-4.4-4.6-14.7-6.2-19.7-2.9-9.2-5.1-16.8-6.7-22-.8.7-2.1 1.8-3.7 2.9-2.3 1.6-6.9 4.7-13 5.4z" opacity=".22" fill="#6d6c6c"/><path d="M520.6 167.7c12 2.3 21 11.7 22.4 22.8 1.6 13.2-8.3 22.2-9.2 23 12.8 1.5 25.5 3.1 38.3 4.6.2-2.9.3-6.9-.5-11.5-2.4-14.8-11.3-23.9-13.2-25.8-2.9-3-13.5-12.7-29.1-13.6-3.5-.2-6.6.1-8.7.5z" fill="#1e1e1e"/></g></svg>