<svg xmlns="http://www.w3.org/2000/svg" xmlns:xlink="http://www.w3.org/1999/xlink" width="217.933" height="260.737" viewBox="0 0 217.933 260.737"><defs><linearGradient id="a" x1="0.475" y1="0.169" x2="0.541" y2="0.973" gradientUnits="objectBoundingBox"><stop offset="0.02" stop-color="#fff" stop-opacity="0"/><stop offset="0.39" stop-color="#fff" stop-opacity="0.388"/><stop offset="1" stop-color="#fff"/></linearGradient><linearGradient id="b" x1="0.551" y1="-3.306" x2="0.48" y2="2.002" gradientUnits="objectBoundingBox"><stop offset="0.01"/><stop offset="0.83" stop-opacity="0.071"/><stop offset="1" stop-opacity="0"/></linearGradient><linearGradient id="c" x1="0.345" y1="-0.221" x2="0.696" y2="1.713" xlink:href="#b"/><linearGradient id="d" x1="0.885" y1="1.732" x2="0.398" y2="0.014" xlink:href="#b"/><linearGradient id="e" x1="6.003" y1="0.55" x2="-1.173" y2="0.487" xlink:href="#b"/><linearGradient id="f" x1="1.711" y1="-0.078" x2="0.187" y2="0.619" xlink:href="#b"/><linearGradient id="g" x1="0.529" y1="-1.269" x2="0.463" y2="2.001" xlink:href="#b"/><linearGradient id="h" x1="0.406" y1="-0.629" x2="0.537" y2="0.97" xlink:href="#b"/><linearGradient id="i" x1="0.336" y1="-0.281" x2="0.534" y2="0.984" xlink:href="#a"/><linearGradient id="j" x1="0.303" y1="-0.333" x2="0.541" y2="1.016" xlink:href="#a"/><linearGradient id="k" x1="0.384" y1="-2.2" x2="0.688" y2="4.746" xlink:href="#b"/><linearGradient id="l" x1="0.381" y1="-2.3" x2="0.684" y2="4.672" xlink:href="#b"/><linearGradient id="m" x1="0.503" y1="1.278" x2="0.497" y2="-0.407" xlink:href="#b"/></defs><g transform="translate(-44.909 -2.248)"><path d="M54.912,255.245c16.205,6.542,34.222,5.793,51.647,4.94,21.707-1.055,45.21-2.859,61.377-17.68,14.633-13.413,19.686-34.274,25.808-53.383,11.28-35.292,28.855-70.913,23.039-107.552-3.743-23.338-17.216-44.6-35.569-58.892S139.792.881,116.731.065c-9.805-.344-19.978.569-28.6,5.367C82.082,8.8,77.142,13.89,72.412,19.04A371.594,371.594,0,0,0,22.419,88.486C11.753,107.588,2.614,128.156.368,150.02-3.277,185.267,20.511,241.4,54.912,255.245Z" transform="translate(44.909 2.248)" fill="#fff" opacity="0.18"/><path d="M3.206,45.837c0-5.1,1.624-10.2.7-15.21C2.922,25.215-.956,20.148.22,14.751.968,11.4,3.521,8.763,5.983,6.4l4.738-4.626A6.115,6.115,0,0,1,12.532.388a6.22,6.22,0,0,1,2.32-.344q7.38-.135,14.753.15c4.072.15,8.66.659,11.175,3.862,2.246,2.9,2.013,7.021,1.22,10.621s-2.013,7.268-1.295,10.883c.913,4.588,4.888,8.84,3.5,13.308-.6,1.954-2.156,3.481-2.889,5.389-.606,1.572-.689,3.436-1.886,4.618a6.46,6.46,0,0,1-2.994,1.377c-7.859,2.081-15.719,4.7-23.608,6.572C6.342,58.374,3.184,51.63,3.206,45.837Z" transform="translate(174.234 21.401)" fill="url(#a)"/><ellipse cx="54.746" cy="9.925" rx="54.746" ry="9.925" transform="translate(96.946 228.96)" fill="url(#b)"/><path d="M9.1,0s1.183,7.747.546,8.63S5.292,9.214,3,8.713.157,5.24.157,5.24L0,2.8Z" transform="translate(135.674 226.879)" fill="#f7af81"/><path d="M7.725,0s1.5,9.476.988,10.3-4.019.7-6.063.449S.344,5.322.344,5.322L0,3.2Z" transform="translate(168.054 224.192)" fill="#f7af81"/><path d="M.09,3A6.078,6.078,0,0,0,.718,4.111C1.5,5.5,1.123,7.382,2.1,8.647,2.335,7.629,4.341.473,3.39.009c-.225-.112-1.407.876-1.684,1C.853,1.379-.337,1.671.09,3Z" transform="translate(145.404 38.389)" fill="#7d3b3d"/><path d="M39.087,2.036l1.946,39.716,3.743,55.03s-2.148,2.575-8.331,2.657l-11.123-56-5.24-28.443L15.591,42.754l-1.879,57.829s-4.364.09-10.037.6L0,44.162,3.638,0Z" transform="translate(131.639 129.656)" fill="#f5a623"/><path d="M39.087,2.036l1.946,39.716,3.743,55.03s-2.148,2.575-8.331,2.657l-11.123-56-5.24-28.443L15.591,42.754l-1.879,57.829s-4.364.09-10.037.6L0,44.162,3.638,0Z" transform="translate(131.639 129.656)" fill="url(#c)"/><path d="M27.348.029,23.943,18.854h0c-.307.2-10.067,6.826-11.228,8.353s-6.108,3.578-7.8,3.877S-.541,28.165.065,23.255,20.275,2.072,22.326.912A10.016,10.016,0,0,1,27.348.029Z" transform="translate(111.686 67.351)" fill="#fff"/><path d="M25.148,0,23.943,9.124h0c-.307.2-10.067,6.826-11.228,8.353s-6.108,3.578-7.8,3.877S-.541,18.436.065,13.525l10.479-1.5Z" transform="translate(111.686 77.081)" fill="url(#d)"/><path d="M47.208,90.876c0,.3-.292.561-.749.786-3.211,1.542-15.906,1.25-23.743.457-.749-.075-.973-10.861-.973-10.861s-2.754,10.4-3.383,10.269C11.579,90.24,0,88.907,0,88.907A175.374,175.374,0,0,0,5.03,55.03C6.025,32.148,3.683,5.7,4.424,5.1c1.34-1.078,14.3-5.1,14.3-5.1L32.2,1.168l1.654.749c2.844,1.257,8.443,3.743,9.3,4.491.045,0,.075.165.1.382.09.674.135,2.193.157,4.371.052,5.09,0,13.765.045,23.683v3.189c.06,7.126.2,14.753.487,22.058C44.484,73.713,47.283,89.85,47.208,90.876Z" transform="translate(130.052 62.702)" fill="#fff"/><path d="M11.145,66.19c0,.3-.292.561-.749.786a101.8,101.8,0,0,1-10.18.748l1.751-9.835L0,6.991,5.03,0,7.365,10.165c0,8.016.165,16.849.5,25.247C8.421,49.027,11.22,65.165,11.145,66.19Z" transform="translate(166.115 87.388)" fill="url(#e)"/><path d="M15.569,35.974a5.067,5.067,0,0,1-6.063,1.5A8.234,8.234,0,0,1,5.195,32.5a7.223,7.223,0,0,0-.6-1.243c-1.04-1.781-2.71-3.66-2.784-5.479C1.609,21.46.007,17.149,0,12.823,0,9.492,2.246,5.9,3.451,2.478A14.454,14.454,0,0,0,4.117.008a1.025,1.025,0,0,1,.262,0c1.647.21,3.668,3.915,4.289,5.142a27.3,27.3,0,0,1,2.246,6.871,51.489,51.489,0,0,0,3.743,11.557c.666,1.572.891,5.786,1.347,7.433A5.988,5.988,0,0,1,15.569,35.974Z" transform="translate(168.9 69.43)" fill="#fff"/><path d="M21.085,28.436,17.53,32.927s-2.29-6.564-2.934-9.678c-.584-2.754-2.448-10.636-3.668-14.012a10.022,10.022,0,0,0-.434-1.07,3.743,3.743,0,0,0-.651-.838C7.4,4.88,0,1.123,0,1.123L1.37,0c2.844,1.257,8.443,3.743,9.3,4.491.045,0,.075.165.1.382,1.647.21,3.668,3.915,4.289,5.142a27.3,27.3,0,0,1,2.246,6.871A49.813,49.813,0,0,0,21.085,28.436Z" transform="translate(162.515 64.596)" fill="url(#f)"/><path d="M12.938.694s-.861,6.272-.172,8.593-2.5,9.274-7.223,9.731S.094,11.413,0,10.47,1.3,8.92.61,6.6,12.212-2.1,12.938.694Z" transform="translate(149.719 53.325)" fill="#f7af81"/><path d="M.195,6.572A12.493,12.493,0,0,1,0,12.313c1.25.951,2.4,2.582,3.743,2.455,2.829-.254,6.871-6.579,8.376-11a1.037,1.037,0,0,1,.075-.247c.135-1.587.3-2.829.3-2.829C11.8-2.1-.487,4.252.195,6.572Z" transform="translate(150.135 53.323)" fill="#f69771"/><path d="M.526,6.15S-.544,18.478.369,21.8s3.743,6.205,6.579,6.235,7.141-2.3,9.079-6.549,2.994-14.671,2.537-16.1S15.286-.557,7.7.057C2.487.476.548,4.256.526,6.15Z" transform="translate(146.705 34.112)" fill="#f7af81"/><path d="M0,2.237S.217-.645,2.193.133,2.275,6.316,1.37,6.87A2.672,2.672,0,0,1,0,7.4" transform="translate(163.481 45.046)" fill="#f7af81"/><path d="M9.658,34.027s4.394-1.19,2.859-7.829S5.437,0,5.437,0L.414,4.034S-1.33,30.883,2.338,33.226a8.353,8.353,0,0,0,7.32.8Z" transform="translate(110.08 61.475)" fill="#f7af81"/><path d="M8.763,11.113s.749-3.473.389-4.4S5.125-.87,3.68.1.17,7.476.005,7.91,3.74,15.125,3.74,15.125Z" transform="translate(106.754 50.384)" fill="#f7af81"/><path d="M10.033,27.223,22.51,10.24,22.144,0,1.41,21.347a5.24,5.24,0,0,0,1.43,8.234l1.542.157A6.183,6.183,0,0,0,10.033,27.223Z" transform="translate(175.559 77.522)" fill="#f7af81"/><path d="M4.858,14.7a20.127,20.127,0,0,0,3.413-1.025c.913-.487,3.817-10.853,2.994-11.542S7.028-.505,6.078.123,0,5.677,0,5.677,1.452,15.73,4.858,14.7Z" transform="translate(191.527 73.731)" fill="#f7af81"/><path d="M0,.936,1.265,0s1.5,7.6,4.207,8.361c0,0,4.319,1.692,8.031-8.234l1.422,2.867S12.3,9.222,10.883,9.88,5.374,14.506,1.7,9.222C-.045,6.684,0,.936,0,.936Z" transform="translate(148.787 61.766)" fill="#f5a623"/><path d="M0,.936,1.265,0s1.5,7.6,4.207,8.361c0,0,4.319,1.692,8.031-8.234l1.422,2.867S12.3,9.222,10.883,9.88,5.374,14.506,1.7,9.222C-.045,6.684,0,.936,0,.936Z" transform="translate(148.787 61.766)" fill="url(#g)"/><path d="M4.722,3.06A9.311,9.311,0,0,0,6.511.889a.546.546,0,0,0,.06-.412.479.479,0,0,0-.2-.2,2.118,2.118,0,0,0-2.088,0A3.286,3.286,0,0,0,2.873,1.9a2.507,2.507,0,0,1-.434.8,1.961,1.961,0,0,1-1.744.292.7.7,0,0,0-.449,0c-.232.12-.262.434-.24.7.067.816,1.1,3.593,2.3,3.383.494-.09.749-1.5.951-1.894A9.439,9.439,0,0,1,4.722,3.06Z" transform="translate(113.115 50.638)" fill="#f7af81"/><path d="M4.039,19.091s10.479-3.563,18.481,4.963L23.38,12.7a13.982,13.982,0,0,0,3.825-.928c2.4-.876,3.743-6.115.651-6.991a6.437,6.437,0,0,0-5.464,1.093S25.019.409,17.969.409c0,0-3.443.651-4.094,2.949,0,0-2.3-4.753-6.228-2.949S4.2,4.338,4.2,4.338,1.412,3.193.6,4.668s-1.175,3.795,1.5,4.1c4.259.487,3.391,1.362,3.391,1.362Z" transform="translate(143.064 20.22)" fill="#fff"/><path d="M0,8.084a19.716,19.716,0,0,0,2.507-4.79,2.013,2.013,0,0,0,1.04.876A1.048,1.048,0,0,0,4.76,3.757,1.033,1.033,0,0,0,4.566,2.6a1.886,1.886,0,0,0-1.1-.546.584.584,0,0,1-.322-.127c-.195-.21,0-.576-.112-.816A.644.644,0,0,0,2.68.9C2,.674.936.15.277,0-.067,1.1.689,2.695.606,3.9A29.192,29.192,0,0,1,0,8.084Z" transform="translate(162.627 41.781)" fill="#7d3b3d"/><path d="M2.259,4.278a3.743,3.743,0,0,1-.2.943A3.87,3.87,0,0,1,.7,6.718a.651.651,0,0,1-.277.142.427.427,0,0,1-.419-.374,1.145,1.145,0,0,1,.1-.606L1.563,1.763A5.808,5.808,0,0,0,1.832.828a1.415,1.415,0,0,1,.1-.434c.1-.2.472-.494.749-.359s.045.9,0,1.153Z" transform="translate(161.776 52.076)" fill="#7d3b3d"/><path d="M0,10.936,45.06.5,37.537,0,4.91,7.792,0,10.936Z" transform="translate(175.913 72.081)" fill="#f5a623"/><path d="M0,10.936,45.06.5,37.537,0,4.91,7.792,0,10.936Z" transform="translate(175.913 72.081)" fill="url(#h)"/><path d="M.407,19.678S-3.171,3.652,10.886.6C28.259-3.144,32.974,11.886,32.974,11.886Z" transform="translate(180.446 60.202)" fill="#f5a623"/><path d="M33,11.893.407,19.685S-3.171,3.659,10.886.605c.831-.18,1.632-.314,2.4-.412,14.222-1.811,18.945,9.633,19.6,11.452Z" transform="translate(180.446 60.196)" fill="url(#i)"/><path d="M26.7,11.646.4,17.934S-2.461,5.052,7.135.194C21.289-1.617,26.042,9.8,26.7,11.646Z" transform="translate(186.66 60.195)" fill="url(#j)"/><circle cx="1.527" cy="1.527" r="1.527" transform="translate(189.289 57.957)" fill="#f5a623"/><path d="M2.68,2.873C1.377,3.367,0,4.131,0,5.8A2.994,2.994,0,0,0,.644,7.619C2.238,9.759,5.187,9.864,7.777,9.759A86.826,86.826,0,0,0,22.141,7.813a1.961,1.961,0,0,0,.891-.367,1.811,1.811,0,0,0,.449-1A14.461,14.461,0,0,0,23.63,1.5a.868.868,0,0,0-1.4-.561,4.843,4.843,0,0,1-3.346,1.093C16,1.84,14.9-.682,11.961.178,8.9,1.069,5.636,1.735,2.68,2.873Z" transform="translate(122.822 232.007)" fill="#f5a623"/><path d="M2.687,2.841C1.385,3.335.007,4.1,0,5.76A3.069,3.069,0,0,0,.651,7.586C2.238,9.727,5.195,9.832,7.784,9.719A86.826,86.826,0,0,0,22.148,7.773a1.886,1.886,0,0,0,.891-.367,1.766,1.766,0,0,0,.449-1,14.566,14.566,0,0,0,.142-5A.838.838,0,0,0,22.275.865a4.835,4.835,0,0,1-3.383,1.168C16.01,1.838,14.9-.677,11.969.176,8.907,1.037,5.674,1.7,2.687,2.841Z" transform="translate(153.877 231.141)" fill="#f5a623"/><path d="M2.68,2.873C1.377,3.367,0,4.131,0,5.8A2.994,2.994,0,0,0,.644,7.619C2.238,9.759,5.187,9.864,7.777,9.759A86.826,86.826,0,0,0,22.141,7.813a1.961,1.961,0,0,0,.891-.367,1.811,1.811,0,0,0,.449-1A14.461,14.461,0,0,0,23.63,1.5a.868.868,0,0,0-1.4-.561,4.843,4.843,0,0,1-3.346,1.093C16,1.84,14.9-.682,11.961.178,8.9,1.069,5.636,1.735,2.68,2.873Z" transform="translate(122.822 232.007)" fill="url(#k)"/><path d="M2.687,2.841C1.385,3.335.007,4.1,0,5.76A3.069,3.069,0,0,0,.651,7.586C2.238,9.727,5.195,9.832,7.784,9.719A86.826,86.826,0,0,0,22.148,7.773a1.886,1.886,0,0,0,.891-.367,1.766,1.766,0,0,0,.449-1,14.566,14.566,0,0,0,.142-5A.838.838,0,0,0,22.275.865a4.835,4.835,0,0,1-3.383,1.168C16.01,1.838,14.9-.677,11.969.176,8.907,1.037,5.674,1.7,2.687,2.841Z" transform="translate(153.877 231.141)" fill="url(#l)"/><circle cx="0.928" cy="0.928" r="0.928" transform="translate(149.948 79.701)" fill="#f5a623"/><circle cx="0.928" cy="0.928" r="0.928" transform="translate(148.144 91.886)" fill="#f5a623"/><circle cx="0.928" cy="0.928" r="0.928" transform="translate(147.814 106.527)" fill="#f5a623"/><circle cx="0.928" cy="0.928" r="0.928" transform="translate(148.361 118.6)" fill="#f5a623"/><circle cx="0.928" cy="0.928" r="0.928" transform="translate(148.578 136.632)" fill="#f5a623"/><path d="M42.746.04A6.826,6.826,0,0,1,46,.482a2.334,2.334,0,0,1,1.332,2.725,6.033,6.033,0,0,1-1.063,1.422c-1.018,1.325-1.055,3.129-1.04,4.805l.359,49.124c0,1.677-.165,3.69-1.647,4.491a4.551,4.551,0,0,1-2.126.367q-18.9.24-37.792.4c-1.31,0-2.859-.1-3.525-1.235a3.743,3.743,0,0,1-.367-1.789A227.38,227.38,0,0,1,5.605,2.809,3.922,3.922,0,0,1,6.5.8c.749-.749,4.925.157,6.048.135,3.406-.06,6.8-.195,10.2-.292Z" transform="translate(127.987 122.228)" fill="#f5a623"/><path d="M42.746.04A6.826,6.826,0,0,1,46,.482a2.334,2.334,0,0,1,1.332,2.725,6.033,6.033,0,0,1-1.063,1.422c-1.018,1.325-1.055,3.129-1.04,4.805l.359,49.124c0,1.677-.165,3.69-1.647,4.491a4.551,4.551,0,0,1-2.126.367q-18.9.24-37.792.4c-1.31,0-2.859-.1-3.525-1.235a3.743,3.743,0,0,1-.367-1.789A227.38,227.38,0,0,1,5.605,2.809,3.922,3.922,0,0,1,6.5.8c.749-.749,4.925.157,6.048.135,3.406-.06,6.8-.195,10.2-.292Z" transform="translate(127.987 122.228)" fill="url(#m)"/></g></svg>