<svg xmlns="http://www.w3.org/2000/svg" xmlns:xlink="http://www.w3.org/1999/xlink" width="274.501" height="243.278" viewBox="0 0 274.501 243.278"><defs><linearGradient id="a" x1="0.693" y1="-1.737" x2="0.186" y2="3.957" gradientUnits="objectBoundingBox"><stop offset="0.01"/><stop offset="0.23" stop-opacity="0.11"/><stop offset="0.32" stop-opacity="0.078"/><stop offset="1" stop-opacity="0"/></linearGradient><linearGradient id="b" x1="0.49" y1="0.47" x2="0.328" y2="1.376" gradientUnits="objectBoundingBox"><stop offset="0.01"/><stop offset="0.54" stop-opacity="0.11"/><stop offset="0.6" stop-opacity="0.078"/><stop offset="1" stop-opacity="0"/></linearGradient><linearGradient id="c" x1="1.373" y1="0.455" x2="-0.492" y2="0.546" gradientUnits="objectBoundingBox"><stop offset="0.01"/><stop offset="0.13" stop-opacity="0.69"/><stop offset="1" stop-opacity="0"/></linearGradient><linearGradient id="d" x1="0.67" y1="-0.384" x2="0.478" y2="0.633" xlink:href="#c"/><linearGradient id="e" x1="0.901" y1="0.503" x2="-0.411" y2="0.494" xlink:href="#b"/><linearGradient id="f" x1="0.186" y1="0.478" x2="1.059" y2="0.577" xlink:href="#b"/><linearGradient id="g" x1="1.071" y1="0.502" x2="0.047" y2="0.495" xlink:href="#c"/><linearGradient id="h" x1="-0.112" y1="-0.291" x2="0.657" y2="0.528" xlink:href="#c"/><linearGradient id="i" x1="3.638" y1="1.04" x2="-2.918" y2="-0.02" xlink:href="#c"/><linearGradient id="j" x1="-0.515" y1="-0.494" x2="0.907" y2="0.999" gradientUnits="objectBoundingBox"><stop offset="0.02" stop-color="#fff" stop-opacity="0"/><stop offset="0.02" stop-color="#fff" stop-opacity="0.051"/><stop offset="0.03" stop-color="#fff" stop-opacity="0.161"/><stop offset="0.04" stop-color="#fff" stop-opacity="0.239"/><stop offset="0.06" stop-color="#fff" stop-opacity="0.31"/><stop offset="0.07" stop-color="#fff" stop-opacity="0.361"/><stop offset="0.1" stop-color="#fff" stop-opacity="0.38"/><stop offset="0.16" stop-color="#fff" stop-opacity="0.388"/><stop offset="0.84" stop-color="#fff" stop-opacity="0.678"/><stop offset="1" stop-color="#fff"/></linearGradient><linearGradient id="k" x1="-0.136" y1="0.5" x2="0.864" y2="0.5" xlink:href="#j"/><linearGradient id="l" x1="0" y1="0.5" x2="1" y2="0.5" xlink:href="#c"/><linearGradient id="m" x1="-0.248" y1="0.5" x2="0.752" y2="0.5" xlink:href="#j"/><linearGradient id="n" x1="0.5" y1="1.211" x2="0.5" y2="0.092" xlink:href="#c"/><linearGradient id="o" x1="0.57" y1="3.678" x2="0.45" y2="-1.746" xlink:href="#c"/><linearGradient id="p" x1="1.096" y1="-0.06" x2="-1.015" y2="1.709" xlink:href="#c"/></defs><g transform="translate(-0.002 -0.008)"><path d="M256.08,131.4c-12.5,19.774-28.453,37.093-44.48,54.149-15.822,16.839-32.213,33.793-52.73,44.4-24.705,12.791-53.721,15.291-81.336,12.036-32.508-3.837-71.57-15.381-74.7-54.36-.755-9.44,1.158-18.873,1.695-28.325,1.65-28.626-17.21-62.31,11.742-83.14,16.04-11.512,38.967-10.949,53.625-24.181C80.88,42.06,84.922,26.289,95.429,15.865c7.348-7.259,17.383-11.371,27.564-13.283C136.423.062,150.11,1.3,163.661.6c14.364-.723,28.894-1.279,43.111,1.362A91.242,91.242,0,0,1,237.323,13.62a81.777,81.777,0,0,1,15.713,12.407C265.411,38.607,273.463,55.593,274.4,73.2,275.51,93.85,267.119,113.925,256.08,131.4Z" transform="translate(0.002 0.008)" fill="#fff" opacity="0.18"/><path d="M16.973.089C10.821-.211,3.543-.019,0,5.007,2.226,7.777,5.756,9.1,9.2,10.04c9.516,2.609,19.442,3.249,29.291,3.876,11.563.742,23.535,1.42,34.375-2.673,2-.755,4.119-1.861,4.835-3.869C74.314,4.361,69.441,3.856,64.913,3.5,49.033,2.238,32.91.089,16.973.089Z" transform="translate(41.659 200.328)" fill="url(#a)"/><path d="M.036,3.759c0,1.279.083,2.756,1.062,3.607a4.131,4.131,0,0,0,2.1.8,17.267,17.267,0,0,0,9.593-1.317,1.126,1.126,0,0,0,.588-.448,1.113,1.113,0,0,0,.077-.48,3.428,3.428,0,0,0-.915-2.213A6.856,6.856,0,0,0,9.585,2.135L4.9.581A6.914,6.914,0,0,0,.682.2C-.047.44.043.12,0,1.143-.015,2.007.036,2.889.036,3.759Z" transform="translate(79.835 203.648)" fill="#2e2e3f"/><path d="M.036,3.759c0,1.279.083,2.756,1.062,3.607a4.131,4.131,0,0,0,2.1.8,17.267,17.267,0,0,0,9.593-1.317,1.126,1.126,0,0,0,.588-.448,1.113,1.113,0,0,0,.077-.48,3.428,3.428,0,0,0-.915-2.213A6.856,6.856,0,0,0,9.585,2.135L4.9.581A6.914,6.914,0,0,0,.682.2C-.047.44.043.12,0,1.143-.015,2.007.036,2.889.036,3.759Z" transform="translate(79.835 203.648)" fill="url(#b)"/><path d="M1.785,13.174C2.847,30.48,3.934,48.029.372,64.977A10.565,10.565,0,0,0,.014,68.29a3.332,3.332,0,0,0,1.708,2.705,3.281,3.281,0,0,0,3.537-.825,8.954,8.954,0,0,0,1.919-3.319A133.518,133.518,0,0,0,12.7,46.795q2.814-13.053,5.2-26.221C19.129,13.782,20.274,6.849,19.391,0L8.909,1.068c-2.558.256-6.076.806-7.188,3.581C.781,6.965,1.638,10.783,1.785,13.174Z" transform="translate(63.102 132.576)" fill="#2e2e3f"/><path d="M1.785,13.174C2.847,30.48,3.934,48.029.372,64.977A10.565,10.565,0,0,0,.014,68.29a3.332,3.332,0,0,0,1.708,2.705,3.281,3.281,0,0,0,3.537-.825,8.954,8.954,0,0,0,1.919-3.319A133.518,133.518,0,0,0,12.7,46.795q2.814-13.053,5.2-26.221C19.129,13.782,20.274,6.849,19.391,0L8.909,1.068c-2.558.256-6.076.806-7.188,3.581C.781,6.965,1.638,10.783,1.785,13.174Z" transform="translate(63.102 132.576)" fill="url(#c)"/><path d="M.021,5.5A3.8,3.8,0,0,0,.609,7.817a3.562,3.562,0,0,0,1.279.921,12.247,12.247,0,0,0,7.9.889,5.116,5.116,0,0,0,2.04-.863,2.353,2.353,0,0,0,.959-1.919,2.558,2.558,0,0,0-1.068-1.772,10.111,10.111,0,0,0-1.867-1.01C7.452,2.918,5.38.4,2.694.027-.229-.363-.024,3.551.021,5.5Z" transform="translate(62.647 199.648)" fill="#2e2e3f"/><path d="M.021,5.5A3.8,3.8,0,0,0,.609,7.817a3.562,3.562,0,0,0,1.279.921,12.247,12.247,0,0,0,7.9.889,5.116,5.116,0,0,0,2.04-.863,2.353,2.353,0,0,0,.959-1.919,2.558,2.558,0,0,0-1.068-1.772,10.111,10.111,0,0,0-1.867-1.01C7.452,2.918,5.38.4,2.694.027-.229-.363-.024,3.551.021,5.5Z" transform="translate(62.647 199.648)" fill="url(#d)"/><path d="M16.629,29.589a113.063,113.063,0,0,1-1.17,14.332c-.64,4.151-1.663,8.237-2.673,12.311l-4.3,17.517a2.142,2.142,0,0,1-.588,1.2,2.181,2.181,0,0,1-.927.371l-2.373.524a1.791,1.791,0,0,1-.953.038c-.678-.237-.812-1.113-.825-1.829C2.565,61.9,3.4,49.715,2.661,37.6,2.149,29.25.9,20.975.141,12.622-.063,10.333-.2,7.89.9,5.869,2.175,3.534,4.733,2.4,7.106,1.577,9.024.938,12.715-.866,14.627.5S16.187,5.4,16.3,7.32q.326,5.263.422,10.533Q16.795,23.712,16.629,29.589Z" transform="translate(76.961 130.256)" fill="#2e2e3f"/><path d="M16.629,29.589a113.063,113.063,0,0,1-1.17,14.332c-.64,4.151-1.663,8.237-2.673,12.311l-4.3,17.517a2.142,2.142,0,0,1-.588,1.2,2.181,2.181,0,0,1-.927.371l-2.373.524a1.791,1.791,0,0,1-.953.038c-.678-.237-.812-1.113-.825-1.829C2.565,61.9,3.4,49.715,2.661,37.6,2.149,29.25.9,20.975.141,12.622-.063,10.333-.2,7.89.9,5.869,2.175,3.534,4.733,2.4,7.106,1.577,9.024.938,12.715-.866,14.627.5S16.187,5.4,16.3,7.32q.326,5.263.422,10.533Q16.795,23.712,16.629,29.589Z" transform="translate(76.961 130.256)" fill="url(#e)"/><path d="M15.495,3.206a4.467,4.467,0,0,0,.863,2.82c.454.473,1.164.793,1.279,1.439s-.48,1.279-.825,1.855c-.787,1.375-.217,3.2-.87,4.624a4.08,4.08,0,0,1-1.919,1.842,17.7,17.7,0,0,1-2.558.959,3.524,3.524,0,0,0-2.034,1.33c-.793,1.349.3,3.2-.345,4.617-.5,1.113-1.848,1.541-3.057,1.727a4.637,4.637,0,0,1-1.919,0,3.549,3.549,0,0,1-2.13-1.867,9.35,9.35,0,0,1-.8-2.795C.645,16.63.351,13.458.1,10.292A10.188,10.188,0,0,1,.632,5,8.5,8.5,0,0,1,3.018,2.266,9.644,9.644,0,0,1,6.765.187,11.78,11.78,0,0,1,10.558.123l2.117.2a6.088,6.088,0,0,1,1.612.122C15.277.833,15.425,2.374,15.495,3.206Z" transform="translate(70.983 65.295)" fill="#98646a"/><path d="M18.818,6.158a1.976,1.976,0,0,1-.441.563c-2.309,2.258-5.852,2.788-8.314,4.867a1.676,1.676,0,0,0-.409.441,2.059,2.059,0,0,0-.147,1.1,14.4,14.4,0,0,1-.2,2.916,1.919,1.919,0,0,1-.473-1.068c-.1-.39-.333-.812-.729-.851a.755.755,0,0,0-.691.435,2.059,2.059,0,0,0-.2.831,5.308,5.308,0,0,0,0,1.772A1.8,1.8,0,0,0,8.3,18.507a.333.333,0,0,1,.211.122c.083.134-.07.288-.2.377L4.742,21.289a.876.876,0,0,1-.441.173c-.275,0-.467-.269-.64-.5a18.5,18.5,0,0,1-2.194-4.272c-.294-.959-.435-1.957-.716-2.916-.2-.7-.486-1.381-.64-2.1a7.9,7.9,0,0,1-.09-1.919,15.867,15.867,0,0,1,.256-2.13A10.392,10.392,0,0,1,2.2,3.094,8.608,8.608,0,0,1,8.349.012,11.262,11.262,0,0,1,15.064,1.86C16.324,2.6,19.81,4.1,18.818,6.158Z" transform="translate(66.969 60.456)" fill="#3d3d54"/><path d="M18.818,6.158a1.976,1.976,0,0,1-.441.563c-2.309,2.258-5.852,2.788-8.314,4.867a1.676,1.676,0,0,0-.409.441,2.059,2.059,0,0,0-.147,1.1,14.4,14.4,0,0,1-.2,2.916,1.919,1.919,0,0,1-.473-1.068c-.1-.39-.333-.812-.729-.851a.755.755,0,0,0-.691.435,2.059,2.059,0,0,0-.2.831,5.308,5.308,0,0,0,0,1.772A1.8,1.8,0,0,0,8.3,18.507a.333.333,0,0,1,.211.122c.083.134-.07.288-.2.377L4.742,21.289a.876.876,0,0,1-.441.173c-.275,0-.467-.269-.64-.5a18.5,18.5,0,0,1-2.194-4.272c-.294-.959-.435-1.957-.716-2.916-.2-.7-.486-1.381-.64-2.1a7.9,7.9,0,0,1-.09-1.919,15.867,15.867,0,0,1,.256-2.13A10.392,10.392,0,0,1,2.2,3.094,8.608,8.608,0,0,1,8.349.012,11.262,11.262,0,0,1,15.064,1.86C16.324,2.6,19.81,4.1,18.818,6.158Z" transform="translate(66.969 60.456)" fill="url(#f)"/><path d="M2.9,2.993A9.74,9.74,0,0,1,5.227.767,4.438,4.438,0,0,1,8.3.038c-.23,1.279-1.772,1.842-2.385,2.98a.729.729,0,0,0-.109.345.908.908,0,0,0,.371.582,7.508,7.508,0,0,1,1.74,2.123,3.5,3.5,0,0,1,.294,2.667A4.643,4.643,0,0,1,5.937,11.07a13.52,13.52,0,0,0-2.814,1.759C2.611,13.321,2.1,13.98,1.4,13.942a1.317,1.317,0,0,1-1-.691,2.987,2.987,0,0,1-.333-1.2A12.1,12.1,0,0,1,2.9,2.993Z" transform="translate(112.332 71.065)" fill="#98646a"/><path d="M59.591,5.769a37.732,37.732,0,0,1-3.927,10.648,14.575,14.575,0,0,1-2.213,3.2,11.9,11.9,0,0,1-7.892,3.2,67.854,67.854,0,0,1-12.068-.48v.576c-.045,10.047,6.1,28.28,1.919,31.913-.384.339-3.358.883-7.163,1.49-5.455.876-12.605,1.874-16.3,2.558-1.279.243-2.852.4-3.741-.569-.07-.077-.128-.16-.192-.243a6.152,6.152,0,0,1-.64-2.507C7.06,53.427,6,51.515,5.231,49.519,2.775,43.194,3.114,36.166,1.835,29.5c-.48-2.526-1.2-5-1.548-7.547a33.9,33.9,0,0,1-.16-7.335c.2-2.558.953-5.494,3.326-6.4l.1-.038h0a4.2,4.2,0,0,0,2.015-.9c.64-.71.422-1.791.64-2.705a.873.873,0,0,1,.07-.243,3.987,3.987,0,0,1,4.016-2.3A11.765,11.765,0,0,1,14.21,3.4a8.657,8.657,0,0,0,3.2.345c2.91.147,4.24-.237,6.856,1.145.384.2-.09,2.174.281,2.411,1.036.64,4.522.441,5.577,1.074a29.521,29.521,0,0,0,7.751,3.012c2.13.563,4.477,1.049,6.485.166,1.759-.774,2.929-2.424,4.016-4,1.445-2.117,2.9-4.221,4.342-6.331.39-.569.889-1.2,1.58-1.222a2.309,2.309,0,0,1,1.158.428L57.89,1.912a3.965,3.965,0,0,1,1.573,1.394A3.741,3.741,0,0,1,59.591,5.769Z" transform="translate(57.341 80.677)" fill="#f5a623"/><path d="M10.831,49.865a4.477,4.477,0,0,1-1.2-.953c-1.081-1.2-1.676-2.776-2.718-4.023-.7-.851-1.6-1.535-2.232-2.437a9.721,9.721,0,0,1-1.247-2.833C.662,30.455.15,20.766.035,11.185a17.12,17.12,0,0,1,.55-5.538,8.89,8.89,0,0,1,5.3-5.5A3.038,3.038,0,0,1,6.348,0l-.1.038c-2.373.9-3.127,3.837-3.326,6.4a33.9,33.9,0,0,0,.185,7.342c.352,2.558,1.068,5.02,1.548,7.547,1.279,6.664.94,13.692,3.4,20.017.774,2,1.829,3.908,2.142,6.031a6.152,6.152,0,0,0,.633,2.494Z" transform="translate(54.511 88.851)" fill="#f5a623"/><path d="M10.831,49.865a4.477,4.477,0,0,1-1.2-.953c-1.081-1.2-1.676-2.776-2.718-4.023-.7-.851-1.6-1.535-2.232-2.437a9.721,9.721,0,0,1-1.247-2.833C.662,30.455.15,20.766.035,11.185a17.12,17.12,0,0,1,.55-5.538,8.89,8.89,0,0,1,5.3-5.5A3.038,3.038,0,0,1,6.348,0l-.1.038c-2.373.9-3.127,3.837-3.326,6.4a33.9,33.9,0,0,0,.185,7.342c.352,2.558,1.068,5.02,1.548,7.547,1.279,6.664.94,13.692,3.4,20.017.774,2,1.829,3.908,2.142,6.031a6.152,6.152,0,0,0,.633,2.494Z" transform="translate(54.511 88.851)" fill="url(#g)"/><path d="M21.513,11.326c-.371,2.9-1.541,5.628-2.392,8.429-3.2,10.642-1.784,22.595-6.856,32.482a4.17,4.17,0,0,1-1.138,1.528,2.891,2.891,0,0,1-3.115-.051,6.152,6.152,0,0,1-.64-2.507C7.06,49.084,6,47.172,5.231,45.177c-2.456-6.325-2.117-13.353-3.4-20.017-.48-2.526-1.2-5-1.548-7.547a33.9,33.9,0,0,1-.16-7.335c.2-2.558.953-5.494,3.326-6.4l.1-.038h0a4.2,4.2,0,0,0,2.015-.9c.64-.71.422-1.791.64-2.705A.873.873,0,0,1,6.273,0c-.2,2.488-1.215,6.491-1.279,7.374-.077,1.919,1.669,3.517,3.537,3.92a11,11,0,0,0,5.622-.7,18.547,18.547,0,0,0,7.815-4.56C22.3,7.54,21.718,9.753,21.513,11.326Z" transform="translate(57.329 85.001)" fill="url(#h)"/><path d="M7.777,33.074c-.384.339-3.358.883-7.163,1.49C.9,32.485,1.977,30.573,2.6,28.559a24.337,24.337,0,0,0,.467-9.74C2.373,12.526.928,6.341,0,.08-.057-.284,4.3.72,5.871.585,5.827,10.633,11.992,29.441,7.777,33.074Z" transform="translate(84.962 102.386)" fill="url(#i)"/><path d="M133.714,117.777c-12.5,19.774-28.453,37.093-44.48,54.149H20.382A20.376,20.376,0,0,1,0,151.551V20.376A20.376,20.376,0,0,1,20.382,0h94.574A81.777,81.777,0,0,1,130.67,12.407c12.375,12.58,20.427,29.566,21.367,47.172C153.143,80.23,144.752,100.3,133.714,117.777Z" transform="translate(122.369 13.628)" fill="#f5a623"/><path d="M151.589,72.088q-.473,3.837-1.279,7.566c-2.948,13.462-9.165,26.381-16.583,38.11-9.97,15.765-22.128,29.975-34.765,43.725q-4.816,5.244-9.715,10.424H20.382A20.376,20.376,0,0,1,0,151.538V20.376A20.376,20.376,0,0,1,20.382,0h94.574A81.777,81.777,0,0,1,130.67,12.407a76.175,76.175,0,0,1,17.12,26.918,69.07,69.07,0,0,1,4.247,20.254,71.283,71.283,0,0,1-.448,12.509Z" transform="translate(122.369 13.628)" fill="url(#j)"/><path d="M123.353,32.763H0V0H119.555A69.07,69.07,0,0,1,123.8,20.254a71.282,71.282,0,0,1-.448,12.509Z" transform="translate(150.604 52.953)" fill="url(#k)"/><rect width="48.4" height="24.424" rx="7.421" transform="translate(130.548 42.587)" fill="url(#l)"/><path d="M122.062.026c-2.948,13.462-9.165,26.381-16.583,38.11C95.508,53.9,83.351,68.11,70.713,81.86H0V0Z" transform="translate(150.604 93.257)" fill="url(#m)"/><path d="M0,4.7,11.428,16.8l2.015-1.509L6.894,0,0,4.7Z" transform="translate(112.283 20.35)" fill="#f5a623"/><path d="M0,1.509l2.859,17.14,2.692-.166L7.566,0,0,1.509Z" transform="translate(131.105 14.3)" fill="#f5a623"/><path d="M.678,0l16.3,3.191V7.054L0,7.227.678,0Z" transform="translate(104.385 39.843)" fill="#f5a623"/><rect width="48.4" height="24.424" rx="7.421" transform="translate(128.924 42.587)" fill="#f5a623"/><rect width="48.4" height="24.424" rx="7.421" transform="translate(127.913 42.587)" fill="url(#n)"/><rect width="48.4" height="13.136" transform="translate(128.924 48.387)" fill="url(#o)"/><path d="M2.52,0,0,.173,5.711,22.352l2.52-.166,5.378-5.378,6.555,13.616,2.52-.173,5.711-3.7-11.09-12.1,7.732-4.368L2.52,0Z" transform="translate(149.594 56.867)" fill="url(#p)"/><path d="M0,0,5.711,22.179,11.09,16.8,20.165,30.25l5.711-3.7-11.09-12.1,7.732-4.368L0,0Z" transform="translate(149.594 57.04)" fill="#fff"/></g></svg>