<svg xmlns="http://www.w3.org/2000/svg" viewBox="0 0 1600 1200"><style>.st0{fill:#e8e8e8}.st3,.st5{fill:#fff}.st5{stroke:#000;stroke-width:3;stroke-miterlimit:10}.st6{fill:#5222d0}.st7{fill:#161616;stroke:#161616;stroke-width:3;stroke-miterlimit:10}.st8{fill:#ec615b}.st9{opacity:9.000000e-002;fill:#3d3d3d}.st11,.st12,.st13{opacity:.14;fill:#3d3d3d}.st12,.st13{opacity:.11}.st13{opacity:.13}</style><g id="background"><path class="st0" d="M1361.6 969.1c-6.8-8.5-11.9-18.1-16.2-28-2.1-4.9-4.1-10-6-15-.9-2.4-1.9-4.7-2.6-7.1-.8-2.5-1.1-3.8.1-6.2 0-1.7.7-2.4 2-2.2 1.1-.3 1.8.2 2.2 1.5 1-.1 2-.3 2.9-.4-6-18.1-9.9-36.8-11.6-55.7-.8-9.2-1.1-18.5-.9-27.8.1-4.3.3-8.6.7-13 .1-1.7-.1-6.5.9-7.9 1.1-.3 2.1-.6 3.2-.8 1.8-1.5 3.2-1.5 4.1.1 1.1.9 1.8 2.5 2.5 3.7 18.3 30.4 30.5 64.7 36.4 99.6 3.4 20.1 4.7 40.4 3.8 60.8-.1 1.9 2.9 1.9 3 0 1.6-40.5-5.1-81.2-19.8-119-3.7-9.4-7.8-18.6-12.4-27.6-2.1-4.2-4.4-8.3-6.7-12.3-1.9-3.3-3.8-7.3-7-9.5-6.2-4.2-9.8 1.8-10.5 7.3-1.3 10.4-1.5 21-1.2 31.5.7 24.3 4.9 48.3 12.5 71.3.5 1.6 3 1.4 2.9-.4 0-4-4.5-5.7-7.9-4-6 2.9-2.6 11.2-1 15.6 6.2 16.8 12.9 33.4 24.2 47.5 1.5 1.7 3.6-.5 2.4-2z"/><path class="st0" d="M1379.2 894.3c.8-13.3 2.5-26.5 5.4-39.6 1.4-6.1 2.9-12.2 4.8-18.2.9-3 1.9-6 2.9-8.9.5-1.5 1-3 1.6-4.4.2-.6.4-1.2.7-1.8.4-2.1 1.8-3.3 4.1-3.7-.2 1.7 2.5 2 2.9.4 2-6.6 18.2-49.1 28.1-41.8 2.9 2.1 3.7 7 4.2 10.3.8 4.6 1.5 9.3 2 13.9.9 7.9 1.5 15.8 1.7 23.8.9 32.5-4 65.2-14.4 96.1-6 17.7-13.8 34.6-23.2 50.7-1 1.7 1.6 3.2 2.6 1.5 18.9-32.2 31-68 35.8-104.9 2.4-18.6 3-37.4 1.6-56.1-.7-8.9-1.7-17.8-3.3-26.6-.9-4.8-3.1-11.9-8.8-12.8-7.5-1.2-13.3 11.2-16.3 16.2-5.5 9.1-9.7 18.8-12.8 28.9 1 .1 2 .3 2.9.4.6-4.8-5.4-5.1-7.8-2-1.8 2.3-2.6 5.7-3.5 8.4-1.7 4.7-3.2 9.5-4.6 14.3-5.3 18.2-8.4 36.9-9.5 55.8-.2 2 2.8 2 2.9.1zM1332.2 806.2c21.8 50.9 35.5 105 40.5 160.1.2 1.9 3.2 1.9 3 0-5.1-55.7-18.9-110.2-40.9-161.7-.8-1.7-3.4-.1-2.6 1.6z"/><path class="st0" d="M1331.6 872.1c10.4 5.2 20 11.7 28.7 19.3 1.4 1.3 3.6-.8 2.1-2.1-9-7.8-18.7-14.4-29.4-19.8-1.6-.8-3.2 1.8-1.4 2.6zM1359.4 842.8c-2.8 5.5-4.9 11.3-6.2 17.4-.4 1.9 2.5 2.7 2.9.8 1.3-5.8 3.2-11.4 5.9-16.7.9-1.7-1.7-3.2-2.6-1.5zM1424.8 778.6c-6.5 58.1-13.6 118.1-41.9 170.3-.9 1.7 1.7 3.2 2.6 1.5 28.6-52.7 35.7-113.1 42.3-171.8.2-1.9-2.8-1.9-3 0z"/><path class="st0" d="M1387.4 835.5c8 18.8 13.9 38.3 17.8 58.3.4 1.9 3.3 1.1 2.9-.8-4-20.3-10.1-40-18.1-59-.8-1.8-3.3-.3-2.6 1.5zM1417.5 850.6c7.5-9.5 15-19 22.5-28.4 1.2-1.5-.9-3.6-2.1-2.1-7.5 9.5-15 19-22.5 28.4-1.2 1.4.9 3.6 2.1 2.1zM174.8 955.8c-6.5-7-13.1-14.2-18.4-22.2-2.5-3.9-4.8-7.9-6.6-12.2-1-2.4-5.7-15.2.8-12.6 1.6.6 2.3-1.5 1.5-2.5-6.6-8.4-11-18.2-14.8-28.1-3.6-9.4-7.1-18.9-10.4-28.4-3.6-10.4-6.7-21.1-7.9-32-.9-8.6-1.8-20.4 4.4-27.5 9.1-10.3 18.3 6.7 22.6 13.1 5.8 8.6 11.5 17.4 17 26.2 10.9 17.9 20.8 36.5 28.1 56.3 8.3 22.6 12.9 46.5 11.8 70.6-.1 1.9 2.9 1.9 3 0 2.2-48.8-18.7-94.3-44.2-134.7-6.3-9.9-12.6-19.9-19.5-29.4-3.9-5.3-10.1-10.8-17.1-7.3-6.4 3.1-8.8 11.4-9.4 17.9-1.1 11.8 1.2 23.8 4.4 35.1 3.6 12.8 8.5 25.2 13.1 37.6 4.3 11.6 9.1 22.9 16.8 32.7.5-.8 1-1.7 1.5-2.5-2.6-1-4.9-.7-7.1.9-.4.3-.8.8-.7 1.3 2.2 20.2 15.9 35.7 29.1 49.9 1.2 1.4 3.3-.7 2-2.2z"/><path class="st0" d="M183 860.7c-3.1-28 .6-56.1 10.8-82.4-.8.2-1.7.4-2.5.7 3.1 2.8 5.2 6 6.4 10 .4 1.4 2.5 1.5 2.9 0 6.8-23.6 16.7-46.1 29.7-67-.9-.1-1.8-.2-2.7-.4 7.8 19.9 12.7 40.9 14.3 62.3 1.4 19.2 1.9 41.3-9.8 57.6-.6.8 0 2 .9 2.2 9 2.1 6.3 16.3 5.5 22.7-1.2 10.6-3 21.2-5.3 31.6-4.4 20.1-10.8 39.8-18.9 58.7-.8 1.8 1.8 3.3 2.6 1.5 9.5-22 16.6-45 21.1-68.5 2-10.8 4.3-22.2 4.5-33.2.1-6.3-1.5-14.2-8.6-15.8.3.7.6 1.5.9 2.2 11.7-16.3 11.5-38.1 10.3-57.3-1.4-22.3-6.4-44.2-14.5-64.9-.5-1.2-2-1.5-2.7-.4-13.1 21.1-23.1 43.8-30 67.7h2.9c-1.4-4.5-3.7-8.1-7.2-11.3-.9-.8-2.1-.4-2.5.7-10.3 26.5-14 55-10.9 83.2 0 2 3 2 2.8.1zM124.5 789.8c13.9 27.5 28.1 54.9 41.4 82.7 13 27.4 24.5 55.7 30.7 85.5.4 1.9 3.3 1.1 2.9-.8-6.2-29.5-17.4-57.4-30.3-84.6-13.4-28.4-28-56.3-42.2-84.4-.8-1.6-3.4-.1-2.5 1.6z"/><path class="st0" d="M228.2 725.8c-2.1 29.7-11.3 58.1-18.1 86.9-6.8 28.8-11.5 58.1-14.1 87.6-.2 1.9 2.8 1.9 3 0 2.7-30.5 7.7-60.8 14.9-90.5 6.8-27.8 15.2-55.3 17.3-84 .1-2-2.9-2-3 0zM122.9 847.1c15.1 5.1 28.9 12.9 41.2 23.1 1.5 1.2 3.6-.9 2.1-2.1-12.7-10.5-26.9-18.5-42.5-23.9-1.9-.7-2.7 2.2-.8 2.9z"/><path class="st0" d="M190.4 780.7c3.4 18.1 8.4 35.9 14.9 53.1.7 1.8 3.6 1 2.9-.8-6.5-17.3-11.4-35-14.9-53.1-.4-1.9-3.2-1.1-2.9.8zM201.2 906.9c10.8-14.2 21.9-28.5 37.7-37.4 1.7-.9.2-3.5-1.5-2.6-16.2 9.2-27.7 23.9-38.8 38.5-1.1 1.5 1.5 3 2.6 1.5z"/><path d="M1241.2 974.5h252.4c3.9 0 3.9-6 0-6h-252.4c-3.9 0-3.9 6 0 6zM327.7 954.5h-198c-3.9 0-3.9 6 0 6h198c3.8 0 3.8-6 0-6zM999.9 1023.3h351.5c3.9 0 3.9-6 0-6H999.9c-3.8 0-3.9 6 0 6z"/></g><g id="banner"><path d="M1215.8 976.1l-873-17.4c-52.1-1-88.5-51.9-72.7-101.5l179.7-565.4c10.2-32.1 40-54.1 73.7-54.3 269.3-1.9 538.6-3.9 807.9-5.8 49.2-.4 86.5 44.5 77 92.8l-114.7 588.6c-7.1 37.2-40 63.8-77.9 63z" fill="#ec615b" stroke="#000" stroke-width="6" stroke-miterlimit="10"/><path d="M1210.2 971.2c-291-5.5-582-10.9-873-16.4-52.1-1-88.5-49-72.7-95.8l179.7-533.7c10.2-30.3 40-51 73.7-51.3 269.3-1.8 538.6-3.7 807.9-5.5 49.2-.3 86.5 42 77 87.6l-114.7 555.7c-7.1 35-40 60.1-77.9 59.4z" fill="#fff" stroke="#000" stroke-width="6" stroke-miterlimit="10"/><path d="M1284.8 926.7c-9.6 21.1-28.1 37-50.4 43.2-1.9.5-1.1 3.4.8 2.9 23-6.4 42.3-22.9 52.2-44.6.7-1.7-1.8-3.3-2.6-1.5zM531.2 259.6c-3-.3-4.1-3.5-3.3-6.1 1.1-3.3 4.3-4 7.3-2.5 2.1 1.1 3.2 3.7 2.3 6-1 2.5-3.9 3.3-6.3 2.4-1.8-.7-2.6 2.2-.8 2.9 3.9 1.5 8.7-.5 10.1-4.6 1.4-4.4-1.4-8.7-5.6-10-4.7-1.4-8.8.8-10 5.7-1 4.5 1.8 8.7 6.3 9.2 1.9.2 1.9-2.8 0-3z"/><path class="st3" d="M527.7 257.2c1.2 3.1 5.6 4.1 8.2 2.2 1.7-1.3 2.5-3.8 1.7-6-.9-2.4-3.5-3.8-5.8-3.4-3.2.6-5.3 4.3-4.1 7.2z"/><path d="M565 258.7c-3-.3-4.1-3.5-3.3-6.1 1.1-3.3 4.3-4 7.3-2.5 2.1 1.1 3.2 3.7 2.3 6-1 2.5-3.9 3.3-6.3 2.4-1.8-.7-2.6 2.2-.8 2.9 3.9 1.5 8.7-.5 10.1-4.6 1.4-4.4-1.4-8.7-5.6-10-4.7-1.4-8.8.8-10 5.7-1 4.5 1.8 8.7 6.3 9.2 1.9.2 1.9-2.8 0-3z"/><path d="M561.5 256.3c1.2 3.1 5.6 4.1 8.2 2.2 1.7-1.3 2.5-3.8 1.7-6-.9-2.4-3.5-3.8-5.8-3.4-3.2.6-5.3 4.3-4.1 7.2z" fill="none" stroke="#000" stroke-miterlimit="10"/><path d="M529.2 251c1.4 3.1 3 6.1 4.9 9 1 1.6 3.6.1 2.6-1.5-1.8-2.9-3.4-5.9-4.9-9-.8-1.7-3.4-.2-2.6 1.5z"/><path d="M529.5 260c1.4-1.2 2.7-2.5 4.1-3.7 1.2-1.1 2.4-2.4 3.9-3.2 1.7-.9.2-3.5-1.5-2.6-1.5.8-2.7 2.1-4 3.3-1.5 1.4-3.1 2.8-4.6 4.2-1.4 1.2.7 3.3 2.1 2z"/><path class="st5" d="M900.9 327.5c-8.9 28.6-17.9 57.3-26.8 85.9-5.5 17.8 7.6 35.8 26.2 36.1 124.1 1.5 248.1 2.9 372.2 4.4 13.6.2 25.3-9.6 27.7-23 5.3-30.4 10.7-60.8 16-91.2 3-17-10.1-32.6-27.4-32.6l-361.4.9c-12.1 0-22.9 7.9-26.5 19.5zM424.7 726.2l-51.9 149.1c-10.7 30.8 14.7 62.2 50.7 62.6 240.2 2.5 480.5 5.1 720.7 7.6 26.4.3 49.1-16.6 53.6-39.9 10.4-52.7 20.7-105.5 31.1-158.2 5.8-29.6-19.6-56.6-53.1-56.6l-699.9 1.5c-23.5.1-44.2 13.8-51.2 33.9z"/><path class="st0" d="M938.5 498.8l-48.3 144.6c-.6 1.8 2.3 2.6 2.9.8l48.3-144.6c.6-1.9-2.3-2.7-2.9-.8z"/><path class="st0" d="M940.4 499.1c41.8-2.2 83.8-5.6 125.7-5.6 41.7 0 83.3 3.6 124.8 7.2 1.9.2 1.9-2.8 0-3-41.5-3.6-83.1-7.1-124.8-7.2-41.9 0-83.9 3.4-125.7 5.6-1.9.1-2 3.1 0 3z"/><path class="st0" d="M1190.4 500.6c-11.2 47.8-22.5 95.5-33.7 143.3-.4 1.9 2.5 2.7 2.9.8 11.2-47.8 22.5-95.5 33.7-143.3.4-1.8-2.5-2.6-2.9-.8z"/><path class="st0" d="M892 648.6c68.6-3.7 137.3-4.6 206-2.5 19.6.6 39.1 1.4 58.7 2.5 1.9.1 1.9-2.9 0-3-68.6-3.8-137.3-4.6-206-2.5-19.6.6-39.1 1.4-58.7 2.5-1.9.1-2 3.1 0 3z"/><path class="st0" d="M1025.2 643.5c42.8-22.3 91.7-25.6 139-28.5 1.9-.1 1.9-3.1 0-3-47.8 3-97.2 6.4-140.5 28.9-1.8.9-.3 3.5 1.5 2.6z"/><path class="st0" d="M1093.5 548.3c4.7 22.9 7.1 46.2 7.2 69.6 0 1.9 3 1.9 3 0-.2-23.7-2.6-47.2-7.3-70.4-.4-1.9-3.3-1.1-2.9.8z"/><path class="st0" d="M1092.4 547.8c-6.1 8.9-12.1 17.9-18.2 26.8.9.3 1.9.5 2.8.8-.5-9 1.8-17.4 6.9-24.8 1.1-1.6-1.5-3.1-2.6-1.5-5.4 7.8-7.9 16.9-7.4 26.3.1 1.5 1.9 2 2.8.8 6.1-8.9 12.1-17.9 18.2-26.8 1.2-1.7-1.4-3.2-2.5-1.6z"/><path class="st0" d="M1082.3 547c-3.4-1.5-6.8-2.2-10.5-2-2.2.1-11.1 2.8-9.8-.5.5-1.3 3.3-3 4.4-3.9 2.1-1.7 4.3-3.3 6.6-4.6 5.1-2.9 10.8-4.3 16.6-3.4 1.9.3 2.7-2.6.8-2.9-11.6-1.8-23.7 4.5-31.2 13.2-2 2.3-1.7 5.5 1.6 6.5 1.8.5 3.8-.2 5.5-.6 4.9-1.1 9.7-1.5 14.5.6 1.7 1 3.2-1.6 1.5-2.4z"/><path class="st0" d="M1092.3 529.5c3.8-9 11.3-15.6 20.6-18.4-.5-.8-1-1.7-1.5-2.5-3.4 4.4-5.4 9.2-6.1 14.7-.2 1.9 2.8 1.9 3 0 .6-4.7 2.4-8.9 5.2-12.6.8-1.1.1-3-1.5-2.5-10.4 3.1-18.5 10.5-22.7 20.5-.6 1.8 2.3 2.6 3 .8z"/><path class="st0" d="M1107.5 525.1c7.8-4.5 17-4.6 24.9-.3v-2.6c-6.3 3-12.3 6.6-18 10.6-1.6 1.1-.1 3.7 1.5 2.6 5.7-4 11.7-7.6 18-10.6 1-.5.9-2.1 0-2.6-8.9-4.9-19.2-4.8-27.9.3-1.7 1-.2 3.6 1.5 2.6z"/><path class="st0" d="M1113.3 535.6c6.5 3.6 12.8 9.5 11 17.7.9-.1 1.8-.2 2.7-.4-4.2-6.7-11.4-10.5-19.3-10.2-1.9.1-1.9 3.1 0 3 6.9-.3 13.1 2.9 16.7 8.7.6 1 2.5 1 2.7-.4 2-9.5-4.6-16.8-12.4-21.1-1.6-.8-3.1 1.8-1.4 2.7z"/><path class="st0" d="M1105.1 545.2c4.6 24 6.3 48.3 5 72.7-.1 1.9 2.9 1.9 3 0 1.3-24.6-.4-49.3-5.1-73.5-.4-1.9-3.3-1.1-2.9.8z"/><path class="st0" d="M1101.8 592.3c3.3.4 6.4-.2 9.4-1.5 1.8-.8.2-3.4-1.5-2.6-2.5 1.2-5.2 1.5-7.9 1.1-1.9-.3-1.9 2.7 0 3zM905 607.7c16.4 1 33 1.3 49.3 3.2 8 .9 15.7 3.3 23.6 4.5 7.7 1.1 15.2 0 22.9-1.4 33.7-5.9 67.6-2.7 101.3.9 1.9.2 1.9-2.8 0-3-32.6-3.5-65.7-6.9-98.3-1.5-9.2 1.5-17.9 3.3-27.2 1.7-7.5-1.3-14.7-3.3-22.2-4.2-16.3-1.9-32.9-2.2-49.3-3.2-2-.2-2 2.8-.1 3zM1098.3 571.6c.4 1.7 2.1 2.1 3.7 1.8 3.1-.5 6.3-1.6 9.3-2.5 1.9-.5 1.1-3.4-.8-2.9-1.8.5-3.6 1-5.4 1.4-.8.2-1.7.4-2.5.7l-1.2.3c-.7-.1-.7 0-.2.3-.4-1.8-3.3-1-2.9.9zM971.6 533.4c-9.9-3.2 3-20.2 9.9-12.6 2.5 2.7 2.4 7.4.1 10.2-2.6 3.2-7.1 3.7-10.6 1.7-1.7-1-3.2 1.6-1.5 2.6 5.1 2.9 12 1.8 15.2-3.3 2.9-4.7 2.1-12-3-14.9-11.1-6.2-24.4 14.9-10.8 19.3 1.8.5 2.6-2.4.7-3zM1202.8 509.3c32.3 1.7 64.3 5.5 96.1 11.5 1.9.4 2.7-2.5.8-2.9-32-6.1-64.3-10-96.9-11.7-1.9 0-1.9 3 0 3.1zM1202.3 518c30.8 3.3 61.7 6.8 92.4 10.5 1.9.2 1.9-2.8 0-3-30.8-3.7-61.6-7.2-92.4-10.5-1.9-.2-1.9 2.8 0 3zM1201.3 527c18.6 3.1 37.3 5.1 56.1 5.7 1.9.1 1.9-2.9 0-3-18.5-.7-37-2.5-55.3-5.6-1.9-.3-2.7 2.6-.8 2.9zM1190.1 580.9c25.3 3.6 50.7 6.6 76.1 9 1.9.2 1.9-2.8 0-3-25.2-2.4-50.3-5.4-75.3-8.9-1.9-.3-2.7 2.6-.8 2.9zM1188.2 589.5c20.1 3.5 40.2 6.4 60.4 8.8 1.9.2 1.9-2.8 0-3-20-2.3-39.8-5.2-59.6-8.7-1.9-.4-2.7 2.5-.8 2.9zM1186.1 602.2c25.2 5 50.6 8.4 76.2 10 1.9.1 1.9-2.9 0-3-25.3-1.7-50.5-5-75.4-9.9-1.9-.4-2.7 2.5-.8 2.9zM468 730.9c46 2.3 92.2-.1 138.2-.8 46-.7 91.9-.9 137.9-.8 92.3.2 184.5 1.9 276.8 4 52 1.2 103.9 2.6 155.9 3.9 1.9.1 1.9-2.9 0-3-92.2-2.4-184.5-4.9-276.8-6.4-92.3-1.5-184.5-2.2-276.8-1-51.7.6-103.6 3.7-155.2 1-2 0-2 3 0 3.1z"/><path class="st6" d="M466.2 378.7c6 .9 10.2-3.2 22.1-12 17.9-13.3 21.7-13.7 24.4-13.5 1.3.1 3.7.5 15 9 16.5 12.4 17.5 16.2 22.9 16.5 9.8.4 11.2-12 22.9-13.1 10.6-1 13.9 8.7 27 8.2 10.1-.3 16-6.5 16.9-5.2 1.1 1.7-8.4 14.8-22.1 16.9-10.1 1.5-12.3-4.4-22.1-3-13.6 2-16.2 14.4-26.2 13.5-5.9-.6-6.7-5-16.9-12-5.4-3.7-14.8-10.1-25.1-10.9-18.9-1.4-28.7 16.9-40.1 11.6-5.5-2.5-8.6-9.3-7.9-10.1.5-.8 4 3.3 9.2 4.1z"/><path class="st0" d="M934.7 327.4c-6.1 27.7-13.6 55.1-22.4 82.1-.6 1.8 2.3 2.6 2.9.8 8.8-27 16.3-54.4 22.4-82.1.4-1.9-2.5-2.7-2.9-.8z"/><path class="st0" d="M914.1 411.8c10.3 1.2 20.6.7 31 .5 10.8-.3 21.6-.5 32.5-.8 21.6-.5 43.3-1.1 64.9-1.6 1.9 0 1.9-3 0-3-21.6.5-43.3 1.1-64.9 1.6-10.5.3-21 .5-31.5.8-10.7.3-21.3.8-32-.4-1.9-.3-1.9 2.7 0 2.9z"/><path class="st0" d="M951.3 355.3c-3.8 17.8-7 35.7-9.7 53.7-.3 1.9 2.6 2.7 2.9.8 2.7-18 5.9-35.9 9.7-53.7.4-1.9-2.5-2.7-2.9-.8z"/><path class="st0" d="M953.6 356.9c5.3.3 10.5.8 15.7 1.8-.3-.6-.7-1.2-1-1.8-4.7 16.9-8.7 34-12 51.2-.4 1.9 2.5 2.7 2.9.8 3.3-17.2 7.3-34.3 12-51.2.2-.7-.2-1.7-1-1.8-5.5-1-10.9-1.6-16.5-1.9-2.1-.2-2.1 2.8-.1 2.9zM979.4 372.3c-1.5 12.2-3.5 24.2-6 36.2-.4 1.9 2.5 2.7 2.9.8 2.6-12.2 4.6-24.6 6.1-37 .2-1.9-2.8-1.9-3 0z"/><path class="st0" d="M980.9 372.5c5.6-.2 11.3-.1 16.9.3-.5-.6-1-1.3-1.4-1.9-2.2 11.9-4.1 23.8-5.7 35.8-.3 1.9 2.7 1.9 3 0 1.6-11.7 3.4-23.3 5.6-35 .2-1-.4-1.8-1.4-1.9-5.6-.4-11.3-.4-16.9-.3-2.1 0-2.1 3-.1 3zM1015.9 345.1c-3.5 20.9-7.6 41.8-12.1 62.5-.4 1.9 2.5 2.7 2.9.8 4.5-20.7 8.6-41.6 12.1-62.5.4-1.9-2.5-2.7-2.9-.8z"/><path class="st0" d="M1018.3 343.6v.5c0 .8.7 1.5 1.5 1.5s1.5-.7 1.5-1.5v-.5c0-.8-.7-1.5-1.5-1.5-.8.1-1.5.7-1.5 1.5z"/><path class="st0" d="M1019 346.1c4.6 1 9 1.5 13.7 1.4-.5-.6-1-1.3-1.4-1.9-3.9 20.9-7.5 41.9-10.9 62.9-.3 1.9 2.6 2.7 2.9.8 3.4-21 7-42 10.9-62.9.2-.9-.4-1.9-1.4-1.9-4.4 0-8.6-.4-12.9-1.3-2-.4-2.8 2.4-.9 2.9zM1064.7 339.3c34-.4 67.9-.2 101.9.7 1.9 0 1.9-3 0-3-34-.8-67.9-1-101.9-.7-1.9 0-1.9 3 0 3zM1067 351.5c21.1 1.4 42.3 1.1 63.4-.9 1.9-.2 1.9-3.2 0-3-21.1 2-42.3 2.3-63.4.9-1.9-.1-1.9 2.9 0 3zM1062.4 366.6c29-.5 58 0 87 1.5 1.9.1 1.9-2.9 0-3-29-1.6-58-2.1-87-1.5-1.9 0-1.9 3 0 3zM1218 413c-10.2-1.3-15.1-11.5-18-20.2-2.7-8.2-3.7-16.8-.6-25 5.4-14.4 20.1-26 34.9-29.3 15.4-3.5 31 4.7 38.4 18.4 7.8 14.4 5.1 32.9-4 46-11.2 16.1-34.8 17.9-51.2 9.4-1.7-.9-3.2 1.7-1.5 2.6 15.7 8.1 37.4 7.7 50.7-5 13-12.4 17.2-34.5 10.4-50.9-6.5-15.5-22.9-26.3-39.9-24.1-16.8 2.2-33.7 15-40.1 30.7-4.3 10.7-2.5 21.9 1.7 32.3 3.6 8.8 9.3 16.8 19.3 18.1 1.8.2 1.8-2.8-.1-3z"/><path class="st0" d="M1222.2 342.5c4.7 12.1 9 24.4 13.1 36.8.6 1.8 3.5 1 2.9-.8-4.1-12.4-8.4-24.6-13.1-36.8-.7-1.7-3.6-1-2.9.8z"/><path class="st0" d="M1238.4 381c11.8-8.2 23.5-16.7 34.9-25.4 1.5-1.2 0-3.8-1.5-2.6-11.5 8.7-23.1 17.2-34.9 25.4-1.6 1.1-.1 3.7 1.5 2.6z"/><path class="st0" d="M1237.9 381.1c13.4-.6 26.6-2.8 39.5-6.6 1.8-.5 1.1-3.4-.8-2.9-12.6 3.7-25.5 5.9-38.7 6.4-1.9.2-1.9 3.2 0 3.1z"/><path class="st0" d="M1235.5 380.1c-8 10.3-15.9 20.6-23.9 30.9-1.2 1.5 1.4 3 2.6 1.5 8-10.3 15.9-20.6 23.9-30.9 1.2-1.5-1.4-3-2.6-1.5zM470 725.8c-2.5-.7-1-4 .1-5.1 1.2-1.2 4.2-1.1 5.8-1.1 2.9-.1 5.8 0 8.8-.1 6 0 12-.1 18-.1 12-.1 24-.1 36-.2 23.7-.1 47.3-.3 71-.4 47.7-.3 95.3-.5 143-.6 95-.3 189.9-.3 284.9.2 26 .2 52.1.2 78.1 1.3 12.9.5 25.8 1.3 38.7 2.5 6.4.6 12.9 1.3 19.3 2.1 2.1.3 4.2.5 6.3.9 1.7.3 2.7 0 3.3 1.6 1.6 3.8-3.5 7.7-6.6 7.9-1.9.1-1.9 3.1 0 3 6.7-.5 11.4-7.3 8.9-13.7-.2-.5-.5-1-1-1-47.7-7.1-96-7.1-144.1-7.4-49.7-.3-99.3-.4-149-.5-99.6 0-199.3.4-298.9.9-28 .2-56 .3-84 .5-6.7 0-13.3.1-20 .1-5.6 0-12.2-.9-17.6.7-5.2 1.5-8.6 9.7-1.8 11.6 1.8.3 2.6-2.6.8-3.1zM462.6 743.4c-10 36.1-22.2 71.6-36.7 106.2-.7 1.8 2.2 2.6 2.9.8 14.5-34.6 26.7-70.1 36.7-106.2.5-1.9-2.4-2.7-2.9-.8z"/><path class="st0" d="M463.6 746.4c25.7 3.1 52.2 1 78 .7 1.9 0 1.9-3 0-3-25.8.4-52.3 2.4-78-.7-2-.2-1.9 2.8 0 3z"/><path class="st0" d="M538.4 746.9c-8.5 31.4-17.5 62.6-27 93.8-.6 1.9 2.3 2.6 2.9.8 9.5-31.1 18.5-62.4 27-93.8.5-1.9-2.4-2.7-2.9-.8zM427.3 851.1l42.2-.3c6.9 0 13.7-.1 20.6-.1 6.1 0 12.2.2 18.2-1.2 1.9-.4 1.1-3.3-.8-2.9-6.3 1.5-12.9 1.1-19.4 1.1-6.9 0-13.7.1-20.6.1-13.4.1-26.8.2-40.2.2-1.9.1-1.9 3.1 0 3.1zM554.1 747.6c67.6-1.9 135.3-1.8 202.9.4 1.9.1 1.9-2.9 0-3-67.6-2.2-135.3-2.4-202.9-.4-1.9 0-1.9 3 0 3zM551.3 765.2c39.2-.1 78.4-.1 117.7-.2 1.9 0 1.9-3 0-3-39.2.1-78.4.1-117.7.2-2 0-2 3 0 3z"/><path class="st0" d="M511 847.6c1.8-3 3.1-6.2 3.8-9.5.4-1.9-2.5-2.7-2.9-.8-.7 3.1-1.8 6.1-3.5 8.8-1 1.6 1.6 3.1 2.6 1.5zM886.2 756.4c-8 38.2-15.7 76.4-23.2 114.6-.4 1.9 2.5 2.7 2.9.8 7.5-38.2 15.2-76.4 23.2-114.6.4-1.9-2.5-2.7-2.9-.8z"/><path class="st0" d="M863.6 873.5l123.2 3.3c40.6 1.1 81.2 2.8 121.8 2.8 1.9 0 1.9-3 0-3-40.6 0-81.2-1.8-121.8-2.8l-123.2-3.3c-1.9-.1-1.9 2.9 0 3z"/><path class="st0" d="M866.6 873.2c12.4-13.4 24.8-26.9 37.2-40.3h-2.1c4.1 5.1 8.9 9.3 14.5 12.7 1.7 1 3.2-1.6 1.5-2.6-5.4-3.2-10-7.3-13.9-12.2-.5-.6-1.6-.5-2.1 0-12.4 13.4-24.8 26.9-37.2 40.3-1.3 1.4.8 3.5 2.1 2.1z"/><path class="st0" d="M917 844.6c13.3-15.7 26.7-31.3 40-47 1.2-1.5-.9-3.6-2.1-2.1-13.3 15.7-26.7 31.3-40 47-1.3 1.4.8 3.5 2.1 2.1z"/><path class="st0" d="M954.9 796.1c2.7 3.6 5.4 7.1 8.1 10.7.6.8 1.5 1 2.4.3 12.2-10 24.1-20.5 35.6-31.3 1.4-1.3-.7-3.4-2.1-2.1-11.5 10.8-23.4 21.3-35.6 31.3l2.4.3c-2.7-3.6-5.4-7.1-8.1-10.7-1.3-1.6-3.9-.1-2.7 1.5z"/><path class="st0" d="M997.8 777.1c16.7 13.2 32.8 27.1 48.4 41.5 1.4 1.3 3.5-.8 2.1-2.1-15.6-14.5-31.7-28.3-48.4-41.5-1.5-1.2-3.6.9-2.1 2.1z"/><path class="st0" d="M1048 818.2c20.6-13.1 35.4-33.3 55.5-47.1 1.6-1.1.1-3.7-1.5-2.6-20.1 13.8-34.9 34-55.5 47.1-1.6 1-.1 3.6 1.5 2.6z"/><path class="st0" d="M1086 774.2c6.3-1.1 12.4-2.7 18.5-4.6l-1.8-1.8c-1.1 5-2.1 10-3.2 15-.4 1.9 2.5 2.7 2.9.8 1.1-5 2.1-10 3.2-15 .2-1.1-.7-2.2-1.8-1.8-6.1 1.9-12.2 3.5-18.5 4.6-1.9.3-1.1 3.2.7 2.8zM923 764.3c-3.5 35.7-7.1 71.4-10.6 107.1-.2 1.9 2.8 1.9 3 0 3.5-35.7 7.1-71.4 10.6-107.1.1-1.9-2.9-1.9-3 0zM967.4 758c-3.7 38.3-6.7 76.7-8.9 115.1-.1 1.9 2.9 1.9 3 0 2.2-38.4 5.2-76.8 8.9-115.1.1-2-2.9-1.9-3 0zM1051.2 756.9c-3.9 40-6.7 80-8.4 120.2-.1 1.9 2.9 1.9 3 0 1.7-40.1 4.5-80.2 8.4-120.2.2-1.9-2.8-1.9-3 0zM1001.1 742.3c-2.6 44.6-5.2 89.1-7.8 133.7-.1 1.9 2.9 1.9 3 0 2.6-44.6 5.2-89.1 7.8-133.7.1-2-2.9-2-3 0zM689.4 764.7c20.3 1.8 40.6-2.7 60.9-.2 1.9.2 1.9-2.8 0-3-20.3-2.5-40.6 2-60.9.2-2-.1-1.9 2.9 0 3zM374.5 584.3c35.4-5.2 69.5 9 100.9 23.8 29.1 13.8 57.9 27.9 90.2 32 69 8.6 135.1-20.4 200-38.7 38.1-10.7 77.6-18.2 117.3-13.2 1.9.2 1.9-2.8 0-3-70.3-8.9-136.7 20.7-202.9 39-33.6 9.3-68.4 16.3-103.4 14-35.1-2.3-66-16.5-97.3-31.4-32.9-15.7-68.3-30.8-105.6-25.3-1.9.2-1 3.1.8 2.8z"/><path class="st0" d="M563.9 611.6c88.1 4.7 169.7-34.6 254-53.5 24.3-5.4 49-9.2 74-9.7 1.9 0 1.9-3 0-3-88 2-168.5 42.5-254.1 58-24.4 4.4-49.1 6.6-73.9 5.3-1.9-.3-1.9 2.7 0 2.9zM394.4 509.3c39.9 2.8 76.3 20.6 113.1 34.5 37.4 14.1 76.4 22 116.4 21 22.9-.6 45.7-3.9 67.9-9.7 1.9-.5 1.1-3.4-.8-2.9-40.3 10.6-82.6 12.6-123.7 5.5-39.2-6.8-74.5-23.9-111.6-37.2-19.8-7.1-40.2-12.7-61.3-14.1-2-.2-1.9 2.8 0 2.9zM665.7 317c-.8 5-2.1 9.9-3.9 14.7-.4 1 .6 1.9 1.4 1.9 63.7 2.8 127.4 3.4 191.1 1.7 1.9-.1 1.9-3.1 0-3-63.7 1.7-127.5 1.2-191.1-1.7.5.6 1 1.3 1.4 1.9 1.8-4.8 3.1-9.6 3.9-14.7.4-1.9-2.5-2.7-2.8-.8z"/><path class="st0" d="M667.7 318.1l192.2 2.4c1.9 0 1.9-3 0-3l-192.2-2.4c-1.9-.1-1.9 2.9 0 3z"/><path class="st0" d="M859.6 318.7c-2 4.7-3.5 9.6-4.3 14.7-.3 1.9 2.6 2.7 2.9.8.8-4.8 2.1-9.5 4-14 .7-1.8-1.9-3.3-2.6-1.5z"/></g><g id="girl"><g id="leg_left"><path class="st7" d="M151.2 892.6c-17.1 4.1-34.3 8.2-51.4 12.3 8.9 56.2 15.9 84.2 20.8 83.8 4.2-.3 6.9-21.3 8.1-63 9.5-3.3 19-6.5 28.5-9.8-2-7.7-4-15.5-6-23.3z"/><path class="st8" d="M268.1 683.1c-2.2 6.6-5.5 17.1-8.9 30.4-7.1 27.7-7.4 39.5-14.6 74.7-8.6 41.9-13 49.1-15.8 53.2-12.7 18.2-30.3 26.5-39.9 31-23.2 10.9-44.8 11.9-57.6 11.4-.5 5.9-1 20.3 7.6 34.8 4.3 7.2 9.4 12.1 13.3 15.2 12.9.7 35.1.2 60.1-9.5 10.7-4.1 38-15.1 58.8-42.4 16-21 20.4-41.5 25.3-64.5 9.5-44.3-2.3-51 9.5-88.6 7.1-22.8 15.3-34 9.5-42.4-6.9-10.3-28.6-7.6-47.3-3.3z"/><path class="st9" d="M269.3 683.2c-1 10.7-2.5 25.5-4.6 43.1-1.9 15.5-4 32.3-7.4 51.9-5.9 33.6-8.9 50.4-15.3 64.4-5.6 12.2-16.4 34.8-41.2 51.9-25.8 17.7-52.5 19.4-64.4 19.5-1.4-3.2-2.8-7.3-3.7-12-1.3-6.8-1.3-12.7-.9-17.1 7.7.1 18.3-.5 30.6-3.2 21.4-4.8 35.7-13.5 39.4-15.8 9.1-5.7 18.6-11.6 26.4-23.2 5.3-7.8 7.5-14.9 11.1-29.7 5.3-21.8 8-32.6 10.2-48.6 2.4-18.5 7.7-45.5 19.8-81.2z"/><path d="M132 884.6c-.4 4.4-.6 10.4.8 17.3 1 5.1 2.5 9.3 3.9 12.6 13.7-2.9 56.8-13.9 83.5-53.3 7.9-11.7 12.6-23.2 15.5-33.1-2.7 6.3-7.4 15.5-15.7 24.4-14.3 15.3-30.7 20.9-42.5 24.9-10 3.5-25.6 7.5-45.5 7.2z" opacity=".12" fill="#3d3d3d"/></g><g id="leg_right"><path class="st7" d="M260.8 984.4c-7.8 21.5-15.6 43-23.4 64.6 54.8 6.4 82.7 7.3 83.7 2.5.8-3.7-15.4-11-48.4-21.7 4.5-13.3 9.1-26.6 13.6-39.9-8.5-1.8-17-3.7-25.5-5.5z"/><path class="st8" d="M342.1 694.5c1.1 14.8 2.1 35 1.9 58.8-.5 65.7-9.4 115-12 128.4-6.7 35.1-18.3 80.4-39.2 131-6.6.3-22.9.1-39.2-10.1-10-6.3-16.2-13.9-19.6-19 6.1-11.6 13.6-26.9 20.9-45.6 12.9-33 18.5-59.3 22.1-76.6 8.1-38.9 12.2-58.3 8.9-79.1-3.2-19.7-8.4-23.1-7.6-39.9.2-3.7 2.7-46.8 29.7-55 13.9-4.1 27.7 3.1 34.1 7.1z"/><path class="st11" d="M318.4 687c8.9 3.8 6 28.8 5.2 35.4-10.7 94.2 4 43.5-8.9 101.6-17.7 79.8-41.6 156.5-50 182.9-2 0-4.8-.2-7.8-1.6-2.8-1.3-3.4-3-6.8-5.7-3.7-2.9-5-2.7-7.8-4.7-2.5-1.8-5.6-5-7.8-10.9 5.2-10.2 11.4-23.3 17.7-39.1 8-20 12.4-35.2 17.2-51.6 0 0 15-51.7 17.7-91.2.5-7.9.1-13.3-.5-17.2-.9-6.2-2.2-9.3-4.2-16.7-.5-1.9-3.3-12.7-4.2-20.8-2.5-23.9 10.2-43.1 16.2-50 2.1-2.5 4.9-5.2 8.9-7.3 1.5-.7 10.2-5.2 15.1-3.1z"/><path class="st12" d="M295.5 849.7c-1.7 24.3-7.4 31.5-24 91.2-7.3 26.2-12.7 47.7-16.2 61.5-2.8-1.1-6.3-2.9-9.9-5.7-5.4-4.2-8.6-8.8-10.4-12 5-10.3 11.7-25 18.2-43.3 2.6-7.2 4.3-12.7 5.9-17.7 22.8-73.1 26.4-95.3 27.5-110.5.9-12.9.2-23.3 0-26.6-1-13.8-3.4-23.3-3.4-23.3s15.6 39.2 12.3 86.4z"/></g><g id="hand_left"><path class="st3" d="M169.1 649.8c.2-.3 1.2-.2 3.2 0 3.4.3 4.5.8 6.7 1 2.1.1 4.9.3 5.7-1 1.1-1.7-2.4-5-7.3-12.1-8.4-12-8-16.2-7.3-18.1.2-.5.8-2.4 2.1-2.7 1.7-.4 3.6 1.9 5.4 4.2 3 3.7 4.2 6.6 4.5 6.4.6-.2-2.9-7.7-2.1-16.9.2-2.5.6-6.1 2.4-6.6 1.6-.5 4 1.5 5.9 4.7 0-.4.5-5.9 2.4-6.3 1.5-.3 3.2 2.6 4.9 5.4 1.4 2.3 2.3 4.4 2.8 5.8-.1-2.8 1.4-5.1 3.5-5.8 2.3-.7 4.4 1.1 4.5 1.2 2.3 2.1 2.1 5.8 2.1 7.1-.2 5.7.4 15.3 1.7 29.3 2.6-1 6.4-2.8 10.6-5.6 4.3-2.9 8.8-6.7 19.9-20 4.3-5.2 6.5-7.8 10.3-12.9 13.7-18.3 21.8-29.1 30-44.4 2.6-4.9 6.8-13.2 15.5-20.6 2.8-2.4 8.3-6.9 11.5-5.2 2.3 1.2 2.5 5 2.4 10.6-.1 12.2-.2 18.2-2.3 26.5-4.8 19.2-13.7 32.6-15.7 35.6-7.9 11.6-15.8 18.3-26 27-10.6 9-19.4 16.4-33.3 22-9.1 3.6-16.3 4.9-23.9 6.3-12.6 2.2-19.1 3.3-25.6.5-9.3-4-15.6-13.9-14.5-15.4z"/><path d="M307.6 535.3c-10.8 1.5-17.2 11.6-23 19.9-7.4 10.6-14.4 21.5-21.6 32.2-7.2 10.8-14.7 21.4-23.2 31.3-4.1 4.7-8.3 9.3-12.9 13.5-5.1 4.8-10.7 10.3-17.4 12.6-1.8.6-1 3.5.8 2.9 10.5-3.5 19.4-13.5 26.7-21.4 8.4-9.1 15.9-19 23-29.2 7.2-10.4 14.1-21.1 21.1-31.6 6.6-9.8 14.4-25.5 27.3-27.3 1.9-.3 1.1-3.1-.8-2.9zM213 666.3c12.8-1.2 23.6-7.1 34.3-13.9 10.6-6.7 20.7-14.4 29.7-23.2 11.6-11.2 21.4-24.5 27.9-39.4 6.4-14.9 9.4-31.2 7.3-47.4-.2-1.9-3.2-1.9-3 0 3.4 27.1-7.4 54-24.8 74.6-7.8 9.2-16.9 17.3-26.5 24.5-13.2 9.8-28.2 20.3-45 21.9-1.8.1-1.8 3.1.1 2.9z"/><path d="M213 663.2c-5.9-.1-11.6 1.3-17.4 1.7-6.7.5-12.3-1.5-17.8-5.2-2.2-1.5-4.6-3.3-6-5.7-2.9-5.1 3.1-2.1 5.2-1.5 3.4 1 6.5.6 9.1-1.7 1.5-1.3-.7-3.4-2.1-2.1-4.5 4-12.9-4.9-15.9.2-2.3 3.9 3 9.5 5.6 11.6 4.5 3.7 10 6.7 15.9 7.4 7.8.9 15.6-1.8 23.4-1.6 1.9-.1 1.9-3.1 0-3.1z"/><path d="M186.3 649.1c-2-6.7-6.5-11.9-10.1-17.8-.5-.8-6.5-11.7-4.5-12.6 3.5-1.6 8.5 8.5 9.2 10.5.6 1.8 3.5 1 2.9-.8-1.6-4.6-4.4-8.9-8.6-11.7-2.2-1.5-5.4-2.6-6.4.8-1.3 4.6 2.1 10.8 4.4 14.6 3.6 5.9 8.3 11 10.3 17.8.5 1.9 3.4 1.1 2.8-.8z"/><path d="M184.7 628.3c-.9-3.7-2.1-7.5-2.7-11.3-.4-2.3-.5-4.6-.3-6.9.3-3 .9-6 3.3-2.5 3.7 5.5 4.9 13 6.7 19.2.5 1.9 3.4 1.1 2.9-.8-1.5-5.3-2.7-10.9-4.9-16-1.1-2.5-3.6-8.1-7.1-8.1-3.6 0-3.7 5.6-3.9 8.1-.5 6.5 1.5 12.7 3.1 18.9.4 2.1 3.3 1.3 2.9-.6z"/><path d="M191.7 614.1c-.5-2.1-1.5-5.6-.7-7.7 1.5-3.9 3.7 3.1 4.3 4.6 2.2 5.3 3.4 10.9 3.7 16.6.1 1.9 3.1 1.9 3 0-.4-5.5-1.3-10.8-3.2-15.9-1.1-3.1-2.7-8.6-5.7-10.3-6.8-3.9-4.9 11.1-4.4 13.6.5 1.8 3.4 1 3-.9z"/><path d="M201.8 617.6c-.1-1-.8-6.4.4-7.4 3.3-2.9 4.2 2.4 4.6 4 .7 3.4.6 7.2.9 10.7.5 7.2 1 14.3 1.5 21.5.1 1.9 3.1 1.9 3 0-.5-7.2-1-14.3-1.5-21.5-.3-5 .1-11.6-2.5-16.1-1.4-2.4-3.8-4.6-6.6-2.8-3.6 2.4-3.1 8.8-2.6 12.4.2 1.9 3.1 1.1 2.8-.8z"/><path class="st9" d="M308.7 538.8c-.5 0-.1 7.9-3.2 18.9-2.4 8.4-6.3 16.4-18.9 33-11.6 15.3-20 26.4-34.6 39.4-16 14.3-24 21.4-35 24.1-23.8 5.9-45.7-7.8-47.8-3.2-1.1 2.5 4.9 7.5 7.2 9.2 2.9 2.1 8.5 5.4 21.7 5.6 14.1.2 24.9-3.2 27.3-4 25.4-8.4 42.1-25 51-34.2 11.8-12 21.4-21.8 27.7-38.2 10.1-25.5 5.6-50.6 4.6-50.6z"/><path class="st13" d="M306.7 577.4c-.7-.4-4.9 6.6-10.9 14.9 0 0-14.4 20-33 37-10.2 9.3-28.8 23.7-58.3 35 6.1.4 15.2.2 25.3-3.2 3.2-1.1 11.2-4.1 30.5-20.9 15.4-13.4 24-20.8 32.6-33.8 9.3-13.9 14.8-28.5 13.8-29z"/></g><g id="torso"><path class="st3" d="M319.2 524.3c-6.3 2.2-10.2 6.1-14.3 10.2-11.4 11.5-15.5 24.5-18.7 35-9.6 31.6-14.5 47.3-16.7 61.1-2.6 15.7-4.8 36.5-4.1 61.1 5.2 3.6 12.6 8.2 22 12.2 10.8 4.6 20.5 8.7 33 7.7 5-.4 13.6-1.8 23.2-7.7.5-6.5 1.6-16.6 4.5-28.5 5-21.1 10.4-27.2 19.2-53.4 6.9-20.7 10.3-31.3 9.8-44-.4-8.9-1.2-26.3-14.3-39.9-10-10.3-27.9-19.3-43.6-13.8z"/><path d="M314.7 525c-12 7.2-19.3 19.2-25.3 31.5-6.4 13.3-11.2 27.3-14.7 41.7-7.3 30-9.1 61.1-10.3 91.9-.1 1.9 2.9 1.9 3 0 1.1-29.4 2.8-58.9 9.4-87.7 3.2-14.1 7.6-28 13.7-41.2 5.9-12.9 13.2-26.2 25.7-33.6 1.6-1 .1-3.6-1.5-2.6zM353.4 531.5c11.3 8.8 19.1 21.2 21.6 35.3 2.8 16.1-1.1 32.5-6.5 47.6-5.2 14.6-12 28.5-16.7 43.3-4.7 14.5-7.6 29.6-8.8 44.8-.2 1.9 2.8 1.9 3 0 1.4-17.1 5-34 10.8-50.1 5.5-15.4 12.8-30.1 17.5-45.8 4.2-14.1 6.4-29.4 2.9-44-3.1-13.2-10.9-24.9-21.6-33.1-1.6-1.3-3.7.8-2.2 2z"/><path d="M265 692.1c12.1 10.8 27.1 17.9 43.2 20.2 12.8 1.8 29.3 1.9 37.7-9.6 1.1-1.6-1.5-3.1-2.6-1.5-8.4 11.4-27 9.9-39.2 7.4-13.8-2.8-26.5-9.3-37-18.6-1.4-1.3-3.5.8-2.1 2.1z"/><path class="st12" d="M332.1 524.7c3.4 5.9-9.2 16.8-18.9 33.8-6.2 10.8-8.6 20.2-13.3 39-11 44-8.9 94-8 108.5-8.6-4.6-17.1-9.1-25.7-13.7.4-9.8 1.2-23.8 2.8-40.6 2.6-26.6 4.1-41.1 9.2-59.9 4.5-16.3 8.9-31.5 20.9-47.8 7.8-10.6 16.1-17.9 22.1-22.5 3.8-.2 9.1.1 10.9 3.2z"/><path d="M293.9 554.9c1.3.4-4 21.3-12.5 67.5-5.6 30.3-6.9 41.2-2.4 54.7 5.8 17.3 17.5 27.8 15.3 30.1-1.4 1.4-7.4-.6-28.1-16.1-.5-21.8.9-51.9 9.6-86.4 6.9-27.3 16.7-50.3 18.1-49.8z" opacity=".15" fill="#3d3d3d"/></g><g id="head"><path class="st6" d="M387.2 483.5c4.7 4.3 4.1 12.7 3.2 24.9-.6 8.5-.9 12.8-3.8 16.9-6 8.5-19.6 12.4-30.3 7.6-1.3-.6-7.9-3.7-11.5-11.2-5.2-10.8.2-21.6 1.3-23.6 8.4-15.7 32.7-22.4 41.1-14.6z"/><path class="st3" d="M387.4 428.2c3.8.8 6.1 6.1 10.7 16.8 3.9 9.1 5.7 16.5 6.5 20 1.3 6.1 2 11.3 2.3 15.2-2.7.8-5.4 1.5-8.1 2.3-.6 3.5-1.9 8.7-4.5 14.5-3.6 8-6.6 14.9-13.6 18.1-8.1 3.7-16.8.4-19.7-1-1.1 2.8-2.7 6-4.8 9.4-1.5 2.4-3.1 4.4-4.5 6.1-9.1 2.3-13.3-.1-14.9-1.3-8.4-6.2-7.7-26.2 5.2-48.8-.7-1.1-1.8-2.7-3.2-4.5-2.9-3.6-3.9-3.7-5.2-5.8-.4-.6-3.5-5.9-1-10.7 1.2-2.3 3.7-4.3 6.5-4.5 3.4-.3 4.5 2.4 7.4 3.2 5 1.5 10.5-3.9 24.2-16.8 11.5-10.8 13.8-12.8 16.7-12.2z"/><path d="M397 444.6c4.7 11.8 7.7 24.1 8.8 36.8.1 1.4 2.4 1.4 2.3 0-1.1-12.9-4.1-25.4-8.9-37.4-.5-1.4-2.7-.8-2.2.6z"/><path d="M406.4 480.4c-2.7.3-5.4.7-8.1 1-1.4.2-1.4 2.4 0 2.3 2.7-.3 5.4-.7 8.1-1 1.4-.3 1.4-2.5 0-2.3z"/><path d="M397.7 482.4c-1.8 10-5.9 19.7-12.6 27.4-8 9.4-20.7 4.5-30.5.5-1.3-.6-1.9 1.6-.6 2.2 9.2 3.8 22.4 9 30.7 1 8.2-7.8 13.1-19.5 15.1-30.5.3-1.4-1.8-2-2.1-.6z"/><path d="M359.5 514.6c-2.1 4.8-4.7 9.3-7.7 13.6-.8 1.2 1.1 2.3 1.9 1.1 3-4.3 5.6-8.9 7.7-13.6.6-1.3-1.3-2.4-1.9-1.1z"/><path d="M353.8 512.8c1.5 1.6 3.2 3 5.1 4 1.3.7 2.4-1.2 1.1-1.9-1.8-1-3.3-2.2-4.7-3.7-.9-1.1-2.5.5-1.5 1.6zM388.6 460.9c-.6-1.2-.5-2.7.3-3.7-.6-.2-1.3-.3-1.9-.5.3 1.7.3 3.3.2 5l1.1-1.1c.1.2.2.4.4.6.3-1.4-1.9-2-2.2-.6-.3 1.2.5 2.3 1.8 2.3.7 0 1.1-.5 1.1-1.1.2-1.9.1-3.7-.2-5.6-.1-.8-1.4-1.1-1.9-.5-1.5 1.9-1.8 4.3-.6 6.4.6 1.2 2.6.1 1.9-1.2zM382.6 447.4c1.4-3.5 5.4-4.5 8.5-2.5 1.2.8 2.3-1.2 1.1-1.9-4.4-2.9-9.8-1-11.8 3.8-.5 1.4 1.7 2 2.2.6zM378 465.4h-1.3c-.1-.2-.1-.4-.2-.6.2-.7.5-.9 1.1-.7l.4.4v-.1c-.3-.5-1-.7-1.5-.4-.5.3-.7 1-.4 1.5.4.5 1 .8 1.6.7.6-.2 1.1-.7 1.1-1.4 0-1.5-2.1-1.9-2.8-.7-.3.5-.1 1.2.4 1.5.6.5 1.3.3 1.6-.2zM383 470c-.2.2-.5.5-.8.7h.1-.6s-.1 0-.1-.1l-.4-.4v.1c0-.3-.1-.6-.1-.9l.3-.3c-.5.4-.7 1-.4 1.5.3.5 1.1.8 1.5.4.7-.5 1.2-1.5.4-2.2-.3-.3-.8-.5-1.3-.3-.5.1-.7.4-.9.9-.2.6.2 1.2.8 1.4.7.2 1.3-.2 1.5-.8zM375.1 470.1h-.2c-1.4 0-1.5 2.3 0 2.3h.2c1.5 0 1.5-2.3 0-2.3zM384.1 484.9c1.6 4.9 4.1 9.3 9.1 11.2 1.3.5 1.9-1.6.6-2.2-4.1-1.6-6.2-5.7-7.5-9.7-.5-1.3-2.6-.7-2.2.7z"/><path d="M383.8 486.1c.6-.9 1.6-1.4 2.8-1.6.6-.1.9-.9.8-1.4-.2-.7-.8-.9-1.4-.8-1.7.2-3.1 1.2-4.1 2.6-.9 1.2 1 2.4 1.9 1.2zM341.3 473.1c-6.1 2.2-9.4-7.2-8.3-11.6.6-2.3 2.2-5 4.6-5.7 3.3-1 6.3 1.6 8.4 3.6 1 1 2.6-.6 1.6-1.6-2.7-2.6-6-5.1-10-4.3-3.6.7-5.8 4.1-6.7 7.4-1.6 6.1 3.3 17.1 11 14.4 1.4-.5.8-2.7-.6-2.2z"/><path class="st6" d="M379.5 430.4c-1.2 1.4-3 3.7-5.1 6.7-7.6 11.1-6.9 15.6-12.2 18.8-4.1 2.5-10.4 3.3-15.2 1.3-3.6-1.5-4.6-3.8-7.7-3.7-3.4.1-6.6 2.9-7.9 6.2-1.6 3.9 0 7.5 1.1 9.8 1 2.1 2.4 5.2 5.4 5.9 1.9.4 3.6-.3 4.5-.8-.1 1.1-.3 2.8-.4 4.9-.5 8.7.5 14.7.9 18.6 1 9.4 1.9 16.9-.9 24-4.3 10.6-15 15.3-18.9 17-16.6 7.3-32 1.2-34.1.3-3.3-1.4-19.1-7.9-23-22.7-2.4-8.9.3-17.9 1.4-21.7.5-1.6 1.8-5.6 4.4-10.2 5.7-10.2 13.9-16.4 19.6-19.9 1.9-6.9 5.1-16.8 10.7-28.1 6.3-12.8 9.8-19.9 17.8-26.5 12.7-10.5 27.1-11.8 31.8-12.1 2.4-.2 14.2-.9 28.2 4.8 9.9 4 21.5 8.8 26.3 20.7 5.5 13.9-2.3 27.7-3.8 30.3-.4-1.7-1.2-4.3-2.9-6.8-2.5-3.7-5.3-5.2-9.5-8.1-2.7-2.1-6.3-4.8-10.5-8.7z"/><path d="M338.3 529.2c4.3 2.5 9.3 3.1 14.1 1.5 1.8-.6 1-3.5-.8-2.9-4 1.3-8.1.9-11.8-1.2-1.7-.9-3.2 1.7-1.5 2.6z"/><path class="st11" d="M333.6 469.4c.8 2.3 2.9 3.9 5.2 4.2 2.5.3 5-.9 6.3-3.1-.5 3.3-1 10 2.1 17.4 4.2 10.2 12.4 15 16 17.1 8.8 5 17.2 5.3 21.3 5.2-.9 1.6-2.9 4.2-6.3 5.9-8.1 4-16.6-1.4-17.1-1.7-2.2 4.8-4.5 8.3-6.3 10.8-2.5 3.4-3.5 4.2-4.2 4.5-4.8 2.8-11.1-.1-12.9-1-2 1.9-4.9 4.3-8.7 6.6-3.2 1.9-11.8 6.9-23.7 7 0 0-16 0-28.9-10.8-5-4.2-7.1-7.9-7.7-9.1-.5-1-2.6-5-3.1-11.5-1.1-12.5 4.3-23.1 7.3-27.9 5.4-8.6 12.3-13.7 16.7-16.4-.3 1.1-4 16.6 4.2 24.1 10.3 9.3 33.6.5 38.7-12.9 1.3-3.3 1.3-6.4 1.1-8.4z"/><path d="M345.8 497.1c-.8.4 1.1 5.6 2.9 9.3 2.9 6.1 6.5 10.6 9.1 13.3.7-1.8 1.4-3.6 2.1-5.3 2.3 1 6.6 2.4 12 2.1 3.6-.2 6.5-1.1 8.5-1.9-15.4-.3-23.2-5-27.5-9.3-3.5-3.5-6.3-8.6-7.1-8.2z" opacity=".07" fill="#3d3d3d"/></g><g id="hand_right"><path class="st3" d="M594.2 404.8c-1.4-.8-1.7-2.7-1.9-4-.7-4.7 2.8-8.5 3.4-9.3 3.7-4.1 5.8-2 9.3-5.8 2.6-2.8 2.4-5.1 6.4-8.8 2.6-2.5 3.5-2.2 3.7-2.1 1.4.6.2 3.7 1.6 8.5 1.2 4 2.7 4 3.2 7.4.1.9.8 5.4-1.9 8-1.2 1.2-2.8 1.5-6.1 2.1-3.8.7-4.3.3-6.9.8-6.3 1.2-8.5 4.5-10.8 3.2z"/><path d="M593.9 400.6c-15.1 15.6-30.2 31.3-45.3 46.9-1.9 2.2-2 5.5-.3 7.7 1.9 2.4 5.3 3 8 1.3 15.5-18 30.9-36.1 46.4-54.1-2.9-.6-5.8-1.2-8.8-1.8zM539.3 486c.5 1.3-1.1 4-9.8 9.8-2.5-.5-4.6-1.9-5-3.7-.6-3 3.7-5.5 5.6-6.4 3.5-1.6 8.5-1.5 9.2.3z"/><path class="st3" d="M363.4 527.2c-5.4 1.2-14.9 3.5-19.3 11.3-2.9 5.1-2.3 10.5-2.1 12.4 1 8.5 6.9 15.6 13.6 18.7 8.2 3.7 16.7.9 21-.6 37.4-12.9 56.1-19.3 63.7-23.1 22-11.1 46.5-23.6 74.4-46.8 7.2-6 12.9-11.3 16.9-15.1 1.6.9 5.2 2.6 9.5 2.1 3.5-.4 5.8-2 9.2-4.4 2.4-1.7 5.2-3.7 7.7-7.4 2.4-3.5 3.2-6.6 3.9-9.2.7-2.9 2.1-8.1.3-9.2-1.3-.8-2.7 1.4-6.2 1.5-.3 0-4.6 0-6.5-2.7-1.8-2.5.1-4.8-1.5-6.8-1.7-2.2-6.1-2-8.9-1.2-6.5 2-9.6 9.2-11.6 13-5.5 10.9-13.4 16.8-28.1 27.9-11.4 8.6-21.6 12.6-35.3 18.1-5.4 2.2-15.7 6.2-29.3 9.5-22.9 5.4-41 5.2-71.4 12z"/><path d="M347 537.5c10.3-10.3 26.5-10.7 40.1-12.6 15.9-2.2 31.8-4.6 47.4-8.3 27.7-6.4 55.2-17.1 76.9-35.9 5.7-5 11-10.5 15.4-16.8 4-5.7 11.6-22.5 21-14.5 1.5 1.2 3.6-.9 2.1-2.1-3.6-3.1-8.4-3.3-12.6-1.2-5.9 3-8.6 9.6-12.1 14.9-9.1 13.8-22.9 24.4-37.1 32.5-29.9 17-64.3 23.1-97.9 28-15.2 2.2-33.6 2.4-45.2 13.9-1.5 1.3.6 3.4 2 2.1z"/><path d="M344.8 533.9c-6.7 11.4-5.4 26.5 5.8 34.6 13.4 9.7 32.2.5 45.9-4.2 32.3-11.2 63.1-26.4 91.7-45.2 15.9-10.4 31-22 45.3-34.5 1.5-1.3-.7-3.4-2.1-2.1-44.9 39.2-99.4 70.2-157.2 85.7-9.9 2.7-20.2 2.1-26.6-6.9-5.6-7.7-4.9-17.9-.2-25.8 1-1.7-1.6-3.2-2.6-1.6z"/><path d="M560.3 453.8c.5 2.3 1 4.8.8 7.2-.4 3.3-2 4.4-3.2 7.1-.5 1.2-.6 2.4-1 3.6-.8 2.7-1.9 3.3-3.8 4.9-2.1 1.7-3.3 3.7-5.1 5.6-2.9 3.1-4.6 2.1-8.2 1.7-2.6-.3-5.3-.7-7.9-1-1.9-.2-1.9 2.8 0 3 4.3.6 11.6 3.1 15.6 1 1.6-.8 2.5-2.3 3.5-3.7 1.3-1.8 2.5-3.3 4.5-4.3 1-.5 1.5-.1 2.4-.9 1.1-.9 1.4-2.4 1.7-3.7.7-3.2 1.7-5.3 3.1-8.1 2.1-4.1 1.4-8.7.5-13-.4-2.1-3.3-1.3-2.9.6z"/><path d="M548 448.2c-2.3 3.4-.5 8.3 3.1 9.9 4.2 1.9 8.9-.9 11-4.6 1-1.7-1.6-3.2-2.6-1.5-1.3 2.3-4 4.4-6.7 3.5-2.4-.7-3.7-3.7-2.2-5.8 1-1.6-1.6-3.1-2.6-1.5z"/><path d="M549.9 449.6c15.1-15.7 30-31.6 44.7-47.7 1.3-1.4-.8-3.6-2.1-2.1-14.7 16.1-29.6 32-44.7 47.7-1.4 1.3.7 3.5 2.1 2.1zM562 452.8c14.4-16.6 28.7-33.2 43.1-49.8 1.3-1.5-.9-3.6-2.1-2.1-14.4 16.6-28.7 33.2-43.1 49.8-1.3 1.5.8 3.6 2.1 2.1zM538.1 485.6c-1.9 1.9-3.8 3.9-5.7 5.8-.6.6-1.5 1.9-2.2 2.3-2.5 1.3-3.8-1.2-4.7-2.8-1-1.7-3.6-.2-2.6 1.5 1.5 2.5 4 5.7 7.3 4.7 1.8-.5 3.1-2.3 4.3-3.6 1.9-1.9 3.8-3.9 5.7-5.8 1.4-1.4-.8-3.5-2.1-2.1z"/><path d="M604.3 402.6c6 2.7 13.3 1.1 16.4-5.1 1.5-3 1.6-6.6.5-9.7-1.9-5-8.8-9.4-2.7-14.6 1.5-1.3-.7-3.4-2.1-2.1-3.5 3-4.5 7.6-2.2 11.6 2.2 3.9 5.7 6.1 4.6 11.2-1.2 6-7.6 8.5-12.9 6.1-1.9-.8-3.4 1.8-1.6 2.6z"/><path d="M594.4 399.3c.6-4.4 2.2-7.3 6.1-9.5 2-1.1 4.1-2 5.9-3.4 3.7-3 4.8-8.5 9.2-10.7 1.7-.9.2-3.4-1.5-2.6-2.5 1.2-4 3.1-5.4 5.5-2.2 3.5-4.2 5.8-7.9 7.7-6 3.1-8.5 6.2-9.4 13-.2 1.9 2.8 1.9 3 0z"/><path d="M593.9 402.2c2.8-1.1 5.7-.7 8.1 1.1 1.5 1.2 3-1.4 1.5-2.6-3-2.3-7-2.8-10.5-1.4-1.7.7-.9 3.6.9 2.9z"/><path class="st6" d="M603.8 388.4c3.9-1.3 7.9-1.4 11.9-.4 1.9.5 2.7-2.4.8-2.9-4.5-1.1-9.1-1-13.5.4-1.8.6-1 3.5.8 2.9z"/><path class="st6" d="M602.1 388.4c7.3-3.1 9.5-11.6 16.3-15.4l-1.8-2.4c-5.2 4.7-.6 11.1.7 16.3.7-.6 1.5-1.1 2.2-1.7-3.8-1.6-7.6-2.3-11.7-2 .4.8.9 1.5 1.3 2.3 1.4-2.7 3.1-5.1 5-7.5-.8-.5-1.7-1-2.5-1.5-.8 2.1-1.8 4.7-1.4 6.9.1.6.8 1.1 1.4 1.1 2.4-.1 3-3.4 3.8-5.2-.9-.3-1.9-.5-2.8-.8.2 1.5.7 3.3.5 4.9.2-.4.5-.9.7-1.3-.7.4-3.4.1-4.6.4-2 .4-3.7 1.1-5.5 2.1-1.3.7-.7 2.9.8 2.8 2.5-.2 5-.5 7.5-.7 1.9-.2 1.9-3.2 0-3-2.5.2-5 .5-7.5.7.3.9.5 1.9.8 2.8 2.1-1.1 4.4-1.9 6.8-2 .9-.1 2.3.3 3.1-.3 1.8-1.3.6-4.4.4-6.3-.2-1.3-2.1-2.3-2.8-.8-.1.3-1.7 3.7-1.2 3.7.5.4 1 .7 1.4 1.1-.3-1.5.9-4 1.4-5.3.5-1.4-1.6-2.6-2.5-1.5-2.1 2.5-3.9 5.2-5.5 8.1-.5.9.1 2.4 1.3 2.3 3.6-.3 6.9.2 10.2 1.6 1.2.5 2.6-.3 2.2-1.7-1-4-5.4-9.9-1.5-13.4 1.3-1.2-.4-3.2-1.8-2.4-6.7 3.8-9.1 12.3-16.3 15.4-1.7.9-.1 3.4 1.6 2.7z"/><path class="st6" d="M616.7 369.9c-4.2 2.6-6.8 6.5-9.9 10.2-1.9 2.3-4 3.7-6.1 5.7-.8.7-1.5 1.1-1.5 2.2 0 .2.1.5.4.6 6.3 2.7 13.3-4.5 19.5.6.4.3.9.3 1.2-.2 1.8-2.6-2.2-5.1-3.7-6.7-.5-.5-1.5 0-1.3.7.3 1 .2.9.9 1.7.6.8 1.9 0 1.3-.8-.2-.5-.5-.9-.7-1.4-.4.2-.8.5-1.3.7.7.7 4.4 3.6 3.5 4.9.4-.1.8-.1 1.2-.2-2.1-1.7-4.5-2.5-7.3-2.4-1.6.1-3.2.4-4.8.7-1.3.3-2.5.6-3.8.7-1.4.2-3.1 1-2-.9.6-1 2.4-1.9 3.2-2.7 1.2-1.2 2.3-2.5 3.3-3.9 2.6-3.2 5-6.4 8.5-8.6 1-.1.2-1.4-.6-.9z"/><path class="st6" d="M601.3 389.1c3 .4 5.9-.6 8.9-1 2.5-.3 4.5.1 6.8.9 1.3.5 2.1.8 3.5.6.5-.1.8-.4.7-.9-.2-1.3-.5-2-1.2-3.1-.5-.8-1.8 0-1.3.8.7.8 1 1.7 1.1 2.7.2-.3.5-.6.7-.9-2.8.3-5.6-1.7-8.5-1.7-3.4.1-6.9 1.7-10.3 1.2-1-.2-1.4 1.2-.4 1.4zM615.5 372.5c.5-.7 1.1-1.3 1.9-1.7.2-.1.9-.6 1.1-.4.3.2-.5.8-.7.9-1.2 1-2 2.3-2.6 3.7-.4.9 1.1 1.3 1.4.4.6-1.4 1.6-2.3 2.7-3.4.7-.6 1.1-1.5.4-2.4-1.5-2-4.4.6-5.4 1.9-.5.7.6 1.8 1.2 1z"/><path class="st6" d="M618.9 369.2c-1.7 1.1-2.9 2.8-3.4 4.8-.2.9 1.2 1.3 1.4.4.4-1.6 1.3-2.9 2.7-3.9.9-.6.1-1.9-.7-1.3z"/><path d="M346 537.3c3.2-6.3 14.8-8.7 21.2-9.5 1.9-.3 1.1-3.2-.8-2.9-7.2 1-19.3 3.8-23 10.9-.8 1.7 1.8 3.3 2.6 1.5z"/><path class="st13" d="M342.6 551.8c9-.6 22.1-1.8 37.6-4.8 44.4-8.5 76-25 95.3-35.2 16-8.5 37.2-21.2 60.5-39.5 10.2-3.3 16.5-7.8 20.5-11.4 2.7-2.4 4.7-4.8 5.7-4.3 1.6.9-.9 9.2-4.3 15.2-3 5.4-6.5 8.5-7.6 9.5-2.8 2.4-4.4 4.1-7.1 4.8-5 1.3-9.5-1.4-11-2.4-3.7 2.9-9.1 7.2-15.8 12.3-27 20.5-40.6 30.8-58.5 40.6-16.5 9-30.3 14.4-57.2 24.8-2.5 1-5.8 2.1-12.4 4.3-17.6 5.9-21.8 6.6-26.7 5.7-2-.4-6.9-1.3-11.4-5.2-5.9-5.3-7.2-12.1-7.6-14.4z"/><path d="M421.9 552.5c-.2-.3 1.5-1.7 39-25.5 49.4-31.4 45.9-28.6 51.1-32.4 21.6-16 31.2-26.8 36.2-23.6 3.4 2.2 4 10.2.3 13.7-3.2 3.1-9.9 2.8-15.9-1.6-12.1 10.8-30.1 25.5-53.8 40.4-28 17.3-56.2 30.2-56.9 29z" opacity=".19" fill="#3d3d3d"/></g></g></svg>