<svg width="1024" height="1024" fill="none" xmlns="http://www.w3.org/2000/svg"><circle cx="144" cy="528" r="64" fill="url(#paint0_radial)"/><circle r="64" transform="matrix(-1 0 0 1 880 528)" fill="url(#paint1_radial)"/><circle cx="512" cy="560" r="384" fill="url(#paint2_radial)"/><circle cx="512" cy="560" r="384" fill="url(#paint3_radial)"/><g filter="url(#filter0_f)"><path d="M488.002 880.001c198.823 0 360.001-161.177 360.001-360 0-37.495-5.733-73.652-16.369-107.642 20.774 44.9 32.366 94.916 32.366 147.64 0 194.405-157.596 352-352 352-114.668 0-216.529-54.829-280.797-139.7 65.316 66.474 156.243 107.702 256.799 107.702z" fill="#C1092A" fill-opacity=".8"/></g><g filter="url(#filter1_ddii)"><path fill-rule="evenodd" clip-rule="evenodd" d="M329.235 332.651c-21.897 10.796-36.925 28.632-42.538 41.674-3.493 8.117-12.905 11.865-21.022 8.372-8.117-3.493-11.865-12.905-8.372-21.022 8.788-20.418 29.44-43.752 57.782-57.725 29.022-14.308 66.39-18.919 107.391-.771 8.081 3.577 11.732 13.027 8.155 21.107-3.576 8.08-13.026 11.732-21.107 8.155-31.639-14.004-59.07-10.25-80.289.21z" fill="#894819"/></g><g filter="url(#filter2_ddii)"><path fill-rule="evenodd" clip-rule="evenodd" d="M710.765 332.651c21.897 10.796 36.925 28.632 42.538 41.674 3.493 8.117 12.905 11.865 21.022 8.372 8.117-3.493 11.865-12.905 8.372-21.022-8.788-20.418-29.44-43.752-57.782-57.725-29.022-14.308-66.39-18.919-107.391-.771-8.081 3.577-11.732 13.027-8.155 21.107 3.576 8.08 13.026 11.732 21.107 8.155 31.639-14.004 59.07-10.25 80.289.21z" fill="#894819"/></g><g filter="url(#filter3_ddii)"><path fill-rule="evenodd" clip-rule="evenodd" d="M208.815 498.984c7.189-8.386 19.815-9.358 28.201-2.169C297.151 548.359 388.449 588 512 588c123.552 0 214.849-39.641 274.985-91.185 8.386-7.189 21.012-6.217 28.2 2.169 7.189 8.387 6.218 21.013-2.169 28.201C745.151 585.355 644.449 628 512 628c-132.448 0-233.151-42.645-301.015-100.815-8.387-7.188-9.358-19.814-2.17-28.201z" fill="#894819"/></g><g filter="url(#filter4_f)"><path fill-rule="evenodd" clip-rule="evenodd" d="M512 288c212.077 0 384-35.817 384-80s-171.923-80-384-80-384 35.817-384 80 171.923 80 384 80zm0-32c176.731 0 320-25.072 320-56s-143.269-56-320-56-320 25.072-320 56 143.269 56 320 56z" fill="url(#paint4_linear)" fill-opacity=".2"/></g><path fill-rule="evenodd" clip-rule="evenodd" d="M512 272c212.077 0 384-35.817 384-80s-171.923-80-384-80-384 35.817-384 80 171.923 80 384 80zm0-32c176.731 0 320-25.072 320-56s-143.269-56-320-56-320 25.072-320 56 143.269 56 320 56z" fill="url(#paint5_linear)"/><defs><filter id="filter0_f" x="135.203" y="316.359" width="824.797" height="691.64" filterUnits="userSpaceOnUse" color-interpolation-filters="sRGB"><feFlood flood-opacity="0" result="BackgroundImageFix"/><feBlend in="SourceGraphic" in2="BackgroundImageFix" result="shape"/><feGaussianBlur stdDeviation="48" result="effect1_foregroundBlur"/></filter><filter id="filter1_ddii" x="223.996" y="275.311" width="240.008" height="156.693" filterUnits="userSpaceOnUse" color-interpolation-filters="sRGB"><feFlood flood-opacity="0" result="BackgroundImageFix"/><feColorMatrix in="SourceAlpha" values="0 0 0 0 0 0 0 0 0 0 0 0 0 0 0 0 0 0 127 0" result="hardAlpha"/><feOffset dy="16"/><feGaussianBlur stdDeviation="16"/><feColorMatrix values="0 0 0 0 0.282353 0 0 0 0 0.054902 0 0 0 0 0.301961 0 0 0 0.2 0"/><feBlend in2="BackgroundImageFix" result="effect1_dropShadow"/><feColorMatrix in="SourceAlpha" values="0 0 0 0 0 0 0 0 0 0 0 0 0 0 0 0 0 0 127 0" result="hardAlpha"/><feOffset dy="4"/><feGaussianBlur stdDeviation="4"/><feComposite in2="hardAlpha" operator="out"/><feColorMatrix values="0 0 0 0 0.282353 0 0 0 0 0.054902 0 0 0 0 0.301961 0 0 0 0.2 0"/><feBlend in2="effect1_dropShadow" result="effect2_dropShadow"/><feBlend in="SourceGraphic" in2="effect2_dropShadow" result="shape"/><feColorMatrix in="SourceAlpha" values="0 0 0 0 0 0 0 0 0 0 0 0 0 0 0 0 0 0 127 0" result="hardAlpha"/><feOffset dx="6" dy="6"/><feGaussianBlur stdDeviation="16"/><feComposite in2="hardAlpha" operator="arithmetic" k2="-1" k3="1"/><feColorMatrix values="0 0 0 0 0.76276 0 0 0 0 0.388636 0 0 0 0 0.122215 0 0 0 1 0"/><feBlend in2="shape" result="effect3_innerShadow"/><feColorMatrix in="SourceAlpha" values="0 0 0 0 0 0 0 0 0 0 0 0 0 0 0 0 0 0 127 0" result="hardAlpha"/><feOffset dx="-6" dy="-6"/><feGaussianBlur stdDeviation="16"/><feComposite in2="hardAlpha" operator="arithmetic" k2="-1" k3="1"/><feColorMatrix values="0 0 0 0 0.354427 0 0 0 0 0.180009 0 0 0 0 0.0538352 0 0 0 1 0"/><feBlend in2="effect3_innerShadow" result="effect4_innerShadow"/></filter><filter id="filter2_ddii" x="575.996" y="275.311" width="240.008" height="156.693" filterUnits="userSpaceOnUse" color-interpolation-filters="sRGB"><feFlood flood-opacity="0" result="BackgroundImageFix"/><feColorMatrix in="SourceAlpha" values="0 0 0 0 0 0 0 0 0 0 0 0 0 0 0 0 0 0 127 0" result="hardAlpha"/><feOffset dy="16"/><feGaussianBlur stdDeviation="16"/><feColorMatrix values="0 0 0 0 0.282353 0 0 0 0 0.054902 0 0 0 0 0.301961 0 0 0 0.2 0"/><feBlend in2="BackgroundImageFix" result="effect1_dropShadow"/><feColorMatrix in="SourceAlpha" values="0 0 0 0 0 0 0 0 0 0 0 0 0 0 0 0 0 0 127 0" result="hardAlpha"/><feOffset dy="4"/><feGaussianBlur stdDeviation="4"/><feComposite in2="hardAlpha" operator="out"/><feColorMatrix values="0 0 0 0 0.282353 0 0 0 0 0.054902 0 0 0 0 0.301961 0 0 0 0.2 0"/><feBlend in2="effect1_dropShadow" result="effect2_dropShadow"/><feBlend in="SourceGraphic" in2="effect2_dropShadow" result="shape"/><feColorMatrix in="SourceAlpha" values="0 0 0 0 0 0 0 0 0 0 0 0 0 0 0 0 0 0 127 0" result="hardAlpha"/><feOffset dx="6" dy="6"/><feGaussianBlur stdDeviation="16"/><feComposite in2="hardAlpha" operator="arithmetic" k2="-1" k3="1"/><feColorMatrix values="0 0 0 0 0.76276 0 0 0 0 0.388636 0 0 0 0 0.122215 0 0 0 1 0"/><feBlend in2="shape" result="effect3_innerShadow"/><feColorMatrix in="SourceAlpha" values="0 0 0 0 0 0 0 0 0 0 0 0 0 0 0 0 0 0 127 0" result="hardAlpha"/><feOffset dx="-6" dy="-6"/><feGaussianBlur stdDeviation="16"/><feComposite in2="hardAlpha" operator="arithmetic" k2="-1" k3="1"/><feColorMatrix values="0 0 0 0 0.354427 0 0 0 0 0.180009 0 0 0 0 0.0538352 0 0 0 1 0"/><feBlend in2="effect3_innerShadow" result="effect4_innerShadow"/></filter><filter id="filter3_ddii" x="172" y="476" width="680" height="200" filterUnits="userSpaceOnUse" color-interpolation-filters="sRGB"><feFlood flood-opacity="0" result="BackgroundImageFix"/><feColorMatrix in="SourceAlpha" values="0 0 0 0 0 0 0 0 0 0 0 0 0 0 0 0 0 0 127 0" result="hardAlpha"/><feOffset dy="16"/><feGaussianBlur stdDeviation="16"/><feColorMatrix values="0 0 0 0 0.282353 0 0 0 0 0.054902 0 0 0 0 0.301961 0 0 0 0.2 0"/><feBlend in2="BackgroundImageFix" result="effect1_dropShadow"/><feColorMatrix in="SourceAlpha" values="0 0 0 0 0 0 0 0 0 0 0 0 0 0 0 0 0 0 127 0" result="hardAlpha"/><feOffset dy="4"/><feGaussianBlur stdDeviation="4"/><feComposite in2="hardAlpha" operator="out"/><feColorMatrix values="0 0 0 0 0.282353 0 0 0 0 0.054902 0 0 0 0 0.301961 0 0 0 0.2 0"/><feBlend in2="effect1_dropShadow" result="effect2_dropShadow"/><feBlend in="SourceGraphic" in2="effect2_dropShadow" result="shape"/><feColorMatrix in="SourceAlpha" values="0 0 0 0 0 0 0 0 0 0 0 0 0 0 0 0 0 0 127 0" result="hardAlpha"/><feOffset dx="6" dy="6"/><feGaussianBlur stdDeviation="16"/><feComposite in2="hardAlpha" operator="arithmetic" k2="-1" k3="1"/><feColorMatrix values="0 0 0 0 0.76276 0 0 0 0 0.388636 0 0 0 0 0.122215 0 0 0 1 0"/><feBlend in2="shape" result="effect3_innerShadow"/><feColorMatrix in="SourceAlpha" values="0 0 0 0 0 0 0 0 0 0 0 0 0 0 0 0 0 0 127 0" result="hardAlpha"/><feOffset dx="-6" dy="-6"/><feGaussianBlur stdDeviation="16"/><feComposite in2="hardAlpha" operator="arithmetic" k2="-1" k3="1"/><feColorMatrix values="0 0 0 0 0.354427 0 0 0 0 0.180009 0 0 0 0 0.0538352 0 0 0 1 0"/><feBlend in2="effect3_innerShadow" result="effect4_innerShadow"/></filter><filter id="filter4_f" x="112" y="112" width="800" height="192" filterUnits="userSpaceOnUse" color-interpolation-filters="sRGB"><feFlood flood-opacity="0" result="BackgroundImageFix"/><feBlend in="SourceGraphic" in2="BackgroundImageFix" result="shape"/><feGaussianBlur stdDeviation="8" result="effect1_foregroundBlur"/></filter><radialGradient id="paint0_radial" cx="0" cy="0" r="1" gradientUnits="userSpaceOnUse" gradientTransform="rotate(61.389 -376.505 332.858) scale(100.24)"><stop stop-color="#FFCE21"/><stop offset="1" stop-color="#E9A326"/></radialGradient><radialGradient id="paint1_radial" cx="0" cy="0" r="1" gradientUnits="userSpaceOnUse" gradientTransform="rotate(61.389 -25.69 33.476) scale(100.24)"><stop stop-color="#FFCE21"/><stop offset="1" stop-color="#E9A326"/></radialGradient><radialGradient id="paint2_radial" cx="0" cy="0" r="1" gradientUnits="userSpaceOnUse" gradientTransform="rotate(78.559 21.72 365.859) scale(685.624)"><stop stop-color="#FFF7D9"/><stop offset=".123" stop-color="#FFE690"/><stop offset=".519" stop-color="#FFCE22"/><stop offset="1" stop-color="#FFB422"/></radialGradient><radialGradient id="paint3_radial" cx="0" cy="0" r="1" gradientUnits="userSpaceOnUse" gradientTransform="rotate(78.559 21.72 365.859) scale(685.624)"><stop offset=".857" stop-color="#EDFF22" stop-opacity="0"/><stop offset="1" stop-color="#FF24F6" stop-opacity=".3"/></radialGradient><linearGradient id="paint4_linear" x1="512" y1="128" x2="512" y2="288" gradientUnits="userSpaceOnUse"><stop stop-color="#80F7FF"/><stop offset="1" stop-color="#14E0ED"/></linearGradient><linearGradient id="paint5_linear" x1="512" y1="112" x2="512" y2="272" gradientUnits="userSpaceOnUse"><stop stop-color="#80F7FF"/><stop offset="1" stop-color="#14E0ED"/></linearGradient></defs></svg>