<svg width="1024" height="1024" fill="none" xmlns="http://www.w3.org/2000/svg"><path d="M504 200c-172.8 6.4-290.667 141.333-328 208L135.214 88.507c-3.162-24.769 21.998-43.455 44.796-33.269L504 200z" fill="url(#paint0_linear)"/><path fill-rule="evenodd" clip-rule="evenodd" d="M170.687 95.124c4.902-7.352 14.835-9.339 22.188-4.437l216 144c7.352 4.902 9.339 14.835 4.438 22.188-4.902 7.352-14.836 9.339-22.188 4.438l-216-144c-7.353-4.902-9.34-14.836-4.438-22.189z" fill="#69C0FF"/><circle cx="144" cy="528" r="64" fill="url(#paint1_radial)"/><circle r="64" transform="matrix(-1 0 0 1 880 528)" fill="url(#paint2_radial)"/><circle cx="512" cy="560" r="384" fill="url(#paint3_radial)"/><circle cx="512" cy="560" r="384" fill="url(#paint4_radial)"/><g filter="url(#filter0_f)"><path d="M487.987 880.001c198.822 0 360-161.177 360-360 0-37.495-5.732-73.652-16.369-107.642 20.774 44.9 32.366 94.916 32.366 147.64 0 194.405-157.596 352-352 352-114.667 0-216.528-54.829-280.796-139.7 65.316 66.474 156.243 107.702 256.799 107.702z" fill="#C1092A" fill-opacity=".8"/></g><path fill-rule="evenodd" clip-rule="evenodd" d="M884.113 487.671c32.73 22.68 46.08 66.527 26.442 120.532-14.745 40.551-38.697 65.423-66.187 79.546-26.719 13.727-54.748 16.253-76.368 16.253H552c-13.255 0-24-10.746-24-24 0-13.255 10.745-24 24-24h216c18.38 0 37.551-2.274 54.433-10.947 16.109-8.277 32.158-23.405 43.012-53.255 14.128-38.854 1.853-57.382-8.671-64.676-13.212-9.155-30.561-7.395-39.803 1.848-8.348 8.348-9.541 19.755-5.778 28.893 3.758 9.128 10.03 11.818 16.1 10.604 12.998-2.6 25.641 5.829 28.241 18.827 2.599 12.997-5.83 25.641-18.827 28.24-33.93 6.786-59.658-14.524-69.899-39.396-10.237-24.863-7.43-57.456 16.221-81.108 27.507-27.51 71.041-28.179 101.084-7.361z" fill="#D424E3"/><path fill-rule="evenodd" clip-rule="evenodd" d="M805.656 490.343a8 8 0 010 11.314c-13.449 13.45-15.18 31.919-9.259 46.298 5.92 14.376 18.677 23.273 34.033 20.201a8 8 0 013.138 15.69c-24.643 4.928-43.886-10.175-51.966-29.799-8.079-19.621-5.81-45.153 12.74-63.704a8 8 0 0111.314 0zm31.26 155.636a8 8 0 01-2.895 10.937c-23.416 13.614-48.9 14.915-65.942 15.083L768 672H552a8 8 0 010-16h215.96c16.621-.167 38.451-1.539 58.019-12.916a8 8 0 0110.937 2.895z" fill="#F059FD"/><g filter="url(#filter1_ddii)"><path fill-rule="evenodd" clip-rule="evenodd" d="M545.089 648.412c12.657-12.077 20.67-27.254 23.891-36.723 4.268-12.549 17.901-19.262 30.45-14.993 12.548 4.268 19.261 17.901 14.993 30.45-5.332 15.675-17.152 37.82-36.199 55.994-19.467 18.574-47.448 33.766-83.569 31.737-13.233-.743-23.359-12.074-22.616-25.308.744-13.234 12.075-23.36 25.309-22.616 19.913 1.118 35.504-6.866 47.741-18.541z" fill="#894819"/></g><g filter="url(#filter2_ddii)"><path fill-rule="evenodd" clip-rule="evenodd" d="M354.279 328.906c-20.463 3.298-39.376 15.012-50.08 24.803-9.781 8.946-24.962 8.27-33.908-1.51-8.946-9.781-8.27-24.962 1.511-33.908 15.695-14.356 42.862-31.62 74.839-36.774 33.556-5.408 71.395 2.873 103.247 38.483 8.837 9.879 7.992 25.051-1.887 33.888-9.88 8.837-25.052 7.992-33.889-1.887-19.987-22.346-40.949-26.139-59.833-23.095z" fill="#894819"/></g><g filter="url(#filter3_ddii)"><path fill-rule="evenodd" clip-rule="evenodd" d="M658.279 328.906c-20.463 3.298-39.376 15.012-50.08 24.803-9.781 8.946-24.962 8.27-33.908-1.51-8.946-9.781-8.27-24.962 1.511-33.908 15.695-14.356 42.862-31.62 74.839-36.774 33.556-5.408 71.395 2.873 103.247 38.483 8.837 9.879 7.992 25.051-1.887 33.888-9.88 8.837-25.052 7.992-33.889-1.887-19.987-22.346-40.949-26.139-59.833-23.095z" fill="#894819"/></g><path d="M528 80c0 17.673-14.327 32-32 32-17.673 0-32-14.327-32-32 0-17.673 14.327-32 32-32 17.673 0 32 14.327 32 32z" fill="#27BBFA"/><path d="M800 176c0 17.673-14.327 32-32 32-17.673 0-32-14.327-32-32 0-17.673 14.327-32 32-32 17.673 0 32 14.327 32 32z" fill="#9027FA"/><path d="M432 480c0 17.673-14.327 32-32 32-17.673 0-32-14.327-32-32 0-17.673 14.327-32 32-32 17.673 0 32 14.327 32 32z" fill="#27BBFA"/><path d="M112 352c0 17.673-14.327 32-32 32-17.673 0-32-14.327-32-32 0-17.673 14.327-32 32-32 17.673 0 32 14.327 32 32z" fill="#FA27F1"/><path d="M288 688c0 17.673-14.327 32-32 32-17.673 0-32-14.327-32-32 0-17.673 14.327-32 32-32 17.673 0 32 14.327 32 32z" fill="#9027FA"/><path d="M736 448c0 17.673-14.327 32-32 32-17.673 0-32-14.327-32-32 0-17.673 14.327-32 32-32 17.673 0 32 14.327 32 32z" fill="#FA27F1"/><path d="M880 368c0 17.673-14.327 32-32 32-17.673 0-32-14.327-32-32 0-17.673 14.327-32 32-32 17.673 0 32 14.327 32 32z" fill="#27BBFA"/><defs><radialGradient id="paint1_radial" cx="0" cy="0" r="1" gradientUnits="userSpaceOnUse" gradientTransform="rotate(61.389 -376.505 332.858) scale(100.24)"><stop stop-color="#FFCE21"/><stop offset="1" stop-color="#E9A326"/></radialGradient><radialGradient id="paint2_radial" cx="0" cy="0" r="1" gradientUnits="userSpaceOnUse" gradientTransform="rotate(61.389 -25.69 33.476) scale(100.24)"><stop stop-color="#FFCE21"/><stop offset="1" stop-color="#E9A326"/></radialGradient><radialGradient id="paint3_radial" cx="0" cy="0" r="1" gradientUnits="userSpaceOnUse" gradientTransform="rotate(78.559 21.72 365.859) scale(685.624)"><stop stop-color="#FFF7D9"/><stop offset=".123" stop-color="#FFE690"/><stop offset=".519" stop-color="#FFCE22"/><stop offset="1" stop-color="#FFB422"/></radialGradient><radialGradient id="paint4_radial" cx="0" cy="0" r="1" gradientUnits="userSpaceOnUse" gradientTransform="rotate(78.559 21.72 365.859) scale(685.624)"><stop offset=".857" stop-color="#EDFF22" stop-opacity="0"/><stop offset="1" stop-color="#FF24F6" stop-opacity=".3"/></radialGradient><filter id="filter0_f" x="135.188" y="316.359" width="824.797" height="691.64" filterUnits="userSpaceOnUse" color-interpolation-filters="sRGB"><feFlood flood-opacity="0" result="BackgroundImageFix"/><feBlend in="SourceGraphic" in2="BackgroundImageFix" result="shape"/><feGaussianBlur stdDeviation="48" result="effect1_foregroundBlur"/></filter><filter id="filter1_ddii" x="440" y="579.411" width="207.707" height="183.649" filterUnits="userSpaceOnUse" color-interpolation-filters="sRGB"><feFlood flood-opacity="0" result="BackgroundImageFix"/><feColorMatrix in="SourceAlpha" values="0 0 0 0 0 0 0 0 0 0 0 0 0 0 0 0 0 0 127 0" result="hardAlpha"/><feOffset dy="16"/><feGaussianBlur stdDeviation="16"/><feColorMatrix values="0 0 0 0 0.282353 0 0 0 0 0.054902 0 0 0 0 0.301961 0 0 0 0.2 0"/><feBlend in2="BackgroundImageFix" result="effect1_dropShadow"/><feColorMatrix in="SourceAlpha" values="0 0 0 0 0 0 0 0 0 0 0 0 0 0 0 0 0 0 127 0" result="hardAlpha"/><feOffset dy="4"/><feGaussianBlur stdDeviation="4"/><feComposite in2="hardAlpha" operator="out"/><feColorMatrix values="0 0 0 0 0.282353 0 0 0 0 0.054902 0 0 0 0 0.301961 0 0 0 0.2 0"/><feBlend in2="effect1_dropShadow" result="effect2_dropShadow"/><feBlend in="SourceGraphic" in2="effect2_dropShadow" result="shape"/><feColorMatrix in="SourceAlpha" values="0 0 0 0 0 0 0 0 0 0 0 0 0 0 0 0 0 0 127 0" result="hardAlpha"/><feOffset dx="6" dy="6"/><feGaussianBlur stdDeviation="16"/><feComposite in2="hardAlpha" operator="arithmetic" k2="-1" k3="1"/><feColorMatrix values="0 0 0 0 0.76276 0 0 0 0 0.388636 0 0 0 0 0.122215 0 0 0 1 0"/><feBlend in2="shape" result="effect3_innerShadow"/><feColorMatrix in="SourceAlpha" values="0 0 0 0 0 0 0 0 0 0 0 0 0 0 0 0 0 0 127 0" result="hardAlpha"/><feOffset dx="-6" dy="-6"/><feGaussianBlur stdDeviation="16"/><feComposite in2="hardAlpha" operator="arithmetic" k2="-1" k3="1"/><feColorMatrix values="0 0 0 0 0.354427 0 0 0 0 0.180009 0 0 0 0 0.0538352 0 0 0 1 0"/><feBlend in2="effect3_innerShadow" result="effect4_innerShadow"/></filter><filter id="filter2_ddii" x="232" y="264.007" width="256" height="143.994" filterUnits="userSpaceOnUse" color-interpolation-filters="sRGB"><feFlood flood-opacity="0" result="BackgroundImageFix"/><feColorMatrix in="SourceAlpha" values="0 0 0 0 0 0 0 0 0 0 0 0 0 0 0 0 0 0 127 0" result="hardAlpha"/><feOffset dy="16"/><feGaussianBlur stdDeviation="16"/><feColorMatrix values="0 0 0 0 0.282353 0 0 0 0 0.054902 0 0 0 0 0.301961 0 0 0 0.2 0"/><feBlend in2="BackgroundImageFix" result="effect1_dropShadow"/><feColorMatrix in="SourceAlpha" values="0 0 0 0 0 0 0 0 0 0 0 0 0 0 0 0 0 0 127 0" result="hardAlpha"/><feOffset dy="4"/><feGaussianBlur stdDeviation="4"/><feComposite in2="hardAlpha" operator="out"/><feColorMatrix values="0 0 0 0 0.282353 0 0 0 0 0.054902 0 0 0 0 0.301961 0 0 0 0.2 0"/><feBlend in2="effect1_dropShadow" result="effect2_dropShadow"/><feBlend in="SourceGraphic" in2="effect2_dropShadow" result="shape"/><feColorMatrix in="SourceAlpha" values="0 0 0 0 0 0 0 0 0 0 0 0 0 0 0 0 0 0 127 0" result="hardAlpha"/><feOffset dx="6" dy="6"/><feGaussianBlur stdDeviation="16"/><feComposite in2="hardAlpha" operator="arithmetic" k2="-1" k3="1"/><feColorMatrix values="0 0 0 0 0.76276 0 0 0 0 0.388636 0 0 0 0 0.122215 0 0 0 1 0"/><feBlend in2="shape" result="effect3_innerShadow"/><feColorMatrix in="SourceAlpha" values="0 0 0 0 0 0 0 0 0 0 0 0 0 0 0 0 0 0 127 0" result="hardAlpha"/><feOffset dx="-6" dy="-6"/><feGaussianBlur stdDeviation="16"/><feComposite in2="hardAlpha" operator="arithmetic" k2="-1" k3="1"/><feColorMatrix values="0 0 0 0 0.354427 0 0 0 0 0.180009 0 0 0 0 0.0538352 0 0 0 1 0"/><feBlend in2="effect3_innerShadow" result="effect4_innerShadow"/></filter><filter id="filter3_ddii" x="536" y="264.007" width="256" height="143.994" filterUnits="userSpaceOnUse" color-interpolation-filters="sRGB"><feFlood flood-opacity="0" result="BackgroundImageFix"/><feColorMatrix in="SourceAlpha" values="0 0 0 0 0 0 0 0 0 0 0 0 0 0 0 0 0 0 127 0" result="hardAlpha"/><feOffset dy="16"/><feGaussianBlur stdDeviation="16"/><feColorMatrix values="0 0 0 0 0.282353 0 0 0 0 0.054902 0 0 0 0 0.301961 0 0 0 0.2 0"/><feBlend in2="BackgroundImageFix" result="effect1_dropShadow"/><feColorMatrix in="SourceAlpha" values="0 0 0 0 0 0 0 0 0 0 0 0 0 0 0 0 0 0 127 0" result="hardAlpha"/><feOffset dy="4"/><feGaussianBlur stdDeviation="4"/><feComposite in2="hardAlpha" operator="out"/><feColorMatrix values="0 0 0 0 0.282353 0 0 0 0 0.054902 0 0 0 0 0.301961 0 0 0 0.2 0"/><feBlend in2="effect1_dropShadow" result="effect2_dropShadow"/><feBlend in="SourceGraphic" in2="effect2_dropShadow" result="shape"/><feColorMatrix in="SourceAlpha" values="0 0 0 0 0 0 0 0 0 0 0 0 0 0 0 0 0 0 127 0" result="hardAlpha"/><feOffset dx="6" dy="6"/><feGaussianBlur stdDeviation="16"/><feComposite in2="hardAlpha" operator="arithmetic" k2="-1" k3="1"/><feColorMatrix values="0 0 0 0 0.76276 0 0 0 0 0.388636 0 0 0 0 0.122215 0 0 0 1 0"/><feBlend in2="shape" result="effect3_innerShadow"/><feColorMatrix in="SourceAlpha" values="0 0 0 0 0 0 0 0 0 0 0 0 0 0 0 0 0 0 127 0" result="hardAlpha"/><feOffset dx="-6" dy="-6"/><feGaussianBlur stdDeviation="16"/><feComposite in2="hardAlpha" operator="arithmetic" k2="-1" k3="1"/><feColorMatrix values="0 0 0 0 0.354427 0 0 0 0 0.180009 0 0 0 0 0.0538352 0 0 0 1 0"/><feBlend in2="effect3_innerShadow" result="effect4_innerShadow"/></filter><linearGradient id="paint0_linear" x1="312" y1="24" x2="136" y2="400" gradientUnits="userSpaceOnUse"><stop stop-color="#188DE1"/><stop offset=".258" stop-color="#4DACF1"/><stop offset=".482" stop-color="#2192E3"/><stop offset="1" stop-color="#1073BA"/></linearGradient></defs></svg>