<svg width="1024" height="1024" fill="none" xmlns="http://www.w3.org/2000/svg"><path d="M840.557 384c37.28-69.708 42.14-158.019 38.402-216.134-.928-14.435-20.239-19.5-31.093-9.939-47.958 42.244-122.662 65.45-159.862 72.473 54.241 27.307 124.303 113.778 152.553 153.6z" fill="url(#paint0_linear)"/><path d="M183.451 384c-37.28-69.708-42.14-158.019-38.402-216.134.928-14.435 20.239-19.5 31.093-9.939 47.958 42.244 122.662 65.45 159.862 72.473-54.241 27.307-124.303 113.778-152.553 153.6z" fill="url(#paint1_linear)"/><path fill-rule="evenodd" clip-rule="evenodd" d="M853.001 185.753a8 8 0 00-11.244 1.249c-15.304 19.129-40.581 40.601-67.191 58.341-26.746 17.831-53.693 31.124-72.131 34.812a8 8 0 103.138 15.689c21.561-4.312 50.615-19.019 77.868-37.188 27.39-18.26 54.113-40.788 70.81-61.659a8 8 0 00-1.25-11.244z" fill="#691919"/><path fill-rule="evenodd" clip-rule="evenodd" d="M853.001 185.753a8 8 0 00-11.244 1.249c-3.969 4.961-8.635 10.111-13.862 15.344a7.999 7.999 0 00.005 11.313 8 8 0 0011.314-.005c5.559-5.565 10.634-11.153 15.037-16.657a8 8 0 00-1.25-11.244z" fill="#7D2121"/><path fill-rule="evenodd" clip-rule="evenodd" d="M171.007 185.753a8 8 0 0111.244 1.249c15.304 19.129 40.581 40.601 67.191 58.341 26.746 17.831 53.692 31.124 72.131 34.812a8 8 0 01-3.138 15.689c-21.561-4.312-50.615-19.019-77.868-37.188-27.39-18.26-54.113-40.788-70.81-61.659a8 8 0 011.25-11.244z" fill="#691919"/><path fill-rule="evenodd" clip-rule="evenodd" d="M171.007 185.753a8 8 0 0111.244 1.249c3.969 4.961 8.635 10.111 13.862 15.344a7.999 7.999 0 01-.005 11.313 8 8 0 01-11.314-.005c-5.56-5.565-10.634-11.153-15.037-16.657a8 8 0 011.25-11.244z" fill="#7D2121"/><circle cx="144.004" cy="528" r="64" fill="url(#paint2_radial)"/><circle r="64" transform="matrix(-1 0 0 1 880.004 528)" fill="url(#paint3_radial)"/><circle cx="512.004" cy="560" r="384" fill="url(#paint4_radial)"/><circle cx="512.004" cy="560" r="384" fill="url(#paint5_radial)"/><g filter="url(#filter0_f)"><path d="M488.006 880.001c198.823 0 360-161.177 360-360 0-37.495-5.732-73.652-16.368-107.642 20.774 44.9 32.365 94.916 32.365 147.64 0 194.405-157.595 352-352 352-114.667 0-216.528-54.829-280.796-139.7 65.316 66.474 156.243 107.702 256.799 107.702z" fill="#620164" fill-opacity=".6"/></g><g filter="url(#filter1_ddi)"><path d="M416.004 464c0 26.51-21.49 48-48 48s-48-21.49-48-48 21.49-48 48-48 48 21.49 48 48z" fill="url(#paint6_linear)"/></g><g filter="url(#filter2_ddi)"><path d="M720.004 464c0 26.51-21.49 48-48 48s-48-21.49-48-48 21.49-48 48-48 48 21.49 48 48z" fill="url(#paint7_linear)"/></g><g filter="url(#filter3_ddii)"><path fill-rule="evenodd" clip-rule="evenodd" d="M258.977 347.843c-11.132 7.195-14.324 22.052-7.129 33.184 31.107 48.132 90.312 78.585 142.9 90.39 12.933 2.903 25.771-5.227 28.674-18.16 2.903-12.933-5.228-25.771-18.161-28.674-45.416-10.195-91.211-35.742-113.1-69.61-7.194-11.132-22.051-14.324-33.184-7.13z" fill="#470E0E"/></g><g filter="url(#filter4_ddii)"><path fill-rule="evenodd" clip-rule="evenodd" d="M784.106 350.203c9.829 8.894 10.587 24.071 1.694 33.899-40.605 44.878-81.063 72.315-139.924 87.168-12.852 3.244-25.9-4.546-29.143-17.398-3.243-12.852 4.547-25.899 17.399-29.143 48.135-12.146 80.677-33.709 116.075-72.831 8.893-9.829 24.07-10.588 33.899-1.695z" fill="#470E0E"/></g><g filter="url(#filter5_ddii)"><path fill-rule="evenodd" clip-rule="evenodd" d="M658.114 655.033c33.739-18.19 53.223-40.306 64.948-56.439 5.194-7.148 15.201-8.732 22.349-3.537 7.148 5.195 8.732 15.201 3.537 22.349-13.694 18.844-36.574 44.728-75.648 65.794-39.046 21.051-93.351 36.8-169.239 36.8-65.425 0-117.967-17.551-156.495-39.162-38.065-21.351-63.328-47.189-73.452-64.897-4.385-7.671-1.722-17.446 5.95-21.831 7.671-4.386 17.445-1.722 21.831 5.949 6.469 11.316 26.752 33.477 61.326 52.87C397.332 672.063 444.522 688 504.061 688c71.328 0 120.286-14.762 154.053-32.967z" fill="#470E0E"/></g><g filter="url(#filter6_ddii)"><path d="M560.004 752h-96c6.4 51.2 34.667 85.333 48 96 25.6-19.2 42.667-72 48-96z" fill="#470E0E"/></g><defs><filter id="filter0_f" x="159.207" y="340.359" width="776.797" height="643.64" filterUnits="userSpaceOnUse" color-interpolation-filters="sRGB"><feFlood flood-opacity="0" result="BackgroundImageFix"/><feBlend in="SourceGraphic" in2="BackgroundImageFix" result="shape"/><feGaussianBlur stdDeviation="36" result="effect1_foregroundBlur"/></filter><filter id="filter1_ddi" x="312.004" y="412" width="112" height="112" filterUnits="userSpaceOnUse" color-interpolation-filters="sRGB"><feFlood flood-opacity="0" result="BackgroundImageFix"/><feColorMatrix in="SourceAlpha" values="0 0 0 0 0 0 0 0 0 0 0 0 0 0 0 0 0 0 127 0" result="hardAlpha"/><feOffset dy="4"/><feGaussianBlur stdDeviation="4"/><feComposite in2="hardAlpha" operator="out"/><feColorMatrix values="0 0 0 0 0.356863 0 0 0 0 0.0313726 0 0 0 0 0.384314 0 0 0 0.4 0"/><feBlend in2="BackgroundImageFix" result="effect1_dropShadow"/><feColorMatrix in="SourceAlpha" values="0 0 0 0 0 0 0 0 0 0 0 0 0 0 0 0 0 0 127 0" result="hardAlpha"/><feOffset dy="2"/><feGaussianBlur stdDeviation="2"/><feComposite in2="hardAlpha" operator="out"/><feColorMatrix values="0 0 0 0 0.356863 0 0 0 0 0.0313726 0 0 0 0 0.384314 0 0 0 0.2 0"/><feBlend in2="effect1_dropShadow" result="effect2_dropShadow"/><feBlend in="SourceGraphic" in2="effect2_dropShadow" result="shape"/><feColorMatrix in="SourceAlpha" values="0 0 0 0 0 0 0 0 0 0 0 0 0 0 0 0 0 0 127 0" result="hardAlpha"/><feOffset dx="4" dy="4"/><feGaussianBlur stdDeviation="6"/><feComposite in2="hardAlpha" operator="arithmetic" k2="-1" k3="1"/><feColorMatrix values="0 0 0 0 0.704427 0 0 0 0 0.418173 0 0 0 0 0.227338 0 0 0 0.4 0"/><feBlend in2="shape" result="effect3_innerShadow"/></filter><filter id="filter2_ddi" x="616.004" y="412" width="112" height="112" filterUnits="userSpaceOnUse" color-interpolation-filters="sRGB"><feFlood flood-opacity="0" result="BackgroundImageFix"/><feColorMatrix in="SourceAlpha" values="0 0 0 0 0 0 0 0 0 0 0 0 0 0 0 0 0 0 127 0" result="hardAlpha"/><feOffset dy="4"/><feGaussianBlur stdDeviation="4"/><feComposite in2="hardAlpha" operator="out"/><feColorMatrix values="0 0 0 0 0.356863 0 0 0 0 0.0313726 0 0 0 0 0.384314 0 0 0 0.4 0"/><feBlend in2="BackgroundImageFix" result="effect1_dropShadow"/><feColorMatrix in="SourceAlpha" values="0 0 0 0 0 0 0 0 0 0 0 0 0 0 0 0 0 0 127 0" result="hardAlpha"/><feOffset dy="2"/><feGaussianBlur stdDeviation="2"/><feComposite in2="hardAlpha" operator="out"/><feColorMatrix values="0 0 0 0 0.356863 0 0 0 0 0.0313726 0 0 0 0 0.384314 0 0 0 0.2 0"/><feBlend in2="effect1_dropShadow" result="effect2_dropShadow"/><feBlend in="SourceGraphic" in2="effect2_dropShadow" result="shape"/><feColorMatrix in="SourceAlpha" values="0 0 0 0 0 0 0 0 0 0 0 0 0 0 0 0 0 0 127 0" result="hardAlpha"/><feOffset dx="4" dy="4"/><feGaussianBlur stdDeviation="6"/><feComposite in2="hardAlpha" operator="arithmetic" k2="-1" k3="1"/><feColorMatrix values="0 0 0 0 0.704427 0 0 0 0 0.418173 0 0 0 0 0.227338 0 0 0 0.4 0"/><feBlend in2="shape" result="effect3_innerShadow"/></filter><filter id="filter3_ddii" x="216.002" y="327.997" width="240.008" height="192.008" filterUnits="userSpaceOnUse" color-interpolation-filters="sRGB"><feFlood flood-opacity="0" result="BackgroundImageFix"/><feColorMatrix in="SourceAlpha" values="0 0 0 0 0 0 0 0 0 0 0 0 0 0 0 0 0 0 127 0" result="hardAlpha"/><feOffset dy="16"/><feGaussianBlur stdDeviation="16"/><feColorMatrix values="0 0 0 0 0.282353 0 0 0 0 0.054902 0 0 0 0 0.301961 0 0 0 0.2 0"/><feBlend in2="BackgroundImageFix" result="effect1_dropShadow"/><feColorMatrix in="SourceAlpha" values="0 0 0 0 0 0 0 0 0 0 0 0 0 0 0 0 0 0 127 0" result="hardAlpha"/><feOffset dy="4"/><feGaussianBlur stdDeviation="4"/><feComposite in2="hardAlpha" operator="out"/><feColorMatrix values="0 0 0 0 0.282353 0 0 0 0 0.054902 0 0 0 0 0.301961 0 0 0 0.2 0"/><feBlend in2="effect1_dropShadow" result="effect2_dropShadow"/><feBlend in="SourceGraphic" in2="effect2_dropShadow" result="shape"/><feColorMatrix in="SourceAlpha" values="0 0 0 0 0 0 0 0 0 0 0 0 0 0 0 0 0 0 127 0" result="hardAlpha"/><feOffset dx="6" dy="6"/><feGaussianBlur stdDeviation="16"/><feComposite in2="hardAlpha" operator="arithmetic" k2="-1" k3="1"/><feColorMatrix values="0 0 0 0 0.671094 0 0 0 0 0.0683802 0 0 0 0 0.213032 0 0 0 1 0"/><feBlend in2="shape" result="effect3_innerShadow"/><feColorMatrix in="SourceAlpha" values="0 0 0 0 0 0 0 0 0 0 0 0 0 0 0 0 0 0 127 0" result="hardAlpha"/><feOffset dx="-6" dy="-6"/><feGaussianBlur stdDeviation="16"/><feComposite in2="hardAlpha" operator="arithmetic" k2="-1" k3="1"/><feColorMatrix values="0 0 0 0 0.354427 0 0 0 0 0.0538352 0 0 0 0 0.144013 0 0 0 1 0"/><feBlend in2="effect3_innerShadow" result="effect4_innerShadow"/></filter><filter id="filter4_ddii" x="583.998" y="328" width="240.006" height="192.006" filterUnits="userSpaceOnUse" color-interpolation-filters="sRGB"><feFlood flood-opacity="0" result="BackgroundImageFix"/><feColorMatrix in="SourceAlpha" values="0 0 0 0 0 0 0 0 0 0 0 0 0 0 0 0 0 0 127 0" result="hardAlpha"/><feOffset dy="16"/><feGaussianBlur stdDeviation="16"/><feColorMatrix values="0 0 0 0 0.282353 0 0 0 0 0.054902 0 0 0 0 0.301961 0 0 0 0.2 0"/><feBlend in2="BackgroundImageFix" result="effect1_dropShadow"/><feColorMatrix in="SourceAlpha" values="0 0 0 0 0 0 0 0 0 0 0 0 0 0 0 0 0 0 127 0" result="hardAlpha"/><feOffset dy="4"/><feGaussianBlur stdDeviation="4"/><feComposite in2="hardAlpha" operator="out"/><feColorMatrix values="0 0 0 0 0.282353 0 0 0 0 0.054902 0 0 0 0 0.301961 0 0 0 0.2 0"/><feBlend in2="effect1_dropShadow" result="effect2_dropShadow"/><feBlend in="SourceGraphic" in2="effect2_dropShadow" result="shape"/><feColorMatrix in="SourceAlpha" values="0 0 0 0 0 0 0 0 0 0 0 0 0 0 0 0 0 0 127 0" result="hardAlpha"/><feOffset dx="6" dy="6"/><feGaussianBlur stdDeviation="16"/><feComposite in2="hardAlpha" operator="arithmetic" k2="-1" k3="1"/><feColorMatrix values="0 0 0 0 0.671094 0 0 0 0 0.0683802 0 0 0 0 0.213032 0 0 0 1 0"/><feBlend in2="shape" result="effect3_innerShadow"/><feColorMatrix in="SourceAlpha" values="0 0 0 0 0 0 0 0 0 0 0 0 0 0 0 0 0 0 127 0" result="hardAlpha"/><feOffset dx="-6" dy="-6"/><feGaussianBlur stdDeviation="16"/><feComposite in2="hardAlpha" operator="arithmetic" k2="-1" k3="1"/><feColorMatrix values="0 0 0 0 0.354427 0 0 0 0 0.0538352 0 0 0 0 0.144013 0 0 0 1 0"/><feBlend in2="effect3_innerShadow" result="effect4_innerShadow"/></filter><filter id="filter5_ddii" x="240.002" y="575.997" width="544.004" height="192.003" filterUnits="userSpaceOnUse" color-interpolation-filters="sRGB"><feFlood flood-opacity="0" result="BackgroundImageFix"/><feColorMatrix in="SourceAlpha" values="0 0 0 0 0 0 0 0 0 0 0 0 0 0 0 0 0 0 127 0" result="hardAlpha"/><feOffset dy="16"/><feGaussianBlur stdDeviation="16"/><feColorMatrix values="0 0 0 0 0.282353 0 0 0 0 0.054902 0 0 0 0 0.301961 0 0 0 0.2 0"/><feBlend in2="BackgroundImageFix" result="effect1_dropShadow"/><feColorMatrix in="SourceAlpha" values="0 0 0 0 0 0 0 0 0 0 0 0 0 0 0 0 0 0 127 0" result="hardAlpha"/><feOffset dy="4"/><feGaussianBlur stdDeviation="4"/><feComposite in2="hardAlpha" operator="out"/><feColorMatrix values="0 0 0 0 0.282353 0 0 0 0 0.054902 0 0 0 0 0.301961 0 0 0 0.2 0"/><feBlend in2="effect1_dropShadow" result="effect2_dropShadow"/><feBlend in="SourceGraphic" in2="effect2_dropShadow" result="shape"/><feColorMatrix in="SourceAlpha" values="0 0 0 0 0 0 0 0 0 0 0 0 0 0 0 0 0 0 127 0" result="hardAlpha"/><feOffset dx="6" dy="6"/><feGaussianBlur stdDeviation="16"/><feComposite in2="hardAlpha" operator="arithmetic" k2="-1" k3="1"/><feColorMatrix values="0 0 0 0 0.671094 0 0 0 0 0.0683802 0 0 0 0 0.213032 0 0 0 1 0"/><feBlend in2="shape" result="effect3_innerShadow"/><feColorMatrix in="SourceAlpha" values="0 0 0 0 0 0 0 0 0 0 0 0 0 0 0 0 0 0 127 0" result="hardAlpha"/><feOffset dx="-6" dy="-6"/><feGaussianBlur stdDeviation="16"/><feComposite in2="hardAlpha" operator="arithmetic" k2="-1" k3="1"/><feColorMatrix values="0 0 0 0 0.354427 0 0 0 0 0.0538352 0 0 0 0 0.144013 0 0 0 1 0"/><feBlend in2="effect3_innerShadow" result="effect4_innerShadow"/></filter><filter id="filter6_ddii" x="432.004" y="736" width="160" height="160" filterUnits="userSpaceOnUse" color-interpolation-filters="sRGB"><feFlood flood-opacity="0" result="BackgroundImageFix"/><feColorMatrix in="SourceAlpha" values="0 0 0 0 0 0 0 0 0 0 0 0 0 0 0 0 0 0 127 0" result="hardAlpha"/><feOffset dy="16"/><feGaussianBlur stdDeviation="16"/><feColorMatrix values="0 0 0 0 0.282353 0 0 0 0 0.054902 0 0 0 0 0.301961 0 0 0 0.2 0"/><feBlend in2="BackgroundImageFix" result="effect1_dropShadow"/><feColorMatrix in="SourceAlpha" values="0 0 0 0 0 0 0 0 0 0 0 0 0 0 0 0 0 0 127 0" result="hardAlpha"/><feOffset dy="4"/><feGaussianBlur stdDeviation="4"/><feComposite in2="hardAlpha" operator="out"/><feColorMatrix values="0 0 0 0 0.282353 0 0 0 0 0.054902 0 0 0 0 0.301961 0 0 0 0.2 0"/><feBlend in2="effect1_dropShadow" result="effect2_dropShadow"/><feBlend in="SourceGraphic" in2="effect2_dropShadow" result="shape"/><feColorMatrix in="SourceAlpha" values="0 0 0 0 0 0 0 0 0 0 0 0 0 0 0 0 0 0 127 0" result="hardAlpha"/><feOffset dx="6" dy="6"/><feGaussianBlur stdDeviation="16"/><feComposite in2="hardAlpha" operator="arithmetic" k2="-1" k3="1"/><feColorMatrix values="0 0 0 0 0.671094 0 0 0 0 0.0683802 0 0 0 0 0.213032 0 0 0 1 0"/><feBlend in2="shape" result="effect3_innerShadow"/><feColorMatrix in="SourceAlpha" values="0 0 0 0 0 0 0 0 0 0 0 0 0 0 0 0 0 0 127 0" result="hardAlpha"/><feOffset dx="-6" dy="-6"/><feGaussianBlur stdDeviation="16"/><feComposite in2="hardAlpha" operator="arithmetic" k2="-1" k3="1"/><feColorMatrix values="0 0 0 0 0.354427 0 0 0 0 0.0538352 0 0 0 0 0.144013 0 0 0 1 0"/><feBlend in2="effect3_innerShadow" result="effect4_innerShadow"/></filter><radialGradient id="paint2_radial" cx="0" cy="0" r="1" gradientUnits="userSpaceOnUse" gradientTransform="rotate(61.389 -376.503 332.861) scale(100.24)"><stop stop-color="#F63943"/><stop offset="1" stop-color="#C41922"/></radialGradient><radialGradient id="paint3_radial" cx="0" cy="0" r="1" gradientUnits="userSpaceOnUse" gradientTransform="rotate(61.389 -25.69 33.476) scale(100.24)"><stop stop-color="#F63943"/><stop offset="1" stop-color="#C41922"/></radialGradient><radialGradient id="paint4_radial" cx="0" cy="0" r="1" gradientUnits="userSpaceOnUse" gradientTransform="rotate(78.559 21.721 365.861) scale(685.624)"><stop stop-color="#FFA4A9"/><stop offset=".123" stop-color="#FF7A81"/><stop offset=".416" stop-color="#FF5760"/><stop offset=".644" stop-color="#E83740"/><stop offset="1" stop-color="#D82B34"/></radialGradient><radialGradient id="paint5_radial" cx="0" cy="0" r="1" gradientUnits="userSpaceOnUse" gradientTransform="rotate(78.559 21.721 365.861) scale(685.624)"><stop offset=".557" stop-color="#CD1F34" stop-opacity="0"/><stop offset="1" stop-color="#FF24F6" stop-opacity=".3"/></radialGradient><linearGradient id="paint0_linear" x1="865.983" y1="324.267" x2="805.988" y2="196.581" gradientUnits="userSpaceOnUse"><stop stop-color="#1F0A0A"/><stop offset="1" stop-color="#4F1212"/></linearGradient><linearGradient id="paint1_linear" x1="158.024" y1="324.267" x2="218.02" y2="196.581" gradientUnits="userSpaceOnUse"><stop stop-color="#1F0A0A"/><stop offset="1" stop-color="#4F1212"/></linearGradient><linearGradient id="paint6_linear" x1="336.004" y1="424" x2="400.004" y2="512" gradientUnits="userSpaceOnUse"><stop stop-color="#A6171C"/><stop offset="1" stop-color="#871818"/></linearGradient><linearGradient id="paint7_linear" x1="640.004" y1="424" x2="704.004" y2="512" gradientUnits="userSpaceOnUse"><stop stop-color="#A6171C"/><stop offset="1" stop-color="#871818"/></linearGradient></defs></svg>