<svg width="1024" height="1024" fill="none" xmlns="http://www.w3.org/2000/svg"><circle cx="144" cy="528" r="64" fill="url(#paint0_radial)"/><circle r="64" transform="matrix(-1 0 0 1 880 528)" fill="url(#paint1_radial)"/><circle cx="512" cy="560" r="384" fill="url(#paint2_radial)"/><circle cx="512" cy="560" r="384" fill="url(#paint3_radial)"/><g filter="url(#filter0_f)"><path d="M488.002 880.001c198.823 0 360.001-161.177 360.001-360 0-37.495-5.733-73.652-16.369-107.642 20.774 44.9 32.366 94.916 32.366 147.64 0 194.405-157.596 352-352 352-114.668 0-216.529-54.829-280.797-139.7 65.316 66.474 156.243 107.702 256.799 107.702z" fill="#C1092A" fill-opacity=".6"/></g><g filter="url(#filter1_ddii)"><path fill-rule="evenodd" clip-rule="evenodd" d="M521.84 662.962c30.576-3.696 57.685-16.532 72.583-26.752 10.93-7.499 25.869-4.717 33.367 6.214 7.499 10.93 4.717 25.869-6.213 33.367-20.303 13.928-54.633 30.069-93.977 34.825-39.921 4.825-86.241-2.032-127.02-36.225-10.157-8.516-11.487-23.654-2.971-33.811s23.654-11.487 33.811-2.97c28.34 23.762 60.42 28.979 90.42 25.352z" fill="#894819"/></g><g filter="url(#filter2_ddii)"><path fill-rule="evenodd" clip-rule="evenodd" d="M354.279 328.906c-20.463 3.298-39.376 15.012-50.08 24.803-9.781 8.946-24.962 8.27-33.908-1.51-8.946-9.781-8.27-24.962 1.511-33.908 15.695-14.356 42.862-31.62 74.839-36.774 33.556-5.408 71.395 2.873 103.247 38.483 8.837 9.879 7.992 25.051-1.887 33.888-9.88 8.837-25.052 7.992-33.889-1.887-19.987-22.346-40.949-26.139-59.833-23.095z" fill="#894819"/></g><g filter="url(#filter3_ddii)"><path fill-rule="evenodd" clip-rule="evenodd" d="M658.279 328.906c-20.463 3.298-39.376 15.012-50.08 24.803-9.781 8.946-24.962 8.27-33.908-1.51-8.946-9.781-8.27-24.962 1.511-33.908 15.695-14.356 42.862-31.62 74.839-36.774 33.556-5.408 71.395 2.873 103.247 38.483 8.837 9.879 7.992 25.051-1.887 33.888-9.88 8.837-25.052 7.992-33.889-1.887-19.987-22.346-40.949-26.139-59.833-23.095z" fill="#894819"/></g><g filter="url(#filter4_d)"><path d="M129.533 523.981c-36.695 18.571-52.282 62.199-34.377 97.58 8.702 17.195 23.716 29.202 41.018 34.828l115.939 36.764c13.134 4.164 27.494-3.105 31.914-16.155l38.219-112.838c6.588-17.869 6.151-38.045-2.949-56.029-17.906-35.381-62.291-48.659-98.987-30.089-9.813 4.967-16.63 13.117-21.403 21.448-4.78 8.345-7.955 17.635-10.166 26.098-.098.374-.362.748-.873 1.007-.51.258-.968.249-1.327.106-8.129-3.23-17.495-6.174-27.05-7.264-9.539-1.088-20.144-.422-29.958 4.544z" fill="url(#paint4_linear)"/></g><g filter="url(#filter5_d)"><path d="M766.887 553.485c-47.368-14.025-96.949 11.243-110.471 56.914-6.572 22.196-3.353 45.061 7.126 64.24l70.986 127.689c8.041 14.465 26.58 19.952 41.199 12.194l126.404-67.078c20.487-10.18 36.736-28.168 43.609-51.381 13.523-45.671-14.309-93.859-61.677-107.884-12.668-3.75-25.342-2.248-36.379 1.096-11.055 3.349-21.486 8.849-30.395 14.42-.393.246-.933.355-1.592.16-.658-.195-1.051-.58-1.248-1.001-4.439-9.523-10.195-19.816-17.644-28.644-7.437-8.814-17.251-16.974-29.918-20.725z" fill="url(#paint5_linear)"/></g><g filter="url(#filter6_d)"><path d="M838.18 298.033c-31.652-5.521-61.797 14.509-67.12 45.027-2.588 14.831 1.202 29.363 9.405 40.972l55.405 77.192c6.277 8.745 18.664 10.904 27.529 4.799l76.655-52.784c12.475-8.109 21.629-20.944 24.335-36.455 5.324-30.518-16.26-59.572-47.911-65.093-8.465-1.476-16.541.441-23.422 3.426-6.892 2.991-13.221 7.324-18.56 11.589-.236.188-.576.299-1.016.222-.441-.077-.723-.296-.881-.553-3.58-5.821-8.068-12.041-13.541-17.188-5.464-5.139-12.414-9.678-20.878-11.154z" fill="url(#paint6_linear)"/></g><g filter="url(#filter7_d)"><path d="M177.445 244.795c-18.405 1.119-32.578 16.304-31.499 34.05.524 8.624 4.569 16.235 10.69 21.628l41.181 35.744c4.666 4.05 11.869 3.611 16.008-.974l35.793-39.647c5.889-6.183 9.296-14.565 8.748-23.584-1.079-17.746-16.986-31.103-35.391-29.984-4.922.299-9.177 2.442-12.623 5.022-3.451 2.584-6.409 5.844-8.824 8.934-.107.136-.282.243-.538.259-.256.015-.443-.07-.566-.192-2.771-2.775-6.102-5.652-9.841-7.799-3.733-2.144-8.216-3.756-13.138-3.457z" fill="url(#paint7_linear)"/></g><defs><filter id="filter0_f" x="159.203" y="340.359" width="776.797" height="643.64" filterUnits="userSpaceOnUse" color-interpolation-filters="sRGB"><feFlood flood-opacity="0" result="BackgroundImageFix"/><feBlend in="SourceGraphic" in2="BackgroundImageFix" result="shape"/><feGaussianBlur stdDeviation="36" result="effect1_foregroundBlur"/></filter><filter id="filter1_ddii" x="360" y="615.998" width="304.002" height="143.997" filterUnits="userSpaceOnUse" color-interpolation-filters="sRGB"><feFlood flood-opacity="0" result="BackgroundImageFix"/><feColorMatrix in="SourceAlpha" values="0 0 0 0 0 0 0 0 0 0 0 0 0 0 0 0 0 0 127 0" result="hardAlpha"/><feOffset dy="16"/><feGaussianBlur stdDeviation="16"/><feColorMatrix values="0 0 0 0 0.282353 0 0 0 0 0.054902 0 0 0 0 0.301961 0 0 0 0.2 0"/><feBlend in2="BackgroundImageFix" result="effect1_dropShadow"/><feColorMatrix in="SourceAlpha" values="0 0 0 0 0 0 0 0 0 0 0 0 0 0 0 0 0 0 127 0" result="hardAlpha"/><feOffset dy="4"/><feGaussianBlur stdDeviation="4"/><feComposite in2="hardAlpha" operator="out"/><feColorMatrix values="0 0 0 0 0.282353 0 0 0 0 0.054902 0 0 0 0 0.301961 0 0 0 0.2 0"/><feBlend in2="effect1_dropShadow" result="effect2_dropShadow"/><feBlend in="SourceGraphic" in2="effect2_dropShadow" result="shape"/><feColorMatrix in="SourceAlpha" values="0 0 0 0 0 0 0 0 0 0 0 0 0 0 0 0 0 0 127 0" result="hardAlpha"/><feOffset dx="6" dy="6"/><feGaussianBlur stdDeviation="16"/><feComposite in2="hardAlpha" operator="arithmetic" k2="-1" k3="1"/><feColorMatrix values="0 0 0 0 0.76276 0 0 0 0 0.388636 0 0 0 0 0.122215 0 0 0 1 0"/><feBlend in2="shape" result="effect3_innerShadow"/><feColorMatrix in="SourceAlpha" values="0 0 0 0 0 0 0 0 0 0 0 0 0 0 0 0 0 0 127 0" result="hardAlpha"/><feOffset dx="-6" dy="-6"/><feGaussianBlur stdDeviation="16"/><feComposite in2="hardAlpha" operator="arithmetic" k2="-1" k3="1"/><feColorMatrix values="0 0 0 0 0.354427 0 0 0 0 0.180009 0 0 0 0 0.0538352 0 0 0 1 0"/><feBlend in2="effect3_innerShadow" result="effect4_innerShadow"/></filter><filter id="filter2_ddii" x="232" y="264.007" width="256" height="143.994" filterUnits="userSpaceOnUse" color-interpolation-filters="sRGB"><feFlood flood-opacity="0" result="BackgroundImageFix"/><feColorMatrix in="SourceAlpha" values="0 0 0 0 0 0 0 0 0 0 0 0 0 0 0 0 0 0 127 0" result="hardAlpha"/><feOffset dy="16"/><feGaussianBlur stdDeviation="16"/><feColorMatrix values="0 0 0 0 0.282353 0 0 0 0 0.054902 0 0 0 0 0.301961 0 0 0 0.2 0"/><feBlend in2="BackgroundImageFix" result="effect1_dropShadow"/><feColorMatrix in="SourceAlpha" values="0 0 0 0 0 0 0 0 0 0 0 0 0 0 0 0 0 0 127 0" result="hardAlpha"/><feOffset dy="4"/><feGaussianBlur stdDeviation="4"/><feComposite in2="hardAlpha" operator="out"/><feColorMatrix values="0 0 0 0 0.282353 0 0 0 0 0.054902 0 0 0 0 0.301961 0 0 0 0.2 0"/><feBlend in2="effect1_dropShadow" result="effect2_dropShadow"/><feBlend in="SourceGraphic" in2="effect2_dropShadow" result="shape"/><feColorMatrix in="SourceAlpha" values="0 0 0 0 0 0 0 0 0 0 0 0 0 0 0 0 0 0 127 0" result="hardAlpha"/><feOffset dx="6" dy="6"/><feGaussianBlur stdDeviation="16"/><feComposite in2="hardAlpha" operator="arithmetic" k2="-1" k3="1"/><feColorMatrix values="0 0 0 0 0.76276 0 0 0 0 0.388636 0 0 0 0 0.122215 0 0 0 1 0"/><feBlend in2="shape" result="effect3_innerShadow"/><feColorMatrix in="SourceAlpha" values="0 0 0 0 0 0 0 0 0 0 0 0 0 0 0 0 0 0 127 0" result="hardAlpha"/><feOffset dx="-6" dy="-6"/><feGaussianBlur stdDeviation="16"/><feComposite in2="hardAlpha" operator="arithmetic" k2="-1" k3="1"/><feColorMatrix values="0 0 0 0 0.354427 0 0 0 0 0.180009 0 0 0 0 0.0538352 0 0 0 1 0"/><feBlend in2="effect3_innerShadow" result="effect4_innerShadow"/></filter><filter id="filter3_ddii" x="536" y="264.007" width="256" height="143.994" filterUnits="userSpaceOnUse" color-interpolation-filters="sRGB"><feFlood flood-opacity="0" result="BackgroundImageFix"/><feColorMatrix in="SourceAlpha" values="0 0 0 0 0 0 0 0 0 0 0 0 0 0 0 0 0 0 127 0" result="hardAlpha"/><feOffset dy="16"/><feGaussianBlur stdDeviation="16"/><feColorMatrix values="0 0 0 0 0.282353 0 0 0 0 0.054902 0 0 0 0 0.301961 0 0 0 0.2 0"/><feBlend in2="BackgroundImageFix" result="effect1_dropShadow"/><feColorMatrix in="SourceAlpha" values="0 0 0 0 0 0 0 0 0 0 0 0 0 0 0 0 0 0 127 0" result="hardAlpha"/><feOffset dy="4"/><feGaussianBlur stdDeviation="4"/><feComposite in2="hardAlpha" operator="out"/><feColorMatrix values="0 0 0 0 0.282353 0 0 0 0 0.054902 0 0 0 0 0.301961 0 0 0 0.2 0"/><feBlend in2="effect1_dropShadow" result="effect2_dropShadow"/><feBlend in="SourceGraphic" in2="effect2_dropShadow" result="shape"/><feColorMatrix in="SourceAlpha" values="0 0 0 0 0 0 0 0 0 0 0 0 0 0 0 0 0 0 127 0" result="hardAlpha"/><feOffset dx="6" dy="6"/><feGaussianBlur stdDeviation="16"/><feComposite in2="hardAlpha" operator="arithmetic" k2="-1" k3="1"/><feColorMatrix values="0 0 0 0 0.76276 0 0 0 0 0.388636 0 0 0 0 0.122215 0 0 0 1 0"/><feBlend in2="shape" result="effect3_innerShadow"/><feColorMatrix in="SourceAlpha" values="0 0 0 0 0 0 0 0 0 0 0 0 0 0 0 0 0 0 127 0" result="hardAlpha"/><feOffset dx="-6" dy="-6"/><feGaussianBlur stdDeviation="16"/><feComposite in2="hardAlpha" operator="arithmetic" k2="-1" k3="1"/><feColorMatrix values="0 0 0 0 0.354427 0 0 0 0 0.180009 0 0 0 0 0.0538352 0 0 0 1 0"/><feBlend in2="effect3_innerShadow" result="effect4_innerShadow"/></filter><filter id="filter4_d" x="71.721" y="469.662" width="271.002" height="256.666" filterUnits="userSpaceOnUse" color-interpolation-filters="sRGB"><feFlood flood-opacity="0" result="BackgroundImageFix"/><feColorMatrix in="SourceAlpha" values="0 0 0 0 0 0 0 0 0 0 0 0 0 0 0 0 0 0 127 0" result="hardAlpha"/><feOffset dy="16"/><feGaussianBlur stdDeviation="8"/><feComposite in2="hardAlpha" operator="out"/><feColorMatrix values="0 0 0 0 0.68776 0 0 0 0 0.0242277 0 0 0 0 0.501971 0 0 0 0.4 0"/><feBlend in2="BackgroundImageFix" result="effect1_dropShadow"/><feBlend in="SourceGraphic" in2="effect1_dropShadow" result="shape"/></filter><filter id="filter5_d" x="637.004" y="549.616" width="328.154" height="300.43" filterUnits="userSpaceOnUse" color-interpolation-filters="sRGB"><feFlood flood-opacity="0" result="BackgroundImageFix"/><feColorMatrix in="SourceAlpha" values="0 0 0 0 0 0 0 0 0 0 0 0 0 0 0 0 0 0 127 0" result="hardAlpha"/><feOffset dy="16"/><feGaussianBlur stdDeviation="8"/><feComposite in2="hardAlpha" operator="out"/><feColorMatrix values="0 0 0 0 0.68776 0 0 0 0 0.0242277 0 0 0 0 0.501971 0 0 0 0.4 0"/><feBlend in2="BackgroundImageFix" result="effect1_dropShadow"/><feBlend in="SourceGraphic" in2="effect1_dropShadow" result="shape"/></filter><filter id="filter6_d" x="754.256" y="297.118" width="226.939" height="204.377" filterUnits="userSpaceOnUse" color-interpolation-filters="sRGB"><feFlood flood-opacity="0" result="BackgroundImageFix"/><feColorMatrix in="SourceAlpha" values="0 0 0 0 0 0 0 0 0 0 0 0 0 0 0 0 0 0 127 0" result="hardAlpha"/><feOffset dy="16"/><feGaussianBlur stdDeviation="8"/><feComposite in2="hardAlpha" operator="out"/><feColorMatrix values="0 0 0 0 0.68776 0 0 0 0 0.0242277 0 0 0 0 0.501971 0 0 0 0.4 0"/><feBlend in2="BackgroundImageFix" result="effect1_dropShadow"/><feBlend in="SourceGraphic" in2="effect1_dropShadow" result="shape"/></filter><filter id="filter7_d" x="129.889" y="241.962" width="144.535" height="129.027" filterUnits="userSpaceOnUse" color-interpolation-filters="sRGB"><feFlood flood-opacity="0" result="BackgroundImageFix"/><feColorMatrix in="SourceAlpha" values="0 0 0 0 0 0 0 0 0 0 0 0 0 0 0 0 0 0 127 0" result="hardAlpha"/><feOffset dy="16"/><feGaussianBlur stdDeviation="8"/><feComposite in2="hardAlpha" operator="out"/><feColorMatrix values="0 0 0 0 0.68776 0 0 0 0 0.0242277 0 0 0 0 0.501971 0 0 0 0.4 0"/><feBlend in2="BackgroundImageFix" result="effect1_dropShadow"/><feBlend in="SourceGraphic" in2="effect1_dropShadow" result="shape"/></filter><radialGradient id="paint0_radial" cx="0" cy="0" r="1" gradientUnits="userSpaceOnUse" gradientTransform="rotate(61.389 -376.505 332.858) scale(100.24)"><stop stop-color="#FFCE21"/><stop offset="1" stop-color="#F2911E"/></radialGradient><radialGradient id="paint1_radial" cx="0" cy="0" r="1" gradientUnits="userSpaceOnUse" gradientTransform="rotate(61.389 -25.69 33.476) scale(100.24)"><stop stop-color="#FFCE21"/><stop offset="1" stop-color="#F2911E"/></radialGradient><radialGradient id="paint2_radial" cx="0" cy="0" r="1" gradientUnits="userSpaceOnUse" gradientTransform="rotate(78.559 21.72 365.859) scale(685.624)"><stop stop-color="#FFEA9F"/><stop offset=".123" stop-color="#FFE380"/><stop offset=".416" stop-color="#FFD250"/><stop offset=".644" stop-color="#FFC122"/><stop offset="1" stop-color="#FFB422"/></radialGradient><radialGradient id="paint3_radial" cx="0" cy="0" r="1" gradientUnits="userSpaceOnUse" gradientTransform="rotate(78.559 21.72 365.859) scale(685.624)"><stop offset=".557" stop-color="#E35D12" stop-opacity="0"/><stop offset="1" stop-color="#FF24F6" stop-opacity=".3"/></radialGradient><linearGradient id="paint4_linear" x1="174.922" y1="501.012" x2="271.337" y2="691.531" gradientUnits="userSpaceOnUse"><stop stop-color="#F839B7"/><stop offset="1" stop-color="#E02960"/></linearGradient><linearGradient id="paint5_linear" x1="825.475" y1="570.832" x2="752.66" y2="816.758" gradientUnits="userSpaceOnUse"><stop stop-color="#F839B7"/><stop offset="1" stop-color="#E02960"/></linearGradient><linearGradient id="paint6_linear" x1="877.329" y1="304.862" x2="848.663" y2="469.192" gradientUnits="userSpaceOnUse"><stop stop-color="#F839B7"/><stop offset="1" stop-color="#E02960"/></linearGradient><linearGradient id="paint7_linear" x1="200.21" y1="243.411" x2="206.018" y2="338.968" gradientUnits="userSpaceOnUse"><stop stop-color="#F839B7"/><stop offset="1" stop-color="#E02960"/></linearGradient></defs></svg>