<svg width="1024" height="1024" fill="none" xmlns="http://www.w3.org/2000/svg"><circle cx="144" cy="528" r="64" fill="url(#paint0_radial)"/><circle r="64" transform="matrix(-1 0 0 1 880 528)" fill="url(#paint1_radial)"/><circle cx="512" cy="560" r="384" fill="url(#paint2_radial)"/><circle cx="512" cy="560" r="384" fill="url(#paint3_radial)"/><g filter="url(#filter0_f)"><path d="M488.002 880.001c198.823 0 360.001-161.177 360.001-360 0-37.495-5.733-73.652-16.369-107.642 20.774 44.9 32.366 94.916 32.366 147.64 0 194.405-157.596 352-352 352-114.668 0-216.529-54.829-280.797-139.7 65.316 66.474 156.243 107.702 256.799 107.702z" fill="#C1092A" fill-opacity=".6"/></g><g filter="url(#filter1_di)"><path d="M512 768c127.335 0 233.256-90.411 255.357-209.689C772.042 533.024 750.462 512 724.395 512h-424.79c-26.067 0-47.647 21.024-42.962 46.311C278.744 677.589 384.665 768 512 768z" fill="url(#paint4_linear)"/></g><g filter="url(#filter2_i)"><path d="M685.786 702.178C639.773 743.093 578.838 768 512.004 768c-66.836 0-127.773-24.909-173.785-65.826C351.636 648.79 424.333 608 512.002 608c87.67 0 160.369 40.792 173.784 94.178z" fill="url(#paint5_linear)"/></g><g filter="url(#filter3_dd)"><path d="M222.21 133.407c-50.604 13.56-81.442 63.877-68.369 112.669 6.354 23.713 21.934 42.607 42.035 54.145l134.933 76.142c15.286 8.626 35.09 3.318 44.012-11.797l77.146-130.688c12.886-20.556 17.616-45.824 10.971-70.624-13.074-48.792-64.94-76.949-115.544-63.39-13.533 3.627-24.163 12.006-32.291 21.145-8.141 9.154-14.527 19.906-19.497 29.88-.22.44-.647.838-1.351 1.026-.704.189-1.273.058-1.683-.214-9.291-6.152-20.198-12.271-31.825-16.127-11.608-3.851-25.004-5.793-38.537-2.167z" fill="url(#paint6_linear)"/></g><g filter="url(#filter4_dd)"><path d="M676.608 99.866c-50.604-13.56-102.469 14.598-115.543 63.39-6.354 23.713-2.308 47.865 9.33 67.908l78.785 133.408c8.925 15.113 28.73 20.418 44.015 11.789l132.154-74.606c21.437-11.359 38.167-30.877 44.812-55.677 13.074-48.792-17.764-99.11-68.369-112.669-13.533-3.626-26.928-1.684-38.537 2.167-11.627 3.856-22.534 9.975-31.825 16.127-.41.272-.979.403-1.683.214-.703-.189-1.131-.586-1.35-1.027-4.97-9.973-11.356-20.726-19.498-29.879-8.128-9.139-18.757-17.519-32.291-21.145z" fill="url(#paint7_linear)"/></g><defs><filter id="filter0_f" x="159.203" y="340.359" width="776.797" height="643.64" filterUnits="userSpaceOnUse" color-interpolation-filters="sRGB"><feFlood flood-opacity="0" result="BackgroundImageFix"/><feBlend in="SourceGraphic" in2="BackgroundImageFix" result="shape"/><feGaussianBlur stdDeviation="36" result="effect1_foregroundBlur"/></filter><filter id="filter1_di" x="248" y="504" width="544" height="288" filterUnits="userSpaceOnUse" color-interpolation-filters="sRGB"><feFlood flood-opacity="0" result="BackgroundImageFix"/><feColorMatrix in="SourceAlpha" values="0 0 0 0 0 0 0 0 0 0 0 0 0 0 0 0 0 0 127 0" result="hardAlpha"/><feOffset dx="8" dy="8"/><feGaussianBlur stdDeviation="8"/><feColorMatrix values="0 0 0 0 1 0 0 0 0 0.87451 0 0 0 0 0.423529 0 0 0 1 0"/><feBlend in2="BackgroundImageFix" result="effect1_dropShadow"/><feBlend in="SourceGraphic" in2="effect1_dropShadow" result="shape"/><feColorMatrix in="SourceAlpha" values="0 0 0 0 0 0 0 0 0 0 0 0 0 0 0 0 0 0 127 0" result="hardAlpha"/><feOffset dx="16" dy="16"/><feGaussianBlur stdDeviation="16"/><feComposite in2="hardAlpha" operator="arithmetic" k2="-1" k3="1"/><feColorMatrix values="0 0 0 0 0 0 0 0 0 0 0 0 0 0 0 0 0 0 0.25 0"/><feBlend in2="shape" result="effect2_innerShadow"/></filter><filter id="filter2_i" x="338.219" y="608" width="347.566" height="168" filterUnits="userSpaceOnUse" color-interpolation-filters="sRGB"><feFlood flood-opacity="0" result="BackgroundImageFix"/><feBlend in="SourceGraphic" in2="BackgroundImageFix" result="shape"/><feColorMatrix in="SourceAlpha" values="0 0 0 0 0 0 0 0 0 0 0 0 0 0 0 0 0 0 127 0" result="hardAlpha"/><feOffset dy="8"/><feGaussianBlur stdDeviation="8"/><feComposite in2="hardAlpha" operator="arithmetic" k2="-1" k3="1"/><feColorMatrix values="0 0 0 0 0.51276 0 0 0 0 0.0415645 0 0 0 0 0.0415645 0 0 0 0.4 0"/><feBlend in2="shape" result="effect1_innerShadow"/></filter><filter id="filter3_dd" x="134.838" y="88.462" width="347.098" height="316.038" filterUnits="userSpaceOnUse" color-interpolation-filters="sRGB"><feFlood flood-opacity="0" result="BackgroundImageFix"/><feColorMatrix in="SourceAlpha" values="0 0 0 0 0 0 0 0 0 0 0 0 0 0 0 0 0 0 127 0" result="hardAlpha"/><feOffset dy="8"/><feGaussianBlur stdDeviation="8"/><feComposite in2="hardAlpha" operator="out"/><feColorMatrix values="0 0 0 0 0.282353 0 0 0 0 0.054902 0 0 0 0 0.301961 0 0 0 0.2 0"/><feBlend in2="BackgroundImageFix" result="effect1_dropShadow"/><feColorMatrix in="SourceAlpha" values="0 0 0 0 0 0 0 0 0 0 0 0 0 0 0 0 0 0 127 0" result="hardAlpha"/><feOffset dy="2"/><feGaussianBlur stdDeviation="2"/><feComposite in2="hardAlpha" operator="out"/><feColorMatrix values="0 0 0 0 0.282353 0 0 0 0 0.054902 0 0 0 0 0.301961 0 0 0 0.2 0"/><feBlend in2="effect1_dropShadow" result="effect2_dropShadow"/><feBlend in="SourceGraphic" in2="effect2_dropShadow" result="shape"/></filter><filter id="filter4_dd" x="542.068" y="88.464" width="347.098" height="316.037" filterUnits="userSpaceOnUse" color-interpolation-filters="sRGB"><feFlood flood-opacity="0" result="BackgroundImageFix"/><feColorMatrix in="SourceAlpha" values="0 0 0 0 0 0 0 0 0 0 0 0 0 0 0 0 0 0 127 0" result="hardAlpha"/><feOffset dy="8"/><feGaussianBlur stdDeviation="8"/><feComposite in2="hardAlpha" operator="out"/><feColorMatrix values="0 0 0 0 0.282353 0 0 0 0 0.054902 0 0 0 0 0.301961 0 0 0 0.2 0"/><feBlend in2="BackgroundImageFix" result="effect1_dropShadow"/><feColorMatrix in="SourceAlpha" values="0 0 0 0 0 0 0 0 0 0 0 0 0 0 0 0 0 0 127 0" result="hardAlpha"/><feOffset dy="2"/><feGaussianBlur stdDeviation="2"/><feComposite in2="hardAlpha" operator="out"/><feColorMatrix values="0 0 0 0 0.282353 0 0 0 0 0.054902 0 0 0 0 0.301961 0 0 0 0.2 0"/><feBlend in2="effect1_dropShadow" result="effect2_dropShadow"/><feBlend in="SourceGraphic" in2="effect2_dropShadow" result="shape"/></filter><radialGradient id="paint0_radial" cx="0" cy="0" r="1" gradientUnits="userSpaceOnUse" gradientTransform="rotate(61.389 -376.505 332.858) scale(100.24)"><stop stop-color="#FFCE21"/><stop offset="1" stop-color="#F2911E"/></radialGradient><radialGradient id="paint1_radial" cx="0" cy="0" r="1" gradientUnits="userSpaceOnUse" gradientTransform="rotate(61.389 -25.69 33.476) scale(100.24)"><stop stop-color="#FFCE21"/><stop offset="1" stop-color="#F2911E"/></radialGradient><radialGradient id="paint2_radial" cx="0" cy="0" r="1" gradientUnits="userSpaceOnUse" gradientTransform="rotate(78.559 21.72 365.859) scale(685.624)"><stop stop-color="#FFEA9F"/><stop offset=".123" stop-color="#FFE380"/><stop offset=".416" stop-color="#FFD250"/><stop offset=".644" stop-color="#FFC122"/><stop offset="1" stop-color="#FFB422"/></radialGradient><radialGradient id="paint3_radial" cx="0" cy="0" r="1" gradientUnits="userSpaceOnUse" gradientTransform="rotate(78.559 21.72 365.859) scale(685.624)"><stop offset=".557" stop-color="#E35D12" stop-opacity="0"/><stop offset="1" stop-color="#FF24F6" stop-opacity=".3"/></radialGradient><linearGradient id="paint4_linear" x1="512" y1="512" x2="512" y2="768" gradientUnits="userSpaceOnUse"><stop stop-color="#60310F"/><stop offset=".451" stop-color="#7D3807"/></linearGradient><linearGradient id="paint5_linear" x1="512.002" y1="608" x2="512.002" y2="768" gradientUnits="userSpaceOnUse"><stop stop-color="#F04343"/><stop offset=".232" stop-color="#EF4343"/><stop offset=".378" stop-color="#E13737"/><stop offset="1" stop-color="#C72121"/></linearGradient><linearGradient id="paint6_linear" x1="284.802" y1="116.636" x2="355.201" y2="379.368" gradientUnits="userSpaceOnUse"><stop stop-color="#FF49C1"/><stop offset="1" stop-color="#E71084"/></linearGradient><linearGradient id="paint7_linear" x1="739.2" y1="116.638" x2="668.802" y2="379.369" gradientUnits="userSpaceOnUse"><stop stop-color="#FF49C1"/><stop offset="1" stop-color="#E71084"/></linearGradient></defs></svg>