<svg width="1024" height="1024" fill="none" xmlns="http://www.w3.org/2000/svg"><circle cx="144" cy="528" r="64" fill="url(#paint0_radial_275:2828)"/><circle r="64" transform="matrix(-1 0 0 1 880 528)" fill="url(#paint1_radial_275:2828)"/><circle cx="512" cy="560" r="384" fill="url(#paint2_radial_275:2828)"/><circle cx="512" cy="560" r="384" fill="url(#paint3_radial_275:2828)"/><g filter="url(#filter0_f_275:2828)"><path d="M488.002 880.001c198.823 0 360.001-161.177 360.001-360 0-37.495-5.733-73.652-16.369-107.642 20.774 44.9 32.366 94.916 32.366 147.64 0 194.405-157.596 352-352 352-114.668 0-216.529-54.829-280.797-139.7 65.316 66.474 156.243 107.702 256.799 107.702z" fill="#C1092A" fill-opacity=".6"/></g><g filter="url(#filter1_dd_275:2828)"><path d="M774.355 429.64c-50.605-13.56-102.47 14.598-115.544 63.389-6.354 23.714-2.308 47.865 9.33 67.908l78.785 133.408c8.925 15.113 28.73 20.418 44.015 11.79l132.154-74.607c21.437-11.359 38.167-30.877 44.812-55.676 13.074-48.792-17.764-99.11-68.368-112.669-13.534-3.627-26.929-1.684-38.538 2.166-11.627 3.857-22.534 9.975-31.824 16.128-.411.271-.98.402-1.684.213-.703-.188-1.131-.586-1.35-1.026-4.97-9.974-11.356-20.726-19.498-29.88-8.128-9.138-18.757-17.518-32.29-21.144z" fill="url(#paint4_linear_275:2828)"/></g><g filter="url(#filter2_ddii_275:2828)"><path fill-rule="evenodd" clip-rule="evenodd" d="M593.985 572.901c3.832-7.962 13.393-11.311 21.356-7.478 12.5 6.016 26.28 15.152 36.381 26.596 9.939 11.26 18.517 27.501 13.554 46.024-4.736 17.673-16.519 28.681-29.188 35.143 7.741 11.931 12.441 27.356 7.706 45.029-4.652 17.358-17.698 27.834-31.496 33.391-13.593 5.474-29.251 6.86-43.318 5.803-8.811-.662-15.418-8.343-14.755-17.154.662-8.812 8.342-15.418 17.154-14.756 10.696.804 21.152-.43 28.965-3.577 7.607-3.063 11.259-7.209 12.54-11.989 3.256-12.154-5.159-24.685-15.605-31.352a16 16 0 017.897-29.471c12.38-.551 25.933-7.196 29.19-19.349.969-3.616.025-9.021-6.635-16.565-6.497-7.361-16.392-14.186-26.268-18.939-7.962-3.832-11.311-13.394-7.478-21.356z" fill="#894819"/></g><g filter="url(#filter3_ddii_275:2828)"><path fill-rule="evenodd" clip-rule="evenodd" d="M369.642 347.957c-21.422 3.452-41.023 15.629-52.143 25.801-8.151 7.455-20.801 6.891-28.256-1.259-7.456-8.151-6.892-20.801 1.258-28.256 15.28-13.976 41.759-30.778 72.777-35.777 32.333-5.211 68.765 2.696 99.629 37.2 7.364 8.233 6.66 20.877-1.573 28.241-8.233 7.364-20.877 6.66-28.241-1.573-20.976-23.451-43.344-27.618-63.451-24.377z" fill="#894819"/></g><g filter="url(#filter4_ddii_275:2828)"><path fill-rule="evenodd" clip-rule="evenodd" d="M641.642 347.957c-21.422 3.452-41.023 15.629-52.143 25.801-8.151 7.455-20.801 6.891-28.256-1.259-7.456-8.151-6.892-20.801 1.258-28.256 15.28-13.976 41.759-30.778 72.777-35.777 32.333-5.211 68.765 2.696 99.629 37.2 7.364 8.233 6.66 20.877-1.573 28.241-8.233 7.364-20.877 6.66-28.241-1.573-20.976-23.451-43.344-27.618-63.451-24.377z" fill="#894819"/></g><defs><filter id="filter0_f_275:2828" x="159.203" y="340.359" width="776.797" height="643.64" filterUnits="userSpaceOnUse" color-interpolation-filters="sRGB"><feFlood flood-opacity="0" result="BackgroundImageFix"/><feBlend in="SourceGraphic" in2="BackgroundImageFix" result="shape"/><feGaussianBlur stdDeviation="36" result="effect1_foregroundBlur_275:2828"/></filter><filter id="filter1_dd_275:2828" x="639.814" y="418.237" width="347.098" height="316.037" filterUnits="userSpaceOnUse" color-interpolation-filters="sRGB"><feFlood flood-opacity="0" result="BackgroundImageFix"/><feColorMatrix in="SourceAlpha" values="0 0 0 0 0 0 0 0 0 0 0 0 0 0 0 0 0 0 127 0" result="hardAlpha"/><feOffset dy="8"/><feGaussianBlur stdDeviation="8"/><feComposite in2="hardAlpha" operator="out"/><feColorMatrix values="0 0 0 0 0.282353 0 0 0 0 0.054902 0 0 0 0 0.301961 0 0 0 0.2 0"/><feBlend in2="BackgroundImageFix" result="effect1_dropShadow_275:2828"/><feColorMatrix in="SourceAlpha" values="0 0 0 0 0 0 0 0 0 0 0 0 0 0 0 0 0 0 127 0" result="hardAlpha"/><feOffset dy="2"/><feGaussianBlur stdDeviation="2"/><feComposite in2="hardAlpha" operator="out"/><feColorMatrix values="0 0 0 0 0.282353 0 0 0 0 0.054902 0 0 0 0 0.301961 0 0 0 0.2 0"/><feBlend in2="effect1_dropShadow_275:2828" result="effect2_dropShadow_275:2828"/><feBlend in="SourceGraphic" in2="effect2_dropShadow_275:2828" result="shape"/></filter><filter id="filter2_ddii_275:2828" x="522.18" y="547.836" width="176.547" height="257.901" filterUnits="userSpaceOnUse" color-interpolation-filters="sRGB"><feFlood flood-opacity="0" result="BackgroundImageFix"/><feColorMatrix in="SourceAlpha" values="0 0 0 0 0 0 0 0 0 0 0 0 0 0 0 0 0 0 127 0" result="hardAlpha"/><feOffset dy="16"/><feGaussianBlur stdDeviation="16"/><feColorMatrix values="0 0 0 0 0.282353 0 0 0 0 0.054902 0 0 0 0 0.301961 0 0 0 0.2 0"/><feBlend in2="BackgroundImageFix" result="effect1_dropShadow_275:2828"/><feColorMatrix in="SourceAlpha" values="0 0 0 0 0 0 0 0 0 0 0 0 0 0 0 0 0 0 127 0" result="hardAlpha"/><feOffset dy="4"/><feGaussianBlur stdDeviation="4"/><feComposite in2="hardAlpha" operator="out"/><feColorMatrix values="0 0 0 0 0.282353 0 0 0 0 0.054902 0 0 0 0 0.301961 0 0 0 0.2 0"/><feBlend in2="effect1_dropShadow_275:2828" result="effect2_dropShadow_275:2828"/><feBlend in="SourceGraphic" in2="effect2_dropShadow_275:2828" result="shape"/><feColorMatrix in="SourceAlpha" values="0 0 0 0 0 0 0 0 0 0 0 0 0 0 0 0 0 0 127 0" result="hardAlpha"/><feOffset dx="6" dy="6"/><feGaussianBlur stdDeviation="16"/><feComposite in2="hardAlpha" operator="arithmetic" k2="-1" k3="1"/><feColorMatrix values="0 0 0 0 0.76276 0 0 0 0 0.388636 0 0 0 0 0.122215 0 0 0 1 0"/><feBlend in2="shape" result="effect3_innerShadow_275:2828"/><feColorMatrix in="SourceAlpha" values="0 0 0 0 0 0 0 0 0 0 0 0 0 0 0 0 0 0 127 0" result="hardAlpha"/><feOffset dx="-6" dy="-6"/><feGaussianBlur stdDeviation="16"/><feComposite in2="hardAlpha" operator="arithmetic" k2="-1" k3="1"/><feColorMatrix values="0 0 0 0 0.354427 0 0 0 0 0.180009 0 0 0 0 0.0538352 0 0 0 1 0"/><feBlend in2="effect3_innerShadow_275:2828" result="effect4_innerShadow_275:2828"/></filter><filter id="filter3_ddii_275:2828" x="252" y="291.006" width="248" height="135.994" filterUnits="userSpaceOnUse" color-interpolation-filters="sRGB"><feFlood flood-opacity="0" result="BackgroundImageFix"/><feColorMatrix in="SourceAlpha" values="0 0 0 0 0 0 0 0 0 0 0 0 0 0 0 0 0 0 127 0" result="hardAlpha"/><feOffset dy="16"/><feGaussianBlur stdDeviation="16"/><feColorMatrix values="0 0 0 0 0.282353 0 0 0 0 0.054902 0 0 0 0 0.301961 0 0 0 0.2 0"/><feBlend in2="BackgroundImageFix" result="effect1_dropShadow_275:2828"/><feColorMatrix in="SourceAlpha" values="0 0 0 0 0 0 0 0 0 0 0 0 0 0 0 0 0 0 127 0" result="hardAlpha"/><feOffset dy="4"/><feGaussianBlur stdDeviation="4"/><feComposite in2="hardAlpha" operator="out"/><feColorMatrix values="0 0 0 0 0.282353 0 0 0 0 0.054902 0 0 0 0 0.301961 0 0 0 0.2 0"/><feBlend in2="effect1_dropShadow_275:2828" result="effect2_dropShadow_275:2828"/><feBlend in="SourceGraphic" in2="effect2_dropShadow_275:2828" result="shape"/><feColorMatrix in="SourceAlpha" values="0 0 0 0 0 0 0 0 0 0 0 0 0 0 0 0 0 0 127 0" result="hardAlpha"/><feOffset dx="6" dy="6"/><feGaussianBlur stdDeviation="16"/><feComposite in2="hardAlpha" operator="arithmetic" k2="-1" k3="1"/><feColorMatrix values="0 0 0 0 0.76276 0 0 0 0 0.388636 0 0 0 0 0.122215 0 0 0 1 0"/><feBlend in2="shape" result="effect3_innerShadow_275:2828"/><feColorMatrix in="SourceAlpha" values="0 0 0 0 0 0 0 0 0 0 0 0 0 0 0 0 0 0 127 0" result="hardAlpha"/><feOffset dx="-6" dy="-6"/><feGaussianBlur stdDeviation="16"/><feComposite in2="hardAlpha" operator="arithmetic" k2="-1" k3="1"/><feColorMatrix values="0 0 0 0 0.354427 0 0 0 0 0.180009 0 0 0 0 0.0538352 0 0 0 1 0"/><feBlend in2="effect3_innerShadow_275:2828" result="effect4_innerShadow_275:2828"/></filter><filter id="filter4_ddii_275:2828" x="524" y="291.006" width="248" height="135.994" filterUnits="userSpaceOnUse" color-interpolation-filters="sRGB"><feFlood flood-opacity="0" result="BackgroundImageFix"/><feColorMatrix in="SourceAlpha" values="0 0 0 0 0 0 0 0 0 0 0 0 0 0 0 0 0 0 127 0" result="hardAlpha"/><feOffset dy="16"/><feGaussianBlur stdDeviation="16"/><feColorMatrix values="0 0 0 0 0.282353 0 0 0 0 0.054902 0 0 0 0 0.301961 0 0 0 0.2 0"/><feBlend in2="BackgroundImageFix" result="effect1_dropShadow_275:2828"/><feColorMatrix in="SourceAlpha" values="0 0 0 0 0 0 0 0 0 0 0 0 0 0 0 0 0 0 127 0" result="hardAlpha"/><feOffset dy="4"/><feGaussianBlur stdDeviation="4"/><feComposite in2="hardAlpha" operator="out"/><feColorMatrix values="0 0 0 0 0.282353 0 0 0 0 0.054902 0 0 0 0 0.301961 0 0 0 0.2 0"/><feBlend in2="effect1_dropShadow_275:2828" result="effect2_dropShadow_275:2828"/><feBlend in="SourceGraphic" in2="effect2_dropShadow_275:2828" result="shape"/><feColorMatrix in="SourceAlpha" values="0 0 0 0 0 0 0 0 0 0 0 0 0 0 0 0 0 0 127 0" result="hardAlpha"/><feOffset dx="6" dy="6"/><feGaussianBlur stdDeviation="16"/><feComposite in2="hardAlpha" operator="arithmetic" k2="-1" k3="1"/><feColorMatrix values="0 0 0 0 0.76276 0 0 0 0 0.388636 0 0 0 0 0.122215 0 0 0 1 0"/><feBlend in2="shape" result="effect3_innerShadow_275:2828"/><feColorMatrix in="SourceAlpha" values="0 0 0 0 0 0 0 0 0 0 0 0 0 0 0 0 0 0 127 0" result="hardAlpha"/><feOffset dx="-6" dy="-6"/><feGaussianBlur stdDeviation="16"/><feComposite in2="hardAlpha" operator="arithmetic" k2="-1" k3="1"/><feColorMatrix values="0 0 0 0 0.354427 0 0 0 0 0.180009 0 0 0 0 0.0538352 0 0 0 1 0"/><feBlend in2="effect3_innerShadow_275:2828" result="effect4_innerShadow_275:2828"/></filter><radialGradient id="paint0_radial_275:2828" cx="0" cy="0" r="1" gradientUnits="userSpaceOnUse" gradientTransform="rotate(61.389 -376.505 332.858) scale(100.24)"><stop stop-color="#FFCE21"/><stop offset="1" stop-color="#F2911E"/></radialGradient><radialGradient id="paint1_radial_275:2828" cx="0" cy="0" r="1" gradientUnits="userSpaceOnUse" gradientTransform="rotate(61.389 -25.69 33.476) scale(100.24)"><stop stop-color="#FFCE21"/><stop offset="1" stop-color="#F2911E"/></radialGradient><radialGradient id="paint2_radial_275:2828" cx="0" cy="0" r="1" gradientUnits="userSpaceOnUse" gradientTransform="rotate(78.559 21.72 365.859) scale(685.624)"><stop stop-color="#FFEA9F"/><stop offset=".123" stop-color="#FFE380"/><stop offset=".416" stop-color="#FFD250"/><stop offset=".644" stop-color="#FFC122"/><stop offset="1" stop-color="#FFB422"/></radialGradient><radialGradient id="paint3_radial_275:2828" cx="0" cy="0" r="1" gradientUnits="userSpaceOnUse" gradientTransform="rotate(78.559 21.72 365.859) scale(685.624)"><stop offset=".557" stop-color="#E35D12" stop-opacity="0"/><stop offset="1" stop-color="#FF24F6" stop-opacity=".3"/></radialGradient><linearGradient id="paint4_linear_275:2828" x1="836.947" y1="446.411" x2="766.548" y2="709.143" gradientUnits="userSpaceOnUse"><stop stop-color="#FF49C1"/><stop offset="1" stop-color="#E71084"/></linearGradient></defs></svg>