<svg width="1024" height="1024" fill="none" xmlns="http://www.w3.org/2000/svg"><circle cx="144" cy="528" r="64" fill="url(#paint0_radial_280:2758)"/><circle r="64" transform="matrix(-1 0 0 1 880 528)" fill="url(#paint1_radial_280:2758)"/><circle cx="512" cy="560" r="384" fill="url(#paint2_radial_280:2758)"/><circle cx="512" cy="560" r="384" fill="url(#paint3_radial_280:2758)"/><g filter="url(#filter0_f_280:2758)"><path d="M487.987 880.001c198.822 0 360-161.177 360-360 0-37.495-5.733-73.652-16.369-107.642 20.774 44.9 32.366 94.916 32.366 147.64 0 194.405-157.596 352-352 352-114.667 0-216.528-54.829-280.796-139.7 65.316 66.474 156.243 107.702 256.799 107.702z" fill="#C1092A" fill-opacity=".8"/></g><g filter="url(#filter1_di_280:2758)"><path d="M512 752c127.335 0 233.256-90.411 255.357-209.689C772.042 517.024 750.462 496 724.395 496h-424.79c-26.067 0-47.647 21.024-42.962 46.311C278.744 661.589 384.665 752 512 752z" fill="url(#paint4_linear_280:2758)"/></g><path d="M685.782 686.178C639.77 727.093 578.835 752 512.001 752c-66.837 0-127.774-24.909-173.786-65.826C351.632 632.79 424.329 592 511.998 592c87.67 0 160.369 40.792 173.784 94.178z" fill="url(#paint5_linear_280:2758)"/><g filter="url(#filter2_ddi_280:2758)"><path d="M480 228c0 77.32-62.68 140-140 140s-140-62.68-140-140S262.68 88 340 88s140 62.68 140 140z" fill="url(#paint6_linear_280:2758)"/></g><g filter="url(#filter3_ddi_280:2758)"><path d="M456 228c0 64.065-51.935 116-116 116s-116-51.935-116-116 51.935-116 116-116 116 51.935 116 116z" fill="url(#paint7_linear_280:2758)"/></g><path d="M340 124c6.627 0 12 5.373 12 12v14.586c6.84.725 12.95 2.145 18.582 4.397 8.827 3.531 15.649 8.777 21.903 15.032 4.687 4.686 4.687 12.284 0 16.97-4.686 4.687-12.284 4.687-16.97 0-4.745-4.745-8.924-7.749-13.847-9.718C356.65 175.259 350.031 174 340 174c-9.813 0-18.282 1.89-23.89 5.395-4.877 3.048-8.11 7.525-8.11 15.605s3.233 12.557 8.11 15.605C321.718 214.11 330.187 216 340 216c12.187 0 25.718 2.235 36.61 9.043C388.233 232.307 396 244.33 396 261s-7.767 28.693-19.39 35.957c-7.402 4.626-16.021 7.141-24.61 8.277V320c0 6.627-5.373 12-12 12s-12-5.373-12-12v-14.759c-18.853-2.451-32.755-10.528-40.969-19.769-4.403-4.953-3.957-12.538.997-16.941 4.953-4.403 12.538-3.957 16.941.997C309.766 274.924 321.017 282 340 282c9.813 0 18.283-1.89 23.89-5.395 4.877-3.048 8.11-7.525 8.11-15.605s-3.233-12.557-8.11-15.605C358.283 241.89 349.813 240 340 240c-12.187 0-25.717-2.235-36.61-9.043C291.767 223.693 284 211.67 284 195s7.767-28.693 19.39-35.957c7.402-4.626 16.021-7.141 24.61-8.277V136c0-6.627 5.373-12 12-12z" fill="#FFD542"/><g filter="url(#filter4_ddi_280:2758)"><path d="M824 228c0 77.32-62.68 140-140 140s-140-62.68-140-140S606.68 88 684 88s140 62.68 140 140z" fill="url(#paint8_linear_280:2758)"/></g><g filter="url(#filter5_ddi_280:2758)"><path d="M800 228c0 64.065-51.935 116-116 116s-116-51.935-116-116 51.935-116 116-116 116 51.935 116 116z" fill="url(#paint9_linear_280:2758)"/></g><path d="M684 124c6.627 0 12 5.373 12 12v14.586c6.84.725 12.95 2.145 18.582 4.397 8.827 3.531 15.649 8.777 21.903 15.032 4.687 4.686 4.687 12.284 0 16.97-4.686 4.687-12.284 4.687-16.97 0-4.745-4.745-8.924-7.749-13.847-9.718C700.65 175.259 694.031 174 684 174c-9.813 0-18.282 1.89-23.89 5.395-4.877 3.048-8.11 7.525-8.11 15.605s3.233 12.557 8.11 15.605C665.718 214.11 674.187 216 684 216c12.187 0 25.718 2.235 36.61 9.043C732.233 232.307 740 244.33 740 261s-7.767 28.693-19.39 35.957c-7.402 4.626-16.021 7.141-24.61 8.277V320c0 6.627-5.373 12-12 12s-12-5.373-12-12v-14.759c-18.853-2.451-32.755-10.528-40.969-19.769-4.403-4.953-3.957-12.538.997-16.941 4.953-4.403 12.538-3.957 16.941.997C653.766 274.924 665.017 282 684 282c9.813 0 18.283-1.89 23.89-5.395 4.877-3.048 8.11-7.525 8.11-15.605s-3.233-12.557-8.11-15.605C702.283 241.89 693.813 240 684 240c-12.187 0-25.717-2.235-36.61-9.043C635.767 223.693 628 211.67 628 195s7.767-28.693 19.39-35.957c7.402-4.626 16.021-7.141 24.61-8.277V136c0-6.627 5.373-12 12-12z" fill="#FFD542"/><defs><linearGradient id="paint4_linear_280:2758" x1="512" y1="496" x2="512" y2="752" gradientUnits="userSpaceOnUse"><stop stop-color="#5E3010"/><stop offset=".42" stop-color="#894818"/></linearGradient><linearGradient id="paint5_linear_280:2758" x1="511.998" y1="592" x2="511.998" y2="752" gradientUnits="userSpaceOnUse"><stop stop-color="#F04343"/><stop offset="1" stop-color="#C72121"/></linearGradient><linearGradient id="paint6_linear_280:2758" x1="246.667" y1="111.333" x2="433.333" y2="368" gradientUnits="userSpaceOnUse"><stop stop-color="#4E280E"/><stop offset="1" stop-color="#281304"/></linearGradient><linearGradient id="paint7_linear_280:2758" x1="262.667" y1="131.333" x2="417.333" y2="344" gradientUnits="userSpaceOnUse"><stop stop-color="#281304"/><stop offset="1" stop-color="#4E280E"/></linearGradient><linearGradient id="paint8_linear_280:2758" x1="590.667" y1="111.333" x2="777.333" y2="368" gradientUnits="userSpaceOnUse"><stop stop-color="#4E280E"/><stop offset="1" stop-color="#281304"/></linearGradient><linearGradient id="paint9_linear_280:2758" x1="606.667" y1="131.333" x2="761.333" y2="344" gradientUnits="userSpaceOnUse"><stop stop-color="#281304"/><stop offset="1" stop-color="#4E280E"/></linearGradient><filter id="filter0_f_280:2758" x="135.188" y="316.359" width="824.797" height="691.64" filterUnits="userSpaceOnUse" color-interpolation-filters="sRGB"><feFlood flood-opacity="0" result="BackgroundImageFix"/><feBlend in="SourceGraphic" in2="BackgroundImageFix" result="shape"/><feGaussianBlur stdDeviation="48" result="effect1_foregroundBlur_280:2758"/></filter><filter id="filter1_di_280:2758" x="246.4" y="486.4" width="544" height="288" filterUnits="userSpaceOnUse" color-interpolation-filters="sRGB"><feFlood flood-opacity="0" result="BackgroundImageFix"/><feColorMatrix in="SourceAlpha" values="0 0 0 0 0 0 0 0 0 0 0 0 0 0 0 0 0 0 127 0" result="hardAlpha"/><feOffset dx="6.4" dy="6.4"/><feGaussianBlur stdDeviation="8"/><feColorMatrix values="0 0 0 0 1 0 0 0 0 0.87451 0 0 0 0 0.423529 0 0 0 1 0"/><feBlend in2="BackgroundImageFix" result="effect1_dropShadow_280:2758"/><feBlend in="SourceGraphic" in2="effect1_dropShadow_280:2758" result="shape"/><feColorMatrix in="SourceAlpha" values="0 0 0 0 0 0 0 0 0 0 0 0 0 0 0 0 0 0 127 0" result="hardAlpha"/><feOffset dx="16" dy="16"/><feGaussianBlur stdDeviation="16"/><feComposite in2="hardAlpha" operator="arithmetic" k2="-1" k3="1"/><feColorMatrix values="0 0 0 0 0 0 0 0 0 0 0 0 0 0 0 0 0 0 0.25 0"/><feBlend in2="shape" result="effect2_innerShadow_280:2758"/></filter><filter id="filter2_ddi_280:2758" x="192" y="84" width="296" height="296" filterUnits="userSpaceOnUse" color-interpolation-filters="sRGB"><feFlood flood-opacity="0" result="BackgroundImageFix"/><feColorMatrix in="SourceAlpha" values="0 0 0 0 0 0 0 0 0 0 0 0 0 0 0 0 0 0 127 0" result="hardAlpha"/><feOffset dy="4"/><feGaussianBlur stdDeviation="4"/><feComposite in2="hardAlpha" operator="out"/><feColorMatrix values="0 0 0 0 0.356863 0 0 0 0 0.0313726 0 0 0 0 0.384314 0 0 0 0.4 0"/><feBlend in2="BackgroundImageFix" result="effect1_dropShadow_280:2758"/><feColorMatrix in="SourceAlpha" values="0 0 0 0 0 0 0 0 0 0 0 0 0 0 0 0 0 0 127 0" result="hardAlpha"/><feOffset dy="2"/><feGaussianBlur stdDeviation="2"/><feComposite in2="hardAlpha" operator="out"/><feColorMatrix values="0 0 0 0 0.356863 0 0 0 0 0.0313726 0 0 0 0 0.384314 0 0 0 0.2 0"/><feBlend in2="effect1_dropShadow_280:2758" result="effect2_dropShadow_280:2758"/><feBlend in="SourceGraphic" in2="effect2_dropShadow_280:2758" result="shape"/><feColorMatrix in="SourceAlpha" values="0 0 0 0 0 0 0 0 0 0 0 0 0 0 0 0 0 0 127 0" result="hardAlpha"/><feOffset dx="4" dy="4"/><feGaussianBlur stdDeviation="6"/><feComposite in2="hardAlpha" operator="arithmetic" k2="-1" k3="1"/><feColorMatrix values="0 0 0 0 0.704427 0 0 0 0 0.418173 0 0 0 0 0.227338 0 0 0 0.4 0"/><feBlend in2="shape" result="effect3_innerShadow_280:2758"/></filter><filter id="filter3_ddi_280:2758" x="216" y="108" width="248" height="248" filterUnits="userSpaceOnUse" color-interpolation-filters="sRGB"><feFlood flood-opacity="0" result="BackgroundImageFix"/><feColorMatrix in="SourceAlpha" values="0 0 0 0 0 0 0 0 0 0 0 0 0 0 0 0 0 0 127 0" result="hardAlpha"/><feOffset dy="4"/><feGaussianBlur stdDeviation="4"/><feComposite in2="hardAlpha" operator="out"/><feColorMatrix values="0 0 0 0 0.144314 0 0 0 0 0.0313725 0 0 0 0 0.384314 0 0 0 0.4 0"/><feBlend in2="BackgroundImageFix" result="effect1_dropShadow_280:2758"/><feColorMatrix in="SourceAlpha" values="0 0 0 0 0 0 0 0 0 0 0 0 0 0 0 0 0 0 127 0" result="hardAlpha"/><feOffset dy="2"/><feGaussianBlur stdDeviation="2"/><feComposite in2="hardAlpha" operator="out"/><feColorMatrix values="0 0 0 0 0.145098 0 0 0 0 0.0313726 0 0 0 0 0.384314 0 0 0 0.2 0"/><feBlend in2="effect1_dropShadow_280:2758" result="effect2_dropShadow_280:2758"/><feBlend in="SourceGraphic" in2="effect2_dropShadow_280:2758" result="shape"/><feColorMatrix in="SourceAlpha" values="0 0 0 0 0 0 0 0 0 0 0 0 0 0 0 0 0 0 127 0" result="hardAlpha"/><feOffset dx="4" dy="4"/><feGaussianBlur stdDeviation="6"/><feComposite in2="hardAlpha" operator="arithmetic" k2="-1" k3="1"/><feColorMatrix values="0 0 0 0 0.704427 0 0 0 0 0.418173 0 0 0 0 0.227338 0 0 0 0.4 0"/><feBlend in2="shape" result="effect3_innerShadow_280:2758"/></filter><filter id="filter4_ddi_280:2758" x="536" y="84" width="296" height="296" filterUnits="userSpaceOnUse" color-interpolation-filters="sRGB"><feFlood flood-opacity="0" result="BackgroundImageFix"/><feColorMatrix in="SourceAlpha" values="0 0 0 0 0 0 0 0 0 0 0 0 0 0 0 0 0 0 127 0" result="hardAlpha"/><feOffset dy="4"/><feGaussianBlur stdDeviation="4"/><feComposite in2="hardAlpha" operator="out"/><feColorMatrix values="0 0 0 0 0.356863 0 0 0 0 0.0313726 0 0 0 0 0.384314 0 0 0 0.4 0"/><feBlend in2="BackgroundImageFix" result="effect1_dropShadow_280:2758"/><feColorMatrix in="SourceAlpha" values="0 0 0 0 0 0 0 0 0 0 0 0 0 0 0 0 0 0 127 0" result="hardAlpha"/><feOffset dy="2"/><feGaussianBlur stdDeviation="2"/><feComposite in2="hardAlpha" operator="out"/><feColorMatrix values="0 0 0 0 0.356863 0 0 0 0 0.0313726 0 0 0 0 0.384314 0 0 0 0.2 0"/><feBlend in2="effect1_dropShadow_280:2758" result="effect2_dropShadow_280:2758"/><feBlend in="SourceGraphic" in2="effect2_dropShadow_280:2758" result="shape"/><feColorMatrix in="SourceAlpha" values="0 0 0 0 0 0 0 0 0 0 0 0 0 0 0 0 0 0 127 0" result="hardAlpha"/><feOffset dx="4" dy="4"/><feGaussianBlur stdDeviation="6"/><feComposite in2="hardAlpha" operator="arithmetic" k2="-1" k3="1"/><feColorMatrix values="0 0 0 0 0.704427 0 0 0 0 0.418173 0 0 0 0 0.227338 0 0 0 0.4 0"/><feBlend in2="shape" result="effect3_innerShadow_280:2758"/></filter><filter id="filter5_ddi_280:2758" x="560" y="108" width="248" height="248" filterUnits="userSpaceOnUse" color-interpolation-filters="sRGB"><feFlood flood-opacity="0" result="BackgroundImageFix"/><feColorMatrix in="SourceAlpha" values="0 0 0 0 0 0 0 0 0 0 0 0 0 0 0 0 0 0 127 0" result="hardAlpha"/><feOffset dy="4"/><feGaussianBlur stdDeviation="4"/><feComposite in2="hardAlpha" operator="out"/><feColorMatrix values="0 0 0 0 0.144314 0 0 0 0 0.0313725 0 0 0 0 0.384314 0 0 0 0.4 0"/><feBlend in2="BackgroundImageFix" result="effect1_dropShadow_280:2758"/><feColorMatrix in="SourceAlpha" values="0 0 0 0 0 0 0 0 0 0 0 0 0 0 0 0 0 0 127 0" result="hardAlpha"/><feOffset dy="2"/><feGaussianBlur stdDeviation="2"/><feComposite in2="hardAlpha" operator="out"/><feColorMatrix values="0 0 0 0 0.145098 0 0 0 0 0.0313726 0 0 0 0 0.384314 0 0 0 0.2 0"/><feBlend in2="effect1_dropShadow_280:2758" result="effect2_dropShadow_280:2758"/><feBlend in="SourceGraphic" in2="effect2_dropShadow_280:2758" result="shape"/><feColorMatrix in="SourceAlpha" values="0 0 0 0 0 0 0 0 0 0 0 0 0 0 0 0 0 0 127 0" result="hardAlpha"/><feOffset dx="4" dy="4"/><feGaussianBlur stdDeviation="6"/><feComposite in2="hardAlpha" operator="arithmetic" k2="-1" k3="1"/><feColorMatrix values="0 0 0 0 0.704427 0 0 0 0 0.418173 0 0 0 0 0.227338 0 0 0 0.4 0"/><feBlend in2="shape" result="effect3_innerShadow_280:2758"/></filter><radialGradient id="paint0_radial_280:2758" cx="0" cy="0" r="1" gradientUnits="userSpaceOnUse" gradientTransform="rotate(61.389 -376.505 332.858) scale(100.24)"><stop stop-color="#FFCE21"/><stop offset="1" stop-color="#E9A326"/></radialGradient><radialGradient id="paint1_radial_280:2758" cx="0" cy="0" r="1" gradientUnits="userSpaceOnUse" gradientTransform="rotate(61.389 -25.69 33.476) scale(100.24)"><stop stop-color="#FFCE21"/><stop offset="1" stop-color="#E9A326"/></radialGradient><radialGradient id="paint2_radial_280:2758" cx="0" cy="0" r="1" gradientUnits="userSpaceOnUse" gradientTransform="rotate(78.559 21.72 365.859) scale(685.624)"><stop stop-color="#FFF7D9"/><stop offset=".123" stop-color="#FFE690"/><stop offset=".519" stop-color="#FFCE22"/><stop offset="1" stop-color="#FFB422"/></radialGradient><radialGradient id="paint3_radial_280:2758" cx="0" cy="0" r="1" gradientUnits="userSpaceOnUse" gradientTransform="rotate(78.559 21.72 365.859) scale(685.624)"><stop offset=".857" stop-color="#EDFF22" stop-opacity="0"/><stop offset="1" stop-color="#FF24F6" stop-opacity=".3"/></radialGradient></defs></svg>