<svg width="1024" height="1024" fill="none" xmlns="http://www.w3.org/2000/svg"><circle cx="144" cy="503" r="64" fill="url(#paint0_radial_275:2645)"/><circle r="64" transform="matrix(-1 0 0 1 880 503)" fill="url(#paint1_radial_275:2645)"/><circle cx="512" cy="535" r="384" fill="url(#paint2_radial_275:2645)"/><circle cx="512" cy="535" r="384" fill="url(#paint3_radial_275:2645)"/><g filter="url(#filter0_f_275:2645)"><path d="M488.002 855.001c198.823 0 360.001-161.177 360.001-360 0-37.495-5.733-73.652-16.369-107.642 20.774 44.9 32.366 94.916 32.366 147.64 0 194.405-157.596 352-352 352-114.668 0-216.529-54.829-280.797-139.7 65.316 66.474 156.243 107.702 256.799 107.702z" fill="#C1092A" fill-opacity=".6"/></g><g filter="url(#filter1_ddii_275:2645)"><path fill-rule="evenodd" clip-rule="evenodd" d="M363.225 437.923c18.912-8.482 34.149-24.691 41.955-36.92 7.131-11.172 21.97-14.448 33.143-7.317 11.172 7.132 14.448 21.971 7.316 33.144-11.444 17.929-33.218 41.636-62.771 54.89-31.013 13.909-69.705 15.704-109.689-10.449-11.093-7.255-14.203-22.129-6.948-33.222 7.256-11.093 22.13-14.203 33.222-6.948 25.09 16.411 46.319 14.65 63.772 6.822z" fill="#894819"/></g><g filter="url(#filter2_ddii_275:2645)"><path fill-rule="evenodd" clip-rule="evenodd" d="M671.832 440.884c20.619 2.11 41.919-4.309 54.794-10.997 11.762-6.11 26.251-1.527 32.361 10.235 6.11 11.763 1.527 26.252-10.235 32.361-18.876 9.805-49.586 19.449-81.808 16.151-33.812-3.461-68.218-21.252-89.768-63.893-5.979-11.83-1.236-26.267 10.594-32.245 11.83-5.979 26.266-1.236 32.245 10.594 13.523 26.757 32.789 35.846 51.817 37.794z" fill="#894819"/></g><g filter="url(#filter3_dd_275:2645)"><path d="M664 823V604c-128-94.4-257.333-39.333-306 0v219c0 70.693 57.308 128 128 128h50c70.692 0 128-57.307 128-128z" fill="url(#paint4_linear_275:2645)"/></g><g filter="url(#filter4_ddii_275:2645)"><path fill-rule="evenodd" clip-rule="evenodd" d="M706.622 637.293c-8.998 9.732-24.182 10.327-33.915 1.329C637.722 606.276 584.258 581 511 581s-126.722 25.276-161.707 57.622c-9.733 8.998-24.917 8.403-33.915-1.329-8.999-9.733-8.403-24.917 1.329-33.915C360.833 562.581 426.036 533 511 533c84.964 0 150.167 29.581 194.293 70.378 9.732 8.998 10.327 24.182 1.329 33.915z" fill="#894819"/></g><path fill-rule="evenodd" clip-rule="evenodd" d="M512 598c6.627 0 12 5.373 12 12v306c0 6.627-5.373 12-12 12s-12-5.373-12-12V610c0-6.627 5.373-12 12-12zm-56 8c6.627 0 12 5.373 12 12v282c0 6.627-5.373 12-12 12s-12-5.373-12-12V618c0-6.627 5.373-12 12-12zm112 0c6.627 0 12 5.373 12 12v282c0 6.627-5.373 12-12 12s-12-5.373-12-12V618c0-6.627 5.373-12 12-12zm-168 16c6.627 0 12 5.373 12 12v234c0 6.627-5.373 12-12 12s-12-5.373-12-12V634c0-6.627 5.373-12 12-12zm224 0c6.627 0 12 5.373 12 12v234c0 6.627-5.373 12-12 12s-12-5.373-12-12V634c0-6.627 5.373-12 12-12z" fill="url(#paint5_linear_275:2645)"/><path d="M452 671.5c0 9.113-7.387 16.5-16.5 16.5s-16.5-7.387-16.5-16.5 7.387-16.5 16.5-16.5 16.5 7.387 16.5 16.5zm71-39c0 9.113-7.387 16.5-16.5 16.5s-16.5-7.387-16.5-16.5 7.387-16.5 16.5-16.5 16.5 7.387 16.5 16.5zm104 38c0 9.113-7.387 16.5-16.5 16.5s-16.5-7.387-16.5-16.5 7.387-16.5 16.5-16.5 16.5 7.387 16.5 16.5zm-76 97c0 9.113-7.387 16.5-16.5 16.5s-16.5-7.387-16.5-16.5 7.387-16.5 16.5-16.5 16.5 7.387 16.5 16.5zm66 61c0 9.113-7.387 16.5-16.5 16.5s-16.5-7.387-16.5-16.5 7.387-16.5 16.5-16.5 16.5 7.387 16.5 16.5zm-165 42c0 9.113-7.387 16.5-16.5 16.5s-16.5-7.387-16.5-16.5 7.387-16.5 16.5-16.5 16.5 7.387 16.5 16.5zm-26-113c0 9.113-7.387 16.5-16.5 16.5s-16.5-7.387-16.5-16.5 7.387-16.5 16.5-16.5 16.5 7.387 16.5 16.5zm201-16c0 9.113-7.387 16.5-16.5 16.5s-16.5-7.387-16.5-16.5 7.387-16.5 16.5-16.5 16.5 7.387 16.5 16.5zM545 693c0 12.15-9.85 22-22 22s-22-9.85-22-22 9.85-22 22-22 22 9.85 22 22zm-58 103c0 12.15-9.85 22-22 22s-22-9.85-22-22 9.85-22 22-22 22 9.85 22 22zm80 71c0 18.225-14.775 33-33 33s-33-14.775-33-33 14.775-33 33-33 33 14.775 33 33z" fill="#07B677"/><path d="M464 752.5c0 5.799-4.701 10.5-10.5 10.5s-10.5-4.701-10.5-10.5 4.701-10.5 10.5-10.5 10.5 4.701 10.5 10.5zm-50-65c0 5.799-4.701 10.5-10.5 10.5s-10.5-4.701-10.5-10.5 4.701-10.5 10.5-10.5 10.5 4.701 10.5 10.5zm76-21c0 5.799-4.701 10.5-10.5 10.5s-10.5-4.701-10.5-10.5 4.701-10.5 10.5-10.5 10.5 4.701 10.5 10.5zm94-44c0 5.799-4.701 10.5-10.5 10.5s-10.5-4.701-10.5-10.5 4.701-10.5 10.5-10.5 10.5 4.701 10.5 10.5zm62 86c0 5.799-4.701 10.5-10.5 10.5s-10.5-4.701-10.5-10.5 4.701-10.5 10.5-10.5 10.5 4.701 10.5 10.5zm-74 34c0 5.799-4.701 10.5-10.5 10.5s-10.5-4.701-10.5-10.5 4.701-10.5 10.5-10.5 10.5 4.701 10.5 10.5zm60 59c0 5.799-4.701 10.5-10.5 10.5s-10.5-4.701-10.5-10.5 4.701-10.5 10.5-10.5 10.5 4.701 10.5 10.5zm-31 69c0 5.799-4.701 10.5-10.5 10.5s-10.5-4.701-10.5-10.5 4.701-10.5 10.5-10.5 10.5 4.701 10.5 10.5zm-56-58c0 5.799-4.701 10.5-10.5 10.5s-10.5-4.701-10.5-10.5 4.701-10.5 10.5-10.5 10.5 4.701 10.5 10.5zm-59 51c0 5.799-4.701 10.5-10.5 10.5s-10.5-4.701-10.5-10.5 4.701-10.5 10.5-10.5 10.5 4.701 10.5 10.5zm-66-41c0 5.799-4.701 10.5-10.5 10.5s-10.5-4.701-10.5-10.5 4.701-10.5 10.5-10.5 10.5 4.701 10.5 10.5z" fill="#A5FFA8"/><path d="M342 876.5c0 17.949-14.551 32.5-32.5 32.5-17.949 0-32.5-14.551-32.5-32.5 0-17.949 14.551-32.5 32.5-32.5 17.949 0 32.5 14.551 32.5 32.5z" fill="url(#paint6_linear_275:2645)"/><path d="M754 790.5c0 17.949-14.551 32.5-32.5 32.5-17.949 0-32.5-14.551-32.5-32.5 0-17.949 14.551-32.5 32.5-32.5 17.949 0 32.5 14.551 32.5 32.5z" fill="url(#paint7_linear_275:2645)"/><path d="M737 877c0 13.255-10.745 24-24 24s-24-10.745-24-24 10.745-24 24-24 24 10.745 24 24z" fill="url(#paint8_linear_275:2645)"/><path d="M836 847c0 13.255-10.745 24-24 24s-24-10.745-24-24 10.745-24 24-24 24 10.745 24 24z" fill="url(#paint9_linear_275:2645)"/><path d="M334 772c0 13.255-10.745 24-24 24s-24-10.745-24-24 10.745-24 24-24 24 10.745 24 24z" fill="url(#paint10_linear_275:2645)"/><path d="M257 808c0 13.255-10.745 24-24 24s-24-10.745-24-24 10.745-24 24-24 24 10.745 24 24z" fill="url(#paint11_linear_275:2645)"/><defs><linearGradient id="paint4_linear_275:2645" x1="356.58" y1="695.658" x2="554.125" y2="929.087" gradientUnits="userSpaceOnUse"><stop stop-color="#3EFF51"/><stop offset="1" stop-color="#0CD976"/></linearGradient><linearGradient id="paint5_linear_275:2645" x1="386.849" y1="716.88" x2="550.69" y2="906.653" gradientUnits="userSpaceOnUse"><stop stop-color="#0CD976"/><stop offset="1" stop-color="#3EFF51"/></linearGradient><linearGradient id="paint6_linear_275:2645" x1="276.698" y1="867.416" x2="306.488" y2="913.329" gradientUnits="userSpaceOnUse"><stop stop-color="#3EFF51"/><stop offset="1" stop-color="#0CD976"/></linearGradient><linearGradient id="paint7_linear_275:2645" x1="688.698" y1="781.416" x2="718.488" y2="827.329" gradientUnits="userSpaceOnUse"><stop stop-color="#3EFF51"/><stop offset="1" stop-color="#0CD976"/></linearGradient><linearGradient id="paint8_linear_275:2645" x1="688.777" y1="870.292" x2="710.776" y2="904.197" gradientUnits="userSpaceOnUse"><stop stop-color="#3EFF51"/><stop offset="1" stop-color="#0CD976"/></linearGradient><linearGradient id="paint9_linear_275:2645" x1="787.777" y1="840.292" x2="809.776" y2="874.197" gradientUnits="userSpaceOnUse"><stop stop-color="#3EFF51"/><stop offset="1" stop-color="#0CD976"/></linearGradient><linearGradient id="paint10_linear_275:2645" x1="285.777" y1="765.292" x2="307.776" y2="799.197" gradientUnits="userSpaceOnUse"><stop stop-color="#3EFF51"/><stop offset="1" stop-color="#0CD976"/></linearGradient><linearGradient id="paint11_linear_275:2645" x1="208.777" y1="801.292" x2="230.776" y2="835.197" gradientUnits="userSpaceOnUse"><stop stop-color="#3EFF51"/><stop offset="1" stop-color="#0CD976"/></linearGradient><filter id="filter0_f_275:2645" x="159.203" y="315.359" width="776.797" height="643.64" filterUnits="userSpaceOnUse" color-interpolation-filters="sRGB"><feFlood flood-opacity="0" result="BackgroundImageFix"/><feBlend in="SourceGraphic" in2="BackgroundImageFix" result="shape"/><feGaussianBlur stdDeviation="36" result="effect1_foregroundBlur_275:2645"/></filter><filter id="filter1_ddii_275:2645" x="246.312" y="381.913" width="219.1" height="133.783" filterUnits="userSpaceOnUse" color-interpolation-filters="sRGB"><feFlood flood-opacity="0" result="BackgroundImageFix"/><feColorMatrix in="SourceAlpha" values="0 0 0 0 0 0 0 0 0 0 0 0 0 0 0 0 0 0 127 0" result="hardAlpha"/><feOffset dy="8"/><feGaussianBlur stdDeviation="8"/><feColorMatrix values="0 0 0 0 0.282353 0 0 0 0 0.054902 0 0 0 0 0.301961 0 0 0 0.2 0"/><feBlend in2="BackgroundImageFix" result="effect1_dropShadow_275:2645"/><feColorMatrix in="SourceAlpha" values="0 0 0 0 0 0 0 0 0 0 0 0 0 0 0 0 0 0 127 0" result="hardAlpha"/><feOffset dy="2"/><feGaussianBlur stdDeviation="2"/><feComposite in2="hardAlpha" operator="out"/><feColorMatrix values="0 0 0 0 0.282353 0 0 0 0 0.054902 0 0 0 0 0.301961 0 0 0 0.2 0"/><feBlend in2="effect1_dropShadow_275:2645" result="effect2_dropShadow_275:2645"/><feBlend in="SourceGraphic" in2="effect2_dropShadow_275:2645" result="shape"/><feColorMatrix in="SourceAlpha" values="0 0 0 0 0 0 0 0 0 0 0 0 0 0 0 0 0 0 127 0" result="hardAlpha"/><feOffset dx="6" dy="6"/><feGaussianBlur stdDeviation="16"/><feComposite in2="hardAlpha" operator="arithmetic" k2="-1" k3="1"/><feColorMatrix values="0 0 0 0 0.76276 0 0 0 0 0.388636 0 0 0 0 0.122215 0 0 0 1 0"/><feBlend in2="shape" result="effect3_innerShadow_275:2645"/><feColorMatrix in="SourceAlpha" values="0 0 0 0 0 0 0 0 0 0 0 0 0 0 0 0 0 0 127 0" result="hardAlpha"/><feOffset dx="-6" dy="-6"/><feGaussianBlur stdDeviation="16"/><feComposite in2="hardAlpha" operator="arithmetic" k2="-1" k3="1"/><feColorMatrix values="0 0 0 0 0.354427 0 0 0 0 0.180009 0 0 0 0 0.0538352 0 0 0 1 0"/><feBlend in2="effect3_innerShadow_275:2645" result="effect4_innerShadow_275:2645"/></filter><filter id="filter2_ddii_275:2645" x="558.59" y="381.91" width="219.104" height="131.384" filterUnits="userSpaceOnUse" color-interpolation-filters="sRGB"><feFlood flood-opacity="0" result="BackgroundImageFix"/><feColorMatrix in="SourceAlpha" values="0 0 0 0 0 0 0 0 0 0 0 0 0 0 0 0 0 0 127 0" result="hardAlpha"/><feOffset dy="8"/><feGaussianBlur stdDeviation="8"/><feColorMatrix values="0 0 0 0 0.282353 0 0 0 0 0.054902 0 0 0 0 0.301961 0 0 0 0.2 0"/><feBlend in2="BackgroundImageFix" result="effect1_dropShadow_275:2645"/><feColorMatrix in="SourceAlpha" values="0 0 0 0 0 0 0 0 0 0 0 0 0 0 0 0 0 0 127 0" result="hardAlpha"/><feOffset dy="2"/><feGaussianBlur stdDeviation="2"/><feComposite in2="hardAlpha" operator="out"/><feColorMatrix values="0 0 0 0 0.282353 0 0 0 0 0.054902 0 0 0 0 0.301961 0 0 0 0.2 0"/><feBlend in2="effect1_dropShadow_275:2645" result="effect2_dropShadow_275:2645"/><feBlend in="SourceGraphic" in2="effect2_dropShadow_275:2645" result="shape"/><feColorMatrix in="SourceAlpha" values="0 0 0 0 0 0 0 0 0 0 0 0 0 0 0 0 0 0 127 0" result="hardAlpha"/><feOffset dx="6" dy="6"/><feGaussianBlur stdDeviation="16"/><feComposite in2="hardAlpha" operator="arithmetic" k2="-1" k3="1"/><feColorMatrix values="0 0 0 0 0.76276 0 0 0 0 0.388636 0 0 0 0 0.122215 0 0 0 1 0"/><feBlend in2="shape" result="effect3_innerShadow_275:2645"/><feColorMatrix in="SourceAlpha" values="0 0 0 0 0 0 0 0 0 0 0 0 0 0 0 0 0 0 127 0" result="hardAlpha"/><feOffset dx="-6" dy="-6"/><feGaussianBlur stdDeviation="16"/><feComposite in2="hardAlpha" operator="arithmetic" k2="-1" k3="1"/><feColorMatrix values="0 0 0 0 0.354427 0 0 0 0 0.180009 0 0 0 0 0.0538352 0 0 0 1 0"/><feBlend in2="effect3_innerShadow_275:2645" result="effect4_innerShadow_275:2645"/></filter><filter id="filter3_dd_275:2645" x="342" y="543.877" width="338" height="431.123" filterUnits="userSpaceOnUse" color-interpolation-filters="sRGB"><feFlood flood-opacity="0" result="BackgroundImageFix"/><feColorMatrix in="SourceAlpha" values="0 0 0 0 0 0 0 0 0 0 0 0 0 0 0 0 0 0 127 0" result="hardAlpha"/><feOffset dy="2"/><feGaussianBlur stdDeviation="2"/><feComposite in2="hardAlpha" operator="out"/><feColorMatrix values="0 0 0 0 0.282353 0 0 0 0 0.054902 0 0 0 0 0.301961 0 0 0 0.2 0"/><feBlend in2="BackgroundImageFix" result="effect1_dropShadow_275:2645"/><feColorMatrix in="SourceAlpha" values="0 0 0 0 0 0 0 0 0 0 0 0 0 0 0 0 0 0 127 0" result="hardAlpha"/><feOffset dy="8"/><feGaussianBlur stdDeviation="8"/><feComposite in2="hardAlpha" operator="out"/><feColorMatrix values="0 0 0 0 0.282353 0 0 0 0 0.054902 0 0 0 0 0.301961 0 0 0 0.2 0"/><feBlend in2="effect1_dropShadow_275:2645" result="effect2_dropShadow_275:2645"/><feBlend in="SourceGraphic" in2="effect2_dropShadow_275:2645" result="shape"/></filter><filter id="filter4_ddii_275:2645" x="277" y="517" width="468" height="176" filterUnits="userSpaceOnUse" color-interpolation-filters="sRGB"><feFlood flood-opacity="0" result="BackgroundImageFix"/><feColorMatrix in="SourceAlpha" values="0 0 0 0 0 0 0 0 0 0 0 0 0 0 0 0 0 0 127 0" result="hardAlpha"/><feOffset dy="16"/><feGaussianBlur stdDeviation="16"/><feColorMatrix values="0 0 0 0 0.282353 0 0 0 0 0.054902 0 0 0 0 0.301961 0 0 0 0.2 0"/><feBlend in2="BackgroundImageFix" result="effect1_dropShadow_275:2645"/><feColorMatrix in="SourceAlpha" values="0 0 0 0 0 0 0 0 0 0 0 0 0 0 0 0 0 0 127 0" result="hardAlpha"/><feOffset dy="4"/><feGaussianBlur stdDeviation="4"/><feComposite in2="hardAlpha" operator="out"/><feColorMatrix values="0 0 0 0 0.282353 0 0 0 0 0.054902 0 0 0 0 0.301961 0 0 0 0.2 0"/><feBlend in2="effect1_dropShadow_275:2645" result="effect2_dropShadow_275:2645"/><feBlend in="SourceGraphic" in2="effect2_dropShadow_275:2645" result="shape"/><feColorMatrix in="SourceAlpha" values="0 0 0 0 0 0 0 0 0 0 0 0 0 0 0 0 0 0 127 0" result="hardAlpha"/><feOffset dx="6" dy="6"/><feGaussianBlur stdDeviation="16"/><feComposite in2="hardAlpha" operator="arithmetic" k2="-1" k3="1"/><feColorMatrix values="0 0 0 0 0.76276 0 0 0 0 0.388636 0 0 0 0 0.122215 0 0 0 1 0"/><feBlend in2="shape" result="effect3_innerShadow_275:2645"/><feColorMatrix in="SourceAlpha" values="0 0 0 0 0 0 0 0 0 0 0 0 0 0 0 0 0 0 127 0" result="hardAlpha"/><feOffset dx="-6" dy="-6"/><feGaussianBlur stdDeviation="16"/><feComposite in2="hardAlpha" operator="arithmetic" k2="-1" k3="1"/><feColorMatrix values="0 0 0 0 0.354427 0 0 0 0 0.180009 0 0 0 0 0.0538352 0 0 0 1 0"/><feBlend in2="effect3_innerShadow_275:2645" result="effect4_innerShadow_275:2645"/></filter><radialGradient id="paint0_radial_275:2645" cx="0" cy="0" r="1" gradientUnits="userSpaceOnUse" gradientTransform="rotate(61.389 -355.448 320.358) scale(100.24)"><stop stop-color="#FFCE21"/><stop offset="1" stop-color="#F2911E"/></radialGradient><radialGradient id="paint1_radial_275:2645" cx="0" cy="0" r="1" gradientUnits="userSpaceOnUse" gradientTransform="rotate(61.389 -25.69 33.476) scale(100.24)"><stop stop-color="#FFCE21"/><stop offset="1" stop-color="#F2911E"/></radialGradient><radialGradient id="paint2_radial_275:2645" cx="0" cy="0" r="1" gradientUnits="userSpaceOnUse" gradientTransform="rotate(78.559 37.002 353.359) scale(685.624)"><stop stop-color="#FFEA9F"/><stop offset=".123" stop-color="#FFE380"/><stop offset=".416" stop-color="#FFD250"/><stop offset=".644" stop-color="#FFC122"/><stop offset="1" stop-color="#FFB422"/></radialGradient><radialGradient id="paint3_radial_275:2645" cx="0" cy="0" r="1" gradientUnits="userSpaceOnUse" gradientTransform="rotate(78.559 37.002 353.359) scale(685.624)"><stop offset=".557" stop-color="#E35D12" stop-opacity="0"/><stop offset="1" stop-color="#FF24F6" stop-opacity=".3"/></radialGradient></defs></svg>