<svg width="1024" height="1024" fill="none" xmlns="http://www.w3.org/2000/svg"><circle cx="144" cy="503" r="64" fill="url(#paint0_radial_284:2779)"/><circle r="64" transform="matrix(-1 0 0 1 880 503)" fill="url(#paint1_radial_284:2779)"/><circle cx="512" cy="535" r="384" fill="url(#paint2_radial_284:2779)"/><circle cx="512" cy="535" r="384" fill="url(#paint3_radial_284:2779)"/><g filter="url(#filter0_f_284:2779)"><path d="M488.002 855.001c198.823 0 360.001-161.177 360.001-360 0-37.495-5.733-73.652-16.369-107.642 20.774 44.9 32.366 94.916 32.366 147.64 0 194.405-157.596 352-352 352-114.668 0-216.529-54.829-280.797-139.7 65.316 66.474 156.243 107.702 256.799 107.702z" fill="#C1092A" fill-opacity=".6"/></g><path opacity=".2" fill-rule="evenodd" clip-rule="evenodd" d="M332 236a8 8 0 018-8h344a8 8 0 010 16H340a8 8 0 01-8-8zm-40 40a8 8 0 018-8h424a8 8 0 010 16H300a8 8 0 01-8-8zm-35 41a8 8 0 018-8h491a8 8 0 010 16H265a8 8 0 01-8-8z" fill="#fff"/><g filter="url(#filter1_dd_284:2779)"><path d="M333.445 617.152c.001 37.584-23.9 53.778-48 53.778s-48-19.555-48-53.778c0-25.839 20.629-70.326 34.839-97.907 5.635-10.937 20.669-10.925 26.294.017 14.212 27.643 34.867 72.234 34.867 97.89z" fill="url(#paint4_linear_284:2779)"/></g><g filter="url(#filter2_ddii_284:2779)"><path fill-rule="evenodd" clip-rule="evenodd" d="M354.279 496.906c-20.463 3.298-39.376 15.012-50.08 24.803-9.781 8.946-24.962 8.27-33.908-1.51-8.946-9.781-8.27-24.962 1.511-33.908 15.695-14.356 42.862-31.62 74.839-36.774 33.556-5.408 71.395 2.873 103.247 38.483 8.837 9.879 7.992 25.051-1.887 33.888-9.88 8.837-25.052 7.992-33.889-1.887-19.987-22.346-40.949-26.139-59.833-23.095z" fill="#894819"/></g><g filter="url(#filter3_ddii_284:2779)"><path fill-rule="evenodd" clip-rule="evenodd" d="M658.279 496.906c-20.463 3.298-39.376 15.012-50.08 24.803-9.781 8.946-24.962 8.27-33.908-1.51-8.946-9.781-8.27-24.962 1.511-33.908 15.695-14.356 42.862-31.62 74.839-36.774 33.556-5.408 71.395 2.873 103.247 38.483 8.837 9.879 7.992 25.051-1.887 33.888-9.88 8.837-25.052 7.992-33.889-1.887-19.987-22.346-40.949-26.139-59.833-23.095z" fill="#894819"/></g><g filter="url(#filter4_ddii_284:2779)"><path fill-rule="evenodd" clip-rule="evenodd" d="M472.356 741.085c-8.346 4.666-13.068 10.24-15.978 14.393-6.338 9.045-18.81 11.24-27.856 4.901-9.046-6.339-11.24-18.811-4.901-27.857 5.26-7.506 14.156-17.932 29.214-26.351C467.888 697.755 487.924 692 514.553 692c23.909 0 43.378 6.67 57.842 15.084 13.905 8.089 24.261 18.448 29.12 27.26 5.332 9.674 1.814 21.838-7.86 27.171-9.673 5.332-21.837 1.814-27.17-7.859a.064.064 0 01-.002-.003c-.035-.057-.294-.478-.896-1.222-.658-.813-1.596-1.85-2.84-3.036-2.493-2.377-5.986-5.13-10.464-7.735-8.884-5.168-21.472-9.66-37.73-9.66-20.69 0-33.846 4.415-42.197 9.085z" fill="#894819"/></g><g filter="url(#filter5_dd_284:2779)"><path d="M512.001 151c-149.843 0-279.64 85.826-342.915 211l715.576 80c-41.575-167.142-192.654-291-372.661-291z" fill="#F2E2C8"/></g><g filter="url(#filter6_dd_284:2779)"><path d="M511.745 151c149.843 0 279.64 85.826 342.915 211l-715.576 80c41.575-167.142 192.654-291 372.661-291z" fill="#FFF7EA"/></g><g filter="url(#filter7_dd_284:2779)"><path d="M854.916 362h-685.83c36.363-71.936 94.696-130.876 166.178-168h353.474c71.482 37.124 129.815 96.064 166.178 168z" fill="#fff"/></g><path fill-rule="evenodd" clip-rule="evenodd" d="M782.049 262h-540.1a385.96 385.96 0 0111.422-10.847l506.895-9.113A386.299 386.299 0 01782.049 262zm41.162 47.999H200.789a385.58 385.58 0 0117.007-21.792l597.099 10.734a386.29 386.29 0 018.316 11.058z" fill="#F7EEE1"/><defs><filter id="filter0_f_284:2779" x="159.203" y="315.359" width="776.797" height="643.64" filterUnits="userSpaceOnUse" color-interpolation-filters="sRGB"><feFlood flood-opacity="0" result="BackgroundImageFix"/><feBlend in="SourceGraphic" in2="BackgroundImageFix" result="shape"/><feGaussianBlur stdDeviation="36" result="effect1_foregroundBlur_284:2779"/></filter><filter id="filter1_dd_284:2779" x="221.445" y="503.049" width="128" height="191.881" filterUnits="userSpaceOnUse" color-interpolation-filters="sRGB"><feFlood flood-opacity="0" result="BackgroundImageFix"/><feColorMatrix in="SourceAlpha" values="0 0 0 0 0 0 0 0 0 0 0 0 0 0 0 0 0 0 127 0" result="hardAlpha"/><feOffset dy="2"/><feGaussianBlur stdDeviation="2"/><feComposite in2="hardAlpha" operator="out"/><feColorMatrix values="0 0 0 0 0.282353 0 0 0 0 0.054902 0 0 0 0 0.301961 0 0 0 0.2 0"/><feBlend in2="BackgroundImageFix" result="effect1_dropShadow_284:2779"/><feColorMatrix in="SourceAlpha" values="0 0 0 0 0 0 0 0 0 0 0 0 0 0 0 0 0 0 127 0" result="hardAlpha"/><feOffset dy="8"/><feGaussianBlur stdDeviation="8"/><feComposite in2="hardAlpha" operator="out"/><feColorMatrix values="0 0 0 0 0.282353 0 0 0 0 0.054902 0 0 0 0 0.301961 0 0 0 0.2 0"/><feBlend in2="effect1_dropShadow_284:2779" result="effect2_dropShadow_284:2779"/><feBlend in="SourceGraphic" in2="effect2_dropShadow_284:2779" result="shape"/></filter><filter id="filter2_ddii_284:2779" x="248" y="440.007" width="224" height="111.993" filterUnits="userSpaceOnUse" color-interpolation-filters="sRGB"><feFlood flood-opacity="0" result="BackgroundImageFix"/><feColorMatrix in="SourceAlpha" values="0 0 0 0 0 0 0 0 0 0 0 0 0 0 0 0 0 0 127 0" result="hardAlpha"/><feOffset dy="8"/><feGaussianBlur stdDeviation="8"/><feColorMatrix values="0 0 0 0 0.282353 0 0 0 0 0.054902 0 0 0 0 0.301961 0 0 0 0.2 0"/><feBlend in2="BackgroundImageFix" result="effect1_dropShadow_284:2779"/><feColorMatrix in="SourceAlpha" values="0 0 0 0 0 0 0 0 0 0 0 0 0 0 0 0 0 0 127 0" result="hardAlpha"/><feOffset dy="2"/><feGaussianBlur stdDeviation="2"/><feComposite in2="hardAlpha" operator="out"/><feColorMatrix values="0 0 0 0 0.282353 0 0 0 0 0.054902 0 0 0 0 0.301961 0 0 0 0.2 0"/><feBlend in2="effect1_dropShadow_284:2779" result="effect2_dropShadow_284:2779"/><feBlend in="SourceGraphic" in2="effect2_dropShadow_284:2779" result="shape"/><feColorMatrix in="SourceAlpha" values="0 0 0 0 0 0 0 0 0 0 0 0 0 0 0 0 0 0 127 0" result="hardAlpha"/><feOffset dx="6" dy="6"/><feGaussianBlur stdDeviation="16"/><feComposite in2="hardAlpha" operator="arithmetic" k2="-1" k3="1"/><feColorMatrix values="0 0 0 0 0.76276 0 0 0 0 0.388636 0 0 0 0 0.122215 0 0 0 1 0"/><feBlend in2="shape" result="effect3_innerShadow_284:2779"/><feColorMatrix in="SourceAlpha" values="0 0 0 0 0 0 0 0 0 0 0 0 0 0 0 0 0 0 127 0" result="hardAlpha"/><feOffset dx="-6" dy="-6"/><feGaussianBlur stdDeviation="16"/><feComposite in2="hardAlpha" operator="arithmetic" k2="-1" k3="1"/><feColorMatrix values="0 0 0 0 0.354427 0 0 0 0 0.180009 0 0 0 0 0.0538352 0 0 0 1 0"/><feBlend in2="effect3_innerShadow_284:2779" result="effect4_innerShadow_284:2779"/></filter><filter id="filter3_ddii_284:2779" x="552" y="440.007" width="224" height="111.993" filterUnits="userSpaceOnUse" color-interpolation-filters="sRGB"><feFlood flood-opacity="0" result="BackgroundImageFix"/><feColorMatrix in="SourceAlpha" values="0 0 0 0 0 0 0 0 0 0 0 0 0 0 0 0 0 0 127 0" result="hardAlpha"/><feOffset dy="8"/><feGaussianBlur stdDeviation="8"/><feColorMatrix values="0 0 0 0 0.282353 0 0 0 0 0.054902 0 0 0 0 0.301961 0 0 0 0.2 0"/><feBlend in2="BackgroundImageFix" result="effect1_dropShadow_284:2779"/><feColorMatrix in="SourceAlpha" values="0 0 0 0 0 0 0 0 0 0 0 0 0 0 0 0 0 0 127 0" result="hardAlpha"/><feOffset dy="2"/><feGaussianBlur stdDeviation="2"/><feComposite in2="hardAlpha" operator="out"/><feColorMatrix values="0 0 0 0 0.282353 0 0 0 0 0.054902 0 0 0 0 0.301961 0 0 0 0.2 0"/><feBlend in2="effect1_dropShadow_284:2779" result="effect2_dropShadow_284:2779"/><feBlend in="SourceGraphic" in2="effect2_dropShadow_284:2779" result="shape"/><feColorMatrix in="SourceAlpha" values="0 0 0 0 0 0 0 0 0 0 0 0 0 0 0 0 0 0 127 0" result="hardAlpha"/><feOffset dx="6" dy="6"/><feGaussianBlur stdDeviation="16"/><feComposite in2="hardAlpha" operator="arithmetic" k2="-1" k3="1"/><feColorMatrix values="0 0 0 0 0.76276 0 0 0 0 0.388636 0 0 0 0 0.122215 0 0 0 1 0"/><feBlend in2="shape" result="effect3_innerShadow_284:2779"/><feColorMatrix in="SourceAlpha" values="0 0 0 0 0 0 0 0 0 0 0 0 0 0 0 0 0 0 127 0" result="hardAlpha"/><feOffset dx="-6" dy="-6"/><feGaussianBlur stdDeviation="16"/><feComposite in2="hardAlpha" operator="arithmetic" k2="-1" k3="1"/><feColorMatrix values="0 0 0 0 0.354427 0 0 0 0 0.180009 0 0 0 0 0.0538352 0 0 0 1 0"/><feBlend in2="effect3_innerShadow_284:2779" result="effect4_innerShadow_284:2779"/></filter><filter id="filter4_ddii_284:2779" x="403.998" y="684" width="216.006" height="104.004" filterUnits="userSpaceOnUse" color-interpolation-filters="sRGB"><feFlood flood-opacity="0" result="BackgroundImageFix"/><feColorMatrix in="SourceAlpha" values="0 0 0 0 0 0 0 0 0 0 0 0 0 0 0 0 0 0 127 0" result="hardAlpha"/><feOffset dy="8"/><feGaussianBlur stdDeviation="8"/><feColorMatrix values="0 0 0 0 0.282353 0 0 0 0 0.054902 0 0 0 0 0.301961 0 0 0 0.2 0"/><feBlend in2="BackgroundImageFix" result="effect1_dropShadow_284:2779"/><feColorMatrix in="SourceAlpha" values="0 0 0 0 0 0 0 0 0 0 0 0 0 0 0 0 0 0 127 0" result="hardAlpha"/><feOffset dy="2"/><feGaussianBlur stdDeviation="2"/><feComposite in2="hardAlpha" operator="out"/><feColorMatrix values="0 0 0 0 0.282353 0 0 0 0 0.054902 0 0 0 0 0.301961 0 0 0 0.2 0"/><feBlend in2="effect1_dropShadow_284:2779" result="effect2_dropShadow_284:2779"/><feBlend in="SourceGraphic" in2="effect2_dropShadow_284:2779" result="shape"/><feColorMatrix in="SourceAlpha" values="0 0 0 0 0 0 0 0 0 0 0 0 0 0 0 0 0 0 127 0" result="hardAlpha"/><feOffset dx="6" dy="6"/><feGaussianBlur stdDeviation="16"/><feComposite in2="hardAlpha" operator="arithmetic" k2="-1" k3="1"/><feColorMatrix values="0 0 0 0 0.76276 0 0 0 0 0.388636 0 0 0 0 0.122215 0 0 0 1 0"/><feBlend in2="shape" result="effect3_innerShadow_284:2779"/><feColorMatrix in="SourceAlpha" values="0 0 0 0 0 0 0 0 0 0 0 0 0 0 0 0 0 0 127 0" result="hardAlpha"/><feOffset dx="-6" dy="-6"/><feGaussianBlur stdDeviation="16"/><feComposite in2="hardAlpha" operator="arithmetic" k2="-1" k3="1"/><feColorMatrix values="0 0 0 0 0.354427 0 0 0 0 0.180009 0 0 0 0 0.0538352 0 0 0 1 0"/><feBlend in2="effect3_innerShadow_284:2779" result="effect4_innerShadow_284:2779"/></filter><filter id="filter5_dd_284:2779" x="137.086" y="135" width="779.576" height="355" filterUnits="userSpaceOnUse" color-interpolation-filters="sRGB"><feFlood flood-opacity="0" result="BackgroundImageFix"/><feColorMatrix in="SourceAlpha" values="0 0 0 0 0 0 0 0 0 0 0 0 0 0 0 0 0 0 127 0" result="hardAlpha"/><feOffset dy="16"/><feGaussianBlur stdDeviation="16"/><feComposite in2="hardAlpha" operator="out"/><feColorMatrix values="0 0 0 0 0.282353 0 0 0 0 0.054902 0 0 0 0 0.301961 0 0 0 0.2 0"/><feBlend in2="BackgroundImageFix" result="effect1_dropShadow_284:2779"/><feColorMatrix in="SourceAlpha" values="0 0 0 0 0 0 0 0 0 0 0 0 0 0 0 0 0 0 127 0" result="hardAlpha"/><feOffset dy="2"/><feGaussianBlur stdDeviation="4"/><feComposite in2="hardAlpha" operator="out"/><feColorMatrix values="0 0 0 0 0.282353 0 0 0 0 0.054902 0 0 0 0 0.301961 0 0 0 0.2 0"/><feBlend in2="effect1_dropShadow_284:2779" result="effect2_dropShadow_284:2779"/><feBlend in="SourceGraphic" in2="effect2_dropShadow_284:2779" result="shape"/></filter><filter id="filter6_dd_284:2779" x="107.084" y="135" width="779.576" height="355" filterUnits="userSpaceOnUse" color-interpolation-filters="sRGB"><feFlood flood-opacity="0" result="BackgroundImageFix"/><feColorMatrix in="SourceAlpha" values="0 0 0 0 0 0 0 0 0 0 0 0 0 0 0 0 0 0 127 0" result="hardAlpha"/><feOffset dy="16"/><feGaussianBlur stdDeviation="16"/><feComposite in2="hardAlpha" operator="out"/><feColorMatrix values="0 0 0 0 0.282353 0 0 0 0 0.054902 0 0 0 0 0.301961 0 0 0 0.2 0"/><feBlend in2="BackgroundImageFix" result="effect1_dropShadow_284:2779"/><feColorMatrix in="SourceAlpha" values="0 0 0 0 0 0 0 0 0 0 0 0 0 0 0 0 0 0 127 0" result="hardAlpha"/><feOffset dy="2"/><feGaussianBlur stdDeviation="4"/><feComposite in2="hardAlpha" operator="out"/><feColorMatrix values="0 0 0 0 0.282353 0 0 0 0 0.054902 0 0 0 0 0.301961 0 0 0 0.2 0"/><feBlend in2="effect1_dropShadow_284:2779" result="effect2_dropShadow_284:2779"/><feBlend in="SourceGraphic" in2="effect2_dropShadow_284:2779" result="shape"/></filter><filter id="filter7_dd_284:2779" x="137.086" y="178" width="749.83" height="232" filterUnits="userSpaceOnUse" color-interpolation-filters="sRGB"><feFlood flood-opacity="0" result="BackgroundImageFix"/><feColorMatrix in="SourceAlpha" values="0 0 0 0 0 0 0 0 0 0 0 0 0 0 0 0 0 0 127 0" result="hardAlpha"/><feOffset dy="16"/><feGaussianBlur stdDeviation="16"/><feComposite in2="hardAlpha" operator="out"/><feColorMatrix values="0 0 0 0 0.282353 0 0 0 0 0.054902 0 0 0 0 0.301961 0 0 0 0.2 0"/><feBlend in2="BackgroundImageFix" result="effect1_dropShadow_284:2779"/><feColorMatrix in="SourceAlpha" values="0 0 0 0 0 0 0 0 0 0 0 0 0 0 0 0 0 0 127 0" result="hardAlpha"/><feOffset dy="2"/><feGaussianBlur stdDeviation="4"/><feComposite in2="hardAlpha" operator="out"/><feColorMatrix values="0 0 0 0 0.282353 0 0 0 0 0.054902 0 0 0 0 0.301961 0 0 0 0.2 0"/><feBlend in2="effect1_dropShadow_284:2779" result="effect2_dropShadow_284:2779"/><feBlend in="SourceGraphic" in2="effect2_dropShadow_284:2779" result="shape"/></filter><radialGradient id="paint0_radial_284:2779" cx="0" cy="0" r="1" gradientUnits="userSpaceOnUse" gradientTransform="rotate(61.389 -355.448 320.358) scale(100.24)"><stop stop-color="#FFCE21"/><stop offset="1" stop-color="#F2911E"/></radialGradient><radialGradient id="paint1_radial_284:2779" cx="0" cy="0" r="1" gradientUnits="userSpaceOnUse" gradientTransform="rotate(61.389 -25.69 33.476) scale(100.24)"><stop stop-color="#FFCE21"/><stop offset="1" stop-color="#F2911E"/></radialGradient><radialGradient id="paint2_radial_284:2779" cx="0" cy="0" r="1" gradientUnits="userSpaceOnUse" gradientTransform="rotate(78.559 37.002 353.359) scale(685.624)"><stop stop-color="#FFEA9F"/><stop offset=".123" stop-color="#FFE380"/><stop offset=".416" stop-color="#FFD250"/><stop offset=".644" stop-color="#FFC122"/><stop offset="1" stop-color="#FFB422"/></radialGradient><radialGradient id="paint3_radial_284:2779" cx="0" cy="0" r="1" gradientUnits="userSpaceOnUse" gradientTransform="rotate(78.559 37.002 353.359) scale(685.624)"><stop offset=".557" stop-color="#E35D12" stop-opacity="0"/><stop offset="1" stop-color="#FF24F6" stop-opacity=".3"/></radialGradient><linearGradient id="paint4_linear_284:2779" x1="237" y1="567" x2="333" y2="638" gradientUnits="userSpaceOnUse"><stop stop-color="#3EDCFF"/><stop offset="1" stop-color="#00B2FE"/></linearGradient></defs></svg>