<svg width="1024" height="1024" fill="none" xmlns="http://www.w3.org/2000/svg"><circle cx="144" cy="528" r="64" fill="url(#paint0_radial)"/><circle r="64" transform="matrix(-1 0 0 1 880 528)" fill="url(#paint1_radial)"/><circle cx="512" cy="560" r="384" fill="url(#paint2_radial)"/><circle cx="512" cy="560" r="384" fill="url(#paint3_radial)"/><g filter="url(#filter0_f)"><path d="M488.002 880.001c198.823 0 360.001-161.177 360.001-360 0-37.495-5.733-73.652-16.369-107.642 20.774 44.9 32.366 94.916 32.366 147.64 0 194.405-157.596 352-352 352-114.668 0-216.529-54.829-280.797-139.7 65.316 66.474 156.243 107.702 256.799 107.702z" fill="#C1092A" fill-opacity=".6"/></g><g filter="url(#filter1_di)"><path d="M512 768c127.335 0 233.256-90.411 255.357-209.689C772.042 533.024 750.462 512 724.395 512h-424.79c-26.067 0-47.647 21.024-42.962 46.311C278.744 677.589 384.665 768 512 768z" fill="url(#paint4_linear)"/></g><g filter="url(#filter2_i)"><path d="M685.786 702.178C639.773 743.093 578.838 768 512.004 768c-66.836 0-127.773-24.909-173.785-65.826C351.636 648.79 424.333 608 512.002 608c87.67 0 160.369 40.792 173.784 94.178z" fill="url(#paint5_linear)"/></g><g filter="url(#filter3_d)"><path d="M324.582 156.318c-4.791-6.968-13.494-10.156-21.711-7.955-8.218 2.202-14.16 9.315-14.826 17.745l-15.552 62.559-67.977 31.532c-8.524 2.284-14.563 9.836-14.874 18.602-.311 8.765 5.179 16.683 13.523 19.502l66.05 34.334.785 62.1c-.676 8.56 4.237 16.569 12.192 19.878 7.954 3.308 17.164 1.174 22.856-5.299l51.925-59.042 74.488 25.17c8.166 2.759 17.209.003 22.444-6.84 5.235-6.843 5.484-16.235.62-23.31l-30.373-54.172 40.037-62.76c5.816-6.613 6.611-16.215 1.959-23.651-4.652-7.436-13.658-10.956-22.182-8.672l-74.638 6.681-44.746-46.402z" fill="url(#paint6_linear)"/></g><g filter="url(#filter4_d)"><path d="M699.418 156.318c4.791-6.968 13.494-10.156 21.711-7.955 8.218 2.202 14.16 9.315 14.826 17.745l15.552 62.559 67.977 31.532c8.524 2.284 14.563 9.836 14.874 18.602.311 8.765-5.179 16.683-13.523 19.502l-66.05 34.334-.785 62.1c.676 8.56-4.237 16.569-12.192 19.878-7.954 3.308-17.164 1.174-22.856-5.299l-51.925-59.042-74.488 25.17c-8.166 2.759-17.209.003-22.444-6.84-5.235-6.843-5.484-16.235-.62-23.31l30.373-54.172-40.037-62.76c-5.816-6.613-6.611-16.215-1.959-23.651 4.652-7.436 13.658-10.956 22.182-8.672l74.638 6.681 44.746-46.402z" fill="url(#paint7_linear)"/></g><defs><filter id="filter0_f" x="159.203" y="340.359" width="776.797" height="643.64" filterUnits="userSpaceOnUse" color-interpolation-filters="sRGB"><feFlood flood-opacity="0" result="BackgroundImageFix"/><feBlend in="SourceGraphic" in2="BackgroundImageFix" result="shape"/><feGaussianBlur stdDeviation="36" result="effect1_foregroundBlur"/></filter><filter id="filter1_di" x="248" y="504" width="544" height="288" filterUnits="userSpaceOnUse" color-interpolation-filters="sRGB"><feFlood flood-opacity="0" result="BackgroundImageFix"/><feColorMatrix in="SourceAlpha" values="0 0 0 0 0 0 0 0 0 0 0 0 0 0 0 0 0 0 127 0" result="hardAlpha"/><feOffset dx="8" dy="8"/><feGaussianBlur stdDeviation="8"/><feColorMatrix values="0 0 0 0 1 0 0 0 0 0.87451 0 0 0 0 0.423529 0 0 0 1 0"/><feBlend in2="BackgroundImageFix" result="effect1_dropShadow"/><feBlend in="SourceGraphic" in2="effect1_dropShadow" result="shape"/><feColorMatrix in="SourceAlpha" values="0 0 0 0 0 0 0 0 0 0 0 0 0 0 0 0 0 0 127 0" result="hardAlpha"/><feOffset dx="16" dy="16"/><feGaussianBlur stdDeviation="16"/><feComposite in2="hardAlpha" operator="arithmetic" k2="-1" k3="1"/><feColorMatrix values="0 0 0 0 0 0 0 0 0 0 0 0 0 0 0 0 0 0 0.25 0"/><feBlend in2="shape" result="effect2_innerShadow"/></filter><filter id="filter2_i" x="338.219" y="608" width="347.566" height="168" filterUnits="userSpaceOnUse" color-interpolation-filters="sRGB"><feFlood flood-opacity="0" result="BackgroundImageFix"/><feBlend in="SourceGraphic" in2="BackgroundImageFix" result="shape"/><feColorMatrix in="SourceAlpha" values="0 0 0 0 0 0 0 0 0 0 0 0 0 0 0 0 0 0 127 0" result="hardAlpha"/><feOffset dy="8"/><feGaussianBlur stdDeviation="8"/><feComposite in2="hardAlpha" operator="arithmetic" k2="-1" k3="1"/><feColorMatrix values="0 0 0 0 0.51276 0 0 0 0 0.0415645 0 0 0 0 0.0415645 0 0 0 0.4 0"/><feBlend in2="shape" result="effect1_innerShadow"/></filter><filter id="filter3_d" x="173.629" y="147.674" width="311.533" height="300.481" filterUnits="userSpaceOnUse" color-interpolation-filters="sRGB"><feFlood flood-opacity="0" result="BackgroundImageFix"/><feColorMatrix in="SourceAlpha" values="0 0 0 0 0 0 0 0 0 0 0 0 0 0 0 0 0 0 127 0" result="hardAlpha"/><feOffset dy="16"/><feGaussianBlur stdDeviation="8"/><feComposite in2="hardAlpha" operator="out"/><feColorMatrix values="0 0 0 0 0.68776 0 0 0 0 0.0242277 0 0 0 0 0.501971 0 0 0 0.4 0"/><feBlend in2="BackgroundImageFix" result="effect1_dropShadow"/><feBlend in="SourceGraphic" in2="effect1_dropShadow" result="shape"/></filter><filter id="filter4_d" x="538.838" y="147.674" width="311.533" height="300.481" filterUnits="userSpaceOnUse" color-interpolation-filters="sRGB"><feFlood flood-opacity="0" result="BackgroundImageFix"/><feColorMatrix in="SourceAlpha" values="0 0 0 0 0 0 0 0 0 0 0 0 0 0 0 0 0 0 127 0" result="hardAlpha"/><feOffset dy="16"/><feGaussianBlur stdDeviation="8"/><feComposite in2="hardAlpha" operator="out"/><feColorMatrix values="0 0 0 0 0.68776 0 0 0 0 0.0242277 0 0 0 0 0.501971 0 0 0 0.4 0"/><feBlend in2="BackgroundImageFix" result="effect1_dropShadow"/><feBlend in="SourceGraphic" in2="effect1_dropShadow" result="shape"/></filter><radialGradient id="paint0_radial" cx="0" cy="0" r="1" gradientUnits="userSpaceOnUse" gradientTransform="rotate(61.389 -376.505 332.858) scale(100.24)"><stop stop-color="#FFCE21"/><stop offset="1" stop-color="#F2911E"/></radialGradient><radialGradient id="paint1_radial" cx="0" cy="0" r="1" gradientUnits="userSpaceOnUse" gradientTransform="rotate(61.389 -25.69 33.476) scale(100.24)"><stop stop-color="#FFCE21"/><stop offset="1" stop-color="#F2911E"/></radialGradient><radialGradient id="paint2_radial" cx="0" cy="0" r="1" gradientUnits="userSpaceOnUse" gradientTransform="rotate(78.559 21.72 365.859) scale(685.624)"><stop stop-color="#FFEA9F"/><stop offset=".123" stop-color="#FFE380"/><stop offset=".416" stop-color="#FFD250"/><stop offset=".644" stop-color="#FFC122"/><stop offset="1" stop-color="#FFB422"/></radialGradient><radialGradient id="paint3_radial" cx="0" cy="0" r="1" gradientUnits="userSpaceOnUse" gradientTransform="rotate(78.559 21.72 365.859) scale(685.624)"><stop offset=".557" stop-color="#E35D12" stop-opacity="0"/><stop offset="1" stop-color="#FF24F6" stop-opacity=".3"/></radialGradient><linearGradient id="paint4_linear" x1="512" y1="512" x2="512" y2="768" gradientUnits="userSpaceOnUse"><stop stop-color="#60310F"/><stop offset=".451" stop-color="#7D3807"/></linearGradient><linearGradient id="paint5_linear" x1="512.002" y1="608" x2="512.002" y2="768" gradientUnits="userSpaceOnUse"><stop stop-color="#F04343"/><stop offset=".232" stop-color="#EF4343"/><stop offset=".378" stop-color="#E13737"/><stop offset="1" stop-color="#C72121"/></linearGradient><linearGradient id="paint6_linear" x1="302.871" y1="148.363" x2="369.128" y2="395.64" gradientUnits="userSpaceOnUse"><stop stop-color="#F439F8"/><stop offset="1" stop-color="#B129E0"/></linearGradient><linearGradient id="paint7_linear" x1="721.129" y1="148.363" x2="654.872" y2="395.64" gradientUnits="userSpaceOnUse"><stop stop-color="#F439F8"/><stop offset="1" stop-color="#B129E0"/></linearGradient></defs></svg>