<svg width="1024" height="1024" fill="none" xmlns="http://www.w3.org/2000/svg"><circle cx="144" cy="503" r="64" fill="url(#paint0_radial_274:2763)"/><circle r="64" transform="matrix(-1 0 0 1 880 503)" fill="url(#paint1_radial_274:2763)"/><circle cx="512" cy="535" r="384" fill="url(#paint2_radial_274:2763)"/><circle cx="512" cy="535" r="384" fill="url(#paint3_radial_274:2763)"/><g filter="url(#filter0_f_274:2763)"><path d="M488.002 855.001c198.823 0 360.001-161.177 360.001-360 0-37.495-5.733-73.652-16.369-107.642 20.774 44.9 32.366 94.916 32.366 147.64 0 194.405-157.596 352-352 352-114.668 0-216.529-54.829-280.797-139.7 65.316 66.474 156.243 107.702 256.799 107.702z" fill="#C1092A" fill-opacity=".6"/></g><g filter="url(#filter1_dd_274:2763)"><path d="M264 437.223C264 474.806 240.099 491 216 491c-24.1 0-48-19.555-48-53.777 0-25.84 20.628-70.327 34.839-97.908 5.635-10.937 20.668-10.925 26.294.017C243.344 366.975 264 411.566 264 437.223z" fill="url(#paint4_linear_274:2763)"/></g><g filter="url(#filter2_di_274:2763)"><path d="M292 632c0-59.647 48.353-108 108-108h224c59.647 0 108 48.353 108 108s-48.353 108-108 108H400c-59.647 0-108-48.353-108-108z" fill="url(#paint5_linear_274:2763)"/></g><g filter="url(#filter3_i_274:2763)"><mask id="a" style="mask-type:alpha" maskUnits="userSpaceOnUse" x="292" y="524" width="440" height="216"><path d="M292 632c0-59.647 48.353-108 108-108h224c59.647 0 108 48.353 108 108s-48.353 108-108 108H400c-59.647 0-108-48.353-108-108z" fill="url(#paint6_linear_274:2763)"/></mask><g mask="url(#a)"><g filter="url(#filter4_d_274:2763)"><path d="M340 744h344v-72c0-17.673-14.327-32-32-32H372c-17.673 0-32 14.327-32 32v72z" fill="#fff"/></g><g filter="url(#filter5_d_274:2763)"><path d="M340 516h344v72c0 17.673-14.327 32-32 32H372c-17.673 0-32-14.327-32-32v-72z" fill="#fff"/></g></g></g><g filter="url(#filter6_ddi_274:2763)"><path d="M416 364c0 26.51-21.49 48-48 48s-48-21.49-48-48 21.49-48 48-48 48 21.49 48 48z" fill="url(#paint7_linear_274:2763)"/></g><g filter="url(#filter7_ddi_274:2763)"><path d="M704 364c0 26.51-21.49 48-48 48s-48-21.49-48-48 21.49-48 48-48 48 21.49 48 48z" fill="url(#paint8_linear_274:2763)"/></g><g filter="url(#filter8_dd_274:2763)"><path d="M854.916 362h-685.83c36.363-71.936 94.696-130.876 166.178-168h353.474c71.482 37.124 129.815 96.064 166.178 168z" fill="url(#paint9_linear_274:2763)"/></g><path opacity=".2" fill-rule="evenodd" clip-rule="evenodd" d="M332 236a8 8 0 018-8h344a8 8 0 010 16H340a8 8 0 01-8-8zm-40 40a8 8 0 018-8h424a8 8 0 010 16H300a8 8 0 01-8-8zm-35 41a8 8 0 018-8h491a8 8 0 010 16H265a8 8 0 01-8-8z" fill="#fff"/><defs><filter id="filter0_f_274:2763" x="159.203" y="315.359" width="776.797" height="643.64" filterUnits="userSpaceOnUse" color-interpolation-filters="sRGB"><feFlood flood-opacity="0" result="BackgroundImageFix"/><feBlend in="SourceGraphic" in2="BackgroundImageFix" result="shape"/><feGaussianBlur stdDeviation="36" result="effect1_foregroundBlur_274:2763"/></filter><filter id="filter1_dd_274:2763" x="152" y="323.119" width="128" height="191.881" filterUnits="userSpaceOnUse" color-interpolation-filters="sRGB"><feFlood flood-opacity="0" result="BackgroundImageFix"/><feColorMatrix in="SourceAlpha" values="0 0 0 0 0 0 0 0 0 0 0 0 0 0 0 0 0 0 127 0" result="hardAlpha"/><feOffset dy="2"/><feGaussianBlur stdDeviation="2"/><feComposite in2="hardAlpha" operator="out"/><feColorMatrix values="0 0 0 0 0.282353 0 0 0 0 0.054902 0 0 0 0 0.301961 0 0 0 0.2 0"/><feBlend in2="BackgroundImageFix" result="effect1_dropShadow_274:2763"/><feColorMatrix in="SourceAlpha" values="0 0 0 0 0 0 0 0 0 0 0 0 0 0 0 0 0 0 127 0" result="hardAlpha"/><feOffset dy="8"/><feGaussianBlur stdDeviation="8"/><feComposite in2="hardAlpha" operator="out"/><feColorMatrix values="0 0 0 0 0.282353 0 0 0 0 0.054902 0 0 0 0 0.301961 0 0 0 0.2 0"/><feBlend in2="effect1_dropShadow_274:2763" result="effect2_dropShadow_274:2763"/><feBlend in="SourceGraphic" in2="effect2_dropShadow_274:2763" result="shape"/></filter><filter id="filter2_di_274:2763" x="282.4" y="514.4" width="472" height="248" filterUnits="userSpaceOnUse" color-interpolation-filters="sRGB"><feFlood flood-opacity="0" result="BackgroundImageFix"/><feColorMatrix in="SourceAlpha" values="0 0 0 0 0 0 0 0 0 0 0 0 0 0 0 0 0 0 127 0" result="hardAlpha"/><feOffset dx="6.4" dy="6.4"/><feGaussianBlur stdDeviation="8"/><feColorMatrix values="0 0 0 0 1 0 0 0 0 0.87451 0 0 0 0 0.423529 0 0 0 1 0"/><feBlend in2="BackgroundImageFix" result="effect1_dropShadow_274:2763"/><feBlend in="SourceGraphic" in2="effect1_dropShadow_274:2763" result="shape"/><feColorMatrix in="SourceAlpha" values="0 0 0 0 0 0 0 0 0 0 0 0 0 0 0 0 0 0 127 0" result="hardAlpha"/><feOffset dx="16" dy="16"/><feGaussianBlur stdDeviation="16"/><feComposite in2="hardAlpha" operator="arithmetic" k2="-1" k3="1"/><feColorMatrix values="0 0 0 0 0 0 0 0 0 0 0 0 0 0 0 0 0 0 0.25 0"/><feBlend in2="shape" result="effect2_innerShadow_274:2763"/></filter><filter id="filter3_i_274:2763" x="340" y="524" width="344" height="220" filterUnits="userSpaceOnUse" color-interpolation-filters="sRGB"><feFlood flood-opacity="0" result="BackgroundImageFix"/><feBlend in="SourceGraphic" in2="BackgroundImageFix" result="shape"/><feColorMatrix in="SourceAlpha" values="0 0 0 0 0 0 0 0 0 0 0 0 0 0 0 0 0 0 127 0" result="hardAlpha"/><feOffset dy="4"/><feGaussianBlur stdDeviation="8"/><feComposite in2="hardAlpha" operator="arithmetic" k2="-1" k3="1"/><feColorMatrix values="0 0 0 0 0.358333 0 0 0 0 0.113472 0 0 0 0 0.0597222 0 0 0 0.4 0"/><feBlend in2="shape" result="effect1_innerShadow_274:2763"/></filter><filter id="filter4_d_274:2763" x="308" y="624" width="408" height="168" filterUnits="userSpaceOnUse" color-interpolation-filters="sRGB"><feFlood flood-opacity="0" result="BackgroundImageFix"/><feColorMatrix in="SourceAlpha" values="0 0 0 0 0 0 0 0 0 0 0 0 0 0 0 0 0 0 127 0" result="hardAlpha"/><feOffset dy="16"/><feGaussianBlur stdDeviation="16"/><feComposite in2="hardAlpha" operator="out"/><feColorMatrix values="0 0 0 0 0.282196 0 0 0 0 0.054902 0 0 0 0 0.301961 0 0 0 0.4 0"/><feBlend in2="BackgroundImageFix" result="effect1_dropShadow_274:2763"/><feBlend in="SourceGraphic" in2="effect1_dropShadow_274:2763" result="shape"/></filter><filter id="filter5_d_274:2763" x="308" y="500" width="408" height="168" filterUnits="userSpaceOnUse" color-interpolation-filters="sRGB"><feFlood flood-opacity="0" result="BackgroundImageFix"/><feColorMatrix in="SourceAlpha" values="0 0 0 0 0 0 0 0 0 0 0 0 0 0 0 0 0 0 127 0" result="hardAlpha"/><feOffset dy="16"/><feGaussianBlur stdDeviation="16"/><feComposite in2="hardAlpha" operator="out"/><feColorMatrix values="0 0 0 0 0.282196 0 0 0 0 0.054902 0 0 0 0 0.301961 0 0 0 0.4 0"/><feBlend in2="BackgroundImageFix" result="effect1_dropShadow_274:2763"/><feBlend in="SourceGraphic" in2="effect1_dropShadow_274:2763" result="shape"/></filter><filter id="filter6_ddi_274:2763" x="312" y="312" width="112" height="112" filterUnits="userSpaceOnUse" color-interpolation-filters="sRGB"><feFlood flood-opacity="0" result="BackgroundImageFix"/><feColorMatrix in="SourceAlpha" values="0 0 0 0 0 0 0 0 0 0 0 0 0 0 0 0 0 0 127 0" result="hardAlpha"/><feOffset dy="4"/><feGaussianBlur stdDeviation="4"/><feComposite in2="hardAlpha" operator="out"/><feColorMatrix values="0 0 0 0 0.356863 0 0 0 0 0.0313726 0 0 0 0 0.384314 0 0 0 0.4 0"/><feBlend in2="BackgroundImageFix" result="effect1_dropShadow_274:2763"/><feColorMatrix in="SourceAlpha" values="0 0 0 0 0 0 0 0 0 0 0 0 0 0 0 0 0 0 127 0" result="hardAlpha"/><feOffset dy="2"/><feGaussianBlur stdDeviation="2"/><feComposite in2="hardAlpha" operator="out"/><feColorMatrix values="0 0 0 0 0.356863 0 0 0 0 0.0313726 0 0 0 0 0.384314 0 0 0 0.2 0"/><feBlend in2="effect1_dropShadow_274:2763" result="effect2_dropShadow_274:2763"/><feBlend in="SourceGraphic" in2="effect2_dropShadow_274:2763" result="shape"/><feColorMatrix in="SourceAlpha" values="0 0 0 0 0 0 0 0 0 0 0 0 0 0 0 0 0 0 127 0" result="hardAlpha"/><feOffset dx="4" dy="4"/><feGaussianBlur stdDeviation="6"/><feComposite in2="hardAlpha" operator="arithmetic" k2="-1" k3="1"/><feColorMatrix values="0 0 0 0 0.704427 0 0 0 0 0.418173 0 0 0 0 0.227338 0 0 0 0.4 0"/><feBlend in2="shape" result="effect3_innerShadow_274:2763"/></filter><filter id="filter7_ddi_274:2763" x="600" y="312" width="112" height="112" filterUnits="userSpaceOnUse" color-interpolation-filters="sRGB"><feFlood flood-opacity="0" result="BackgroundImageFix"/><feColorMatrix in="SourceAlpha" values="0 0 0 0 0 0 0 0 0 0 0 0 0 0 0 0 0 0 127 0" result="hardAlpha"/><feOffset dy="4"/><feGaussianBlur stdDeviation="4"/><feComposite in2="hardAlpha" operator="out"/><feColorMatrix values="0 0 0 0 0.356863 0 0 0 0 0.0313726 0 0 0 0 0.384314 0 0 0 0.4 0"/><feBlend in2="BackgroundImageFix" result="effect1_dropShadow_274:2763"/><feColorMatrix in="SourceAlpha" values="0 0 0 0 0 0 0 0 0 0 0 0 0 0 0 0 0 0 127 0" result="hardAlpha"/><feOffset dy="2"/><feGaussianBlur stdDeviation="2"/><feComposite in2="hardAlpha" operator="out"/><feColorMatrix values="0 0 0 0 0.356863 0 0 0 0 0.0313726 0 0 0 0 0.384314 0 0 0 0.2 0"/><feBlend in2="effect1_dropShadow_274:2763" result="effect2_dropShadow_274:2763"/><feBlend in="SourceGraphic" in2="effect2_dropShadow_274:2763" result="shape"/><feColorMatrix in="SourceAlpha" values="0 0 0 0 0 0 0 0 0 0 0 0 0 0 0 0 0 0 127 0" result="hardAlpha"/><feOffset dx="4" dy="4"/><feGaussianBlur stdDeviation="6"/><feComposite in2="hardAlpha" operator="arithmetic" k2="-1" k3="1"/><feColorMatrix values="0 0 0 0 0.704427 0 0 0 0 0.418173 0 0 0 0 0.227338 0 0 0 0.4 0"/><feBlend in2="shape" result="effect3_innerShadow_274:2763"/></filter><filter id="filter8_dd_274:2763" x="153.086" y="186" width="717.83" height="200" filterUnits="userSpaceOnUse" color-interpolation-filters="sRGB"><feFlood flood-opacity="0" result="BackgroundImageFix"/><feColorMatrix in="SourceAlpha" values="0 0 0 0 0 0 0 0 0 0 0 0 0 0 0 0 0 0 127 0" result="hardAlpha"/><feOffset dy="8"/><feGaussianBlur stdDeviation="8"/><feComposite in2="hardAlpha" operator="out"/><feColorMatrix values="0 0 0 0 0.282353 0 0 0 0 0.054902 0 0 0 0 0.301961 0 0 0 0.2 0"/><feBlend in2="BackgroundImageFix" result="effect1_dropShadow_274:2763"/><feColorMatrix in="SourceAlpha" values="0 0 0 0 0 0 0 0 0 0 0 0 0 0 0 0 0 0 127 0" result="hardAlpha"/><feOffset dy="2"/><feGaussianBlur stdDeviation="2"/><feComposite in2="hardAlpha" operator="out"/><feColorMatrix values="0 0 0 0 0.282353 0 0 0 0 0.054902 0 0 0 0 0.301961 0 0 0 0.2 0"/><feBlend in2="effect1_dropShadow_274:2763" result="effect2_dropShadow_274:2763"/><feBlend in="SourceGraphic" in2="effect2_dropShadow_274:2763" result="shape"/></filter><linearGradient id="paint4_linear_274:2763" x1="167.555" y1="387.07" x2="263.555" y2="458.07" gradientUnits="userSpaceOnUse"><stop stop-color="#3EDCFF"/><stop offset="1" stop-color="#00B2FE"/></linearGradient><linearGradient id="paint5_linear_274:2763" x1="512" y1="524" x2="512" y2="740" gradientUnits="userSpaceOnUse"><stop stop-color="#5E3010"/><stop offset=".42" stop-color="#894818"/></linearGradient><linearGradient id="paint6_linear_274:2763" x1="512" y1="524" x2="512" y2="740" gradientUnits="userSpaceOnUse"><stop stop-color="#5E3010"/><stop offset=".42" stop-color="#894818"/></linearGradient><linearGradient id="paint7_linear_274:2763" x1="336" y1="324" x2="400" y2="412" gradientUnits="userSpaceOnUse"><stop stop-color="#4E280E"/><stop offset="1" stop-color="#281304"/></linearGradient><linearGradient id="paint8_linear_274:2763" x1="624" y1="324" x2="688" y2="412" gradientUnits="userSpaceOnUse"><stop stop-color="#4E280E"/><stop offset="1" stop-color="#281304"/></linearGradient><linearGradient id="paint9_linear_274:2763" x1="512.001" y1="194" x2="512.001" y2="362" gradientUnits="userSpaceOnUse"><stop stop-color="#FF49C1"/><stop offset="1" stop-color="#E71084"/></linearGradient><radialGradient id="paint0_radial_274:2763" cx="0" cy="0" r="1" gradientUnits="userSpaceOnUse" gradientTransform="rotate(61.389 -355.448 320.358) scale(100.24)"><stop stop-color="#FFCE21"/><stop offset="1" stop-color="#F2911E"/></radialGradient><radialGradient id="paint1_radial_274:2763" cx="0" cy="0" r="1" gradientUnits="userSpaceOnUse" gradientTransform="rotate(61.389 -25.69 33.476) scale(100.24)"><stop stop-color="#FFCE21"/><stop offset="1" stop-color="#F2911E"/></radialGradient><radialGradient id="paint2_radial_274:2763" cx="0" cy="0" r="1" gradientUnits="userSpaceOnUse" gradientTransform="rotate(78.559 37.002 353.359) scale(685.624)"><stop stop-color="#FFEA9F"/><stop offset=".123" stop-color="#FFE380"/><stop offset=".416" stop-color="#FFD250"/><stop offset=".644" stop-color="#FFC122"/><stop offset="1" stop-color="#FFB422"/></radialGradient><radialGradient id="paint3_radial_274:2763" cx="0" cy="0" r="1" gradientUnits="userSpaceOnUse" gradientTransform="rotate(78.559 37.002 353.359) scale(685.624)"><stop offset=".557" stop-color="#E35D12" stop-opacity="0"/><stop offset="1" stop-color="#FF24F6" stop-opacity=".3"/></radialGradient></defs></svg>