<svg width="1024" height="1024" fill="none" xmlns="http://www.w3.org/2000/svg"><g clip-path="url(#clip0)"><circle cx="177.303" cy="716.287" r="64" transform="rotate(-30 177.303 716.287)" fill="url(#paint0_radial)"/><circle r="64" transform="scale(-1 1) rotate(30 -1057.261 -1346.102)" fill="url(#paint1_radial)"/><circle cx="511.999" cy="560" r="384" transform="rotate(-30 511.999 560)" fill="url(#paint2_radial)"/><circle cx="511.999" cy="560" r="384" transform="rotate(-30 511.999 560)" fill="url(#paint3_radial)"/><g filter="url(#filter0_f)"><path d="M651.218 849.128c172.185-99.411 231.18-319.584 131.769-491.769-18.748-32.472-41.791-60.919-67.997-85.036C755.431 300.82 790.478 338.339 816.84 384c97.202 168.359 39.518 383.639-128.841 480.841-99.305 57.333-214.934 60.781-313.027 19.414 89.803 24.91 189.161 15.151 276.246-35.127z" fill="#C1092A" fill-opacity=".6"/></g><g filter="url(#filter1_di)"><path d="M607.999 726.277C718.274 662.61 764.8 531.351 724.3 417.003c-8.586-24.242-37.786-31.659-60.361-18.626L296.06 610.772c-22.575 13.034-30.752 42.031-14.05 61.588 78.778 92.247 215.714 117.585 325.989 53.917z" fill="url(#paint4_linear)"/></g><g filter="url(#filter2_i)"><path d="M725.587 582.383c-19.39 58.439-59.708 110.477-117.588 143.894-57.882 33.418-123.109 42.315-183.416 29.886-15.072-52.94 27.49-124.614 103.414-168.448 75.925-43.836 159.28-44.858 197.59-5.332z" fill="url(#paint5_linear)"/></g><g filter="url(#filter3_dd)"><path d="M290.445 649.152c.001 37.584-23.9 53.778-48 53.778s-48-19.555-48-53.778c0-25.839 20.629-70.326 34.839-97.907 5.635-10.937 20.669-10.925 26.294.017 14.212 27.643 34.867 72.234 34.867 97.89z" fill="url(#paint6_linear)"/></g><g filter="url(#filter4_dd)"><path d="M751.199 326.473c32.548 18.791 34.623 47.587 22.573 68.458-12.05 20.871-40.936 31.791-70.573 14.68-22.378-12.919-50.59-53.028-67.371-79.125-6.654-10.348.873-23.362 13.162-22.762 31.045 1.514 79.99 5.921 102.209 18.749z" fill="url(#paint7_linear)"/></g><g filter="url(#filter5_ddii)"><path fill-rule="evenodd" clip-rule="evenodd" d="M267.862 446.726c-16.073 13.088-26.595 32.689-30.969 46.521-3.997 12.638-17.483 19.642-30.12 15.645-12.638-3.997-19.643-17.482-15.646-30.12 6.414-20.28 21.31-48.815 46.426-69.267 26.356-21.461 63.266-33.209 108.656-18.296 12.592 4.137 19.447 17.699 15.309 30.292-4.137 12.592-17.699 19.447-30.292 15.31-28.482-9.358-48.532-2.163-63.364 9.915z" fill="#894819"/></g><g filter="url(#filter6_ddii)"><path fill-rule="evenodd" clip-rule="evenodd" d="M531.135 294.726c-16.072 13.088-26.594 32.689-30.969 46.521-3.997 12.638-17.482 19.642-30.12 15.645-12.638-3.997-19.642-17.482-15.645-30.12 6.414-20.28 21.31-48.815 46.426-69.267 26.356-21.461 63.265-33.209 108.655-18.296 12.593 4.137 19.447 17.699 15.31 30.292-4.137 12.592-17.7 19.447-30.292 15.31-28.483-9.358-48.533-2.163-63.365 9.915z" fill="#894819"/></g></g><defs><filter id="filter0_f" x="302.973" y="200.323" width="633.084" height="783.736" filterUnits="userSpaceOnUse" color-interpolation-filters="sRGB"><feFlood flood-opacity="0" result="BackgroundImageFix"/><feBlend in="SourceGraphic" in2="BackgroundImageFix" result="shape"/><feGaussianBlur stdDeviation="36" result="effect1_foregroundBlur"/></filter><filter id="filter1_di" x="265.154" y="384.025" width="497.59" height="401.494" filterUnits="userSpaceOnUse" color-interpolation-filters="sRGB"><feFlood flood-opacity="0" result="BackgroundImageFix"/><feColorMatrix in="SourceAlpha" values="0 0 0 0 0 0 0 0 0 0 0 0 0 0 0 0 0 0 127 0" result="hardAlpha"/><feOffset dx="8" dy="8"/><feGaussianBlur stdDeviation="8"/><feColorMatrix values="0 0 0 0 1 0 0 0 0 0.87451 0 0 0 0 0.423529 0 0 0 1 0"/><feBlend in2="BackgroundImageFix" result="effect1_dropShadow"/><feBlend in="SourceGraphic" in2="effect1_dropShadow" result="shape"/><feColorMatrix in="SourceAlpha" values="0 0 0 0 0 0 0 0 0 0 0 0 0 0 0 0 0 0 127 0" result="hardAlpha"/><feOffset dx="16" dy="16"/><feGaussianBlur stdDeviation="16"/><feComposite in2="hardAlpha" operator="arithmetic" k2="-1" k3="1"/><feColorMatrix values="0 0 0 0 0 0 0 0 0 0 0 0 0 0 0 0 0 0 0.25 0"/><feBlend in2="shape" result="effect2_innerShadow"/></filter><filter id="filter2_i" x="421.57" y="553.743" width="304.016" height="215.776" filterUnits="userSpaceOnUse" color-interpolation-filters="sRGB"><feFlood flood-opacity="0" result="BackgroundImageFix"/><feBlend in="SourceGraphic" in2="BackgroundImageFix" result="shape"/><feColorMatrix in="SourceAlpha" values="0 0 0 0 0 0 0 0 0 0 0 0 0 0 0 0 0 0 127 0" result="hardAlpha"/><feOffset dy="8"/><feGaussianBlur stdDeviation="8"/><feComposite in2="hardAlpha" operator="arithmetic" k2="-1" k3="1"/><feColorMatrix values="0 0 0 0 0.51276 0 0 0 0 0.0415645 0 0 0 0 0.0415645 0 0 0 0.4 0"/><feBlend in2="shape" result="effect1_innerShadow"/></filter><filter id="filter3_dd" x="178.445" y="535.049" width="128" height="191.881" filterUnits="userSpaceOnUse" color-interpolation-filters="sRGB"><feFlood flood-opacity="0" result="BackgroundImageFix"/><feColorMatrix in="SourceAlpha" values="0 0 0 0 0 0 0 0 0 0 0 0 0 0 0 0 0 0 127 0" result="hardAlpha"/><feOffset dy="2"/><feGaussianBlur stdDeviation="2"/><feComposite in2="hardAlpha" operator="out"/><feColorMatrix values="0 0 0 0 0.282353 0 0 0 0 0.054902 0 0 0 0 0.301961 0 0 0 0.2 0"/><feBlend in2="BackgroundImageFix" result="effect1_dropShadow"/><feColorMatrix in="SourceAlpha" values="0 0 0 0 0 0 0 0 0 0 0 0 0 0 0 0 0 0 127 0" result="hardAlpha"/><feOffset dy="8"/><feGaussianBlur stdDeviation="8"/><feComposite in2="hardAlpha" operator="out"/><feColorMatrix values="0 0 0 0 0.282353 0 0 0 0 0.054902 0 0 0 0 0.301961 0 0 0 0.2 0"/><feBlend in2="effect1_dropShadow" result="effect2_dropShadow"/><feBlend in="SourceGraphic" in2="effect2_dropShadow" result="shape"/></filter><filter id="filter4_dd" x="617.348" y="299.704" width="179.186" height="142.351" filterUnits="userSpaceOnUse" color-interpolation-filters="sRGB"><feFlood flood-opacity="0" result="BackgroundImageFix"/><feColorMatrix in="SourceAlpha" values="0 0 0 0 0 0 0 0 0 0 0 0 0 0 0 0 0 0 127 0" result="hardAlpha"/><feOffset dy="2"/><feGaussianBlur stdDeviation="2"/><feComposite in2="hardAlpha" operator="out"/><feColorMatrix values="0 0 0 0 0.282353 0 0 0 0 0.054902 0 0 0 0 0.301961 0 0 0 0.2 0"/><feBlend in2="BackgroundImageFix" result="effect1_dropShadow"/><feColorMatrix in="SourceAlpha" values="0 0 0 0 0 0 0 0 0 0 0 0 0 0 0 0 0 0 127 0" result="hardAlpha"/><feOffset dy="8"/><feGaussianBlur stdDeviation="8"/><feComposite in2="hardAlpha" operator="out"/><feColorMatrix values="0 0 0 0 0.282353 0 0 0 0 0.054902 0 0 0 0 0.301961 0 0 0 0.2 0"/><feBlend in2="effect1_dropShadow" result="effect2_dropShadow"/><feBlend in="SourceGraphic" in2="effect2_dropShadow" result="shape"/></filter><filter id="filter5_ddii" x="174.004" y="376.521" width="204.721" height="157.495" filterUnits="userSpaceOnUse" color-interpolation-filters="sRGB"><feFlood flood-opacity="0" result="BackgroundImageFix"/><feColorMatrix in="SourceAlpha" values="0 0 0 0 0 0 0 0 0 0 0 0 0 0 0 0 0 0 127 0" result="hardAlpha"/><feOffset dy="8"/><feGaussianBlur stdDeviation="8"/><feColorMatrix values="0 0 0 0 0.282353 0 0 0 0 0.054902 0 0 0 0 0.301961 0 0 0 0.2 0"/><feBlend in2="BackgroundImageFix" result="effect1_dropShadow"/><feColorMatrix in="SourceAlpha" values="0 0 0 0 0 0 0 0 0 0 0 0 0 0 0 0 0 0 127 0" result="hardAlpha"/><feOffset dy="2"/><feGaussianBlur stdDeviation="2"/><feComposite in2="hardAlpha" operator="out"/><feColorMatrix values="0 0 0 0 0.282353 0 0 0 0 0.054902 0 0 0 0 0.301961 0 0 0 0.2 0"/><feBlend in2="effect1_dropShadow" result="effect2_dropShadow"/><feBlend in="SourceGraphic" in2="effect2_dropShadow" result="shape"/><feColorMatrix in="SourceAlpha" values="0 0 0 0 0 0 0 0 0 0 0 0 0 0 0 0 0 0 127 0" result="hardAlpha"/><feOffset dx="6" dy="6"/><feGaussianBlur stdDeviation="16"/><feComposite in2="hardAlpha" operator="arithmetic" k2="-1" k3="1"/><feColorMatrix values="0 0 0 0 0.76276 0 0 0 0 0.388636 0 0 0 0 0.122215 0 0 0 1 0"/><feBlend in2="shape" result="effect3_innerShadow"/><feColorMatrix in="SourceAlpha" values="0 0 0 0 0 0 0 0 0 0 0 0 0 0 0 0 0 0 127 0" result="hardAlpha"/><feOffset dx="-6" dy="-6"/><feGaussianBlur stdDeviation="16"/><feComposite in2="hardAlpha" operator="arithmetic" k2="-1" k3="1"/><feColorMatrix values="0 0 0 0 0.354427 0 0 0 0 0.180009 0 0 0 0 0.0538352 0 0 0 1 0"/><feBlend in2="effect3_innerShadow" result="effect4_innerShadow"/></filter><filter id="filter6_ddii" x="437.277" y="224.521" width="204.721" height="157.495" filterUnits="userSpaceOnUse" color-interpolation-filters="sRGB"><feFlood flood-opacity="0" result="BackgroundImageFix"/><feColorMatrix in="SourceAlpha" values="0 0 0 0 0 0 0 0 0 0 0 0 0 0 0 0 0 0 127 0" result="hardAlpha"/><feOffset dy="8"/><feGaussianBlur stdDeviation="8"/><feColorMatrix values="0 0 0 0 0.282353 0 0 0 0 0.054902 0 0 0 0 0.301961 0 0 0 0.2 0"/><feBlend in2="BackgroundImageFix" result="effect1_dropShadow"/><feColorMatrix in="SourceAlpha" values="0 0 0 0 0 0 0 0 0 0 0 0 0 0 0 0 0 0 127 0" result="hardAlpha"/><feOffset dy="2"/><feGaussianBlur stdDeviation="2"/><feComposite in2="hardAlpha" operator="out"/><feColorMatrix values="0 0 0 0 0.282353 0 0 0 0 0.054902 0 0 0 0 0.301961 0 0 0 0.2 0"/><feBlend in2="effect1_dropShadow" result="effect2_dropShadow"/><feBlend in="SourceGraphic" in2="effect2_dropShadow" result="shape"/><feColorMatrix in="SourceAlpha" values="0 0 0 0 0 0 0 0 0 0 0 0 0 0 0 0 0 0 127 0" result="hardAlpha"/><feOffset dx="6" dy="6"/><feGaussianBlur stdDeviation="16"/><feComposite in2="hardAlpha" operator="arithmetic" k2="-1" k3="1"/><feColorMatrix values="0 0 0 0 0.76276 0 0 0 0 0.388636 0 0 0 0 0.122215 0 0 0 1 0"/><feBlend in2="shape" result="effect3_innerShadow"/><feColorMatrix in="SourceAlpha" values="0 0 0 0 0 0 0 0 0 0 0 0 0 0 0 0 0 0 127 0" result="hardAlpha"/><feOffset dx="-6" dy="-6"/><feGaussianBlur stdDeviation="16"/><feComposite in2="hardAlpha" operator="arithmetic" k2="-1" k3="1"/><feColorMatrix values="0 0 0 0 0.354427 0 0 0 0 0.180009 0 0 0 0 0.0538352 0 0 0 1 0"/><feBlend in2="effect3_innerShadow" result="effect4_innerShadow"/></filter><radialGradient id="paint0_radial" cx="0" cy="0" r="1" gradientUnits="userSpaceOnUse" gradientTransform="rotate(61.389 -518.442 455.052) scale(100.24)"><stop stop-color="#FFCE21"/><stop offset="1" stop-color="#F2911E"/></radialGradient><radialGradient id="paint1_radial" cx="0" cy="0" r="1" gradientUnits="userSpaceOnUse" gradientTransform="rotate(61.389 -25.69 33.476) scale(100.24)"><stop stop-color="#FFCE21"/><stop offset="1" stop-color="#F2911E"/></radialGradient><radialGradient id="paint2_radial" cx="0" cy="0" r="1" gradientUnits="userSpaceOnUse" gradientTransform="rotate(78.559 21.719 365.858) scale(685.624)"><stop stop-color="#FFEA9F"/><stop offset=".123" stop-color="#FFE380"/><stop offset=".416" stop-color="#FFD250"/><stop offset=".644" stop-color="#FFC122"/><stop offset="1" stop-color="#FFB422"/></radialGradient><radialGradient id="paint3_radial" cx="0" cy="0" r="1" gradientUnits="userSpaceOnUse" gradientTransform="rotate(78.559 21.719 365.858) scale(685.624)"><stop offset=".557" stop-color="#E35D12" stop-opacity="0"/><stop offset="1" stop-color="#FF24F6" stop-opacity=".3"/></radialGradient><linearGradient id="paint4_linear" x1="479.999" y1="504.575" x2="607.999" y2="726.277" gradientUnits="userSpaceOnUse"><stop stop-color="#60310F"/><stop offset=".451" stop-color="#7D3807"/></linearGradient><linearGradient id="paint5_linear" x1="527.997" y1="587.714" x2="607.997" y2="726.278" gradientUnits="userSpaceOnUse"><stop stop-color="#F04343"/><stop offset=".232" stop-color="#EF4343"/><stop offset=".378" stop-color="#E13737"/><stop offset="1" stop-color="#C72121"/></linearGradient><linearGradient id="paint6_linear" x1="194" y1="599" x2="290" y2="670" gradientUnits="userSpaceOnUse"><stop stop-color="#3EDCFF"/><stop offset="1" stop-color="#00B2FE"/></linearGradient><linearGradient id="paint7_linear" x1="659.543" y1="384.921" x2="769.031" y2="337.283" gradientUnits="userSpaceOnUse"><stop stop-color="#3EDCFF"/><stop offset="1" stop-color="#00B2FE"/></linearGradient><clipPath id="clip0"><path fill="#fff" d="M0 0h1024v1024H0z"/></clipPath></defs></svg>