<svg id="Layer_1" height="512" viewBox="0 0 512 512" width="512" xmlns="http://www.w3.org/2000/svg"><g><path d="m401.941 126.059-96-96c-9.002-9.002-21.211-14.059-33.941-14.059h-32c-12.73 0-24.939 5.057-33.941 14.059l-96 96c-13.728 13.728-17.835 34.374-10.405 52.31 7.429 17.936 24.932 29.631 44.346 29.631h32c5.504 0 10.908-.949 16-2.75v98.75c0 26.51 21.49 48 48 48h32c26.51 0 48-21.49 48-48v-98.75c5.092 1.8 10.496 2.75 16 2.75h32c19.414 0 36.917-11.695 44.346-29.631 7.43-17.937 3.323-38.582-10.405-52.31z" fill="#e1322d"/><g><path d="m272 496h-32c-26.51 0-48-21.49-48-48v-32c0-26.51 21.49-48 48-48h32c26.51 0 48 21.49 48 48v32c0 26.51-21.49 48-48 48z" fill="#f06423"/></g><path d="m369.941 126.059-96-96c-18.745-18.745-49.137-18.745-67.882 0l-96 96c-18.746 18.745-18.746 49.137 0 67.882 18.745 18.745 49.137 18.745 67.882 0l14.059-14.059v124.118c0 26.51 21.49 48 48 48 26.51 0 48-21.49 48-48v-124.118l14.059 14.059c9.373 9.373 21.657 14.059 33.941 14.059s24.568-4.686 33.941-14.059c18.746-18.745 18.746-49.137 0-67.882z" fill="#f04b37"/><g><path d="m240 496c-26.51 0-48-21.49-48-48v-32c0-26.51 21.49-48 48-48 26.51 0 48 21.49 48 48v32c0 26.51-21.49 48-48 48z" fill="#faa019"/></g></g></svg>