<svg xmlns="http://www.w3.org/2000/svg" xmlns:xlink="http://www.w3.org/1999/xlink" width="100" height="100" viewBox="0 0 100 100"><defs><linearGradient id="a" x1="1.272" y1="-0.35" x2="0.11" y2="0.93" gradientUnits="objectBoundingBox"><stop offset="0" stop-color="#38b8f2"/><stop offset="1" stop-color="#843cf6"/></linearGradient></defs><ellipse cx="50" cy="50" rx="50" ry="50" opacity="0.402" fill="url(#a)"/><g transform="translate(8.824 20.258)"><path d="M932.477,1249.481a1.517,1.517,0,0,0,1.464-1.923,10.731,10.731,0,0,0-10.327-7.818H907.926a10.731,10.731,0,0,0-10.327,7.818,1.517,1.517,0,0,0,1.464,1.923Z" transform="translate(-874.594 -1189.997)" fill="#f7f7f7"/><g transform="translate(24.781 49.743)"><path d="M930.849,1239.74h-1.433c-4.949,0-9.013,4.279-9.453,9.741h3.385C923.7,1244.019,926.922,1239.74,930.849,1239.74Z" transform="translate(-919.962 -1239.74)" fill="#e5e5e5"/><path d="M1189.323,1239.74h-1.433c3.927,0,7.152,4.279,7.5,9.741h3.385C1198.335,1244.019,1194.271,1239.74,1189.323,1239.74Z" transform="translate(-1165.986 -1239.74)" fill="#fff"/></g><g transform="translate(22.093)"><g transform="translate(29.345)"><rect width="2.581" height="6.958" transform="translate(3.12 7.864)" fill="#f7f7f7"/><rect width="0.641" height="6.958" transform="translate(3.402 7.864)" fill="#e5e5e5"/><path d="M1250.438,631.279a4.411,4.411,0,1,0,4.411,4.411A4.416,4.416,0,0,0,1250.438,631.279Zm0,6.24a1.83,1.83,0,1,1,1.83-1.83A1.832,1.832,0,0,1,1250.438,637.52Z" transform="translate(-1246.027 -631.279)" fill="#f7f7f7"/><path d="M1264.469,646.56a3.162,3.162,0,1,0,3.162,3.162A3.165,3.165,0,0,0,1264.469,646.56Zm0,4.989a1.827,1.827,0,1,1,1.827-1.827A1.829,1.829,0,0,1,1264.469,651.549Z" transform="translate(-1260.059 -645.311)" fill="#e5e5e5"/></g><rect width="2.581" height="6.958" transform="translate(3.12 7.864)" fill="#f7f7f7"/><rect width="0.641" height="6.958" transform="translate(3.402 7.864)" fill="#e5e5e5"/><path d="M891.49,631.279a4.411,4.411,0,1,0,4.411,4.411A4.416,4.416,0,0,0,891.49,631.279Zm0,6.24a1.83,1.83,0,1,1,1.83-1.83A1.832,1.832,0,0,1,891.49,637.52Z" transform="translate(-887.079 -631.279)" fill="#f7f7f7"/><path d="M905.522,646.56a3.162,3.162,0,1,0,3.162,3.162A3.165,3.165,0,0,0,905.522,646.56Zm0,4.989a1.827,1.827,0,1,1,1.827-1.827A1.829,1.829,0,0,1,905.522,651.549Z" transform="translate(-901.111 -645.311)" fill="#e5e5e5"/></g><path d="M4.416,0h14.9a4.416,4.416,0,0,1,4.416,4.416v0a0,0,0,0,1,0,0H0a0,0,0,0,1,0,0v0A4.416,4.416,0,0,1,4.416,0Z" transform="translate(53.044 45.755) rotate(180)" fill="#f7f7f7"/><g transform="translate(0 22.586)"><g transform="translate(0 0)"><path d="M0,0H5.295a5.295,5.295,0,0,1,5.295,5.295v0a5.295,5.295,0,0,1-5.295,5.295H0a0,0,0,0,1,0,0V0A0,0,0,0,1,0,0Z" transform="translate(10.589 10.589) rotate(-180)" fill="#f7f7f7"/><path d="M631.659,912.854h0a5.3,5.3,0,0,1,5.295-5.295H635.4a5.3,5.3,0,0,0-5.295,5.295h0a5.294,5.294,0,0,0,5.295,5.294h1.55A5.3,5.3,0,0,1,631.659,912.854Z" transform="translate(-629.024 -907.559)" fill="#e5e5e5"/></g><g transform="translate(71.763)"><path d="M0,0H5.295a5.295,5.295,0,0,1,5.295,5.295v0a5.295,5.295,0,0,1-5.295,5.295H0a0,0,0,0,1,0,0V0A0,0,0,0,1,0,0Z" fill="#f7f7f7"/><path d="M1532.477,912.854h0a5.3,5.3,0,0,1-5.295,5.294h1.55a5.294,5.294,0,0,0,5.294-5.294h0a5.294,5.294,0,0,0-5.294-5.295h-1.55A5.3,5.3,0,0,1,1532.477,912.854Z" transform="translate(-1524.523 -907.559)" fill="#fff"/></g></g><path d="M736.263,769.431h-38.69a16.587,16.587,0,0,0-16.587,16.587h0A16.587,16.587,0,0,0,697.573,802.6h38.69a16.587,16.587,0,0,0,16.587-16.587h0A16.587,16.587,0,0,0,736.263,769.431Z" transform="translate(-675.742 -758.137)" fill="#f7f7f7"/><g transform="translate(5.244 11.294)"><path d="M684.211,786.018h0c0-9.161,6.76-16.587,15.1-16.587h-1.736a16.587,16.587,0,0,0-16.587,16.587h0A16.587,16.587,0,0,0,697.573,802.6h1.736C690.97,802.6,684.211,795.178,684.211,786.018Z" transform="translate(-680.986 -769.431)" fill="#e5e5e5"/><path d="M1337.639,769.431H1335.9c8.339,0,15.1,7.426,15.1,16.587h0c0,9.161-6.76,16.587-15.1,16.587h1.736a16.587,16.587,0,0,0,16.587-16.587h0A16.587,16.587,0,0,0,1337.639,769.431Z" transform="translate(-1282.362 -769.431)" fill="#fff"/></g><path d="M794.757,855.892h-38.69a11.379,11.379,0,1,1,0-22.758h38.69a11.379,11.379,0,0,1,0,22.758Z" transform="translate(-734.236 -816.632)" fill="#2b2b3f"/><path d="M756.067,834.956h38.69c6.115,0,11.119,4.461,11.368,10.031.006-.157.011-.315.011-.474a11.392,11.392,0,0,0-11.379-11.379h-38.69a11.392,11.392,0,0,0-11.379,11.379c0,.159,0,.317.011.474C744.948,839.417,749.952,834.956,756.067,834.956Z" transform="translate(-734.236 -816.632)" fill="#1e1e28"/><path d="M1059.262,1010.8a1.34,1.34,0,0,0-1.835-.471,7.2,7.2,0,0,1-7.891,0,1.339,1.339,0,1,0-1.364,2.306,9.8,9.8,0,0,0,10.62,0A1.34,1.34,0,0,0,1059.262,1010.8Z" transform="translate(-1012.306 -979.167)" fill="#f7f7f7"/><g transform="translate(16.803 21.249)"><circle cx="4.362" cy="4.362" r="4.362" transform="translate(0 3.338) rotate(-22.5)" fill="#46e6f2"/><circle cx="4.362" cy="4.362" r="4.362" transform="translate(37.801 8.942) rotate(-76.717)" fill="#46e6f2"/></g></g></svg>