<svg xmlns="http://www.w3.org/2000/svg" xmlns:xlink="http://www.w3.org/1999/xlink" width="512" height="512" viewBox="0 0 512 512"><defs><clipPath id="a"><rect width="512" height="512"/></clipPath></defs><g clip-path="url(#a)"><g transform="translate(193.5 238)"><g transform="translate(61.672 197.598)"><path d="M0-12.6C32.381-12.6,58.672-6.953,58.672,0S32.381,12.6,0,12.6-58.672,6.953-58.672,0-32.381-12.6,0-12.6Z" fill="rgba(0,0,0,0.25)"/><path d="M0-12.6C32.381-12.6,58.672-6.953,58.672,0S32.381,12.6,0,12.6-58.672,6.953-58.672,0-32.381-12.6,0-12.6Z" fill="rgba(0,0,0,0)"/><path d="M0-12.6C32.381-12.6,58.672-6.953,58.672,0S32.381,12.6,0,12.6-58.672,6.953-58.672,0-32.381-12.6,0-12.6Zm0,0C-32.381-12.6-58.672-6.953-58.672,0S-32.381,12.6,0,12.6,58.672,6.953,58.672,0,32.381-12.6,0-12.6Z" fill="#fff"/></g></g><g transform="translate(332.831 291.881)"><g transform="translate(23.046 51.195)"><path d="M18.467-3.442c4.329,27.087-1.8,50.586-13.694,52.486S-5.5,28.167-9.83,1.08-22.8-47.144-10.9-49.045,14.139-30.528,18.467-3.442Z" fill="#fff"/></g></g><g transform="translate(132.634 293.881)"><g transform="translate(23.045 51.195)"><path d="M-18.466-3.442c-4.329,27.087,1.8,50.586,13.694,52.486S5.5,28.167,9.831,1.08,22.8-47.144,10.9-49.045-14.137-30.528-18.466-3.442Z" fill="#fff"/></g></g><g transform="translate(180.856 277.89)"><g transform="translate(75.233 66.18)"><path d="M-74.983-14.245C-74.983-65.43-41.412-65.93,0-65.93s74.983.5,74.983,51.685S41.413,65.93,0,65.93-74.983,36.94-74.983-14.245Z" fill="#fff"/></g><g transform="translate(75.233 16.501)"><path d="M54.107,0C54.107,8.135,29.882,14.73,0,14.73S-54.107,8.135-54.107,0-29.882-14.73,0-14.73,54.107-8.136,54.107,0Z" fill="#e1e1e1"/></g><g transform="translate(37.505 50.393)"><g transform="translate(0 0)"><path d="M2.13,8.028,4.291,6.966a17.284,17.284,0,0,0,1.682-.789l-.055-1.1a.727.727,0,0,1,.841.017,8.813,8.813,0,0,0,1.475-.772c.1-.171.12-.121.12-.121l.3.476.026.039s2.076-.961,2.179-.961,6.433-1.234,6.551-1.407c0,0,.377-.531.582-.463a.382.382,0,0,1,.224.325l.789-.068,1,.462.411-.05a3.714,3.714,0,0,1,3.275-.617A5.335,5.335,0,0,0,25.251,1.9c.24-.137,2.023-.532,5.763.548a.5.5,0,0,0,.292.225l.36.034.137-.121s.634-.2,3.654.635c.257.12,3.417.755,3.819.481,0,0,.259.343.532.343s.326.12.326.12.428-.343,1.578.052c.086.034,1.578.53,1.682.53s.291-.358,1.045-.017c.652.36.8.087.8.087a3.314,3.314,0,0,0,1.442.171,2.755,2.755,0,0,1,2.041.5l.772.1s1.13-.566,1.525.378l1.563.017a.92.92,0,0,1,1.165.1l.429.086a.857.857,0,0,1,1.045-.137l1.562.292s.6-.668,1.063-.24l1.63-.549s.686-.1.789-.395a.688.688,0,0,1,.738-.224l.738-.377s.2-.068.257.051l.446.241a.964.964,0,0,1,1.338-.514v.05s-.137-.84.1-.9a1.619,1.619,0,0,1,.686.069s.136-.395.292-.463a.762.762,0,0,0,.292-.858s.086-.224.275.051a2.478,2.478,0,0,0,.343.412l.136-.858A2.578,2.578,0,0,1,65.536,0s1.13,1.475,1.319,1.44-.24-.891-.24-.891.447.617.67.531a.524.524,0,0,1,.65.358.512.512,0,0,1,.019.1c.343.343,1.081.943,1.081.943l.411.892.291-.1.5.926s1.493,1.1,1.2,1.87c0,0,1.955,1.424,1.372,2.4l.5,1.783a1.051,1.051,0,0,1,.789.668,3.1,3.1,0,0,0,.445.876l-.189.771a1.37,1.37,0,0,1,1.1,1.013s-.069.635-1.063.325v.72H72.729l-.395.172.531,1.733.052.531L72.8,18.542l-.463.531-.96.652s0,.257-.464.36-2.384.514-2.384.514l-1.664.72a1.809,1.809,0,0,1-1.389.481l-1.507.532a10.079,10.079,0,0,0-2.162.392c-.771.293-1.527.585-1.938.361a27.322,27.322,0,0,1-4.9-.343l-.755.085s-.481.9-1.6-.051l-.24.428-3.518-1.062-.927.292a1.251,1.251,0,0,1-.738-.395,9.694,9.694,0,0,0-1.1.189,8.53,8.53,0,0,1-2.454-.721c-.651-.445-.875-.36-.875-.36s-.428.189.018,1.236a7.623,7.623,0,0,0,.051,2.28.954.954,0,0,1-.514,1.149c-.086,0-1.749.771-1.441,2.128,0,0-.222,1.525-.222,2.194a4.993,4.993,0,0,1-.515,1.887A4.187,4.187,0,0,0,40,33.5c-.035.377-.36.618-.617.5,0,0,.755,2.933.343,4.014l.531.531-1.423,2.779s-.24.017.394,3.927c0,0-.2,4.957-.823,9.023A4.645,4.645,0,0,1,34.531,58.3s-.876-.155-1.766-2.865a4.254,4.254,0,0,1,.257-.789s0-.068-2.452-4.135a10.455,10.455,0,0,1-1.184-3.635c.052-.137-.154-1.183-1.92-3.6a8.282,8.282,0,0,1-1.113-2.312c0-.189.685-.463.188-1.045-.652-1.508-2.727-4.1-2.023-5.712a2.754,2.754,0,0,1,1.234-1.149l-.857-1.609.841-1.338.342.2-.121-.464.276-.153s-.343.995.309.445.446-.5.446-.5l-.275-.411s2.179-1.765,1.887-3.258c0,0,1.012.137,1.441-1.372a4.668,4.668,0,0,0,2.675-1.508l.241.2.034-.1.086.274.171-.376s.378.376.481.343.086-.617,1.407-1.1a3.413,3.413,0,0,0,1.458-1.185s1.339,1.493,1.852,1.493c.738.275,1.308-.772,1.308-.772s.6-.755.9-.668c0,0,.516.349,1.767-.119l.049-.019a8.228,8.228,0,0,0-.943-.445l-.292.085a6.988,6.988,0,0,0-1.492-.823s-.515-.876-.9-.652l-.617.017s-.172-.241-.395.257-.377.189-.394,0a3.446,3.446,0,0,0-.139-.549s-.582-.566-.8-.531-.222.342-.222.342-.652-.531-1.064-.275c0,0-.309-.41-.995.069,0,0,.31-1.235-.515-.343a2.456,2.456,0,0,0-2.144-.7s-.565-.549-.788-.018-.051,0-.051,0-1.766-.48-1.938-.24c0,0,.035.531-.154.531a1.256,1.256,0,0,1-.515-.257.662.662,0,0,0-.668-.635.678.678,0,0,1-.7-.583l-.2-.051s-.034.549-.411.429a1.9,1.9,0,0,0-.309.41c-.1.208-.222.036-.394-.1a2.524,2.524,0,0,1-.326-.326l-.567-.051-.326-.789h-.343l-.12.978s-1.407-.36-1.818.309a1.38,1.38,0,0,0-1.184.464c-.154.085-.634.257-.634.257s-.051-1.062-.377-.771c-.326.12-.652.67-.721.789,0,0-.428.531-.857-.2l-.7.617-.686-.172-.258-.257s-.72-.1-.789-.017c0,0-.309.5-.445.5s-.428-.395-.428-.395-.2.48-.36.463a1.379,1.379,0,0,0-.532-.756l-.31-.445-1.608.617s-.051.583-.189.583-.428-.411-.428-.411l-2.436.566-.136.1s-.532.069-.721.1S8,18.908,8,18.908s-1.062-.086-1.013-.2.789-.018.893-.018c0,0-.36-.19-.258-.359s.2-.172.2-.172l-.136-.617.086-.155L7.08,16.6s-.1-.841.327-.463a3.482,3.482,0,0,0,.566.258c.051-.017.051-.172.051-.172l.394-.258.721.172.121-.1s.035-.6.411-.566a.273.273,0,0,1,.221.174.459.459,0,0,1,.019.048l-.463-1.269s.017-.531.668-.086a4.148,4.148,0,0,1,.67.789l.445-.068s0-.394.121-.412a1.168,1.168,0,0,1,.325.036l-.428-.9.069-.532a10.711,10.711,0,0,0,1.389-.7c.172-.172.841-.155.926-.137a2.018,2.018,0,0,0-.48-1.288s-.634-1.012.068-1.028l.19-.24-.051-.137-.2-1.578-.738.377L11.2,8.9l-.67-.36S9.49,9.707,8.8,9.211l-1.851.652a11.966,11.966,0,0,0-1.338-.189,3.38,3.38,0,0,1-.2.927,3.1,3.1,0,0,1-1.458.6,9.752,9.752,0,0,0-1.217,1.372s-1.407-.034-1.459-1.045l.069-.293S.318,10.894.216,10.894c0,0-.463-.275-.034-.841S2.01,8.253,2.13,8.028" transform="translate(0 0)" fill="#bebaea"/></g></g></g><g transform="translate(368.463 178.01)"><g transform="translate(20.767 31.264)"><path d="M0,31.014H0A20.578,20.578,0,0,1-20.518,10.5V-10.5A20.579,20.579,0,0,1,0-31.014,20.578,20.578,0,0,1,20.518-10.5V10.5A20.577,20.577,0,0,1,0,31.014Z" fill="#e1e1e1"/></g></g><g transform="translate(101.992 178.01)"><g transform="translate(20.767 31.264)"><path d="M0,31.014H0A20.578,20.578,0,0,1-20.518,10.5V-10.5A20.579,20.579,0,0,1,0-31.014,20.578,20.578,0,0,1,20.518-10.5V10.5A20.577,20.577,0,0,1,0,31.014Z" fill="#e1e1e1"/></g></g><g transform="translate(122.733 101.593)"><g transform="translate(133.432 84.897)"><path d="M133.182,24.189C133.182,84.3,73.554,84.647,0,84.647S-133.182,84.3-133.182,24.189-73.555-84.647,0-84.647,133.182-35.92,133.182,24.189Z" fill="#fff"/></g></g><g transform="translate(151.607 173.305)"><g transform="translate(104.775 35.425)"><path d="M78.058,35.175H-78.059A26.544,26.544,0,0,1-104.525,8.709V-8.709A26.544,26.544,0,0,1-78.059-35.175H78.058A26.544,26.544,0,0,1,104.525-8.709V8.709A26.544,26.544,0,0,1,78.058,35.175Z" fill="#333"/></g><g transform="translate(138.827 35.425)"><path d="M-70.473-35.175H44.006A26.544,26.544,0,0,1,70.473-8.709V8.709A26.544,26.544,0,0,1,44.006,35.175H-15.3s-3.857-17.4-20.923-38.957S-70.473-35.175-70.473-35.175Z" fill="#222"/></g></g><g transform="translate(311.731 186.976)"><g transform="translate(7.814 21.754)"><path d="M0,21.505H0A7.577,7.577,0,0,1-7.564,13.96V-13.959A7.577,7.577,0,0,1,0-21.505a7.577,7.577,0,0,1,7.564,7.546V13.96A7.577,7.577,0,0,1,0,21.505Z" fill="#5e81f4"/></g></g><g transform="translate(185.404 186.976)"><g transform="translate(7.814 21.754)"><path d="M0,21.505H0A7.577,7.577,0,0,1-7.564,13.96V-13.959A7.577,7.577,0,0,1,0-21.505a7.576,7.576,0,0,1,7.563,7.546V13.96A7.576,7.576,0,0,1,0,21.505Z" fill="#5e81f4"/></g></g></g></svg>