<svg xmlns="http://www.w3.org/2000/svg" xmlns:xlink="http://www.w3.org/1999/xlink" width="512" height="512" viewBox="0 0 512 512"><defs><clipPath id="a"><path d="M0,0H512V512H0Z"/></clipPath><linearGradient id="c" x1="0.052" y1="0.406" x2="0.829" y2="0.399" gradientUnits="objectBoundingBox"><stop offset="0" stop-color="#ebf4fc"/><stop offset="0.65" stop-color="#dde1e5"/><stop offset="1" stop-color="#cfcfcf"/></linearGradient><linearGradient id="d" x1="0.027" y1="0.791" x2="0.873" y2="0.796" xlink:href="#c"/><linearGradient id="e" x1="0.139" y1="0.472" x2="0.673" y2="0.489" xlink:href="#c"/><linearGradient id="f" x1="0.573" y1="0.466" x2="-0.001" y2="0.405" xlink:href="#c"/></defs><g clip-path="url(#a)"><g transform="translate(13.274)" clip-path="url(#a)"><g transform="translate(189.156 421.926)" opacity="0.6"><path d="M-65.478-29.5c32.574,0,59.022,6.267,59.022,13.985S-32.9-1.53-65.478-1.53-124.5-7.8-124.5-15.515-98.052-29.5-65.478-29.5Z" transform="translate(124.5 29.5)" fill="#c4c4c4"/><path d="M-65.478-29.5c32.574,0,59.022,6.267,59.022,13.985S-32.9-1.53-65.478-1.53-124.5-7.8-124.5-15.515-98.052-29.5-65.478-29.5Z" transform="translate(124.5 29.5)" fill="none"/></g><g transform="translate(44.103 96.433)"><g transform="translate(51.837 48.714)"><path d="M-2.23,1.033-13.17-9.908l3.263-3.263L1.033-2.23Z" transform="translate(11.539 11.539)" fill="#7a6fed"/><path d="M-9.908,1.033-13.17-2.23-2.23-13.17,1.033-9.908Z" transform="translate(11.759 11.539)" fill="#7a6fed"/><path d="M-2.23,1.033-13.168-9.908l3.263-3.262L1.033-2.229Z" transform="translate(310.822 200.276)" fill="#7a6fed"/><path d="M-9.905,1.033l-3.263-3.262L-2.23-13.17,1.033-9.908Z" transform="translate(311.042 200.276)" fill="#7a6fed"/></g><path d="M-1.974.915l-9.687-9.687,2.889-2.889L.915-1.974Z" transform="translate(31.186 184.68)" fill="#5e81f4"/><path d="M-8.773.915l-2.889-2.889,9.687-9.687L.915-8.773Z" transform="translate(31.382 184.68)" fill="#5e81f4"/><path d="M-8.786-19.008A10.237,10.237,0,0,1,1.441-8.784,10.237,10.237,0,0,1-8.786,1.441,10.236,10.236,0,0,1-19.01-8.784,10.236,10.236,0,0,1-8.786-19.008Zm0,15.835A5.618,5.618,0,0,0-3.173-8.784a5.618,5.618,0,0,0-5.613-5.611A5.617,5.617,0,0,0-14.4-8.784,5.617,5.617,0,0,0-8.786-3.173Z" transform="translate(16.703 102.934)" fill="#7a6fed"/><path d="M-2.232-6.287A4.059,4.059,0,0,1,1.822-2.232,4.059,4.059,0,0,1-2.232,1.822,4.059,4.059,0,0,1-6.287-2.232,4.059,4.059,0,0,1-2.232-6.287Z" transform="translate(362.021 71.329)" fill="#5e81f4"/><path d="M-2.232-6.287A4.059,4.059,0,0,1,1.822-2.232,4.059,4.059,0,0,1-2.232,1.822,4.059,4.059,0,0,1-6.287-2.232,4.059,4.059,0,0,1-2.232-6.287Z" transform="translate(168.007 4.244)" fill="#5e81f4"/></g><g transform="translate(84.859 167.348)"><path d="M-29.189-69C-14.668-69-2.878-54.342-2.878-36.289S-14.668-3.578-29.189-3.578-55.5-18.236-55.5-36.289-43.71-69-29.189-69Z" transform="translate(55.5 69)" fill="#e1e1e1"/><path d="M-29.189-69C-14.668-69-2.878-54.342-2.878-36.289S-14.668-3.578-29.189-3.578-55.5-18.236-55.5-36.289-43.71-69-29.189-69Z" transform="translate(55.5 69)" fill="none"/></g><g transform="translate(354.607 167.348)"><path d="M-29.189-69C-14.668-69-2.878-54.342-2.878-36.289S-14.668-3.578-29.189-3.578-55.5-18.236-55.5-36.289-43.71-69-29.189-69Z" transform="translate(55.5 69)" fill="#e1e1e1"/><path d="M-29.189-69C-14.668-69-2.878-54.342-2.878-36.289S-14.668-3.578-29.189-3.578-55.5-18.236-55.5-36.289-43.71-69-29.189-69Z" transform="translate(55.5 69)" fill="none"/></g><g transform="translate(169.372 270.467)"><g transform="translate(0 0)"><path d="M-108.9,30.746c-5.866,0-64.948-5.215-72.381,34.109-3.877,20.515-1.1,62.128,22.475,85.528,18.278,18.141,44.619,17.232,50.853,17.371,6.421.143,37.335,1.232,55.222-16.831C-31,128.977-25.94,85.264-30.8,64-38,32.542-84.726,30.746-108.9,30.746Z" transform="translate(182.732 -30.517)" fill="url(#c)"/><path d="M-108.9,30.746c-5.866,0-64.948-5.215-72.381,34.109-3.877,20.515-1.1,62.128,22.475,85.528,18.278,18.141,44.619,17.232,50.853,17.371,6.421.143,37.335,1.232,55.222-16.831C-31,128.977-25.94,85.264-30.8,64-38,32.542-84.726,30.746-108.9,30.746Z" transform="translate(182.732 -30.517)" fill="none"/></g><g transform="translate(21.68 2.6)"><path d="M-59.693-32.5c29.7,0,53.807,6.9,53.807,15.407S-30-1.685-59.693-1.685-113.5-8.589-113.5-17.093-89.389-32.5-59.693-32.5Z" transform="translate(113.5 32.5)" fill="#d1d1d1"/></g></g><g transform="translate(108.314 90.436)"><path d="M-49.113-290.813c-55.941-86.281-212.385-70.163-249.363,3.793-13.476,26.952-36.03,100.5,50.252,109.985,16.27,1.788,150.756.948,150.756.948s35.348-1.91,52.341-26.765C-32.331-221.572-29.192-260.088-49.113-290.813Z" transform="translate(311.526 349.237)" fill="url(#d)"/><path d="M-49.113-290.813c-55.941-86.281-212.385-70.163-249.363,3.793-13.476,26.952-36.03,100.5,50.252,109.985,16.27,1.788,150.756.948,150.756.948s35.348-1.91,52.341-26.765C-32.331-221.572-29.192-260.088-49.113-290.813Z" transform="translate(311.526 349.237)" fill="none"/></g><g transform="translate(140.76 161.185)"><g transform="translate(0 0)"><path d="M-11.749-50.659v16.119C-11.749-17.8-25.72-4.2-42.927-4.2H-195.406c-17.207,0-31.178-13.6-31.178-30.341V-50.659C-226.584-67.4-212.613-81-195.406-81H-42.927C-25.72-81-11.749-67.4-11.749-50.659Z" transform="translate(226.584 81)" fill="#2b2b3f"/><path d="M-11.749-50.659v16.119C-11.749-17.8-25.72-4.2-42.927-4.2H-195.406c-17.207,0-31.178-13.6-31.178-30.341V-50.659C-226.584-67.4-212.613-81-195.406-81H-42.927C-25.72-81-11.749-67.4-11.749-50.659Z" transform="translate(226.584 81)" fill="none"/></g><g transform="translate(84.425 0.047)"><path d="M-29.919-199.829c-.656,2.622,3.081,49.9-35.081,75.5H40.719s23.23.948,24.652-38.163c.715-19.663-6.756-36.741-27.378-37.215S-29.919-199.592-29.919-199.829Z" transform="translate(65 199.901)" fill="#33334d"/><path d="M-29.919-199.829c-.656,2.622,3.081,49.9-35.081,75.5H40.719s23.23.948,24.652-38.163c.715-19.663-6.756-36.741-27.378-37.215S-29.919-199.592-29.919-199.829Z" transform="translate(65 199.901)" fill="none"/></g></g><g transform="translate(172.563 176.83)"><path d="M-.933-37.967v27.022A8.538,8.538,0,0,1-9.467-2.411,8.538,8.538,0,0,1-18-10.944V-37.967A8.538,8.538,0,0,1-9.467-46.5,8.538,8.538,0,0,1-.933-37.967Z" transform="translate(18 46.5)" fill="#46e6f2"/><path d="M-.933-37.967v27.022A8.538,8.538,0,0,1-9.467-2.411,8.538,8.538,0,0,1-18-10.944V-37.967A8.538,8.538,0,0,1-9.467-46.5,8.538,8.538,0,0,1-.933-37.967Z" transform="translate(18 46.5)" fill="none"/></g><g transform="translate(304.356 176.83)"><path d="M-.933-37.967v27.022A8.538,8.538,0,0,1-9.467-2.411,8.538,8.538,0,0,1-18-10.944V-37.967A8.538,8.538,0,0,1-9.467-46.5,8.538,8.538,0,0,1-.933-37.967Z" transform="translate(18 46.5)" fill="#46e6f2"/><path d="M-.933-37.967v27.022A8.538,8.538,0,0,1-9.467-2.411,8.538,8.538,0,0,1-18-10.944V-37.967A8.538,8.538,0,0,1-9.467-46.5,8.538,8.538,0,0,1-.933-37.967Z" transform="translate(18 46.5)" fill="none"/></g><g transform="translate(121.827 291.227)"><path d="M-263.811,78.665c-27.97,34.607-18.252,76.089-14.459,88.889,2.132,7.2,11.384,9.682,16.467,6.771,3.96-2.267,4.177-9.022,4.392-11.512,4.267-49.3,11.378-72.533,13.274-77.748.883-2.429-.253-8.461-4.435-10.128C-253.37,73.024-261.5,75.808-263.811,78.665Z" transform="translate(283.02 -74.306)" fill="url(#e)"/><path d="M-263.811,78.665c-27.97,34.607-18.252,76.089-14.459,88.889,2.132,7.2,11.384,9.682,16.467,6.771,3.96-2.267,4.177-9.022,4.392-11.512,4.267-49.3,11.378-72.533,13.274-77.748.883-2.429-.253-8.461-4.435-10.128C-253.37,73.024-261.5,75.808-263.811,78.665Z" transform="translate(283.02 -74.306)" fill="none"/></g><g transform="translate(368.383 313.897) rotate(-170)"><path d="M19.21,4.359C-8.761,38.966.958,80.447,4.75,93.247c2.132,7.2,11.384,9.682,16.467,6.771C25.177,97.751,25.394,91,25.61,88.507c4.267-49.3,11.378-72.533,13.274-77.748C39.767,8.33,38.631,2.3,34.449.63,29.651-1.282,21.518,1.5,19.21,4.359Z" transform="translate(0 0)" fill="url(#f)"/><path d="M19.21,4.359C-8.761,38.966.958,80.447,4.75,93.247c2.132,7.2,11.384,9.682,16.467,6.771C25.177,97.751,25.394,91,25.61,88.507c4.267-49.3,11.378-72.533,13.274-77.748C39.767,8.33,38.631,2.3,34.449.63,29.651-1.282,21.518,1.5,19.21,4.359Z" transform="translate(0 0)" fill="none"/></g><g transform="translate(65.492 59.161)"><g transform="translate(0 0)"><path d="M-5.543-11.382h-.005c-.145-.013-.3-.019-.448-.019A5.411,5.411,0,0,0-11.4-6,5.411,5.411,0,0,0-6-.591c.153,0,.3-.006.441-.019A5.433,5.433,0,0,0-.591-6,5.43,5.43,0,0,0-5.543-11.382Z" transform="translate(25.392 25.391)" fill="#5e81f4"/><path d="M-2.121-21.515a3.476,3.476,0,0,0-1.025-2.473,3.474,3.474,0,0,0-2.473-1.026h-2l-.206-.675a14.166,14.166,0,0,0-1.058-2.555l-.333-.624L-7.8-30.283a3.5,3.5,0,0,0,0-4.946,3.47,3.47,0,0,0-2.473-1.023,3.475,3.475,0,0,0-2.473,1.023l-1.418,1.418-.624-.333A14.151,14.151,0,0,0-17.343-35.2l-.677-.206v-2a3.508,3.508,0,0,0-2.8-3.427,3.485,3.485,0,0,0-.7-.07,3.469,3.469,0,0,0-2.473,1.024,3.473,3.473,0,0,0-1.025,2.473v2l-.676.206a14.161,14.161,0,0,0-2.554,1.059l-.624.333-1.417-1.418a3.5,3.5,0,0,0-4.946,0,3.476,3.476,0,0,0-1.024,2.474,3.473,3.473,0,0,0,1.024,2.473l1.417,1.416-.333.624a14.24,14.24,0,0,0-1.058,2.555l-.206.675h-2a3.5,3.5,0,0,0-3.5,3.5,3.471,3.471,0,0,0,1.025,2.472,3.476,3.476,0,0,0,2.473,1.025h2l.206.675a14.24,14.24,0,0,0,1.058,2.555l.333.624-1.416,1.418a3.5,3.5,0,0,0,0,4.944,3.476,3.476,0,0,0,2.474,1.024A3.473,3.473,0,0,0-30.286-7.8l1.417-1.416.624.333a14.234,14.234,0,0,0,2.554,1.059l.676.2v2a3.5,3.5,0,0,0,3.5,3.5,3.547,3.547,0,0,0,.679-.066l.107-.022a3.486,3.486,0,0,0,1.687-.936A3.477,3.477,0,0,0-18.02-5.618v-2l.677-.2A14.256,14.256,0,0,0-14.79-8.884l.624-.333L-12.748-7.8a3.473,3.473,0,0,0,2.473,1.022A3.473,3.473,0,0,0-7.8-7.8a3.475,3.475,0,0,0,1.023-2.474A3.474,3.474,0,0,0-7.8-12.748L-9.22-14.164l.333-.624a14.166,14.166,0,0,0,1.058-2.555l.206-.675h2A3.5,3.5,0,0,0-2.121-21.515Zm-12.16,6.691A9.815,9.815,0,0,1-20.7-11.694c-.264.023-.54.035-.818.035a9.867,9.867,0,0,1-9.857-9.855,9.869,9.869,0,0,1,9.857-9.857c.279,0,.559.011.829.035a9.812,9.812,0,0,1,6.407,3.128,9.83,9.83,0,0,1,2.621,6.694A9.82,9.82,0,0,1-14.281-14.823Z" transform="translate(40.912 40.91)" fill="#5e81f4"/></g><g transform="translate(356.981 168.352)"><path d="M-6.99-5.5l0,0c-.042.086-.082.176-.117.269A3.531,3.531,0,0,0-5.084-.666,3.531,3.531,0,0,0-.524-2.691c.036-.093.066-.186.093-.274A3.55,3.55,0,0,0-2.549-7.252,3.544,3.544,0,0,0-6.99-5.5Z" transform="translate(15.786 15.928)" fill="#5e81f4"/><path d="M-8.649-25.095a2.272,2.272,0,0,0-1.747.045,2.269,2.269,0,0,0-1.2,1.267l-.468,1.219-.461-.033a9.121,9.121,0,0,0-1.8.046l-.458.056-.531-1.2a2.286,2.286,0,0,0-3.014-1.16,2.27,2.27,0,0,0-1.2,1.267,2.27,2.27,0,0,0,.044,1.746l.531,1.2-.35.3a9.382,9.382,0,0,0-1.245,1.308l-.282.364-1.221-.47a2.29,2.29,0,0,0-2.745.9,2.38,2.38,0,0,0-.206.407,2.272,2.272,0,0,0,.044,1.747,2.273,2.273,0,0,0,1.266,1.2l1.221.47-.034.46a9.362,9.362,0,0,0,.046,1.8l.057.459-1.2.53a2.288,2.288,0,0,0-1.16,3.014,2.268,2.268,0,0,0,1.266,1.2,2.267,2.267,0,0,0,1.747-.044l1.2-.531.3.35a9.316,9.316,0,0,0,1.308,1.243l.365.283-.47,1.22a2.287,2.287,0,0,0,1.31,2.952A2.27,2.27,0,0,0-16-1.508a2.268,2.268,0,0,0,1.2-1.266l.47-1.219.461.033a9.258,9.258,0,0,0,1.8-.046l.46-.057.53,1.2A2.286,2.286,0,0,0-8.06-1.707a2.275,2.275,0,0,0,1.2-1.267A2.277,2.277,0,0,0-6.9-4.721l-.532-1.2.351-.3A9.319,9.319,0,0,0-5.837-7.526l.284-.364,1.219.47A2.285,2.285,0,0,0-1.383-8.73a2.266,2.266,0,0,0,.119-.429l.012-.07a2.285,2.285,0,0,0-.175-1.248,2.264,2.264,0,0,0-1.265-1.2l-1.222-.47.036-.461a9.36,9.36,0,0,0-.047-1.8l-.057-.458,1.2-.532a2.26,2.26,0,0,0,1.2-1.266,2.267,2.267,0,0,0-.043-1.747,2.268,2.268,0,0,0-1.266-1.2,2.27,2.27,0,0,0-1.746.044l-1.195.531-.3-.35a9.326,9.326,0,0,0-1.309-1.243l-.362-.284.468-1.219A2.287,2.287,0,0,0-8.649-25.095Zm1.226,8.978a6.409,6.409,0,0,1,.4,4.644c-.048.166-.106.336-.171.507a6.441,6.441,0,0,1-8.315,3.693A6.441,6.441,0,0,1-19.2-15.59c.065-.17.137-.337.215-.5a6.4,6.4,0,0,1,3.409-3.169,6.407,6.407,0,0,1,4.692-.027,6.409,6.409,0,0,1,3.462,3.166Z" transform="translate(25.167 25.248)" fill="#5e81f4"/></g></g><path d="M2.13,8.028,4.291,6.966a17.284,17.284,0,0,0,1.682-.789l-.055-1.1a.727.727,0,0,1,.841.017,8.813,8.813,0,0,0,1.475-.772c.1-.171.12-.121.12-.121l.3.476.026.039s2.076-.961,2.179-.961,6.433-1.234,6.551-1.407c0,0,.377-.531.582-.463a.382.382,0,0,1,.224.325l.789-.068,1,.462.411-.05a3.714,3.714,0,0,1,3.275-.617A5.335,5.335,0,0,0,25.251,1.9c.24-.137,2.023-.532,5.763.548a.5.5,0,0,0,.292.225l.36.034.137-.121s.634-.2,3.654.635c.257.12,3.417.755,3.819.481,0,0,.259.343.532.343s.326.12.326.12.428-.343,1.578.052c.086.034,1.578.53,1.682.53s.291-.358,1.045-.017c.652.36.8.087.8.087a3.314,3.314,0,0,0,1.442.171,2.755,2.755,0,0,1,2.041.5l.772.1s1.13-.566,1.525.378l1.563.017a.92.92,0,0,1,1.165.1l.429.086a.857.857,0,0,1,1.045-.137l1.562.292s.6-.668,1.063-.24l1.63-.549s.686-.1.789-.395a.688.688,0,0,1,.738-.224l.738-.377s.2-.068.257.051l.446.241a.964.964,0,0,1,1.338-.514v.05s-.137-.84.1-.9a1.619,1.619,0,0,1,.686.069s.136-.395.292-.463a.762.762,0,0,0,.292-.858s.086-.224.275.051a2.478,2.478,0,0,0,.343.412l.136-.858A2.578,2.578,0,0,1,65.536,0s1.13,1.475,1.319,1.44-.24-.891-.24-.891.447.617.67.531a.524.524,0,0,1,.65.358.512.512,0,0,1,.019.1c.343.343,1.081.943,1.081.943l.411.892.291-.1.5.926s1.493,1.1,1.2,1.87c0,0,1.955,1.424,1.372,2.4l.5,1.783a1.051,1.051,0,0,1,.789.668,3.1,3.1,0,0,0,.445.876l-.189.771a1.37,1.37,0,0,1,1.1,1.013s-.069.635-1.063.325v.72H72.729l-.395.172.531,1.733.052.531L72.8,18.542l-.463.531-.96.652s0,.257-.464.36-2.384.514-2.384.514l-1.664.72a1.809,1.809,0,0,1-1.389.481l-1.507.532a10.079,10.079,0,0,0-2.162.392c-.771.293-1.527.585-1.938.361a27.322,27.322,0,0,1-4.9-.343l-.755.085s-.481.9-1.6-.051l-.24.428-3.518-1.062-.927.292a1.251,1.251,0,0,1-.738-.395,9.694,9.694,0,0,0-1.1.189,8.53,8.53,0,0,1-2.454-.721c-.651-.445-.875-.36-.875-.36s-.428.189.018,1.236a7.623,7.623,0,0,0,.051,2.28.954.954,0,0,1-.514,1.149c-.086,0-1.749.771-1.441,2.128,0,0-.222,1.525-.222,2.194a4.993,4.993,0,0,1-.515,1.887A4.187,4.187,0,0,0,40,33.5c-.035.377-.36.618-.617.5,0,0,.755,2.933.343,4.014l.531.531-1.423,2.779s-.24.017.394,3.927c0,0-.2,4.957-.823,9.023A4.645,4.645,0,0,1,34.531,58.3s-.876-.155-1.766-2.865a4.254,4.254,0,0,1,.257-.789s0-.068-2.452-4.135a10.455,10.455,0,0,1-1.184-3.635c.052-.137-.154-1.183-1.92-3.6a8.282,8.282,0,0,1-1.113-2.312c0-.189.685-.463.188-1.045-.652-1.508-2.727-4.1-2.023-5.712a2.754,2.754,0,0,1,1.234-1.149l-.857-1.609.841-1.338.342.2-.121-.464.276-.153s-.343.995.309.445.446-.5.446-.5l-.275-.411s2.179-1.765,1.887-3.258c0,0,1.012.137,1.441-1.372a4.668,4.668,0,0,0,2.675-1.508l.241.2.034-.1.086.274.171-.376s.378.376.481.343.086-.617,1.407-1.1a3.413,3.413,0,0,0,1.458-1.185s1.339,1.493,1.852,1.493c.738.275,1.308-.772,1.308-.772s.6-.755.9-.668c0,0,.516.349,1.767-.119l.049-.019a8.228,8.228,0,0,0-.943-.445l-.292.085a6.988,6.988,0,0,0-1.492-.823s-.515-.876-.9-.652l-.617.017s-.172-.241-.395.257-.377.189-.394,0a3.446,3.446,0,0,0-.139-.549s-.582-.566-.8-.531-.222.342-.222.342-.652-.531-1.064-.275c0,0-.309-.41-.995.069,0,0,.31-1.235-.515-.343a2.456,2.456,0,0,0-2.144-.7s-.565-.549-.788-.018-.051,0-.051,0-1.766-.48-1.938-.24c0,0,.035.531-.154.531a1.256,1.256,0,0,1-.515-.257.662.662,0,0,0-.668-.635.678.678,0,0,1-.7-.583l-.2-.051s-.034.549-.411.429a1.9,1.9,0,0,0-.309.41c-.1.208-.222.036-.394-.1a2.524,2.524,0,0,1-.326-.326l-.567-.051-.326-.789h-.343l-.12.978s-1.407-.36-1.818.309a1.38,1.38,0,0,0-1.184.464c-.154.085-.634.257-.634.257s-.051-1.062-.377-.771c-.326.12-.652.67-.721.789,0,0-.428.531-.857-.2l-.7.617-.686-.172-.258-.257s-.72-.1-.789-.017c0,0-.309.5-.445.5s-.428-.395-.428-.395-.2.48-.36.463a1.379,1.379,0,0,0-.532-.756l-.31-.445-1.608.617s-.051.583-.189.583-.428-.411-.428-.411l-2.436.566-.136.1s-.532.069-.721.1S8,18.908,8,18.908s-1.062-.086-1.013-.2.789-.018.893-.018c0,0-.36-.19-.258-.359s.2-.172.2-.172l-.136-.617.086-.155L7.08,16.6s-.1-.841.327-.463a3.482,3.482,0,0,0,.566.258c.051-.017.051-.172.051-.172l.394-.258.721.172.121-.1s.035-.6.411-.566a.273.273,0,0,1,.221.174.459.459,0,0,1,.019.048l-.463-1.269s.017-.531.668-.086a4.148,4.148,0,0,1,.67.789l.445-.068s0-.394.121-.412a1.168,1.168,0,0,1,.325.036l-.428-.9.069-.532a10.711,10.711,0,0,0,1.389-.7c.172-.172.841-.155.926-.137a2.018,2.018,0,0,0-.48-1.288s-.634-1.012.068-1.028l.19-.24-.051-.137-.2-1.578-.738.377L11.2,8.9l-.67-.36S9.49,9.707,8.8,9.211l-1.851.652a11.966,11.966,0,0,0-1.338-.189,3.38,3.38,0,0,1-.2.927,3.1,3.1,0,0,1-1.458.6,9.752,9.752,0,0,0-1.217,1.372s-1.407-.034-1.459-1.045l.069-.293S.318,10.894.216,10.894c0,0-.463-.275-.034-.841S2.01,8.253,2.13,8.028" transform="translate(208.924 325.283)" fill="#46e6f2" opacity="0.4"/></g></g></svg>