<svg xmlns="http://www.w3.org/2000/svg" xmlns:xlink="http://www.w3.org/1999/xlink" width="200" height="199.993" viewBox="0 0 200 199.993"><defs><linearGradient id="a" x1="0.5" x2="0.5" y2="1" gradientUnits="objectBoundingBox"><stop offset="0" stop-color="#00d2ff"/><stop offset="1" stop-color="#3a47d5"/></linearGradient></defs><g transform="translate(9883 1498)"><ellipse cx="100" cy="99.996" rx="100" ry="99.996" transform="translate(-9883 -1498)" opacity="0" fill="url(#a)"/><g transform="translate(-9867.835 -1457.555)"><path d="M968.76,1259.6a3.093,3.093,0,0,0,2.985-3.92,21.877,21.877,0,0,0-21.053-15.938H918.711a21.877,21.877,0,0,0-21.053,15.938,3.093,3.093,0,0,0,2.984,3.92Z" transform="translate(-850.759 -1138.333)" fill="#f7f7f7"/><g transform="translate(50.519 101.406)"><path d="M942.155,1239.74h-2.922c-10.089,0-18.374,8.723-19.271,19.858h6.9C927.576,1248.463,934.15,1239.74,942.155,1239.74Z" transform="translate(-919.962 -1239.74)" fill="#e5e5e5"/><path d="M1190.811,1239.74h-2.922c8.006,0,14.58,8.723,15.293,19.858h6.9C1209.184,1248.463,1200.9,1239.74,1190.811,1239.74Z" transform="translate(-1143.236 -1239.74)" fill="#fff"/></g><g transform="translate(45.039)"><g transform="translate(59.822)"><rect width="5.262" height="14.185" transform="translate(6.361 16.031)" fill="#f7f7f7"/><rect width="1.306" height="14.185" transform="translate(6.935 16.031)" fill="#e5e5e5"/><path d="M1255.019,631.279a8.992,8.992,0,1,0,8.992,8.992A9,9,0,0,0,1255.019,631.279Zm0,12.722a3.73,3.73,0,1,1,3.73-3.73A3.734,3.734,0,0,1,1255.019,644Z" transform="translate(-1246.027 -631.279)" fill="#f7f7f7"/><path d="M1267.753,646.56a6.445,6.445,0,1,0,6.446,6.445A6.452,6.452,0,0,0,1267.753,646.56Zm0,10.17a3.724,3.724,0,1,1,3.725-3.724A3.729,3.729,0,0,1,1267.753,656.73Z" transform="translate(-1258.761 -644.013)" fill="#e5e5e5"/></g><rect width="5.262" height="14.185" transform="translate(6.361 16.031)" fill="#f7f7f7"/><rect width="1.306" height="14.185" transform="translate(6.935 16.031)" fill="#e5e5e5"/><path d="M896.071,631.279a8.992,8.992,0,1,0,8.992,8.992A9,9,0,0,0,896.071,631.279Zm0,12.722a3.73,3.73,0,1,1,3.73-3.73A3.734,3.734,0,0,1,896.071,644Z" transform="translate(-887.079 -631.279)" fill="#f7f7f7"/><path d="M908.8,646.56a6.445,6.445,0,1,0,6.446,6.445A6.453,6.453,0,0,0,908.8,646.56Zm0,10.17a3.724,3.724,0,1,1,3.725-3.724A3.729,3.729,0,0,1,908.8,656.73Z" transform="translate(-899.813 -644.013)" fill="#e5e5e5"/></g><path d="M9,0H39.388a9,9,0,0,1,9,9V9a0,0,0,0,1,0,0H0A0,0,0,0,1,0,9V9A9,9,0,0,1,9,0Z" transform="translate(108.138 93.278) rotate(180)" fill="#f7f7f7"/><g transform="translate(0 46.045)"><g transform="translate(0 0)"><path d="M0,0H10.794A10.794,10.794,0,0,1,21.587,10.794v0A10.794,10.794,0,0,1,10.794,21.587H0a0,0,0,0,1,0,0V0A0,0,0,0,1,0,0Z" transform="translate(21.587 21.587) rotate(-180)" fill="#f7f7f7"/><path d="M633.27,918.352h0a10.793,10.793,0,0,1,10.793-10.793H640.9a10.793,10.793,0,0,0-10.793,10.793h0A10.793,10.793,0,0,0,640.9,929.146h3.16A10.793,10.793,0,0,1,633.27,918.352Z" transform="translate(-627.897 -907.559)" fill="#e5e5e5"/></g><g transform="translate(146.298)"><path d="M0,0H10.794A10.794,10.794,0,0,1,21.587,10.794v0A10.794,10.794,0,0,1,10.794,21.587H0a0,0,0,0,1,0,0V0A0,0,0,0,1,0,0Z" fill="#f7f7f7"/><path d="M1537.976,918.352h0a10.794,10.794,0,0,1-10.794,10.793h3.161a10.794,10.794,0,0,0,10.794-10.793h0a10.794,10.794,0,0,0-10.794-10.793h-3.161A10.794,10.794,0,0,1,1537.976,918.352Z" transform="translate(-1521.76 -907.559)" fill="#fff"/></g></g><path d="M793.674,769.431H714.8a33.814,33.814,0,0,0-33.814,33.814h0A33.814,33.814,0,0,0,714.8,837.059h78.875a33.814,33.814,0,0,0,33.814-33.814h0A33.814,33.814,0,0,0,793.674,769.431Z" transform="translate(-670.295 -746.406)" fill="#f7f7f7"/><g transform="translate(10.691 23.025)"><path d="M687.56,803.245h0c0-18.675,13.781-33.814,30.779-33.814H714.8a33.814,33.814,0,0,0-33.814,33.814h0A33.814,33.814,0,0,0,714.8,837.059h3.539C701.341,837.059,687.56,821.92,687.56,803.245Z" transform="translate(-680.986 -769.431)" fill="#e5e5e5"/><path d="M1339.442,769.431h-3.54c17,0,30.779,15.139,30.779,33.814h0c0,18.675-13.781,33.814-30.779,33.814h3.54a33.814,33.814,0,0,0,33.813-33.814h0A33.814,33.814,0,0,0,1339.442,769.431Z" transform="translate(-1226.754 -769.431)" fill="#fff"/></g><path d="M846.76,879.529H767.885a23.2,23.2,0,0,1,0-46.4H846.76a23.2,23.2,0,0,1,0,46.4Z" transform="translate(-723.38 -799.492)" fill="#2b2b3f"/><path d="M767.885,836.848H846.76c12.467,0,22.666,9.094,23.175,20.45.013-.321.022-.643.022-.967a23.223,23.223,0,0,0-23.2-23.2H767.885a23.223,23.223,0,0,0-23.2,23.2c0,.324.008.646.022.967C745.219,845.942,755.418,836.848,767.885,836.848Z" transform="translate(-723.38 -799.492)" fill="#1e1e28"/><path d="M1071.463,1011.48a2.731,2.731,0,0,0-3.74-.959c-5.413,3.2-10.675,3.2-16.087,0a2.731,2.731,0,1,0-2.781,4.7,19.976,19.976,0,0,0,21.649,0A2.73,2.73,0,0,0,1071.463,1011.48Z" transform="translate(-975.737 -946.998)" fill="#f7f7f7"/><g transform="translate(34.254 43.319)"><circle cx="8.892" cy="8.892" r="8.892" transform="translate(0 6.806) rotate(-22.5)" fill="#46e6f2"/><circle cx="8.892" cy="8.892" r="8.892" transform="translate(77.061 18.229) rotate(-76.717)" fill="#46e6f2"/></g></g></g></svg>