<svg xmlns="http://www.w3.org/2000/svg" xmlns:xlink="http://www.w3.org/1999/xlink" width="200" height="200" viewBox="0 0 200 200"><defs><linearGradient id="a" x1="0.5" x2="0.5" y2="1" gradientUnits="objectBoundingBox"><stop offset="0" stop-color="#00d2ff"/><stop offset="1" stop-color="#3a47d5"/></linearGradient></defs><g transform="translate(9589.889 1497.867)"><circle cx="100" cy="100" r="100" transform="translate(-9589.889 -1497.867)" opacity="0" fill="url(#a)"/><g transform="translate(-9564.896 -1483.54)"><rect width="4.343" height="11.707" transform="translate(72.835 13.231)" fill="#f7f7f7"/><rect width="1.078" height="11.707" transform="translate(73.309 13.231)" fill="#e5e5e5"/><path d="M5525.09,485.8a7.421,7.421,0,1,0,7.422,7.421A7.432,7.432,0,0,0,5525.09,485.8Zm0,10.5a3.078,3.078,0,1,1,3.078-3.078A3.082,3.082,0,0,1,5525.09,496.3Z" transform="translate(-5450.082 -485.798)" fill="#f7f7f7"/><path d="M5535.6,498.409a5.319,5.319,0,1,0,5.318,5.319A5.326,5.326,0,0,0,5535.6,498.409Zm0,8.393a3.074,3.074,0,1,1,3.074-3.074A3.076,3.076,0,0,1,5535.6,506.8Z" transform="translate(-5460.593 -496.307)" fill="#e5e5e5"/><ellipse cx="58.023" cy="56.921" rx="58.023" ry="56.921" transform="translate(16.984 24.002)" fill="#f7f7f7"/><g transform="translate(24.187 24.002)"><path d="M5269.734,686.73c0-31.437,17.176-56.921,38.365-56.921-28.066,0-50.82,25.485-50.82,56.921s22.754,56.921,50.82,56.921C5286.91,743.652,5269.734,718.167,5269.734,686.73Z" transform="translate(-5257.279 -629.809)" fill="#e5e5e5"/><path d="M5562.2,629.809c21.191,0,38.367,25.485,38.367,56.921s-17.176,56.921-38.367,56.921c28.068,0,50.82-25.484,50.82-56.921S5590.264,629.809,5562.2,629.809Z" transform="translate(-5511.375 -629.809)" fill="#fff"/></g><path d="M5256.247,815.229a400.4,400.4,0,0,1-114.707-.043,17.909,17.909,0,0,1-15.352-17.739V772.205a17.9,17.9,0,0,1,15.68-17.781,465.766,465.766,0,0,1,113.982,0,17.9,17.9,0,0,1,15.676,17.781v25.3A17.892,17.892,0,0,1,5256.247,815.229Z" transform="translate(-5123.849 -706.737)" fill="#2b2b3f"/><g transform="translate(28.175 54.92)"><ellipse cx="15.333" cy="14.891" rx="15.333" ry="14.891" transform="translate(62.998)" fill="#46e6f2"/><ellipse cx="15.333" cy="14.891" rx="15.333" ry="14.891" fill="#46e6f2"/></g><path d="M5505.359,1013.472a10.4,10.4,0,0,1-10.4,10.4h-7.607a10.4,10.4,0,0,1-10.408-10.4h28.418Z" transform="translate(-5416.142 -925.526)" fill="#fffefd"/><g transform="translate(24.742 109.375)"><path d="M5357.674,1147.244a56.572,56.572,0,0,0,3.424-5.129,400,400,0,0,1-100.486-.07,57.52,57.52,0,0,0,3.412,5.126,410.067,410.067,0,0,0,47.344,2.755A399.488,399.488,0,0,0,5357.674,1147.244Z" transform="translate(-5260.611 -1142.045)" fill="#e5e5e5"/></g><g transform="translate(9.435 120.323)"><path d="M5182.185,1208.9s-8.941-3.555-12.561,1.778c-3.561,5.246,4.623,25.632,12.188,30.523.15.1.373.008.373-.15Z" transform="translate(-5168.765 -1207.737)" fill="#2a2a3f"/><path d="M5182.185,1241.048h0a.141.141,0,0,0-.029-.089,87.313,87.313,0,0,1-6.562-12.433,29.025,29.025,0,0,1-2.088-7.615,8.434,8.434,0,0,1,5.662-9.487,7.21,7.21,0,0,1,3.018-.5v-2.03s-8.941-3.555-12.561,1.778c-3.561,5.246,4.623,25.632,12.188,30.523C5181.962,1241.3,5182.185,1241.207,5182.185,1241.048Z" transform="translate(-5168.765 -1207.737)" fill="#101011"/></g><g transform="translate(128.015 120.323)"><path d="M5880.242,1208.9s8.943-3.555,12.563,1.778c3.561,5.246-4.625,25.632-12.187,30.523-.15.1-.375.008-.375-.15Z" transform="translate(-5880.242 -1207.737)" fill="#2a2a3f"/><path d="M5880.242,1241.048h0a.169.169,0,0,1,.029-.089,86.682,86.682,0,0,0,6.563-12.433,28.88,28.88,0,0,0,2.09-7.615,8.433,8.433,0,0,0-5.66-9.487,7.228,7.228,0,0,0-3.021-.5v-2.03s8.943-3.555,12.563,1.778c3.561,5.246-4.625,25.632-12.187,30.523C5880.467,1241.3,5880.242,1241.207,5880.242,1241.048Z" transform="translate(-5880.242 -1207.737)" fill="#101011"/></g><path d="M5116.837,782.032V771.846a15.36,15.36,0,0,1,13.621-15.144,475.168,475.168,0,0,1,113.412,0,15.362,15.362,0,0,1,13.625,15.144v10.186h4.674V771.846a19.981,19.981,0,0,0-17.729-19.693,479.994,479.994,0,0,0-114.553,0,19.982,19.982,0,0,0-17.73,19.693v10.186Z" transform="translate(-5112.157 -704.903)" fill="#1e1e28"/><path d="M5244.44,740.492a470.3,470.3,0,0,0-114.553,0,20.249,20.249,0,0,0-17.73,20.1v25.242a20.342,20.342,0,0,0,17.359,20.054,411.334,411.334,0,0,0,58.137,4.153,398.5,398.5,0,0,0,57.234-4.111,20.327,20.327,0,0,0,17.281-20.041v-25.3A20.247,20.247,0,0,0,5244.44,740.492Zm13.055,45.4A15.627,15.627,0,0,1,5244.22,801.3a400.036,400.036,0,0,1-114.043-.044,15.635,15.635,0,0,1-13.34-15.423V760.594a15.565,15.565,0,0,1,13.621-15.459,465.534,465.534,0,0,1,113.412,0,15.567,15.567,0,0,1,13.625,15.459Z" transform="translate(-5112.157 -695.125)" fill="#f7f7f7"/></g></g></svg>