<svg xmlns="http://www.w3.org/2000/svg" xmlns:xlink="http://www.w3.org/1999/xlink" width="200" height="199.993" viewBox="0 0 200 199.993"><defs><linearGradient id="a" x1="0.5" x2="0.5" y2="1" gradientUnits="objectBoundingBox"><stop offset="0" stop-color="#00d2ff"/><stop offset="1" stop-color="#3a47d5"/></linearGradient></defs><g transform="translate(9786 1498)"><ellipse cx="100" cy="99.996" rx="100" ry="99.996" transform="translate(-9786 -1498)" opacity="0" fill="url(#a)"/><g transform="translate(-9770.835 -1460.083)"><rect width="3.34" height="31.348" transform="translate(151.573 15.98)" fill="#f7f7f7"/><rect width="1.059" height="31.348" transform="translate(152.184 15.98)" fill="#e5e5e5"/><circle cx="5.074" cy="5.074" r="5.074" transform="translate(148.169 7.604)" fill="#2b2b3f"/><path d="M2980.046,899.2H2968.4v32.441h11.647c5.88,0,11.63-7.262,11.63-16.221S2985.926,899.2,2980.046,899.2Z" transform="translate(-2823.349 -852.986)" fill="#2b2b3f"/><path d="M2121.349,931.641V899.2H2109.7c-5.879,0-11.631,7.262-11.631,16.221s5.752,16.221,11.631,16.221Z" transform="translate(-2098.07 -852.986)" fill="#2b2b3f"/><g transform="translate(3.195 46.213)"><path d="M2122.513,915.42c0-8.958,5.752-16.221,11.632-16.221h-5.271c-5.879,0-11.629,7.262-11.629,16.221s5.75,16.221,11.629,16.221h5.271C2128.265,931.641,2122.513,924.379,2122.513,915.42Z" transform="translate(-2117.244 -899.2)" fill="#1e1e28"/><rect width="3.631" height="32.432" transform="translate(14.948 0.01)" fill="#1e1e28"/><g transform="translate(143.359)"><path d="M2999.121,915.42c0-8.958-5.753-16.221-11.632-16.221h5.271c5.88,0,11.632,7.262,11.632,16.221s-5.752,16.221-11.632,16.221h-5.271C2993.368,931.641,2999.121,924.379,2999.121,915.42Z" transform="translate(-2985.813 -899.2)" fill="#2a2a3f"/><rect width="3.631" height="32.432" transform="translate(3.631 32.441) rotate(180)" fill="#2a2a3f"/></g></g><path d="M10.779,0h0a0,0,0,0,1,0,0V41.943a0,0,0,0,1,0,0h0A10.779,10.779,0,0,1,0,31.165V10.779A10.779,10.779,0,0,1,10.779,0Z" transform="translate(19.767 41.462)" fill="#f7f7f7"/><path d="M2236.386,912.516a5.908,5.908,0,0,1-4.3-5.915V876.728a5.908,5.908,0,0,1,4.3-5.915v-.12h-1.119c-2.97,0-5.376,2.7-5.376,6.035V906.6c0,3.333,2.406,6.035,5.376,6.035h1.119Z" transform="translate(-2207.921 -829.231)" fill="#e5e5e5"/><path d="M0,0H0A10.779,10.779,0,0,1,10.779,10.779V31.165A10.779,10.779,0,0,1,0,41.943H0a0,0,0,0,1,0,0V0A0,0,0,0,1,0,0Z" transform="translate(137.781 41.462)" fill="#f7f7f7"/><path d="M2937.641,912.516a5.909,5.909,0,0,0,4.3-5.915V876.728a5.908,5.908,0,0,0-4.3-5.915v-.12h1.119c2.969,0,5.376,2.7,5.376,6.035V906.6c0,3.333-2.407,6.035-5.376,6.035h-1.119Z" transform="translate(-2797.717 -829.231)" fill="#fff"/><g transform="translate(28.405 0)"><path d="M2324.266,621.91a61.824,61.824,0,0,0-55.76,34.443v55.691c10.182,20.649,31.32,28.371,55.76,28.371s45.576-7.722,55.759-28.371V656.353A61.823,61.823,0,0,0,2324.266,621.91Z" transform="translate(-2268.506 -621.91)" fill="#f7f7f7"/><g transform="translate(4.301)"><path d="M2304.85,712.044V656.353c7.473-20.649,22.986-34.443,40.923-34.443a55.121,55.121,0,0,0-41.1,18.591,39.95,39.95,0,0,0-10.359,26.8v30.952c0,18.534,12.934,34.9,31.715,39.819a78.059,78.059,0,0,0,19.742,2.344C2327.836,740.415,2312.322,732.693,2304.85,712.044Z" transform="translate(-2294.315 -621.91)" fill="#e5e5e5"/><path d="M2603.071,621.91h0c17.938,0,33.451,13.794,40.923,34.443v55.691c-7.472,20.649-22.985,28.371-40.923,28.371h0a78.067,78.067,0,0,0,19.743-2.344c18.782-4.921,31.715-21.285,31.715-39.819V667.3a39.941,39.941,0,0,0-10.36-26.8A55.117,55.117,0,0,0,2603.071,621.91Z" transform="translate(-2551.614 -621.91)" fill="#fff"/></g><path d="M2405.527,870.107c-.621,3.377-3.613,6.29-6.445,6.479a647.665,647.665,0,0,1-81.609,0c-2.83-.189-5.822-3.1-6.443-6.479a106.5,106.5,0,0,1,0-37.985c.62-3.377,3.613-6.29,6.443-6.479a647.665,647.665,0,0,1,81.609,0c2.836.189,5.824,3.1,6.445,6.479A106.45,106.45,0,0,1,2405.527,870.107Z" transform="translate(-2302.52 -790.617)" fill="#2b2b3f"/><g transform="translate(6.804 33.74)"><path d="M2579.241,1145.376q-2.382,0-4.766-.018Q2576.859,1145.375,2579.241,1145.376Z" transform="translate(-2530.287 -1091.86)" fill="#1e1e28"/><path d="M2311.038,835.494c.62-3.258,3.613-6.068,6.444-6.25a671.494,671.494,0,0,1,81.608,0c2.834.182,5.824,2.992,6.444,6.25a81.414,81.414,0,0,1,1.705,16.1,107.1,107.1,0,0,0-1.705-19.473c-.62-3.377-3.61-6.29-6.444-6.479a647.65,647.65,0,0,0-81.608,0c-2.831.189-5.824,3.1-6.444,6.479a107.012,107.012,0,0,0-1.7,19.473A81.267,81.267,0,0,1,2311.038,835.494Z" transform="translate(-2309.332 -824.357)" fill="#1e1e28"/><path d="M2603.07,1145.376q2.382,0,4.766-.018Q2605.453,1145.374,2603.07,1145.376Z" transform="translate(-2554.116 -1091.86)" fill="#1e1e28"/><path d="M2636.4,1145.122c1.153-.01,2.309-.023,3.46-.04C2638.713,1145.1,2637.558,1145.112,2636.4,1145.122Z" transform="translate(-2581.895 -1091.629)" fill="#1e1e28"/><path d="M2526.1,1144.7l-.491-.01Z" transform="translate(-2489.563 -1091.304)" fill="#1e1e28"/><path d="M2677.592,1144.7l.49-.01Z" transform="translate(-2616.217 -1091.304)" fill="#1e1e28"/><path d="M2552.434,1145.122q-1.73-.015-3.46-.04Q2550.7,1145.107,2552.434,1145.122Z" transform="translate(-2509.036 -1091.629)" fill="#1e1e28"/></g><path d="M2566.568,1055.224c0,2.96-4.085,5.36-9.125,5.36s-9.125-2.4-9.125-5.36Z" transform="translate(-2501.685 -983.008)" fill="#f7f7f7"/><circle cx="8.701" cy="8.701" r="8.701" transform="translate(25.331 48.828)" fill="#46e6f2"/><circle cx="8.701" cy="8.701" r="8.701" transform="translate(68.718 48.828)" fill="#46e6f2"/></g><path d="M2995.594,676.371a6.8,6.8,0,0,1-3.569-6.3,5.671,5.671,0,0,1,.572-2.515c-.134-.011-.269-.018-.406-.018a5.074,5.074,0,1,0,3.4,8.837Z" transform="translate(-2838.947 -659.93)" fill="#1e1e28"/><g transform="translate(9.084 87.256)"><path d="M2169.948,1179.526,2160.9,1146.3a1.128,1.128,0,0,0-1.421-.783c-4.938,1.522-8.6,3.366-6.1,12.549,2.423,8.9,9.8,21.653,15.249,22.865A1.126,1.126,0,0,0,2169.948,1179.526Z" transform="translate(-2152.577 -1145.466)" fill="#2a2a3f"/><path d="M2169.948,1179.528l-.025-.1a6.461,6.461,0,0,0-1.093-1.486c-4.144-4.435-7.078-7.934-8.954-12.929a27.363,27.363,0,0,1-.583-16.257,9.821,9.821,0,0,1,1.282-2.991,1.125,1.125,0,0,0-1.094-.25c-4.938,1.523-8.6,3.367-6.1,12.55,2.423,8.9,9.8,21.653,15.249,22.865A1.126,1.126,0,0,0,2169.948,1179.528Z" transform="translate(-2152.577 -1145.467)" fill="#1e1e28"/></g></g></g></svg>