<svg xmlns="http://www.w3.org/2000/svg" xmlns:xlink="http://www.w3.org/1999/xlink" width="541.908" height="393.06" viewBox="0 0 541.908 393.06"><defs><clipPath id="a"><rect width="541.908" height="393.06" fill="none"/></clipPath><clipPath id="c"><rect width="465.24" height="25.926" transform="translate(29.249 367.134)" fill="none"/></clipPath><clipPath id="d"><rect width="283.484" height="172.956" transform="translate(128.59 100.984)" fill="none"/></clipPath><clipPath id="e"><rect width="177.507" height="141.233" transform="translate(350.558 9.257)" fill="none"/></clipPath><clipPath id="f"><rect width="43.349" height="43.349" transform="translate(478.165 7.722)" fill="none"/></clipPath><clipPath id="g"><rect width="96.201" height="63.067" transform="translate(441.869 110.236)" fill="none"/></clipPath><clipPath id="h"><rect width="147.006" height="116.964" transform="translate(5.984 180.458)" fill="none"/></clipPath><clipPath id="i"><rect width="35.901" height="35.9" transform="translate(107.709 179.187)" fill="none"/></clipPath><clipPath id="j"><rect width="127.664" height="101.575" transform="translate(408.294 183.87)" fill="none"/></clipPath><clipPath id="k"><rect width="31.176" height="31.177" transform="translate(500.07 182.766)" fill="none"/></clipPath><clipPath id="l"><rect width="165.908" height="132.004" transform="translate(0 28.148)" fill="none"/></clipPath><clipPath id="m"><rect width="40.517" height="40.517" transform="translate(119.269 26.713)" fill="none"/></clipPath><clipPath id="n"><rect width="91.271" height="59.836" transform="translate(79.313 264.118)" fill="none"/></clipPath><clipPath id="o"><rect width="91.271" height="59.836" transform="translate(16.766 3.398)" fill="none"/></clipPath><clipPath id="p"><rect width="91.271" height="59.836" transform="translate(299.73 280.137)" fill="none"/></clipPath></defs><g clip-path="url(#a)"><g clip-path="url(#a)"><g opacity="0.2"><g clip-path="url(#c)"><path d="M494.489,380.1c0,7.159-104.147,12.963-232.62,12.963s-232.62-5.8-232.62-12.963,104.148-12.963,232.62-12.963,232.62,5.8,232.62,12.963" fill="#1f4cbf"/></g></g><g opacity="0.2"><g clip-path="url(#d)"><path d="M325.6,273.94H215.067a86.478,86.478,0,0,1,0-172.956H325.6a86.478,86.478,0,0,1,0,172.956" fill="#1f4cbf"/></g></g><path d="M317.763,264.237H207.235a86.478,86.478,0,0,1,0-172.956H317.763a86.478,86.478,0,0,1,0,172.956" fill="#fff"/><path d="M207.234,234.558a56.8,56.8,0,0,1,0-113.6H317.763a56.8,56.8,0,0,1,0,113.6Z" fill="#dcdeef"/><path d="M207.234,221.253a43.5,43.5,0,0,1,0-86.99H317.763a43.5,43.5,0,0,1,0,86.99Z" fill="#43444f"/><path d="M175.168,177.247A18.251,18.251,0,1,1,193.419,195.5a18.251,18.251,0,0,1-18.251-18.251" fill="#61c3ff"/><path d="M312.3,177.247A18.251,18.251,0,1,1,330.556,195.5,18.251,18.251,0,0,1,312.3,177.247" fill="#61c3ff"/><path d="M286.89,193.877H237.084a3.838,3.838,0,1,1,0-7.676H286.89a3.838,3.838,0,0,1,0,7.676" fill="#61c3ff"/><path d="M320.065,88.21a5.118,5.118,0,0,1-5.117-5.117A28.175,28.175,0,0,0,286.8,54.949H238.192a28.176,28.176,0,0,0-28.144,28.144,5.117,5.117,0,0,1-10.234,0,38.421,38.421,0,0,1,38.378-38.378H286.8a38.421,38.421,0,0,1,38.377,38.378,5.117,5.117,0,0,1-5.117,5.117" fill="#61c3ff"/><g opacity="0.2"><g clip-path="url(#e)"><path d="M518.5,47.275a21.67,21.67,0,1,0-31.883-28.908,21.791,21.791,0,0,0-5.349,5.987,54.73,54.73,0,0,0-7.355-.5H404.707A54.149,54.149,0,0,0,350.558,78c0,28.822,21.442,52.374,49.845,54.044l18.442,18.442V132.166l55.07-.012A54.152,54.152,0,0,0,518.5,47.275" fill="#1f4cbf"/></g></g><path d="M473.915,17.715H404.706a54.149,54.149,0,0,0-54.149,54.149c0,28.822,21.443,52.374,49.846,54.044l18.441,18.442V126.026l55.071-.013a54.149,54.149,0,1,0,0-108.3" fill="#fff"/><g opacity="0.2"><g clip-path="url(#f)"><path d="M478.165,29.4a21.674,21.674,0,1,1,21.674,21.674A21.674,21.674,0,0,1,478.165,29.4" fill="#1f4cbf"/></g></g><path d="M482.6,24.792a21.674,21.674,0,1,1,21.674,21.674A21.674,21.674,0,0,1,482.6,24.792" fill="#ff5a5a"/><path d="M493.732,36.614h21.083a10.539,10.539,0,0,0-6.628-9.783,7.487,7.487,0,1,0-7.827,0,10.539,10.539,0,0,0-6.628,9.783" fill="#43444f"/><path d="M440.121,67.746h-41.7a3.966,3.966,0,1,1,0-7.931h41.7a3.966,3.966,0,1,1,0,7.931" fill="#a7b5bc"/><path d="M481.569,67.746H455.813a3.966,3.966,0,1,1,0-7.931h25.756a3.966,3.966,0,1,1,0,7.931" fill="#a7b5bc"/><path d="M456.24,82.293H398.417a3.966,3.966,0,0,1,0-7.932H456.24a3.966,3.966,0,1,1,0,7.932" fill="#a7b5bc"/><path d="M481.569,82.293h-8.912a3.966,3.966,0,1,1,0-7.932h8.912a3.966,3.966,0,1,1,0,7.932" fill="#a7b5bc"/><g opacity="0.2"><g clip-path="url(#g)"><path d="M514.276,110.236H465.664a23.794,23.794,0,1,0,0,47.588h33.079V173.3l15.479-15.48h.054a23.794,23.794,0,1,0,0-47.588" fill="#1f4cbf"/></g></g><path d="M518.114,106.654H469.5a23.794,23.794,0,0,0,0,47.589h33.079v15.479l15.479-15.479h.054a23.794,23.794,0,0,0,0-47.589" fill="#61c3ff"/><path d="M500.492,128.31H468.474a3.044,3.044,0,1,1,0-6.089h32.018a3.044,3.044,0,1,1,0,6.089" fill="#fff"/><path d="M512.867,139.479H468.473a3.045,3.045,0,0,1,0-6.089h44.394a3.045,3.045,0,1,1,0,6.089" fill="#fff"/><path d="M519.333,128.31H512.49a3.044,3.044,0,0,1,0-6.089h6.843a3.044,3.044,0,1,1,0,6.089" fill="#fff"/><g opacity="0.2"><g clip-path="url(#h)"><path d="M145.07,211.943A17.947,17.947,0,1,0,118.665,188a18.04,18.04,0,0,0-4.429,4.959,45.163,45.163,0,0,0-6.091-.414H50.828A44.844,44.844,0,0,0,5.984,237.392c0,23.87,17.758,43.374,41.28,44.758l15.273,15.272V282.247l45.608-.01a44.846,44.846,0,0,0,36.925-70.294" fill="#1f4cbf"/></g></g><path d="M104.19,187.462H46.874A44.845,44.845,0,0,0,2.029,232.307c0,23.869,17.758,43.374,41.281,44.757l15.272,15.273V277.162l45.608-.011a44.844,44.844,0,1,0,0-89.689" fill="#fff"/><g opacity="0.2"><g clip-path="url(#i)"><path d="M107.709,197.137a17.95,17.95,0,1,1,17.95,17.95,17.949,17.949,0,0,1-17.95-17.95" fill="#1f4cbf"/></g></g><path d="M111.382,193.323a17.95,17.95,0,1,1,17.95,17.95,17.95,17.95,0,0,1-17.95-17.95" fill="#ff5a5a"/><path d="M120.6,203.114h17.461a8.728,8.728,0,0,0-5.49-8.1,6.2,6.2,0,1,0-6.482,0,8.729,8.729,0,0,0-5.489,8.1" fill="#43444f"/><path d="M76.2,228.9H41.665a3.285,3.285,0,0,1,0-6.569H76.2a3.285,3.285,0,0,1,0,6.569" fill="#a7b5bc"/><path d="M110.529,228.9H89.2a3.285,3.285,0,1,1,0-6.569h21.33a3.285,3.285,0,0,1,0,6.569" fill="#a7b5bc"/><path d="M89.552,240.944H41.665a3.285,3.285,0,0,1,0-6.569H89.552a3.285,3.285,0,0,1,0,6.569" fill="#a7b5bc"/><path d="M110.529,240.944h-7.381a3.285,3.285,0,0,1,0-6.569h7.381a3.285,3.285,0,0,1,0,6.569" fill="#a7b5bc"/><g opacity="0.2"><g clip-path="url(#j)"><path d="M529.08,211.212a15.585,15.585,0,1,0-22.931-20.791,15.675,15.675,0,0,0-3.846,4.306,39.286,39.286,0,0,0-5.29-.359H447.238a38.944,38.944,0,0,0-38.944,38.945c0,20.728,15.421,37.667,35.849,38.868l13.263,13.263V272.266l39.607-.009a38.946,38.946,0,0,0,32.067-61.045" fill="#1f4cbf"/></g></g><path d="M497.013,189.953H447.238A38.944,38.944,0,0,0,408.294,228.9c0,20.729,15.421,37.668,35.849,38.869l13.263,13.263V267.851l39.607-.009a38.945,38.945,0,0,0,0-77.889" fill="#fff"/><g opacity="0.2"><g clip-path="url(#k)"><path d="M500.07,198.354a15.589,15.589,0,1,1,15.588,15.588,15.588,15.588,0,0,1-15.588-15.588" fill="#1f4cbf"/></g></g><path d="M503.259,195.042a15.588,15.588,0,1,1,15.589,15.588,15.588,15.588,0,0,1-15.589-15.588" fill="#ff5a5a"/><path d="M511.266,203.545h15.163a7.578,7.578,0,0,0-4.767-7.036,5.384,5.384,0,1,0-5.629,0,7.58,7.58,0,0,0-4.767,7.036" fill="#43444f"/><path d="M472.708,225.935H442.714a2.852,2.852,0,0,1,0-5.7h29.994a2.852,2.852,0,0,1,0,5.7" fill="#a7b5bc"/><path d="M502.518,225.935H483.994a2.852,2.852,0,0,1,0-5.7h18.524a2.852,2.852,0,0,1,0,5.7" fill="#a7b5bc"/><path d="M484.3,236.4H442.715a2.852,2.852,0,1,1,0-5.7H484.3a2.852,2.852,0,1,1,0,5.7" fill="#a7b5bc"/><path d="M502.518,236.4h-6.41a2.852,2.852,0,0,1,0-5.7h6.41a2.852,2.852,0,0,1,0,5.7" fill="#a7b5bc"/><g opacity="0.2"><g clip-path="url(#l)"><path d="M156.971,63.682a20.254,20.254,0,1,0-29.8-27.019,20.369,20.369,0,0,0-5,5.6,51.1,51.1,0,0,0-6.874-.467H50.611A50.612,50.612,0,0,0,0,92.4c0,26.939,20.042,48.952,46.589,50.513l17.236,17.236V143.026l51.473-.012a50.612,50.612,0,0,0,41.673-79.332" fill="#1f4cbf"/></g></g><path d="M115.3,36.053H50.611A50.611,50.611,0,0,0,0,86.664c0,26.939,20.041,48.952,46.588,50.513l17.237,17.236V137.287l51.472-.012a50.611,50.611,0,1,0,0-101.222" fill="#fff"/><g opacity="0.2"><g clip-path="url(#m)"><path d="M119.269,46.971a20.258,20.258,0,1,1,20.258,20.258,20.258,20.258,0,0,1-20.258-20.258" fill="#1f4cbf"/></g></g><path d="M123.414,42.667a20.258,20.258,0,1,1,20.258,20.258,20.258,20.258,0,0,1-20.258-20.258" fill="#ff5a5a"/><path d="M133.82,53.717h19.706a9.852,9.852,0,0,0-6.2-9.144,7,7,0,1,0-7.316,0,9.851,9.851,0,0,0-6.195,9.144" fill="#43444f"/><path d="M83.711,82.815H44.732a3.707,3.707,0,1,1,0-7.413H83.711a3.707,3.707,0,1,1,0,7.413" fill="#a7b5bc"/><path d="M122.451,82.815H98.378a3.707,3.707,0,1,1,0-7.413h24.073a3.707,3.707,0,1,1,0,7.413" fill="#a7b5bc"/><path d="M98.777,96.411H44.733a3.707,3.707,0,1,1,0-7.413H98.777a3.707,3.707,0,1,1,0,7.413" fill="#a7b5bc"/><path d="M122.451,96.411h-8.33a3.707,3.707,0,0,1,0-7.413h8.33a3.707,3.707,0,1,1,0,7.413" fill="#a7b5bc"/><g opacity="0.2"><g clip-path="url(#n)"><path d="M148.009,264.118H101.888a22.575,22.575,0,1,0,0,45.15h31.384v14.686l14.686-14.686h.051a22.575,22.575,0,1,0,0-45.15" fill="#1f4cbf"/></g></g><path d="M151.65,260.72H105.529a22.575,22.575,0,1,0,0,45.15h31.384v14.686L151.6,305.87h.051a22.575,22.575,0,1,0,0-45.15" fill="#61c3ff"/><path d="M134.932,281.267H104.554a2.889,2.889,0,0,1,0-5.777h30.378a2.889,2.889,0,1,1,0,5.777" fill="#fff"/><path d="M146.673,291.863H104.554a2.889,2.889,0,1,1,0-5.777h42.119a2.889,2.889,0,1,1,0,5.777" fill="#fff"/><path d="M152.807,281.267h-6.492a2.889,2.889,0,0,1,0-5.777h6.492a2.889,2.889,0,1,1,0,5.777" fill="#fff"/><g opacity="0.2"><g clip-path="url(#o)"><path d="M85.462,3.4H39.341a22.575,22.575,0,0,0,0,45.15H70.725V63.234L85.411,48.548h.051a22.575,22.575,0,1,0,0-45.15" fill="#1f4cbf"/></g></g><path d="M89.1,0H42.982a22.575,22.575,0,0,0,0,45.15H74.366V59.836L89.052,45.15H89.1A22.575,22.575,0,1,0,89.1,0" fill="#61c3ff"/><path d="M72.384,20.547H42.006a2.889,2.889,0,1,1,0-5.777H72.384a2.889,2.889,0,1,1,0,5.777" fill="#fff"/><path d="M84.125,31.143H42.006a2.889,2.889,0,1,1,0-5.777H84.125a2.889,2.889,0,1,1,0,5.777" fill="#fff"/><path d="M90.26,20.547H83.768a2.889,2.889,0,0,1,0-5.777H90.26a2.889,2.889,0,1,1,0,5.777" fill="#fff"/><g opacity="0.2"><g clip-path="url(#p)"><path d="M368.426,280.137H322.3a22.575,22.575,0,0,0,0,45.15h31.384v14.686l14.686-14.686h.051a22.575,22.575,0,1,0,0-45.15" fill="#1f4cbf"/></g></g><path d="M372.067,276.738H325.946a22.575,22.575,0,1,0,0,45.15H357.33v14.686l14.686-14.686h.051a22.575,22.575,0,1,0,0-45.15" fill="#fff"/><path d="M355.348,297.285H324.97a2.889,2.889,0,1,1,0-5.777h30.378a2.889,2.889,0,1,1,0,5.777" fill="#a7b5bc"/><path d="M367.09,307.882H324.971a2.889,2.889,0,1,1,0-5.778H367.09a2.889,2.889,0,1,1,0,5.778" fill="#a7b5bc"/><path d="M373.224,297.285h-6.492a2.889,2.889,0,0,1,0-5.777h6.492a2.889,2.889,0,1,1,0,5.777" fill="#a7b5bc"/></g></g></svg>