<svg xmlns="http://www.w3.org/2000/svg" xmlns:xlink="http://www.w3.org/1999/xlink" width="400" height="62.714" viewBox="0 0 400 62.714"><defs><clipPath id="a"><path d="M0,0H42.5V31.356H0Z" fill="#fff"/></clipPath></defs><g transform="translate(0.008)"><g transform="translate(-0.008 0)"><path d="M102.4,62.028v.021a11.527,11.527,0,0,1-6.638-5.867,10.894,10.894,0,0,1-.727-1.989,6.4,6.4,0,0,1-.15-.651,13.391,13.391,0,0,1-.187-1.381l-.017-.168c-.018-.191-.038-.387-.042-.569a10.947,10.947,0,0,1,.083-1.53l0-.245a1.863,1.863,0,0,1,.017-.2L95.388,47a4.7,4.7,0,0,1,.229-.53.635.635,0,0,0,.087-.181.731.731,0,0,1,.078-.167,1.441,1.441,0,0,0,.167-.372,3.161,3.161,0,0,1,.162-.357l.044-.125.041-.119A17.1,17.1,0,0,0,85.865,23.367l-.543-.187-.113-.038-.2-.071-.314-.108-.15-.053-.242-.05a6.1,6.1,0,0,1-.767-.188l-2.379-1.009L81,21.556a3.107,3.107,0,0,0-.259-.176,11.734,11.734,0,0,1-1.2-.861c-.134-.107-.257-.224-.39-.348L79,20.03c-.3-.29-.615-.624-.958-1.023l-.068-.078-.089-.107c-.087-.105-.176-.212-.271-.345A11.358,11.358,0,0,1,76.5,16.7a11.617,11.617,0,1,1,20.9-10.157,11.112,11.112,0,0,1,.719,1.969c.044.15.075.3.107.438l.03.138-.021.063a11.232,11.232,0,0,1,.215,1.414v.029c.024.23.048.466.053.692a12.5,12.5,0,0,1-.075,1.532,3.322,3.322,0,0,1-.02.4l-.015.041-.018.056-.624,2.356c-.036.093-.083.187-.126.277a2.673,2.673,0,0,0-.138.31l-.2.295-.114.334a2.761,2.761,0,0,1-.182.39l-.041.117-.041.119a17.015,17.015,0,0,0,10.3,21.836l.669.23.105.036.105.036.328.113.077.026.161.032a6.8,6.8,0,0,1,.915.215l2.421,1.035a1.4,1.4,0,0,1,.132.092l.253.173a11.1,11.1,0,0,1,1.178.835c.159.128.3.262.442.391l.11.1c.373.366.689.7.966,1.026l.418.527a11.7,11.7,0,0,1,1.121,1.8,11.584,11.584,0,0,1-14.213,16.02ZM98.208,50.8a8.306,8.306,0,1,0,8.314-8.308A8.306,8.306,0,0,0,98.208,50.8Zm-18,9.553A5.725,5.725,0,0,1,78.368,59a8.526,8.526,0,0,1-1.053-1.443h-.351V60.5H72.752V31.8h4.316v10.23h.253a9.248,9.248,0,0,1,1.031-1.422,5.622,5.622,0,0,1,1.814-1.345,6.6,6.6,0,0,1,2.928-.569,8.184,8.184,0,0,1,4.554,1.31,8.912,8.912,0,0,1,3.188,3.784,13.917,13.917,0,0,1,1.17,5.991,14.225,14.225,0,0,1-1.148,5.983A8.885,8.885,0,0,1,87.7,59.586a8.114,8.114,0,0,1-4.562,1.324,6.689,6.689,0,0,1-2.926-.563Zm-2.1-15.926a9.669,9.669,0,0,0-1.331,5.318,9.97,9.97,0,0,0,1.337,5.393,4.513,4.513,0,0,0,4.1,2.13A4.682,4.682,0,0,0,86.4,55.128a9.6,9.6,0,0,0,1.408-5.387,9.338,9.338,0,0,0-1.395-5.3,4.712,4.712,0,0,0-4.2-2.081,4.542,4.542,0,0,0-4.1,2.067ZM37.776,59.947a6.713,6.713,0,0,1-2.7-2.627,9.177,9.177,0,0,1-1.071-4.736V38.978h4.316v13.54a4.4,4.4,0,0,0,1.184,3.31,4.143,4.143,0,0,0,3.009,1.148,4.766,4.766,0,0,0,2.318-.6,4.583,4.583,0,0,0,1.787-1.814,6.191,6.191,0,0,0,.686-3.075V38.978h4.3V60.5H47.458V57.713h-.224a7.813,7.813,0,0,1-2.4,2.129,7.221,7.221,0,0,1-3.8.939,7.09,7.09,0,0,1-3.257-.833Zm19.238.554V38.978h4.259v3.391h.253A4.841,4.841,0,0,1,63.5,39.718a5.566,5.566,0,0,1,3.251-1.053,5.717,5.717,0,0,1,1.625.23,5.867,5.867,0,0,1,1.289.525l-1.387,3.853a4.934,4.934,0,0,0-.736-.287,3.859,3.859,0,0,0-1.184-.161,4.386,4.386,0,0,0-2.663.82,5.55,5.55,0,0,0-1.738,2.088,6.028,6.028,0,0,0-.63,2.6V60.508Z" transform="translate(17.162 0)" fill="#fff" opacity="0.52"/><path d="M2.009,13.087l2.011-.99a15.82,15.82,0,0,0,1.565-.734l-.047-1.022a.677.677,0,0,1,.782.017,8.18,8.18,0,0,0,1.372-.719c.1-.159.111-.111.111-.111l.28.441.024.038s1.932-.894,2.028-.894,5.986-1.149,6.1-1.309c0,0,.351-.495.542-.432a.358.358,0,0,1,.208.3l.734-.063.927.432.382-.048a3.46,3.46,0,0,1,3.05-.575,4.915,4.915,0,0,0,1.453-.032c.224-.128,1.885-.495,5.365.51a.466.466,0,0,0,.271.208l.335.032.128-.111a8.369,8.369,0,0,1,3.4.59,11.3,11.3,0,0,0,3.561.451s.239.32.495.32.3.111.3.111.4-.32,1.468.048c.08.03,1.468.493,1.566.493s.271-.335.973-.015c.6.335.752.08.752.08a3.066,3.066,0,0,0,1.34.159,2.565,2.565,0,0,1,1.9.463l.719.095s1.053-.527,1.42.352l1.453.017a.856.856,0,0,1,1.086.095l.4.08a.8.8,0,0,1,.973-.128l1.453.272s.558-.623.988-.224l1.516-.512s.638-.095.736-.367a.639.639,0,0,1,.686-.208l.686-.352s.191-.063.239.048l.415.224A.9.9,0,0,1,59.4,9.64v.048s-.126-.782.1-.847a1.52,1.52,0,0,1,.638.065s.128-.369.271-.432a.707.707,0,0,0,.272-.8s.08-.208.256.048a2.3,2.3,0,0,0,.319.384l.128-.8a2.407,2.407,0,0,1-.352-1.693S62.084,6.99,62.26,6.958s-.223-.83-.223-.83.415.573.623.493a.489.489,0,0,1,.623.432c.319.319,1,.877,1,.877l.384.83.272-.095.462.862s1.389,1.022,1.118,1.739c0,0,1.82,1.325,1.277,2.236l.463,1.655A.978.978,0,0,1,69,15.78a2.9,2.9,0,0,0,.415.814l-.175.718a1.271,1.271,0,0,1,1.022.942s-.063.59-.99.3v.669h-1.55l-.367.159L67.849,21l.047.495-.111,1.372-.43.495-.894.6s0,.239-.432.335-2.219.478-2.219.478l-1.55.671a1.685,1.685,0,0,1-1.292.451l-1.405.495a9.328,9.328,0,0,0-2.011.367c-.719.272-1.422.543-1.805.335a25.363,25.363,0,0,1-4.566-.319l-.7.08s-.451.846-1.485-.048l-.224.4L45.5,26.226l-.862.271a1.164,1.164,0,0,1-.688-.367,8.974,8.974,0,0,0-1.022.176,7.974,7.974,0,0,1-2.284-.671c-.6-.417-.815-.337-.815-.337s-.4.176.017,1.151a7.071,7.071,0,0,0,.048,2.123.888.888,0,0,1-.48,1.07c-.078,0-1.628.719-1.34,1.981,0,0-.208,1.42-.208,2.043a4.664,4.664,0,0,1-.478,1.756,3.925,3.925,0,0,0-.128,1.374c-.032.352-.335.575-.575.463a9.737,9.737,0,0,1,.319,3.736l.495.495-1.325,2.586s-.223.015.367,3.656c0,0-.191,4.614-.766,8.4a4.324,4.324,0,0,1-3.611,3.752s-.814-.15-1.644-2.666a3.937,3.937,0,0,1,.239-.736s0-.063-2.282-3.847a9.714,9.714,0,0,1-1.1-3.385c.048-.128-.15-1.1-1.787-3.352a7.712,7.712,0,0,1-1.038-2.154c0-.176.638-.432.176-.973-.6-1.405-2.538-3.815-1.884-5.317A2.574,2.574,0,0,1,24,36.381l-.8-1.5.782-1.244.32.191-.113-.432.256-.15s-.32.925.287.415.415-.463.415-.463l-.256-.382s2.028-1.644,1.756-3.033c0,0,.942.128,1.34-1.277a4.336,4.336,0,0,0,2.49-1.405l.223.191.033-.095.078.256.159-.352s.352.352.451.32.08-.575,1.309-1.022a3.183,3.183,0,0,0,1.354-1.1s1.246,1.389,1.724,1.389c.688.256,1.213-.719,1.213-.719s.558-.7.847-.623c0,0,.481.326,1.646-.11l.047-.018a8.042,8.042,0,0,0-.879-.414l-.272.08a6.516,6.516,0,0,0-1.389-.767s-.478-.814-.846-.6l-.575.017s-.159-.224-.367.239-.351.176-.367,0a3.123,3.123,0,0,0-.128-.51s-.543-.527-.752-.495-.208.32-.208.32-.6-.495-.99-.256c0,0-.287-.382-.925.065,0,0,.287-1.151-.478-.32a2.285,2.285,0,0,0-2-.654s-.527-.51-.734-.017-.048,0-.048,0-1.644-.451-1.805-.223c0,0,.033.495-.15.495a1.175,1.175,0,0,1-.478-.239.617.617,0,0,0-.623-.59A.63.63,0,0,1,24.9,20.8l-.191-.048s-.032.51-.382.4a1.805,1.805,0,0,0-.287.384c-.095.191-.208.032-.367-.095a2.391,2.391,0,0,1-.3-.3l-.527-.048-.3-.734H22.22l-.111.9s-1.309-.335-1.693.289a1.279,1.279,0,0,0-1.1.43c-.15.08-.591.241-.591.241s-.047-.99-.351-.719c-.3.111-.6.623-.671.734,0,0-.4.495-.8-.191l-.654.575-.639-.159-.239-.239s-.671-.1-.734-.017c0,0-.287.463-.415.463s-.4-.367-.4-.367-.191.451-.335.43a1.282,1.282,0,0,0-.495-.7l-.287-.415-1.5.575s-.048.543-.176.543-.4-.384-.4-.384l-2.267.527-.126.1s-.495.063-.671.095-.111.15-.111.15-.99-.08-.942-.191S7.24,23,7.335,23c0,0-.335-.176-.239-.335s.191-.159.191-.159l-.128-.575.08-.15L6.6,21.049s-.095-.782.3-.432a3.2,3.2,0,0,0,.527.239c.048-.015.048-.159.048-.159l.367-.239.671.159.111-.095s.032-.558.384-.527a.257.257,0,0,1,.208.164.239.239,0,0,1,.017.045L8.8,19.022s.017-.495.623-.08a3.829,3.829,0,0,1,.623.736l.415-.065s0-.367.111-.384a1.065,1.065,0,0,1,.3.033l-.4-.847.065-.493a9.829,9.829,0,0,0,1.292-.654c.159-.159.782-.15.862-.128a1.888,1.888,0,0,0-.451-1.2s-.591-.942.063-.957l.176-.223-.048-.128-.191-1.47-.688.352-1.133.367L9.8,13.543s-.973,1.086-1.613.623l-1.723.6a11.183,11.183,0,0,0-1.246-.176s-.1.815-.193.862a2.872,2.872,0,0,1-1.354.558,9.156,9.156,0,0,0-1.134,1.277s-1.307-.032-1.354-.973l.063-.272S.29,15.724.193,15.724c0,0-.43-.256-.032-.782S1.9,13.287,2.009,13.087Z" transform="translate(0.008 2.833)" fill="#fff" opacity="0.88"/></g><g transform="translate(122.667 3.01)" clip-path="url(#a)"><path d="M11.084,11.5a1.458,1.458,0,1,0,1.458,1.458A1.458,1.458,0,0,0,11.084,11.5m22.2-8.205.2-.066a.894.894,0,0,0,.114-.054l.069-.057a.561.561,0,0,0-.334-.982h-.08a.572.572,0,0,0-.536.57.557.557,0,0,0,.15.375.581.581,0,0,0,.241.158Z" transform="translate(4.856 1.076)" fill="#fff"/><path d="M38.54,12.193H35.734l-.2-.293a1.956,1.956,0,0,0-1.226-.829l-.537-.11V8.8A14.541,14.541,0,0,0,20.885.891h-.15A14.541,14.541,0,0,0,7.842,8.8v2.159L7.3,11.07a1.956,1.956,0,0,0-1.232.829l-.2.293H3.065c-1,0-2.174,1.44-2.174,3.292s1.169,3.3,2.174,3.3H5.872l.2.293A1.956,1.956,0,0,0,7.3,19.9l.539.107V22.1c2.172,4.265,6.532,6.427,12.965,6.427S31.6,26.369,33.773,22.1V20.017l.537-.108a1.956,1.956,0,0,0,1.228-.829l.2-.293h2.8c1,0,2.174-1.441,2.174-3.3s-1.169-3.3-2.174-3.3m-5.523,6.878A2.634,2.634,0,0,1,30.9,21.2H30.83a159.807,159.807,0,0,1-20.042,0H10.7a2.633,2.633,0,0,1-2.117-2.127,26.629,26.629,0,0,1,0-9.525A2.633,2.633,0,0,1,10.7,7.42l.077-.009a159.5,159.5,0,0,1,20.042,0l.077.009a2.633,2.633,0,0,1,2.117,2.127,26.629,26.629,0,0,1,0,9.523M3.288,24.464a12.207,12.207,0,0,0,2.485,4.6L3.941,22.337c-.725.256-1.073.591-.654,2.127" transform="translate(0.449 0.449)" fill="#fff"/><path d="M18.136,8.357a1.458,1.458,0,1,0,1.458,1.458,1.458,1.458,0,0,0-1.458-1.458" transform="translate(8.413 4.216)" fill="#fff"/><path d="M39.223,11.312V5.344l.086-.062a1.244,1.244,0,0,0,.117-.092l.734-.657-.22-.11a1.884,1.884,0,0,0,.117-.651,1.915,1.915,0,0,0-.963-1.655l.069-.2-.933-.051h-.086a1.906,1.906,0,0,0-1.425,3.177,1.855,1.855,0,0,0,.346.3V11.3h-.2a3.278,3.278,0,0,0-1.309-.937V8.937L35.492,8.8A15.883,15.883,0,0,0,21.341,0h-.164A15.886,15.886,0,0,0,7.02,8.8l-.069.141v1.425a3.274,3.274,0,0,0-1.313.939H3.514C1.643,11.3,0,13.468,0,15.938s1.643,4.637,3.514,4.637H5.636a3.278,3.278,0,0,0,1.313.939v1.354l.069.141c2.359,4.783,7.282,7.312,14.237,7.312s11.878-2.528,14.237-7.312l.069-.14V21.515a3.287,3.287,0,0,0,1.309-.937h2.12c1.872,0,3.514-2.166,3.514-4.637,0-2.367-1.5-4.455-3.28-4.625m-.233,8.592H36.539a2.631,2.631,0,0,1-1.655,1.109v1.7c-2.49,5.05-7.659,6.939-13.635,6.939S10.11,27.762,7.62,22.717v-1.7A2.63,2.63,0,0,1,5.965,19.9H3.514C2.078,19.9.671,18.129.671,15.937S2.078,11.97,3.514,11.97H5.967a2.63,2.63,0,0,1,1.655-1.11V9.093a15.249,15.249,0,0,1,27.271,0v1.769a2.631,2.631,0,0,1,1.655,1.109h1.2V4.935a1.253,1.253,0,0,1-.516-.343,1.235,1.235,0,0,1,.924-2.061h.1a1.232,1.232,0,0,1,.73,2.148c-.029.026-.06.045-.09.068s-.044.035-.068.05a1.115,1.115,0,0,1-.135.074c-.024.012-.047.026-.072.036a.5.5,0,0,1-.06.018v7.047H39c1.437,0,2.843,1.775,2.843,3.966S40.437,19.9,39,19.9" transform="translate(0 0)" fill="#fff"/><path d="M30.484,5.773a158.4,158.4,0,0,0-19.957,0A1.956,1.956,0,0,0,8.951,7.358a26.036,26.036,0,0,0,0,9.29,1.956,1.956,0,0,0,1.577,1.584,158.406,158.406,0,0,0,19.957,0,1.956,1.956,0,0,0,1.577-1.584,26.036,26.036,0,0,0,0-9.29,1.956,1.956,0,0,0-1.577-1.584M31.4,16.527a1.291,1.291,0,0,1-1,1.034,158.244,158.244,0,0,1-19.787,0,1.289,1.289,0,0,1-1-1.037,25.275,25.275,0,0,1,0-9.054,1.289,1.289,0,0,1,1-1.034,158.5,158.5,0,0,1,19.787,0,1.289,1.289,0,0,1,1,1.037,25.3,25.3,0,0,1,0,9.051M4.83,19.284a.94.94,0,0,0-.442-.573.96.96,0,0,0-.752-.084C2.3,19.04.935,19.715,1.7,22.512c.533,1.956,2.407,5.66,4.238,6.071a.946.946,0,0,0,1.1-1.175Zm1.243,8.645c-1.331-.3-3.135-3.415-3.728-5.591-.611-2.246.284-2.7,1.491-3.069h.009a.275.275,0,0,1,.339.194l2.212,8.124a.275.275,0,0,1-.322.343" transform="translate(0.745 2.754)" fill="#fff"/><path d="M13.945,13.855c0,1.128,1.247,1.981,2.9,1.981s2.9-.852,2.9-1.981v-.666h-5.8Zm5.133,0c0,.724-1,1.31-2.231,1.31s-2.231-.587-2.231-1.31ZM11.534,7.466a2.8,2.8,0,1,0,2.8,2.8,2.8,2.8,0,0,0-2.8-2.8m0,4.926a2.127,2.127,0,1,1,2.127-2.127,2.127,2.127,0,0,1-2.127,2.127m10.6-4.926a2.8,2.8,0,1,0,2.8,2.8,2.8,2.8,0,0,0-2.8-2.8m0,4.926a2.127,2.127,0,1,1,2.127-2.127,2.127,2.127,0,0,1-2.127,2.127" transform="translate(4.406 3.766)" fill="#fff"/></g><path d="M104.569,36.737h4.5V38.3h-4.5Zm0-3.657h4.5v1.5h-4.5Zm12.353,0v1.5h-4.706v-1.5Zm0,5.217h-4.706v-1.56h4.706Zm3.095,2.276V30.8h-7.8V29.347h9.847V26.508h-9.847v-2.1h-3.146v2.1H99.454v2.839h9.617v1.458h-7.44v9.77H106.8a23.133,23.133,0,0,1-8.059,4.832,16.65,16.65,0,0,1,2.1,2.558,24.957,24.957,0,0,0,8.235-5.78v6.087h3.146V42.057a25.349,25.349,0,0,0,8.389,5.959,13.39,13.39,0,0,1,2.174-2.634,24.384,24.384,0,0,1-8.261-4.814Zm14.016-8.593V29.167h-2.685V24.41h-2.786v4.757h-3.12V31.98h2.708a29.8,29.8,0,0,1-3.2,8.9,17.327,17.327,0,0,1,1.56,2.89,22.908,22.908,0,0,0,2.046-4.6v9.105h2.788V36.353c.563,1.279,1.1,2.558,1.407,3.5l2.046-2.481c-.435-.818-2.379-4.169-3.223-5.4ZM138.2,43.95V39.218h6.469V43.95Zm6.469-12.174v4.578H138.2V31.775Zm-2.66-2.858c.46-1.253.946-2.685,1.381-4.092l-3.611-.384a33.782,33.782,0,0,1-.9,4.476h-3.734v19.2H138.2V46.84h6.469v1.125h3.171V28.911Zm17-3.274h-6.538v2.225h6.547Zm-.835,15.391h11.074v1.151H158.176Zm0-2.813h11.074v1.1H158.176Zm0-2.813h11.074v1.1H158.176Zm14.169,8.575V33.6h-17.11V43.983h3.683a29.165,29.165,0,0,1-6.982,2.115,20.58,20.58,0,0,1,2.257,2.225,33.189,33.189,0,0,0,7.974-3.329l-2.225-1.023h7.212l-1.56,1.253a47.081,47.081,0,0,1,6.65,3.018l2.737-1.632c-1.5-.742-4.015-1.765-6.368-2.634Zm-4.425-15.327v-.512h2.839a15.122,15.122,0,0,1-.9,1.483l2.353.87a22.408,22.408,0,0,0,2.353-4.041l-2.079-.639-.46.128h-7.256c.15-.358.3-.742.435-1.125l-2.66-.587a10.294,10.294,0,0,1-3,4.551,14.6,14.6,0,0,1,2.257,1.56,11.167,11.167,0,0,0,1.789-2.2h1.535v.384c0,.946-.639,2.1-5.524,2.609v-1.56H151.88V31.9h6.782a8.612,8.612,0,0,1,1.023,1.655c4.3-.486,6.42-1.483,7.391-2.609a12.218,12.218,0,0,0,6.7,2.583,9.858,9.858,0,0,1,1.688-2.43c-3.46-.179-6.168-.818-7.545-2.174ZM187.64,28.6h-4.476l1.56-.921a26.505,26.505,0,0,0-1.714-3.4l-2.174,1.1a22.8,22.8,0,0,1,1.5,3.223h-4.062V31h9.361Zm-.9,5.857v-2.3H179.32v2.3Zm-2.345,7.085V44.4h-2.708V41.545Zm2.407-2.43h-7.446v8.824h2.327V46.865H186.8Zm-7.468-1.228H186.8v-2.3h-7.471Zm8.67-12.2v2.89h2.506V35.33h-2.858v2.839h2.858v10.08h2.836V38.169H195.8V35.33h-2.455V28.578h3.095c-.026,9.514,0,18.371,2.43,19.387,1.586.665,2.89-.128,3.274-3.862a14.078,14.078,0,0,1-1.586-2.455,13.647,13.647,0,0,1-.332,3.248c-.946-.3-.972-10.793-.742-19.207Zm48.591,13.137h2.054l-.391.313c.254.1.528.235.8.352l-2.464.02ZM230.861,37.4v-.739h3.46V37.4Zm0-2.8h3.46v.724h-3.46Zm9.368,0v.724h-3.638v-.712Zm-3.638,2.8v-.743h3.638V37.4Zm7.8,4.363h-4.363v-.782l1.428-.039c.313.215.587.451.821.645L243.71,40.4a19.2,19.2,0,0,0-2.521-1.571h1.31V33.2h-5.907v-.7h7.139v-1.76h-7.139V29.5h-2.269V30.73h-7.178v1.76h7.178v.7h-5.633v5.631h5.633v.7c-2.64,0-5.046.02-6.884,0l.059,1.662c2.738-.02,6.435-.078,10.288-.15v.724H226.617V43.6h3.912l-.821.685a14.5,14.5,0,0,1,2.934,2.6l1.721-1.486A12.779,12.779,0,0,0,232.27,43.6h5.515v1.825c0,.254-.1.313-.411.332s-1.428,0-2.367-.039a8.54,8.54,0,0,1,.665,2.034,10.48,10.48,0,0,0,3.364-.313c.8-.313,1-.861,1-1.936V43.6H244.4Zm13.828-5.535a6.62,6.62,0,0,1-1.5,1.1q-1.6-.338-3.208-.6a5.773,5.773,0,0,0,.489-.489Zm6.806,3.247c-1.467-.509-3.384-1.053-5.5-1.565a7.328,7.328,0,0,0,1.491-1.683h3.987V34.41h-3.071c.1-.235.2-.489.274-.743l-2.269-.451a10.816,10.816,0,0,1-.469,1.193H255.7c.372-.43.685-.861,1-1.271l-1.408-.43h7.178v1.076h2.257V30.791h-6.99a13.631,13.631,0,0,0-.763-1.31l-2.464.489q.206.382.411.821h-6.943v2.992h2.151V32.708h4.244a20.391,20.391,0,0,1-1.232,1.7h-5.5v1.819h3.892a20.682,20.682,0,0,1-1.623,1.6q1.678.257,3.344.587a41.04,41.04,0,0,1-5.75.489,6.356,6.356,0,0,1,.8,1.917,28.585,28.585,0,0,0,8.955-1.526,42.371,42.371,0,0,1,5.557,1.682Zm.2,1.975h-7.783V40.1h-2.327v1.354h-7.631v1.917h4.264a10.572,10.572,0,0,1-4.3,2.5,17,17,0,0,1,1.959,1.544,14.194,14.194,0,0,0,4.713-3.286l-2.288-.763h3.286v4.381h2.327V43.367H259.7l-1.33,1.115a27.932,27.932,0,0,1,4.921,3.168l1.819-1.623a28.1,28.1,0,0,0-4.4-2.66h4.513Zm16.606,2.971v1.1h-8.253v-1.1Zm-.978-5.281V40.16h-7.276V39.143Zm-7.276,2.679h9.544V37.459H271.211V47.768h2.367V47.24h8.253v.528h2.327V42.722H273.578Zm4.909-6.908a7.607,7.607,0,0,0-.743-1.428c.215.176.411.332.548.469a8.057,8.057,0,0,0,1.369-1.526H281.4l-.841.724a18.879,18.879,0,0,1,1.936,1.76Zm-8.8,0a15.5,15.5,0,0,0,1.956-2.464H272.8l-.724.645a14.039,14.039,0,0,1,1.78,1.819Zm5.946-1.115a9.662,9.662,0,0,1,.508,1.115h-2.23l1.407-1.286a12.774,12.774,0,0,0-1.154-1.173h2.583l-.176.137a10.62,10.62,0,0,1,1.1.821Zm10.5-3.129h-5.416a7.418,7.418,0,0,0,.352-.821l-2.093-.548a8.189,8.189,0,0,1-2.055,3V30.674h-4.3a6.873,6.873,0,0,0,.352-.782l-2.054-.587a11.243,11.243,0,0,1-2.855,4.1,13.691,13.691,0,0,1,1.5,1.5h-.7v3.4h2.257V36.662h12.067v1.655h2.386v-3.4h-2.609l1.291-1.154a12.187,12.187,0,0,0-1.5-1.33h3.4Zm9.094,10.972c-.626.215-1.271.411-1.917.6V38.332h1.76V36.209H293.31V32.767H295.4V30.6h-6.454v2.171H291.1v3.442h-1.975v2.132H291.1v4.6c-.9.254-1.7.469-2.386.645l.528,2.367c1.878-.6,4.225-1.354,6.376-2.106Zm3.009-5.907h2.014v1.682H298.24Zm0-3.46h2.014V33.9H298.24Zm5.907,1.623h-1.933v-1.62h1.936Zm0,3.52h-1.933V35.74h1.936Zm-1.718,7.611V43.172h4.146v-2.09h-4.146V39.4h3.931V30.3H296.146V39.4h3.912v1.685h-4.047v2.093h4.049V45.03h-5.4v2.106h12.576V45.03ZM329.778,39.1h-7.841V32.689h6.728v-1.78H313.332v1.78h6.728V39.1h-7.745v1.838h7.745v6.65h1.878v-6.65h7.841ZM314.6,34a21.264,21.264,0,0,1,1.623,4.3l1.741-.587a19.612,19.612,0,0,0-1.721-4.225Zm10.776,4.322a37.528,37.528,0,0,0,2.293-4.381l-1.941-.531a26.232,26.232,0,0,1-1.917,4.4ZM346.248,41V44.8h-8.9V41ZM335.51,47.592h1.838V46.555h8.9v1h1.936V39.26H335.51Zm8.117-14.981c.841.782,1.741,1.721,2.582,2.66l-9.095.372a38.493,38.493,0,0,0,4.674-5.392l-1.819-.782a31.37,31.37,0,0,1-4.324,5.412,3.6,3.6,0,0,1-1.6,1.115,16.991,16.991,0,0,1,.588,1.778c.88-.313,2.132-.352,12.889-.919a15.542,15.542,0,0,1,1.134,1.6l1.526-1.136a34.335,34.335,0,0,0-5.144-5.672Z" transform="translate(49.814 12.224)" fill="#fff"/><path d="M175.738,28.732h1.5V45.281h-1.5Z" transform="translate(88.657 14.494)" fill="#fff" opacity="0.48"/></g></svg>