<svg height="512pt" viewBox="0 0 512 512" width="512pt" xmlns="http://www.w3.org/2000/svg"><path d="m416 512h-320c-53.023438 0-96-42.976562-96-96v-320c0-53.023438 42.976562-96 96-96h320c53.023438 0 96 42.976562 96 96v320c0 53.023438-42.976562 96-96 96zm0 0" fill="#fff9dd"/><path d="m208 293.328125c0-44.113281 35.886719-80 80-80s80 35.886719 80 80c0 2.910156-.207031 5.792969-.511719 8.640625 9.695313-4 16.511719-13.519531 16.511719-24.640625v-96c0-14.71875-11.9375-26.671875-26.671875-26.671875h-202.65625c-14.734375.015625-26.671875 11.953125-26.671875 26.671875v96c0 14.734375 11.9375 26.671875 26.671875 26.671875h54.128906c-.480469-3.503906-.800781-7.039062-.800781-10.671875zm0 0" fill="#ffd200"/><path d="m380.878906 371.121094-40.765625-40.769532c7.453125-10.464843 11.886719-23.214843 11.886719-37.023437 0-35.296875-28.703125-64-64-64s-64 28.703125-64 64 28.703125 64 64 64c13.808594 0 26.558594-4.433594 37.023438-11.886719l40.769531 40.765625c2.078125 2.082031 4.816406 3.121094 7.535156 3.121094s5.457031-1.039063 7.535156-3.121094c4.175781-4.160156 4.175781-10.910156.015625-15.085937zm0 0" fill="#ffe777"/></svg>