<svg height="512pt" viewBox="0 0 512 512" width="512pt" xmlns="http://www.w3.org/2000/svg"><path d="m416 512h-320c-53.023438 0-96-42.976562-96-96v-320c0-53.023438 42.976562-96 96-96h320c53.023438 0 96 42.976562 96 96v320c0 53.023438-42.976562 96-96 96zm0 0" fill="#fff9dd"/><path d="m354.671875 213.328125h-112c-16.175781 0-29.328125 13.152344-29.328125 29.328125v112c0 16.175781 13.152344 29.328125 29.328125 29.328125h112c16.175781.015625 29.328125-13.136719 29.328125-29.3125v-112c0-16.175781-13.152344-29.34375-29.328125-29.34375zm0 0" fill="#ffd200"/><path d="m197.328125 242.671875c0-24.992187 20.335937-45.328125 45.328125-45.328125h73.472656c-11.457031-40.320312-48.144531-69.34375-92.128906-69.34375-52.945312 0-96 43.070312-96 96 0 43.96875 29.023438 80.671875 69.328125 92.128906zm0 0" fill="#ffe777"/></svg>