<svg height="512pt" viewBox="0 0 512 512" width="512pt" xmlns="http://www.w3.org/2000/svg"><path d="m416 512h-320c-53.023438 0-96-42.976562-96-96v-320c0-53.023438 42.976562-96 96-96h320c53.023438 0 96 42.976562 96 96v320c0 53.023438-42.976562 96-96 96zm0 0" fill="#fff9dd"/><path d="m330.671875 362.65625h-149.328125c-4.144531 0-7.902344-2.398438-9.664062-6.144531-1.757813-3.742188-1.183594-8.160157 1.472656-11.359375l74.304687-89.152344-74.304687-89.167969c-2.65625-3.183593-3.214844-7.617187-1.472656-11.359375 1.761718-3.746094 5.519531-6.144531 9.664062-6.144531h149.328125c5.886719 0 10.671875 4.769531 10.671875 10.671875v32c0 5.886719-4.785156 10.671875-10.671875 10.671875s-10.671875-4.785156-10.671875-10.671875v-21.328125h-115.886719l65.421875 78.496094c3.296875 3.953125 3.296875 9.710937 0 13.664062l-65.421875 78.496094h115.886719v-21.328125c0-5.886719 4.785156-10.671875 10.671875-10.671875s10.671875 4.769531 10.671875 10.671875v32c0 5.886719-4.785156 10.65625-10.671875 10.65625zm0 0" fill="#ffd200"/></svg>