<svg height="512pt" viewBox="0 0 512 512" width="512pt" xmlns="http://www.w3.org/2000/svg"><path d="m416 512h-320c-53.023438 0-96-42.976562-96-96v-320c0-53.023438 42.976562-96 96-96h320c53.023438 0 96 42.976562 96 96v320c0 53.023438-42.976562 96-96 96zm0 0" fill="#fff9dd"/><g fill="#ffd200"><path d="m298.65625 362.671875h-37.328125c-2.816406 0-5.425781-1.472656-6.863281-3.886719-1.441406-2.417968-1.503906-5.425781-.175782-7.890625l30.976563-57.535156h-23.9375c-4.417969 0-8-3.582031-8-8 0-4.414063 3.582031-8 8-8h37.328125c2.816406 0 5.421875 1.472656 6.863281 3.886719 1.441407 2.417968 1.503907 5.425781.175781 7.890625l-30.976562 57.535156h23.9375c4.414062 0 8 3.585937 8 8 0 4.417969-3.585938 8-8 8zm0 0"/><path d="m298.65625 234.671875c-4.417969 0-8-3.582031-8-8v-50.671875c0-5.886719-4.785156-10.671875-10.671875-10.671875s-10.671875 4.785156-10.671875 10.671875v50.671875c0 4.417969-3.585938 8-8 8-4.417969 0-8-3.582031-8-8v-50.671875c0-14.703125 11.953125-26.671875 26.671875-26.671875 14.703125 0 26.671875 11.953125 26.671875 26.671875v50.671875c0 4.417969-3.585938 8-8 8zm0 0"/><path d="m298.65625 205.328125h-37.328125c-4.417969 0-8-3.585937-8-8 0-4.417969 3.582031-8 8-8h37.328125c4.414062 0 8 3.582031 8 8 0 4.414063-3.585938 8-8 8zm0 0"/></g><path d="m168 352c-5.886719 0-10.671875-4.769531-10.671875-10.671875v-181.328125c0-5.886719 4.769531-10.671875 10.671875-10.671875 5.886719 0 10.671875 4.769531 10.671875 10.671875v181.328125c-.015625 5.902344-4.785156 10.671875-10.671875 10.671875zm0 0" fill="#ffe777"/><path d="m133.328125 317.328125 34.671875 37.34375 34.671875-37.34375zm0 0" fill="#ffe777"/><path d="m168 362.671875c-2.222656 0-4.335938-.929687-5.871094-2.558594l-34.671875-37.328125c-2.160156-2.335937-2.738281-5.730468-1.472656-8.640625 1.261719-2.914062 4.160156-4.800781 7.328125-4.800781h69.328125c3.183594 0 6.0625 1.886719 7.328125 4.800781 1.261719 2.910157.703125 6.320313-1.472656 8.640625l-34.671875 37.328125c-1.488281 1.628907-3.601563 2.558594-5.824219 2.558594zm-16.335938-37.34375 16.320313 17.566406 16.320313-17.566406zm0 0" fill="#ffe777"/></svg>