<svg height="512pt" viewBox="0 0 512 512" width="512pt" xmlns="http://www.w3.org/2000/svg"><path d="m416 512h-320c-53.023438 0-96-42.976562-96-96v-320c0-53.023438 42.976562-96 96-96h320c53.023438 0 96 42.976562 96 96v320c0 53.023438-42.976562 96-96 96zm0 0" fill="#ffe6e2"/><g fill="#fd907e"><path d="m170.671875 352c-5.902344 0-10.671875-4.769531-10.671875-10.671875v-181.328125c0-5.886719 4.769531-10.671875 10.671875-10.671875s10.671875 4.785156 10.671875 10.671875v181.328125c0 5.902344-4.785156 10.671875-10.671875 10.671875zm0 0"/><path d="m136 317.328125 34.671875 37.34375 34.65625-37.34375zm0 0"/><path d="m170.671875 362.671875c-2.222656 0-4.335937-.929687-5.871094-2.558594l-34.671875-37.328125c-2.160156-2.335937-2.738281-5.730468-1.472656-8.640625 1.265625-2.914062 4.160156-4.800781 7.328125-4.800781h69.328125c3.183594 0 6.0625 1.886719 7.328125 4.800781 1.261719 2.910157.703125 6.320313-1.472656 8.640625l-34.671875 37.328125c-1.488282 1.628907-3.601563 2.558594-5.824219 2.558594zm-16.320313-37.34375 16.320313 17.566406 16.320313-17.566406zm0 0"/></g><path d="m293.34375 234.671875c-4.414062 0-8-3.582031-8-8v-61.328125h-10.671875c-4.414063 0-8-3.582031-8-8 0-4.414062 3.585937-8 8-8h18.671875c4.417969 0 8 3.585938 8 8v69.328125c0 4.417969-3.582031 8-8 8zm0 0" fill="#fc573b"/><path d="m301.34375 362.671875h-26.671875c-4.414063 0-8-3.582031-8-8 0-4.414063 3.585937-8 8-8h26.671875c1.472656 0 2.671875-1.199219 2.671875-2.671875v-13.328125h-18.671875c-10.289062 0-18.671875-8.367187-18.671875-18.671875v-16c0-10.289062 8.367187-18.671875 18.671875-18.671875h16c10.289062 0 18.671875 8.367187 18.671875 18.671875v48c-.015625 10.289062-8.382813 18.671875-18.671875 18.671875zm-16-69.34375c-1.472656 0-2.671875 1.199219-2.671875 2.671875v16c0 1.472656 1.199219 2.671875 2.671875 2.671875h18.65625v-18.671875c0-1.472656-1.199219-2.671875-2.671875-2.671875zm0 0" fill="#fc573b"/><path d="m312 234.671875h-37.328125c-4.414063 0-8-3.582031-8-8 0-4.414063 3.585937-8 8-8h37.328125c4.414062 0 8 3.585937 8 8 0 4.417969-3.585938 8-8 8zm0 0" fill="#fc573b"/></svg>