<svg height="512pt" viewBox="0 0 512 512" width="512pt" xmlns="http://www.w3.org/2000/svg"><path d="m416 512h-320c-53.023438 0-96-42.976562-96-96v-320c0-53.023438 42.976562-96 96-96h320c53.023438 0 96 42.976562 96 96v320c0 53.023438-42.976562 96-96 96zm0 0" fill="#fff9dd"/><path d="m256 362.671875c-35.296875 0-64-26.320313-64-58.671875 0-5.886719 4.785156-10.671875 10.671875-10.671875s10.671875 4.769531 10.671875 10.671875c0 20.574219 19.136719 37.328125 42.671875 37.328125 23.519531 0 42.671875-16.753906 42.671875-37.328125s-19.152344-37.328125-42.6875-37.328125c-35.296875 0-64-26.320313-64-58.671875s28.703125-58.671875 64-58.671875 64 26.320313 64 58.671875c0 5.886719-4.785156 10.671875-10.671875 10.671875s-10.65625-4.769531-10.65625-10.671875c0-20.574219-19.136719-37.328125-42.671875-37.328125-23.519531 0-42.671875 16.753906-42.671875 37.328125s19.152344 37.328125 42.671875 37.328125c35.296875 0 64 26.320313 64 58.671875s-28.703125 58.671875-64 58.671875zm0 0" fill="#ffd200"/><path d="m330.671875 266.671875h-149.328125c-5.886719 0-10.671875-4.769531-10.671875-10.671875 0-5.886719 4.785156-10.671875 10.671875-10.671875h149.328125c5.886719 0 10.671875 4.769531 10.671875 10.671875s-4.785156 10.671875-10.671875 10.671875zm0 0" fill="#ffe777"/></svg>