<svg height="512pt" viewBox="0 0 512 512" width="512pt" xmlns="http://www.w3.org/2000/svg"><path d="m416 512h-320c-53.023438 0-96-42.976562-96-96v-320c0-53.023438 42.976562-96 96-96h320c53.023438 0 96 42.976562 96 96v320c0 53.023438-42.976562 96-96 96zm0 0" fill="#e3f8fa"/><path d="m416 512h-320c-53.023438 0-96-42.976562-96-96v-320c0-53.023438 42.976562-96 96-96h320c53.023438 0 96 42.976562 96 96v320c0 53.023438-42.976562 96-96 96zm0 0" fill="#e3f8fa"/><path d="m362.671875 362.671875h-42.671875c-5.886719 0-10.671875-4.769531-10.671875-10.671875v-13.328125c0-19.121094 15.550781-34.671875 34.671875-34.671875 4.414062 0 8-3.601562 8-8s-3.585938-8-8-8h-24c-5.886719 0-10.671875-4.769531-10.671875-10.671875s4.785156-10.671875 10.671875-10.671875h24c16.175781 0 29.328125 13.152344 29.328125 29.328125s-13.152344 29.328125-29.328125 29.328125c-7.359375 0-13.328125 5.984375-13.328125 13.328125v2.671875h32c5.886719 0 10.671875 4.765625 10.671875 10.671875-.015625 5.902344-4.785156 10.6875-10.671875 10.6875zm0 0" fill="#8ce1eb"/><g fill="#26c6da"><path d="m266.671875 320c-3.167969 0-6.289063-1.390625-8.382813-4.078125l-117.328124-149.328125c-3.648438-4.640625-2.832032-11.347656 1.792968-14.976562 4.636719-3.664063 11.324219-2.847657 14.972656 1.789062l117.328126 149.328125c3.648437 4.640625 2.832031 11.34375-1.789063 14.976563-1.96875 1.554687-4.289063 2.289062-6.59375 2.289062zm0 0"/><path d="m149.328125 320c-2.304687 0-4.625-.734375-6.574219-2.289062-4.640625-3.632813-5.441406-10.335938-1.792968-14.976563l117.328124-149.328125c3.648438-4.636719 10.351563-5.4375 14.976563-1.789062 4.636719 3.628906 5.4375 10.335937 1.789063 14.976562l-117.328126 149.328125c-2.109374 2.6875-5.246093 4.078125-8.398437 4.078125zm0 0"/></g></svg>