<svg height="512pt" viewBox="0 0 512 512" width="512pt" xmlns="http://www.w3.org/2000/svg"><path d="m416 512h-320c-53.023438 0-96-42.976562-96-96v-320c0-53.023438 42.976562-96 96-96h320c53.023438 0 96 42.976562 96 96v320c0 53.023438-42.976562 96-96 96zm0 0" fill="#f5e6fe"/><path d="m362.671875 245.328125h-42.671875c-5.886719 0-10.671875-4.769531-10.671875-10.671875v-13.328125c0-19.121094 15.550781-34.671875 34.671875-34.671875 4.398438 0 8-3.601562 8-8s-3.601562-8-8-8h-24c-5.886719 0-10.671875-4.769531-10.671875-10.671875 0-5.886719 4.769531-10.671875 10.671875-10.671875h24c16.175781 0 29.328125 13.152344 29.328125 29.328125s-13.152344 29.359375-29.328125 29.359375c-7.359375 0-13.328125 5.984375-13.328125 13.328125v2.671875h32c5.886719 0 10.671875 4.769531 10.671875 10.671875-.015625 5.886719-4.785156 10.65625-10.671875 10.65625zm0 0" fill="#d9a4fc"/><g fill="#be63f9"><path d="m266.671875 362.671875c-3.167969 0-6.289063-1.390625-8.398437-4.078125l-117.328126-149.328125c-3.648437-4.640625-2.832031-11.34375 1.789063-14.976563 4.640625-3.664062 11.34375-2.832031 14.976563 1.789063l117.328124 149.328125c3.648438 4.640625 2.832032 11.347656-1.792968 14.976562-1.949219 1.554688-4.269532 2.289063-6.574219 2.289063zm0 0"/><path d="m149.328125 362.671875c-2.304687 0-4.625-.734375-6.574219-2.289063-4.625-3.628906-5.441406-10.335937-1.792968-14.976562l117.328124-149.328125c3.632813-4.621094 10.320313-5.453125 14.976563-1.789063 4.621094 3.632813 5.4375 10.335938 1.789063 14.976563l-117.328126 149.328125c-2.109374 2.6875-5.230468 4.078125-8.398437 4.078125zm0 0"/></g></svg>