<?xml version="1.0" encoding="UTF-8"?>
<!-- Generator: Adobe Illustrator 26.0.3, SVG Export Plug-In . SVG Version: 6.00 Build 0)  -->
<svg xmlns="http://www.w3.org/2000/svg" xmlns:xlink="http://www.w3.org/1999/xlink" version="1.1" id="Capa_1" x="0px" y="0px" viewBox="0 0 512 512" style="enable-background:new 0 0 512 512;" xml:space="preserve" width="512" height="512">
<g id="Edit">
	
		<rect x="401.911" y="57.563" transform="matrix(0.7071 -0.7071 0.7071 0.7071 50.8732 320.9952)" style="fill:#33CCCC;" width="22" height="83.05"/>
	<path style="fill:#33CCCC;" d="M376.424,512H11c-6.075,0-11-4.925-11-11V135.576c0-6.075,4.925-11,11-11h189.266   c6.075,0,11,4.925,11,11s-4.925,11-11,11H22V490h343.424V311.734c0-6.075,4.925-11,11-11s11,4.925,11,11V501   C387.424,507.075,382.499,512,376.424,512z"/>
	<path d="M167.628,355.373c-2.871,0-5.683-1.125-7.779-3.222c-2.946-2.946-3.975-7.305-2.657-11.257l29.363-88.089   c0.54-1.62,1.45-3.092,2.657-4.3L434.496,3.222c4.297-4.295,11.26-4.295,15.557,0l58.726,58.726c4.296,4.296,4.296,11.261,0,15.557   L263.494,322.788c-1.208,1.207-2.68,2.117-4.3,2.657l-88.089,29.363C169.966,355.188,168.792,355.373,167.628,355.373z    M206.605,262.226L185.02,326.98l64.754-21.585l235.67-235.67l-43.169-43.169L206.605,262.226z M255.716,315.01h0.01H255.716z"/>
</g>















</svg>
