<?xml version="1.0" encoding="UTF-8"?>
<!-- Generator: Adobe Illustrator 24.2.3, SVG Export Plug-In . SVG Version: 6.00 Build 0)  -->
<svg xmlns="http://www.w3.org/2000/svg" xmlns:xlink="http://www.w3.org/1999/xlink" version="1.1" id="Capa_1" x="0px" y="0px" viewBox="0 0 512 512" style="enable-background:new 0 0 512 512;" xml:space="preserve" width="512" height="512">
<g>
	<path d="M488.8,62.012H373.721C373.271,27.743,345.27,0,310.896,0s-62.375,27.743-62.826,62.012H23.2c-6.075,0-11,4.925-11,11V501   c0,6.075,4.925,11,11,11h338.563c2.838,0.004,5.628-1.145,7.667-3.113l124.825-121.352c3.31-1.896,5.544-5.456,5.544-9.543V73.012   C499.8,66.937,494.875,62.012,488.8,62.012z M310.896,22c25.396-0.287,45.26,23.98,40.064,48.795c0,0,0,0,0,0   c-3.71,18.73-20.261,32.898-40.064,32.898c-22.523,0-40.847-18.324-40.847-40.846C270.049,40.324,288.373,22,310.896,22z    M350.763,490H34.2V84.012h217.527c1.899,5.292,4.493,10.253,7.665,14.783l-42.176,42.176   c-9.916,10.717,4.852,25.468,15.557,15.557l42.176-42.176c33.234,24.042,82.145,7.773,95.118-30.34H477.8v282.98H361.763   c-6.075,0-11,4.925-11,11V490z M461.197,388.992l-88.434,85.973v-85.973H461.197z"/>
	<g>
		<path style="fill:#33CCCC;" d="M427.805,237.518H84.195c-6.075,0-11-4.925-11-11s4.925-11,11-11h343.609c6.075,0,11,4.925,11,11    S433.88,237.518,427.805,237.518z"/>
	</g>
	<g>
		<path d="M368.334,298.514H84.195c-6.075,0-11-4.925-11-11s4.925-11,11-11h284.139c6.075,0,11,4.925,11,11    S374.409,298.514,368.334,298.514z"/>
	</g>
	<g>
		<path style="fill:#33CCCC;" d="M234.622,359.51H84.195c-6.075,0-11-4.925-11-11s4.925-11,11-11h150.426c6.075,0,11,4.925,11,11    S240.697,359.51,234.622,359.51z"/>
	</g>
</g>















</svg>
