<?xml version="1.0" encoding="UTF-8"?>
<!-- Generator: Adobe Illustrator 26.0.3, SVG Export Plug-In . SVG Version: 6.00 Build 0)  -->
<svg xmlns="http://www.w3.org/2000/svg" xmlns:xlink="http://www.w3.org/1999/xlink" version="1.1" id="Capa_1" x="0px" y="0px" viewBox="0 0 512 512" style="enable-background:new 0 0 512 512;" xml:space="preserve" width="512" height="512">
<g id="Password">
	<path style="fill:#33CCCC;" d="M459.475,512H52.525C23.563,512,0,488.437,0,459.475v-83.051c0-28.962,23.563-52.525,52.525-52.525   h406.949c28.962,0,52.525,23.563,52.525,52.525v83.051C512,488.437,488.437,512,459.475,512z M52.525,345.898   C35.694,345.898,22,359.592,22,376.424v83.051C22,476.307,35.694,490,52.525,490h406.949C476.306,490,490,476.307,490,459.475   v-83.051c0-16.832-13.694-30.525-30.525-30.525H52.525z"/>
	<path d="M380.576,124.576h-30.525V94.051C350.051,42.191,307.86,0,256,0s-94.051,42.191-94.051,94.051v30.525h-30.525   c-6.075,0-11,4.925-11,11v116.271c0,6.075,4.925,11,11,11h249.152c6.075,0,11-4.925,11-11V135.576   C391.576,129.501,386.651,124.576,380.576,124.576z M183.949,94.051C183.949,54.322,216.271,22,256,22s72.051,32.322,72.051,72.051   v30.525H183.949V94.051z M369.576,240.848H142.424v-94.271h227.152V240.848z"/>
	<path d="M256.026,429.023c-6.075,0-11-4.925-11-11c0-6.075,4.925-11.018,11-11.018c6.075,0,11,4.906,11,10.982v0.037   C267.026,424.098,262.101,429.023,256.026,429.023z"/>
	<path d="M172.975,429.023c-6.075,0-11-4.925-11-11c0-6.075,4.925-11.018,11-11.018c6.075,0,11,4.906,11,10.982v0.037   C183.975,424.098,179.05,429.023,172.975,429.023z"/>
	<path d="M89.924,429.023c-6.075,0-11-4.925-11-11c0-6.075,4.925-11.018,11-11.018c6.075,0,11,4.906,11,10.982v0.037   C100.924,424.098,96,429.023,89.924,429.023z"/>
	<path d="M339.077,429.023c-6.075,0-11-4.925-11-11c0-6.075,4.925-11.018,11-11.018c6.075,0,11,4.906,11,10.982v0.037   C350.077,424.098,345.152,429.023,339.077,429.023z"/>
	<path d="M422.127,429.023c-6.075,0-11-4.925-11-11c0-6.075,4.925-11.018,11-11.018c6.075,0,11,4.906,11,10.982v0.037   C433.127,424.098,428.203,429.023,422.127,429.023z"/>
</g>















</svg>
