<?xml version="1.0" encoding="UTF-8"?>
<!-- Generator: Adobe Illustrator 24.2.3, SVG Export Plug-In . SVG Version: 6.00 Build 0)  -->
<svg xmlns="http://www.w3.org/2000/svg" xmlns:xlink="http://www.w3.org/1999/xlink" version="1.1" id="Capa_1" x="0px" y="0px" viewBox="0 0 512.099 512.099" style="enable-background:new 0 0 512.099 512.099;" xml:space="preserve" width="512" height="512">
<g>
	<g>
		<path d="M360.002,512.099C182.035,510.032-40.847,281.453,7.037,101.483c9.7-52.761,103.24-143.784,164.061-79.163    c24.182,25.619,55.325,45.57,54.524,85.186c0.175,24.992-11.762,44.315-29.838,60.5c-20.468,20.469-22.362,53.026-4.405,75.73l0,0    c22.11,27.981,48.558,54.426,76.542,76.544c22.705,17.955,55.261,16.062,75.73-4.407l8.285-8.283    c13.898-13.898,32.442-21.554,52.217-21.554c39.568-0.827,59.641,30.402,85.188,54.524    c64.523,61.368-26.177,154.006-79.164,164.061C394.72,509.614,377.895,512.099,360.002,512.099z M120.669,21.989    c-36.888-1.448-86.085,52.089-92.036,83.75c-38.76,147.539,115.537,317.303,248.279,367.534    c64.623,23.109,123.889,26.382,172.685-14.656c32.528-27.847,57.634-69.133,24.188-102.5c-0.001,0-32.971-32.969-32.971-32.969    c-19.186-20.017-54.14-20.011-73.322,0.001c0-0.001-8.285,8.283-8.285,8.283c-28.361,28.362-73.474,30.986-104.934,6.105    c-14.654-11.591-28.914-24.298-42.383-37.768c-13.476-13.476-26.183-27.736-37.768-42.385    c-24.881-31.458-22.256-76.569,6.105-104.933l8.284-8.284c20.017-19.169,20.011-54.15,0-73.321    c0.001,0-32.971-32.971-32.971-32.971C144.924,27.258,133.409,21.989,120.669,21.989z"/>
	</g>
	<g>
		<path style="fill:#33CCCC;" d="M412.142,203.81c-5.075,0-9.637-3.532-10.745-8.695c-4.475-20.863-14.815-39.865-29.902-54.951    c-15.314-15.315-34.622-25.72-55.835-30.09c-5.95-1.226-9.78-7.043-8.555-12.993c1.227-5.95,7.044-9.78,12.993-8.554    c25.438,5.239,48.59,17.716,66.953,36.08c18.091,18.091,30.491,40.876,35.857,65.895c1.274,5.939-2.508,11.788-8.448,13.062    C413.683,203.73,412.906,203.81,412.142,203.81z"/>
	</g>
	<g>
		<path style="fill:#33CCCC;" d="M474.285,265.613c-0.718,0-1.446-0.07-2.177-0.217c-5.956-1.196-9.815-6.994-8.619-12.95    c11.458-57.062-6.272-115.697-47.425-156.852c-41.229-41.229-99.962-58.94-157.11-47.373c-5.956,1.211-11.758-2.645-12.963-8.6    c-1.205-5.954,2.645-11.758,8.599-12.963c64.397-13.034,130.574,6.922,177.031,53.379    c46.371,46.373,66.348,112.443,53.438,176.738C484.009,262.002,479.417,265.613,474.285,265.613z"/>
	</g>
</g>















</svg>
