<?xml version="1.0" encoding="UTF-8"?>
<!-- Generator: Adobe Illustrator 24.2.3, SVG Export Plug-In . SVG Version: 6.00 Build 0)  -->
<svg xmlns="http://www.w3.org/2000/svg" xmlns:xlink="http://www.w3.org/1999/xlink" version="1.1" id="Capa_1" x="0px" y="0px" viewBox="0 0 511.842 511.842" style="enable-background:new 0 0 511.842 511.842;" xml:space="preserve" width="512" height="512">
<g>
	<g>
		<path d="M255.923,511.672C28.717,511.435-85.49,235.446,74.959,74.653c95.26-99.303,266.668-99.319,361.928,0.004    C597.335,235.464,483.114,511.447,255.923,511.672z M255.923,21.672c-128.985,0-233.922,104.972-233.922,234    c12.85,310.433,455.04,310.343,467.843-0.002C489.844,126.644,384.907,21.672,255.923,21.672z"/>
	</g>
	<g>
		<path style="fill:#33CCCC;" d="M267.677,371.238c-8.463,0.132-15.986-7.25-15.793-15.79c0,0,0-43.632,0-43.632H127.747    c-6.26,0-12.139-2.443-16.554-6.879c-4.416-4.437-6.831-10.327-6.802-16.585l0.32-69.211    c0.059-12.492,10.269-22.654,22.759-22.654h123.059v-41.391c-0.117-12.346,14.557-19.506,24.21-11.742    c0,0,125.261,98.751,125.261,98.751c4.89,3.855,7.672,9.637,7.634,15.863c-0.038,6.226-2.892,11.972-7.827,15.767l-122.537,94.217    C274.443,370.126,271.076,371.238,267.677,371.238z M127.47,218.486c-0.417,0-0.757,0.339-0.759,0.756l-0.32,69.212    c-0.002,0.375,0.131,0.698,0.395,0.963c0.264,0.265,0.587,0.399,0.961,0.399h135.137c6.075,0,11,4.925,11,11v41.988    l110.521-84.979l-111.876-88.2v37.86c0,6.075-4.925,11-11,11H127.47z"/>
	</g>
</g>















</svg>
