<?xml version="1.0" encoding="UTF-8"?>
<!-- Generator: Adobe Illustrator 24.2.3, SVG Export Plug-In . SVG Version: 6.00 Build 0)  -->
<svg xmlns="http://www.w3.org/2000/svg" xmlns:xlink="http://www.w3.org/1999/xlink" version="1.1" id="Capa_1" x="0px" y="0px" viewBox="0 0 512 512" style="enable-background:new 0 0 512 512;" xml:space="preserve" width="512" height="512">
<g>
	<path d="M470.502,0H41.498C18.616,0,0,18.616,0,41.498v345.643c0,22.882,18.616,41.498,41.498,41.498h142.506V490H154.34   c-6.075,0-11,4.925-11,11s4.925,11,11,11h203.32c6.075,0,11-4.925,11-11s-4.925-11-11-11h-29.664v-61.361h142.506   c22.882,0,41.498-18.616,41.498-41.498V41.498C512,18.616,493.384,0,470.502,0z M41.498,22h429.004   C481.253,22,490,30.747,490,41.498v304.145H22V41.498C22,30.747,30.747,22,41.498,22z M305.996,490h-99.992v-61.361h99.992V490z    M470.502,406.639H41.498c-10.751,0-19.498-8.747-19.498-19.498v-19.498h468v19.498C490,397.893,481.253,406.639,470.502,406.639z"/>
	<g>
		<g>
			<path style="fill:#33CCCC;" d="M352.28,306.647H159.72c-14.302,0-27.192-7.347-34.48-19.652     c-7.289-12.306-7.536-27.14-0.662-39.682l96.28-175.67C228.001,58.611,241.138,50.83,256,50.83c14.862,0,28,7.78,35.143,20.813     c0,0,0,0,0,0l96.28,175.67c6.874,12.542,6.626,27.376-0.662,39.682S366.582,306.647,352.28,306.647z M256,72.83     c-6.703,0-12.628,3.509-15.85,9.387l-96.28,175.67c-3.1,5.656-2.988,12.347,0.299,17.897c3.287,5.55,9.101,8.863,15.551,8.863     H352.28c6.45,0,12.264-3.313,15.552-8.864c3.287-5.55,3.398-12.24,0.298-17.897L271.85,82.217     C268.628,76.339,262.703,72.83,256,72.83z"/>
		</g>
		<g>
			<g>
				<g>
					<path style="fill:#33CCCC;" d="M256.091,204.988c-6.075,0-11-4.925-11-11v-60.996c0-6.075,4.925-11,11-11       c6.075,0,11,4.925,11,11v60.996C267.092,200.063,262.166,204.988,256.091,204.988z"/>
				</g>
			</g>
		</g>
		<circle style="fill:#33CCCC;" cx="256" cy="239.735" r="11"/>
	</g>
</g>















</svg>
